%TF.GenerationSoftware,KiCad,Pcbnew,7.0.1*%
%TF.CreationDate,2023-03-27T17:03:57-04:00*%
%TF.ProjectId,cyton wired,6379746f-6e20-4776-9972-65642e6b6963,rev?*%
%TF.SameCoordinates,Original*%
%TF.FileFunction,Legend,Top*%
%TF.FilePolarity,Positive*%
%FSLAX46Y46*%
G04 Gerber Fmt 4.6, Leading zero omitted, Abs format (unit mm)*
G04 Created by KiCad (PCBNEW 7.0.1) date 2023-03-27 17:03:57*
%MOMM*%
%LPD*%
G01*
G04 APERTURE LIST*
%ADD10C,0.152400*%
%ADD11C,0.150000*%
%ADD12C,0.120000*%
%ADD13C,0.127000*%
%ADD14C,0.200000*%
%ADD15C,0.100000*%
%ADD16C,0.010000*%
%TA.AperFunction,Profile*%
%ADD17C,0.101600*%
%TD*%
G04 APERTURE END LIST*
D10*
X129794000Y-102793800D02*
X126492000Y-102870000D01*
X147980400Y-133477000D02*
X148361400Y-135788400D01*
D11*
X159706133Y-94630009D02*
X159848990Y-94677628D01*
X159848990Y-94677628D02*
X159896609Y-94725247D01*
X159896609Y-94725247D02*
X159944228Y-94820485D01*
X159944228Y-94820485D02*
X159944228Y-94963342D01*
X159944228Y-94963342D02*
X159896609Y-95058580D01*
X159896609Y-95058580D02*
X159848990Y-95106200D01*
X159848990Y-95106200D02*
X159753752Y-95153819D01*
X159753752Y-95153819D02*
X159372800Y-95153819D01*
X159372800Y-95153819D02*
X159372800Y-94153819D01*
X159372800Y-94153819D02*
X159706133Y-94153819D01*
X159706133Y-94153819D02*
X159801371Y-94201438D01*
X159801371Y-94201438D02*
X159848990Y-94249057D01*
X159848990Y-94249057D02*
X159896609Y-94344295D01*
X159896609Y-94344295D02*
X159896609Y-94439533D01*
X159896609Y-94439533D02*
X159848990Y-94534771D01*
X159848990Y-94534771D02*
X159801371Y-94582390D01*
X159801371Y-94582390D02*
X159706133Y-94630009D01*
X159706133Y-94630009D02*
X159372800Y-94630009D01*
X160944228Y-95153819D02*
X160610895Y-94677628D01*
X160372800Y-95153819D02*
X160372800Y-94153819D01*
X160372800Y-94153819D02*
X160753752Y-94153819D01*
X160753752Y-94153819D02*
X160848990Y-94201438D01*
X160848990Y-94201438D02*
X160896609Y-94249057D01*
X160896609Y-94249057D02*
X160944228Y-94344295D01*
X160944228Y-94344295D02*
X160944228Y-94487152D01*
X160944228Y-94487152D02*
X160896609Y-94582390D01*
X160896609Y-94582390D02*
X160848990Y-94630009D01*
X160848990Y-94630009D02*
X160753752Y-94677628D01*
X160753752Y-94677628D02*
X160372800Y-94677628D01*
X161325181Y-94868104D02*
X161801371Y-94868104D01*
X161229943Y-95153819D02*
X161563276Y-94153819D01*
X161563276Y-94153819D02*
X161896609Y-95153819D01*
X162229943Y-95153819D02*
X162229943Y-94153819D01*
X162706133Y-95153819D02*
X162706133Y-94153819D01*
X162706133Y-94153819D02*
X163277561Y-95153819D01*
X163277561Y-95153819D02*
X163277561Y-94153819D01*
X163753752Y-94772866D02*
X164515657Y-94772866D01*
X165420418Y-94487152D02*
X165420418Y-95153819D01*
X165182323Y-94106200D02*
X164944228Y-94820485D01*
X164944228Y-94820485D02*
X165563275Y-94820485D01*
X166515656Y-95058580D02*
X166468037Y-95106200D01*
X166468037Y-95106200D02*
X166325180Y-95153819D01*
X166325180Y-95153819D02*
X166229942Y-95153819D01*
X166229942Y-95153819D02*
X166087085Y-95106200D01*
X166087085Y-95106200D02*
X165991847Y-95010961D01*
X165991847Y-95010961D02*
X165944228Y-94915723D01*
X165944228Y-94915723D02*
X165896609Y-94725247D01*
X165896609Y-94725247D02*
X165896609Y-94582390D01*
X165896609Y-94582390D02*
X165944228Y-94391914D01*
X165944228Y-94391914D02*
X165991847Y-94296676D01*
X165991847Y-94296676D02*
X166087085Y-94201438D01*
X166087085Y-94201438D02*
X166229942Y-94153819D01*
X166229942Y-94153819D02*
X166325180Y-94153819D01*
X166325180Y-94153819D02*
X166468037Y-94201438D01*
X166468037Y-94201438D02*
X166515656Y-94249057D01*
X166944228Y-94630009D02*
X167277561Y-94630009D01*
X167420418Y-95153819D02*
X166944228Y-95153819D01*
X166944228Y-95153819D02*
X166944228Y-94153819D01*
X166944228Y-94153819D02*
X167420418Y-94153819D01*
X165052828Y-115026802D02*
X165161685Y-115063088D01*
X165161685Y-115063088D02*
X165197971Y-115099374D01*
X165197971Y-115099374D02*
X165234257Y-115171945D01*
X165234257Y-115171945D02*
X165234257Y-115280802D01*
X165234257Y-115280802D02*
X165197971Y-115353374D01*
X165197971Y-115353374D02*
X165161685Y-115389660D01*
X165161685Y-115389660D02*
X165089114Y-115425945D01*
X165089114Y-115425945D02*
X164798828Y-115425945D01*
X164798828Y-115425945D02*
X164798828Y-114663945D01*
X164798828Y-114663945D02*
X165052828Y-114663945D01*
X165052828Y-114663945D02*
X165125400Y-114700231D01*
X165125400Y-114700231D02*
X165161685Y-114736517D01*
X165161685Y-114736517D02*
X165197971Y-114809088D01*
X165197971Y-114809088D02*
X165197971Y-114881660D01*
X165197971Y-114881660D02*
X165161685Y-114954231D01*
X165161685Y-114954231D02*
X165125400Y-114990517D01*
X165125400Y-114990517D02*
X165052828Y-115026802D01*
X165052828Y-115026802D02*
X164798828Y-115026802D01*
X165705971Y-114663945D02*
X165851114Y-114663945D01*
X165851114Y-114663945D02*
X165923685Y-114700231D01*
X165923685Y-114700231D02*
X165996257Y-114772802D01*
X165996257Y-114772802D02*
X166032542Y-114917945D01*
X166032542Y-114917945D02*
X166032542Y-115171945D01*
X166032542Y-115171945D02*
X165996257Y-115317088D01*
X165996257Y-115317088D02*
X165923685Y-115389660D01*
X165923685Y-115389660D02*
X165851114Y-115425945D01*
X165851114Y-115425945D02*
X165705971Y-115425945D01*
X165705971Y-115425945D02*
X165633400Y-115389660D01*
X165633400Y-115389660D02*
X165560828Y-115317088D01*
X165560828Y-115317088D02*
X165524542Y-115171945D01*
X165524542Y-115171945D02*
X165524542Y-114917945D01*
X165524542Y-114917945D02*
X165560828Y-114772802D01*
X165560828Y-114772802D02*
X165633400Y-114700231D01*
X165633400Y-114700231D02*
X165705971Y-114663945D01*
X166504257Y-114663945D02*
X166649400Y-114663945D01*
X166649400Y-114663945D02*
X166721971Y-114700231D01*
X166721971Y-114700231D02*
X166794543Y-114772802D01*
X166794543Y-114772802D02*
X166830828Y-114917945D01*
X166830828Y-114917945D02*
X166830828Y-115171945D01*
X166830828Y-115171945D02*
X166794543Y-115317088D01*
X166794543Y-115317088D02*
X166721971Y-115389660D01*
X166721971Y-115389660D02*
X166649400Y-115425945D01*
X166649400Y-115425945D02*
X166504257Y-115425945D01*
X166504257Y-115425945D02*
X166431686Y-115389660D01*
X166431686Y-115389660D02*
X166359114Y-115317088D01*
X166359114Y-115317088D02*
X166322828Y-115171945D01*
X166322828Y-115171945D02*
X166322828Y-114917945D01*
X166322828Y-114917945D02*
X166359114Y-114772802D01*
X166359114Y-114772802D02*
X166431686Y-114700231D01*
X166431686Y-114700231D02*
X166504257Y-114663945D01*
X167048543Y-114663945D02*
X167483972Y-114663945D01*
X167266257Y-115425945D02*
X167266257Y-114663945D01*
X167556543Y-115498517D02*
X168137114Y-115498517D01*
X168318542Y-115026802D02*
X168572542Y-115026802D01*
X168681399Y-115425945D02*
X168318542Y-115425945D01*
X168318542Y-115425945D02*
X168318542Y-114663945D01*
X168318542Y-114663945D02*
X168681399Y-114663945D01*
X169007971Y-115425945D02*
X169007971Y-114663945D01*
X169007971Y-114663945D02*
X169443400Y-115425945D01*
X169443400Y-115425945D02*
X169443400Y-114663945D01*
X152012638Y-120746819D02*
X152584066Y-120746819D01*
X152298352Y-121746819D02*
X152298352Y-120746819D01*
X152822162Y-120746819D02*
X153488828Y-121746819D01*
X153488828Y-120746819D02*
X152822162Y-121746819D01*
X123458127Y-112374959D02*
X123458127Y-112426275D01*
X123458127Y-112426275D02*
X123406811Y-112528906D01*
X123406811Y-112528906D02*
X123355495Y-112580222D01*
X123355495Y-112580222D02*
X123252864Y-112631538D01*
X123252864Y-112631538D02*
X123150232Y-112631538D01*
X123150232Y-112631538D02*
X123073259Y-112605880D01*
X123073259Y-112605880D02*
X122944969Y-112528906D01*
X122944969Y-112528906D02*
X122867996Y-112451933D01*
X122867996Y-112451933D02*
X122791022Y-112323643D01*
X122791022Y-112323643D02*
X122765364Y-112246670D01*
X122765364Y-112246670D02*
X122765364Y-112144038D01*
X122765364Y-112144038D02*
X122816680Y-112041407D01*
X122816680Y-112041407D02*
X122867996Y-111990091D01*
X122867996Y-111990091D02*
X122970627Y-111938775D01*
X122970627Y-111938775D02*
X123021943Y-111938775D01*
X123996942Y-111938775D02*
X123740364Y-112195354D01*
X123740364Y-112195354D02*
X123201548Y-111656539D01*
X124176547Y-111759170D02*
X123637732Y-111220355D01*
X124484442Y-111451276D02*
X123945626Y-111374302D01*
X123945626Y-110912460D02*
X123945626Y-111528249D01*
X164875028Y-118016745D02*
X164875028Y-117254745D01*
X164875028Y-117254745D02*
X165129028Y-117799031D01*
X165129028Y-117799031D02*
X165383028Y-117254745D01*
X165383028Y-117254745D02*
X165383028Y-118016745D01*
X166181314Y-117944174D02*
X166145028Y-117980460D01*
X166145028Y-117980460D02*
X166036171Y-118016745D01*
X166036171Y-118016745D02*
X165963599Y-118016745D01*
X165963599Y-118016745D02*
X165854742Y-117980460D01*
X165854742Y-117980460D02*
X165782171Y-117907888D01*
X165782171Y-117907888D02*
X165745885Y-117835317D01*
X165745885Y-117835317D02*
X165709599Y-117690174D01*
X165709599Y-117690174D02*
X165709599Y-117581317D01*
X165709599Y-117581317D02*
X165745885Y-117436174D01*
X165745885Y-117436174D02*
X165782171Y-117363602D01*
X165782171Y-117363602D02*
X165854742Y-117291031D01*
X165854742Y-117291031D02*
X165963599Y-117254745D01*
X165963599Y-117254745D02*
X166036171Y-117254745D01*
X166036171Y-117254745D02*
X166145028Y-117291031D01*
X166145028Y-117291031D02*
X166181314Y-117327317D01*
X166870742Y-118016745D02*
X166507885Y-118016745D01*
X166507885Y-118016745D02*
X166507885Y-117254745D01*
X167560171Y-118016745D02*
X167306171Y-117653888D01*
X167124742Y-118016745D02*
X167124742Y-117254745D01*
X167124742Y-117254745D02*
X167415028Y-117254745D01*
X167415028Y-117254745D02*
X167487599Y-117291031D01*
X167487599Y-117291031D02*
X167523885Y-117327317D01*
X167523885Y-117327317D02*
X167560171Y-117399888D01*
X167560171Y-117399888D02*
X167560171Y-117508745D01*
X167560171Y-117508745D02*
X167523885Y-117581317D01*
X167523885Y-117581317D02*
X167487599Y-117617602D01*
X167487599Y-117617602D02*
X167415028Y-117653888D01*
X167415028Y-117653888D02*
X167124742Y-117653888D01*
X115426827Y-104725175D02*
X115349854Y-104750833D01*
X115349854Y-104750833D02*
X115272880Y-104827807D01*
X115272880Y-104827807D02*
X115221564Y-104930438D01*
X115221564Y-104930438D02*
X115221564Y-105033070D01*
X115221564Y-105033070D02*
X115247222Y-105110043D01*
X115247222Y-105110043D02*
X115324196Y-105238333D01*
X115324196Y-105238333D02*
X115401169Y-105315306D01*
X115401169Y-105315306D02*
X115529459Y-105392280D01*
X115529459Y-105392280D02*
X115606432Y-105417938D01*
X115606432Y-105417938D02*
X115709064Y-105417938D01*
X115709064Y-105417938D02*
X115811695Y-105366622D01*
X115811695Y-105366622D02*
X115863011Y-105315306D01*
X115863011Y-105315306D02*
X115914327Y-105212675D01*
X115914327Y-105212675D02*
X115914327Y-105161359D01*
X115914327Y-105161359D02*
X115734722Y-104981754D01*
X115734722Y-104981754D02*
X115632090Y-105084386D01*
X116196564Y-104981754D02*
X115657748Y-104442939D01*
X115657748Y-104442939D02*
X116504458Y-104673860D01*
X116504458Y-104673860D02*
X115965643Y-104135044D01*
X116761037Y-104417281D02*
X116222222Y-103878465D01*
X116222222Y-103878465D02*
X116350511Y-103750176D01*
X116350511Y-103750176D02*
X116453142Y-103698860D01*
X116453142Y-103698860D02*
X116555774Y-103698860D01*
X116555774Y-103698860D02*
X116632748Y-103724518D01*
X116632748Y-103724518D02*
X116761037Y-103801492D01*
X116761037Y-103801492D02*
X116838011Y-103878465D01*
X116838011Y-103878465D02*
X116914984Y-104006755D01*
X116914984Y-104006755D02*
X116940642Y-104083728D01*
X116940642Y-104083728D02*
X116940642Y-104186360D01*
X116940642Y-104186360D02*
X116889326Y-104288991D01*
X116889326Y-104288991D02*
X116761037Y-104417281D01*
X120715443Y-111765875D02*
X120279259Y-111688901D01*
X120407548Y-112073769D02*
X119868733Y-111534954D01*
X119868733Y-111534954D02*
X120073996Y-111329691D01*
X120073996Y-111329691D02*
X120150969Y-111304033D01*
X120150969Y-111304033D02*
X120202285Y-111304033D01*
X120202285Y-111304033D02*
X120279259Y-111329691D01*
X120279259Y-111329691D02*
X120356232Y-111406665D01*
X120356232Y-111406665D02*
X120381890Y-111483638D01*
X120381890Y-111483638D02*
X120381890Y-111534954D01*
X120381890Y-111534954D02*
X120356232Y-111611928D01*
X120356232Y-111611928D02*
X120150969Y-111817191D01*
X120664127Y-111252717D02*
X120843732Y-111073112D01*
X121202942Y-111278375D02*
X120946364Y-111534954D01*
X120946364Y-111534954D02*
X120407548Y-110996139D01*
X120407548Y-110996139D02*
X120664127Y-110739560D01*
X121382548Y-111047454D02*
X121485179Y-110996138D01*
X121485179Y-110996138D02*
X121613469Y-110867849D01*
X121613469Y-110867849D02*
X121639126Y-110790875D01*
X121639126Y-110790875D02*
X121639126Y-110739560D01*
X121639126Y-110739560D02*
X121613469Y-110662586D01*
X121613469Y-110662586D02*
X121562153Y-110611270D01*
X121562153Y-110611270D02*
X121485179Y-110585612D01*
X121485179Y-110585612D02*
X121433863Y-110585612D01*
X121433863Y-110585612D02*
X121356890Y-110611270D01*
X121356890Y-110611270D02*
X121228600Y-110688244D01*
X121228600Y-110688244D02*
X121151627Y-110713902D01*
X121151627Y-110713902D02*
X121100311Y-110713902D01*
X121100311Y-110713902D02*
X121023337Y-110688244D01*
X121023337Y-110688244D02*
X120972022Y-110636928D01*
X120972022Y-110636928D02*
X120946364Y-110559954D01*
X120946364Y-110559954D02*
X120946364Y-110508639D01*
X120946364Y-110508639D02*
X120972022Y-110431665D01*
X120972022Y-110431665D02*
X121100311Y-110303376D01*
X121100311Y-110303376D02*
X121202943Y-110252060D01*
X121664784Y-110252060D02*
X121844389Y-110072455D01*
X122203599Y-110277718D02*
X121947021Y-110534297D01*
X121947021Y-110534297D02*
X121408205Y-109995481D01*
X121408205Y-109995481D02*
X121664784Y-109738903D01*
X121818732Y-109584955D02*
X122126626Y-109277061D01*
X122511494Y-109969823D02*
X121972679Y-109431008D01*
X152500624Y-127999827D02*
X152474966Y-127922854D01*
X152474966Y-127922854D02*
X152397992Y-127845880D01*
X152397992Y-127845880D02*
X152295361Y-127794564D01*
X152295361Y-127794564D02*
X152192729Y-127794564D01*
X152192729Y-127794564D02*
X152115756Y-127820222D01*
X152115756Y-127820222D02*
X151987466Y-127897196D01*
X151987466Y-127897196D02*
X151910493Y-127974169D01*
X151910493Y-127974169D02*
X151833519Y-128102459D01*
X151833519Y-128102459D02*
X151807861Y-128179432D01*
X151807861Y-128179432D02*
X151807861Y-128282064D01*
X151807861Y-128282064D02*
X151859177Y-128384695D01*
X151859177Y-128384695D02*
X151910493Y-128436011D01*
X151910493Y-128436011D02*
X152013124Y-128487327D01*
X152013124Y-128487327D02*
X152064440Y-128487327D01*
X152064440Y-128487327D02*
X152244045Y-128307722D01*
X152244045Y-128307722D02*
X152141413Y-128205090D01*
X152244045Y-128769564D02*
X152782860Y-128230748D01*
X152782860Y-128230748D02*
X152551939Y-129077458D01*
X152551939Y-129077458D02*
X153090755Y-128538643D01*
X152808518Y-129334037D02*
X153347334Y-128795222D01*
X153347334Y-128795222D02*
X153475623Y-128923511D01*
X153475623Y-128923511D02*
X153526939Y-129026142D01*
X153526939Y-129026142D02*
X153526939Y-129128774D01*
X153526939Y-129128774D02*
X153501281Y-129205748D01*
X153501281Y-129205748D02*
X153424307Y-129334037D01*
X153424307Y-129334037D02*
X153347334Y-129411011D01*
X153347334Y-129411011D02*
X153219044Y-129487984D01*
X153219044Y-129487984D02*
X153142071Y-129513642D01*
X153142071Y-129513642D02*
X153039439Y-129513642D01*
X153039439Y-129513642D02*
X152936808Y-129462326D01*
X152936808Y-129462326D02*
X152808518Y-129334037D01*
X148548695Y-109427819D02*
X148548695Y-108427819D01*
X148548695Y-108427819D02*
X148929647Y-108427819D01*
X148929647Y-108427819D02*
X149024885Y-108475438D01*
X149024885Y-108475438D02*
X149072504Y-108523057D01*
X149072504Y-108523057D02*
X149120123Y-108618295D01*
X149120123Y-108618295D02*
X149120123Y-108761152D01*
X149120123Y-108761152D02*
X149072504Y-108856390D01*
X149072504Y-108856390D02*
X149024885Y-108904009D01*
X149024885Y-108904009D02*
X148929647Y-108951628D01*
X148929647Y-108951628D02*
X148548695Y-108951628D01*
X150120123Y-109427819D02*
X149786790Y-108951628D01*
X149548695Y-109427819D02*
X149548695Y-108427819D01*
X149548695Y-108427819D02*
X149929647Y-108427819D01*
X149929647Y-108427819D02*
X150024885Y-108475438D01*
X150024885Y-108475438D02*
X150072504Y-108523057D01*
X150072504Y-108523057D02*
X150120123Y-108618295D01*
X150120123Y-108618295D02*
X150120123Y-108761152D01*
X150120123Y-108761152D02*
X150072504Y-108856390D01*
X150072504Y-108856390D02*
X150024885Y-108904009D01*
X150024885Y-108904009D02*
X149929647Y-108951628D01*
X149929647Y-108951628D02*
X149548695Y-108951628D01*
X150739171Y-108427819D02*
X150929647Y-108427819D01*
X150929647Y-108427819D02*
X151024885Y-108475438D01*
X151024885Y-108475438D02*
X151120123Y-108570676D01*
X151120123Y-108570676D02*
X151167742Y-108761152D01*
X151167742Y-108761152D02*
X151167742Y-109094485D01*
X151167742Y-109094485D02*
X151120123Y-109284961D01*
X151120123Y-109284961D02*
X151024885Y-109380200D01*
X151024885Y-109380200D02*
X150929647Y-109427819D01*
X150929647Y-109427819D02*
X150739171Y-109427819D01*
X150739171Y-109427819D02*
X150643933Y-109380200D01*
X150643933Y-109380200D02*
X150548695Y-109284961D01*
X150548695Y-109284961D02*
X150501076Y-109094485D01*
X150501076Y-109094485D02*
X150501076Y-108761152D01*
X150501076Y-108761152D02*
X150548695Y-108570676D01*
X150548695Y-108570676D02*
X150643933Y-108475438D01*
X150643933Y-108475438D02*
X150739171Y-108427819D01*
X152120123Y-108475438D02*
X152024885Y-108427819D01*
X152024885Y-108427819D02*
X151882028Y-108427819D01*
X151882028Y-108427819D02*
X151739171Y-108475438D01*
X151739171Y-108475438D02*
X151643933Y-108570676D01*
X151643933Y-108570676D02*
X151596314Y-108665914D01*
X151596314Y-108665914D02*
X151548695Y-108856390D01*
X151548695Y-108856390D02*
X151548695Y-108999247D01*
X151548695Y-108999247D02*
X151596314Y-109189723D01*
X151596314Y-109189723D02*
X151643933Y-109284961D01*
X151643933Y-109284961D02*
X151739171Y-109380200D01*
X151739171Y-109380200D02*
X151882028Y-109427819D01*
X151882028Y-109427819D02*
X151977266Y-109427819D01*
X151977266Y-109427819D02*
X152120123Y-109380200D01*
X152120123Y-109380200D02*
X152167742Y-109332580D01*
X152167742Y-109332580D02*
X152167742Y-108999247D01*
X152167742Y-108999247D02*
X151977266Y-108999247D01*
X155388230Y-124522348D02*
X155927045Y-123983533D01*
X155927045Y-123983533D02*
X156132308Y-124188796D01*
X156132308Y-124188796D02*
X156157966Y-124265769D01*
X156157966Y-124265769D02*
X156157966Y-124317085D01*
X156157966Y-124317085D02*
X156132308Y-124394059D01*
X156132308Y-124394059D02*
X156055334Y-124471032D01*
X156055334Y-124471032D02*
X155978361Y-124496690D01*
X155978361Y-124496690D02*
X155927045Y-124496690D01*
X155927045Y-124496690D02*
X155850071Y-124471032D01*
X155850071Y-124471032D02*
X155644808Y-124265769D01*
X156722439Y-124830243D02*
X156696781Y-124753269D01*
X156696781Y-124753269D02*
X156619808Y-124676295D01*
X156619808Y-124676295D02*
X156517176Y-124624980D01*
X156517176Y-124624980D02*
X156414545Y-124624980D01*
X156414545Y-124624980D02*
X156337571Y-124650638D01*
X156337571Y-124650638D02*
X156209282Y-124727611D01*
X156209282Y-124727611D02*
X156132308Y-124804585D01*
X156132308Y-124804585D02*
X156055334Y-124932874D01*
X156055334Y-124932874D02*
X156029676Y-125009848D01*
X156029676Y-125009848D02*
X156029676Y-125112479D01*
X156029676Y-125112479D02*
X156080992Y-125215111D01*
X156080992Y-125215111D02*
X156132308Y-125266426D01*
X156132308Y-125266426D02*
X156234939Y-125317742D01*
X156234939Y-125317742D02*
X156286255Y-125317742D01*
X156286255Y-125317742D02*
X156465860Y-125138137D01*
X156465860Y-125138137D02*
X156363229Y-125035506D01*
X156825071Y-125856558D02*
X156773755Y-125856558D01*
X156773755Y-125856558D02*
X156671123Y-125805242D01*
X156671123Y-125805242D02*
X156619808Y-125753926D01*
X156619808Y-125753926D02*
X156568492Y-125651295D01*
X156568492Y-125651295D02*
X156568492Y-125548663D01*
X156568492Y-125548663D02*
X156594150Y-125471689D01*
X156594150Y-125471689D02*
X156671123Y-125343400D01*
X156671123Y-125343400D02*
X156748097Y-125266426D01*
X156748097Y-125266426D02*
X156876386Y-125189453D01*
X156876386Y-125189453D02*
X156953360Y-125163795D01*
X156953360Y-125163795D02*
X157055991Y-125163795D01*
X157055991Y-125163795D02*
X157158623Y-125215111D01*
X157158623Y-125215111D02*
X157209939Y-125266426D01*
X157209939Y-125266426D02*
X157261254Y-125369058D01*
X157261254Y-125369058D02*
X157261254Y-125420374D01*
X157191630Y-122922148D02*
X157730445Y-122383333D01*
X157730445Y-122383333D02*
X157858734Y-122511622D01*
X157858734Y-122511622D02*
X157910050Y-122614254D01*
X157910050Y-122614254D02*
X157910050Y-122716885D01*
X157910050Y-122716885D02*
X157884392Y-122793859D01*
X157884392Y-122793859D02*
X157807419Y-122922148D01*
X157807419Y-122922148D02*
X157730445Y-122999122D01*
X157730445Y-122999122D02*
X157602156Y-123076095D01*
X157602156Y-123076095D02*
X157525182Y-123101753D01*
X157525182Y-123101753D02*
X157422550Y-123101753D01*
X157422550Y-123101753D02*
X157319919Y-123050438D01*
X157319919Y-123050438D02*
X157191630Y-122922148D01*
X158012682Y-123743200D02*
X157704787Y-123435306D01*
X157858734Y-123589253D02*
X158397550Y-123050438D01*
X158397550Y-123050438D02*
X158269260Y-123076095D01*
X158269260Y-123076095D02*
X158166629Y-123076095D01*
X158166629Y-123076095D02*
X158089655Y-123050438D01*
X158731102Y-123383990D02*
X159064654Y-123717542D01*
X159064654Y-123717542D02*
X158679786Y-123743200D01*
X158679786Y-123743200D02*
X158756760Y-123820174D01*
X158756760Y-123820174D02*
X158782418Y-123897147D01*
X158782418Y-123897147D02*
X158782418Y-123948463D01*
X158782418Y-123948463D02*
X158756760Y-124025437D01*
X158756760Y-124025437D02*
X158628470Y-124153726D01*
X158628470Y-124153726D02*
X158551497Y-124179384D01*
X158551497Y-124179384D02*
X158500181Y-124179384D01*
X158500181Y-124179384D02*
X158423207Y-124153726D01*
X158423207Y-124153726D02*
X158269260Y-123999779D01*
X158269260Y-123999779D02*
X158243602Y-123922805D01*
X158243602Y-123922805D02*
X158243602Y-123871489D01*
X154046671Y-125913159D02*
X153687461Y-126631580D01*
X153687461Y-126631580D02*
X154405882Y-126272369D01*
X154046671Y-126990790D02*
X154585487Y-126451975D01*
X154585487Y-126451975D02*
X154713776Y-126580264D01*
X154713776Y-126580264D02*
X154765092Y-126682895D01*
X154765092Y-126682895D02*
X154765092Y-126785527D01*
X154765092Y-126785527D02*
X154739434Y-126862501D01*
X154739434Y-126862501D02*
X154662460Y-126990790D01*
X154662460Y-126990790D02*
X154585487Y-127067764D01*
X154585487Y-127067764D02*
X154457197Y-127144737D01*
X154457197Y-127144737D02*
X154380224Y-127170395D01*
X154380224Y-127170395D02*
X154277592Y-127170395D01*
X154277592Y-127170395D02*
X154174961Y-127119079D01*
X154174961Y-127119079D02*
X154046671Y-126990790D01*
X154585487Y-127529605D02*
X155124302Y-126990790D01*
X155124302Y-126990790D02*
X155252592Y-127119079D01*
X155252592Y-127119079D02*
X155303907Y-127221711D01*
X155303907Y-127221711D02*
X155303907Y-127324342D01*
X155303907Y-127324342D02*
X155278249Y-127401316D01*
X155278249Y-127401316D02*
X155201276Y-127529605D01*
X155201276Y-127529605D02*
X155124302Y-127606579D01*
X155124302Y-127606579D02*
X154996013Y-127683553D01*
X154996013Y-127683553D02*
X154919039Y-127709210D01*
X154919039Y-127709210D02*
X154816408Y-127709210D01*
X154816408Y-127709210D02*
X154713776Y-127657895D01*
X154713776Y-127657895D02*
X154585487Y-127529605D01*
X126937927Y-115956359D02*
X126937927Y-116007675D01*
X126937927Y-116007675D02*
X126886611Y-116110306D01*
X126886611Y-116110306D02*
X126835295Y-116161622D01*
X126835295Y-116161622D02*
X126732664Y-116212938D01*
X126732664Y-116212938D02*
X126630032Y-116212938D01*
X126630032Y-116212938D02*
X126553059Y-116187280D01*
X126553059Y-116187280D02*
X126424769Y-116110306D01*
X126424769Y-116110306D02*
X126347796Y-116033333D01*
X126347796Y-116033333D02*
X126270822Y-115905043D01*
X126270822Y-115905043D02*
X126245164Y-115828070D01*
X126245164Y-115828070D02*
X126245164Y-115725438D01*
X126245164Y-115725438D02*
X126296480Y-115622807D01*
X126296480Y-115622807D02*
X126347796Y-115571491D01*
X126347796Y-115571491D02*
X126450427Y-115520175D01*
X126450427Y-115520175D02*
X126501743Y-115520175D01*
X127168848Y-115776754D02*
X127271479Y-115725438D01*
X127271479Y-115725438D02*
X127399769Y-115597149D01*
X127399769Y-115597149D02*
X127425426Y-115520175D01*
X127425426Y-115520175D02*
X127425426Y-115468860D01*
X127425426Y-115468860D02*
X127399769Y-115391886D01*
X127399769Y-115391886D02*
X127348453Y-115340570D01*
X127348453Y-115340570D02*
X127271479Y-115314912D01*
X127271479Y-115314912D02*
X127220164Y-115314912D01*
X127220164Y-115314912D02*
X127143190Y-115340570D01*
X127143190Y-115340570D02*
X127014901Y-115417544D01*
X127014901Y-115417544D02*
X126937927Y-115443202D01*
X126937927Y-115443202D02*
X126886611Y-115443202D01*
X126886611Y-115443202D02*
X126809638Y-115417544D01*
X126809638Y-115417544D02*
X126758322Y-115366228D01*
X126758322Y-115366228D02*
X126732664Y-115289254D01*
X126732664Y-115289254D02*
X126732664Y-115237939D01*
X126732664Y-115237939D02*
X126758322Y-115160965D01*
X126758322Y-115160965D02*
X126886611Y-115032676D01*
X126886611Y-115032676D02*
X126989243Y-114981360D01*
X127220163Y-114801755D02*
X127220163Y-114750439D01*
X127220163Y-114750439D02*
X127245821Y-114673466D01*
X127245821Y-114673466D02*
X127374111Y-114545176D01*
X127374111Y-114545176D02*
X127451084Y-114519518D01*
X127451084Y-114519518D02*
X127502400Y-114519518D01*
X127502400Y-114519518D02*
X127579374Y-114545176D01*
X127579374Y-114545176D02*
X127630689Y-114596492D01*
X127630689Y-114596492D02*
X127682005Y-114699123D01*
X127682005Y-114699123D02*
X127682005Y-115314912D01*
X127682005Y-115314912D02*
X128015557Y-114981360D01*
X164925828Y-120505945D02*
X164925828Y-119743945D01*
X164925828Y-119743945D02*
X165107257Y-119743945D01*
X165107257Y-119743945D02*
X165216114Y-119780231D01*
X165216114Y-119780231D02*
X165288685Y-119852802D01*
X165288685Y-119852802D02*
X165324971Y-119925374D01*
X165324971Y-119925374D02*
X165361257Y-120070517D01*
X165361257Y-120070517D02*
X165361257Y-120179374D01*
X165361257Y-120179374D02*
X165324971Y-120324517D01*
X165324971Y-120324517D02*
X165288685Y-120397088D01*
X165288685Y-120397088D02*
X165216114Y-120469660D01*
X165216114Y-120469660D02*
X165107257Y-120505945D01*
X165107257Y-120505945D02*
X164925828Y-120505945D01*
X166086971Y-120505945D02*
X165651542Y-120505945D01*
X165869257Y-120505945D02*
X165869257Y-119743945D01*
X165869257Y-119743945D02*
X165796685Y-119852802D01*
X165796685Y-119852802D02*
X165724114Y-119925374D01*
X165724114Y-119925374D02*
X165651542Y-119961660D01*
X166522399Y-120070517D02*
X166449828Y-120034231D01*
X166449828Y-120034231D02*
X166413542Y-119997945D01*
X166413542Y-119997945D02*
X166377256Y-119925374D01*
X166377256Y-119925374D02*
X166377256Y-119889088D01*
X166377256Y-119889088D02*
X166413542Y-119816517D01*
X166413542Y-119816517D02*
X166449828Y-119780231D01*
X166449828Y-119780231D02*
X166522399Y-119743945D01*
X166522399Y-119743945D02*
X166667542Y-119743945D01*
X166667542Y-119743945D02*
X166740114Y-119780231D01*
X166740114Y-119780231D02*
X166776399Y-119816517D01*
X166776399Y-119816517D02*
X166812685Y-119889088D01*
X166812685Y-119889088D02*
X166812685Y-119925374D01*
X166812685Y-119925374D02*
X166776399Y-119997945D01*
X166776399Y-119997945D02*
X166740114Y-120034231D01*
X166740114Y-120034231D02*
X166667542Y-120070517D01*
X166667542Y-120070517D02*
X166522399Y-120070517D01*
X166522399Y-120070517D02*
X166449828Y-120106802D01*
X166449828Y-120106802D02*
X166413542Y-120143088D01*
X166413542Y-120143088D02*
X166377256Y-120215660D01*
X166377256Y-120215660D02*
X166377256Y-120360802D01*
X166377256Y-120360802D02*
X166413542Y-120433374D01*
X166413542Y-120433374D02*
X166449828Y-120469660D01*
X166449828Y-120469660D02*
X166522399Y-120505945D01*
X166522399Y-120505945D02*
X166667542Y-120505945D01*
X166667542Y-120505945D02*
X166740114Y-120469660D01*
X166740114Y-120469660D02*
X166776399Y-120433374D01*
X166776399Y-120433374D02*
X166812685Y-120360802D01*
X166812685Y-120360802D02*
X166812685Y-120215660D01*
X166812685Y-120215660D02*
X166776399Y-120143088D01*
X166776399Y-120143088D02*
X166740114Y-120106802D01*
X166740114Y-120106802D02*
X166667542Y-120070517D01*
X152701523Y-123474019D02*
X152368190Y-122997828D01*
X152130095Y-123474019D02*
X152130095Y-122474019D01*
X152130095Y-122474019D02*
X152511047Y-122474019D01*
X152511047Y-122474019D02*
X152606285Y-122521638D01*
X152606285Y-122521638D02*
X152653904Y-122569257D01*
X152653904Y-122569257D02*
X152701523Y-122664495D01*
X152701523Y-122664495D02*
X152701523Y-122807352D01*
X152701523Y-122807352D02*
X152653904Y-122902590D01*
X152653904Y-122902590D02*
X152606285Y-122950209D01*
X152606285Y-122950209D02*
X152511047Y-122997828D01*
X152511047Y-122997828D02*
X152130095Y-122997828D01*
X153034857Y-122474019D02*
X153701523Y-123474019D01*
X153701523Y-122474019D02*
X153034857Y-123474019D01*
X164849628Y-123020545D02*
X164849628Y-122258545D01*
X164849628Y-122258545D02*
X165139914Y-122258545D01*
X165139914Y-122258545D02*
X165212485Y-122294831D01*
X165212485Y-122294831D02*
X165248771Y-122331117D01*
X165248771Y-122331117D02*
X165285057Y-122403688D01*
X165285057Y-122403688D02*
X165285057Y-122512545D01*
X165285057Y-122512545D02*
X165248771Y-122585117D01*
X165248771Y-122585117D02*
X165212485Y-122621402D01*
X165212485Y-122621402D02*
X165139914Y-122657688D01*
X165139914Y-122657688D02*
X164849628Y-122657688D01*
X166010771Y-122294831D02*
X165938200Y-122258545D01*
X165938200Y-122258545D02*
X165829342Y-122258545D01*
X165829342Y-122258545D02*
X165720485Y-122294831D01*
X165720485Y-122294831D02*
X165647914Y-122367402D01*
X165647914Y-122367402D02*
X165611628Y-122439974D01*
X165611628Y-122439974D02*
X165575342Y-122585117D01*
X165575342Y-122585117D02*
X165575342Y-122693974D01*
X165575342Y-122693974D02*
X165611628Y-122839117D01*
X165611628Y-122839117D02*
X165647914Y-122911688D01*
X165647914Y-122911688D02*
X165720485Y-122984260D01*
X165720485Y-122984260D02*
X165829342Y-123020545D01*
X165829342Y-123020545D02*
X165901914Y-123020545D01*
X165901914Y-123020545D02*
X166010771Y-122984260D01*
X166010771Y-122984260D02*
X166047057Y-122947974D01*
X166047057Y-122947974D02*
X166047057Y-122693974D01*
X166047057Y-122693974D02*
X165901914Y-122693974D01*
X166373628Y-123020545D02*
X166373628Y-122258545D01*
X166373628Y-122258545D02*
X166555057Y-122258545D01*
X166555057Y-122258545D02*
X166663914Y-122294831D01*
X166663914Y-122294831D02*
X166736485Y-122367402D01*
X166736485Y-122367402D02*
X166772771Y-122439974D01*
X166772771Y-122439974D02*
X166809057Y-122585117D01*
X166809057Y-122585117D02*
X166809057Y-122693974D01*
X166809057Y-122693974D02*
X166772771Y-122839117D01*
X166772771Y-122839117D02*
X166736485Y-122911688D01*
X166736485Y-122911688D02*
X166663914Y-122984260D01*
X166663914Y-122984260D02*
X166555057Y-123020545D01*
X166555057Y-123020545D02*
X166373628Y-123020545D01*
X157869467Y-104746002D02*
X157827134Y-104788336D01*
X157827134Y-104788336D02*
X157700134Y-104830669D01*
X157700134Y-104830669D02*
X157615467Y-104830669D01*
X157615467Y-104830669D02*
X157488467Y-104788336D01*
X157488467Y-104788336D02*
X157403801Y-104703669D01*
X157403801Y-104703669D02*
X157361467Y-104619002D01*
X157361467Y-104619002D02*
X157319134Y-104449669D01*
X157319134Y-104449669D02*
X157319134Y-104322669D01*
X157319134Y-104322669D02*
X157361467Y-104153336D01*
X157361467Y-104153336D02*
X157403801Y-104068669D01*
X157403801Y-104068669D02*
X157488467Y-103984002D01*
X157488467Y-103984002D02*
X157615467Y-103941669D01*
X157615467Y-103941669D02*
X157700134Y-103941669D01*
X157700134Y-103941669D02*
X157827134Y-103984002D01*
X157827134Y-103984002D02*
X157869467Y-104026336D01*
X158419801Y-104407336D02*
X158419801Y-104830669D01*
X158123467Y-103941669D02*
X158419801Y-104407336D01*
X158419801Y-104407336D02*
X158716134Y-103941669D01*
X158885467Y-103941669D02*
X159393467Y-103941669D01*
X159139467Y-104830669D02*
X159139467Y-103941669D01*
X159859134Y-103941669D02*
X160028467Y-103941669D01*
X160028467Y-103941669D02*
X160113134Y-103984002D01*
X160113134Y-103984002D02*
X160197800Y-104068669D01*
X160197800Y-104068669D02*
X160240134Y-104238002D01*
X160240134Y-104238002D02*
X160240134Y-104534336D01*
X160240134Y-104534336D02*
X160197800Y-104703669D01*
X160197800Y-104703669D02*
X160113134Y-104788336D01*
X160113134Y-104788336D02*
X160028467Y-104830669D01*
X160028467Y-104830669D02*
X159859134Y-104830669D01*
X159859134Y-104830669D02*
X159774467Y-104788336D01*
X159774467Y-104788336D02*
X159689800Y-104703669D01*
X159689800Y-104703669D02*
X159647467Y-104534336D01*
X159647467Y-104534336D02*
X159647467Y-104238002D01*
X159647467Y-104238002D02*
X159689800Y-104068669D01*
X159689800Y-104068669D02*
X159774467Y-103984002D01*
X159774467Y-103984002D02*
X159859134Y-103941669D01*
X160621133Y-104830669D02*
X160621133Y-103941669D01*
X160621133Y-103941669D02*
X161129133Y-104830669D01*
X161129133Y-104830669D02*
X161129133Y-103941669D01*
X162145133Y-103941669D02*
X162356799Y-104830669D01*
X162356799Y-104830669D02*
X162526133Y-104195669D01*
X162526133Y-104195669D02*
X162695466Y-104830669D01*
X162695466Y-104830669D02*
X162907133Y-103941669D01*
X163245799Y-104830669D02*
X163245799Y-103941669D01*
X164177132Y-104830669D02*
X163880799Y-104407336D01*
X163669132Y-104830669D02*
X163669132Y-103941669D01*
X163669132Y-103941669D02*
X164007799Y-103941669D01*
X164007799Y-103941669D02*
X164092466Y-103984002D01*
X164092466Y-103984002D02*
X164134799Y-104026336D01*
X164134799Y-104026336D02*
X164177132Y-104111002D01*
X164177132Y-104111002D02*
X164177132Y-104238002D01*
X164177132Y-104238002D02*
X164134799Y-104322669D01*
X164134799Y-104322669D02*
X164092466Y-104365002D01*
X164092466Y-104365002D02*
X164007799Y-104407336D01*
X164007799Y-104407336D02*
X163669132Y-104407336D01*
X164558132Y-104365002D02*
X164854466Y-104365002D01*
X164981466Y-104830669D02*
X164558132Y-104830669D01*
X164558132Y-104830669D02*
X164558132Y-103941669D01*
X164558132Y-103941669D02*
X164981466Y-103941669D01*
X165362465Y-104830669D02*
X165362465Y-103941669D01*
X165362465Y-103941669D02*
X165574132Y-103941669D01*
X165574132Y-103941669D02*
X165701132Y-103984002D01*
X165701132Y-103984002D02*
X165785799Y-104068669D01*
X165785799Y-104068669D02*
X165828132Y-104153336D01*
X165828132Y-104153336D02*
X165870465Y-104322669D01*
X165870465Y-104322669D02*
X165870465Y-104449669D01*
X165870465Y-104449669D02*
X165828132Y-104619002D01*
X165828132Y-104619002D02*
X165785799Y-104703669D01*
X165785799Y-104703669D02*
X165701132Y-104788336D01*
X165701132Y-104788336D02*
X165574132Y-104830669D01*
X165574132Y-104830669D02*
X165362465Y-104830669D01*
X166801798Y-103941669D02*
X167098132Y-104830669D01*
X167098132Y-104830669D02*
X167394465Y-103941669D01*
X168156465Y-104830669D02*
X167648465Y-104830669D01*
X167902465Y-104830669D02*
X167902465Y-103941669D01*
X167902465Y-103941669D02*
X167817798Y-104068669D01*
X167817798Y-104068669D02*
X167733132Y-104153336D01*
X167733132Y-104153336D02*
X167648465Y-104195669D01*
X168537465Y-104746002D02*
X168579799Y-104788336D01*
X168579799Y-104788336D02*
X168537465Y-104830669D01*
X168537465Y-104830669D02*
X168495132Y-104788336D01*
X168495132Y-104788336D02*
X168537465Y-104746002D01*
X168537465Y-104746002D02*
X168537465Y-104830669D01*
X169130132Y-103941669D02*
X169214798Y-103941669D01*
X169214798Y-103941669D02*
X169299465Y-103984002D01*
X169299465Y-103984002D02*
X169341798Y-104026336D01*
X169341798Y-104026336D02*
X169384132Y-104111002D01*
X169384132Y-104111002D02*
X169426465Y-104280336D01*
X169426465Y-104280336D02*
X169426465Y-104492002D01*
X169426465Y-104492002D02*
X169384132Y-104661336D01*
X169384132Y-104661336D02*
X169341798Y-104746002D01*
X169341798Y-104746002D02*
X169299465Y-104788336D01*
X169299465Y-104788336D02*
X169214798Y-104830669D01*
X169214798Y-104830669D02*
X169130132Y-104830669D01*
X169130132Y-104830669D02*
X169045465Y-104788336D01*
X169045465Y-104788336D02*
X169003132Y-104746002D01*
X169003132Y-104746002D02*
X168960798Y-104661336D01*
X168960798Y-104661336D02*
X168918465Y-104492002D01*
X168918465Y-104492002D02*
X168918465Y-104280336D01*
X168918465Y-104280336D02*
X168960798Y-104111002D01*
X168960798Y-104111002D02*
X169003132Y-104026336D01*
X169003132Y-104026336D02*
X169045465Y-103984002D01*
X169045465Y-103984002D02*
X169130132Y-103941669D01*
X117181748Y-107628769D02*
X116642933Y-107089954D01*
X116642933Y-107089954D02*
X117207406Y-107295217D01*
X117207406Y-107295217D02*
X117002143Y-106730744D01*
X117002143Y-106730744D02*
X117540958Y-107269559D01*
X117797537Y-107012980D02*
X117258722Y-106474165D01*
X118002800Y-106756402D02*
X118105431Y-106705086D01*
X118105431Y-106705086D02*
X118233721Y-106576797D01*
X118233721Y-106576797D02*
X118259379Y-106499823D01*
X118259379Y-106499823D02*
X118259379Y-106448507D01*
X118259379Y-106448507D02*
X118233721Y-106371534D01*
X118233721Y-106371534D02*
X118182405Y-106320218D01*
X118182405Y-106320218D02*
X118105431Y-106294560D01*
X118105431Y-106294560D02*
X118054116Y-106294560D01*
X118054116Y-106294560D02*
X117977142Y-106320218D01*
X117977142Y-106320218D02*
X117848853Y-106397192D01*
X117848853Y-106397192D02*
X117771879Y-106422849D01*
X117771879Y-106422849D02*
X117720563Y-106422849D01*
X117720563Y-106422849D02*
X117643590Y-106397192D01*
X117643590Y-106397192D02*
X117592274Y-106345876D01*
X117592274Y-106345876D02*
X117566616Y-106268902D01*
X117566616Y-106268902D02*
X117566616Y-106217586D01*
X117566616Y-106217586D02*
X117592274Y-106140613D01*
X117592274Y-106140613D02*
X117720563Y-106012323D01*
X117720563Y-106012323D02*
X117823195Y-105961008D01*
X118131089Y-105601798D02*
X118233721Y-105499166D01*
X118233721Y-105499166D02*
X118310694Y-105473508D01*
X118310694Y-105473508D02*
X118413326Y-105473508D01*
X118413326Y-105473508D02*
X118541615Y-105550482D01*
X118541615Y-105550482D02*
X118721220Y-105730087D01*
X118721220Y-105730087D02*
X118798194Y-105858376D01*
X118798194Y-105858376D02*
X118798194Y-105961008D01*
X118798194Y-105961008D02*
X118772536Y-106037982D01*
X118772536Y-106037982D02*
X118669904Y-106140613D01*
X118669904Y-106140613D02*
X118592931Y-106166271D01*
X118592931Y-106166271D02*
X118490299Y-106166271D01*
X118490299Y-106166271D02*
X118362010Y-106089297D01*
X118362010Y-106089297D02*
X118182405Y-105909692D01*
X118182405Y-105909692D02*
X118105431Y-105781403D01*
X118105431Y-105781403D02*
X118105431Y-105678771D01*
X118105431Y-105678771D02*
X118131089Y-105601798D01*
X113441759Y-103306128D02*
X114160180Y-103665338D01*
X114160180Y-103665338D02*
X113800969Y-102946917D01*
X114519390Y-103306128D02*
X113980575Y-102767312D01*
X113980575Y-102767312D02*
X114108864Y-102639023D01*
X114108864Y-102639023D02*
X114211495Y-102587707D01*
X114211495Y-102587707D02*
X114314127Y-102587707D01*
X114314127Y-102587707D02*
X114391101Y-102613365D01*
X114391101Y-102613365D02*
X114519390Y-102690339D01*
X114519390Y-102690339D02*
X114596364Y-102767312D01*
X114596364Y-102767312D02*
X114673337Y-102895602D01*
X114673337Y-102895602D02*
X114698995Y-102972575D01*
X114698995Y-102972575D02*
X114698995Y-103075207D01*
X114698995Y-103075207D02*
X114647679Y-103177838D01*
X114647679Y-103177838D02*
X114519390Y-103306128D01*
X115058205Y-102767312D02*
X114519390Y-102228497D01*
X114519390Y-102228497D02*
X114647679Y-102100207D01*
X114647679Y-102100207D02*
X114750311Y-102048892D01*
X114750311Y-102048892D02*
X114852942Y-102048892D01*
X114852942Y-102048892D02*
X114929916Y-102074550D01*
X114929916Y-102074550D02*
X115058205Y-102151523D01*
X115058205Y-102151523D02*
X115135179Y-102228497D01*
X115135179Y-102228497D02*
X115212153Y-102356786D01*
X115212153Y-102356786D02*
X115237810Y-102433760D01*
X115237810Y-102433760D02*
X115237810Y-102536391D01*
X115237810Y-102536391D02*
X115186495Y-102639023D01*
X115186495Y-102639023D02*
X115058205Y-102767312D01*
X124573148Y-115020169D02*
X124034333Y-114481354D01*
X124034333Y-114481354D02*
X124598806Y-114686617D01*
X124598806Y-114686617D02*
X124393543Y-114122144D01*
X124393543Y-114122144D02*
X124932358Y-114660959D01*
X124752753Y-113762934D02*
X124855385Y-113660302D01*
X124855385Y-113660302D02*
X124932358Y-113634644D01*
X124932358Y-113634644D02*
X125034990Y-113634644D01*
X125034990Y-113634644D02*
X125163279Y-113711618D01*
X125163279Y-113711618D02*
X125342884Y-113891223D01*
X125342884Y-113891223D02*
X125419858Y-114019512D01*
X125419858Y-114019512D02*
X125419858Y-114122144D01*
X125419858Y-114122144D02*
X125394200Y-114199118D01*
X125394200Y-114199118D02*
X125291569Y-114301749D01*
X125291569Y-114301749D02*
X125214595Y-114327407D01*
X125214595Y-114327407D02*
X125111963Y-114327407D01*
X125111963Y-114327407D02*
X124983674Y-114250433D01*
X124983674Y-114250433D02*
X124804069Y-114070828D01*
X124804069Y-114070828D02*
X124727095Y-113942539D01*
X124727095Y-113942539D02*
X124727095Y-113839907D01*
X124727095Y-113839907D02*
X124752753Y-113762934D01*
X125702095Y-113839907D02*
X125804726Y-113788591D01*
X125804726Y-113788591D02*
X125933016Y-113660302D01*
X125933016Y-113660302D02*
X125958673Y-113583328D01*
X125958673Y-113583328D02*
X125958673Y-113532013D01*
X125958673Y-113532013D02*
X125933016Y-113455039D01*
X125933016Y-113455039D02*
X125881700Y-113403723D01*
X125881700Y-113403723D02*
X125804726Y-113378065D01*
X125804726Y-113378065D02*
X125753410Y-113378065D01*
X125753410Y-113378065D02*
X125676437Y-113403723D01*
X125676437Y-113403723D02*
X125548147Y-113480697D01*
X125548147Y-113480697D02*
X125471174Y-113506355D01*
X125471174Y-113506355D02*
X125419858Y-113506355D01*
X125419858Y-113506355D02*
X125342884Y-113480697D01*
X125342884Y-113480697D02*
X125291569Y-113429381D01*
X125291569Y-113429381D02*
X125265911Y-113352407D01*
X125265911Y-113352407D02*
X125265911Y-113301092D01*
X125265911Y-113301092D02*
X125291569Y-113224118D01*
X125291569Y-113224118D02*
X125419858Y-113095829D01*
X125419858Y-113095829D02*
X125522490Y-113044513D01*
X126266568Y-113326750D02*
X125727752Y-112787934D01*
X119010032Y-109609969D02*
X119112664Y-109558654D01*
X119112664Y-109558654D02*
X119240953Y-109430364D01*
X119240953Y-109430364D02*
X119266611Y-109353391D01*
X119266611Y-109353391D02*
X119266611Y-109302075D01*
X119266611Y-109302075D02*
X119240953Y-109225101D01*
X119240953Y-109225101D02*
X119189638Y-109173786D01*
X119189638Y-109173786D02*
X119112664Y-109148128D01*
X119112664Y-109148128D02*
X119061348Y-109148128D01*
X119061348Y-109148128D02*
X118984375Y-109173786D01*
X118984375Y-109173786D02*
X118856085Y-109250759D01*
X118856085Y-109250759D02*
X118779112Y-109276417D01*
X118779112Y-109276417D02*
X118727796Y-109276417D01*
X118727796Y-109276417D02*
X118650822Y-109250759D01*
X118650822Y-109250759D02*
X118599506Y-109199443D01*
X118599506Y-109199443D02*
X118573849Y-109122470D01*
X118573849Y-109122470D02*
X118573849Y-109071154D01*
X118573849Y-109071154D02*
X118599506Y-108994180D01*
X118599506Y-108994180D02*
X118727796Y-108865891D01*
X118727796Y-108865891D02*
X118830427Y-108814575D01*
X119831084Y-108737602D02*
X119831084Y-108788918D01*
X119831084Y-108788918D02*
X119779768Y-108891549D01*
X119779768Y-108891549D02*
X119728453Y-108942865D01*
X119728453Y-108942865D02*
X119625821Y-108994181D01*
X119625821Y-108994181D02*
X119523190Y-108994181D01*
X119523190Y-108994181D02*
X119446216Y-108968523D01*
X119446216Y-108968523D02*
X119317927Y-108891549D01*
X119317927Y-108891549D02*
X119240953Y-108814575D01*
X119240953Y-108814575D02*
X119163979Y-108686286D01*
X119163979Y-108686286D02*
X119138322Y-108609312D01*
X119138322Y-108609312D02*
X119138322Y-108506681D01*
X119138322Y-108506681D02*
X119189637Y-108404049D01*
X119189637Y-108404049D02*
X119240953Y-108352734D01*
X119240953Y-108352734D02*
X119343585Y-108301418D01*
X119343585Y-108301418D02*
X119394900Y-108301418D01*
X120369900Y-108301418D02*
X120113321Y-108557997D01*
X120113321Y-108557997D02*
X119574505Y-108019181D01*
X120549505Y-108121813D02*
X120010689Y-107582998D01*
X120857399Y-107813918D02*
X120318584Y-107736945D01*
X120318584Y-107275103D02*
X120318584Y-107890892D01*
X149983723Y-115701619D02*
X149650390Y-115225428D01*
X149412295Y-115701619D02*
X149412295Y-114701619D01*
X149412295Y-114701619D02*
X149793247Y-114701619D01*
X149793247Y-114701619D02*
X149888485Y-114749238D01*
X149888485Y-114749238D02*
X149936104Y-114796857D01*
X149936104Y-114796857D02*
X149983723Y-114892095D01*
X149983723Y-114892095D02*
X149983723Y-115034952D01*
X149983723Y-115034952D02*
X149936104Y-115130190D01*
X149936104Y-115130190D02*
X149888485Y-115177809D01*
X149888485Y-115177809D02*
X149793247Y-115225428D01*
X149793247Y-115225428D02*
X149412295Y-115225428D01*
X150364676Y-115654000D02*
X150507533Y-115701619D01*
X150507533Y-115701619D02*
X150745628Y-115701619D01*
X150745628Y-115701619D02*
X150840866Y-115654000D01*
X150840866Y-115654000D02*
X150888485Y-115606380D01*
X150888485Y-115606380D02*
X150936104Y-115511142D01*
X150936104Y-115511142D02*
X150936104Y-115415904D01*
X150936104Y-115415904D02*
X150888485Y-115320666D01*
X150888485Y-115320666D02*
X150840866Y-115273047D01*
X150840866Y-115273047D02*
X150745628Y-115225428D01*
X150745628Y-115225428D02*
X150555152Y-115177809D01*
X150555152Y-115177809D02*
X150459914Y-115130190D01*
X150459914Y-115130190D02*
X150412295Y-115082571D01*
X150412295Y-115082571D02*
X150364676Y-114987333D01*
X150364676Y-114987333D02*
X150364676Y-114892095D01*
X150364676Y-114892095D02*
X150412295Y-114796857D01*
X150412295Y-114796857D02*
X150459914Y-114749238D01*
X150459914Y-114749238D02*
X150555152Y-114701619D01*
X150555152Y-114701619D02*
X150793247Y-114701619D01*
X150793247Y-114701619D02*
X150936104Y-114749238D01*
X151221819Y-114701619D02*
X151793247Y-114701619D01*
X151507533Y-115701619D02*
X151507533Y-114701619D01*
%TO.C,C13*%
X125315742Y-102018180D02*
X125268123Y-102065800D01*
X125268123Y-102065800D02*
X125125266Y-102113419D01*
X125125266Y-102113419D02*
X125030028Y-102113419D01*
X125030028Y-102113419D02*
X124887171Y-102065800D01*
X124887171Y-102065800D02*
X124791933Y-101970561D01*
X124791933Y-101970561D02*
X124744314Y-101875323D01*
X124744314Y-101875323D02*
X124696695Y-101684847D01*
X124696695Y-101684847D02*
X124696695Y-101541990D01*
X124696695Y-101541990D02*
X124744314Y-101351514D01*
X124744314Y-101351514D02*
X124791933Y-101256276D01*
X124791933Y-101256276D02*
X124887171Y-101161038D01*
X124887171Y-101161038D02*
X125030028Y-101113419D01*
X125030028Y-101113419D02*
X125125266Y-101113419D01*
X125125266Y-101113419D02*
X125268123Y-101161038D01*
X125268123Y-101161038D02*
X125315742Y-101208657D01*
X126268123Y-102113419D02*
X125696695Y-102113419D01*
X125982409Y-102113419D02*
X125982409Y-101113419D01*
X125982409Y-101113419D02*
X125887171Y-101256276D01*
X125887171Y-101256276D02*
X125791933Y-101351514D01*
X125791933Y-101351514D02*
X125696695Y-101399133D01*
X126601457Y-101113419D02*
X127220504Y-101113419D01*
X127220504Y-101113419D02*
X126887171Y-101494371D01*
X126887171Y-101494371D02*
X127030028Y-101494371D01*
X127030028Y-101494371D02*
X127125266Y-101541990D01*
X127125266Y-101541990D02*
X127172885Y-101589609D01*
X127172885Y-101589609D02*
X127220504Y-101684847D01*
X127220504Y-101684847D02*
X127220504Y-101922942D01*
X127220504Y-101922942D02*
X127172885Y-102018180D01*
X127172885Y-102018180D02*
X127125266Y-102065800D01*
X127125266Y-102065800D02*
X127030028Y-102113419D01*
X127030028Y-102113419D02*
X126744314Y-102113419D01*
X126744314Y-102113419D02*
X126649076Y-102065800D01*
X126649076Y-102065800D02*
X126601457Y-102018180D01*
%TO.C,R2*%
X133310333Y-88930819D02*
X132977000Y-88454628D01*
X132738905Y-88930819D02*
X132738905Y-87930819D01*
X132738905Y-87930819D02*
X133119857Y-87930819D01*
X133119857Y-87930819D02*
X133215095Y-87978438D01*
X133215095Y-87978438D02*
X133262714Y-88026057D01*
X133262714Y-88026057D02*
X133310333Y-88121295D01*
X133310333Y-88121295D02*
X133310333Y-88264152D01*
X133310333Y-88264152D02*
X133262714Y-88359390D01*
X133262714Y-88359390D02*
X133215095Y-88407009D01*
X133215095Y-88407009D02*
X133119857Y-88454628D01*
X133119857Y-88454628D02*
X132738905Y-88454628D01*
X133691286Y-88026057D02*
X133738905Y-87978438D01*
X133738905Y-87978438D02*
X133834143Y-87930819D01*
X133834143Y-87930819D02*
X134072238Y-87930819D01*
X134072238Y-87930819D02*
X134167476Y-87978438D01*
X134167476Y-87978438D02*
X134215095Y-88026057D01*
X134215095Y-88026057D02*
X134262714Y-88121295D01*
X134262714Y-88121295D02*
X134262714Y-88216533D01*
X134262714Y-88216533D02*
X134215095Y-88359390D01*
X134215095Y-88359390D02*
X133643667Y-88930819D01*
X133643667Y-88930819D02*
X134262714Y-88930819D01*
%TO.C,D7*%
X149858505Y-133482419D02*
X149858505Y-132482419D01*
X149858505Y-132482419D02*
X150096600Y-132482419D01*
X150096600Y-132482419D02*
X150239457Y-132530038D01*
X150239457Y-132530038D02*
X150334695Y-132625276D01*
X150334695Y-132625276D02*
X150382314Y-132720514D01*
X150382314Y-132720514D02*
X150429933Y-132910990D01*
X150429933Y-132910990D02*
X150429933Y-133053847D01*
X150429933Y-133053847D02*
X150382314Y-133244323D01*
X150382314Y-133244323D02*
X150334695Y-133339561D01*
X150334695Y-133339561D02*
X150239457Y-133434800D01*
X150239457Y-133434800D02*
X150096600Y-133482419D01*
X150096600Y-133482419D02*
X149858505Y-133482419D01*
X150763267Y-132482419D02*
X151429933Y-132482419D01*
X151429933Y-132482419D02*
X151001362Y-133482419D01*
%TO.C,R14*%
X126052342Y-129824819D02*
X125719009Y-129348628D01*
X125480914Y-129824819D02*
X125480914Y-128824819D01*
X125480914Y-128824819D02*
X125861866Y-128824819D01*
X125861866Y-128824819D02*
X125957104Y-128872438D01*
X125957104Y-128872438D02*
X126004723Y-128920057D01*
X126004723Y-128920057D02*
X126052342Y-129015295D01*
X126052342Y-129015295D02*
X126052342Y-129158152D01*
X126052342Y-129158152D02*
X126004723Y-129253390D01*
X126004723Y-129253390D02*
X125957104Y-129301009D01*
X125957104Y-129301009D02*
X125861866Y-129348628D01*
X125861866Y-129348628D02*
X125480914Y-129348628D01*
X127004723Y-129824819D02*
X126433295Y-129824819D01*
X126719009Y-129824819D02*
X126719009Y-128824819D01*
X126719009Y-128824819D02*
X126623771Y-128967676D01*
X126623771Y-128967676D02*
X126528533Y-129062914D01*
X126528533Y-129062914D02*
X126433295Y-129110533D01*
X127861866Y-129158152D02*
X127861866Y-129824819D01*
X127623771Y-128777200D02*
X127385676Y-129491485D01*
X127385676Y-129491485D02*
X128004723Y-129491485D01*
%TO.C,C14*%
X131710780Y-99398057D02*
X131758400Y-99445676D01*
X131758400Y-99445676D02*
X131806019Y-99588533D01*
X131806019Y-99588533D02*
X131806019Y-99683771D01*
X131806019Y-99683771D02*
X131758400Y-99826628D01*
X131758400Y-99826628D02*
X131663161Y-99921866D01*
X131663161Y-99921866D02*
X131567923Y-99969485D01*
X131567923Y-99969485D02*
X131377447Y-100017104D01*
X131377447Y-100017104D02*
X131234590Y-100017104D01*
X131234590Y-100017104D02*
X131044114Y-99969485D01*
X131044114Y-99969485D02*
X130948876Y-99921866D01*
X130948876Y-99921866D02*
X130853638Y-99826628D01*
X130853638Y-99826628D02*
X130806019Y-99683771D01*
X130806019Y-99683771D02*
X130806019Y-99588533D01*
X130806019Y-99588533D02*
X130853638Y-99445676D01*
X130853638Y-99445676D02*
X130901257Y-99398057D01*
X131806019Y-98445676D02*
X131806019Y-99017104D01*
X131806019Y-98731390D02*
X130806019Y-98731390D01*
X130806019Y-98731390D02*
X130948876Y-98826628D01*
X130948876Y-98826628D02*
X131044114Y-98921866D01*
X131044114Y-98921866D02*
X131091733Y-99017104D01*
X131139352Y-97588533D02*
X131806019Y-97588533D01*
X130758400Y-97826628D02*
X131472685Y-98064723D01*
X131472685Y-98064723D02*
X131472685Y-97445676D01*
%TO.C,C15*%
X147509580Y-96324657D02*
X147557200Y-96372276D01*
X147557200Y-96372276D02*
X147604819Y-96515133D01*
X147604819Y-96515133D02*
X147604819Y-96610371D01*
X147604819Y-96610371D02*
X147557200Y-96753228D01*
X147557200Y-96753228D02*
X147461961Y-96848466D01*
X147461961Y-96848466D02*
X147366723Y-96896085D01*
X147366723Y-96896085D02*
X147176247Y-96943704D01*
X147176247Y-96943704D02*
X147033390Y-96943704D01*
X147033390Y-96943704D02*
X146842914Y-96896085D01*
X146842914Y-96896085D02*
X146747676Y-96848466D01*
X146747676Y-96848466D02*
X146652438Y-96753228D01*
X146652438Y-96753228D02*
X146604819Y-96610371D01*
X146604819Y-96610371D02*
X146604819Y-96515133D01*
X146604819Y-96515133D02*
X146652438Y-96372276D01*
X146652438Y-96372276D02*
X146700057Y-96324657D01*
X147604819Y-95372276D02*
X147604819Y-95943704D01*
X147604819Y-95657990D02*
X146604819Y-95657990D01*
X146604819Y-95657990D02*
X146747676Y-95753228D01*
X146747676Y-95753228D02*
X146842914Y-95848466D01*
X146842914Y-95848466D02*
X146890533Y-95943704D01*
X146604819Y-94467514D02*
X146604819Y-94943704D01*
X146604819Y-94943704D02*
X147081009Y-94991323D01*
X147081009Y-94991323D02*
X147033390Y-94943704D01*
X147033390Y-94943704D02*
X146985771Y-94848466D01*
X146985771Y-94848466D02*
X146985771Y-94610371D01*
X146985771Y-94610371D02*
X147033390Y-94515133D01*
X147033390Y-94515133D02*
X147081009Y-94467514D01*
X147081009Y-94467514D02*
X147176247Y-94419895D01*
X147176247Y-94419895D02*
X147414342Y-94419895D01*
X147414342Y-94419895D02*
X147509580Y-94467514D01*
X147509580Y-94467514D02*
X147557200Y-94515133D01*
X147557200Y-94515133D02*
X147604819Y-94610371D01*
X147604819Y-94610371D02*
X147604819Y-94848466D01*
X147604819Y-94848466D02*
X147557200Y-94943704D01*
X147557200Y-94943704D02*
X147509580Y-94991323D01*
%TO.C,R6*%
X146385619Y-96178666D02*
X145909428Y-96511999D01*
X146385619Y-96750094D02*
X145385619Y-96750094D01*
X145385619Y-96750094D02*
X145385619Y-96369142D01*
X145385619Y-96369142D02*
X145433238Y-96273904D01*
X145433238Y-96273904D02*
X145480857Y-96226285D01*
X145480857Y-96226285D02*
X145576095Y-96178666D01*
X145576095Y-96178666D02*
X145718952Y-96178666D01*
X145718952Y-96178666D02*
X145814190Y-96226285D01*
X145814190Y-96226285D02*
X145861809Y-96273904D01*
X145861809Y-96273904D02*
X145909428Y-96369142D01*
X145909428Y-96369142D02*
X145909428Y-96750094D01*
X145385619Y-95321523D02*
X145385619Y-95511999D01*
X145385619Y-95511999D02*
X145433238Y-95607237D01*
X145433238Y-95607237D02*
X145480857Y-95654856D01*
X145480857Y-95654856D02*
X145623714Y-95750094D01*
X145623714Y-95750094D02*
X145814190Y-95797713D01*
X145814190Y-95797713D02*
X146195142Y-95797713D01*
X146195142Y-95797713D02*
X146290380Y-95750094D01*
X146290380Y-95750094D02*
X146338000Y-95702475D01*
X146338000Y-95702475D02*
X146385619Y-95607237D01*
X146385619Y-95607237D02*
X146385619Y-95416761D01*
X146385619Y-95416761D02*
X146338000Y-95321523D01*
X146338000Y-95321523D02*
X146290380Y-95273904D01*
X146290380Y-95273904D02*
X146195142Y-95226285D01*
X146195142Y-95226285D02*
X145957047Y-95226285D01*
X145957047Y-95226285D02*
X145861809Y-95273904D01*
X145861809Y-95273904D02*
X145814190Y-95321523D01*
X145814190Y-95321523D02*
X145766571Y-95416761D01*
X145766571Y-95416761D02*
X145766571Y-95607237D01*
X145766571Y-95607237D02*
X145814190Y-95702475D01*
X145814190Y-95702475D02*
X145861809Y-95750094D01*
X145861809Y-95750094D02*
X145957047Y-95797713D01*
%TO.C,Y1*%
X141281209Y-121373028D02*
X141281209Y-121849219D01*
X140947876Y-120849219D02*
X141281209Y-121373028D01*
X141281209Y-121373028D02*
X141614542Y-120849219D01*
X142471685Y-121849219D02*
X141900257Y-121849219D01*
X142185971Y-121849219D02*
X142185971Y-120849219D01*
X142185971Y-120849219D02*
X142090733Y-120992076D01*
X142090733Y-120992076D02*
X141995495Y-121087314D01*
X141995495Y-121087314D02*
X141900257Y-121134933D01*
%TO.C,R8*%
X149058333Y-137165419D02*
X148725000Y-136689228D01*
X148486905Y-137165419D02*
X148486905Y-136165419D01*
X148486905Y-136165419D02*
X148867857Y-136165419D01*
X148867857Y-136165419D02*
X148963095Y-136213038D01*
X148963095Y-136213038D02*
X149010714Y-136260657D01*
X149010714Y-136260657D02*
X149058333Y-136355895D01*
X149058333Y-136355895D02*
X149058333Y-136498752D01*
X149058333Y-136498752D02*
X149010714Y-136593990D01*
X149010714Y-136593990D02*
X148963095Y-136641609D01*
X148963095Y-136641609D02*
X148867857Y-136689228D01*
X148867857Y-136689228D02*
X148486905Y-136689228D01*
X149629762Y-136593990D02*
X149534524Y-136546371D01*
X149534524Y-136546371D02*
X149486905Y-136498752D01*
X149486905Y-136498752D02*
X149439286Y-136403514D01*
X149439286Y-136403514D02*
X149439286Y-136355895D01*
X149439286Y-136355895D02*
X149486905Y-136260657D01*
X149486905Y-136260657D02*
X149534524Y-136213038D01*
X149534524Y-136213038D02*
X149629762Y-136165419D01*
X149629762Y-136165419D02*
X149820238Y-136165419D01*
X149820238Y-136165419D02*
X149915476Y-136213038D01*
X149915476Y-136213038D02*
X149963095Y-136260657D01*
X149963095Y-136260657D02*
X150010714Y-136355895D01*
X150010714Y-136355895D02*
X150010714Y-136403514D01*
X150010714Y-136403514D02*
X149963095Y-136498752D01*
X149963095Y-136498752D02*
X149915476Y-136546371D01*
X149915476Y-136546371D02*
X149820238Y-136593990D01*
X149820238Y-136593990D02*
X149629762Y-136593990D01*
X149629762Y-136593990D02*
X149534524Y-136641609D01*
X149534524Y-136641609D02*
X149486905Y-136689228D01*
X149486905Y-136689228D02*
X149439286Y-136784466D01*
X149439286Y-136784466D02*
X149439286Y-136974942D01*
X149439286Y-136974942D02*
X149486905Y-137070180D01*
X149486905Y-137070180D02*
X149534524Y-137117800D01*
X149534524Y-137117800D02*
X149629762Y-137165419D01*
X149629762Y-137165419D02*
X149820238Y-137165419D01*
X149820238Y-137165419D02*
X149915476Y-137117800D01*
X149915476Y-137117800D02*
X149963095Y-137070180D01*
X149963095Y-137070180D02*
X150010714Y-136974942D01*
X150010714Y-136974942D02*
X150010714Y-136784466D01*
X150010714Y-136784466D02*
X149963095Y-136689228D01*
X149963095Y-136689228D02*
X149915476Y-136641609D01*
X149915476Y-136641609D02*
X149820238Y-136593990D01*
%TO.C,R1*%
X128255733Y-88829219D02*
X127922400Y-88353028D01*
X127684305Y-88829219D02*
X127684305Y-87829219D01*
X127684305Y-87829219D02*
X128065257Y-87829219D01*
X128065257Y-87829219D02*
X128160495Y-87876838D01*
X128160495Y-87876838D02*
X128208114Y-87924457D01*
X128208114Y-87924457D02*
X128255733Y-88019695D01*
X128255733Y-88019695D02*
X128255733Y-88162552D01*
X128255733Y-88162552D02*
X128208114Y-88257790D01*
X128208114Y-88257790D02*
X128160495Y-88305409D01*
X128160495Y-88305409D02*
X128065257Y-88353028D01*
X128065257Y-88353028D02*
X127684305Y-88353028D01*
X129208114Y-88829219D02*
X128636686Y-88829219D01*
X128922400Y-88829219D02*
X128922400Y-87829219D01*
X128922400Y-87829219D02*
X128827162Y-87972076D01*
X128827162Y-87972076D02*
X128731924Y-88067314D01*
X128731924Y-88067314D02*
X128636686Y-88114933D01*
%TO.C,C11*%
X130116342Y-107758580D02*
X130068723Y-107806200D01*
X130068723Y-107806200D02*
X129925866Y-107853819D01*
X129925866Y-107853819D02*
X129830628Y-107853819D01*
X129830628Y-107853819D02*
X129687771Y-107806200D01*
X129687771Y-107806200D02*
X129592533Y-107710961D01*
X129592533Y-107710961D02*
X129544914Y-107615723D01*
X129544914Y-107615723D02*
X129497295Y-107425247D01*
X129497295Y-107425247D02*
X129497295Y-107282390D01*
X129497295Y-107282390D02*
X129544914Y-107091914D01*
X129544914Y-107091914D02*
X129592533Y-106996676D01*
X129592533Y-106996676D02*
X129687771Y-106901438D01*
X129687771Y-106901438D02*
X129830628Y-106853819D01*
X129830628Y-106853819D02*
X129925866Y-106853819D01*
X129925866Y-106853819D02*
X130068723Y-106901438D01*
X130068723Y-106901438D02*
X130116342Y-106949057D01*
X131068723Y-107853819D02*
X130497295Y-107853819D01*
X130783009Y-107853819D02*
X130783009Y-106853819D01*
X130783009Y-106853819D02*
X130687771Y-106996676D01*
X130687771Y-106996676D02*
X130592533Y-107091914D01*
X130592533Y-107091914D02*
X130497295Y-107139533D01*
X132021104Y-107853819D02*
X131449676Y-107853819D01*
X131735390Y-107853819D02*
X131735390Y-106853819D01*
X131735390Y-106853819D02*
X131640152Y-106996676D01*
X131640152Y-106996676D02*
X131544914Y-107091914D01*
X131544914Y-107091914D02*
X131449676Y-107139533D01*
%TO.C,R5*%
X148575733Y-88956219D02*
X148242400Y-88480028D01*
X148004305Y-88956219D02*
X148004305Y-87956219D01*
X148004305Y-87956219D02*
X148385257Y-87956219D01*
X148385257Y-87956219D02*
X148480495Y-88003838D01*
X148480495Y-88003838D02*
X148528114Y-88051457D01*
X148528114Y-88051457D02*
X148575733Y-88146695D01*
X148575733Y-88146695D02*
X148575733Y-88289552D01*
X148575733Y-88289552D02*
X148528114Y-88384790D01*
X148528114Y-88384790D02*
X148480495Y-88432409D01*
X148480495Y-88432409D02*
X148385257Y-88480028D01*
X148385257Y-88480028D02*
X148004305Y-88480028D01*
X149480495Y-87956219D02*
X149004305Y-87956219D01*
X149004305Y-87956219D02*
X148956686Y-88432409D01*
X148956686Y-88432409D02*
X149004305Y-88384790D01*
X149004305Y-88384790D02*
X149099543Y-88337171D01*
X149099543Y-88337171D02*
X149337638Y-88337171D01*
X149337638Y-88337171D02*
X149432876Y-88384790D01*
X149432876Y-88384790D02*
X149480495Y-88432409D01*
X149480495Y-88432409D02*
X149528114Y-88527647D01*
X149528114Y-88527647D02*
X149528114Y-88765742D01*
X149528114Y-88765742D02*
X149480495Y-88860980D01*
X149480495Y-88860980D02*
X149432876Y-88908600D01*
X149432876Y-88908600D02*
X149337638Y-88956219D01*
X149337638Y-88956219D02*
X149099543Y-88956219D01*
X149099543Y-88956219D02*
X149004305Y-88908600D01*
X149004305Y-88908600D02*
X148956686Y-88860980D01*
%TO.C,J3*%
X152600065Y-132025219D02*
X152600065Y-132739504D01*
X152600065Y-132739504D02*
X152552446Y-132882361D01*
X152552446Y-132882361D02*
X152457208Y-132977600D01*
X152457208Y-132977600D02*
X152314351Y-133025219D01*
X152314351Y-133025219D02*
X152219113Y-133025219D01*
X152981018Y-132025219D02*
X153600065Y-132025219D01*
X153600065Y-132025219D02*
X153266732Y-132406171D01*
X153266732Y-132406171D02*
X153409589Y-132406171D01*
X153409589Y-132406171D02*
X153504827Y-132453790D01*
X153504827Y-132453790D02*
X153552446Y-132501409D01*
X153552446Y-132501409D02*
X153600065Y-132596647D01*
X153600065Y-132596647D02*
X153600065Y-132834742D01*
X153600065Y-132834742D02*
X153552446Y-132929980D01*
X153552446Y-132929980D02*
X153504827Y-132977600D01*
X153504827Y-132977600D02*
X153409589Y-133025219D01*
X153409589Y-133025219D02*
X153123875Y-133025219D01*
X153123875Y-133025219D02*
X153028637Y-132977600D01*
X153028637Y-132977600D02*
X152981018Y-132929980D01*
%TO.C,C19*%
X144746742Y-110781180D02*
X144699123Y-110828800D01*
X144699123Y-110828800D02*
X144556266Y-110876419D01*
X144556266Y-110876419D02*
X144461028Y-110876419D01*
X144461028Y-110876419D02*
X144318171Y-110828800D01*
X144318171Y-110828800D02*
X144222933Y-110733561D01*
X144222933Y-110733561D02*
X144175314Y-110638323D01*
X144175314Y-110638323D02*
X144127695Y-110447847D01*
X144127695Y-110447847D02*
X144127695Y-110304990D01*
X144127695Y-110304990D02*
X144175314Y-110114514D01*
X144175314Y-110114514D02*
X144222933Y-110019276D01*
X144222933Y-110019276D02*
X144318171Y-109924038D01*
X144318171Y-109924038D02*
X144461028Y-109876419D01*
X144461028Y-109876419D02*
X144556266Y-109876419D01*
X144556266Y-109876419D02*
X144699123Y-109924038D01*
X144699123Y-109924038D02*
X144746742Y-109971657D01*
X145699123Y-110876419D02*
X145127695Y-110876419D01*
X145413409Y-110876419D02*
X145413409Y-109876419D01*
X145413409Y-109876419D02*
X145318171Y-110019276D01*
X145318171Y-110019276D02*
X145222933Y-110114514D01*
X145222933Y-110114514D02*
X145127695Y-110162133D01*
X146175314Y-110876419D02*
X146365790Y-110876419D01*
X146365790Y-110876419D02*
X146461028Y-110828800D01*
X146461028Y-110828800D02*
X146508647Y-110781180D01*
X146508647Y-110781180D02*
X146603885Y-110638323D01*
X146603885Y-110638323D02*
X146651504Y-110447847D01*
X146651504Y-110447847D02*
X146651504Y-110066895D01*
X146651504Y-110066895D02*
X146603885Y-109971657D01*
X146603885Y-109971657D02*
X146556266Y-109924038D01*
X146556266Y-109924038D02*
X146461028Y-109876419D01*
X146461028Y-109876419D02*
X146270552Y-109876419D01*
X146270552Y-109876419D02*
X146175314Y-109924038D01*
X146175314Y-109924038D02*
X146127695Y-109971657D01*
X146127695Y-109971657D02*
X146080076Y-110066895D01*
X146080076Y-110066895D02*
X146080076Y-110304990D01*
X146080076Y-110304990D02*
X146127695Y-110400228D01*
X146127695Y-110400228D02*
X146175314Y-110447847D01*
X146175314Y-110447847D02*
X146270552Y-110495466D01*
X146270552Y-110495466D02*
X146461028Y-110495466D01*
X146461028Y-110495466D02*
X146556266Y-110447847D01*
X146556266Y-110447847D02*
X146603885Y-110400228D01*
X146603885Y-110400228D02*
X146651504Y-110304990D01*
%TO.C,C41*%
X126673980Y-120810257D02*
X126721600Y-120857876D01*
X126721600Y-120857876D02*
X126769219Y-121000733D01*
X126769219Y-121000733D02*
X126769219Y-121095971D01*
X126769219Y-121095971D02*
X126721600Y-121238828D01*
X126721600Y-121238828D02*
X126626361Y-121334066D01*
X126626361Y-121334066D02*
X126531123Y-121381685D01*
X126531123Y-121381685D02*
X126340647Y-121429304D01*
X126340647Y-121429304D02*
X126197790Y-121429304D01*
X126197790Y-121429304D02*
X126007314Y-121381685D01*
X126007314Y-121381685D02*
X125912076Y-121334066D01*
X125912076Y-121334066D02*
X125816838Y-121238828D01*
X125816838Y-121238828D02*
X125769219Y-121095971D01*
X125769219Y-121095971D02*
X125769219Y-121000733D01*
X125769219Y-121000733D02*
X125816838Y-120857876D01*
X125816838Y-120857876D02*
X125864457Y-120810257D01*
X126102552Y-119953114D02*
X126769219Y-119953114D01*
X125721600Y-120191209D02*
X126435885Y-120429304D01*
X126435885Y-120429304D02*
X126435885Y-119810257D01*
X126769219Y-118905495D02*
X126769219Y-119476923D01*
X126769219Y-119191209D02*
X125769219Y-119191209D01*
X125769219Y-119191209D02*
X125912076Y-119286447D01*
X125912076Y-119286447D02*
X126007314Y-119381685D01*
X126007314Y-119381685D02*
X126054933Y-119476923D01*
%TO.C,U2*%
X143154495Y-129993219D02*
X143154495Y-130802742D01*
X143154495Y-130802742D02*
X143202114Y-130897980D01*
X143202114Y-130897980D02*
X143249733Y-130945600D01*
X143249733Y-130945600D02*
X143344971Y-130993219D01*
X143344971Y-130993219D02*
X143535447Y-130993219D01*
X143535447Y-130993219D02*
X143630685Y-130945600D01*
X143630685Y-130945600D02*
X143678304Y-130897980D01*
X143678304Y-130897980D02*
X143725923Y-130802742D01*
X143725923Y-130802742D02*
X143725923Y-129993219D01*
X144154495Y-130088457D02*
X144202114Y-130040838D01*
X144202114Y-130040838D02*
X144297352Y-129993219D01*
X144297352Y-129993219D02*
X144535447Y-129993219D01*
X144535447Y-129993219D02*
X144630685Y-130040838D01*
X144630685Y-130040838D02*
X144678304Y-130088457D01*
X144678304Y-130088457D02*
X144725923Y-130183695D01*
X144725923Y-130183695D02*
X144725923Y-130278933D01*
X144725923Y-130278933D02*
X144678304Y-130421790D01*
X144678304Y-130421790D02*
X144106876Y-130993219D01*
X144106876Y-130993219D02*
X144725923Y-130993219D01*
%TO.C,J1*%
X121839819Y-83823133D02*
X122554104Y-83823133D01*
X122554104Y-83823133D02*
X122696961Y-83870752D01*
X122696961Y-83870752D02*
X122792200Y-83965990D01*
X122792200Y-83965990D02*
X122839819Y-84108847D01*
X122839819Y-84108847D02*
X122839819Y-84204085D01*
X122839819Y-82823133D02*
X122839819Y-83394561D01*
X122839819Y-83108847D02*
X121839819Y-83108847D01*
X121839819Y-83108847D02*
X121982676Y-83204085D01*
X121982676Y-83204085D02*
X122077914Y-83299323D01*
X122077914Y-83299323D02*
X122125533Y-83394561D01*
%TO.C,C17*%
X150258542Y-135292180D02*
X150210923Y-135339800D01*
X150210923Y-135339800D02*
X150068066Y-135387419D01*
X150068066Y-135387419D02*
X149972828Y-135387419D01*
X149972828Y-135387419D02*
X149829971Y-135339800D01*
X149829971Y-135339800D02*
X149734733Y-135244561D01*
X149734733Y-135244561D02*
X149687114Y-135149323D01*
X149687114Y-135149323D02*
X149639495Y-134958847D01*
X149639495Y-134958847D02*
X149639495Y-134815990D01*
X149639495Y-134815990D02*
X149687114Y-134625514D01*
X149687114Y-134625514D02*
X149734733Y-134530276D01*
X149734733Y-134530276D02*
X149829971Y-134435038D01*
X149829971Y-134435038D02*
X149972828Y-134387419D01*
X149972828Y-134387419D02*
X150068066Y-134387419D01*
X150068066Y-134387419D02*
X150210923Y-134435038D01*
X150210923Y-134435038D02*
X150258542Y-134482657D01*
X151210923Y-135387419D02*
X150639495Y-135387419D01*
X150925209Y-135387419D02*
X150925209Y-134387419D01*
X150925209Y-134387419D02*
X150829971Y-134530276D01*
X150829971Y-134530276D02*
X150734733Y-134625514D01*
X150734733Y-134625514D02*
X150639495Y-134673133D01*
X151544257Y-134387419D02*
X152210923Y-134387419D01*
X152210923Y-134387419D02*
X151782352Y-135387419D01*
%TO.C,J5*%
X159000866Y-118334619D02*
X159000866Y-119048904D01*
X159000866Y-119048904D02*
X158953247Y-119191761D01*
X158953247Y-119191761D02*
X158858009Y-119287000D01*
X158858009Y-119287000D02*
X158715152Y-119334619D01*
X158715152Y-119334619D02*
X158619914Y-119334619D01*
X159953247Y-118334619D02*
X159477057Y-118334619D01*
X159477057Y-118334619D02*
X159429438Y-118810809D01*
X159429438Y-118810809D02*
X159477057Y-118763190D01*
X159477057Y-118763190D02*
X159572295Y-118715571D01*
X159572295Y-118715571D02*
X159810390Y-118715571D01*
X159810390Y-118715571D02*
X159905628Y-118763190D01*
X159905628Y-118763190D02*
X159953247Y-118810809D01*
X159953247Y-118810809D02*
X160000866Y-118906047D01*
X160000866Y-118906047D02*
X160000866Y-119144142D01*
X160000866Y-119144142D02*
X159953247Y-119239380D01*
X159953247Y-119239380D02*
X159905628Y-119287000D01*
X159905628Y-119287000D02*
X159810390Y-119334619D01*
X159810390Y-119334619D02*
X159572295Y-119334619D01*
X159572295Y-119334619D02*
X159477057Y-119287000D01*
X159477057Y-119287000D02*
X159429438Y-119239380D01*
%TO.C,CONN1*%
X131027704Y-135215980D02*
X130980085Y-135263600D01*
X130980085Y-135263600D02*
X130837228Y-135311219D01*
X130837228Y-135311219D02*
X130741990Y-135311219D01*
X130741990Y-135311219D02*
X130599133Y-135263600D01*
X130599133Y-135263600D02*
X130503895Y-135168361D01*
X130503895Y-135168361D02*
X130456276Y-135073123D01*
X130456276Y-135073123D02*
X130408657Y-134882647D01*
X130408657Y-134882647D02*
X130408657Y-134739790D01*
X130408657Y-134739790D02*
X130456276Y-134549314D01*
X130456276Y-134549314D02*
X130503895Y-134454076D01*
X130503895Y-134454076D02*
X130599133Y-134358838D01*
X130599133Y-134358838D02*
X130741990Y-134311219D01*
X130741990Y-134311219D02*
X130837228Y-134311219D01*
X130837228Y-134311219D02*
X130980085Y-134358838D01*
X130980085Y-134358838D02*
X131027704Y-134406457D01*
X131646752Y-134311219D02*
X131837228Y-134311219D01*
X131837228Y-134311219D02*
X131932466Y-134358838D01*
X131932466Y-134358838D02*
X132027704Y-134454076D01*
X132027704Y-134454076D02*
X132075323Y-134644552D01*
X132075323Y-134644552D02*
X132075323Y-134977885D01*
X132075323Y-134977885D02*
X132027704Y-135168361D01*
X132027704Y-135168361D02*
X131932466Y-135263600D01*
X131932466Y-135263600D02*
X131837228Y-135311219D01*
X131837228Y-135311219D02*
X131646752Y-135311219D01*
X131646752Y-135311219D02*
X131551514Y-135263600D01*
X131551514Y-135263600D02*
X131456276Y-135168361D01*
X131456276Y-135168361D02*
X131408657Y-134977885D01*
X131408657Y-134977885D02*
X131408657Y-134644552D01*
X131408657Y-134644552D02*
X131456276Y-134454076D01*
X131456276Y-134454076D02*
X131551514Y-134358838D01*
X131551514Y-134358838D02*
X131646752Y-134311219D01*
X132503895Y-135311219D02*
X132503895Y-134311219D01*
X132503895Y-134311219D02*
X133075323Y-135311219D01*
X133075323Y-135311219D02*
X133075323Y-134311219D01*
X133551514Y-135311219D02*
X133551514Y-134311219D01*
X133551514Y-134311219D02*
X134122942Y-135311219D01*
X134122942Y-135311219D02*
X134122942Y-134311219D01*
X135122942Y-135311219D02*
X134551514Y-135311219D01*
X134837228Y-135311219D02*
X134837228Y-134311219D01*
X134837228Y-134311219D02*
X134741990Y-134454076D01*
X134741990Y-134454076D02*
X134646752Y-134549314D01*
X134646752Y-134549314D02*
X134551514Y-134596933D01*
%TO.C,R15*%
X154449542Y-104424819D02*
X154116209Y-103948628D01*
X153878114Y-104424819D02*
X153878114Y-103424819D01*
X153878114Y-103424819D02*
X154259066Y-103424819D01*
X154259066Y-103424819D02*
X154354304Y-103472438D01*
X154354304Y-103472438D02*
X154401923Y-103520057D01*
X154401923Y-103520057D02*
X154449542Y-103615295D01*
X154449542Y-103615295D02*
X154449542Y-103758152D01*
X154449542Y-103758152D02*
X154401923Y-103853390D01*
X154401923Y-103853390D02*
X154354304Y-103901009D01*
X154354304Y-103901009D02*
X154259066Y-103948628D01*
X154259066Y-103948628D02*
X153878114Y-103948628D01*
X155401923Y-104424819D02*
X154830495Y-104424819D01*
X155116209Y-104424819D02*
X155116209Y-103424819D01*
X155116209Y-103424819D02*
X155020971Y-103567676D01*
X155020971Y-103567676D02*
X154925733Y-103662914D01*
X154925733Y-103662914D02*
X154830495Y-103710533D01*
X156306685Y-103424819D02*
X155830495Y-103424819D01*
X155830495Y-103424819D02*
X155782876Y-103901009D01*
X155782876Y-103901009D02*
X155830495Y-103853390D01*
X155830495Y-103853390D02*
X155925733Y-103805771D01*
X155925733Y-103805771D02*
X156163828Y-103805771D01*
X156163828Y-103805771D02*
X156259066Y-103853390D01*
X156259066Y-103853390D02*
X156306685Y-103901009D01*
X156306685Y-103901009D02*
X156354304Y-103996247D01*
X156354304Y-103996247D02*
X156354304Y-104234342D01*
X156354304Y-104234342D02*
X156306685Y-104329580D01*
X156306685Y-104329580D02*
X156259066Y-104377200D01*
X156259066Y-104377200D02*
X156163828Y-104424819D01*
X156163828Y-104424819D02*
X155925733Y-104424819D01*
X155925733Y-104424819D02*
X155830495Y-104377200D01*
X155830495Y-104377200D02*
X155782876Y-104329580D01*
%TO.C,C10*%
X146468180Y-104960657D02*
X146515800Y-105008276D01*
X146515800Y-105008276D02*
X146563419Y-105151133D01*
X146563419Y-105151133D02*
X146563419Y-105246371D01*
X146563419Y-105246371D02*
X146515800Y-105389228D01*
X146515800Y-105389228D02*
X146420561Y-105484466D01*
X146420561Y-105484466D02*
X146325323Y-105532085D01*
X146325323Y-105532085D02*
X146134847Y-105579704D01*
X146134847Y-105579704D02*
X145991990Y-105579704D01*
X145991990Y-105579704D02*
X145801514Y-105532085D01*
X145801514Y-105532085D02*
X145706276Y-105484466D01*
X145706276Y-105484466D02*
X145611038Y-105389228D01*
X145611038Y-105389228D02*
X145563419Y-105246371D01*
X145563419Y-105246371D02*
X145563419Y-105151133D01*
X145563419Y-105151133D02*
X145611038Y-105008276D01*
X145611038Y-105008276D02*
X145658657Y-104960657D01*
X146563419Y-104008276D02*
X146563419Y-104579704D01*
X146563419Y-104293990D02*
X145563419Y-104293990D01*
X145563419Y-104293990D02*
X145706276Y-104389228D01*
X145706276Y-104389228D02*
X145801514Y-104484466D01*
X145801514Y-104484466D02*
X145849133Y-104579704D01*
X145563419Y-103389228D02*
X145563419Y-103293990D01*
X145563419Y-103293990D02*
X145611038Y-103198752D01*
X145611038Y-103198752D02*
X145658657Y-103151133D01*
X145658657Y-103151133D02*
X145753895Y-103103514D01*
X145753895Y-103103514D02*
X145944371Y-103055895D01*
X145944371Y-103055895D02*
X146182466Y-103055895D01*
X146182466Y-103055895D02*
X146372942Y-103103514D01*
X146372942Y-103103514D02*
X146468180Y-103151133D01*
X146468180Y-103151133D02*
X146515800Y-103198752D01*
X146515800Y-103198752D02*
X146563419Y-103293990D01*
X146563419Y-103293990D02*
X146563419Y-103389228D01*
X146563419Y-103389228D02*
X146515800Y-103484466D01*
X146515800Y-103484466D02*
X146468180Y-103532085D01*
X146468180Y-103532085D02*
X146372942Y-103579704D01*
X146372942Y-103579704D02*
X146182466Y-103627323D01*
X146182466Y-103627323D02*
X145944371Y-103627323D01*
X145944371Y-103627323D02*
X145753895Y-103579704D01*
X145753895Y-103579704D02*
X145658657Y-103532085D01*
X145658657Y-103532085D02*
X145611038Y-103484466D01*
X145611038Y-103484466D02*
X145563419Y-103389228D01*
%TO.C,C39*%
X141927342Y-126071980D02*
X141879723Y-126119600D01*
X141879723Y-126119600D02*
X141736866Y-126167219D01*
X141736866Y-126167219D02*
X141641628Y-126167219D01*
X141641628Y-126167219D02*
X141498771Y-126119600D01*
X141498771Y-126119600D02*
X141403533Y-126024361D01*
X141403533Y-126024361D02*
X141355914Y-125929123D01*
X141355914Y-125929123D02*
X141308295Y-125738647D01*
X141308295Y-125738647D02*
X141308295Y-125595790D01*
X141308295Y-125595790D02*
X141355914Y-125405314D01*
X141355914Y-125405314D02*
X141403533Y-125310076D01*
X141403533Y-125310076D02*
X141498771Y-125214838D01*
X141498771Y-125214838D02*
X141641628Y-125167219D01*
X141641628Y-125167219D02*
X141736866Y-125167219D01*
X141736866Y-125167219D02*
X141879723Y-125214838D01*
X141879723Y-125214838D02*
X141927342Y-125262457D01*
X142260676Y-125167219D02*
X142879723Y-125167219D01*
X142879723Y-125167219D02*
X142546390Y-125548171D01*
X142546390Y-125548171D02*
X142689247Y-125548171D01*
X142689247Y-125548171D02*
X142784485Y-125595790D01*
X142784485Y-125595790D02*
X142832104Y-125643409D01*
X142832104Y-125643409D02*
X142879723Y-125738647D01*
X142879723Y-125738647D02*
X142879723Y-125976742D01*
X142879723Y-125976742D02*
X142832104Y-126071980D01*
X142832104Y-126071980D02*
X142784485Y-126119600D01*
X142784485Y-126119600D02*
X142689247Y-126167219D01*
X142689247Y-126167219D02*
X142403533Y-126167219D01*
X142403533Y-126167219D02*
X142308295Y-126119600D01*
X142308295Y-126119600D02*
X142260676Y-126071980D01*
X143355914Y-126167219D02*
X143546390Y-126167219D01*
X143546390Y-126167219D02*
X143641628Y-126119600D01*
X143641628Y-126119600D02*
X143689247Y-126071980D01*
X143689247Y-126071980D02*
X143784485Y-125929123D01*
X143784485Y-125929123D02*
X143832104Y-125738647D01*
X143832104Y-125738647D02*
X143832104Y-125357695D01*
X143832104Y-125357695D02*
X143784485Y-125262457D01*
X143784485Y-125262457D02*
X143736866Y-125214838D01*
X143736866Y-125214838D02*
X143641628Y-125167219D01*
X143641628Y-125167219D02*
X143451152Y-125167219D01*
X143451152Y-125167219D02*
X143355914Y-125214838D01*
X143355914Y-125214838D02*
X143308295Y-125262457D01*
X143308295Y-125262457D02*
X143260676Y-125357695D01*
X143260676Y-125357695D02*
X143260676Y-125595790D01*
X143260676Y-125595790D02*
X143308295Y-125691028D01*
X143308295Y-125691028D02*
X143355914Y-125738647D01*
X143355914Y-125738647D02*
X143451152Y-125786266D01*
X143451152Y-125786266D02*
X143641628Y-125786266D01*
X143641628Y-125786266D02*
X143736866Y-125738647D01*
X143736866Y-125738647D02*
X143784485Y-125691028D01*
X143784485Y-125691028D02*
X143832104Y-125595790D01*
%TO.C,R12*%
X151313219Y-125636257D02*
X150837028Y-125969590D01*
X151313219Y-126207685D02*
X150313219Y-126207685D01*
X150313219Y-126207685D02*
X150313219Y-125826733D01*
X150313219Y-125826733D02*
X150360838Y-125731495D01*
X150360838Y-125731495D02*
X150408457Y-125683876D01*
X150408457Y-125683876D02*
X150503695Y-125636257D01*
X150503695Y-125636257D02*
X150646552Y-125636257D01*
X150646552Y-125636257D02*
X150741790Y-125683876D01*
X150741790Y-125683876D02*
X150789409Y-125731495D01*
X150789409Y-125731495D02*
X150837028Y-125826733D01*
X150837028Y-125826733D02*
X150837028Y-126207685D01*
X151313219Y-124683876D02*
X151313219Y-125255304D01*
X151313219Y-124969590D02*
X150313219Y-124969590D01*
X150313219Y-124969590D02*
X150456076Y-125064828D01*
X150456076Y-125064828D02*
X150551314Y-125160066D01*
X150551314Y-125160066D02*
X150598933Y-125255304D01*
X150408457Y-124302923D02*
X150360838Y-124255304D01*
X150360838Y-124255304D02*
X150313219Y-124160066D01*
X150313219Y-124160066D02*
X150313219Y-123921971D01*
X150313219Y-123921971D02*
X150360838Y-123826733D01*
X150360838Y-123826733D02*
X150408457Y-123779114D01*
X150408457Y-123779114D02*
X150503695Y-123731495D01*
X150503695Y-123731495D02*
X150598933Y-123731495D01*
X150598933Y-123731495D02*
X150741790Y-123779114D01*
X150741790Y-123779114D02*
X151313219Y-124350542D01*
X151313219Y-124350542D02*
X151313219Y-123731495D01*
%TO.C,U1*%
X137896695Y-93976019D02*
X137896695Y-94785542D01*
X137896695Y-94785542D02*
X137944314Y-94880780D01*
X137944314Y-94880780D02*
X137991933Y-94928400D01*
X137991933Y-94928400D02*
X138087171Y-94976019D01*
X138087171Y-94976019D02*
X138277647Y-94976019D01*
X138277647Y-94976019D02*
X138372885Y-94928400D01*
X138372885Y-94928400D02*
X138420504Y-94880780D01*
X138420504Y-94880780D02*
X138468123Y-94785542D01*
X138468123Y-94785542D02*
X138468123Y-93976019D01*
X139468123Y-94976019D02*
X138896695Y-94976019D01*
X139182409Y-94976019D02*
X139182409Y-93976019D01*
X139182409Y-93976019D02*
X139087171Y-94118876D01*
X139087171Y-94118876D02*
X138991933Y-94214114D01*
X138991933Y-94214114D02*
X138896695Y-94261733D01*
%TO.C,R7*%
X146436419Y-132678466D02*
X145960228Y-133011799D01*
X146436419Y-133249894D02*
X145436419Y-133249894D01*
X145436419Y-133249894D02*
X145436419Y-132868942D01*
X145436419Y-132868942D02*
X145484038Y-132773704D01*
X145484038Y-132773704D02*
X145531657Y-132726085D01*
X145531657Y-132726085D02*
X145626895Y-132678466D01*
X145626895Y-132678466D02*
X145769752Y-132678466D01*
X145769752Y-132678466D02*
X145864990Y-132726085D01*
X145864990Y-132726085D02*
X145912609Y-132773704D01*
X145912609Y-132773704D02*
X145960228Y-132868942D01*
X145960228Y-132868942D02*
X145960228Y-133249894D01*
X145436419Y-132345132D02*
X145436419Y-131678466D01*
X145436419Y-131678466D02*
X146436419Y-132107037D01*
%TO.C,U7*%
X133248495Y-127912019D02*
X133248495Y-128721542D01*
X133248495Y-128721542D02*
X133296114Y-128816780D01*
X133296114Y-128816780D02*
X133343733Y-128864400D01*
X133343733Y-128864400D02*
X133438971Y-128912019D01*
X133438971Y-128912019D02*
X133629447Y-128912019D01*
X133629447Y-128912019D02*
X133724685Y-128864400D01*
X133724685Y-128864400D02*
X133772304Y-128816780D01*
X133772304Y-128816780D02*
X133819923Y-128721542D01*
X133819923Y-128721542D02*
X133819923Y-127912019D01*
X134200876Y-127912019D02*
X134867542Y-127912019D01*
X134867542Y-127912019D02*
X134438971Y-128912019D01*
%TO.C,R10*%
X140225542Y-127996019D02*
X139892209Y-127519828D01*
X139654114Y-127996019D02*
X139654114Y-126996019D01*
X139654114Y-126996019D02*
X140035066Y-126996019D01*
X140035066Y-126996019D02*
X140130304Y-127043638D01*
X140130304Y-127043638D02*
X140177923Y-127091257D01*
X140177923Y-127091257D02*
X140225542Y-127186495D01*
X140225542Y-127186495D02*
X140225542Y-127329352D01*
X140225542Y-127329352D02*
X140177923Y-127424590D01*
X140177923Y-127424590D02*
X140130304Y-127472209D01*
X140130304Y-127472209D02*
X140035066Y-127519828D01*
X140035066Y-127519828D02*
X139654114Y-127519828D01*
X141177923Y-127996019D02*
X140606495Y-127996019D01*
X140892209Y-127996019D02*
X140892209Y-126996019D01*
X140892209Y-126996019D02*
X140796971Y-127138876D01*
X140796971Y-127138876D02*
X140701733Y-127234114D01*
X140701733Y-127234114D02*
X140606495Y-127281733D01*
X141796971Y-126996019D02*
X141892209Y-126996019D01*
X141892209Y-126996019D02*
X141987447Y-127043638D01*
X141987447Y-127043638D02*
X142035066Y-127091257D01*
X142035066Y-127091257D02*
X142082685Y-127186495D01*
X142082685Y-127186495D02*
X142130304Y-127376971D01*
X142130304Y-127376971D02*
X142130304Y-127615066D01*
X142130304Y-127615066D02*
X142082685Y-127805542D01*
X142082685Y-127805542D02*
X142035066Y-127900780D01*
X142035066Y-127900780D02*
X141987447Y-127948400D01*
X141987447Y-127948400D02*
X141892209Y-127996019D01*
X141892209Y-127996019D02*
X141796971Y-127996019D01*
X141796971Y-127996019D02*
X141701733Y-127948400D01*
X141701733Y-127948400D02*
X141654114Y-127900780D01*
X141654114Y-127900780D02*
X141606495Y-127805542D01*
X141606495Y-127805542D02*
X141558876Y-127615066D01*
X141558876Y-127615066D02*
X141558876Y-127376971D01*
X141558876Y-127376971D02*
X141606495Y-127186495D01*
X141606495Y-127186495D02*
X141654114Y-127091257D01*
X141654114Y-127091257D02*
X141701733Y-127043638D01*
X141701733Y-127043638D02*
X141796971Y-126996019D01*
%TO.C,C18*%
X145375980Y-135666657D02*
X145423600Y-135714276D01*
X145423600Y-135714276D02*
X145471219Y-135857133D01*
X145471219Y-135857133D02*
X145471219Y-135952371D01*
X145471219Y-135952371D02*
X145423600Y-136095228D01*
X145423600Y-136095228D02*
X145328361Y-136190466D01*
X145328361Y-136190466D02*
X145233123Y-136238085D01*
X145233123Y-136238085D02*
X145042647Y-136285704D01*
X145042647Y-136285704D02*
X144899790Y-136285704D01*
X144899790Y-136285704D02*
X144709314Y-136238085D01*
X144709314Y-136238085D02*
X144614076Y-136190466D01*
X144614076Y-136190466D02*
X144518838Y-136095228D01*
X144518838Y-136095228D02*
X144471219Y-135952371D01*
X144471219Y-135952371D02*
X144471219Y-135857133D01*
X144471219Y-135857133D02*
X144518838Y-135714276D01*
X144518838Y-135714276D02*
X144566457Y-135666657D01*
X145471219Y-134714276D02*
X145471219Y-135285704D01*
X145471219Y-134999990D02*
X144471219Y-134999990D01*
X144471219Y-134999990D02*
X144614076Y-135095228D01*
X144614076Y-135095228D02*
X144709314Y-135190466D01*
X144709314Y-135190466D02*
X144756933Y-135285704D01*
X144899790Y-134142847D02*
X144852171Y-134238085D01*
X144852171Y-134238085D02*
X144804552Y-134285704D01*
X144804552Y-134285704D02*
X144709314Y-134333323D01*
X144709314Y-134333323D02*
X144661695Y-134333323D01*
X144661695Y-134333323D02*
X144566457Y-134285704D01*
X144566457Y-134285704D02*
X144518838Y-134238085D01*
X144518838Y-134238085D02*
X144471219Y-134142847D01*
X144471219Y-134142847D02*
X144471219Y-133952371D01*
X144471219Y-133952371D02*
X144518838Y-133857133D01*
X144518838Y-133857133D02*
X144566457Y-133809514D01*
X144566457Y-133809514D02*
X144661695Y-133761895D01*
X144661695Y-133761895D02*
X144709314Y-133761895D01*
X144709314Y-133761895D02*
X144804552Y-133809514D01*
X144804552Y-133809514D02*
X144852171Y-133857133D01*
X144852171Y-133857133D02*
X144899790Y-133952371D01*
X144899790Y-133952371D02*
X144899790Y-134142847D01*
X144899790Y-134142847D02*
X144947409Y-134238085D01*
X144947409Y-134238085D02*
X144995028Y-134285704D01*
X144995028Y-134285704D02*
X145090266Y-134333323D01*
X145090266Y-134333323D02*
X145280742Y-134333323D01*
X145280742Y-134333323D02*
X145375980Y-134285704D01*
X145375980Y-134285704D02*
X145423600Y-134238085D01*
X145423600Y-134238085D02*
X145471219Y-134142847D01*
X145471219Y-134142847D02*
X145471219Y-133952371D01*
X145471219Y-133952371D02*
X145423600Y-133857133D01*
X145423600Y-133857133D02*
X145375980Y-133809514D01*
X145375980Y-133809514D02*
X145280742Y-133761895D01*
X145280742Y-133761895D02*
X145090266Y-133761895D01*
X145090266Y-133761895D02*
X144995028Y-133809514D01*
X144995028Y-133809514D02*
X144947409Y-133857133D01*
X144947409Y-133857133D02*
X144899790Y-133952371D01*
%TO.C,C8*%
X147763580Y-104052666D02*
X147811200Y-104100285D01*
X147811200Y-104100285D02*
X147858819Y-104243142D01*
X147858819Y-104243142D02*
X147858819Y-104338380D01*
X147858819Y-104338380D02*
X147811200Y-104481237D01*
X147811200Y-104481237D02*
X147715961Y-104576475D01*
X147715961Y-104576475D02*
X147620723Y-104624094D01*
X147620723Y-104624094D02*
X147430247Y-104671713D01*
X147430247Y-104671713D02*
X147287390Y-104671713D01*
X147287390Y-104671713D02*
X147096914Y-104624094D01*
X147096914Y-104624094D02*
X147001676Y-104576475D01*
X147001676Y-104576475D02*
X146906438Y-104481237D01*
X146906438Y-104481237D02*
X146858819Y-104338380D01*
X146858819Y-104338380D02*
X146858819Y-104243142D01*
X146858819Y-104243142D02*
X146906438Y-104100285D01*
X146906438Y-104100285D02*
X146954057Y-104052666D01*
X147287390Y-103481237D02*
X147239771Y-103576475D01*
X147239771Y-103576475D02*
X147192152Y-103624094D01*
X147192152Y-103624094D02*
X147096914Y-103671713D01*
X147096914Y-103671713D02*
X147049295Y-103671713D01*
X147049295Y-103671713D02*
X146954057Y-103624094D01*
X146954057Y-103624094D02*
X146906438Y-103576475D01*
X146906438Y-103576475D02*
X146858819Y-103481237D01*
X146858819Y-103481237D02*
X146858819Y-103290761D01*
X146858819Y-103290761D02*
X146906438Y-103195523D01*
X146906438Y-103195523D02*
X146954057Y-103147904D01*
X146954057Y-103147904D02*
X147049295Y-103100285D01*
X147049295Y-103100285D02*
X147096914Y-103100285D01*
X147096914Y-103100285D02*
X147192152Y-103147904D01*
X147192152Y-103147904D02*
X147239771Y-103195523D01*
X147239771Y-103195523D02*
X147287390Y-103290761D01*
X147287390Y-103290761D02*
X147287390Y-103481237D01*
X147287390Y-103481237D02*
X147335009Y-103576475D01*
X147335009Y-103576475D02*
X147382628Y-103624094D01*
X147382628Y-103624094D02*
X147477866Y-103671713D01*
X147477866Y-103671713D02*
X147668342Y-103671713D01*
X147668342Y-103671713D02*
X147763580Y-103624094D01*
X147763580Y-103624094D02*
X147811200Y-103576475D01*
X147811200Y-103576475D02*
X147858819Y-103481237D01*
X147858819Y-103481237D02*
X147858819Y-103290761D01*
X147858819Y-103290761D02*
X147811200Y-103195523D01*
X147811200Y-103195523D02*
X147763580Y-103147904D01*
X147763580Y-103147904D02*
X147668342Y-103100285D01*
X147668342Y-103100285D02*
X147477866Y-103100285D01*
X147477866Y-103100285D02*
X147382628Y-103147904D01*
X147382628Y-103147904D02*
X147335009Y-103195523D01*
X147335009Y-103195523D02*
X147287390Y-103290761D01*
%TO.C,J4*%
X152523866Y-99487819D02*
X152523866Y-100202104D01*
X152523866Y-100202104D02*
X152476247Y-100344961D01*
X152476247Y-100344961D02*
X152381009Y-100440200D01*
X152381009Y-100440200D02*
X152238152Y-100487819D01*
X152238152Y-100487819D02*
X152142914Y-100487819D01*
X153428628Y-99821152D02*
X153428628Y-100487819D01*
X153190533Y-99440200D02*
X152952438Y-100154485D01*
X152952438Y-100154485D02*
X153571485Y-100154485D01*
%TO.C,R11*%
X148265219Y-122359657D02*
X147789028Y-122692990D01*
X148265219Y-122931085D02*
X147265219Y-122931085D01*
X147265219Y-122931085D02*
X147265219Y-122550133D01*
X147265219Y-122550133D02*
X147312838Y-122454895D01*
X147312838Y-122454895D02*
X147360457Y-122407276D01*
X147360457Y-122407276D02*
X147455695Y-122359657D01*
X147455695Y-122359657D02*
X147598552Y-122359657D01*
X147598552Y-122359657D02*
X147693790Y-122407276D01*
X147693790Y-122407276D02*
X147741409Y-122454895D01*
X147741409Y-122454895D02*
X147789028Y-122550133D01*
X147789028Y-122550133D02*
X147789028Y-122931085D01*
X148265219Y-121407276D02*
X148265219Y-121978704D01*
X148265219Y-121692990D02*
X147265219Y-121692990D01*
X147265219Y-121692990D02*
X147408076Y-121788228D01*
X147408076Y-121788228D02*
X147503314Y-121883466D01*
X147503314Y-121883466D02*
X147550933Y-121978704D01*
X148265219Y-120454895D02*
X148265219Y-121026323D01*
X148265219Y-120740609D02*
X147265219Y-120740609D01*
X147265219Y-120740609D02*
X147408076Y-120835847D01*
X147408076Y-120835847D02*
X147503314Y-120931085D01*
X147503314Y-120931085D02*
X147550933Y-121026323D01*
%TO.C,D8*%
X146277105Y-137292419D02*
X146277105Y-136292419D01*
X146277105Y-136292419D02*
X146515200Y-136292419D01*
X146515200Y-136292419D02*
X146658057Y-136340038D01*
X146658057Y-136340038D02*
X146753295Y-136435276D01*
X146753295Y-136435276D02*
X146800914Y-136530514D01*
X146800914Y-136530514D02*
X146848533Y-136720990D01*
X146848533Y-136720990D02*
X146848533Y-136863847D01*
X146848533Y-136863847D02*
X146800914Y-137054323D01*
X146800914Y-137054323D02*
X146753295Y-137149561D01*
X146753295Y-137149561D02*
X146658057Y-137244800D01*
X146658057Y-137244800D02*
X146515200Y-137292419D01*
X146515200Y-137292419D02*
X146277105Y-137292419D01*
X147419962Y-136720990D02*
X147324724Y-136673371D01*
X147324724Y-136673371D02*
X147277105Y-136625752D01*
X147277105Y-136625752D02*
X147229486Y-136530514D01*
X147229486Y-136530514D02*
X147229486Y-136482895D01*
X147229486Y-136482895D02*
X147277105Y-136387657D01*
X147277105Y-136387657D02*
X147324724Y-136340038D01*
X147324724Y-136340038D02*
X147419962Y-136292419D01*
X147419962Y-136292419D02*
X147610438Y-136292419D01*
X147610438Y-136292419D02*
X147705676Y-136340038D01*
X147705676Y-136340038D02*
X147753295Y-136387657D01*
X147753295Y-136387657D02*
X147800914Y-136482895D01*
X147800914Y-136482895D02*
X147800914Y-136530514D01*
X147800914Y-136530514D02*
X147753295Y-136625752D01*
X147753295Y-136625752D02*
X147705676Y-136673371D01*
X147705676Y-136673371D02*
X147610438Y-136720990D01*
X147610438Y-136720990D02*
X147419962Y-136720990D01*
X147419962Y-136720990D02*
X147324724Y-136768609D01*
X147324724Y-136768609D02*
X147277105Y-136816228D01*
X147277105Y-136816228D02*
X147229486Y-136911466D01*
X147229486Y-136911466D02*
X147229486Y-137101942D01*
X147229486Y-137101942D02*
X147277105Y-137197180D01*
X147277105Y-137197180D02*
X147324724Y-137244800D01*
X147324724Y-137244800D02*
X147419962Y-137292419D01*
X147419962Y-137292419D02*
X147610438Y-137292419D01*
X147610438Y-137292419D02*
X147705676Y-137244800D01*
X147705676Y-137244800D02*
X147753295Y-137197180D01*
X147753295Y-137197180D02*
X147800914Y-137101942D01*
X147800914Y-137101942D02*
X147800914Y-136911466D01*
X147800914Y-136911466D02*
X147753295Y-136816228D01*
X147753295Y-136816228D02*
X147705676Y-136768609D01*
X147705676Y-136768609D02*
X147610438Y-136720990D01*
%TO.C,R4*%
X143470333Y-88956219D02*
X143137000Y-88480028D01*
X142898905Y-88956219D02*
X142898905Y-87956219D01*
X142898905Y-87956219D02*
X143279857Y-87956219D01*
X143279857Y-87956219D02*
X143375095Y-88003838D01*
X143375095Y-88003838D02*
X143422714Y-88051457D01*
X143422714Y-88051457D02*
X143470333Y-88146695D01*
X143470333Y-88146695D02*
X143470333Y-88289552D01*
X143470333Y-88289552D02*
X143422714Y-88384790D01*
X143422714Y-88384790D02*
X143375095Y-88432409D01*
X143375095Y-88432409D02*
X143279857Y-88480028D01*
X143279857Y-88480028D02*
X142898905Y-88480028D01*
X144327476Y-88289552D02*
X144327476Y-88956219D01*
X144089381Y-87908600D02*
X143851286Y-88622885D01*
X143851286Y-88622885D02*
X144470333Y-88622885D01*
%TO.C,R16*%
X149852142Y-119106019D02*
X149518809Y-118629828D01*
X149280714Y-119106019D02*
X149280714Y-118106019D01*
X149280714Y-118106019D02*
X149661666Y-118106019D01*
X149661666Y-118106019D02*
X149756904Y-118153638D01*
X149756904Y-118153638D02*
X149804523Y-118201257D01*
X149804523Y-118201257D02*
X149852142Y-118296495D01*
X149852142Y-118296495D02*
X149852142Y-118439352D01*
X149852142Y-118439352D02*
X149804523Y-118534590D01*
X149804523Y-118534590D02*
X149756904Y-118582209D01*
X149756904Y-118582209D02*
X149661666Y-118629828D01*
X149661666Y-118629828D02*
X149280714Y-118629828D01*
X150804523Y-119106019D02*
X150233095Y-119106019D01*
X150518809Y-119106019D02*
X150518809Y-118106019D01*
X150518809Y-118106019D02*
X150423571Y-118248876D01*
X150423571Y-118248876D02*
X150328333Y-118344114D01*
X150328333Y-118344114D02*
X150233095Y-118391733D01*
X151661666Y-118106019D02*
X151471190Y-118106019D01*
X151471190Y-118106019D02*
X151375952Y-118153638D01*
X151375952Y-118153638D02*
X151328333Y-118201257D01*
X151328333Y-118201257D02*
X151233095Y-118344114D01*
X151233095Y-118344114D02*
X151185476Y-118534590D01*
X151185476Y-118534590D02*
X151185476Y-118915542D01*
X151185476Y-118915542D02*
X151233095Y-119010780D01*
X151233095Y-119010780D02*
X151280714Y-119058400D01*
X151280714Y-119058400D02*
X151375952Y-119106019D01*
X151375952Y-119106019D02*
X151566428Y-119106019D01*
X151566428Y-119106019D02*
X151661666Y-119058400D01*
X151661666Y-119058400D02*
X151709285Y-119010780D01*
X151709285Y-119010780D02*
X151756904Y-118915542D01*
X151756904Y-118915542D02*
X151756904Y-118677447D01*
X151756904Y-118677447D02*
X151709285Y-118582209D01*
X151709285Y-118582209D02*
X151661666Y-118534590D01*
X151661666Y-118534590D02*
X151566428Y-118486971D01*
X151566428Y-118486971D02*
X151375952Y-118486971D01*
X151375952Y-118486971D02*
X151280714Y-118534590D01*
X151280714Y-118534590D02*
X151233095Y-118582209D01*
X151233095Y-118582209D02*
X151185476Y-118677447D01*
%TO.C,C6*%
X125233133Y-103364380D02*
X125185514Y-103412000D01*
X125185514Y-103412000D02*
X125042657Y-103459619D01*
X125042657Y-103459619D02*
X124947419Y-103459619D01*
X124947419Y-103459619D02*
X124804562Y-103412000D01*
X124804562Y-103412000D02*
X124709324Y-103316761D01*
X124709324Y-103316761D02*
X124661705Y-103221523D01*
X124661705Y-103221523D02*
X124614086Y-103031047D01*
X124614086Y-103031047D02*
X124614086Y-102888190D01*
X124614086Y-102888190D02*
X124661705Y-102697714D01*
X124661705Y-102697714D02*
X124709324Y-102602476D01*
X124709324Y-102602476D02*
X124804562Y-102507238D01*
X124804562Y-102507238D02*
X124947419Y-102459619D01*
X124947419Y-102459619D02*
X125042657Y-102459619D01*
X125042657Y-102459619D02*
X125185514Y-102507238D01*
X125185514Y-102507238D02*
X125233133Y-102554857D01*
X126090276Y-102459619D02*
X125899800Y-102459619D01*
X125899800Y-102459619D02*
X125804562Y-102507238D01*
X125804562Y-102507238D02*
X125756943Y-102554857D01*
X125756943Y-102554857D02*
X125661705Y-102697714D01*
X125661705Y-102697714D02*
X125614086Y-102888190D01*
X125614086Y-102888190D02*
X125614086Y-103269142D01*
X125614086Y-103269142D02*
X125661705Y-103364380D01*
X125661705Y-103364380D02*
X125709324Y-103412000D01*
X125709324Y-103412000D02*
X125804562Y-103459619D01*
X125804562Y-103459619D02*
X125995038Y-103459619D01*
X125995038Y-103459619D02*
X126090276Y-103412000D01*
X126090276Y-103412000D02*
X126137895Y-103364380D01*
X126137895Y-103364380D02*
X126185514Y-103269142D01*
X126185514Y-103269142D02*
X126185514Y-103031047D01*
X126185514Y-103031047D02*
X126137895Y-102935809D01*
X126137895Y-102935809D02*
X126090276Y-102888190D01*
X126090276Y-102888190D02*
X125995038Y-102840571D01*
X125995038Y-102840571D02*
X125804562Y-102840571D01*
X125804562Y-102840571D02*
X125709324Y-102888190D01*
X125709324Y-102888190D02*
X125661705Y-102935809D01*
X125661705Y-102935809D02*
X125614086Y-103031047D01*
%TO.C,R3*%
X138390333Y-88956219D02*
X138057000Y-88480028D01*
X137818905Y-88956219D02*
X137818905Y-87956219D01*
X137818905Y-87956219D02*
X138199857Y-87956219D01*
X138199857Y-87956219D02*
X138295095Y-88003838D01*
X138295095Y-88003838D02*
X138342714Y-88051457D01*
X138342714Y-88051457D02*
X138390333Y-88146695D01*
X138390333Y-88146695D02*
X138390333Y-88289552D01*
X138390333Y-88289552D02*
X138342714Y-88384790D01*
X138342714Y-88384790D02*
X138295095Y-88432409D01*
X138295095Y-88432409D02*
X138199857Y-88480028D01*
X138199857Y-88480028D02*
X137818905Y-88480028D01*
X138723667Y-87956219D02*
X139342714Y-87956219D01*
X139342714Y-87956219D02*
X139009381Y-88337171D01*
X139009381Y-88337171D02*
X139152238Y-88337171D01*
X139152238Y-88337171D02*
X139247476Y-88384790D01*
X139247476Y-88384790D02*
X139295095Y-88432409D01*
X139295095Y-88432409D02*
X139342714Y-88527647D01*
X139342714Y-88527647D02*
X139342714Y-88765742D01*
X139342714Y-88765742D02*
X139295095Y-88860980D01*
X139295095Y-88860980D02*
X139247476Y-88908600D01*
X139247476Y-88908600D02*
X139152238Y-88956219D01*
X139152238Y-88956219D02*
X138866524Y-88956219D01*
X138866524Y-88956219D02*
X138771286Y-88908600D01*
X138771286Y-88908600D02*
X138723667Y-88860980D01*
%TO.C,C21*%
X144772142Y-109536580D02*
X144724523Y-109584200D01*
X144724523Y-109584200D02*
X144581666Y-109631819D01*
X144581666Y-109631819D02*
X144486428Y-109631819D01*
X144486428Y-109631819D02*
X144343571Y-109584200D01*
X144343571Y-109584200D02*
X144248333Y-109488961D01*
X144248333Y-109488961D02*
X144200714Y-109393723D01*
X144200714Y-109393723D02*
X144153095Y-109203247D01*
X144153095Y-109203247D02*
X144153095Y-109060390D01*
X144153095Y-109060390D02*
X144200714Y-108869914D01*
X144200714Y-108869914D02*
X144248333Y-108774676D01*
X144248333Y-108774676D02*
X144343571Y-108679438D01*
X144343571Y-108679438D02*
X144486428Y-108631819D01*
X144486428Y-108631819D02*
X144581666Y-108631819D01*
X144581666Y-108631819D02*
X144724523Y-108679438D01*
X144724523Y-108679438D02*
X144772142Y-108727057D01*
X145153095Y-108727057D02*
X145200714Y-108679438D01*
X145200714Y-108679438D02*
X145295952Y-108631819D01*
X145295952Y-108631819D02*
X145534047Y-108631819D01*
X145534047Y-108631819D02*
X145629285Y-108679438D01*
X145629285Y-108679438D02*
X145676904Y-108727057D01*
X145676904Y-108727057D02*
X145724523Y-108822295D01*
X145724523Y-108822295D02*
X145724523Y-108917533D01*
X145724523Y-108917533D02*
X145676904Y-109060390D01*
X145676904Y-109060390D02*
X145105476Y-109631819D01*
X145105476Y-109631819D02*
X145724523Y-109631819D01*
X146676904Y-109631819D02*
X146105476Y-109631819D01*
X146391190Y-109631819D02*
X146391190Y-108631819D01*
X146391190Y-108631819D02*
X146295952Y-108774676D01*
X146295952Y-108774676D02*
X146200714Y-108869914D01*
X146200714Y-108869914D02*
X146105476Y-108917533D01*
%TO.C,J2*%
X115973266Y-96312819D02*
X115973266Y-97027104D01*
X115973266Y-97027104D02*
X115925647Y-97169961D01*
X115925647Y-97169961D02*
X115830409Y-97265200D01*
X115830409Y-97265200D02*
X115687552Y-97312819D01*
X115687552Y-97312819D02*
X115592314Y-97312819D01*
X116401838Y-96408057D02*
X116449457Y-96360438D01*
X116449457Y-96360438D02*
X116544695Y-96312819D01*
X116544695Y-96312819D02*
X116782790Y-96312819D01*
X116782790Y-96312819D02*
X116878028Y-96360438D01*
X116878028Y-96360438D02*
X116925647Y-96408057D01*
X116925647Y-96408057D02*
X116973266Y-96503295D01*
X116973266Y-96503295D02*
X116973266Y-96598533D01*
X116973266Y-96598533D02*
X116925647Y-96741390D01*
X116925647Y-96741390D02*
X116354219Y-97312819D01*
X116354219Y-97312819D02*
X116973266Y-97312819D01*
%TO.C,R9*%
X140991533Y-129403419D02*
X140658200Y-128927228D01*
X140420105Y-129403419D02*
X140420105Y-128403419D01*
X140420105Y-128403419D02*
X140801057Y-128403419D01*
X140801057Y-128403419D02*
X140896295Y-128451038D01*
X140896295Y-128451038D02*
X140943914Y-128498657D01*
X140943914Y-128498657D02*
X140991533Y-128593895D01*
X140991533Y-128593895D02*
X140991533Y-128736752D01*
X140991533Y-128736752D02*
X140943914Y-128831990D01*
X140943914Y-128831990D02*
X140896295Y-128879609D01*
X140896295Y-128879609D02*
X140801057Y-128927228D01*
X140801057Y-128927228D02*
X140420105Y-128927228D01*
X141467724Y-129403419D02*
X141658200Y-129403419D01*
X141658200Y-129403419D02*
X141753438Y-129355800D01*
X141753438Y-129355800D02*
X141801057Y-129308180D01*
X141801057Y-129308180D02*
X141896295Y-129165323D01*
X141896295Y-129165323D02*
X141943914Y-128974847D01*
X141943914Y-128974847D02*
X141943914Y-128593895D01*
X141943914Y-128593895D02*
X141896295Y-128498657D01*
X141896295Y-128498657D02*
X141848676Y-128451038D01*
X141848676Y-128451038D02*
X141753438Y-128403419D01*
X141753438Y-128403419D02*
X141562962Y-128403419D01*
X141562962Y-128403419D02*
X141467724Y-128451038D01*
X141467724Y-128451038D02*
X141420105Y-128498657D01*
X141420105Y-128498657D02*
X141372486Y-128593895D01*
X141372486Y-128593895D02*
X141372486Y-128831990D01*
X141372486Y-128831990D02*
X141420105Y-128927228D01*
X141420105Y-128927228D02*
X141467724Y-128974847D01*
X141467724Y-128974847D02*
X141562962Y-129022466D01*
X141562962Y-129022466D02*
X141753438Y-129022466D01*
X141753438Y-129022466D02*
X141848676Y-128974847D01*
X141848676Y-128974847D02*
X141896295Y-128927228D01*
X141896295Y-128927228D02*
X141943914Y-128831990D01*
%TO.C,D13*%
X128605014Y-129461619D02*
X128605014Y-128461619D01*
X128605014Y-128461619D02*
X128843109Y-128461619D01*
X128843109Y-128461619D02*
X128985966Y-128509238D01*
X128985966Y-128509238D02*
X129081204Y-128604476D01*
X129081204Y-128604476D02*
X129128823Y-128699714D01*
X129128823Y-128699714D02*
X129176442Y-128890190D01*
X129176442Y-128890190D02*
X129176442Y-129033047D01*
X129176442Y-129033047D02*
X129128823Y-129223523D01*
X129128823Y-129223523D02*
X129081204Y-129318761D01*
X129081204Y-129318761D02*
X128985966Y-129414000D01*
X128985966Y-129414000D02*
X128843109Y-129461619D01*
X128843109Y-129461619D02*
X128605014Y-129461619D01*
X130128823Y-129461619D02*
X129557395Y-129461619D01*
X129843109Y-129461619D02*
X129843109Y-128461619D01*
X129843109Y-128461619D02*
X129747871Y-128604476D01*
X129747871Y-128604476D02*
X129652633Y-128699714D01*
X129652633Y-128699714D02*
X129557395Y-128747333D01*
X130462157Y-128461619D02*
X131081204Y-128461619D01*
X131081204Y-128461619D02*
X130747871Y-128842571D01*
X130747871Y-128842571D02*
X130890728Y-128842571D01*
X130890728Y-128842571D02*
X130985966Y-128890190D01*
X130985966Y-128890190D02*
X131033585Y-128937809D01*
X131033585Y-128937809D02*
X131081204Y-129033047D01*
X131081204Y-129033047D02*
X131081204Y-129271142D01*
X131081204Y-129271142D02*
X131033585Y-129366380D01*
X131033585Y-129366380D02*
X130985966Y-129414000D01*
X130985966Y-129414000D02*
X130890728Y-129461619D01*
X130890728Y-129461619D02*
X130605014Y-129461619D01*
X130605014Y-129461619D02*
X130509776Y-129414000D01*
X130509776Y-129414000D02*
X130462157Y-129366380D01*
%TO.C,C12*%
X124934742Y-104913780D02*
X124887123Y-104961400D01*
X124887123Y-104961400D02*
X124744266Y-105009019D01*
X124744266Y-105009019D02*
X124649028Y-105009019D01*
X124649028Y-105009019D02*
X124506171Y-104961400D01*
X124506171Y-104961400D02*
X124410933Y-104866161D01*
X124410933Y-104866161D02*
X124363314Y-104770923D01*
X124363314Y-104770923D02*
X124315695Y-104580447D01*
X124315695Y-104580447D02*
X124315695Y-104437590D01*
X124315695Y-104437590D02*
X124363314Y-104247114D01*
X124363314Y-104247114D02*
X124410933Y-104151876D01*
X124410933Y-104151876D02*
X124506171Y-104056638D01*
X124506171Y-104056638D02*
X124649028Y-104009019D01*
X124649028Y-104009019D02*
X124744266Y-104009019D01*
X124744266Y-104009019D02*
X124887123Y-104056638D01*
X124887123Y-104056638D02*
X124934742Y-104104257D01*
X125887123Y-105009019D02*
X125315695Y-105009019D01*
X125601409Y-105009019D02*
X125601409Y-104009019D01*
X125601409Y-104009019D02*
X125506171Y-104151876D01*
X125506171Y-104151876D02*
X125410933Y-104247114D01*
X125410933Y-104247114D02*
X125315695Y-104294733D01*
X126268076Y-104104257D02*
X126315695Y-104056638D01*
X126315695Y-104056638D02*
X126410933Y-104009019D01*
X126410933Y-104009019D02*
X126649028Y-104009019D01*
X126649028Y-104009019D02*
X126744266Y-104056638D01*
X126744266Y-104056638D02*
X126791885Y-104104257D01*
X126791885Y-104104257D02*
X126839504Y-104199495D01*
X126839504Y-104199495D02*
X126839504Y-104294733D01*
X126839504Y-104294733D02*
X126791885Y-104437590D01*
X126791885Y-104437590D02*
X126220457Y-105009019D01*
X126220457Y-105009019D02*
X126839504Y-105009019D01*
%TO.C,C40*%
X143832342Y-116877180D02*
X143784723Y-116924800D01*
X143784723Y-116924800D02*
X143641866Y-116972419D01*
X143641866Y-116972419D02*
X143546628Y-116972419D01*
X143546628Y-116972419D02*
X143403771Y-116924800D01*
X143403771Y-116924800D02*
X143308533Y-116829561D01*
X143308533Y-116829561D02*
X143260914Y-116734323D01*
X143260914Y-116734323D02*
X143213295Y-116543847D01*
X143213295Y-116543847D02*
X143213295Y-116400990D01*
X143213295Y-116400990D02*
X143260914Y-116210514D01*
X143260914Y-116210514D02*
X143308533Y-116115276D01*
X143308533Y-116115276D02*
X143403771Y-116020038D01*
X143403771Y-116020038D02*
X143546628Y-115972419D01*
X143546628Y-115972419D02*
X143641866Y-115972419D01*
X143641866Y-115972419D02*
X143784723Y-116020038D01*
X143784723Y-116020038D02*
X143832342Y-116067657D01*
X144689485Y-116305752D02*
X144689485Y-116972419D01*
X144451390Y-115924800D02*
X144213295Y-116639085D01*
X144213295Y-116639085D02*
X144832342Y-116639085D01*
X145403771Y-115972419D02*
X145499009Y-115972419D01*
X145499009Y-115972419D02*
X145594247Y-116020038D01*
X145594247Y-116020038D02*
X145641866Y-116067657D01*
X145641866Y-116067657D02*
X145689485Y-116162895D01*
X145689485Y-116162895D02*
X145737104Y-116353371D01*
X145737104Y-116353371D02*
X145737104Y-116591466D01*
X145737104Y-116591466D02*
X145689485Y-116781942D01*
X145689485Y-116781942D02*
X145641866Y-116877180D01*
X145641866Y-116877180D02*
X145594247Y-116924800D01*
X145594247Y-116924800D02*
X145499009Y-116972419D01*
X145499009Y-116972419D02*
X145403771Y-116972419D01*
X145403771Y-116972419D02*
X145308533Y-116924800D01*
X145308533Y-116924800D02*
X145260914Y-116877180D01*
X145260914Y-116877180D02*
X145213295Y-116781942D01*
X145213295Y-116781942D02*
X145165676Y-116591466D01*
X145165676Y-116591466D02*
X145165676Y-116353371D01*
X145165676Y-116353371D02*
X145213295Y-116162895D01*
X145213295Y-116162895D02*
X145260914Y-116067657D01*
X145260914Y-116067657D02*
X145308533Y-116020038D01*
X145308533Y-116020038D02*
X145403771Y-115972419D01*
D12*
%TO.C,C13*%
X128969380Y-102135400D02*
X128688220Y-102135400D01*
X128969380Y-101115400D02*
X128688220Y-101115400D01*
%TO.C,SW1*%
X152841800Y-111046800D02*
X152961800Y-111046800D01*
X153971800Y-111046800D02*
X155111800Y-111046800D01*
X156121800Y-111046800D02*
X156241800Y-111046800D01*
X156241800Y-111046800D02*
X156241800Y-106646800D01*
X152841800Y-106646800D02*
X152841800Y-111046800D01*
X152961800Y-106646800D02*
X152841800Y-106646800D01*
X155111800Y-106646800D02*
X153971800Y-106646800D01*
X156241800Y-106646800D02*
X156121800Y-106646800D01*
%TO.C,D11*%
X148552700Y-122124800D02*
X148552700Y-123594800D01*
X148552700Y-123594800D02*
X150837700Y-123594800D01*
X150837700Y-122124800D02*
X148552700Y-122124800D01*
D13*
%TO.C,R2*%
X135183200Y-89891000D02*
X135183200Y-91691000D01*
X131783200Y-91691000D02*
X131783200Y-89891000D01*
D14*
X135083200Y-88891000D02*
G75*
G03*
X135083200Y-88891000I-100000J0D01*
G01*
D15*
%TO.C,D7*%
X149097200Y-134109800D02*
G75*
G03*
X149097200Y-134109800I-50000J0D01*
G01*
D12*
%TO.C,R14*%
X127022159Y-130049000D02*
X127329441Y-130049000D01*
X127022159Y-130809000D02*
X127329441Y-130809000D01*
%TO.C,C14*%
X130983400Y-101276036D02*
X130983400Y-101060364D01*
X131703400Y-101276036D02*
X131703400Y-101060364D01*
%TO.C,C15*%
X147503900Y-97900164D02*
X147503900Y-98115836D01*
X146783900Y-97900164D02*
X146783900Y-98115836D01*
%TO.C,R6*%
X146482500Y-97852359D02*
X146482500Y-98159641D01*
X145722500Y-97852359D02*
X145722500Y-98159641D01*
D13*
%TO.C,Y1*%
X146630800Y-122366600D02*
X146630800Y-120406600D01*
X145010800Y-124386600D02*
X144650800Y-124386600D01*
X145010800Y-118386600D02*
X144650800Y-118386600D01*
X143030800Y-122366600D02*
X143030800Y-120406600D01*
D14*
X147580800Y-123586600D02*
G75*
G03*
X147580800Y-123586600I-100000J0D01*
G01*
D12*
%TO.C,R8*%
X147651200Y-133150041D02*
X147651200Y-132842759D01*
X148411200Y-133150041D02*
X148411200Y-132842759D01*
D13*
%TO.C,R1*%
X130103200Y-89891000D02*
X130103200Y-91691000D01*
X126703200Y-91691000D02*
X126703200Y-89891000D01*
D14*
X130003200Y-88891000D02*
G75*
G03*
X130003200Y-88891000I-100000J0D01*
G01*
D12*
%TO.C,C11*%
X130653964Y-105786600D02*
X130869636Y-105786600D01*
X130653964Y-106506600D02*
X130869636Y-106506600D01*
D13*
%TO.C,R5*%
X150423200Y-89916400D02*
X150423200Y-91716400D01*
X147023200Y-91716400D02*
X147023200Y-89916400D01*
D14*
X150323200Y-88916400D02*
G75*
G03*
X150323200Y-88916400I-100000J0D01*
G01*
D12*
%TO.C,J3*%
X158410122Y-125281174D02*
X152979542Y-130711754D01*
X158410122Y-125281174D02*
X160291026Y-127162078D01*
X152979542Y-130711754D02*
X154860446Y-132592658D01*
X161189052Y-124383148D02*
X162129504Y-125323600D01*
X162129504Y-125323600D02*
X161189052Y-126264052D01*
X160291026Y-127162078D02*
X154860446Y-132592658D01*
%TO.C,C19*%
X142764564Y-110028400D02*
X142980236Y-110028400D01*
X142764564Y-110748400D02*
X142980236Y-110748400D01*
%TO.C,C41*%
X127226600Y-120307980D02*
X127226600Y-120026820D01*
X128246600Y-120307980D02*
X128246600Y-120026820D01*
%TO.C,U2*%
X149592800Y-130949200D02*
X149117800Y-130949200D01*
X145372800Y-130474200D02*
X145372800Y-130949200D01*
X149592800Y-130474200D02*
X149592800Y-130949200D01*
X145372800Y-127204200D02*
X145372800Y-126729200D01*
X149592800Y-127204200D02*
X149592800Y-126729200D01*
X145372800Y-126729200D02*
X145847800Y-126729200D01*
X149592800Y-126729200D02*
X149117800Y-126729200D01*
%TO.C,J1*%
X123393200Y-86258400D02*
X123393200Y-84988400D01*
X124663200Y-86258400D02*
X123393200Y-86258400D01*
X126823200Y-83945471D02*
X126823200Y-83491329D01*
X127583200Y-83945471D02*
X127583200Y-83491329D01*
X129363200Y-83945471D02*
X129363200Y-83491329D01*
X130123200Y-83945471D02*
X130123200Y-83491329D01*
X131903200Y-83945471D02*
X131903200Y-83491329D01*
X132663200Y-83945471D02*
X132663200Y-83491329D01*
X134443200Y-83945471D02*
X134443200Y-83491329D01*
X135203200Y-83945471D02*
X135203200Y-83491329D01*
X136983200Y-83945471D02*
X136983200Y-83491329D01*
X137743200Y-83945471D02*
X137743200Y-83491329D01*
X139523200Y-83945471D02*
X139523200Y-83491329D01*
X140283200Y-83945471D02*
X140283200Y-83491329D01*
X142063200Y-83945471D02*
X142063200Y-83491329D01*
X142823200Y-83945471D02*
X142823200Y-83491329D01*
X144603200Y-83945471D02*
X144603200Y-83491329D01*
X145363200Y-83945471D02*
X145363200Y-83491329D01*
X147143200Y-83945471D02*
X147143200Y-83491329D01*
X147903200Y-83945471D02*
X147903200Y-83491329D01*
X149683200Y-83945471D02*
X149683200Y-83491329D01*
X150443200Y-83945471D02*
X150443200Y-83491329D01*
X152223200Y-83945471D02*
X152223200Y-83491329D01*
X152983200Y-83945471D02*
X152983200Y-83491329D01*
X154763200Y-83945471D02*
X154763200Y-83491329D01*
X155523200Y-83945471D02*
X155523200Y-83491329D01*
X124283200Y-83878400D02*
X124283200Y-83491329D01*
X125043200Y-83878400D02*
X125043200Y-83491329D01*
%TO.C,C17*%
X149407200Y-134814364D02*
X149407200Y-135030036D01*
X148687200Y-134814364D02*
X148687200Y-135030036D01*
%TO.C,J5*%
X161103000Y-116230400D02*
X161103000Y-123910400D01*
X161103000Y-116230400D02*
X163763000Y-116230400D01*
X161103000Y-123910400D02*
X163763000Y-123910400D01*
X162433000Y-113630400D02*
X163763000Y-113630400D01*
X163763000Y-113630400D02*
X163763000Y-114960400D01*
X163763000Y-116230400D02*
X163763000Y-123910400D01*
%TO.C,CONN1*%
X135800000Y-133080300D02*
X136250000Y-133080300D01*
X135800000Y-134930300D02*
X135800000Y-133080300D01*
X135800000Y-137480300D02*
X135800000Y-137230300D01*
X138000000Y-132530300D02*
X138000000Y-132980300D01*
X138000000Y-132530300D02*
X138450000Y-132530300D01*
X143600000Y-133080300D02*
X143150000Y-133080300D01*
X143600000Y-134930300D02*
X143600000Y-133080300D01*
X143600000Y-137480300D02*
X143600000Y-137230300D01*
%TO.C,R15*%
X155246041Y-105663000D02*
X154938759Y-105663000D01*
X155246041Y-104903000D02*
X154938759Y-104903000D01*
%TO.C,C10*%
X146435400Y-102022964D02*
X146435400Y-102238636D01*
X145715400Y-102022964D02*
X145715400Y-102238636D01*
%TO.C,C39*%
X144923564Y-124836600D02*
X145139236Y-124836600D01*
X144923564Y-125556600D02*
X145139236Y-125556600D01*
%TO.C,REF\u002A\u002A*%
D16*
X166943607Y-102230182D02*
X166966961Y-102240388D01*
X167022702Y-102284534D01*
X167070369Y-102348367D01*
X167099848Y-102416487D01*
X167104646Y-102450070D01*
X167088560Y-102496956D01*
X167053275Y-102521765D01*
X167015444Y-102536787D01*
X166998121Y-102539555D01*
X166989686Y-102519466D01*
X166973030Y-102475751D01*
X166965723Y-102455998D01*
X166924748Y-102387671D01*
X166865422Y-102353591D01*
X166789352Y-102354639D01*
X166783718Y-102355981D01*
X166743105Y-102375236D01*
X166713248Y-102412775D01*
X166692855Y-102473209D01*
X166680636Y-102561151D01*
X166675300Y-102681213D01*
X166674800Y-102745098D01*
X166674552Y-102845803D01*
X166672926Y-102914454D01*
X166668601Y-102958073D01*
X166660254Y-102983682D01*
X166646565Y-102998303D01*
X166626211Y-103008958D01*
X166625034Y-103009495D01*
X166585838Y-103026067D01*
X166566419Y-103032169D01*
X166563435Y-103013719D01*
X166560881Y-102962723D01*
X166558940Y-102885708D01*
X166557797Y-102789205D01*
X166557569Y-102718584D01*
X166558732Y-102581925D01*
X166563279Y-102478251D01*
X166572799Y-102401508D01*
X166588881Y-102345646D01*
X166613113Y-102304612D01*
X166647086Y-102272354D01*
X166680633Y-102249840D01*
X166761299Y-102219876D01*
X166855181Y-102213118D01*
X166943607Y-102230182D01*
G36*
X166943607Y-102230182D02*
G01*
X166966961Y-102240388D01*
X167022702Y-102284534D01*
X167070369Y-102348367D01*
X167099848Y-102416487D01*
X167104646Y-102450070D01*
X167088560Y-102496956D01*
X167053275Y-102521765D01*
X167015444Y-102536787D01*
X166998121Y-102539555D01*
X166989686Y-102519466D01*
X166973030Y-102475751D01*
X166965723Y-102455998D01*
X166924748Y-102387671D01*
X166865422Y-102353591D01*
X166789352Y-102354639D01*
X166783718Y-102355981D01*
X166743105Y-102375236D01*
X166713248Y-102412775D01*
X166692855Y-102473209D01*
X166680636Y-102561151D01*
X166675300Y-102681213D01*
X166674800Y-102745098D01*
X166674552Y-102845803D01*
X166672926Y-102914454D01*
X166668601Y-102958073D01*
X166660254Y-102983682D01*
X166646565Y-102998303D01*
X166626211Y-103008958D01*
X166625034Y-103009495D01*
X166585838Y-103026067D01*
X166566419Y-103032169D01*
X166563435Y-103013719D01*
X166560881Y-102962723D01*
X166558940Y-102885708D01*
X166557797Y-102789205D01*
X166557569Y-102718584D01*
X166558732Y-102581925D01*
X166563279Y-102478251D01*
X166572799Y-102401508D01*
X166588881Y-102345646D01*
X166613113Y-102304612D01*
X166647086Y-102272354D01*
X166680633Y-102249840D01*
X166761299Y-102219876D01*
X166855181Y-102213118D01*
X166943607Y-102230182D01*
G37*
X161644464Y-102188489D02*
X161707167Y-102224758D01*
X161750761Y-102260758D01*
X161782645Y-102298475D01*
X161804610Y-102344599D01*
X161818449Y-102405821D01*
X161825953Y-102488831D01*
X161828917Y-102600319D01*
X161829261Y-102680462D01*
X161829261Y-102975465D01*
X161663185Y-103049915D01*
X161653415Y-102726802D01*
X161649379Y-102606129D01*
X161645144Y-102518541D01*
X161639897Y-102458050D01*
X161632825Y-102418668D01*
X161623111Y-102394407D01*
X161609944Y-102379280D01*
X161605719Y-102376006D01*
X161541709Y-102350434D01*
X161477008Y-102360553D01*
X161438492Y-102387400D01*
X161422825Y-102406424D01*
X161411980Y-102431388D01*
X161405088Y-102469234D01*
X161401279Y-102526902D01*
X161399683Y-102611335D01*
X161399415Y-102699328D01*
X161399363Y-102809723D01*
X161397472Y-102887863D01*
X161391145Y-102940565D01*
X161377783Y-102974642D01*
X161354785Y-102996911D01*
X161319554Y-103014187D01*
X161272497Y-103032138D01*
X161221103Y-103051678D01*
X161227221Y-102704885D01*
X161229684Y-102579868D01*
X161232567Y-102487482D01*
X161236698Y-102421281D01*
X161242907Y-102374820D01*
X161252026Y-102341656D01*
X161264883Y-102315344D01*
X161280384Y-102292129D01*
X161355171Y-102217969D01*
X161446428Y-102175084D01*
X161545683Y-102164812D01*
X161644464Y-102188489D01*
G36*
X161644464Y-102188489D02*
G01*
X161707167Y-102224758D01*
X161750761Y-102260758D01*
X161782645Y-102298475D01*
X161804610Y-102344599D01*
X161818449Y-102405821D01*
X161825953Y-102488831D01*
X161828917Y-102600319D01*
X161829261Y-102680462D01*
X161829261Y-102975465D01*
X161663185Y-103049915D01*
X161653415Y-102726802D01*
X161649379Y-102606129D01*
X161645144Y-102518541D01*
X161639897Y-102458050D01*
X161632825Y-102418668D01*
X161623111Y-102394407D01*
X161609944Y-102379280D01*
X161605719Y-102376006D01*
X161541709Y-102350434D01*
X161477008Y-102360553D01*
X161438492Y-102387400D01*
X161422825Y-102406424D01*
X161411980Y-102431388D01*
X161405088Y-102469234D01*
X161401279Y-102526902D01*
X161399683Y-102611335D01*
X161399415Y-102699328D01*
X161399363Y-102809723D01*
X161397472Y-102887863D01*
X161391145Y-102940565D01*
X161377783Y-102974642D01*
X161354785Y-102996911D01*
X161319554Y-103014187D01*
X161272497Y-103032138D01*
X161221103Y-103051678D01*
X161227221Y-102704885D01*
X161229684Y-102579868D01*
X161232567Y-102487482D01*
X161236698Y-102421281D01*
X161242907Y-102374820D01*
X161252026Y-102341656D01*
X161264883Y-102315344D01*
X161280384Y-102292129D01*
X161355171Y-102217969D01*
X161446428Y-102175084D01*
X161545683Y-102164812D01*
X161644464Y-102188489D01*
G37*
X164086162Y-102218070D02*
X164174917Y-102250821D01*
X164246822Y-102308750D01*
X164274944Y-102349528D01*
X164305602Y-102424354D01*
X164304965Y-102478458D01*
X164272787Y-102514846D01*
X164260881Y-102521033D01*
X164209475Y-102540325D01*
X164183222Y-102535382D01*
X164174330Y-102502987D01*
X164173877Y-102485092D01*
X164157597Y-102419259D01*
X164115165Y-102373207D01*
X164056188Y-102350964D01*
X163990275Y-102356561D01*
X163936695Y-102385629D01*
X163918598Y-102402210D01*
X163905771Y-102422325D01*
X163897106Y-102452732D01*
X163891496Y-102500188D01*
X163887835Y-102571450D01*
X163885015Y-102673275D01*
X163884284Y-102705515D01*
X163881620Y-102815810D01*
X163878592Y-102893436D01*
X163874050Y-102944796D01*
X163866846Y-102976290D01*
X163855833Y-102994320D01*
X163839860Y-103005288D01*
X163829634Y-103010133D01*
X163786206Y-103026701D01*
X163760642Y-103032169D01*
X163752195Y-103013907D01*
X163747039Y-102958696D01*
X163745146Y-102865899D01*
X163746489Y-102734878D01*
X163746907Y-102714669D01*
X163749858Y-102595133D01*
X163753348Y-102507849D01*
X163758314Y-102445991D01*
X163765693Y-102402736D01*
X163776424Y-102371260D01*
X163791445Y-102344739D01*
X163799302Y-102333375D01*
X163844353Y-102283092D01*
X163894740Y-102243981D01*
X163900908Y-102240567D01*
X163991258Y-102213612D01*
X164086162Y-102218070D01*
G36*
X164086162Y-102218070D02*
G01*
X164174917Y-102250821D01*
X164246822Y-102308750D01*
X164274944Y-102349528D01*
X164305602Y-102424354D01*
X164304965Y-102478458D01*
X164272787Y-102514846D01*
X164260881Y-102521033D01*
X164209475Y-102540325D01*
X164183222Y-102535382D01*
X164174330Y-102502987D01*
X164173877Y-102485092D01*
X164157597Y-102419259D01*
X164115165Y-102373207D01*
X164056188Y-102350964D01*
X163990275Y-102356561D01*
X163936695Y-102385629D01*
X163918598Y-102402210D01*
X163905771Y-102422325D01*
X163897106Y-102452732D01*
X163891496Y-102500188D01*
X163887835Y-102571450D01*
X163885015Y-102673275D01*
X163884284Y-102705515D01*
X163881620Y-102815810D01*
X163878592Y-102893436D01*
X163874050Y-102944796D01*
X163866846Y-102976290D01*
X163855833Y-102994320D01*
X163839860Y-103005288D01*
X163829634Y-103010133D01*
X163786206Y-103026701D01*
X163760642Y-103032169D01*
X163752195Y-103013907D01*
X163747039Y-102958696D01*
X163745146Y-102865899D01*
X163746489Y-102734878D01*
X163746907Y-102714669D01*
X163749858Y-102595133D01*
X163753348Y-102507849D01*
X163758314Y-102445991D01*
X163765693Y-102402736D01*
X163776424Y-102371260D01*
X163791445Y-102344739D01*
X163799302Y-102333375D01*
X163844353Y-102283092D01*
X163894740Y-102243981D01*
X163900908Y-102240567D01*
X163991258Y-102213612D01*
X164086162Y-102218070D01*
G37*
X162532646Y-102085520D02*
X162538372Y-102165380D01*
X162544949Y-102212439D01*
X162554062Y-102232966D01*
X162567398Y-102233229D01*
X162571723Y-102230778D01*
X162629244Y-102213036D01*
X162704068Y-102214072D01*
X162780139Y-102232310D01*
X162827718Y-102255905D01*
X162876502Y-102293598D01*
X162912164Y-102336255D01*
X162936645Y-102390457D01*
X162951887Y-102462784D01*
X162959830Y-102559819D01*
X162962416Y-102688142D01*
X162962462Y-102712758D01*
X162962492Y-102989270D01*
X162900961Y-103010720D01*
X162857259Y-103025312D01*
X162833282Y-103032106D01*
X162832577Y-103032169D01*
X162830215Y-103013745D01*
X162828206Y-102962926D01*
X162826701Y-102886393D01*
X162825853Y-102790830D01*
X162825723Y-102732729D01*
X162825451Y-102618171D01*
X162824052Y-102536067D01*
X162820649Y-102479793D01*
X162814367Y-102442726D01*
X162804329Y-102418244D01*
X162789661Y-102399725D01*
X162780502Y-102390806D01*
X162717589Y-102354866D01*
X162648936Y-102352175D01*
X162586648Y-102382570D01*
X162575129Y-102393544D01*
X162558233Y-102414179D01*
X162546514Y-102438656D01*
X162539033Y-102474047D01*
X162534854Y-102527426D01*
X162533037Y-102605866D01*
X162532646Y-102714017D01*
X162532646Y-102989270D01*
X162471115Y-103010720D01*
X162427413Y-103025312D01*
X162403436Y-103032106D01*
X162402730Y-103032169D01*
X162400926Y-103013469D01*
X162399300Y-102960722D01*
X162397917Y-102878957D01*
X162396842Y-102773205D01*
X162396140Y-102648494D01*
X162395877Y-102509855D01*
X162395877Y-101975206D01*
X162522877Y-101921636D01*
X162532646Y-102085520D01*
G36*
X162532646Y-102085520D02*
G01*
X162538372Y-102165380D01*
X162544949Y-102212439D01*
X162554062Y-102232966D01*
X162567398Y-102233229D01*
X162571723Y-102230778D01*
X162629244Y-102213036D01*
X162704068Y-102214072D01*
X162780139Y-102232310D01*
X162827718Y-102255905D01*
X162876502Y-102293598D01*
X162912164Y-102336255D01*
X162936645Y-102390457D01*
X162951887Y-102462784D01*
X162959830Y-102559819D01*
X162962416Y-102688142D01*
X162962462Y-102712758D01*
X162962492Y-102989270D01*
X162900961Y-103010720D01*
X162857259Y-103025312D01*
X162833282Y-103032106D01*
X162832577Y-103032169D01*
X162830215Y-103013745D01*
X162828206Y-102962926D01*
X162826701Y-102886393D01*
X162825853Y-102790830D01*
X162825723Y-102732729D01*
X162825451Y-102618171D01*
X162824052Y-102536067D01*
X162820649Y-102479793D01*
X162814367Y-102442726D01*
X162804329Y-102418244D01*
X162789661Y-102399725D01*
X162780502Y-102390806D01*
X162717589Y-102354866D01*
X162648936Y-102352175D01*
X162586648Y-102382570D01*
X162575129Y-102393544D01*
X162558233Y-102414179D01*
X162546514Y-102438656D01*
X162539033Y-102474047D01*
X162534854Y-102527426D01*
X162533037Y-102605866D01*
X162532646Y-102714017D01*
X162532646Y-102989270D01*
X162471115Y-103010720D01*
X162427413Y-103025312D01*
X162403436Y-103032106D01*
X162402730Y-103032169D01*
X162400926Y-103013469D01*
X162399300Y-102960722D01*
X162397917Y-102878957D01*
X162396842Y-102773205D01*
X162396140Y-102648494D01*
X162395877Y-102509855D01*
X162395877Y-101975206D01*
X162522877Y-101921636D01*
X162532646Y-102085520D01*
G37*
X165768729Y-102230062D02*
X165771711Y-102281468D01*
X165774047Y-102359592D01*
X165775549Y-102458257D01*
X165776031Y-102561743D01*
X165776031Y-102911933D01*
X165714201Y-102973763D01*
X165671593Y-103011862D01*
X165634190Y-103027295D01*
X165583070Y-103026318D01*
X165562778Y-103023833D01*
X165499354Y-103016600D01*
X165446895Y-103012455D01*
X165434108Y-103012072D01*
X165390999Y-103014576D01*
X165329344Y-103020862D01*
X165305438Y-103023833D01*
X165246722Y-103028428D01*
X165207264Y-103018446D01*
X165168138Y-102987628D01*
X165154015Y-102973763D01*
X165092185Y-102911933D01*
X165092185Y-102256903D01*
X165141950Y-102234229D01*
X165184802Y-102217434D01*
X165209873Y-102211554D01*
X165216301Y-102230136D01*
X165222309Y-102282055D01*
X165227497Y-102361572D01*
X165231464Y-102462946D01*
X165233377Y-102548592D01*
X165238723Y-102885631D01*
X165285360Y-102892225D01*
X165327776Y-102887614D01*
X165348560Y-102872687D01*
X165354370Y-102844777D01*
X165359330Y-102785325D01*
X165363046Y-102701866D01*
X165365124Y-102601932D01*
X165365424Y-102550504D01*
X165365723Y-102254454D01*
X165427254Y-102233004D01*
X165470804Y-102218420D01*
X165494494Y-102211619D01*
X165495177Y-102211554D01*
X165497554Y-102230042D01*
X165500166Y-102281306D01*
X165502795Y-102359049D01*
X165505221Y-102456974D01*
X165506915Y-102548592D01*
X165512261Y-102885631D01*
X165629492Y-102885631D01*
X165634872Y-102578146D01*
X165640251Y-102270661D01*
X165697401Y-102241107D01*
X165739597Y-102220813D01*
X165764570Y-102211604D01*
X165765291Y-102211554D01*
X165768729Y-102230062D01*
G36*
X165768729Y-102230062D02*
G01*
X165771711Y-102281468D01*
X165774047Y-102359592D01*
X165775549Y-102458257D01*
X165776031Y-102561743D01*
X165776031Y-102911933D01*
X165714201Y-102973763D01*
X165671593Y-103011862D01*
X165634190Y-103027295D01*
X165583070Y-103026318D01*
X165562778Y-103023833D01*
X165499354Y-103016600D01*
X165446895Y-103012455D01*
X165434108Y-103012072D01*
X165390999Y-103014576D01*
X165329344Y-103020862D01*
X165305438Y-103023833D01*
X165246722Y-103028428D01*
X165207264Y-103018446D01*
X165168138Y-102987628D01*
X165154015Y-102973763D01*
X165092185Y-102911933D01*
X165092185Y-102256903D01*
X165141950Y-102234229D01*
X165184802Y-102217434D01*
X165209873Y-102211554D01*
X165216301Y-102230136D01*
X165222309Y-102282055D01*
X165227497Y-102361572D01*
X165231464Y-102462946D01*
X165233377Y-102548592D01*
X165238723Y-102885631D01*
X165285360Y-102892225D01*
X165327776Y-102887614D01*
X165348560Y-102872687D01*
X165354370Y-102844777D01*
X165359330Y-102785325D01*
X165363046Y-102701866D01*
X165365124Y-102601932D01*
X165365424Y-102550504D01*
X165365723Y-102254454D01*
X165427254Y-102233004D01*
X165470804Y-102218420D01*
X165494494Y-102211619D01*
X165495177Y-102211554D01*
X165497554Y-102230042D01*
X165500166Y-102281306D01*
X165502795Y-102359049D01*
X165505221Y-102456974D01*
X165506915Y-102548592D01*
X165512261Y-102885631D01*
X165629492Y-102885631D01*
X165634872Y-102578146D01*
X165640251Y-102270661D01*
X165697401Y-102241107D01*
X165739597Y-102220813D01*
X165764570Y-102211604D01*
X165765291Y-102211554D01*
X165768729Y-102230062D01*
G37*
X158976694Y-102595582D02*
X159172031Y-102595582D01*
X159173168Y-102684749D01*
X159177641Y-102743920D01*
X159187046Y-102782141D01*
X159202976Y-102808453D01*
X159211108Y-102817246D01*
X159257858Y-102850661D01*
X159303247Y-102849137D01*
X159349140Y-102820152D01*
X159376512Y-102789209D01*
X159392723Y-102744043D01*
X159401826Y-102672820D01*
X159402451Y-102664514D01*
X159404004Y-102535437D01*
X159387765Y-102439572D01*
X159353952Y-102377507D01*
X159302784Y-102349832D01*
X159284520Y-102348323D01*
X159236560Y-102355913D01*
X159203753Y-102382208D01*
X159183695Y-102432495D01*
X159173978Y-102512064D01*
X159172031Y-102595582D01*
X158976694Y-102595582D01*
X158977374Y-102501649D01*
X158980429Y-102431306D01*
X158987122Y-102382563D01*
X158998760Y-102346688D01*
X159016653Y-102314948D01*
X159020608Y-102309048D01*
X159087067Y-102229504D01*
X159159485Y-102183329D01*
X159247649Y-102164999D01*
X159277587Y-102164103D01*
X159389686Y-102180656D01*
X159481264Y-102228809D01*
X159548849Y-102306305D01*
X159572857Y-102356127D01*
X159591538Y-102430933D01*
X159601101Y-102525452D01*
X159602008Y-102628610D01*
X159594721Y-102729335D01*
X159579703Y-102816553D01*
X159557415Y-102879191D01*
X159550565Y-102889979D01*
X159469432Y-102970505D01*
X159373066Y-103018736D01*
X159268501Y-103032850D01*
X159162768Y-103011029D01*
X159133343Y-102997947D01*
X159076041Y-102957631D01*
X159025750Y-102904175D01*
X159020997Y-102897395D01*
X159001678Y-102864721D01*
X158988908Y-102829794D01*
X158981364Y-102783814D01*
X158977724Y-102717984D01*
X158976665Y-102623505D01*
X158976646Y-102602323D01*
X158976694Y-102595582D01*
G36*
X158976694Y-102595582D02*
G01*
X159172031Y-102595582D01*
X159173168Y-102684749D01*
X159177641Y-102743920D01*
X159187046Y-102782141D01*
X159202976Y-102808453D01*
X159211108Y-102817246D01*
X159257858Y-102850661D01*
X159303247Y-102849137D01*
X159349140Y-102820152D01*
X159376512Y-102789209D01*
X159392723Y-102744043D01*
X159401826Y-102672820D01*
X159402451Y-102664514D01*
X159404004Y-102535437D01*
X159387765Y-102439572D01*
X159353952Y-102377507D01*
X159302784Y-102349832D01*
X159284520Y-102348323D01*
X159236560Y-102355913D01*
X159203753Y-102382208D01*
X159183695Y-102432495D01*
X159173978Y-102512064D01*
X159172031Y-102595582D01*
X158976694Y-102595582D01*
X158977374Y-102501649D01*
X158980429Y-102431306D01*
X158987122Y-102382563D01*
X158998760Y-102346688D01*
X159016653Y-102314948D01*
X159020608Y-102309048D01*
X159087067Y-102229504D01*
X159159485Y-102183329D01*
X159247649Y-102164999D01*
X159277587Y-102164103D01*
X159389686Y-102180656D01*
X159481264Y-102228809D01*
X159548849Y-102306305D01*
X159572857Y-102356127D01*
X159591538Y-102430933D01*
X159601101Y-102525452D01*
X159602008Y-102628610D01*
X159594721Y-102729335D01*
X159579703Y-102816553D01*
X159557415Y-102879191D01*
X159550565Y-102889979D01*
X159469432Y-102970505D01*
X159373066Y-103018736D01*
X159268501Y-103032850D01*
X159162768Y-103011029D01*
X159133343Y-102997947D01*
X159076041Y-102957631D01*
X159025750Y-102904175D01*
X159020997Y-102897395D01*
X159001678Y-102864721D01*
X158988908Y-102829794D01*
X158981364Y-102783814D01*
X158977724Y-102717984D01*
X158976665Y-102623505D01*
X158976646Y-102602323D01*
X158976694Y-102595582D01*
G37*
X167223301Y-102563348D02*
X167341271Y-102563348D01*
X167342639Y-102596838D01*
X167346049Y-102602323D01*
X167368553Y-102594872D01*
X167416982Y-102575153D01*
X167481708Y-102547118D01*
X167495243Y-102541092D01*
X167577044Y-102499496D01*
X167622112Y-102462938D01*
X167632017Y-102428696D01*
X167608326Y-102394048D01*
X167588760Y-102378739D01*
X167518160Y-102348121D01*
X167452080Y-102353180D01*
X167396759Y-102390551D01*
X167358436Y-102456873D01*
X167346149Y-102509516D01*
X167341271Y-102563348D01*
X167223301Y-102563348D01*
X167224530Y-102504120D01*
X167233832Y-102414110D01*
X167252260Y-102348567D01*
X167282160Y-102300312D01*
X167325880Y-102262167D01*
X167344941Y-102249840D01*
X167431526Y-102217736D01*
X167526322Y-102215716D01*
X167618024Y-102241238D01*
X167695328Y-102291761D01*
X167732614Y-102336990D01*
X167762153Y-102419063D01*
X167764499Y-102484007D01*
X167759185Y-102570845D01*
X167558915Y-102658503D01*
X167461539Y-102703287D01*
X167397913Y-102739313D01*
X167364829Y-102770517D01*
X167359080Y-102800836D01*
X167377458Y-102834205D01*
X167397723Y-102856323D01*
X167456689Y-102891793D01*
X167520824Y-102894279D01*
X167579726Y-102866635D01*
X167622997Y-102811720D01*
X167630736Y-102792328D01*
X167667806Y-102731764D01*
X167710454Y-102705952D01*
X167768954Y-102683871D01*
X167768954Y-102767584D01*
X167763782Y-102824550D01*
X167743523Y-102872589D01*
X167701062Y-102927746D01*
X167694751Y-102934914D01*
X167647520Y-102983985D01*
X167606921Y-103010320D01*
X167556128Y-103022435D01*
X167514020Y-103026403D01*
X167438702Y-103027391D01*
X167385086Y-103014866D01*
X167351638Y-102996269D01*
X167299068Y-102955375D01*
X167262679Y-102911148D01*
X167239650Y-102855526D01*
X167227159Y-102780447D01*
X167222387Y-102677849D01*
X167222006Y-102625776D01*
X167223301Y-102563348D01*
G36*
X167223301Y-102563348D02*
G01*
X167341271Y-102563348D01*
X167342639Y-102596838D01*
X167346049Y-102602323D01*
X167368553Y-102594872D01*
X167416982Y-102575153D01*
X167481708Y-102547118D01*
X167495243Y-102541092D01*
X167577044Y-102499496D01*
X167622112Y-102462938D01*
X167632017Y-102428696D01*
X167608326Y-102394048D01*
X167588760Y-102378739D01*
X167518160Y-102348121D01*
X167452080Y-102353180D01*
X167396759Y-102390551D01*
X167358436Y-102456873D01*
X167346149Y-102509516D01*
X167341271Y-102563348D01*
X167223301Y-102563348D01*
X167224530Y-102504120D01*
X167233832Y-102414110D01*
X167252260Y-102348567D01*
X167282160Y-102300312D01*
X167325880Y-102262167D01*
X167344941Y-102249840D01*
X167431526Y-102217736D01*
X167526322Y-102215716D01*
X167618024Y-102241238D01*
X167695328Y-102291761D01*
X167732614Y-102336990D01*
X167762153Y-102419063D01*
X167764499Y-102484007D01*
X167759185Y-102570845D01*
X167558915Y-102658503D01*
X167461539Y-102703287D01*
X167397913Y-102739313D01*
X167364829Y-102770517D01*
X167359080Y-102800836D01*
X167377458Y-102834205D01*
X167397723Y-102856323D01*
X167456689Y-102891793D01*
X167520824Y-102894279D01*
X167579726Y-102866635D01*
X167622997Y-102811720D01*
X167630736Y-102792328D01*
X167667806Y-102731764D01*
X167710454Y-102705952D01*
X167768954Y-102683871D01*
X167768954Y-102767584D01*
X167763782Y-102824550D01*
X167743523Y-102872589D01*
X167701062Y-102927746D01*
X167694751Y-102934914D01*
X167647520Y-102983985D01*
X167606921Y-103010320D01*
X167556128Y-103022435D01*
X167514020Y-103026403D01*
X167438702Y-103027391D01*
X167385086Y-103014866D01*
X167351638Y-102996269D01*
X167299068Y-102955375D01*
X167262679Y-102911148D01*
X167239650Y-102855526D01*
X167227159Y-102780447D01*
X167222387Y-102677849D01*
X167222006Y-102625776D01*
X167223301Y-102563348D01*
G37*
X164408609Y-102616386D02*
X164545108Y-102616386D01*
X164545941Y-102703755D01*
X164549761Y-102761592D01*
X164558546Y-102799429D01*
X164574274Y-102826798D01*
X164593066Y-102847442D01*
X164656175Y-102887290D01*
X164723937Y-102890695D01*
X164787979Y-102857425D01*
X164792964Y-102852917D01*
X164814239Y-102829467D01*
X164827579Y-102801566D01*
X164834801Y-102760041D01*
X164837723Y-102695716D01*
X164838185Y-102624600D01*
X164837183Y-102535258D01*
X164833038Y-102475658D01*
X164824036Y-102436489D01*
X164808467Y-102408440D01*
X164795702Y-102393544D01*
X164736400Y-102355975D01*
X164668101Y-102351457D01*
X164602910Y-102380153D01*
X164590328Y-102390806D01*
X164568911Y-102414463D01*
X164555544Y-102442651D01*
X164548366Y-102484645D01*
X164545519Y-102549719D01*
X164545108Y-102616386D01*
X164408609Y-102616386D01*
X164413122Y-102499165D01*
X164429162Y-102406977D01*
X164459328Y-102337669D01*
X164506429Y-102283611D01*
X164543112Y-102255905D01*
X164609790Y-102225972D01*
X164687072Y-102212078D01*
X164758910Y-102215797D01*
X164799108Y-102230800D01*
X164814882Y-102235070D01*
X164825350Y-102219150D01*
X164832656Y-102176489D01*
X164838185Y-102111506D01*
X164844237Y-102039132D01*
X164852644Y-101995587D01*
X164867941Y-101970687D01*
X164894664Y-101954245D01*
X164911454Y-101946964D01*
X164974954Y-101920363D01*
X164974881Y-102373689D01*
X164974633Y-102519720D01*
X164973672Y-102632055D01*
X164971594Y-102716078D01*
X164967993Y-102777169D01*
X164962465Y-102820709D01*
X164954604Y-102852079D01*
X164944007Y-102876662D01*
X164935982Y-102890694D01*
X164869528Y-102966788D01*
X164785270Y-103014484D01*
X164692049Y-103031599D01*
X164598700Y-103015946D01*
X164543112Y-102987818D01*
X164484757Y-102939160D01*
X164444986Y-102879733D01*
X164420990Y-102801907D01*
X164409961Y-102698052D01*
X164408399Y-102621862D01*
X164408609Y-102616386D01*
G36*
X164408609Y-102616386D02*
G01*
X164545108Y-102616386D01*
X164545941Y-102703755D01*
X164549761Y-102761592D01*
X164558546Y-102799429D01*
X164574274Y-102826798D01*
X164593066Y-102847442D01*
X164656175Y-102887290D01*
X164723937Y-102890695D01*
X164787979Y-102857425D01*
X164792964Y-102852917D01*
X164814239Y-102829467D01*
X164827579Y-102801566D01*
X164834801Y-102760041D01*
X164837723Y-102695716D01*
X164838185Y-102624600D01*
X164837183Y-102535258D01*
X164833038Y-102475658D01*
X164824036Y-102436489D01*
X164808467Y-102408440D01*
X164795702Y-102393544D01*
X164736400Y-102355975D01*
X164668101Y-102351457D01*
X164602910Y-102380153D01*
X164590328Y-102390806D01*
X164568911Y-102414463D01*
X164555544Y-102442651D01*
X164548366Y-102484645D01*
X164545519Y-102549719D01*
X164545108Y-102616386D01*
X164408609Y-102616386D01*
X164413122Y-102499165D01*
X164429162Y-102406977D01*
X164459328Y-102337669D01*
X164506429Y-102283611D01*
X164543112Y-102255905D01*
X164609790Y-102225972D01*
X164687072Y-102212078D01*
X164758910Y-102215797D01*
X164799108Y-102230800D01*
X164814882Y-102235070D01*
X164825350Y-102219150D01*
X164832656Y-102176489D01*
X164838185Y-102111506D01*
X164844237Y-102039132D01*
X164852644Y-101995587D01*
X164867941Y-101970687D01*
X164894664Y-101954245D01*
X164911454Y-101946964D01*
X164974954Y-101920363D01*
X164974881Y-102373689D01*
X164974633Y-102519720D01*
X164973672Y-102632055D01*
X164971594Y-102716078D01*
X164967993Y-102777169D01*
X164962465Y-102820709D01*
X164954604Y-102852079D01*
X164944007Y-102876662D01*
X164935982Y-102890694D01*
X164869528Y-102966788D01*
X164785270Y-103014484D01*
X164692049Y-103031599D01*
X164598700Y-103015946D01*
X164543112Y-102987818D01*
X164484757Y-102939160D01*
X164444986Y-102879733D01*
X164420990Y-102801907D01*
X164409961Y-102698052D01*
X164408399Y-102621862D01*
X164408609Y-102616386D01*
G37*
X160469461Y-102477868D02*
X160656954Y-102477868D01*
X160659390Y-102520952D01*
X160672714Y-102533526D01*
X160705932Y-102524119D01*
X160758294Y-102501883D01*
X160816824Y-102474010D01*
X160818279Y-102473272D01*
X160867889Y-102447177D01*
X160887800Y-102429763D01*
X160882890Y-102411507D01*
X160862216Y-102387520D01*
X160809619Y-102352806D01*
X160752977Y-102350256D01*
X160702169Y-102375519D01*
X160667076Y-102424247D01*
X160656954Y-102477868D01*
X160469461Y-102477868D01*
X160474792Y-102428436D01*
X160507578Y-102334455D01*
X160553221Y-102268615D01*
X160635602Y-102202081D01*
X160726346Y-102169076D01*
X160818985Y-102166973D01*
X160907054Y-102193145D01*
X160984086Y-102244967D01*
X161043616Y-102319812D01*
X161079178Y-102415054D01*
X161086371Y-102485156D01*
X161085554Y-102514409D01*
X161078714Y-102536807D01*
X161059912Y-102556874D01*
X161023208Y-102579133D01*
X160962662Y-102608109D01*
X160872334Y-102648327D01*
X160871877Y-102648529D01*
X160788733Y-102686610D01*
X160720553Y-102720425D01*
X160674305Y-102746333D01*
X160656958Y-102760695D01*
X160656954Y-102760811D01*
X160672243Y-102792085D01*
X160707996Y-102826557D01*
X160749042Y-102851390D01*
X160769837Y-102856323D01*
X160826570Y-102839262D01*
X160875427Y-102796533D01*
X160899265Y-102749555D01*
X160922197Y-102714922D01*
X160967118Y-102675481D01*
X161019923Y-102641409D01*
X161066510Y-102622880D01*
X161076252Y-102621862D01*
X161087218Y-102638615D01*
X161087879Y-102681439D01*
X161079820Y-102739181D01*
X161064627Y-102800689D01*
X161043886Y-102854809D01*
X161042838Y-102856910D01*
X160980421Y-102944060D01*
X160899526Y-103003339D01*
X160807656Y-103032434D01*
X160712313Y-103029034D01*
X160620998Y-102990828D01*
X160616938Y-102988141D01*
X160545106Y-102923042D01*
X160497873Y-102838105D01*
X160471734Y-102726421D01*
X160468226Y-102695043D01*
X160462013Y-102546936D01*
X160469461Y-102477868D01*
G36*
X160469461Y-102477868D02*
G01*
X160656954Y-102477868D01*
X160659390Y-102520952D01*
X160672714Y-102533526D01*
X160705932Y-102524119D01*
X160758294Y-102501883D01*
X160816824Y-102474010D01*
X160818279Y-102473272D01*
X160867889Y-102447177D01*
X160887800Y-102429763D01*
X160882890Y-102411507D01*
X160862216Y-102387520D01*
X160809619Y-102352806D01*
X160752977Y-102350256D01*
X160702169Y-102375519D01*
X160667076Y-102424247D01*
X160656954Y-102477868D01*
X160469461Y-102477868D01*
X160474792Y-102428436D01*
X160507578Y-102334455D01*
X160553221Y-102268615D01*
X160635602Y-102202081D01*
X160726346Y-102169076D01*
X160818985Y-102166973D01*
X160907054Y-102193145D01*
X160984086Y-102244967D01*
X161043616Y-102319812D01*
X161079178Y-102415054D01*
X161086371Y-102485156D01*
X161085554Y-102514409D01*
X161078714Y-102536807D01*
X161059912Y-102556874D01*
X161023208Y-102579133D01*
X160962662Y-102608109D01*
X160872334Y-102648327D01*
X160871877Y-102648529D01*
X160788733Y-102686610D01*
X160720553Y-102720425D01*
X160674305Y-102746333D01*
X160656958Y-102760695D01*
X160656954Y-102760811D01*
X160672243Y-102792085D01*
X160707996Y-102826557D01*
X160749042Y-102851390D01*
X160769837Y-102856323D01*
X160826570Y-102839262D01*
X160875427Y-102796533D01*
X160899265Y-102749555D01*
X160922197Y-102714922D01*
X160967118Y-102675481D01*
X161019923Y-102641409D01*
X161066510Y-102622880D01*
X161076252Y-102621862D01*
X161087218Y-102638615D01*
X161087879Y-102681439D01*
X161079820Y-102739181D01*
X161064627Y-102800689D01*
X161043886Y-102854809D01*
X161042838Y-102856910D01*
X160980421Y-102944060D01*
X160899526Y-103003339D01*
X160807656Y-103032434D01*
X160712313Y-103029034D01*
X160620998Y-102990828D01*
X160616938Y-102988141D01*
X160545106Y-102923042D01*
X160497873Y-102838105D01*
X160471734Y-102726421D01*
X160468226Y-102695043D01*
X160462013Y-102546936D01*
X160469461Y-102477868D01*
G37*
X163426301Y-102219703D02*
X163502860Y-102248133D01*
X163503736Y-102248679D01*
X163551085Y-102283527D01*
X163586041Y-102324252D01*
X163610625Y-102377325D01*
X163626862Y-102449214D01*
X163636775Y-102546392D01*
X163642386Y-102675328D01*
X163642877Y-102693698D01*
X163649941Y-102970687D01*
X163590495Y-103001428D01*
X163547481Y-103022202D01*
X163521510Y-103032046D01*
X163520309Y-103032169D01*
X163515814Y-103014006D01*
X163512244Y-102965012D01*
X163510048Y-102893431D01*
X163509569Y-102835468D01*
X163509558Y-102741570D01*
X163505266Y-102682603D01*
X163490303Y-102654479D01*
X163458282Y-102653106D01*
X163402814Y-102674398D01*
X163319069Y-102713536D01*
X163257489Y-102746043D01*
X163225817Y-102774245D01*
X163216506Y-102804982D01*
X163216492Y-102806504D01*
X163231857Y-102859454D01*
X163277347Y-102888060D01*
X163346966Y-102892203D01*
X163397113Y-102891484D01*
X163423554Y-102905927D01*
X163440043Y-102940618D01*
X163449533Y-102984816D01*
X163435857Y-103009893D01*
X163430707Y-103013482D01*
X163382225Y-103027896D01*
X163314331Y-103029937D01*
X163244412Y-103020383D01*
X163194868Y-103002922D01*
X163126370Y-102944764D01*
X163087434Y-102863808D01*
X163079723Y-102800560D01*
X163085607Y-102743511D01*
X163106901Y-102696942D01*
X163149065Y-102655581D01*
X163217559Y-102614155D01*
X163317844Y-102567393D01*
X163323954Y-102564750D01*
X163414290Y-102523017D01*
X163470035Y-102488791D01*
X163493929Y-102458035D01*
X163488713Y-102426711D01*
X163457128Y-102390783D01*
X163447683Y-102382516D01*
X163384417Y-102350458D01*
X163318864Y-102351807D01*
X163261772Y-102383238D01*
X163223893Y-102441424D01*
X163220374Y-102452846D01*
X163186100Y-102508237D01*
X163142609Y-102534918D01*
X163079723Y-102561360D01*
X163079723Y-102492948D01*
X163098852Y-102393510D01*
X163155631Y-102302302D01*
X163185178Y-102271789D01*
X163252342Y-102232628D01*
X163337756Y-102214900D01*
X163426301Y-102219703D01*
G36*
X163426301Y-102219703D02*
G01*
X163502860Y-102248133D01*
X163503736Y-102248679D01*
X163551085Y-102283527D01*
X163586041Y-102324252D01*
X163610625Y-102377325D01*
X163626862Y-102449214D01*
X163636775Y-102546392D01*
X163642386Y-102675328D01*
X163642877Y-102693698D01*
X163649941Y-102970687D01*
X163590495Y-103001428D01*
X163547481Y-103022202D01*
X163521510Y-103032046D01*
X163520309Y-103032169D01*
X163515814Y-103014006D01*
X163512244Y-102965012D01*
X163510048Y-102893431D01*
X163509569Y-102835468D01*
X163509558Y-102741570D01*
X163505266Y-102682603D01*
X163490303Y-102654479D01*
X163458282Y-102653106D01*
X163402814Y-102674398D01*
X163319069Y-102713536D01*
X163257489Y-102746043D01*
X163225817Y-102774245D01*
X163216506Y-102804982D01*
X163216492Y-102806504D01*
X163231857Y-102859454D01*
X163277347Y-102888060D01*
X163346966Y-102892203D01*
X163397113Y-102891484D01*
X163423554Y-102905927D01*
X163440043Y-102940618D01*
X163449533Y-102984816D01*
X163435857Y-103009893D01*
X163430707Y-103013482D01*
X163382225Y-103027896D01*
X163314331Y-103029937D01*
X163244412Y-103020383D01*
X163194868Y-103002922D01*
X163126370Y-102944764D01*
X163087434Y-102863808D01*
X163079723Y-102800560D01*
X163085607Y-102743511D01*
X163106901Y-102696942D01*
X163149065Y-102655581D01*
X163217559Y-102614155D01*
X163317844Y-102567393D01*
X163323954Y-102564750D01*
X163414290Y-102523017D01*
X163470035Y-102488791D01*
X163493929Y-102458035D01*
X163488713Y-102426711D01*
X163457128Y-102390783D01*
X163447683Y-102382516D01*
X163384417Y-102350458D01*
X163318864Y-102351807D01*
X163261772Y-102383238D01*
X163223893Y-102441424D01*
X163220374Y-102452846D01*
X163186100Y-102508237D01*
X163142609Y-102534918D01*
X163079723Y-102561360D01*
X163079723Y-102492948D01*
X163098852Y-102393510D01*
X163155631Y-102302302D01*
X163185178Y-102271789D01*
X163252342Y-102232628D01*
X163337756Y-102214900D01*
X163426301Y-102219703D01*
G37*
X159726704Y-102593442D02*
X159914492Y-102593442D01*
X159915548Y-102676764D01*
X159920238Y-102731280D01*
X159930851Y-102767237D01*
X159949672Y-102794882D01*
X159962450Y-102808365D01*
X160014690Y-102847817D01*
X160060942Y-102851028D01*
X160108667Y-102818449D01*
X160109877Y-102817246D01*
X160129294Y-102792068D01*
X160141107Y-102757847D01*
X160147065Y-102705148D01*
X160148920Y-102624531D01*
X160148954Y-102606671D01*
X160144470Y-102495575D01*
X160129874Y-102418561D01*
X160103450Y-102371547D01*
X160063483Y-102350450D01*
X160040384Y-102348323D01*
X159985562Y-102358300D01*
X159947958Y-102391152D01*
X159925323Y-102451257D01*
X159915406Y-102542998D01*
X159914492Y-102593442D01*
X159726704Y-102593442D01*
X159727022Y-102575460D01*
X159729673Y-102488079D01*
X159733406Y-102424305D01*
X159738707Y-102378982D01*
X159746058Y-102346955D01*
X159755943Y-102323068D01*
X159768846Y-102302164D01*
X159774379Y-102294298D01*
X159847769Y-102219995D01*
X159940560Y-102177867D01*
X160047896Y-102166122D01*
X160141686Y-102177905D01*
X160216339Y-102215127D01*
X160282231Y-102283661D01*
X160300377Y-102309048D01*
X160320145Y-102342266D01*
X160332972Y-102378345D01*
X160340310Y-102426498D01*
X160343613Y-102495936D01*
X160344338Y-102587606D01*
X160341063Y-102713230D01*
X160329677Y-102807554D01*
X160307841Y-102877923D01*
X160273219Y-102931686D01*
X160223470Y-102976188D01*
X160219814Y-102978823D01*
X160170785Y-103005777D01*
X160111745Y-103019112D01*
X160036659Y-103022400D01*
X159914595Y-103022400D01*
X159914544Y-103140897D01*
X159913408Y-103206892D01*
X159906486Y-103245602D01*
X159888398Y-103268819D01*
X159853762Y-103288333D01*
X159845445Y-103292320D01*
X159806520Y-103311003D01*
X159776383Y-103322803D01*
X159753974Y-103323822D01*
X159738233Y-103310161D01*
X159728102Y-103277922D01*
X159722523Y-103223204D01*
X159720435Y-103142111D01*
X159720781Y-103030744D01*
X159722500Y-102885202D01*
X159723037Y-102841669D01*
X159724972Y-102691605D01*
X159726704Y-102593442D01*
G36*
X159726704Y-102593442D02*
G01*
X159914492Y-102593442D01*
X159915548Y-102676764D01*
X159920238Y-102731280D01*
X159930851Y-102767237D01*
X159949672Y-102794882D01*
X159962450Y-102808365D01*
X160014690Y-102847817D01*
X160060942Y-102851028D01*
X160108667Y-102818449D01*
X160109877Y-102817246D01*
X160129294Y-102792068D01*
X160141107Y-102757847D01*
X160147065Y-102705148D01*
X160148920Y-102624531D01*
X160148954Y-102606671D01*
X160144470Y-102495575D01*
X160129874Y-102418561D01*
X160103450Y-102371547D01*
X160063483Y-102350450D01*
X160040384Y-102348323D01*
X159985562Y-102358300D01*
X159947958Y-102391152D01*
X159925323Y-102451257D01*
X159915406Y-102542998D01*
X159914492Y-102593442D01*
X159726704Y-102593442D01*
X159727022Y-102575460D01*
X159729673Y-102488079D01*
X159733406Y-102424305D01*
X159738707Y-102378982D01*
X159746058Y-102346955D01*
X159755943Y-102323068D01*
X159768846Y-102302164D01*
X159774379Y-102294298D01*
X159847769Y-102219995D01*
X159940560Y-102177867D01*
X160047896Y-102166122D01*
X160141686Y-102177905D01*
X160216339Y-102215127D01*
X160282231Y-102283661D01*
X160300377Y-102309048D01*
X160320145Y-102342266D01*
X160332972Y-102378345D01*
X160340310Y-102426498D01*
X160343613Y-102495936D01*
X160344338Y-102587606D01*
X160341063Y-102713230D01*
X160329677Y-102807554D01*
X160307841Y-102877923D01*
X160273219Y-102931686D01*
X160223470Y-102976188D01*
X160219814Y-102978823D01*
X160170785Y-103005777D01*
X160111745Y-103019112D01*
X160036659Y-103022400D01*
X159914595Y-103022400D01*
X159914544Y-103140897D01*
X159913408Y-103206892D01*
X159906486Y-103245602D01*
X159888398Y-103268819D01*
X159853762Y-103288333D01*
X159845445Y-103292320D01*
X159806520Y-103311003D01*
X159776383Y-103322803D01*
X159753974Y-103323822D01*
X159738233Y-103310161D01*
X159728102Y-103277922D01*
X159722523Y-103223204D01*
X159720435Y-103142111D01*
X159720781Y-103030744D01*
X159722500Y-102885202D01*
X159723037Y-102841669D01*
X159724972Y-102691605D01*
X159726704Y-102593442D01*
G37*
X166260133Y-102226928D02*
X166316390Y-102252517D01*
X166360547Y-102283524D01*
X166392901Y-102318195D01*
X166415238Y-102362920D01*
X166429346Y-102424092D01*
X166437011Y-102508101D01*
X166440020Y-102621340D01*
X166440338Y-102695909D01*
X166440338Y-102986820D01*
X166390573Y-103009495D01*
X166351376Y-103026067D01*
X166331957Y-103032169D01*
X166328242Y-103014010D01*
X166325295Y-102965048D01*
X166323491Y-102893553D01*
X166323108Y-102836785D01*
X166321461Y-102754771D01*
X166317022Y-102689709D01*
X166310540Y-102649867D01*
X166305390Y-102641400D01*
X166270777Y-102650046D01*
X166216440Y-102672223D01*
X166153522Y-102702286D01*
X166093168Y-102734592D01*
X166046521Y-102763498D01*
X166024726Y-102783361D01*
X166024639Y-102783575D01*
X166026514Y-102820335D01*
X166043325Y-102855426D01*
X166072839Y-102883928D01*
X166115916Y-102893461D01*
X166152732Y-102892350D01*
X166204874Y-102891533D01*
X166232244Y-102903749D01*
X166248682Y-102936024D01*
X166250755Y-102942110D01*
X166257881Y-102988139D01*
X166238824Y-103016087D01*
X166189153Y-103029407D01*
X166135497Y-103031870D01*
X166038942Y-103013610D01*
X165988959Y-102987531D01*
X165927229Y-102926268D01*
X165894490Y-102851070D01*
X165891553Y-102771611D01*
X165919224Y-102697567D01*
X165960847Y-102651169D01*
X166002404Y-102625193D01*
X166067722Y-102592307D01*
X166143838Y-102558957D01*
X166156526Y-102553861D01*
X166240133Y-102516965D01*
X166288330Y-102484446D01*
X166303830Y-102452118D01*
X166289350Y-102415794D01*
X166264492Y-102387400D01*
X166205739Y-102352439D01*
X166141093Y-102349817D01*
X166081808Y-102376758D01*
X166039139Y-102430488D01*
X166033539Y-102444350D01*
X166000933Y-102495336D01*
X165953330Y-102533187D01*
X165893261Y-102564250D01*
X165893261Y-102476168D01*
X165896797Y-102422351D01*
X165911956Y-102379934D01*
X165945568Y-102334679D01*
X165977835Y-102299820D01*
X166028009Y-102250462D01*
X166066993Y-102223947D01*
X166108864Y-102213311D01*
X166156260Y-102211554D01*
X166260133Y-102226928D01*
G36*
X166260133Y-102226928D02*
G01*
X166316390Y-102252517D01*
X166360547Y-102283524D01*
X166392901Y-102318195D01*
X166415238Y-102362920D01*
X166429346Y-102424092D01*
X166437011Y-102508101D01*
X166440020Y-102621340D01*
X166440338Y-102695909D01*
X166440338Y-102986820D01*
X166390573Y-103009495D01*
X166351376Y-103026067D01*
X166331957Y-103032169D01*
X166328242Y-103014010D01*
X166325295Y-102965048D01*
X166323491Y-102893553D01*
X166323108Y-102836785D01*
X166321461Y-102754771D01*
X166317022Y-102689709D01*
X166310540Y-102649867D01*
X166305390Y-102641400D01*
X166270777Y-102650046D01*
X166216440Y-102672223D01*
X166153522Y-102702286D01*
X166093168Y-102734592D01*
X166046521Y-102763498D01*
X166024726Y-102783361D01*
X166024639Y-102783575D01*
X166026514Y-102820335D01*
X166043325Y-102855426D01*
X166072839Y-102883928D01*
X166115916Y-102893461D01*
X166152732Y-102892350D01*
X166204874Y-102891533D01*
X166232244Y-102903749D01*
X166248682Y-102936024D01*
X166250755Y-102942110D01*
X166257881Y-102988139D01*
X166238824Y-103016087D01*
X166189153Y-103029407D01*
X166135497Y-103031870D01*
X166038942Y-103013610D01*
X165988959Y-102987531D01*
X165927229Y-102926268D01*
X165894490Y-102851070D01*
X165891553Y-102771611D01*
X165919224Y-102697567D01*
X165960847Y-102651169D01*
X166002404Y-102625193D01*
X166067722Y-102592307D01*
X166143838Y-102558957D01*
X166156526Y-102553861D01*
X166240133Y-102516965D01*
X166288330Y-102484446D01*
X166303830Y-102452118D01*
X166289350Y-102415794D01*
X166264492Y-102387400D01*
X166205739Y-102352439D01*
X166141093Y-102349817D01*
X166081808Y-102376758D01*
X166039139Y-102430488D01*
X166033539Y-102444350D01*
X166000933Y-102495336D01*
X165953330Y-102533187D01*
X165893261Y-102564250D01*
X165893261Y-102476168D01*
X165896797Y-102422351D01*
X165911956Y-102379934D01*
X165945568Y-102334679D01*
X165977835Y-102299820D01*
X166028009Y-102250462D01*
X166066993Y-102223947D01*
X166108864Y-102213311D01*
X166156260Y-102211554D01*
X166260133Y-102226928D01*
G37*
X163512678Y-95881176D02*
X163618412Y-95881755D01*
X163694932Y-95883322D01*
X163747172Y-95886372D01*
X163780063Y-95891396D01*
X163798537Y-95898889D01*
X163807527Y-95909344D01*
X163811963Y-95923253D01*
X163812394Y-95925054D01*
X163819133Y-95957545D01*
X163831608Y-96021652D01*
X163848519Y-96110551D01*
X163868571Y-96217419D01*
X163890464Y-96335433D01*
X163891229Y-96339578D01*
X163913159Y-96455231D01*
X163933677Y-96557414D01*
X163951459Y-96639998D01*
X163965181Y-96696856D01*
X163973518Y-96721858D01*
X163973916Y-96722301D01*
X163998477Y-96734510D01*
X164049115Y-96754856D01*
X164114895Y-96778945D01*
X164115261Y-96779074D01*
X164198117Y-96810218D01*
X164295800Y-96849891D01*
X164387877Y-96889781D01*
X164392234Y-96891753D01*
X164542207Y-96959820D01*
X164874298Y-96733039D01*
X164976174Y-96663904D01*
X165068457Y-96602097D01*
X165145803Y-96551133D01*
X165202864Y-96514527D01*
X165234295Y-96495794D01*
X165237279Y-96494404D01*
X165260121Y-96500590D01*
X165302782Y-96530435D01*
X165366928Y-96585347D01*
X165454221Y-96666734D01*
X165543335Y-96753322D01*
X165629241Y-96838647D01*
X165706127Y-96916508D01*
X165769364Y-96982097D01*
X165814323Y-97030605D01*
X165836376Y-97057225D01*
X165837196Y-97058595D01*
X165839634Y-97076863D01*
X165830450Y-97106695D01*
X165807374Y-97152121D01*
X165768137Y-97217170D01*
X165710470Y-97305870D01*
X165633595Y-97420057D01*
X165565370Y-97520562D01*
X165504382Y-97610703D01*
X165454156Y-97685249D01*
X165418216Y-97738965D01*
X165400087Y-97766618D01*
X165398946Y-97768495D01*
X165401159Y-97794990D01*
X165417938Y-97846486D01*
X165445942Y-97913251D01*
X165455922Y-97934572D01*
X165499472Y-98029559D01*
X165545934Y-98137337D01*
X165583677Y-98230592D01*
X165610873Y-98299806D01*
X165632475Y-98352406D01*
X165644958Y-98379897D01*
X165646509Y-98382016D01*
X165669468Y-98385524D01*
X165723586Y-98395138D01*
X165801668Y-98409489D01*
X165896519Y-98427207D01*
X166000943Y-98446925D01*
X166107744Y-98467274D01*
X166209726Y-98486886D01*
X166299694Y-98504391D01*
X166370453Y-98518422D01*
X166414806Y-98527609D01*
X166425685Y-98530207D01*
X166436922Y-98536618D01*
X166445405Y-98551097D01*
X166451514Y-98578533D01*
X166455632Y-98623811D01*
X166458141Y-98691820D01*
X166459421Y-98787447D01*
X166459854Y-98915580D01*
X166459877Y-98968101D01*
X166459877Y-99395245D01*
X166357300Y-99415491D01*
X166300231Y-99426470D01*
X166215069Y-99442495D01*
X166112172Y-99461633D01*
X166001896Y-99481951D01*
X165971415Y-99487532D01*
X165869655Y-99507317D01*
X165781005Y-99526773D01*
X165712908Y-99544097D01*
X165672804Y-99557488D01*
X165666123Y-99561479D01*
X165649719Y-99589742D01*
X165626199Y-99644509D01*
X165600116Y-99714988D01*
X165594942Y-99730169D01*
X165560756Y-99824296D01*
X165518323Y-99930501D01*
X165476797Y-100025873D01*
X165476592Y-100026316D01*
X165407440Y-100175925D01*
X165862312Y-100845017D01*
X165570300Y-101137516D01*
X165481980Y-101224570D01*
X165401425Y-101301309D01*
X165333160Y-101363637D01*
X165281708Y-101407456D01*
X165251594Y-101428670D01*
X165247274Y-101430016D01*
X165221911Y-101419416D01*
X165170158Y-101389947D01*
X165097668Y-101345105D01*
X165010094Y-101288384D01*
X164915412Y-101224862D01*
X164819316Y-101160068D01*
X164733637Y-101103687D01*
X164663816Y-101059188D01*
X164615294Y-101030039D01*
X164593582Y-101019708D01*
X164567093Y-101028450D01*
X164516862Y-101051487D01*
X164453251Y-101084031D01*
X164446508Y-101087649D01*
X164360846Y-101130610D01*
X164302106Y-101151679D01*
X164265572Y-101151903D01*
X164246531Y-101132328D01*
X164246420Y-101132054D01*
X164236902Y-101108872D01*
X164214203Y-101053841D01*
X164180082Y-100971222D01*
X164136300Y-100865272D01*
X164084616Y-100740252D01*
X164026792Y-100600420D01*
X163970791Y-100465037D01*
X163909247Y-100315634D01*
X163852739Y-100177232D01*
X163802961Y-100054073D01*
X163761606Y-99950402D01*
X163730368Y-99870459D01*
X163710941Y-99818488D01*
X163704954Y-99799092D01*
X163719968Y-99776843D01*
X163759239Y-99741382D01*
X163811607Y-99702287D01*
X163960741Y-99578645D01*
X164077311Y-99436922D01*
X164159918Y-99280104D01*
X164207166Y-99111175D01*
X164217657Y-98933122D01*
X164210031Y-98850939D01*
X164168482Y-98680431D01*
X164096923Y-98529859D01*
X163999795Y-98400709D01*
X163881534Y-98294464D01*
X163746580Y-98212610D01*
X163599371Y-98156632D01*
X163444344Y-98128015D01*
X163285939Y-98128244D01*
X163128594Y-98158805D01*
X162976746Y-98221182D01*
X162834835Y-98316860D01*
X162775603Y-98370972D01*
X162662003Y-98509920D01*
X162582906Y-98661761D01*
X162537786Y-98822067D01*
X162526116Y-98986412D01*
X162547369Y-99150371D01*
X162601020Y-99309518D01*
X162686540Y-99459425D01*
X162803405Y-99595667D01*
X162933993Y-99702287D01*
X162988388Y-99743042D01*
X163026814Y-99778118D01*
X163040646Y-99799126D01*
X163033403Y-99822035D01*
X163012805Y-99876765D01*
X162980546Y-99959072D01*
X162938321Y-100064715D01*
X162887823Y-100189450D01*
X162830748Y-100329036D01*
X162774654Y-100465070D01*
X162712767Y-100614601D01*
X162655444Y-100753167D01*
X162604444Y-100876507D01*
X162561527Y-100980364D01*
X162528453Y-101060480D01*
X162506981Y-101112595D01*
X162499025Y-101132054D01*
X162480229Y-101151823D01*
X162443874Y-101151765D01*
X162385279Y-101130841D01*
X162299768Y-101088013D01*
X162299092Y-101087649D01*
X162234707Y-101054412D01*
X162182661Y-101030202D01*
X162153312Y-101019804D01*
X162152017Y-101019708D01*
X162129924Y-101030255D01*
X162081148Y-101059584D01*
X162011131Y-101104227D01*
X161925314Y-101160714D01*
X161830188Y-101224862D01*
X161733340Y-101289811D01*
X161646053Y-101346296D01*
X161573981Y-101390821D01*
X161522777Y-101419890D01*
X161498326Y-101430016D01*
X161475810Y-101416707D01*
X161430542Y-101379512D01*
X161367044Y-101322528D01*
X161289839Y-101249849D01*
X161203451Y-101165571D01*
X161175199Y-101137416D01*
X160883087Y-100844816D01*
X161105431Y-100518504D01*
X161173002Y-100418297D01*
X161232307Y-100328363D01*
X161280017Y-100253910D01*
X161312807Y-100200151D01*
X161327348Y-100172294D01*
X161327774Y-100170312D01*
X161320108Y-100144055D01*
X161299489Y-100091237D01*
X161269485Y-100020710D01*
X161248425Y-99973493D01*
X161209048Y-99883094D01*
X161171965Y-99791766D01*
X161143215Y-99714600D01*
X161135405Y-99691092D01*
X161113217Y-99628316D01*
X161091527Y-99579811D01*
X161079613Y-99561479D01*
X161053323Y-99550259D01*
X160995942Y-99534354D01*
X160914918Y-99515567D01*
X160817695Y-99495699D01*
X160774185Y-99487532D01*
X160663696Y-99467229D01*
X160557716Y-99447570D01*
X160466601Y-99430488D01*
X160400708Y-99417918D01*
X160388300Y-99415491D01*
X160285723Y-99395245D01*
X160285723Y-98968101D01*
X160285953Y-98827646D01*
X160286899Y-98721379D01*
X160288941Y-98644413D01*
X160292462Y-98591860D01*
X160297843Y-98558833D01*
X160305466Y-98540445D01*
X160315712Y-98531808D01*
X160319915Y-98530207D01*
X160345270Y-98524527D01*
X160401284Y-98513195D01*
X160480764Y-98497579D01*
X160576512Y-98479047D01*
X160681333Y-98458969D01*
X160788032Y-98438712D01*
X160889413Y-98419646D01*
X160978279Y-98403139D01*
X161047437Y-98390559D01*
X161089689Y-98383275D01*
X161099090Y-98382016D01*
X161107607Y-98365163D01*
X161126460Y-98320270D01*
X161152124Y-98255830D01*
X161161923Y-98230592D01*
X161201448Y-98133086D01*
X161247992Y-98025359D01*
X161289677Y-97934572D01*
X161320350Y-97865153D01*
X161340756Y-97808110D01*
X161347568Y-97773177D01*
X161346482Y-97768495D01*
X161332085Y-97746391D01*
X161299212Y-97697231D01*
X161251390Y-97626248D01*
X161192148Y-97538678D01*
X161125015Y-97439757D01*
X161111741Y-97420230D01*
X161033846Y-97304540D01*
X160976587Y-97216444D01*
X160937681Y-97151886D01*
X160914844Y-97106811D01*
X160905794Y-97077163D01*
X160908248Y-97058885D01*
X160908311Y-97058769D01*
X160927627Y-97034761D01*
X160970351Y-96988347D01*
X161031851Y-96924337D01*
X161107498Y-96847545D01*
X161192661Y-96762782D01*
X161202265Y-96753322D01*
X161309590Y-96649389D01*
X161392415Y-96573075D01*
X161452405Y-96522971D01*
X161491223Y-96497670D01*
X161508320Y-96494404D01*
X161533273Y-96508650D01*
X161585055Y-96541556D01*
X161658320Y-96589608D01*
X161747720Y-96649290D01*
X161847911Y-96717088D01*
X161871301Y-96733039D01*
X162203393Y-96959820D01*
X162353365Y-96891753D01*
X162444570Y-96852085D01*
X162542469Y-96812191D01*
X162626631Y-96780383D01*
X162630338Y-96779074D01*
X162696169Y-96754976D01*
X162746916Y-96734600D01*
X162771642Y-96722336D01*
X162771684Y-96722301D01*
X162779529Y-96700134D01*
X162792866Y-96645617D01*
X162810370Y-96564880D01*
X162830717Y-96464050D01*
X162852582Y-96349256D01*
X162854371Y-96339578D01*
X162876304Y-96221304D01*
X162896440Y-96113942D01*
X162913480Y-96024317D01*
X162926128Y-95959251D01*
X162933084Y-95925568D01*
X162933206Y-95925054D01*
X162937439Y-95910725D01*
X162945671Y-95899907D01*
X162962833Y-95892106D01*
X162993858Y-95886829D01*
X163043678Y-95883582D01*
X163117224Y-95881872D01*
X163219429Y-95881207D01*
X163355225Y-95881093D01*
X163372800Y-95881092D01*
X163512678Y-95881176D01*
G36*
X163512678Y-95881176D02*
G01*
X163618412Y-95881755D01*
X163694932Y-95883322D01*
X163747172Y-95886372D01*
X163780063Y-95891396D01*
X163798537Y-95898889D01*
X163807527Y-95909344D01*
X163811963Y-95923253D01*
X163812394Y-95925054D01*
X163819133Y-95957545D01*
X163831608Y-96021652D01*
X163848519Y-96110551D01*
X163868571Y-96217419D01*
X163890464Y-96335433D01*
X163891229Y-96339578D01*
X163913159Y-96455231D01*
X163933677Y-96557414D01*
X163951459Y-96639998D01*
X163965181Y-96696856D01*
X163973518Y-96721858D01*
X163973916Y-96722301D01*
X163998477Y-96734510D01*
X164049115Y-96754856D01*
X164114895Y-96778945D01*
X164115261Y-96779074D01*
X164198117Y-96810218D01*
X164295800Y-96849891D01*
X164387877Y-96889781D01*
X164392234Y-96891753D01*
X164542207Y-96959820D01*
X164874298Y-96733039D01*
X164976174Y-96663904D01*
X165068457Y-96602097D01*
X165145803Y-96551133D01*
X165202864Y-96514527D01*
X165234295Y-96495794D01*
X165237279Y-96494404D01*
X165260121Y-96500590D01*
X165302782Y-96530435D01*
X165366928Y-96585347D01*
X165454221Y-96666734D01*
X165543335Y-96753322D01*
X165629241Y-96838647D01*
X165706127Y-96916508D01*
X165769364Y-96982097D01*
X165814323Y-97030605D01*
X165836376Y-97057225D01*
X165837196Y-97058595D01*
X165839634Y-97076863D01*
X165830450Y-97106695D01*
X165807374Y-97152121D01*
X165768137Y-97217170D01*
X165710470Y-97305870D01*
X165633595Y-97420057D01*
X165565370Y-97520562D01*
X165504382Y-97610703D01*
X165454156Y-97685249D01*
X165418216Y-97738965D01*
X165400087Y-97766618D01*
X165398946Y-97768495D01*
X165401159Y-97794990D01*
X165417938Y-97846486D01*
X165445942Y-97913251D01*
X165455922Y-97934572D01*
X165499472Y-98029559D01*
X165545934Y-98137337D01*
X165583677Y-98230592D01*
X165610873Y-98299806D01*
X165632475Y-98352406D01*
X165644958Y-98379897D01*
X165646509Y-98382016D01*
X165669468Y-98385524D01*
X165723586Y-98395138D01*
X165801668Y-98409489D01*
X165896519Y-98427207D01*
X166000943Y-98446925D01*
X166107744Y-98467274D01*
X166209726Y-98486886D01*
X166299694Y-98504391D01*
X166370453Y-98518422D01*
X166414806Y-98527609D01*
X166425685Y-98530207D01*
X166436922Y-98536618D01*
X166445405Y-98551097D01*
X166451514Y-98578533D01*
X166455632Y-98623811D01*
X166458141Y-98691820D01*
X166459421Y-98787447D01*
X166459854Y-98915580D01*
X166459877Y-98968101D01*
X166459877Y-99395245D01*
X166357300Y-99415491D01*
X166300231Y-99426470D01*
X166215069Y-99442495D01*
X166112172Y-99461633D01*
X166001896Y-99481951D01*
X165971415Y-99487532D01*
X165869655Y-99507317D01*
X165781005Y-99526773D01*
X165712908Y-99544097D01*
X165672804Y-99557488D01*
X165666123Y-99561479D01*
X165649719Y-99589742D01*
X165626199Y-99644509D01*
X165600116Y-99714988D01*
X165594942Y-99730169D01*
X165560756Y-99824296D01*
X165518323Y-99930501D01*
X165476797Y-100025873D01*
X165476592Y-100026316D01*
X165407440Y-100175925D01*
X165862312Y-100845017D01*
X165570300Y-101137516D01*
X165481980Y-101224570D01*
X165401425Y-101301309D01*
X165333160Y-101363637D01*
X165281708Y-101407456D01*
X165251594Y-101428670D01*
X165247274Y-101430016D01*
X165221911Y-101419416D01*
X165170158Y-101389947D01*
X165097668Y-101345105D01*
X165010094Y-101288384D01*
X164915412Y-101224862D01*
X164819316Y-101160068D01*
X164733637Y-101103687D01*
X164663816Y-101059188D01*
X164615294Y-101030039D01*
X164593582Y-101019708D01*
X164567093Y-101028450D01*
X164516862Y-101051487D01*
X164453251Y-101084031D01*
X164446508Y-101087649D01*
X164360846Y-101130610D01*
X164302106Y-101151679D01*
X164265572Y-101151903D01*
X164246531Y-101132328D01*
X164246420Y-101132054D01*
X164236902Y-101108872D01*
X164214203Y-101053841D01*
X164180082Y-100971222D01*
X164136300Y-100865272D01*
X164084616Y-100740252D01*
X164026792Y-100600420D01*
X163970791Y-100465037D01*
X163909247Y-100315634D01*
X163852739Y-100177232D01*
X163802961Y-100054073D01*
X163761606Y-99950402D01*
X163730368Y-99870459D01*
X163710941Y-99818488D01*
X163704954Y-99799092D01*
X163719968Y-99776843D01*
X163759239Y-99741382D01*
X163811607Y-99702287D01*
X163960741Y-99578645D01*
X164077311Y-99436922D01*
X164159918Y-99280104D01*
X164207166Y-99111175D01*
X164217657Y-98933122D01*
X164210031Y-98850939D01*
X164168482Y-98680431D01*
X164096923Y-98529859D01*
X163999795Y-98400709D01*
X163881534Y-98294464D01*
X163746580Y-98212610D01*
X163599371Y-98156632D01*
X163444344Y-98128015D01*
X163285939Y-98128244D01*
X163128594Y-98158805D01*
X162976746Y-98221182D01*
X162834835Y-98316860D01*
X162775603Y-98370972D01*
X162662003Y-98509920D01*
X162582906Y-98661761D01*
X162537786Y-98822067D01*
X162526116Y-98986412D01*
X162547369Y-99150371D01*
X162601020Y-99309518D01*
X162686540Y-99459425D01*
X162803405Y-99595667D01*
X162933993Y-99702287D01*
X162988388Y-99743042D01*
X163026814Y-99778118D01*
X163040646Y-99799126D01*
X163033403Y-99822035D01*
X163012805Y-99876765D01*
X162980546Y-99959072D01*
X162938321Y-100064715D01*
X162887823Y-100189450D01*
X162830748Y-100329036D01*
X162774654Y-100465070D01*
X162712767Y-100614601D01*
X162655444Y-100753167D01*
X162604444Y-100876507D01*
X162561527Y-100980364D01*
X162528453Y-101060480D01*
X162506981Y-101112595D01*
X162499025Y-101132054D01*
X162480229Y-101151823D01*
X162443874Y-101151765D01*
X162385279Y-101130841D01*
X162299768Y-101088013D01*
X162299092Y-101087649D01*
X162234707Y-101054412D01*
X162182661Y-101030202D01*
X162153312Y-101019804D01*
X162152017Y-101019708D01*
X162129924Y-101030255D01*
X162081148Y-101059584D01*
X162011131Y-101104227D01*
X161925314Y-101160714D01*
X161830188Y-101224862D01*
X161733340Y-101289811D01*
X161646053Y-101346296D01*
X161573981Y-101390821D01*
X161522777Y-101419890D01*
X161498326Y-101430016D01*
X161475810Y-101416707D01*
X161430542Y-101379512D01*
X161367044Y-101322528D01*
X161289839Y-101249849D01*
X161203451Y-101165571D01*
X161175199Y-101137416D01*
X160883087Y-100844816D01*
X161105431Y-100518504D01*
X161173002Y-100418297D01*
X161232307Y-100328363D01*
X161280017Y-100253910D01*
X161312807Y-100200151D01*
X161327348Y-100172294D01*
X161327774Y-100170312D01*
X161320108Y-100144055D01*
X161299489Y-100091237D01*
X161269485Y-100020710D01*
X161248425Y-99973493D01*
X161209048Y-99883094D01*
X161171965Y-99791766D01*
X161143215Y-99714600D01*
X161135405Y-99691092D01*
X161113217Y-99628316D01*
X161091527Y-99579811D01*
X161079613Y-99561479D01*
X161053323Y-99550259D01*
X160995942Y-99534354D01*
X160914918Y-99515567D01*
X160817695Y-99495699D01*
X160774185Y-99487532D01*
X160663696Y-99467229D01*
X160557716Y-99447570D01*
X160466601Y-99430488D01*
X160400708Y-99417918D01*
X160388300Y-99415491D01*
X160285723Y-99395245D01*
X160285723Y-98968101D01*
X160285953Y-98827646D01*
X160286899Y-98721379D01*
X160288941Y-98644413D01*
X160292462Y-98591860D01*
X160297843Y-98558833D01*
X160305466Y-98540445D01*
X160315712Y-98531808D01*
X160319915Y-98530207D01*
X160345270Y-98524527D01*
X160401284Y-98513195D01*
X160480764Y-98497579D01*
X160576512Y-98479047D01*
X160681333Y-98458969D01*
X160788032Y-98438712D01*
X160889413Y-98419646D01*
X160978279Y-98403139D01*
X161047437Y-98390559D01*
X161089689Y-98383275D01*
X161099090Y-98382016D01*
X161107607Y-98365163D01*
X161126460Y-98320270D01*
X161152124Y-98255830D01*
X161161923Y-98230592D01*
X161201448Y-98133086D01*
X161247992Y-98025359D01*
X161289677Y-97934572D01*
X161320350Y-97865153D01*
X161340756Y-97808110D01*
X161347568Y-97773177D01*
X161346482Y-97768495D01*
X161332085Y-97746391D01*
X161299212Y-97697231D01*
X161251390Y-97626248D01*
X161192148Y-97538678D01*
X161125015Y-97439757D01*
X161111741Y-97420230D01*
X161033846Y-97304540D01*
X160976587Y-97216444D01*
X160937681Y-97151886D01*
X160914844Y-97106811D01*
X160905794Y-97077163D01*
X160908248Y-97058885D01*
X160908311Y-97058769D01*
X160927627Y-97034761D01*
X160970351Y-96988347D01*
X161031851Y-96924337D01*
X161107498Y-96847545D01*
X161192661Y-96762782D01*
X161202265Y-96753322D01*
X161309590Y-96649389D01*
X161392415Y-96573075D01*
X161452405Y-96522971D01*
X161491223Y-96497670D01*
X161508320Y-96494404D01*
X161533273Y-96508650D01*
X161585055Y-96541556D01*
X161658320Y-96589608D01*
X161747720Y-96649290D01*
X161847911Y-96717088D01*
X161871301Y-96733039D01*
X162203393Y-96959820D01*
X162353365Y-96891753D01*
X162444570Y-96852085D01*
X162542469Y-96812191D01*
X162626631Y-96780383D01*
X162630338Y-96779074D01*
X162696169Y-96754976D01*
X162746916Y-96734600D01*
X162771642Y-96722336D01*
X162771684Y-96722301D01*
X162779529Y-96700134D01*
X162792866Y-96645617D01*
X162810370Y-96564880D01*
X162830717Y-96464050D01*
X162852582Y-96349256D01*
X162854371Y-96339578D01*
X162876304Y-96221304D01*
X162896440Y-96113942D01*
X162913480Y-96024317D01*
X162926128Y-95959251D01*
X162933084Y-95925568D01*
X162933206Y-95925054D01*
X162937439Y-95910725D01*
X162945671Y-95899907D01*
X162962833Y-95892106D01*
X162993858Y-95886829D01*
X163043678Y-95883582D01*
X163117224Y-95881872D01*
X163219429Y-95881207D01*
X163355225Y-95881093D01*
X163372800Y-95881092D01*
X163512678Y-95881176D01*
G37*
D12*
%TO.C,R12*%
X149630400Y-124790959D02*
X149630400Y-125098241D01*
X148870400Y-124790959D02*
X148870400Y-125098241D01*
%TO.C,U1*%
X143744900Y-96758800D02*
X142794900Y-96758800D01*
X142794900Y-96758800D02*
X142794900Y-95468800D01*
X133524900Y-96758800D02*
X134474900Y-96758800D01*
X143744900Y-97708800D02*
X143744900Y-96758800D01*
X133524900Y-97708800D02*
X133524900Y-96758800D01*
X143744900Y-106028800D02*
X143744900Y-106978800D01*
X133524900Y-106028800D02*
X133524900Y-106978800D01*
X143744900Y-106978800D02*
X142794900Y-106978800D01*
X133524900Y-106978800D02*
X134474900Y-106978800D01*
%TO.C,D10*%
X148552700Y-120524600D02*
X148552700Y-121994600D01*
X148552700Y-121994600D02*
X150837700Y-121994600D01*
X150837700Y-120524600D02*
X148552700Y-120524600D01*
%TO.C,R7*%
X146635200Y-133150041D02*
X146635200Y-132842759D01*
X147395200Y-133150041D02*
X147395200Y-132842759D01*
D11*
%TO.C,U7*%
X136885400Y-127524400D02*
X136885400Y-126949400D01*
X136885400Y-127524400D02*
X131135400Y-127524400D01*
X136885400Y-126949400D02*
X138485400Y-126949400D01*
X136885400Y-116874400D02*
X136885400Y-117524400D01*
X136885400Y-116874400D02*
X131135400Y-116874400D01*
X131135400Y-127524400D02*
X131135400Y-126874400D01*
X131135400Y-116874400D02*
X131135400Y-117524400D01*
D12*
%TO.C,R10*%
X143418041Y-128152400D02*
X143110759Y-128152400D01*
X143418041Y-127392400D02*
X143110759Y-127392400D01*
%TO.C,C18*%
X146359200Y-134839764D02*
X146359200Y-135055436D01*
X145639200Y-134839764D02*
X145639200Y-135055436D01*
%TO.C,C8*%
X147502200Y-102022964D02*
X147502200Y-102238636D01*
X146782200Y-102022964D02*
X146782200Y-102238636D01*
%TO.C,J4*%
X151240800Y-99872800D02*
X151240800Y-97272800D01*
X151240800Y-99872800D02*
X148580800Y-99872800D01*
X151240800Y-97272800D02*
X148580800Y-97272800D01*
X149910800Y-102472800D02*
X148580800Y-102472800D01*
X148580800Y-102472800D02*
X148580800Y-101142800D01*
X148580800Y-99872800D02*
X148580800Y-97272800D01*
%TO.C,R11*%
X148614400Y-124790959D02*
X148614400Y-125098241D01*
X147854400Y-124790959D02*
X147854400Y-125098241D01*
D15*
%TO.C,D8*%
X147065200Y-133862600D02*
G75*
G03*
X147065200Y-133862600I-50000J0D01*
G01*
D13*
%TO.C,R4*%
X145330600Y-89891000D02*
X145330600Y-91691000D01*
X141930600Y-91691000D02*
X141930600Y-89891000D01*
D14*
X145230600Y-88891000D02*
G75*
G03*
X145230600Y-88891000I-100000J0D01*
G01*
D12*
%TO.C,R16*%
X152807159Y-118263400D02*
X153114441Y-118263400D01*
X152807159Y-119023400D02*
X153114441Y-119023400D01*
%TO.C,C6*%
X130857164Y-102484600D02*
X131072836Y-102484600D01*
X130857164Y-103204600D02*
X131072836Y-103204600D01*
D13*
%TO.C,R3*%
X140263200Y-89891000D02*
X140263200Y-91691000D01*
X136863200Y-91691000D02*
X136863200Y-89891000D01*
D14*
X140163200Y-88891000D02*
G75*
G03*
X140163200Y-88891000I-100000J0D01*
G01*
D12*
%TO.C,C21*%
X142764564Y-108987000D02*
X142980236Y-108987000D01*
X142764564Y-109707000D02*
X142980236Y-109707000D01*
%TO.C,SW2*%
X156241800Y-112996800D02*
X156121800Y-112996800D01*
X155111800Y-112996800D02*
X153971800Y-112996800D01*
X152961800Y-112996800D02*
X152841800Y-112996800D01*
X152841800Y-112996800D02*
X152841800Y-117396800D01*
X156241800Y-117396800D02*
X156241800Y-112996800D01*
X156121800Y-117396800D02*
X156241800Y-117396800D01*
X153971800Y-117396800D02*
X155111800Y-117396800D01*
X152841800Y-117396800D02*
X152961800Y-117396800D01*
%TO.C,J2*%
X116457574Y-102488478D02*
X129072359Y-115103263D01*
X116457574Y-102488478D02*
X118338478Y-100607574D01*
X129072359Y-115103263D02*
X130953263Y-113222359D01*
X115559548Y-99709548D02*
X116500000Y-98769096D01*
X116500000Y-98769096D02*
X117440452Y-99709548D01*
X118338478Y-100607574D02*
X130953263Y-113222359D01*
%TO.C,R9*%
X143443441Y-129244600D02*
X143136159Y-129244600D01*
X143443441Y-128484600D02*
X143136159Y-128484600D01*
%TO.C,D13*%
X128334300Y-129694000D02*
X128334300Y-131164000D01*
X128334300Y-131164000D02*
X130619300Y-131164000D01*
X130619300Y-129694000D02*
X128334300Y-129694000D01*
%TO.C,C12*%
X128625548Y-103560200D02*
X130048052Y-103560200D01*
X128625548Y-105380200D02*
X130048052Y-105380200D01*
%TO.C,C40*%
X144583036Y-117936600D02*
X144367364Y-117936600D01*
X144583036Y-117216600D02*
X144367364Y-117216600D01*
%TD*%
D17*
X170357800Y-94183200D02*
X170357800Y-119557800D01*
X152374600Y-137541000D01*
X126949200Y-137541000D01*
X108991400Y-119583200D01*
X108991400Y-94208600D01*
X126974600Y-76225400D01*
X152400000Y-76225400D01*
X170357800Y-94183200D01*
M02*
