{
	"asset":{
		"generator":"Khronos glTF Blender I/O v3.5.30",
		"version":"2.0"
	},
	"scene":0,
	"scenes":[
		{
			"name":"Scene",
			"nodes":[
				0
			]
		}
	],
	"nodes":[
		{
			"mesh":0,
			"name":"Cylinder",
			"rotation":[
				-0.1092473641037941,
				-0.10479025542736053,
				-0.6842542886734009,
				0.7133584022521973
			]
		}
	],
	"materials":[
		{
			"doubleSided":true,
			"name":"Material.001",
			"pbrMetallicRoughness":{
				"metallicFactor":0,
				"roughnessFactor":0.5
			}
		}
	],
	"meshes":[
		{
			"name":"Cylinder",
			"primitives":[
				{
					"attributes":{
						"POSITION":0,
						"TEXCOORD_0":1,
						"NORMAL":2
					},
					"indices":3,
					"material":0
				}
			]
		}
	],
	"accessors":[
		{
			"bufferView":0,
			"componentType":5126,
			"count":122,
			"max":[
				0.9510565400123596,
				0.10983727872371674,
				1
			],
			"min":[
				-0.9510565400123596,
				-0.27779248356819153,
				-0.80901700258255
			],
			"type":"VEC3"
		},
		{
			"bufferView":1,
			"componentType":5126,
			"count":122,
			"type":"VEC2"
		},
		{
			"bufferView":2,
			"componentType":5126,
			"count":122,
			"type":"VEC3"
		},
		{
			"bufferView":3,
			"componentType":5123,
			"count":180,
			"type":"SCALAR"
		}
	],
	"bufferViews":[
		{
			"buffer":0,
			"byteLength":1464,
			"byteOffset":0,
			"target":34962
		},
		{
			"buffer":0,
			"byteLength":976,
			"byteOffset":1464,
			"target":34962
		},
		{
			"buffer":0,
			"byteLength":1464,
			"byteOffset":2440,
			"target":34962
		},
		{
			"buffer":0,
			"byteLength":360,
			"byteOffset":3904,
			"target":34963
		}
	],
	"buffers":[
		{
			"byteLength":4264,
			"uri":"plane.bin"
		}
	]
}
