%TF.GenerationSoftware,KiCad,Pcbnew,(7.0.0)*%
%TF.CreationDate,2023-03-06T19:23:03-05:00*%
%TF.ProjectId,cyton daisy,6379746f-6e20-4646-9169-73792e6b6963,rev?*%
%TF.SameCoordinates,Original*%
%TF.FileFunction,Copper,L4,Bot*%
%TF.FilePolarity,Positive*%
%FSLAX46Y46*%
G04 Gerber Fmt 4.6, Leading zero omitted, Abs format (unit mm)*
G04 Created by KiCad (PCBNEW (7.0.0)) date 2023-03-06 19:23:03*
%MOMM*%
%LPD*%
G01*
G04 APERTURE LIST*
G04 Aperture macros list*
%AMRoundRect*
0 Rectangle with rounded corners*
0 $1 Rounding radius*
0 $2 $3 $4 $5 $6 $7 $8 $9 X,Y pos of 4 corners*
0 Add a 4 corners polygon primitive as box body*
4,1,4,$2,$3,$4,$5,$6,$7,$8,$9,$2,$3,0*
0 Add four circle primitives for the rounded corners*
1,1,$1+$1,$2,$3*
1,1,$1+$1,$4,$5*
1,1,$1+$1,$6,$7*
1,1,$1+$1,$8,$9*
0 Add four rect primitives between the rounded corners*
20,1,$1+$1,$2,$3,$4,$5,0*
20,1,$1+$1,$4,$5,$6,$7,0*
20,1,$1+$1,$6,$7,$8,$9,0*
20,1,$1+$1,$8,$9,$2,$3,0*%
%AMHorizOval*
0 Thick line with rounded ends*
0 $1 width*
0 $2 $3 position (X,Y) of the first rounded end (center of the circle)*
0 $4 $5 position (X,Y) of the second rounded end (center of the circle)*
0 Add line between two ends*
20,1,$1,$2,$3,$4,$5,0*
0 Add two circle primitives to create the rounded ends*
1,1,$1,$2,$3*
1,1,$1,$4,$5*%
%AMRotRect*
0 Rectangle, with rotation*
0 The origin of the aperture is its center*
0 $1 length*
0 $2 width*
0 $3 Rotation angle, in degrees counterclockwise*
0 Add horizontal line*
21,1,$1,$2,0,0,$3*%
G04 Aperture macros list end*
%TA.AperFunction,SMDPad,CuDef*%
%ADD10RoundRect,0.140000X0.170000X-0.140000X0.170000X0.140000X-0.170000X0.140000X-0.170000X-0.140000X0*%
%TD*%
%TA.AperFunction,ComponentPad*%
%ADD11R,1.700000X1.700000*%
%TD*%
%TA.AperFunction,ComponentPad*%
%ADD12O,1.700000X1.700000*%
%TD*%
%TA.AperFunction,ComponentPad*%
%ADD13RotRect,1.700000X1.700000X45.000000*%
%TD*%
%TA.AperFunction,ComponentPad*%
%ADD14HorizOval,1.700000X0.000000X0.000000X0.000000X0.000000X0*%
%TD*%
%TA.AperFunction,SMDPad,CuDef*%
%ADD15RoundRect,0.140000X0.140000X0.170000X-0.140000X0.170000X-0.140000X-0.170000X0.140000X-0.170000X0*%
%TD*%
%TA.AperFunction,SMDPad,CuDef*%
%ADD16RoundRect,0.140000X-0.170000X0.140000X-0.170000X-0.140000X0.170000X-0.140000X0.170000X0.140000X0*%
%TD*%
%TA.AperFunction,SMDPad,CuDef*%
%ADD17RoundRect,0.010500X0.094500X-0.374500X0.094500X0.374500X-0.094500X0.374500X-0.094500X-0.374500X0*%
%TD*%
%TA.AperFunction,SMDPad,CuDef*%
%ADD18RoundRect,0.010500X-0.094500X0.374500X-0.094500X-0.374500X0.094500X-0.374500X0.094500X0.374500X0*%
%TD*%
%TA.AperFunction,SMDPad,CuDef*%
%ADD19R,0.850900X0.355600*%
%TD*%
%TA.AperFunction,SMDPad,CuDef*%
%ADD20RoundRect,0.135000X-0.135000X-0.185000X0.135000X-0.185000X0.135000X0.185000X-0.135000X0.185000X0*%
%TD*%
%TA.AperFunction,SMDPad,CuDef*%
%ADD21RoundRect,0.140000X-0.140000X-0.170000X0.140000X-0.170000X0.140000X0.170000X-0.140000X0.170000X0*%
%TD*%
%TA.AperFunction,ViaPad*%
%ADD22C,0.800000*%
%TD*%
%TA.AperFunction,Conductor*%
%ADD23C,0.250000*%
%TD*%
%TA.AperFunction,Conductor*%
%ADD24C,0.304800*%
%TD*%
%TA.AperFunction,Conductor*%
%ADD25C,0.203200*%
%TD*%
%TA.AperFunction,Conductor*%
%ADD26C,0.406400*%
%TD*%
%TA.AperFunction,Conductor*%
%ADD27C,0.558800*%
%TD*%
%TA.AperFunction,Profile*%
%ADD28C,0.101600*%
%TD*%
G04 APERTURE END LIST*
D10*
%TO.P,C27,1*%
%TO.N,VSSA*%
X142697200Y-100505200D03*
%TO.P,C27,2*%
%TO.N,Net-(U1-WCT)*%
X142697200Y-99545200D03*
%TD*%
D11*
%TO.P,J1,1,Pin_1*%
%TO.N,VSSA*%
X124663199Y-84988399D03*
D12*
%TO.P,J1,2,Pin_2*%
X124663199Y-82448399D03*
%TO.P,J1,3,Pin_3*%
%TO.N,/SRB1*%
X127203199Y-84988399D03*
%TO.P,J1,4,Pin_4*%
%TO.N,/SRB2*%
X127203199Y-82448399D03*
%TO.P,J1,5,Pin_5*%
%TO.N,/1P*%
X129743199Y-84988399D03*
%TO.P,J1,6,Pin_6*%
%TO.N,/1N*%
X129743199Y-82448399D03*
%TO.P,J1,7,Pin_7*%
%TO.N,/2P*%
X132283199Y-84988399D03*
%TO.P,J1,8,Pin_8*%
%TO.N,/2N*%
X132283199Y-82448399D03*
%TO.P,J1,9,Pin_9*%
%TO.N,/3P*%
X134823199Y-84988399D03*
%TO.P,J1,10,Pin_10*%
%TO.N,/3N*%
X134823199Y-82448399D03*
%TO.P,J1,11,Pin_11*%
%TO.N,/4P*%
X137363199Y-84988399D03*
%TO.P,J1,12,Pin_12*%
%TO.N,/4N*%
X137363199Y-82448399D03*
%TO.P,J1,13,Pin_13*%
%TO.N,/5P*%
X139903199Y-84988399D03*
%TO.P,J1,14,Pin_14*%
%TO.N,/5N*%
X139903199Y-82448399D03*
%TO.P,J1,15,Pin_15*%
%TO.N,/6P*%
X142443199Y-84988399D03*
%TO.P,J1,16,Pin_16*%
%TO.N,/6N*%
X142443199Y-82448399D03*
%TO.P,J1,17,Pin_17*%
%TO.N,/7P*%
X144983199Y-84988399D03*
%TO.P,J1,18,Pin_18*%
%TO.N,/7N*%
X144983199Y-82448399D03*
%TO.P,J1,19,Pin_19*%
%TO.N,/8P*%
X147523199Y-84988399D03*
%TO.P,J1,20,Pin_20*%
%TO.N,/8N*%
X147523199Y-82448399D03*
%TO.P,J1,21,Pin_21*%
%TO.N,/BIAS*%
X150063199Y-84988399D03*
%TO.P,J1,22,Pin_22*%
X150063199Y-82448399D03*
%TO.P,J1,23,Pin_23*%
%TO.N,GNDA*%
X152603199Y-84988399D03*
%TO.P,J1,24,Pin_24*%
X152603199Y-82448399D03*
%TO.P,J1,25,Pin_25*%
%TO.N,VDDA*%
X155143199Y-84988399D03*
%TO.P,J1,26,Pin_26*%
X155143199Y-82448399D03*
%TD*%
D11*
%TO.P,J4,1,Pin_1*%
%TO.N,GNDA*%
X149910799Y-101142799D03*
D12*
%TO.P,J4,2,Pin_2*%
%TO.N,/BIAS_INV*%
X149910799Y-98602799D03*
%TD*%
D13*
%TO.P,J2,1,Pin_1*%
%TO.N,VDD*%
X116499999Y-100649999D03*
D14*
%TO.P,J2,2,Pin_2*%
%TO.N,GNDA*%
X118296050Y-102446050D03*
%TO.P,J2,3,Pin_3*%
%TO.N,/MISO*%
X120092101Y-104242101D03*
%TO.P,J2,4,Pin_4*%
%TO.N,/SCLK*%
X121888153Y-106038153D03*
%TO.P,J2,5,Pin_5*%
%TO.N,/RESET*%
X123684204Y-107834204D03*
%TO.P,J2,6,Pin_6*%
%TO.N,/CLK*%
X125480255Y-109630255D03*
%TO.P,J2,7,Pin_7*%
%TO.N,/MOSI*%
X127276306Y-111426306D03*
%TO.P,J2,8,Pin_8*%
%TO.N,/CS2*%
X129072358Y-113222358D03*
%TD*%
D15*
%TO.P,C26,1*%
%TO.N,VDDA*%
X145818800Y-102260400D03*
%TO.P,C26,2*%
%TO.N,GNDA*%
X144858800Y-102260400D03*
%TD*%
D16*
%TO.P,C25,1*%
%TO.N,VDDA*%
X136093200Y-99136200D03*
%TO.P,C25,2*%
%TO.N,VSSA*%
X136093200Y-100096200D03*
%TD*%
D17*
%TO.P,C5,1*%
%TO.N,GNDA*%
X149543200Y-96405600D03*
%TO.P,C5,2*%
X149043200Y-96405600D03*
%TO.P,C5,3*%
X148543200Y-96405600D03*
%TO.P,C5,4*%
X148043200Y-96405600D03*
D18*
%TO.P,C5,5*%
%TO.N,/Daisy Functionality/IN8P*%
X148043200Y-94805600D03*
%TO.P,C5,6*%
%TO.N,/Daisy Functionality/IN8N*%
X148543200Y-94805600D03*
%TO.P,C5,7*%
%TO.N,GNDA*%
X149043200Y-94805600D03*
%TO.P,C5,8*%
%TO.N,/Daisy Functionality/BIAS_DRV*%
X149543200Y-94805600D03*
%TD*%
D17*
%TO.P,C4,1*%
%TO.N,GNDA*%
X144463200Y-96405600D03*
%TO.P,C4,2*%
X143963200Y-96405600D03*
%TO.P,C4,3*%
X143463200Y-96405600D03*
%TO.P,C4,4*%
X142963200Y-96405600D03*
D18*
%TO.P,C4,5*%
%TO.N,/Daisy Functionality/IN6P*%
X142963200Y-94805600D03*
%TO.P,C4,6*%
%TO.N,/Daisy Functionality/IN6N*%
X143463200Y-94805600D03*
%TO.P,C4,7*%
%TO.N,/Daisy Functionality/IN7P*%
X143963200Y-94805600D03*
%TO.P,C4,8*%
%TO.N,/Daisy Functionality/IN7N*%
X144463200Y-94805600D03*
%TD*%
D16*
%TO.P,C20,1*%
%TO.N,VDDA*%
X138252200Y-99136200D03*
%TO.P,C20,2*%
%TO.N,GNDA*%
X138252200Y-100096200D03*
%TD*%
D19*
%TO.P,D4,1,IO1*%
%TO.N,/7P*%
X144849849Y-87843600D03*
%TO.P,D4,2,IO2*%
%TO.N,/6N*%
X144849849Y-88493599D03*
%TO.P,D4,3,GND*%
%TO.N,GNDA*%
X144849849Y-89143598D03*
%TO.P,D4,4,IO3*%
%TO.N,/5N*%
X142576549Y-89143598D03*
%TO.P,D4,5,IO4*%
%TO.N,/6P*%
X142576549Y-88493599D03*
%TO.P,D4,6,NC*%
%TO.N,unconnected-(D4-NC-Pad6)*%
X142576549Y-87843600D03*
%TD*%
D20*
%TO.P,R13,1*%
%TO.N,Net-(U1-WCT)*%
X143889000Y-98501200D03*
%TO.P,R13,2*%
%TO.N,GNDA*%
X144909000Y-98501200D03*
%TD*%
D19*
%TO.P,D6,1,IO1*%
%TO.N,GNDA*%
X155009849Y-87843600D03*
%TO.P,D6,2,IO2*%
%TO.N,VDDA*%
X155009849Y-88493599D03*
%TO.P,D6,3,GND*%
%TO.N,GNDA*%
X155009849Y-89143598D03*
%TO.P,D6,4,IO3*%
%TO.N,/BIAS*%
X152736549Y-89143598D03*
%TO.P,D6,5,IO4*%
%TO.N,unconnected-(D6-IO4-Pad5)*%
X152736549Y-88493599D03*
%TO.P,D6,6,NC*%
%TO.N,unconnected-(D6-NC-Pad6)*%
X152736549Y-87843600D03*
%TD*%
D17*
%TO.P,C1,1*%
%TO.N,GNDA*%
X129223200Y-96405600D03*
%TO.P,C1,2*%
X128723200Y-96405600D03*
%TO.P,C1,3*%
X128223200Y-96405600D03*
%TO.P,C1,4*%
X127723200Y-96405600D03*
D18*
%TO.P,C1,5*%
%TO.N,/Daisy Functionality/_SRB1*%
X127723200Y-94805600D03*
%TO.P,C1,6*%
%TO.N,/Daisy Functionality/_SRB2*%
X128223200Y-94805600D03*
%TO.P,C1,7*%
%TO.N,/Daisy Functionality/IN1P*%
X128723200Y-94805600D03*
%TO.P,C1,8*%
%TO.N,/Daisy Functionality/IN1N*%
X129223200Y-94805600D03*
%TD*%
D21*
%TO.P,C9,1*%
%TO.N,VSSA*%
X134902000Y-104244200D03*
%TO.P,C9,2*%
%TO.N,GNDA*%
X135862000Y-104244200D03*
%TD*%
D19*
%TO.P,D3,1,IO1*%
%TO.N,/5P*%
X139769849Y-87843600D03*
%TO.P,D3,2,IO2*%
%TO.N,/4N*%
X139769849Y-88493599D03*
%TO.P,D3,3,GND*%
%TO.N,GNDA*%
X139769849Y-89143598D03*
%TO.P,D3,4,IO3*%
%TO.N,/3N*%
X137496549Y-89143598D03*
%TO.P,D3,5,IO4*%
%TO.N,/4P*%
X137496549Y-88493599D03*
%TO.P,D3,6,NC*%
%TO.N,unconnected-(D3-NC-Pad6)*%
X137496549Y-87843600D03*
%TD*%
D16*
%TO.P,C23,1*%
%TO.N,VDDA*%
X137160000Y-99136200D03*
%TO.P,C23,2*%
%TO.N,VSSA*%
X137160000Y-100096200D03*
%TD*%
D17*
%TO.P,C3,1*%
%TO.N,GNDA*%
X139383200Y-96391300D03*
%TO.P,C3,2*%
X138883200Y-96391300D03*
%TO.P,C3,3*%
X138383200Y-96391300D03*
%TO.P,C3,4*%
X137883200Y-96391300D03*
D18*
%TO.P,C3,5*%
%TO.N,/Daisy Functionality/IN4P*%
X137883200Y-94791300D03*
%TO.P,C3,6*%
%TO.N,/Daisy Functionality/IN4N*%
X138383200Y-94791300D03*
%TO.P,C3,7*%
%TO.N,/Daisy Functionality/IN5P*%
X138883200Y-94791300D03*
%TO.P,C3,8*%
%TO.N,/Daisy Functionality/IN5N*%
X139383200Y-94791300D03*
%TD*%
D15*
%TO.P,C24,1*%
%TO.N,VDDA*%
X145818800Y-101244400D03*
%TO.P,C24,2*%
%TO.N,GNDA*%
X144858800Y-101244400D03*
%TD*%
D19*
%TO.P,D1,1,IO1*%
%TO.N,/1P*%
X129609849Y-87843600D03*
%TO.P,D1,2,IO2*%
%TO.N,/SRB2*%
X129609849Y-88493599D03*
%TO.P,D1,3,GND*%
%TO.N,GNDA*%
X129609849Y-89143598D03*
%TO.P,D1,4,IO3*%
%TO.N,VSSA*%
X127336549Y-89143598D03*
%TO.P,D1,5,IO4*%
%TO.N,/SRB1*%
X127336549Y-88493599D03*
%TO.P,D1,6,NC*%
%TO.N,unconnected-(D1-NC-Pad6)*%
X127336549Y-87843600D03*
%TD*%
D17*
%TO.P,C2,1*%
%TO.N,GNDA*%
X134303200Y-96380200D03*
%TO.P,C2,2*%
X133803200Y-96380200D03*
%TO.P,C2,3*%
X133303200Y-96380200D03*
%TO.P,C2,4*%
X132803200Y-96380200D03*
D18*
%TO.P,C2,5*%
%TO.N,/Daisy Functionality/IN2P*%
X132803200Y-94780200D03*
%TO.P,C2,6*%
%TO.N,/Daisy Functionality/IN2N*%
X133303200Y-94780200D03*
%TO.P,C2,7*%
%TO.N,/Daisy Functionality/IN3P*%
X133803200Y-94780200D03*
%TO.P,C2,8*%
%TO.N,/Daisy Functionality/IN3N*%
X134303200Y-94780200D03*
%TD*%
D16*
%TO.P,C22,1*%
%TO.N,VDDA*%
X139344400Y-99136200D03*
%TO.P,C22,2*%
%TO.N,GNDA*%
X139344400Y-100096200D03*
%TD*%
D19*
%TO.P,D2,1,IO1*%
%TO.N,/3P*%
X134689849Y-87843600D03*
%TO.P,D2,2,IO2*%
%TO.N,/2N*%
X134689849Y-88493599D03*
%TO.P,D2,3,GND*%
%TO.N,GNDA*%
X134689849Y-89143598D03*
%TO.P,D2,4,IO3*%
%TO.N,/1N*%
X132416549Y-89143598D03*
%TO.P,D2,5,IO4*%
%TO.N,/2P*%
X132416549Y-88493599D03*
%TO.P,D2,6,NC*%
%TO.N,unconnected-(D2-NC-Pad6)*%
X132416549Y-87843600D03*
%TD*%
D21*
%TO.P,C7,1*%
%TO.N,VSSA*%
X134952800Y-103047800D03*
%TO.P,C7,2*%
%TO.N,GNDA*%
X135912800Y-103047800D03*
%TD*%
D19*
%TO.P,D5,1,IO1*%
%TO.N,unconnected-(D5-IO1-Pad1)*%
X149929849Y-87843600D03*
%TO.P,D5,2,IO2*%
%TO.N,/8N*%
X149929849Y-88493599D03*
%TO.P,D5,3,GND*%
%TO.N,GNDA*%
X149929849Y-89143598D03*
%TO.P,D5,4,IO3*%
%TO.N,/7N*%
X147656549Y-89143598D03*
%TO.P,D5,5,IO4*%
%TO.N,/8P*%
X147656549Y-88493599D03*
%TO.P,D5,6,NC*%
%TO.N,unconnected-(D5-NC-Pad6)*%
X147656549Y-87843600D03*
%TD*%
D22*
%TO.N,/Daisy Functionality/_SRB1*%
X127003697Y-93167200D03*
%TO.N,/Daisy Functionality/_SRB2*%
X128003200Y-93167200D03*
%TO.N,/Daisy Functionality/IN1P*%
X129070100Y-93103700D03*
%TO.N,/Daisy Functionality/IN1N*%
X130086327Y-93130684D03*
%TO.N,/Daisy Functionality/IN2P*%
X132096905Y-92986254D03*
%TO.N,/Daisy Functionality/IN2N*%
X133096000Y-93014800D03*
%TO.N,/Daisy Functionality/IN3P*%
X134094731Y-92842500D03*
%TO.N,/Daisy Functionality/IN3N*%
X135275931Y-92594901D03*
%TO.N,/Daisy Functionality/IN4P*%
X137083800Y-92862400D03*
%TO.N,/Daisy Functionality/IN4N*%
X138081846Y-92916348D03*
%TO.N,/Daisy Functionality/IN5P*%
X139081343Y-92913148D03*
%TO.N,/Daisy Functionality/IN5N*%
X140080845Y-92913206D03*
%TO.N,/Daisy Functionality/IN6P*%
X141851353Y-92913928D03*
%TO.N,/Daisy Functionality/IN6N*%
X142849600Y-92964000D03*
%TO.N,/Daisy Functionality/IN7P*%
X144030600Y-93015374D03*
%TO.N,/Daisy Functionality/IN7N*%
X145237200Y-93065600D03*
%TO.N,/Daisy Functionality/IN8P*%
X147243800Y-92913200D03*
%TO.N,/Daisy Functionality/IN8N*%
X148259800Y-92964000D03*
%TO.N,/Daisy Functionality/BIAS_DRV*%
X149923200Y-93027800D03*
%TO.N,VSSA*%
X134950200Y-101803200D03*
X134950200Y-105486200D03*
X142697200Y-101650800D03*
%TO.N,VDD*%
X135509000Y-109601000D03*
X142392400Y-111785400D03*
%TO.N,VDDA*%
X141198600Y-99136200D03*
X134747000Y-99136200D03*
X145810700Y-103461822D03*
%TO.N,Net-(U1-WCT)*%
X142697200Y-98501200D03*
%TO.N,/SCLK*%
X131622800Y-114385100D03*
%TO.N,/RESET*%
X134975600Y-110845600D03*
%TO.N,/MISO*%
X132486400Y-115138200D03*
%TD*%
D23*
%TO.N,/MISO*%
X132486400Y-115138200D02*
X132435600Y-115087400D01*
X132435600Y-115087400D02*
X127457200Y-115087400D01*
X127457200Y-115087400D02*
X120092102Y-107722302D01*
X120092102Y-107722302D02*
X120092102Y-104242102D01*
%TO.N,/SCLK*%
X131622800Y-114385100D02*
X131555500Y-114452400D01*
X131555500Y-114452400D02*
X127685800Y-114452400D01*
X127685800Y-114452400D02*
X121888154Y-108654754D01*
X121888154Y-108654754D02*
X121888154Y-106038154D01*
%TO.N,Net-(U1-WCT)*%
X142697200Y-99545200D02*
X142697200Y-98501200D01*
D24*
%TO.N,VSSA*%
X142697200Y-101650800D02*
X142697200Y-100505200D01*
D23*
%TO.N,VDDA*%
X145818800Y-102260400D02*
X145818800Y-103453722D01*
X145818800Y-103453722D02*
X145810700Y-103461822D01*
D25*
%TO.N,GNDA*%
X137883200Y-96391300D02*
X137883200Y-97548000D01*
X139383200Y-96391300D02*
X140155500Y-96391300D01*
X139383200Y-96391300D02*
X139383200Y-97522600D01*
X148043200Y-96405600D02*
X148043200Y-97524000D01*
X149543200Y-96405600D02*
X150329800Y-96405600D01*
X149043200Y-96405600D02*
X149043200Y-97540000D01*
X128723200Y-96405600D02*
X128723200Y-97557400D01*
X134303200Y-96380200D02*
X135216800Y-96380200D01*
X149043200Y-97540000D02*
X148793200Y-97790000D01*
X128223200Y-96405600D02*
X128223200Y-97489200D01*
X127723200Y-96405600D02*
X126784000Y-96405600D01*
X138383200Y-96391300D02*
X138383200Y-97514600D01*
X142963200Y-96405600D02*
X142963200Y-97524000D01*
X137883200Y-96391300D02*
X137060100Y-96391300D01*
X148043200Y-96405600D02*
X147281800Y-96405600D01*
X133303200Y-96380200D02*
X133303200Y-97590800D01*
X132803200Y-96380200D02*
X132803200Y-97598800D01*
X143963200Y-96405600D02*
X143963200Y-97413000D01*
X149543200Y-96405600D02*
X149543200Y-97370200D01*
X129223200Y-96405600D02*
X130162200Y-96405600D01*
X144463200Y-96405600D02*
X144463200Y-97549400D01*
X132803200Y-96380200D02*
X131889400Y-96380200D01*
X133803200Y-96380200D02*
X133803200Y-97582800D01*
X148793200Y-97790000D02*
X148543200Y-97540000D01*
X127723200Y-96405600D02*
X127723200Y-97497200D01*
X129223200Y-96405600D02*
X129223200Y-97498600D01*
X134303200Y-96380200D02*
X134303200Y-97549400D01*
X142963200Y-96405600D02*
X142100200Y-96405600D01*
X148543200Y-97540000D02*
X148543200Y-96405600D01*
X143463200Y-96405600D02*
X143463200Y-97481200D01*
X149043200Y-94805600D02*
X149043200Y-96405600D01*
X144463200Y-96405600D02*
X145376800Y-96405600D01*
X138883200Y-96391300D02*
X138883200Y-97540000D01*
%TO.N,/Daisy Functionality/_SRB1*%
X127723200Y-93966600D02*
X127723200Y-94805600D01*
X127003697Y-93167200D02*
X127003697Y-93247097D01*
X127003697Y-93247097D02*
X127723200Y-93966600D01*
%TO.N,/Daisy Functionality/_SRB2*%
X128223200Y-94805600D02*
X128223200Y-93387200D01*
X128223200Y-93387200D02*
X128003200Y-93167200D01*
%TO.N,/Daisy Functionality/IN1P*%
X129070100Y-93103700D02*
X128723200Y-93450600D01*
X128723200Y-93450600D02*
X128723200Y-94805600D01*
%TO.N,/Daisy Functionality/IN1N*%
X129223200Y-94805600D02*
X129223200Y-93993811D01*
X129223200Y-93993811D02*
X130086327Y-93130684D01*
%TO.N,/Daisy Functionality/IN2P*%
X132096905Y-93565105D02*
X132096905Y-92986254D01*
X132803200Y-94780200D02*
X132803200Y-94271400D01*
X132803200Y-94271400D02*
X132096905Y-93565105D01*
%TO.N,/Daisy Functionality/IN2N*%
X133303200Y-93958600D02*
X133303200Y-94780200D01*
X133096000Y-93014800D02*
X133096000Y-93751400D01*
X133096000Y-93751400D02*
X133303200Y-93958600D01*
%TO.N,/Daisy Functionality/IN3P*%
X133803200Y-93958600D02*
X134094731Y-93667069D01*
X134094731Y-93667069D02*
X134094731Y-92842500D01*
X133803200Y-94780200D02*
X133803200Y-93958600D01*
%TO.N,/Daisy Functionality/IN3N*%
X135275931Y-93070069D02*
X135275931Y-92594901D01*
X134303200Y-94780200D02*
X134303200Y-94042800D01*
X134303200Y-94042800D02*
X135275931Y-93070069D01*
%TO.N,/Daisy Functionality/IN4P*%
X137883200Y-94144400D02*
X137083800Y-93345000D01*
X137083800Y-93345000D02*
X137083800Y-92862400D01*
X137883200Y-94791300D02*
X137883200Y-94144400D01*
%TO.N,/Daisy Functionality/IN4N*%
X138081846Y-93581046D02*
X138081846Y-92916348D01*
X138383200Y-93882400D02*
X138081846Y-93581046D01*
X138383200Y-94791300D02*
X138383200Y-93882400D01*
%TO.N,/Daisy Functionality/IN5P*%
X138883200Y-94791300D02*
X138883200Y-93857000D01*
X139081343Y-93658857D02*
X139081343Y-92913148D01*
X138883200Y-93857000D02*
X139081343Y-93658857D01*
%TO.N,/Daisy Functionality/IN5N*%
X139383200Y-94791300D02*
X139383200Y-93941200D01*
X140080845Y-93243555D02*
X140080845Y-92913206D01*
X139383200Y-93941200D02*
X140080845Y-93243555D01*
%TO.N,/Daisy Functionality/IN6P*%
X142963200Y-94347600D02*
X141851353Y-93235753D01*
X141851353Y-93235753D02*
X141851353Y-92913928D01*
X142963200Y-94805600D02*
X142963200Y-94347600D01*
%TO.N,/Daisy Functionality/IN6N*%
X142849600Y-93379224D02*
X142849600Y-92964000D01*
X143463200Y-93992824D02*
X142849600Y-93379224D01*
X143463200Y-94805600D02*
X143463200Y-93992824D01*
%TO.N,/Daisy Functionality/IN7P*%
X143963200Y-93082774D02*
X144030600Y-93015374D01*
X143963200Y-94805600D02*
X143963200Y-93082774D01*
%TO.N,/Daisy Functionality/IN7N*%
X144463200Y-94805600D02*
X144463200Y-93839600D01*
X144463200Y-93839600D02*
X145237200Y-93065600D01*
%TO.N,/Daisy Functionality/IN8P*%
X147243800Y-93497400D02*
X147243800Y-92913200D01*
X148043200Y-94296800D02*
X147243800Y-93497400D01*
X148043200Y-94805600D02*
X148043200Y-94296800D01*
%TO.N,/Daisy Functionality/IN8N*%
X148543200Y-94805600D02*
X148543200Y-93704600D01*
X148259800Y-93421200D02*
X148259800Y-92964000D01*
X148543200Y-93704600D02*
X148259800Y-93421200D01*
%TO.N,/Daisy Functionality/BIAS_DRV*%
X149923200Y-93027800D02*
X149923200Y-93739000D01*
X149543200Y-94119000D02*
X149543200Y-94805600D01*
X149923200Y-93739000D02*
X149543200Y-94119000D01*
D26*
%TO.N,VSSA*%
X134950200Y-105486200D02*
X134950200Y-104742400D01*
X135915400Y-101803200D02*
X137160000Y-100558600D01*
X136093200Y-100096200D02*
X136093200Y-101625400D01*
X137160000Y-100558600D02*
X137160000Y-100096200D01*
X134952800Y-104739800D02*
X134952800Y-103047800D01*
D23*
X134950200Y-104742400D02*
X134952800Y-104739800D01*
D25*
X126176799Y-89143599D02*
X127336550Y-89143599D01*
D23*
X134952800Y-104193400D02*
X134902000Y-104244200D01*
D25*
X124663200Y-84988400D02*
X124663200Y-87630000D01*
D26*
X134950200Y-101803200D02*
X135915400Y-101803200D01*
X136093200Y-101625400D02*
X135915400Y-101803200D01*
D25*
X124663200Y-87630000D02*
X126176799Y-89143599D01*
D26*
X134952800Y-103047800D02*
X134952800Y-104193400D01*
D27*
%TO.N,VDDA*%
X136093200Y-99136200D02*
X134747000Y-99136200D01*
X137160000Y-99136200D02*
X136093200Y-99136200D01*
D25*
X155143200Y-84988400D02*
X156413200Y-86258400D01*
X155613101Y-88493600D02*
X155009850Y-88493600D01*
D27*
X139344400Y-99136200D02*
X138252200Y-99136200D01*
D25*
X156413200Y-86258400D02*
X156413200Y-87693501D01*
D27*
X138252200Y-99136200D02*
X137160000Y-99136200D01*
D23*
X145818800Y-101244400D02*
X145818800Y-102260400D01*
D25*
X156413200Y-87693501D02*
X155613101Y-88493600D01*
D27*
X139344400Y-99136200D02*
X141198600Y-99136200D01*
D23*
%TO.N,Net-(U1-WCT)*%
X142697200Y-98501200D02*
X143889000Y-98501200D01*
D25*
%TO.N,/1P*%
X129609850Y-85121750D02*
X129743200Y-84988400D01*
X129609850Y-87843601D02*
X129609850Y-85121750D01*
%TO.N,/SRB2*%
X129006599Y-88493600D02*
X129609850Y-88493600D01*
X128568200Y-88055201D02*
X129006599Y-88493600D01*
X128568200Y-83813400D02*
X128568200Y-88055201D01*
X127203200Y-82448400D02*
X128568200Y-83813400D01*
%TO.N,/3P*%
X134689850Y-85121750D02*
X134823200Y-84988400D01*
X134689850Y-87843601D02*
X134689850Y-85121750D01*
%TO.N,/2N*%
X133553200Y-87982400D02*
X133553200Y-83718400D01*
X134064400Y-88493600D02*
X133553200Y-87982400D01*
X133553200Y-83718400D02*
X132283200Y-82448400D01*
X134689850Y-88493600D02*
X134064400Y-88493600D01*
%TO.N,/1N*%
X131013200Y-83743800D02*
X129743200Y-82473800D01*
X132416550Y-89143599D02*
X131536199Y-89143599D01*
X131536199Y-89143599D02*
X131013200Y-88620600D01*
X131013200Y-88620600D02*
X131013200Y-83743800D01*
X129743200Y-82473800D02*
X129743200Y-82448400D01*
%TO.N,/2P*%
X132416550Y-88493600D02*
X131860099Y-88493600D01*
X131470400Y-85801200D02*
X132283200Y-84988400D01*
X131470400Y-88103901D02*
X131470400Y-85801200D01*
X131860099Y-88493600D02*
X131470400Y-88103901D01*
%TO.N,/5P*%
X139769850Y-85121750D02*
X139903200Y-84988400D01*
X139769850Y-87843601D02*
X139769850Y-85121750D01*
%TO.N,/4N*%
X138658600Y-83743800D02*
X137363200Y-82448400D01*
X139216599Y-88493600D02*
X138658600Y-87935601D01*
X139769850Y-88493600D02*
X139216599Y-88493600D01*
X138658600Y-87935601D02*
X138658600Y-83743800D01*
%TO.N,/3N*%
X136093200Y-83718400D02*
X136093200Y-88468200D01*
X136093200Y-88468200D02*
X136768599Y-89143599D01*
X136768599Y-89143599D02*
X137496550Y-89143599D01*
X134823200Y-82448400D02*
X136093200Y-83718400D01*
%TO.N,/4P*%
X136575800Y-88198300D02*
X136575800Y-85775800D01*
X136575800Y-85775800D02*
X137363200Y-84988400D01*
X136871100Y-88493600D02*
X136575800Y-88198300D01*
X137496550Y-88493600D02*
X136871100Y-88493600D01*
%TO.N,/7P*%
X144849850Y-85121750D02*
X144983200Y-84988400D01*
X144849850Y-87843601D02*
X144849850Y-85121750D01*
%TO.N,/6N*%
X143713200Y-83718400D02*
X143713200Y-88239600D01*
X143713200Y-88239600D02*
X143967200Y-88493600D01*
X142443200Y-82448400D02*
X143713200Y-83718400D01*
X143967200Y-88493600D02*
X144849850Y-88493600D01*
%TO.N,/5N*%
X142576550Y-89143599D02*
X141951100Y-89143599D01*
X141173200Y-88365699D02*
X141173200Y-83718400D01*
X141951100Y-89143599D02*
X141173200Y-88365699D01*
X141173200Y-83718400D02*
X139903200Y-82448400D01*
%TO.N,/6P*%
X141583493Y-88210306D02*
X141583493Y-85848107D01*
X141866787Y-88493600D02*
X141583493Y-88210306D01*
X141583493Y-85848107D02*
X142443200Y-84988400D01*
X142576550Y-88493600D02*
X141866787Y-88493600D01*
%TO.N,/8N*%
X148793200Y-83718400D02*
X147523200Y-82448400D01*
X149304400Y-88493600D02*
X148793200Y-87982400D01*
X148793200Y-87982400D02*
X148793200Y-83718400D01*
X149929850Y-88493600D02*
X149304400Y-88493600D01*
%TO.N,/7N*%
X144983200Y-82448400D02*
X146227800Y-83693000D01*
X146227800Y-88340299D02*
X147031100Y-89143599D01*
X146227800Y-83693000D02*
X146227800Y-88340299D01*
X147031100Y-89143599D02*
X147656550Y-89143599D01*
%TO.N,/8P*%
X147031100Y-88493600D02*
X146735800Y-88198300D01*
X146735800Y-85775800D02*
X147523200Y-84988400D01*
X147656550Y-88493600D02*
X147031100Y-88493600D01*
X146735800Y-88198300D02*
X146735800Y-85775800D01*
%TO.N,/BIAS*%
X152061100Y-89143599D02*
X152736550Y-89143599D01*
X151333200Y-86258400D02*
X151333200Y-88415699D01*
X151333200Y-88415699D02*
X152061100Y-89143599D01*
X150063200Y-84988400D02*
X151333200Y-86258400D01*
D23*
%TO.N,/RESET*%
X129133600Y-110845600D02*
X126122205Y-107834205D01*
X134975600Y-110845600D02*
X129133600Y-110845600D01*
X126122205Y-107834205D02*
X123684205Y-107834205D01*
D25*
%TO.N,/SRB1*%
X126136400Y-86055200D02*
X127203200Y-84988400D01*
X127336550Y-88493600D02*
X126733299Y-88493600D01*
X126733299Y-88493600D02*
X126136400Y-87896701D01*
X126136400Y-87896701D02*
X126136400Y-86055200D01*
%TD*%
%TA.AperFunction,Conductor*%
%TO.N,GNDA*%
G36*
X152395820Y-76235491D02*
G01*
X152436697Y-76262805D01*
X162114950Y-85941058D01*
X162147562Y-85997542D01*
X162147562Y-86062764D01*
X162114950Y-86119248D01*
X151722975Y-96511224D01*
X151722972Y-96511227D01*
X151714200Y-96520000D01*
X151714200Y-96532410D01*
X151714200Y-105130842D01*
X151705137Y-105177764D01*
X151679253Y-105217934D01*
X151430484Y-105478012D01*
X150633814Y-106310894D01*
X150592269Y-106339666D01*
X150542761Y-106349800D01*
X133832600Y-106349800D01*
X133832600Y-106366390D01*
X133832600Y-107341400D01*
X133815719Y-107404400D01*
X133769600Y-107450519D01*
X133706600Y-107467400D01*
X127712590Y-107467400D01*
X127664372Y-107457809D01*
X127623495Y-107430495D01*
X123988905Y-103795905D01*
X123961591Y-103755028D01*
X123952000Y-103706810D01*
X123952000Y-99136200D01*
X134163710Y-99136200D01*
X134164788Y-99144388D01*
X134182506Y-99278978D01*
X134182507Y-99278984D01*
X134183585Y-99287167D01*
X134186744Y-99294795D01*
X134186745Y-99294796D01*
X134238695Y-99420215D01*
X134238696Y-99420218D01*
X134241856Y-99427845D01*
X134246883Y-99434396D01*
X134246884Y-99434398D01*
X134270255Y-99464855D01*
X134334552Y-99548648D01*
X134341102Y-99553674D01*
X134447698Y-99635469D01*
X134455355Y-99641344D01*
X134596033Y-99699615D01*
X134747000Y-99719490D01*
X134897967Y-99699615D01*
X135038645Y-99641344D01*
X135066545Y-99619935D01*
X135102745Y-99600587D01*
X135143246Y-99593900D01*
X135543158Y-99593900D01*
X135603763Y-99609432D01*
X135649425Y-99652200D01*
X135668888Y-99711660D01*
X135657353Y-99773148D01*
X135643445Y-99802973D01*
X135615077Y-99863809D01*
X135615075Y-99863812D01*
X135611003Y-99872547D01*
X135609744Y-99882102D01*
X135609744Y-99882106D01*
X135605438Y-99914816D01*
X135604900Y-99918904D01*
X135604900Y-100273496D01*
X135611003Y-100319853D01*
X135658442Y-100421586D01*
X135666240Y-100429384D01*
X135674795Y-100437939D01*
X135702109Y-100478816D01*
X135711700Y-100527034D01*
X135711700Y-101295700D01*
X135694819Y-101358700D01*
X135648700Y-101404819D01*
X135585700Y-101421700D01*
X135444262Y-101421700D01*
X135396044Y-101412109D01*
X135363134Y-101390118D01*
X135362648Y-101390752D01*
X135248398Y-101303084D01*
X135248396Y-101303083D01*
X135241845Y-101298056D01*
X135234218Y-101294896D01*
X135234215Y-101294895D01*
X135108796Y-101242945D01*
X135108795Y-101242944D01*
X135101167Y-101239785D01*
X135092984Y-101238707D01*
X135092978Y-101238706D01*
X134958388Y-101220988D01*
X134950200Y-101219910D01*
X134942012Y-101220988D01*
X134807421Y-101238706D01*
X134807413Y-101238708D01*
X134799233Y-101239785D01*
X134791606Y-101242944D01*
X134791603Y-101242945D01*
X134666184Y-101294895D01*
X134666178Y-101294898D01*
X134658555Y-101298056D01*
X134652006Y-101303080D01*
X134652001Y-101303084D01*
X134544302Y-101385725D01*
X134544297Y-101385729D01*
X134537752Y-101390752D01*
X134532729Y-101397297D01*
X134532725Y-101397302D01*
X134450084Y-101505001D01*
X134450080Y-101505006D01*
X134445056Y-101511555D01*
X134441898Y-101519178D01*
X134441895Y-101519184D01*
X134408509Y-101599786D01*
X134386785Y-101652233D01*
X134385708Y-101660413D01*
X134385706Y-101660421D01*
X134381884Y-101689457D01*
X134366910Y-101803200D01*
X134367988Y-101811388D01*
X134385706Y-101945978D01*
X134385707Y-101945984D01*
X134386785Y-101954167D01*
X134389944Y-101961795D01*
X134389945Y-101961796D01*
X134441895Y-102087215D01*
X134441896Y-102087218D01*
X134445056Y-102094845D01*
X134450083Y-102101396D01*
X134450084Y-102101398D01*
X134517799Y-102189645D01*
X134537752Y-102215648D01*
X134658555Y-102308344D01*
X134723546Y-102335264D01*
X134770421Y-102369009D01*
X134797315Y-102420125D01*
X134798575Y-102477870D01*
X134773937Y-102530110D01*
X134728578Y-102565868D01*
X134637406Y-102608382D01*
X134637403Y-102608383D01*
X134627414Y-102613042D01*
X134619618Y-102620837D01*
X134619615Y-102620840D01*
X134555840Y-102684615D01*
X134555837Y-102684618D01*
X134548042Y-102692414D01*
X134543383Y-102702403D01*
X134543382Y-102702406D01*
X134504677Y-102785409D01*
X134504675Y-102785412D01*
X134500603Y-102794147D01*
X134499344Y-102803702D01*
X134499344Y-102803706D01*
X134495038Y-102836416D01*
X134494500Y-102840504D01*
X134494500Y-103255096D01*
X134500603Y-103301453D01*
X134504676Y-103310189D01*
X134504677Y-103310190D01*
X134543383Y-103393196D01*
X134543384Y-103393198D01*
X134548042Y-103403186D01*
X134551563Y-103406707D01*
X134565468Y-103434902D01*
X134571300Y-103472792D01*
X134571300Y-103762566D01*
X134561709Y-103810784D01*
X134534395Y-103851661D01*
X134505040Y-103881015D01*
X134505037Y-103881018D01*
X134497242Y-103888814D01*
X134492583Y-103898803D01*
X134492582Y-103898806D01*
X134453877Y-103981809D01*
X134453875Y-103981812D01*
X134449803Y-103990547D01*
X134448544Y-104000102D01*
X134448544Y-104000106D01*
X134445652Y-104022076D01*
X134443700Y-104036904D01*
X134443700Y-104451496D01*
X134449803Y-104497853D01*
X134453876Y-104506589D01*
X134453877Y-104506590D01*
X134453878Y-104506593D01*
X134497242Y-104599586D01*
X134505040Y-104607384D01*
X134531795Y-104634139D01*
X134559109Y-104675016D01*
X134568700Y-104723234D01*
X134568700Y-104992138D01*
X134559109Y-105040356D01*
X134537118Y-105073265D01*
X134537752Y-105073752D01*
X134450084Y-105188001D01*
X134450080Y-105188006D01*
X134445056Y-105194555D01*
X134441898Y-105202178D01*
X134441895Y-105202184D01*
X134389945Y-105327603D01*
X134386785Y-105335233D01*
X134385708Y-105343413D01*
X134385706Y-105343421D01*
X134369820Y-105464097D01*
X134366910Y-105486200D01*
X134367988Y-105494388D01*
X134385706Y-105628978D01*
X134385707Y-105628984D01*
X134386785Y-105637167D01*
X134389944Y-105644795D01*
X134389945Y-105644796D01*
X134441895Y-105770215D01*
X134441896Y-105770218D01*
X134445056Y-105777845D01*
X134537752Y-105898648D01*
X134658555Y-105991344D01*
X134799233Y-106049615D01*
X134950200Y-106069490D01*
X135101167Y-106049615D01*
X135241845Y-105991344D01*
X135362648Y-105898648D01*
X135455344Y-105777845D01*
X135513615Y-105637167D01*
X135533490Y-105486200D01*
X135513615Y-105335233D01*
X135455344Y-105194555D01*
X135443420Y-105179016D01*
X135362648Y-105073752D01*
X135363281Y-105073265D01*
X135341291Y-105040356D01*
X135331700Y-104992138D01*
X135331700Y-104819041D01*
X135332574Y-104808485D01*
X135334300Y-104803461D01*
X135334300Y-104568456D01*
X135346106Y-104515205D01*
X135350121Y-104506593D01*
X135354197Y-104497853D01*
X135360300Y-104451496D01*
X135360300Y-104036904D01*
X135354197Y-103990547D01*
X135346106Y-103973195D01*
X135334300Y-103919944D01*
X135334300Y-103472792D01*
X135335988Y-103461822D01*
X145227410Y-103461822D01*
X145228488Y-103470010D01*
X145246206Y-103604600D01*
X145246207Y-103604606D01*
X145247285Y-103612789D01*
X145250444Y-103620417D01*
X145250445Y-103620418D01*
X145302395Y-103745837D01*
X145302396Y-103745840D01*
X145305556Y-103753467D01*
X145398252Y-103874270D01*
X145519055Y-103966966D01*
X145659733Y-104025237D01*
X145810700Y-104045112D01*
X145961667Y-104025237D01*
X146102345Y-103966966D01*
X146223148Y-103874270D01*
X146315844Y-103753467D01*
X146374115Y-103612789D01*
X146393990Y-103461822D01*
X146374115Y-103310855D01*
X146315844Y-103170177D01*
X146223148Y-103049374D01*
X146171396Y-103009663D01*
X146135094Y-102965429D01*
X146122100Y-102909701D01*
X146122100Y-102769434D01*
X146131691Y-102721216D01*
X146159005Y-102680339D01*
X146159004Y-102680339D01*
X146223558Y-102615786D01*
X146270997Y-102514053D01*
X146277100Y-102467696D01*
X146277100Y-102053104D01*
X146270997Y-102006747D01*
X146223558Y-101905014D01*
X146160039Y-101841495D01*
X146127427Y-101785011D01*
X146127427Y-101719789D01*
X146160039Y-101663305D01*
X146180732Y-101642612D01*
X146223558Y-101599786D01*
X146270997Y-101498053D01*
X146277100Y-101451696D01*
X146277100Y-101037104D01*
X146270997Y-100990747D01*
X146223558Y-100889014D01*
X146144186Y-100809642D01*
X146095008Y-100786710D01*
X146051190Y-100766277D01*
X146051189Y-100766276D01*
X146042453Y-100762203D01*
X146032895Y-100760944D01*
X146032893Y-100760944D01*
X146000183Y-100756638D01*
X146000182Y-100756637D01*
X145996096Y-100756100D01*
X145641504Y-100756100D01*
X145637418Y-100756637D01*
X145637416Y-100756638D01*
X145604706Y-100760944D01*
X145604702Y-100760944D01*
X145595147Y-100762203D01*
X145586412Y-100766275D01*
X145586409Y-100766277D01*
X145503406Y-100804982D01*
X145503403Y-100804983D01*
X145493414Y-100809642D01*
X145485618Y-100817437D01*
X145485615Y-100817440D01*
X145421840Y-100881215D01*
X145421837Y-100881218D01*
X145414042Y-100889014D01*
X145409383Y-100899003D01*
X145409382Y-100899006D01*
X145370677Y-100982009D01*
X145370675Y-100982012D01*
X145366603Y-100990747D01*
X145365344Y-101000302D01*
X145365344Y-101000306D01*
X145361038Y-101033016D01*
X145360500Y-101037104D01*
X145360500Y-101451696D01*
X145366603Y-101498053D01*
X145370676Y-101506789D01*
X145370677Y-101506790D01*
X145376456Y-101519184D01*
X145414042Y-101599786D01*
X145421840Y-101607584D01*
X145477561Y-101663305D01*
X145510173Y-101719789D01*
X145510173Y-101785011D01*
X145477561Y-101841495D01*
X145421840Y-101897215D01*
X145421837Y-101897218D01*
X145414042Y-101905014D01*
X145409383Y-101915003D01*
X145409382Y-101915006D01*
X145370677Y-101998009D01*
X145370675Y-101998012D01*
X145366603Y-102006747D01*
X145365344Y-102016302D01*
X145365344Y-102016306D01*
X145361038Y-102049016D01*
X145360500Y-102053104D01*
X145360500Y-102467696D01*
X145361037Y-102471782D01*
X145361038Y-102471783D01*
X145363184Y-102488087D01*
X145366603Y-102514053D01*
X145370676Y-102522789D01*
X145370677Y-102522790D01*
X145374090Y-102530110D01*
X145414042Y-102615786D01*
X145421840Y-102623584D01*
X145478595Y-102680339D01*
X145505909Y-102721216D01*
X145515500Y-102769434D01*
X145515500Y-102897270D01*
X145502506Y-102952998D01*
X145466204Y-102997232D01*
X145404802Y-103044347D01*
X145404797Y-103044351D01*
X145398252Y-103049374D01*
X145393229Y-103055919D01*
X145393225Y-103055924D01*
X145310584Y-103163623D01*
X145310580Y-103163628D01*
X145305556Y-103170177D01*
X145302398Y-103177800D01*
X145302395Y-103177806D01*
X145255139Y-103291893D01*
X145247285Y-103310855D01*
X145246208Y-103319035D01*
X145246206Y-103319043D01*
X145230954Y-103434902D01*
X145227410Y-103461822D01*
X135335988Y-103461822D01*
X135340132Y-103434902D01*
X135354036Y-103406707D01*
X135357558Y-103403186D01*
X135404997Y-103301453D01*
X135411100Y-103255096D01*
X135411100Y-102840504D01*
X135404997Y-102794147D01*
X135357558Y-102692414D01*
X135278186Y-102613042D01*
X135176453Y-102565603D01*
X135176452Y-102565603D01*
X135177582Y-102563181D01*
X135139043Y-102540592D01*
X135107027Y-102488087D01*
X135103675Y-102426681D01*
X135129787Y-102371003D01*
X135179143Y-102334316D01*
X135241845Y-102308344D01*
X135362648Y-102215648D01*
X135363134Y-102216281D01*
X135396044Y-102194291D01*
X135444262Y-102184700D01*
X135862767Y-102184700D01*
X135888623Y-102187381D01*
X135899417Y-102189645D01*
X135931321Y-102185667D01*
X135936621Y-102185338D01*
X135936604Y-102185131D01*
X135941804Y-102184700D01*
X135947011Y-102184700D01*
X135967883Y-102181216D01*
X135972912Y-102180483D01*
X136025760Y-102173896D01*
X136033018Y-102170347D01*
X136040986Y-102169018D01*
X136087762Y-102143703D01*
X136092343Y-102141344D01*
X136140146Y-102117976D01*
X136145856Y-102112265D01*
X136152962Y-102108420D01*
X136189003Y-102069267D01*
X136192563Y-102065557D01*
X136325742Y-101932378D01*
X136345920Y-101915993D01*
X136355156Y-101909960D01*
X136374911Y-101884576D01*
X136385239Y-101872881D01*
X136607320Y-101650800D01*
X142113910Y-101650800D01*
X142114988Y-101658988D01*
X142132706Y-101793578D01*
X142132707Y-101793584D01*
X142133785Y-101801767D01*
X142136944Y-101809395D01*
X142136945Y-101809396D01*
X142188895Y-101934815D01*
X142188896Y-101934818D01*
X142192056Y-101942445D01*
X142197083Y-101948996D01*
X142197084Y-101948998D01*
X142228988Y-101990576D01*
X142284752Y-102063248D01*
X142405555Y-102155944D01*
X142546233Y-102214215D01*
X142697200Y-102234090D01*
X142848167Y-102214215D01*
X142988845Y-102155944D01*
X143109648Y-102063248D01*
X143202344Y-101942445D01*
X143260615Y-101801767D01*
X143280490Y-101650800D01*
X143260615Y-101499833D01*
X143202344Y-101359155D01*
X143109648Y-101238352D01*
X143103097Y-101233325D01*
X143103096Y-101233324D01*
X143077195Y-101213449D01*
X143040894Y-101169216D01*
X143027900Y-101113488D01*
X143027900Y-100986834D01*
X143037491Y-100938616D01*
X143064805Y-100897739D01*
X143081329Y-100881215D01*
X143131958Y-100830586D01*
X143179397Y-100728853D01*
X143185500Y-100682496D01*
X143185500Y-100327904D01*
X143179397Y-100281547D01*
X143131958Y-100179814D01*
X143066439Y-100114295D01*
X143033827Y-100057811D01*
X143033827Y-99992589D01*
X143066439Y-99936105D01*
X143087728Y-99914816D01*
X143131958Y-99870586D01*
X143179397Y-99768853D01*
X143185500Y-99722496D01*
X143185500Y-99367904D01*
X143179397Y-99321547D01*
X143131958Y-99219814D01*
X143052586Y-99140442D01*
X143052586Y-99140441D01*
X143054394Y-99138633D01*
X143028202Y-99109094D01*
X143013353Y-99052446D01*
X143025716Y-98995204D01*
X143062617Y-98949736D01*
X143109648Y-98913648D01*
X143155577Y-98853792D01*
X143199808Y-98817494D01*
X143255536Y-98804500D01*
X143385211Y-98804500D01*
X143443390Y-98818736D01*
X143488422Y-98858227D01*
X143488743Y-98858686D01*
X143493401Y-98868674D01*
X143571526Y-98946799D01*
X143671661Y-98993493D01*
X143717289Y-98999500D01*
X144060710Y-98999499D01*
X144106339Y-98993493D01*
X144206474Y-98946799D01*
X144284599Y-98868674D01*
X144331293Y-98768539D01*
X144337300Y-98722911D01*
X144337300Y-98602800D01*
X148877524Y-98602800D01*
X148897378Y-98804382D01*
X148899173Y-98810300D01*
X148899174Y-98810304D01*
X148953508Y-98989419D01*
X148956177Y-98998218D01*
X149051662Y-99176857D01*
X149055587Y-99181639D01*
X149055588Y-99181641D01*
X149163236Y-99312809D01*
X149180164Y-99333436D01*
X149336743Y-99461938D01*
X149515382Y-99557423D01*
X149709218Y-99616222D01*
X149910800Y-99636076D01*
X150112382Y-99616222D01*
X150306218Y-99557423D01*
X150484857Y-99461938D01*
X150641436Y-99333436D01*
X150769938Y-99176857D01*
X150865423Y-98998218D01*
X150924222Y-98804382D01*
X150944076Y-98602800D01*
X150924222Y-98401218D01*
X150865423Y-98207382D01*
X150769938Y-98028743D01*
X150641436Y-97872164D01*
X150484857Y-97743662D01*
X150306218Y-97648177D01*
X150300297Y-97646381D01*
X150300295Y-97646380D01*
X150118304Y-97591174D01*
X150118300Y-97591173D01*
X150112382Y-97589378D01*
X149910800Y-97569524D01*
X149904637Y-97570131D01*
X149715380Y-97588771D01*
X149715379Y-97588771D01*
X149709218Y-97589378D01*
X149703301Y-97591172D01*
X149703295Y-97591174D01*
X149521304Y-97646380D01*
X149521298Y-97646382D01*
X149515382Y-97648177D01*
X149509924Y-97651094D01*
X149509920Y-97651096D01*
X149342202Y-97740744D01*
X149336743Y-97743662D01*
X149331964Y-97747583D01*
X149331958Y-97747588D01*
X149184943Y-97868241D01*
X149184937Y-97868246D01*
X149180164Y-97872164D01*
X149176246Y-97876937D01*
X149176241Y-97876943D01*
X149055588Y-98023958D01*
X149055583Y-98023964D01*
X149051662Y-98028743D01*
X149048744Y-98034201D01*
X149048744Y-98034202D01*
X148959096Y-98201920D01*
X148959094Y-98201924D01*
X148956177Y-98207382D01*
X148954382Y-98213298D01*
X148954380Y-98213304D01*
X148899174Y-98395295D01*
X148899172Y-98395301D01*
X148897378Y-98401218D01*
X148877524Y-98602800D01*
X144337300Y-98602800D01*
X144337299Y-98279490D01*
X144331293Y-98233861D01*
X144284599Y-98133726D01*
X144206474Y-98055601D01*
X144148877Y-98028743D01*
X144115076Y-98012981D01*
X144115075Y-98012980D01*
X144106339Y-98008907D01*
X144096781Y-98007648D01*
X144096779Y-98007648D01*
X144064798Y-98003438D01*
X144064797Y-98003437D01*
X144060711Y-98002900D01*
X144056589Y-98002900D01*
X143721414Y-98002900D01*
X143721398Y-98002900D01*
X143717290Y-98002901D01*
X143713208Y-98003438D01*
X143713197Y-98003439D01*
X143681219Y-98007648D01*
X143681213Y-98007649D01*
X143671661Y-98008907D01*
X143662928Y-98012978D01*
X143662925Y-98012980D01*
X143581518Y-98050941D01*
X143581515Y-98050942D01*
X143571526Y-98055601D01*
X143563730Y-98063396D01*
X143563727Y-98063399D01*
X143501195Y-98125931D01*
X143501192Y-98125934D01*
X143493401Y-98133726D01*
X143488743Y-98143713D01*
X143488422Y-98144173D01*
X143443390Y-98183664D01*
X143385211Y-98197900D01*
X143255536Y-98197900D01*
X143199808Y-98184906D01*
X143155577Y-98148607D01*
X143109648Y-98088752D01*
X143038558Y-98034202D01*
X142995398Y-98001084D01*
X142995396Y-98001083D01*
X142988845Y-97996056D01*
X142981218Y-97992896D01*
X142981215Y-97992895D01*
X142855796Y-97940945D01*
X142855795Y-97940944D01*
X142848167Y-97937785D01*
X142839984Y-97936707D01*
X142839978Y-97936706D01*
X142705388Y-97918988D01*
X142697200Y-97917910D01*
X142689012Y-97918988D01*
X142554421Y-97936706D01*
X142554413Y-97936708D01*
X142546233Y-97937785D01*
X142538606Y-97940944D01*
X142538603Y-97940945D01*
X142413184Y-97992895D01*
X142413178Y-97992898D01*
X142405555Y-97996056D01*
X142399006Y-98001080D01*
X142399001Y-98001084D01*
X142291302Y-98083725D01*
X142291297Y-98083729D01*
X142284752Y-98088752D01*
X142279729Y-98095297D01*
X142279725Y-98095302D01*
X142197084Y-98203001D01*
X142197080Y-98203006D01*
X142192056Y-98209555D01*
X142188898Y-98217178D01*
X142188895Y-98217184D01*
X142136945Y-98342603D01*
X142133785Y-98350233D01*
X142132708Y-98358413D01*
X142132706Y-98358421D01*
X142115632Y-98488113D01*
X142113910Y-98501200D01*
X142114988Y-98509388D01*
X142132706Y-98643978D01*
X142132707Y-98643984D01*
X142133785Y-98652167D01*
X142136944Y-98659795D01*
X142136945Y-98659796D01*
X142188895Y-98785215D01*
X142188896Y-98785218D01*
X142192056Y-98792845D01*
X142197083Y-98799396D01*
X142197084Y-98799398D01*
X142279725Y-98907097D01*
X142284752Y-98913648D01*
X142331778Y-98949733D01*
X142331780Y-98949734D01*
X142368681Y-98995199D01*
X142381046Y-99052434D01*
X142366206Y-99109078D01*
X142340006Y-99138634D01*
X142341814Y-99140442D01*
X142270240Y-99212015D01*
X142270237Y-99212018D01*
X142262442Y-99219814D01*
X142257783Y-99229803D01*
X142257782Y-99229806D01*
X142219077Y-99312809D01*
X142219075Y-99312812D01*
X142215003Y-99321547D01*
X142213744Y-99331102D01*
X142213744Y-99331106D01*
X142212921Y-99337358D01*
X142208900Y-99367904D01*
X142208900Y-99722496D01*
X142215003Y-99768853D01*
X142262442Y-99870586D01*
X142270240Y-99878384D01*
X142327961Y-99936105D01*
X142360573Y-99992589D01*
X142360573Y-100057811D01*
X142327961Y-100114295D01*
X142270240Y-100172015D01*
X142270237Y-100172018D01*
X142262442Y-100179814D01*
X142257783Y-100189803D01*
X142257782Y-100189806D01*
X142219077Y-100272809D01*
X142219075Y-100272812D01*
X142215003Y-100281547D01*
X142213744Y-100291102D01*
X142213744Y-100291106D01*
X142209960Y-100319853D01*
X142208900Y-100327904D01*
X142208900Y-100682496D01*
X142215003Y-100728853D01*
X142219076Y-100737589D01*
X142219077Y-100737590D01*
X142252675Y-100809642D01*
X142262442Y-100830586D01*
X142270239Y-100838383D01*
X142270240Y-100838384D01*
X142329595Y-100897739D01*
X142356909Y-100938616D01*
X142366500Y-100986834D01*
X142366500Y-101113488D01*
X142353506Y-101169216D01*
X142317205Y-101213449D01*
X142291303Y-101233324D01*
X142291297Y-101233329D01*
X142284752Y-101238352D01*
X142279729Y-101244897D01*
X142279725Y-101244902D01*
X142197084Y-101352601D01*
X142197080Y-101352606D01*
X142192056Y-101359155D01*
X142188898Y-101366778D01*
X142188895Y-101366784D01*
X142152031Y-101455783D01*
X142133785Y-101499833D01*
X142132708Y-101508013D01*
X142132706Y-101508021D01*
X142120626Y-101599786D01*
X142113910Y-101650800D01*
X136607320Y-101650800D01*
X137392542Y-100865578D01*
X137412720Y-100849193D01*
X137421956Y-100843160D01*
X137441713Y-100817773D01*
X137445231Y-100813823D01*
X137445055Y-100813674D01*
X137448418Y-100809702D01*
X137452113Y-100806009D01*
X137464406Y-100788789D01*
X137467466Y-100784686D01*
X137500158Y-100742685D01*
X137502781Y-100735044D01*
X137507475Y-100728470D01*
X137522660Y-100677459D01*
X137524221Y-100672589D01*
X137541500Y-100622261D01*
X137541500Y-100614184D01*
X137543805Y-100606442D01*
X137541608Y-100553327D01*
X137541500Y-100548120D01*
X137541500Y-100527034D01*
X137551091Y-100478816D01*
X137578405Y-100437939D01*
X137578634Y-100437710D01*
X137594758Y-100421586D01*
X137642197Y-100319853D01*
X137648300Y-100273496D01*
X137648300Y-99918904D01*
X137642197Y-99872547D01*
X137595846Y-99773148D01*
X137584312Y-99711660D01*
X137603775Y-99652200D01*
X137649437Y-99609432D01*
X137710042Y-99593900D01*
X138035749Y-99593900D01*
X138041870Y-99594100D01*
X138044904Y-99594500D01*
X138455376Y-99594500D01*
X138459496Y-99594500D01*
X138462529Y-99594100D01*
X138468651Y-99593900D01*
X139127949Y-99593900D01*
X139134070Y-99594100D01*
X139137104Y-99594500D01*
X139547576Y-99594500D01*
X139551696Y-99594500D01*
X139554729Y-99594100D01*
X139560851Y-99593900D01*
X140802354Y-99593900D01*
X140842855Y-99600587D01*
X140879054Y-99619935D01*
X140906955Y-99641344D01*
X141047633Y-99699615D01*
X141198600Y-99719490D01*
X141349567Y-99699615D01*
X141490245Y-99641344D01*
X141611048Y-99548648D01*
X141703744Y-99427845D01*
X141762015Y-99287167D01*
X141781890Y-99136200D01*
X141763822Y-98998960D01*
X141763093Y-98993421D01*
X141763092Y-98993420D01*
X141762015Y-98985233D01*
X141703744Y-98844555D01*
X141645414Y-98768539D01*
X141616074Y-98730302D01*
X141611048Y-98723752D01*
X141551293Y-98677900D01*
X141496798Y-98636084D01*
X141496796Y-98636083D01*
X141490245Y-98631056D01*
X141482618Y-98627896D01*
X141482615Y-98627895D01*
X141357196Y-98575945D01*
X141357195Y-98575944D01*
X141349567Y-98572785D01*
X141341384Y-98571707D01*
X141341378Y-98571706D01*
X141206788Y-98553988D01*
X141198600Y-98552910D01*
X141190412Y-98553988D01*
X141055821Y-98571706D01*
X141055813Y-98571708D01*
X141047633Y-98572785D01*
X141040006Y-98575944D01*
X141040003Y-98575945D01*
X140914584Y-98627895D01*
X140914578Y-98627898D01*
X140906955Y-98631056D01*
X140879054Y-98652464D01*
X140842855Y-98671813D01*
X140802354Y-98678500D01*
X139560851Y-98678500D01*
X139554729Y-98678299D01*
X139551696Y-98677900D01*
X139137104Y-98677900D01*
X139134070Y-98678299D01*
X139127949Y-98678500D01*
X138468651Y-98678500D01*
X138462529Y-98678299D01*
X138459496Y-98677900D01*
X138044904Y-98677900D01*
X138041870Y-98678299D01*
X138035749Y-98678500D01*
X137376451Y-98678500D01*
X137370329Y-98678299D01*
X137367296Y-98677900D01*
X136952704Y-98677900D01*
X136949670Y-98678299D01*
X136943549Y-98678500D01*
X136309651Y-98678500D01*
X136303529Y-98678299D01*
X136300496Y-98677900D01*
X135885904Y-98677900D01*
X135882870Y-98678299D01*
X135876749Y-98678500D01*
X135143246Y-98678500D01*
X135102745Y-98671813D01*
X135066545Y-98652464D01*
X135038645Y-98631056D01*
X135031018Y-98627896D01*
X135031015Y-98627895D01*
X134905596Y-98575945D01*
X134905595Y-98575944D01*
X134897967Y-98572785D01*
X134889784Y-98571707D01*
X134889778Y-98571706D01*
X134755188Y-98553988D01*
X134747000Y-98552910D01*
X134738812Y-98553988D01*
X134604221Y-98571706D01*
X134604213Y-98571708D01*
X134596033Y-98572785D01*
X134588406Y-98575944D01*
X134588403Y-98575945D01*
X134462984Y-98627895D01*
X134462978Y-98627898D01*
X134455355Y-98631056D01*
X134448806Y-98636080D01*
X134448801Y-98636084D01*
X134341102Y-98718725D01*
X134341097Y-98718729D01*
X134334552Y-98723752D01*
X134329529Y-98730297D01*
X134329525Y-98730302D01*
X134246884Y-98838001D01*
X134246880Y-98838006D01*
X134241856Y-98844555D01*
X134238698Y-98852178D01*
X134238695Y-98852184D01*
X134198289Y-98949734D01*
X134183585Y-98985233D01*
X134182508Y-98993413D01*
X134182506Y-98993421D01*
X134166349Y-99116154D01*
X134163710Y-99136200D01*
X123952000Y-99136200D01*
X123952000Y-96659410D01*
X123952000Y-96647000D01*
X120472200Y-93167200D01*
X126420407Y-93167200D01*
X126421485Y-93175388D01*
X126439203Y-93309978D01*
X126439204Y-93309984D01*
X126440282Y-93318167D01*
X126443441Y-93325795D01*
X126443442Y-93325796D01*
X126495392Y-93451215D01*
X126495393Y-93451218D01*
X126498553Y-93458845D01*
X126503580Y-93465396D01*
X126503581Y-93465398D01*
X126584657Y-93571057D01*
X126591249Y-93579648D01*
X126597799Y-93584674D01*
X126702985Y-93665387D01*
X126712052Y-93672344D01*
X126852730Y-93730615D01*
X126860917Y-93731692D01*
X126860918Y-93731693D01*
X126888218Y-93735287D01*
X127003697Y-93750490D01*
X127037136Y-93746087D01*
X127094081Y-93751695D01*
X127142676Y-93781914D01*
X127406395Y-94045633D01*
X127433709Y-94086510D01*
X127443300Y-94134728D01*
X127443300Y-94383001D01*
X127441599Y-94400261D01*
X127441714Y-94400273D01*
X127441107Y-94406435D01*
X127439900Y-94412504D01*
X127439900Y-95198696D01*
X127450854Y-95253766D01*
X127457746Y-95264081D01*
X127457747Y-95264082D01*
X127480215Y-95297708D01*
X127492583Y-95316217D01*
X127555034Y-95357946D01*
X127610104Y-95368900D01*
X127830109Y-95368900D01*
X127836296Y-95368900D01*
X127891366Y-95357946D01*
X127903190Y-95350044D01*
X127948611Y-95331227D01*
X127997777Y-95331225D01*
X128043201Y-95350039D01*
X128055034Y-95357946D01*
X128110104Y-95368900D01*
X128330109Y-95368900D01*
X128336296Y-95368900D01*
X128391366Y-95357946D01*
X128403190Y-95350044D01*
X128448611Y-95331227D01*
X128497777Y-95331225D01*
X128543201Y-95350039D01*
X128555034Y-95357946D01*
X128610104Y-95368900D01*
X128830109Y-95368900D01*
X128836296Y-95368900D01*
X128891366Y-95357946D01*
X128903190Y-95350044D01*
X128948611Y-95331227D01*
X128997777Y-95331225D01*
X129043201Y-95350039D01*
X129055034Y-95357946D01*
X129110104Y-95368900D01*
X129330109Y-95368900D01*
X129336296Y-95368900D01*
X129391366Y-95357946D01*
X129453817Y-95316217D01*
X129495546Y-95253766D01*
X129506500Y-95198696D01*
X129506500Y-94412504D01*
X129505292Y-94406435D01*
X129504686Y-94400273D01*
X129504800Y-94400261D01*
X129503100Y-94383001D01*
X129503100Y-94161940D01*
X129512691Y-94113722D01*
X129540004Y-94072845D01*
X129608865Y-94003984D01*
X129876746Y-93736101D01*
X129925339Y-93705885D01*
X129982282Y-93700276D01*
X130086327Y-93713974D01*
X130237294Y-93694099D01*
X130377972Y-93635828D01*
X130498775Y-93543132D01*
X130591471Y-93422329D01*
X130649742Y-93281651D01*
X130669617Y-93130684D01*
X130650603Y-92986254D01*
X131513615Y-92986254D01*
X131514693Y-92994442D01*
X131532411Y-93129032D01*
X131532412Y-93129038D01*
X131533490Y-93137221D01*
X131536649Y-93144849D01*
X131536650Y-93144850D01*
X131588600Y-93270269D01*
X131588601Y-93270272D01*
X131591761Y-93277899D01*
X131596788Y-93284450D01*
X131596789Y-93284452D01*
X131676930Y-93388893D01*
X131684457Y-93398702D01*
X131762836Y-93458845D01*
X131767136Y-93462144D01*
X131802120Y-93503782D01*
X131816297Y-93556285D01*
X131816870Y-93568675D01*
X131817005Y-93574496D01*
X131817005Y-93591040D01*
X131818042Y-93596592D01*
X131818398Y-93601719D01*
X131819180Y-93618636D01*
X131819180Y-93618639D01*
X131819720Y-93630298D01*
X131824434Y-93640976D01*
X131826299Y-93648903D01*
X131829239Y-93656492D01*
X131831385Y-93667968D01*
X131844100Y-93688503D01*
X131852233Y-93703933D01*
X131861989Y-93726027D01*
X131870245Y-93734283D01*
X131874843Y-93740995D01*
X131880326Y-93747009D01*
X131886474Y-93756938D01*
X131899490Y-93766767D01*
X131905744Y-93771490D01*
X131918907Y-93782945D01*
X132482995Y-94347033D01*
X132510309Y-94387910D01*
X132519900Y-94436128D01*
X132519900Y-95173296D01*
X132530854Y-95228366D01*
X132537746Y-95238681D01*
X132537747Y-95238682D01*
X132553199Y-95261808D01*
X132572583Y-95290817D01*
X132635034Y-95332546D01*
X132690104Y-95343500D01*
X132910109Y-95343500D01*
X132916296Y-95343500D01*
X132971366Y-95332546D01*
X132983194Y-95324642D01*
X133028617Y-95305826D01*
X133077783Y-95305826D01*
X133123205Y-95324642D01*
X133135034Y-95332546D01*
X133190104Y-95343500D01*
X133410109Y-95343500D01*
X133416296Y-95343500D01*
X133471366Y-95332546D01*
X133483194Y-95324642D01*
X133528617Y-95305826D01*
X133577783Y-95305826D01*
X133623205Y-95324642D01*
X133635034Y-95332546D01*
X133690104Y-95343500D01*
X133910109Y-95343500D01*
X133916296Y-95343500D01*
X133971366Y-95332546D01*
X133983194Y-95324642D01*
X134028617Y-95305826D01*
X134077783Y-95305826D01*
X134123205Y-95324642D01*
X134135034Y-95332546D01*
X134190104Y-95343500D01*
X134410109Y-95343500D01*
X134416296Y-95343500D01*
X134471366Y-95332546D01*
X134533817Y-95290817D01*
X134575546Y-95228366D01*
X134586500Y-95173296D01*
X134586500Y-94387104D01*
X134585292Y-94381035D01*
X134584686Y-94374873D01*
X134584800Y-94374861D01*
X134583100Y-94357601D01*
X134583100Y-94210928D01*
X134592691Y-94162710D01*
X134620001Y-94121836D01*
X135440107Y-93301730D01*
X135442074Y-93300018D01*
X135447530Y-93297303D01*
X135476458Y-93265569D01*
X135480479Y-93261359D01*
X135492189Y-93249650D01*
X135495385Y-93244982D01*
X135498734Y-93241133D01*
X135518029Y-93219970D01*
X135522247Y-93209078D01*
X135526528Y-93202166D01*
X135529814Y-93194723D01*
X135536417Y-93185085D01*
X135541947Y-93161569D01*
X135547100Y-93144925D01*
X135550421Y-93136353D01*
X135591205Y-93081913D01*
X135688379Y-93007349D01*
X135781075Y-92886546D01*
X135791077Y-92862400D01*
X136500510Y-92862400D01*
X136501588Y-92870588D01*
X136519306Y-93005178D01*
X136519307Y-93005184D01*
X136520385Y-93013367D01*
X136523544Y-93020995D01*
X136523545Y-93020996D01*
X136575495Y-93146415D01*
X136575496Y-93146418D01*
X136578656Y-93154045D01*
X136583683Y-93160596D01*
X136583684Y-93160598D01*
X136656082Y-93254948D01*
X136671352Y-93274848D01*
X136677902Y-93279874D01*
X136764589Y-93346392D01*
X136793715Y-93377972D01*
X136806516Y-93408053D01*
X136806615Y-93410193D01*
X136811329Y-93420870D01*
X136813194Y-93428798D01*
X136816134Y-93436387D01*
X136818280Y-93447863D01*
X136830995Y-93468398D01*
X136839129Y-93483829D01*
X136843065Y-93492745D01*
X136848884Y-93505922D01*
X136857140Y-93514178D01*
X136861738Y-93520890D01*
X136867221Y-93526904D01*
X136873369Y-93536833D01*
X136892636Y-93551383D01*
X136905798Y-93562836D01*
X137566396Y-94223435D01*
X137593709Y-94264312D01*
X137603300Y-94312530D01*
X137603300Y-94368701D01*
X137601599Y-94385961D01*
X137601714Y-94385973D01*
X137601107Y-94392135D01*
X137599900Y-94398204D01*
X137599900Y-95184396D01*
X137610854Y-95239466D01*
X137617746Y-95249781D01*
X137617747Y-95249782D01*
X137642754Y-95287208D01*
X137652583Y-95301917D01*
X137715034Y-95343646D01*
X137770104Y-95354600D01*
X137990109Y-95354600D01*
X137996296Y-95354600D01*
X138051366Y-95343646D01*
X138063194Y-95335742D01*
X138108617Y-95316926D01*
X138157783Y-95316926D01*
X138203205Y-95335742D01*
X138215034Y-95343646D01*
X138270104Y-95354600D01*
X138490109Y-95354600D01*
X138496296Y-95354600D01*
X138551366Y-95343646D01*
X138563194Y-95335742D01*
X138608617Y-95316926D01*
X138657783Y-95316926D01*
X138703205Y-95335742D01*
X138715034Y-95343646D01*
X138770104Y-95354600D01*
X138990109Y-95354600D01*
X138996296Y-95354600D01*
X139051366Y-95343646D01*
X139063194Y-95335742D01*
X139108617Y-95316926D01*
X139157783Y-95316926D01*
X139203205Y-95335742D01*
X139215034Y-95343646D01*
X139270104Y-95354600D01*
X139490109Y-95354600D01*
X139496296Y-95354600D01*
X139551366Y-95343646D01*
X139613817Y-95301917D01*
X139655546Y-95239466D01*
X139666500Y-95184396D01*
X139666500Y-94398204D01*
X139665292Y-94392135D01*
X139664686Y-94385973D01*
X139664800Y-94385961D01*
X139663100Y-94368701D01*
X139663100Y-94109329D01*
X139672691Y-94061111D01*
X139700004Y-94020234D01*
X139832917Y-93887321D01*
X140234243Y-93485993D01*
X140275118Y-93458682D01*
X140372490Y-93418350D01*
X140493293Y-93325654D01*
X140585989Y-93204851D01*
X140644260Y-93064173D01*
X140664040Y-92913928D01*
X141268063Y-92913928D01*
X141269141Y-92922116D01*
X141286859Y-93056706D01*
X141286860Y-93056712D01*
X141287938Y-93064895D01*
X141291097Y-93072523D01*
X141291098Y-93072524D01*
X141343048Y-93197943D01*
X141343049Y-93197946D01*
X141346209Y-93205573D01*
X141351236Y-93212124D01*
X141351237Y-93212126D01*
X141433878Y-93319825D01*
X141438905Y-93326376D01*
X141445455Y-93331402D01*
X141515127Y-93384864D01*
X141559708Y-93419072D01*
X141671631Y-93465431D01*
X141712507Y-93492745D01*
X142642995Y-94423233D01*
X142670309Y-94464110D01*
X142679900Y-94512328D01*
X142679900Y-95198696D01*
X142690854Y-95253766D01*
X142697746Y-95264081D01*
X142697747Y-95264082D01*
X142720215Y-95297708D01*
X142732583Y-95316217D01*
X142795034Y-95357946D01*
X142850104Y-95368900D01*
X143070109Y-95368900D01*
X143076296Y-95368900D01*
X143131366Y-95357946D01*
X143143190Y-95350044D01*
X143188611Y-95331227D01*
X143237777Y-95331225D01*
X143283201Y-95350039D01*
X143295034Y-95357946D01*
X143350104Y-95368900D01*
X143570109Y-95368900D01*
X143576296Y-95368900D01*
X143631366Y-95357946D01*
X143643190Y-95350044D01*
X143688611Y-95331227D01*
X143737777Y-95331225D01*
X143783201Y-95350039D01*
X143795034Y-95357946D01*
X143850104Y-95368900D01*
X144070109Y-95368900D01*
X144076296Y-95368900D01*
X144131366Y-95357946D01*
X144143190Y-95350044D01*
X144188611Y-95331227D01*
X144237777Y-95331225D01*
X144283201Y-95350039D01*
X144295034Y-95357946D01*
X144350104Y-95368900D01*
X144570109Y-95368900D01*
X144576296Y-95368900D01*
X144631366Y-95357946D01*
X144693817Y-95316217D01*
X144735546Y-95253766D01*
X144746500Y-95198696D01*
X144746500Y-94412504D01*
X144745292Y-94406435D01*
X144744686Y-94400273D01*
X144744800Y-94400261D01*
X144743100Y-94383001D01*
X144743100Y-94007728D01*
X144752691Y-93959510D01*
X144780001Y-93918636D01*
X145027622Y-93671015D01*
X145076212Y-93640801D01*
X145133155Y-93635192D01*
X145237200Y-93648890D01*
X145388167Y-93629015D01*
X145528845Y-93570744D01*
X145649648Y-93478048D01*
X145742344Y-93357245D01*
X145800615Y-93216567D01*
X145820490Y-93065600D01*
X145800615Y-92914633D01*
X145800021Y-92913200D01*
X146660510Y-92913200D01*
X146661588Y-92921388D01*
X146679306Y-93055978D01*
X146679307Y-93055984D01*
X146680385Y-93064167D01*
X146683544Y-93071795D01*
X146683545Y-93071796D01*
X146735495Y-93197215D01*
X146735496Y-93197218D01*
X146738656Y-93204845D01*
X146743683Y-93211396D01*
X146743684Y-93211398D01*
X146826325Y-93319097D01*
X146831352Y-93325648D01*
X146873594Y-93358062D01*
X146913774Y-93388893D01*
X146948757Y-93430529D01*
X146962935Y-93483031D01*
X146963765Y-93500967D01*
X146963900Y-93506791D01*
X146963900Y-93523335D01*
X146964937Y-93528887D01*
X146965293Y-93534014D01*
X146966075Y-93550931D01*
X146966075Y-93550934D01*
X146966615Y-93562593D01*
X146971329Y-93573271D01*
X146973194Y-93581198D01*
X146976134Y-93588787D01*
X146978280Y-93600263D01*
X146990995Y-93620798D01*
X146999129Y-93636229D01*
X147003556Y-93646257D01*
X147008884Y-93658322D01*
X147017140Y-93666578D01*
X147021738Y-93673290D01*
X147027221Y-93679304D01*
X147033369Y-93689233D01*
X147052636Y-93703783D01*
X147065798Y-93715236D01*
X147722996Y-94372435D01*
X147750309Y-94413312D01*
X147759900Y-94461530D01*
X147759900Y-95198696D01*
X147770854Y-95253766D01*
X147777746Y-95264081D01*
X147777747Y-95264082D01*
X147800215Y-95297708D01*
X147812583Y-95316217D01*
X147875034Y-95357946D01*
X147930104Y-95368900D01*
X148150109Y-95368900D01*
X148156296Y-95368900D01*
X148211366Y-95357946D01*
X148223190Y-95350044D01*
X148268611Y-95331227D01*
X148317777Y-95331225D01*
X148363201Y-95350039D01*
X148375034Y-95357946D01*
X148430104Y-95368900D01*
X148650109Y-95368900D01*
X148656296Y-95368900D01*
X148711366Y-95357946D01*
X148773817Y-95316217D01*
X148815546Y-95253766D01*
X148826500Y-95198696D01*
X148826500Y-94412504D01*
X148825292Y-94406435D01*
X148824686Y-94400273D01*
X148824800Y-94400261D01*
X148823100Y-94383001D01*
X148823100Y-94105849D01*
X149258756Y-94105849D01*
X149260368Y-94117406D01*
X149260368Y-94117409D01*
X149262092Y-94129765D01*
X149263300Y-94147172D01*
X149263300Y-94383001D01*
X149261599Y-94400261D01*
X149261714Y-94400273D01*
X149261107Y-94406435D01*
X149259900Y-94412504D01*
X149259900Y-95198696D01*
X149270854Y-95253766D01*
X149277746Y-95264081D01*
X149277747Y-95264082D01*
X149300215Y-95297708D01*
X149312583Y-95316217D01*
X149375034Y-95357946D01*
X149430104Y-95368900D01*
X149650109Y-95368900D01*
X149656296Y-95368900D01*
X149711366Y-95357946D01*
X149773817Y-95316217D01*
X149815546Y-95253766D01*
X149826500Y-95198696D01*
X149826500Y-94412504D01*
X149825292Y-94406435D01*
X149824686Y-94400273D01*
X149824800Y-94400261D01*
X149823100Y-94383001D01*
X149823100Y-94287129D01*
X149832691Y-94238911D01*
X149860004Y-94198034D01*
X149910866Y-94147172D01*
X150087368Y-93970668D01*
X150089343Y-93968949D01*
X150094799Y-93966234D01*
X150102671Y-93957599D01*
X150123734Y-93934494D01*
X150127758Y-93930279D01*
X150132380Y-93925657D01*
X150139458Y-93918580D01*
X150142652Y-93913915D01*
X150145977Y-93910092D01*
X150165298Y-93888901D01*
X150169519Y-93878003D01*
X150173799Y-93871091D01*
X150177083Y-93863653D01*
X150183686Y-93854016D01*
X150189216Y-93830498D01*
X150194371Y-93813851D01*
X150203100Y-93791322D01*
X150203100Y-93779644D01*
X150204593Y-93771658D01*
X150204969Y-93763519D01*
X150207643Y-93752151D01*
X150204307Y-93728240D01*
X150203100Y-93710835D01*
X150203100Y-93604092D01*
X150216094Y-93548364D01*
X150252396Y-93504130D01*
X150268988Y-93491398D01*
X150335648Y-93440248D01*
X150428344Y-93319445D01*
X150486615Y-93178767D01*
X150506490Y-93027800D01*
X150486615Y-92876833D01*
X150428344Y-92736155D01*
X150393888Y-92691252D01*
X150340674Y-92621902D01*
X150335648Y-92615352D01*
X150329097Y-92610325D01*
X150221398Y-92527684D01*
X150221396Y-92527683D01*
X150214845Y-92522656D01*
X150207218Y-92519496D01*
X150207215Y-92519495D01*
X150081796Y-92467545D01*
X150081795Y-92467544D01*
X150074167Y-92464385D01*
X150065984Y-92463307D01*
X150065978Y-92463306D01*
X149931388Y-92445588D01*
X149923200Y-92444510D01*
X149915012Y-92445588D01*
X149780421Y-92463306D01*
X149780413Y-92463308D01*
X149772233Y-92464385D01*
X149764606Y-92467544D01*
X149764603Y-92467545D01*
X149639184Y-92519495D01*
X149639178Y-92519498D01*
X149631555Y-92522656D01*
X149625006Y-92527680D01*
X149625001Y-92527684D01*
X149517302Y-92610325D01*
X149517297Y-92610329D01*
X149510752Y-92615352D01*
X149505729Y-92621897D01*
X149505725Y-92621902D01*
X149423084Y-92729601D01*
X149423080Y-92729606D01*
X149418056Y-92736155D01*
X149414898Y-92743778D01*
X149414895Y-92743784D01*
X149365763Y-92862400D01*
X149359785Y-92876833D01*
X149358708Y-92885013D01*
X149358706Y-92885021D01*
X149343465Y-93000798D01*
X149339910Y-93027800D01*
X149340988Y-93035988D01*
X149358706Y-93170578D01*
X149358707Y-93170584D01*
X149359785Y-93178767D01*
X149362944Y-93186395D01*
X149362945Y-93186396D01*
X149414895Y-93311815D01*
X149414896Y-93311818D01*
X149418056Y-93319445D01*
X149423083Y-93325996D01*
X149423084Y-93325998D01*
X149503294Y-93430529D01*
X149510752Y-93440248D01*
X149574860Y-93489440D01*
X149575207Y-93489706D01*
X149616904Y-93546574D01*
X149621515Y-93616940D01*
X149587597Y-93678764D01*
X149379039Y-93887321D01*
X149377049Y-93889052D01*
X149371601Y-93891766D01*
X149363742Y-93900385D01*
X149363741Y-93900387D01*
X149342662Y-93923508D01*
X149338653Y-93927707D01*
X149331060Y-93935301D01*
X149331056Y-93935305D01*
X149326942Y-93939420D01*
X149323751Y-93944076D01*
X149320389Y-93947941D01*
X149308966Y-93960471D01*
X149308963Y-93960475D01*
X149301102Y-93969099D01*
X149296885Y-93979983D01*
X149292598Y-93986908D01*
X149289309Y-93994355D01*
X149282714Y-94003984D01*
X149280041Y-94015346D01*
X149280040Y-94015350D01*
X149277184Y-94027492D01*
X149272025Y-94044153D01*
X149267518Y-94055786D01*
X149267516Y-94055792D01*
X149263300Y-94066678D01*
X149263300Y-94078351D01*
X149261804Y-94086354D01*
X149261427Y-94094489D01*
X149258756Y-94105849D01*
X148823100Y-94105849D01*
X148823100Y-93752336D01*
X148823282Y-93749712D01*
X148825217Y-93743940D01*
X148823233Y-93701040D01*
X148823100Y-93695223D01*
X148823100Y-93684491D01*
X148823100Y-93678665D01*
X148822060Y-93673109D01*
X148821706Y-93668015D01*
X148820385Y-93639407D01*
X148815669Y-93628726D01*
X148813806Y-93620804D01*
X148810865Y-93613213D01*
X148808720Y-93601737D01*
X148796009Y-93581209D01*
X148787869Y-93565766D01*
X148782832Y-93554359D01*
X148782831Y-93554358D01*
X148778116Y-93543678D01*
X148769859Y-93535421D01*
X148765262Y-93528710D01*
X148759777Y-93522693D01*
X148753631Y-93512767D01*
X148742751Y-93504551D01*
X148737203Y-93500361D01*
X148696977Y-93448626D01*
X148688174Y-93383686D01*
X148713174Y-93323112D01*
X148764944Y-93255645D01*
X148823215Y-93114967D01*
X148843090Y-92964000D01*
X148823215Y-92813033D01*
X148764944Y-92672355D01*
X148721755Y-92616071D01*
X148677274Y-92558102D01*
X148672248Y-92551552D01*
X148657565Y-92540285D01*
X148557998Y-92463884D01*
X148557996Y-92463883D01*
X148551445Y-92458856D01*
X148543818Y-92455696D01*
X148543815Y-92455695D01*
X148418396Y-92403745D01*
X148418395Y-92403744D01*
X148410767Y-92400585D01*
X148402584Y-92399507D01*
X148402578Y-92399506D01*
X148267988Y-92381788D01*
X148259800Y-92380710D01*
X148251612Y-92381788D01*
X148117021Y-92399506D01*
X148117013Y-92399508D01*
X148108833Y-92400585D01*
X148101206Y-92403744D01*
X148101203Y-92403745D01*
X147975784Y-92455695D01*
X147975778Y-92455698D01*
X147968155Y-92458856D01*
X147961606Y-92463880D01*
X147961601Y-92463884D01*
X147851566Y-92548318D01*
X147791308Y-92573278D01*
X147726644Y-92564765D01*
X147674900Y-92525060D01*
X147656248Y-92500752D01*
X147632214Y-92482310D01*
X147541998Y-92413084D01*
X147541996Y-92413083D01*
X147535445Y-92408056D01*
X147527818Y-92404896D01*
X147527815Y-92404895D01*
X147402396Y-92352945D01*
X147402395Y-92352944D01*
X147394767Y-92349785D01*
X147386584Y-92348707D01*
X147386578Y-92348706D01*
X147251988Y-92330988D01*
X147243800Y-92329910D01*
X147235612Y-92330988D01*
X147101021Y-92348706D01*
X147101013Y-92348708D01*
X147092833Y-92349785D01*
X147085206Y-92352944D01*
X147085203Y-92352945D01*
X146959784Y-92404895D01*
X146959778Y-92404898D01*
X146952155Y-92408056D01*
X146945606Y-92413080D01*
X146945601Y-92413084D01*
X146837902Y-92495725D01*
X146837897Y-92495729D01*
X146831352Y-92500752D01*
X146826329Y-92507297D01*
X146826325Y-92507302D01*
X146743684Y-92615001D01*
X146743680Y-92615006D01*
X146738656Y-92621555D01*
X146735498Y-92629178D01*
X146735495Y-92629184D01*
X146683545Y-92754603D01*
X146680385Y-92762233D01*
X146679308Y-92770413D01*
X146679306Y-92770421D01*
X146664462Y-92883184D01*
X146660510Y-92913200D01*
X145800021Y-92913200D01*
X145742344Y-92773955D01*
X145723735Y-92749704D01*
X145654674Y-92659702D01*
X145649648Y-92653152D01*
X145620216Y-92630568D01*
X145535398Y-92565484D01*
X145535396Y-92565483D01*
X145528845Y-92560456D01*
X145521218Y-92557296D01*
X145521215Y-92557295D01*
X145395796Y-92505345D01*
X145395795Y-92505344D01*
X145388167Y-92502185D01*
X145379984Y-92501107D01*
X145379978Y-92501106D01*
X145245388Y-92483388D01*
X145237200Y-92482310D01*
X145229012Y-92483388D01*
X145094421Y-92501106D01*
X145094413Y-92501108D01*
X145086233Y-92502185D01*
X145078606Y-92505344D01*
X145078603Y-92505345D01*
X144953184Y-92557295D01*
X144953178Y-92557298D01*
X144945555Y-92560456D01*
X144939006Y-92565480D01*
X144939001Y-92565484D01*
X144831302Y-92648125D01*
X144831297Y-92648129D01*
X144824752Y-92653152D01*
X144819729Y-92659697D01*
X144819728Y-92659699D01*
X144750664Y-92749704D01*
X144702702Y-92787768D01*
X144642460Y-92798729D01*
X144584165Y-92779998D01*
X144541583Y-92735999D01*
X144538905Y-92731361D01*
X144535744Y-92723729D01*
X144518807Y-92701657D01*
X144448074Y-92609476D01*
X144443048Y-92602926D01*
X144433278Y-92595429D01*
X144328798Y-92515258D01*
X144328796Y-92515257D01*
X144322245Y-92510230D01*
X144314618Y-92507070D01*
X144314615Y-92507069D01*
X144189196Y-92455119D01*
X144189195Y-92455118D01*
X144181567Y-92451959D01*
X144173384Y-92450881D01*
X144173378Y-92450880D01*
X144038788Y-92433162D01*
X144030600Y-92432084D01*
X144022412Y-92433162D01*
X143887821Y-92450880D01*
X143887813Y-92450882D01*
X143879633Y-92451959D01*
X143872006Y-92455118D01*
X143872003Y-92455119D01*
X143746584Y-92507069D01*
X143746578Y-92507072D01*
X143738955Y-92510230D01*
X143732406Y-92515254D01*
X143732401Y-92515258D01*
X143624702Y-92597899D01*
X143624697Y-92597903D01*
X143618152Y-92602926D01*
X143613129Y-92609471D01*
X143613128Y-92609473D01*
X143559051Y-92679947D01*
X143511090Y-92718011D01*
X143450850Y-92728972D01*
X143392555Y-92710243D01*
X143355398Y-92671852D01*
X143354744Y-92672355D01*
X143350379Y-92666666D01*
X143350377Y-92666664D01*
X143311555Y-92616071D01*
X143267074Y-92558102D01*
X143262048Y-92551552D01*
X143247365Y-92540285D01*
X143147798Y-92463884D01*
X143147796Y-92463883D01*
X143141245Y-92458856D01*
X143133618Y-92455696D01*
X143133615Y-92455695D01*
X143008196Y-92403745D01*
X143008195Y-92403744D01*
X143000567Y-92400585D01*
X142992384Y-92399507D01*
X142992378Y-92399506D01*
X142857788Y-92381788D01*
X142849600Y-92380710D01*
X142841412Y-92381788D01*
X142706821Y-92399506D01*
X142706813Y-92399508D01*
X142698633Y-92400585D01*
X142691006Y-92403744D01*
X142691003Y-92403745D01*
X142565584Y-92455695D01*
X142565578Y-92455698D01*
X142557955Y-92458856D01*
X142551403Y-92463883D01*
X142551402Y-92463884D01*
X142452187Y-92540014D01*
X142391930Y-92564973D01*
X142327266Y-92556460D01*
X142275522Y-92516755D01*
X142268827Y-92508030D01*
X142263801Y-92501480D01*
X142256232Y-92495672D01*
X142149551Y-92413812D01*
X142149549Y-92413811D01*
X142142998Y-92408784D01*
X142135371Y-92405624D01*
X142135368Y-92405623D01*
X142009949Y-92353673D01*
X142009948Y-92353672D01*
X142002320Y-92350513D01*
X141994137Y-92349435D01*
X141994131Y-92349434D01*
X141859541Y-92331716D01*
X141851353Y-92330638D01*
X141843165Y-92331716D01*
X141708574Y-92349434D01*
X141708566Y-92349436D01*
X141700386Y-92350513D01*
X141692759Y-92353672D01*
X141692756Y-92353673D01*
X141567337Y-92405623D01*
X141567331Y-92405626D01*
X141559708Y-92408784D01*
X141553159Y-92413808D01*
X141553154Y-92413812D01*
X141445455Y-92496453D01*
X141445450Y-92496457D01*
X141438905Y-92501480D01*
X141433882Y-92508025D01*
X141433878Y-92508030D01*
X141351237Y-92615729D01*
X141351233Y-92615734D01*
X141346209Y-92622283D01*
X141343051Y-92629906D01*
X141343048Y-92629912D01*
X141291338Y-92754752D01*
X141287938Y-92762961D01*
X141286861Y-92771141D01*
X141286859Y-92771149D01*
X141272672Y-92878916D01*
X141268063Y-92913928D01*
X140664040Y-92913928D01*
X140664135Y-92913206D01*
X140644260Y-92762239D01*
X140585989Y-92621561D01*
X140576713Y-92609473D01*
X140498319Y-92507308D01*
X140493293Y-92500758D01*
X140486665Y-92495672D01*
X140379043Y-92413090D01*
X140379041Y-92413089D01*
X140372490Y-92408062D01*
X140364863Y-92404902D01*
X140364860Y-92404901D01*
X140239441Y-92352951D01*
X140239440Y-92352950D01*
X140231812Y-92349791D01*
X140223629Y-92348713D01*
X140223623Y-92348712D01*
X140089033Y-92330994D01*
X140080845Y-92329916D01*
X140072657Y-92330994D01*
X139938066Y-92348712D01*
X139938058Y-92348714D01*
X139929878Y-92349791D01*
X139922251Y-92352950D01*
X139922248Y-92352951D01*
X139796829Y-92404901D01*
X139796823Y-92404904D01*
X139789200Y-92408062D01*
X139782651Y-92413086D01*
X139782646Y-92413090D01*
X139674946Y-92495732D01*
X139674942Y-92495735D01*
X139668397Y-92500758D01*
X139667354Y-92502116D01*
X139613726Y-92533074D01*
X139548507Y-92533071D01*
X139494863Y-92502097D01*
X139493791Y-92500700D01*
X139487240Y-92495673D01*
X139379541Y-92413032D01*
X139379539Y-92413031D01*
X139372988Y-92408004D01*
X139365361Y-92404844D01*
X139365358Y-92404843D01*
X139239939Y-92352893D01*
X139239938Y-92352892D01*
X139232310Y-92349733D01*
X139224127Y-92348655D01*
X139224121Y-92348654D01*
X139089531Y-92330936D01*
X139081343Y-92329858D01*
X139073155Y-92330936D01*
X138938564Y-92348654D01*
X138938556Y-92348656D01*
X138930376Y-92349733D01*
X138922749Y-92352892D01*
X138922746Y-92352893D01*
X138797327Y-92404843D01*
X138797321Y-92404846D01*
X138789698Y-92408004D01*
X138783149Y-92413028D01*
X138783144Y-92413032D01*
X138675447Y-92495672D01*
X138675445Y-92495673D01*
X138668895Y-92500700D01*
X138666906Y-92503291D01*
X138612602Y-92534642D01*
X138547381Y-92534640D01*
X138494416Y-92504060D01*
X138494294Y-92503900D01*
X138484589Y-92496453D01*
X138380044Y-92416232D01*
X138380042Y-92416231D01*
X138373491Y-92411204D01*
X138365864Y-92408044D01*
X138365861Y-92408043D01*
X138240442Y-92356093D01*
X138240441Y-92356092D01*
X138232813Y-92352933D01*
X138224630Y-92351855D01*
X138224624Y-92351854D01*
X138090034Y-92334136D01*
X138081846Y-92333058D01*
X138073658Y-92334136D01*
X137939067Y-92351854D01*
X137939059Y-92351856D01*
X137930879Y-92352933D01*
X137923252Y-92356092D01*
X137923249Y-92356093D01*
X137797830Y-92408043D01*
X137797824Y-92408046D01*
X137790201Y-92411204D01*
X137686431Y-92490829D01*
X137626176Y-92515788D01*
X137561512Y-92507275D01*
X137509768Y-92467572D01*
X137496248Y-92449952D01*
X137489156Y-92444510D01*
X137381998Y-92362284D01*
X137381996Y-92362283D01*
X137375445Y-92357256D01*
X137367818Y-92354096D01*
X137367815Y-92354095D01*
X137242396Y-92302145D01*
X137242395Y-92302144D01*
X137234767Y-92298985D01*
X137226584Y-92297907D01*
X137226578Y-92297906D01*
X137091988Y-92280188D01*
X137083800Y-92279110D01*
X137075612Y-92280188D01*
X136941021Y-92297906D01*
X136941013Y-92297908D01*
X136932833Y-92298985D01*
X136925206Y-92302144D01*
X136925203Y-92302145D01*
X136799784Y-92354095D01*
X136799778Y-92354098D01*
X136792155Y-92357256D01*
X136785606Y-92362280D01*
X136785601Y-92362284D01*
X136677902Y-92444925D01*
X136677897Y-92444929D01*
X136671352Y-92449952D01*
X136666329Y-92456497D01*
X136666325Y-92456502D01*
X136583684Y-92564201D01*
X136583680Y-92564206D01*
X136578656Y-92570755D01*
X136575498Y-92578378D01*
X136575495Y-92578384D01*
X136523545Y-92703803D01*
X136520385Y-92711433D01*
X136519308Y-92719613D01*
X136519306Y-92719621D01*
X136502581Y-92846668D01*
X136500510Y-92862400D01*
X135791077Y-92862400D01*
X135839346Y-92745868D01*
X135859221Y-92594901D01*
X135839346Y-92443934D01*
X135781075Y-92303256D01*
X135688379Y-92182453D01*
X135567576Y-92089757D01*
X135559949Y-92086597D01*
X135559946Y-92086596D01*
X135434527Y-92034646D01*
X135434526Y-92034645D01*
X135426898Y-92031486D01*
X135418715Y-92030408D01*
X135418709Y-92030407D01*
X135284119Y-92012689D01*
X135275931Y-92011611D01*
X135267743Y-92012689D01*
X135133152Y-92030407D01*
X135133144Y-92030409D01*
X135124964Y-92031486D01*
X135117337Y-92034645D01*
X135117334Y-92034646D01*
X134991915Y-92086596D01*
X134991909Y-92086599D01*
X134984286Y-92089757D01*
X134977737Y-92094781D01*
X134977732Y-92094785D01*
X134870033Y-92177426D01*
X134870028Y-92177430D01*
X134863483Y-92182453D01*
X134858460Y-92188998D01*
X134858456Y-92189003D01*
X134775815Y-92296702D01*
X134775811Y-92296707D01*
X134770787Y-92303256D01*
X134767629Y-92310878D01*
X134767627Y-92310883D01*
X134727781Y-92407081D01*
X134688075Y-92458825D01*
X134627818Y-92483784D01*
X134563153Y-92475271D01*
X134519056Y-92441432D01*
X134518046Y-92442443D01*
X134512205Y-92436602D01*
X134507179Y-92430052D01*
X134485066Y-92413084D01*
X134392929Y-92342384D01*
X134392927Y-92342383D01*
X134386376Y-92337356D01*
X134378749Y-92334196D01*
X134378746Y-92334195D01*
X134253327Y-92282245D01*
X134253326Y-92282244D01*
X134245698Y-92279085D01*
X134237515Y-92278007D01*
X134237509Y-92278006D01*
X134102919Y-92260288D01*
X134094731Y-92259210D01*
X134086543Y-92260288D01*
X133951952Y-92278006D01*
X133951944Y-92278008D01*
X133943764Y-92279085D01*
X133936137Y-92282244D01*
X133936134Y-92282245D01*
X133810715Y-92334195D01*
X133810709Y-92334198D01*
X133803086Y-92337356D01*
X133796537Y-92342380D01*
X133796532Y-92342384D01*
X133688833Y-92425025D01*
X133688828Y-92425029D01*
X133682283Y-92430052D01*
X133677260Y-92436597D01*
X133677259Y-92436599D01*
X133611350Y-92522493D01*
X133559606Y-92562197D01*
X133494942Y-92570710D01*
X133434685Y-92545751D01*
X133387645Y-92509656D01*
X133380018Y-92506496D01*
X133380015Y-92506495D01*
X133254596Y-92454545D01*
X133254595Y-92454544D01*
X133246967Y-92451385D01*
X133238784Y-92450307D01*
X133238778Y-92450306D01*
X133104188Y-92432588D01*
X133096000Y-92431510D01*
X133087812Y-92432588D01*
X132953221Y-92450306D01*
X132953213Y-92450308D01*
X132945033Y-92451385D01*
X132937406Y-92454544D01*
X132937403Y-92454545D01*
X132811984Y-92506495D01*
X132811978Y-92506498D01*
X132804355Y-92509656D01*
X132797807Y-92514680D01*
X132797806Y-92514681D01*
X132687658Y-92599201D01*
X132627400Y-92624160D01*
X132562735Y-92615647D01*
X132522015Y-92584401D01*
X132520220Y-92586197D01*
X132514379Y-92580356D01*
X132509353Y-92573806D01*
X132491955Y-92560456D01*
X132395103Y-92486138D01*
X132395101Y-92486137D01*
X132388550Y-92481110D01*
X132380923Y-92477950D01*
X132380920Y-92477949D01*
X132255501Y-92425999D01*
X132255500Y-92425998D01*
X132247872Y-92422839D01*
X132239689Y-92421761D01*
X132239683Y-92421760D01*
X132105093Y-92404042D01*
X132096905Y-92402964D01*
X132088717Y-92404042D01*
X131954126Y-92421760D01*
X131954118Y-92421762D01*
X131945938Y-92422839D01*
X131938311Y-92425998D01*
X131938308Y-92425999D01*
X131812889Y-92477949D01*
X131812883Y-92477952D01*
X131805260Y-92481110D01*
X131798711Y-92486134D01*
X131798706Y-92486138D01*
X131691007Y-92568779D01*
X131691002Y-92568783D01*
X131684457Y-92573806D01*
X131679434Y-92580351D01*
X131679430Y-92580356D01*
X131596789Y-92688055D01*
X131596785Y-92688060D01*
X131591761Y-92694609D01*
X131588603Y-92702232D01*
X131588600Y-92702238D01*
X131539316Y-92821221D01*
X131533490Y-92835287D01*
X131532413Y-92843467D01*
X131532411Y-92843475D01*
X131521966Y-92922821D01*
X131513615Y-92986254D01*
X130650603Y-92986254D01*
X130649742Y-92979717D01*
X130591471Y-92839039D01*
X130498775Y-92718236D01*
X130489909Y-92711433D01*
X130384525Y-92630568D01*
X130384523Y-92630567D01*
X130377972Y-92625540D01*
X130370345Y-92622380D01*
X130370342Y-92622379D01*
X130244923Y-92570429D01*
X130244922Y-92570428D01*
X130237294Y-92567269D01*
X130229111Y-92566191D01*
X130229105Y-92566190D01*
X130094515Y-92548472D01*
X130086327Y-92547394D01*
X130078139Y-92548472D01*
X129943548Y-92566190D01*
X129943540Y-92566192D01*
X129935360Y-92567269D01*
X129927733Y-92570428D01*
X129927730Y-92570429D01*
X129802311Y-92622379D01*
X129802305Y-92622382D01*
X129794682Y-92625540D01*
X129788133Y-92630564D01*
X129788128Y-92630568D01*
X129680425Y-92713212D01*
X129680420Y-92713216D01*
X129678679Y-92714552D01*
X129678673Y-92714556D01*
X129673879Y-92718236D01*
X129673312Y-92717497D01*
X129617753Y-92747969D01*
X129547393Y-92743352D01*
X129490533Y-92701658D01*
X129482548Y-92691252D01*
X129475997Y-92686225D01*
X129368298Y-92603584D01*
X129368296Y-92603583D01*
X129361745Y-92598556D01*
X129354118Y-92595396D01*
X129354115Y-92595395D01*
X129228696Y-92543445D01*
X129228695Y-92543444D01*
X129221067Y-92540285D01*
X129212884Y-92539207D01*
X129212878Y-92539206D01*
X129078288Y-92521488D01*
X129070100Y-92520410D01*
X129061912Y-92521488D01*
X128927321Y-92539206D01*
X128927313Y-92539208D01*
X128919133Y-92540285D01*
X128911506Y-92543444D01*
X128911503Y-92543445D01*
X128786084Y-92595395D01*
X128786078Y-92595398D01*
X128778455Y-92598556D01*
X128771906Y-92603580D01*
X128771901Y-92603584D01*
X128664202Y-92686225D01*
X128664197Y-92686229D01*
X128657652Y-92691252D01*
X128652629Y-92697797D01*
X128652627Y-92697800D01*
X128611810Y-92750993D01*
X128554942Y-92792689D01*
X128484577Y-92797300D01*
X128422754Y-92763382D01*
X128420674Y-92761302D01*
X128415648Y-92754752D01*
X128409097Y-92749725D01*
X128301398Y-92667084D01*
X128301396Y-92667083D01*
X128294845Y-92662056D01*
X128287218Y-92658896D01*
X128287215Y-92658895D01*
X128161796Y-92606945D01*
X128161795Y-92606944D01*
X128154167Y-92603785D01*
X128145984Y-92602707D01*
X128145978Y-92602706D01*
X128011388Y-92584988D01*
X128003200Y-92583910D01*
X127995012Y-92584988D01*
X127860421Y-92602706D01*
X127860413Y-92602708D01*
X127852233Y-92603785D01*
X127844606Y-92606944D01*
X127844603Y-92606945D01*
X127719184Y-92658895D01*
X127719178Y-92658898D01*
X127711555Y-92662056D01*
X127705006Y-92667080D01*
X127705001Y-92667084D01*
X127597304Y-92749724D01*
X127597302Y-92749725D01*
X127590752Y-92754752D01*
X127589693Y-92756131D01*
X127536055Y-92787097D01*
X127470835Y-92787095D01*
X127417201Y-92756128D01*
X127416145Y-92754752D01*
X127409594Y-92749725D01*
X127301895Y-92667084D01*
X127301893Y-92667083D01*
X127295342Y-92662056D01*
X127287715Y-92658896D01*
X127287712Y-92658895D01*
X127162293Y-92606945D01*
X127162292Y-92606944D01*
X127154664Y-92603785D01*
X127146481Y-92602707D01*
X127146475Y-92602706D01*
X127011885Y-92584988D01*
X127003697Y-92583910D01*
X126995509Y-92584988D01*
X126860918Y-92602706D01*
X126860910Y-92602708D01*
X126852730Y-92603785D01*
X126845103Y-92606944D01*
X126845100Y-92606945D01*
X126719681Y-92658895D01*
X126719675Y-92658898D01*
X126712052Y-92662056D01*
X126705503Y-92667080D01*
X126705498Y-92667084D01*
X126597799Y-92749725D01*
X126597794Y-92749729D01*
X126591249Y-92754752D01*
X126586226Y-92761297D01*
X126586222Y-92761302D01*
X126503581Y-92869001D01*
X126503577Y-92869006D01*
X126498553Y-92875555D01*
X126495395Y-92883178D01*
X126495392Y-92883184D01*
X126443442Y-93008603D01*
X126440282Y-93016233D01*
X126439205Y-93024413D01*
X126439203Y-93024421D01*
X126424354Y-93137221D01*
X126420407Y-93167200D01*
X120472200Y-93167200D01*
X115354199Y-88049199D01*
X115321599Y-87992759D01*
X115321564Y-87927581D01*
X115354102Y-87871105D01*
X117371054Y-85849778D01*
X123634900Y-85849778D01*
X123634901Y-85855960D01*
X123645245Y-85907969D01*
X123669868Y-85944820D01*
X123677535Y-85956295D01*
X123684653Y-85966947D01*
X123743631Y-86006355D01*
X123795639Y-86016700D01*
X124257300Y-86016700D01*
X124320300Y-86033581D01*
X124366419Y-86079700D01*
X124383300Y-86142700D01*
X124383300Y-87582257D01*
X124383117Y-87584885D01*
X124381182Y-87590660D01*
X124381721Y-87602321D01*
X124381721Y-87602323D01*
X124383166Y-87633572D01*
X124383300Y-87639391D01*
X124383300Y-87655935D01*
X124384337Y-87661487D01*
X124384693Y-87666614D01*
X124385475Y-87683531D01*
X124385475Y-87683534D01*
X124386015Y-87695193D01*
X124390729Y-87705871D01*
X124392594Y-87713798D01*
X124395534Y-87721387D01*
X124397680Y-87732863D01*
X124410395Y-87753398D01*
X124418529Y-87768829D01*
X124421914Y-87776497D01*
X124428284Y-87790922D01*
X124436540Y-87799178D01*
X124441138Y-87805890D01*
X124446622Y-87811905D01*
X124452769Y-87821833D01*
X124472047Y-87836392D01*
X124485198Y-87847837D01*
X125945122Y-89307761D01*
X125946850Y-89309747D01*
X125949565Y-89315198D01*
X125981305Y-89344133D01*
X125985514Y-89348153D01*
X125997218Y-89359857D01*
X126001881Y-89363051D01*
X126005746Y-89366415D01*
X126018265Y-89377827D01*
X126026898Y-89385697D01*
X126037788Y-89389915D01*
X126044706Y-89394199D01*
X126052148Y-89397485D01*
X126061783Y-89404085D01*
X126085295Y-89409614D01*
X126101951Y-89414772D01*
X126124477Y-89423499D01*
X126136155Y-89423499D01*
X126144146Y-89424993D01*
X126152282Y-89425369D01*
X126163648Y-89428042D01*
X126187558Y-89424706D01*
X126204964Y-89423499D01*
X126707339Y-89423499D01*
X126755557Y-89433090D01*
X126782006Y-89450763D01*
X126782553Y-89449946D01*
X126841531Y-89489354D01*
X126893539Y-89499699D01*
X127779560Y-89499698D01*
X127831569Y-89489354D01*
X127890547Y-89449946D01*
X127929955Y-89390968D01*
X127940300Y-89338960D01*
X127940299Y-88948239D01*
X127929955Y-88896230D01*
X127923058Y-88885908D01*
X127918311Y-88874447D01*
X127918894Y-88874205D01*
X127906043Y-88843180D01*
X127906044Y-88794011D01*
X127918894Y-88762994D01*
X127918311Y-88762753D01*
X127923059Y-88751288D01*
X127929955Y-88740969D01*
X127940300Y-88688961D01*
X127940299Y-88298240D01*
X127929955Y-88246231D01*
X127923058Y-88235909D01*
X127918311Y-88224448D01*
X127918894Y-88224206D01*
X127906043Y-88193181D01*
X127906044Y-88144012D01*
X127918894Y-88112995D01*
X127918311Y-88112754D01*
X127923059Y-88101289D01*
X127929955Y-88090970D01*
X127940300Y-88038962D01*
X127940299Y-87648241D01*
X127929955Y-87596232D01*
X127890547Y-87537254D01*
X127831569Y-87497846D01*
X127819399Y-87495425D01*
X127819396Y-87495424D01*
X127785629Y-87488708D01*
X127779561Y-87487501D01*
X127773374Y-87487501D01*
X126899731Y-87487501D01*
X126899720Y-87487501D01*
X126893540Y-87487502D01*
X126887472Y-87488708D01*
X126887470Y-87488709D01*
X126853703Y-87495425D01*
X126853702Y-87495425D01*
X126841531Y-87497846D01*
X126831211Y-87504741D01*
X126831210Y-87504742D01*
X126792868Y-87530361D01*
X126792865Y-87530363D01*
X126782553Y-87537254D01*
X126775662Y-87547566D01*
X126775660Y-87547569D01*
X126750040Y-87585912D01*
X126750038Y-87585914D01*
X126743145Y-87596232D01*
X126740724Y-87608400D01*
X126740723Y-87608404D01*
X126735141Y-87636470D01*
X126732800Y-87648240D01*
X126732800Y-87654426D01*
X126732800Y-87654427D01*
X126732800Y-87793072D01*
X126719067Y-87850275D01*
X126680861Y-87895008D01*
X126626511Y-87917521D01*
X126567864Y-87912905D01*
X126517705Y-87882167D01*
X126453205Y-87817667D01*
X126425891Y-87776790D01*
X126416300Y-87728572D01*
X126416300Y-86223329D01*
X126425891Y-86175111D01*
X126453204Y-86134234D01*
X126540693Y-86046745D01*
X126635241Y-85952195D01*
X126679953Y-85923367D01*
X126732578Y-85915561D01*
X126783733Y-85930169D01*
X126802325Y-85940107D01*
X126802332Y-85940110D01*
X126807782Y-85943023D01*
X127001618Y-86001822D01*
X127203200Y-86021676D01*
X127404782Y-86001822D01*
X127598618Y-85943023D01*
X127777257Y-85847538D01*
X127933836Y-85719036D01*
X128062338Y-85562457D01*
X128063407Y-85563335D01*
X128105095Y-85526289D01*
X128167245Y-85512652D01*
X128228134Y-85531122D01*
X128272234Y-85576988D01*
X128288300Y-85638555D01*
X128288300Y-88007458D01*
X128288117Y-88010086D01*
X128286182Y-88015861D01*
X128286721Y-88027522D01*
X128286721Y-88027524D01*
X128288166Y-88058773D01*
X128288300Y-88064592D01*
X128288300Y-88081136D01*
X128289337Y-88086688D01*
X128289693Y-88091815D01*
X128290475Y-88108732D01*
X128290475Y-88108735D01*
X128291015Y-88120394D01*
X128295729Y-88131072D01*
X128297594Y-88138999D01*
X128300534Y-88146588D01*
X128302680Y-88158064D01*
X128315395Y-88178599D01*
X128323529Y-88194030D01*
X128326266Y-88200230D01*
X128333284Y-88216123D01*
X128341540Y-88224379D01*
X128346138Y-88231091D01*
X128351621Y-88237105D01*
X128357769Y-88247034D01*
X128372824Y-88258403D01*
X128377039Y-88261586D01*
X128390202Y-88273041D01*
X128774919Y-88657758D01*
X128776650Y-88659747D01*
X128779365Y-88665199D01*
X128811106Y-88694135D01*
X128811117Y-88694145D01*
X128815316Y-88698155D01*
X128827019Y-88709858D01*
X128831687Y-88713055D01*
X128835525Y-88716396D01*
X128856698Y-88735698D01*
X128867590Y-88739917D01*
X128874512Y-88744203D01*
X128881951Y-88747487D01*
X128891583Y-88754086D01*
X128915081Y-88759612D01*
X128915085Y-88759613D01*
X128931753Y-88764773D01*
X128954277Y-88773500D01*
X128965957Y-88773500D01*
X128973948Y-88774994D01*
X128982077Y-88775369D01*
X128993448Y-88778044D01*
X128996681Y-88777593D01*
X129033564Y-88786267D01*
X129055124Y-88801036D01*
X129055853Y-88799947D01*
X129114831Y-88839355D01*
X129166839Y-88849700D01*
X130052860Y-88849699D01*
X130104869Y-88839355D01*
X130163847Y-88799947D01*
X130203255Y-88740969D01*
X130213600Y-88688961D01*
X130213599Y-88298240D01*
X130203255Y-88246231D01*
X130196358Y-88235909D01*
X130191611Y-88224448D01*
X130192194Y-88224206D01*
X130179343Y-88193181D01*
X130179344Y-88144012D01*
X130192194Y-88112995D01*
X130191611Y-88112754D01*
X130196359Y-88101289D01*
X130203255Y-88090970D01*
X130213600Y-88038962D01*
X130213599Y-87648241D01*
X130203255Y-87596232D01*
X130163847Y-87537254D01*
X130104869Y-87497846D01*
X130092699Y-87495425D01*
X130092696Y-87495424D01*
X130058929Y-87488708D01*
X130052861Y-87487501D01*
X130046674Y-87487501D01*
X130015750Y-87487501D01*
X129952750Y-87470620D01*
X129906631Y-87424501D01*
X129889750Y-87361501D01*
X129889750Y-86111964D01*
X129900981Y-86059963D01*
X129932673Y-86017232D01*
X129979175Y-85991389D01*
X130138618Y-85943023D01*
X130317257Y-85847538D01*
X130473836Y-85719036D01*
X130509900Y-85675091D01*
X130559082Y-85638616D01*
X130619650Y-85629632D01*
X130677302Y-85650260D01*
X130718422Y-85695629D01*
X130733300Y-85755025D01*
X130733300Y-88572857D01*
X130733117Y-88575485D01*
X130731182Y-88581260D01*
X130731721Y-88592921D01*
X130731721Y-88592923D01*
X130733166Y-88624172D01*
X130733300Y-88629991D01*
X130733300Y-88646535D01*
X130734337Y-88652087D01*
X130734693Y-88657214D01*
X130735475Y-88674131D01*
X130735475Y-88674134D01*
X130736015Y-88685793D01*
X130740729Y-88696471D01*
X130742594Y-88704398D01*
X130745534Y-88711987D01*
X130747680Y-88723463D01*
X130760395Y-88743998D01*
X130768529Y-88759429D01*
X130773289Y-88770211D01*
X130778284Y-88781522D01*
X130786540Y-88789778D01*
X130791138Y-88796490D01*
X130796621Y-88802504D01*
X130802769Y-88812433D01*
X130822036Y-88826983D01*
X130835198Y-88838436D01*
X131304526Y-89307765D01*
X131306250Y-89309746D01*
X131308965Y-89315198D01*
X131340705Y-89344133D01*
X131340706Y-89344134D01*
X131344914Y-89348153D01*
X131356618Y-89359857D01*
X131361281Y-89363051D01*
X131365146Y-89366415D01*
X131377665Y-89377827D01*
X131386298Y-89385697D01*
X131397188Y-89389915D01*
X131404106Y-89394199D01*
X131411548Y-89397485D01*
X131421183Y-89404085D01*
X131444695Y-89409614D01*
X131461351Y-89414772D01*
X131483877Y-89423499D01*
X131495555Y-89423499D01*
X131503546Y-89424993D01*
X131511682Y-89425369D01*
X131523048Y-89428042D01*
X131546958Y-89424706D01*
X131564364Y-89423499D01*
X131787339Y-89423499D01*
X131835557Y-89433090D01*
X131862006Y-89450763D01*
X131862553Y-89449946D01*
X131921531Y-89489354D01*
X131973539Y-89499699D01*
X132859560Y-89499698D01*
X132911569Y-89489354D01*
X132970547Y-89449946D01*
X133009955Y-89390968D01*
X133020300Y-89338960D01*
X133020299Y-88948239D01*
X133009955Y-88896230D01*
X133003058Y-88885908D01*
X132998311Y-88874447D01*
X132998894Y-88874205D01*
X132986043Y-88843180D01*
X132986044Y-88794011D01*
X132998894Y-88762994D01*
X132998311Y-88762753D01*
X133003059Y-88751288D01*
X133009955Y-88740969D01*
X133020300Y-88688961D01*
X133020299Y-88298240D01*
X133009955Y-88246231D01*
X133003058Y-88235909D01*
X132998311Y-88224448D01*
X132998894Y-88224206D01*
X132986043Y-88193181D01*
X132986044Y-88144012D01*
X132998894Y-88112995D01*
X132998311Y-88112754D01*
X133003059Y-88101289D01*
X133009955Y-88090970D01*
X133020300Y-88038962D01*
X133020299Y-87970156D01*
X133023977Y-87956217D01*
X133020299Y-87941829D01*
X133020299Y-87648241D01*
X133009955Y-87596232D01*
X132970547Y-87537254D01*
X132911569Y-87497846D01*
X132899399Y-87495425D01*
X132899396Y-87495424D01*
X132865629Y-87488708D01*
X132859561Y-87487501D01*
X132853374Y-87487501D01*
X131979731Y-87487501D01*
X131979720Y-87487501D01*
X131973540Y-87487502D01*
X131967472Y-87488708D01*
X131967470Y-87488709D01*
X131933696Y-87495426D01*
X131933693Y-87495426D01*
X131921531Y-87497846D01*
X131918018Y-87500192D01*
X131863949Y-87508213D01*
X131806297Y-87487585D01*
X131765178Y-87442216D01*
X131750300Y-87382820D01*
X131750300Y-86071210D01*
X131763754Y-86014559D01*
X131801242Y-85970006D01*
X131854759Y-85947065D01*
X131912875Y-85950634D01*
X132081618Y-86001822D01*
X132283200Y-86021676D01*
X132484782Y-86001822D01*
X132678618Y-85943023D01*
X132857257Y-85847538D01*
X133013836Y-85719036D01*
X133049900Y-85675091D01*
X133099082Y-85638616D01*
X133159650Y-85629632D01*
X133217302Y-85650260D01*
X133258422Y-85695629D01*
X133273300Y-85755025D01*
X133273300Y-87934657D01*
X133273117Y-87937285D01*
X133271182Y-87943060D01*
X133271721Y-87954721D01*
X133271089Y-87959249D01*
X133270793Y-87959969D01*
X133272164Y-87964334D01*
X133273165Y-87985967D01*
X133273300Y-87991791D01*
X133273300Y-88008335D01*
X133274337Y-88013887D01*
X133274693Y-88019014D01*
X133275475Y-88035931D01*
X133275475Y-88035934D01*
X133276015Y-88047593D01*
X133280729Y-88058271D01*
X133282594Y-88066198D01*
X133285534Y-88073787D01*
X133287680Y-88085263D01*
X133300395Y-88105798D01*
X133308528Y-88121228D01*
X133318284Y-88143322D01*
X133326540Y-88151578D01*
X133331138Y-88158290D01*
X133336621Y-88164304D01*
X133342769Y-88174233D01*
X133358392Y-88186031D01*
X133362039Y-88188785D01*
X133375202Y-88200240D01*
X133832720Y-88657758D01*
X133834451Y-88659747D01*
X133837166Y-88665199D01*
X133868907Y-88694135D01*
X133868918Y-88694145D01*
X133873117Y-88698155D01*
X133884820Y-88709858D01*
X133889488Y-88713055D01*
X133893326Y-88716396D01*
X133914499Y-88735698D01*
X133925391Y-88739917D01*
X133932313Y-88744203D01*
X133939752Y-88747487D01*
X133949384Y-88754086D01*
X133972882Y-88759612D01*
X133972886Y-88759613D01*
X133989554Y-88764773D01*
X134012078Y-88773500D01*
X134023759Y-88773500D01*
X134031756Y-88774995D01*
X134039883Y-88775370D01*
X134051249Y-88778044D01*
X134062809Y-88776431D01*
X134069568Y-88776744D01*
X134114643Y-88787345D01*
X134134969Y-88801269D01*
X134135853Y-88799947D01*
X134194831Y-88839355D01*
X134246839Y-88849700D01*
X135132860Y-88849699D01*
X135184869Y-88839355D01*
X135243847Y-88799947D01*
X135283255Y-88740969D01*
X135293600Y-88688961D01*
X135293599Y-88298240D01*
X135283255Y-88246231D01*
X135276358Y-88235909D01*
X135271611Y-88224448D01*
X135272194Y-88224206D01*
X135259343Y-88193181D01*
X135259344Y-88144012D01*
X135272194Y-88112995D01*
X135271611Y-88112754D01*
X135276359Y-88101289D01*
X135283255Y-88090970D01*
X135293600Y-88038962D01*
X135293599Y-87648241D01*
X135283255Y-87596232D01*
X135243847Y-87537254D01*
X135184869Y-87497846D01*
X135172699Y-87495425D01*
X135172696Y-87495424D01*
X135138929Y-87488708D01*
X135132861Y-87487501D01*
X135126674Y-87487501D01*
X135095750Y-87487501D01*
X135032750Y-87470620D01*
X134986631Y-87424501D01*
X134969750Y-87361501D01*
X134969750Y-86111964D01*
X134980981Y-86059963D01*
X135012673Y-86017232D01*
X135059175Y-85991389D01*
X135218618Y-85943023D01*
X135397257Y-85847538D01*
X135553836Y-85719036D01*
X135589900Y-85675091D01*
X135639082Y-85638616D01*
X135699650Y-85629632D01*
X135757302Y-85650260D01*
X135798422Y-85695629D01*
X135813300Y-85755025D01*
X135813300Y-88420457D01*
X135813117Y-88423085D01*
X135811182Y-88428860D01*
X135811721Y-88440521D01*
X135811721Y-88440523D01*
X135813166Y-88471772D01*
X135813300Y-88477591D01*
X135813300Y-88494135D01*
X135814337Y-88499687D01*
X135814693Y-88504814D01*
X135815475Y-88521731D01*
X135815475Y-88521734D01*
X135816015Y-88533393D01*
X135820729Y-88544071D01*
X135822594Y-88551998D01*
X135825534Y-88559587D01*
X135827680Y-88571063D01*
X135840395Y-88591598D01*
X135848529Y-88607029D01*
X135851857Y-88614568D01*
X135858284Y-88629122D01*
X135866540Y-88637378D01*
X135871138Y-88644090D01*
X135876621Y-88650104D01*
X135882769Y-88660033D01*
X135902036Y-88674583D01*
X135915198Y-88686036D01*
X136536926Y-89307765D01*
X136538650Y-89309746D01*
X136541365Y-89315198D01*
X136573105Y-89344133D01*
X136573106Y-89344134D01*
X136577314Y-89348153D01*
X136589018Y-89359857D01*
X136593681Y-89363051D01*
X136597546Y-89366415D01*
X136610065Y-89377827D01*
X136618698Y-89385697D01*
X136629588Y-89389915D01*
X136636506Y-89394199D01*
X136643948Y-89397485D01*
X136653583Y-89404085D01*
X136677095Y-89409614D01*
X136693751Y-89414772D01*
X136716277Y-89423499D01*
X136727955Y-89423499D01*
X136735946Y-89424993D01*
X136744082Y-89425369D01*
X136755448Y-89428042D01*
X136779358Y-89424706D01*
X136796764Y-89423499D01*
X136867339Y-89423499D01*
X136915557Y-89433090D01*
X136942006Y-89450763D01*
X136942553Y-89449946D01*
X137001531Y-89489354D01*
X137053539Y-89499699D01*
X137939560Y-89499698D01*
X137991569Y-89489354D01*
X138050547Y-89449946D01*
X138089955Y-89390968D01*
X138100300Y-89338960D01*
X138100299Y-88948239D01*
X138089955Y-88896230D01*
X138083058Y-88885908D01*
X138078311Y-88874447D01*
X138078894Y-88874205D01*
X138066043Y-88843180D01*
X138066044Y-88794011D01*
X138078894Y-88762994D01*
X138078311Y-88762753D01*
X138083059Y-88751288D01*
X138089955Y-88740969D01*
X138100300Y-88688961D01*
X138100299Y-88298240D01*
X138089955Y-88246231D01*
X138083058Y-88235909D01*
X138078311Y-88224448D01*
X138078894Y-88224206D01*
X138066043Y-88193181D01*
X138066044Y-88144012D01*
X138078894Y-88112995D01*
X138078311Y-88112754D01*
X138083059Y-88101289D01*
X138089955Y-88090970D01*
X138100300Y-88038962D01*
X138100299Y-87648241D01*
X138089955Y-87596232D01*
X138050547Y-87537254D01*
X137991569Y-87497846D01*
X137979399Y-87495425D01*
X137979396Y-87495424D01*
X137945629Y-87488708D01*
X137939561Y-87487501D01*
X137933374Y-87487501D01*
X137059731Y-87487501D01*
X137059720Y-87487501D01*
X137053540Y-87487502D01*
X137047472Y-87488708D01*
X137047460Y-87488710D01*
X137006279Y-87496901D01*
X136951083Y-87495546D01*
X136901766Y-87470721D01*
X136867797Y-87427193D01*
X136855700Y-87373322D01*
X136855700Y-86078915D01*
X136869154Y-86022264D01*
X136906642Y-85977711D01*
X136960159Y-85954770D01*
X137018275Y-85958339D01*
X137161618Y-86001822D01*
X137363200Y-86021676D01*
X137564782Y-86001822D01*
X137758618Y-85943023D01*
X137937257Y-85847538D01*
X138093836Y-85719036D01*
X138155301Y-85644140D01*
X138204482Y-85607666D01*
X138265050Y-85598682D01*
X138322702Y-85619310D01*
X138363822Y-85664679D01*
X138378700Y-85724075D01*
X138378700Y-87887858D01*
X138378517Y-87890486D01*
X138376582Y-87896261D01*
X138377121Y-87907922D01*
X138377121Y-87907924D01*
X138378566Y-87939173D01*
X138378700Y-87944992D01*
X138378700Y-87961536D01*
X138379737Y-87967088D01*
X138380093Y-87972215D01*
X138380875Y-87989132D01*
X138380875Y-87989135D01*
X138381415Y-88000794D01*
X138386129Y-88011472D01*
X138387994Y-88019399D01*
X138390934Y-88026988D01*
X138393080Y-88038464D01*
X138405795Y-88058999D01*
X138413928Y-88074429D01*
X138423684Y-88096523D01*
X138431940Y-88104779D01*
X138436538Y-88111491D01*
X138442021Y-88117505D01*
X138448169Y-88127434D01*
X138466279Y-88141110D01*
X138467439Y-88141986D01*
X138480602Y-88153441D01*
X138984919Y-88657758D01*
X138986650Y-88659747D01*
X138989365Y-88665199D01*
X139021106Y-88694135D01*
X139021117Y-88694145D01*
X139025316Y-88698155D01*
X139037019Y-88709858D01*
X139041687Y-88713055D01*
X139045525Y-88716396D01*
X139066698Y-88735698D01*
X139077590Y-88739917D01*
X139084512Y-88744203D01*
X139091951Y-88747487D01*
X139101583Y-88754086D01*
X139125081Y-88759612D01*
X139125085Y-88759613D01*
X139141753Y-88764773D01*
X139164277Y-88773500D01*
X139167806Y-88773500D01*
X139193954Y-88782601D01*
X139214267Y-88797574D01*
X139215853Y-88799947D01*
X139274831Y-88839355D01*
X139326839Y-88849700D01*
X140212860Y-88849699D01*
X140264869Y-88839355D01*
X140323847Y-88799947D01*
X140363255Y-88740969D01*
X140373600Y-88688961D01*
X140373599Y-88298240D01*
X140363255Y-88246231D01*
X140356358Y-88235909D01*
X140351611Y-88224448D01*
X140352194Y-88224206D01*
X140339343Y-88193181D01*
X140339344Y-88144012D01*
X140352194Y-88112995D01*
X140351611Y-88112754D01*
X140356359Y-88101289D01*
X140363255Y-88090970D01*
X140373600Y-88038962D01*
X140373599Y-87648241D01*
X140363255Y-87596232D01*
X140323847Y-87537254D01*
X140264869Y-87497846D01*
X140252699Y-87495425D01*
X140252696Y-87495424D01*
X140218929Y-87488708D01*
X140212861Y-87487501D01*
X140206674Y-87487501D01*
X140175750Y-87487501D01*
X140112750Y-87470620D01*
X140066631Y-87424501D01*
X140049750Y-87361501D01*
X140049750Y-86111964D01*
X140060981Y-86059963D01*
X140092673Y-86017232D01*
X140139175Y-85991389D01*
X140298618Y-85943023D01*
X140477257Y-85847538D01*
X140633836Y-85719036D01*
X140669900Y-85675091D01*
X140719082Y-85638616D01*
X140779650Y-85629632D01*
X140837302Y-85650260D01*
X140878422Y-85695629D01*
X140893300Y-85755025D01*
X140893300Y-88317956D01*
X140893117Y-88320584D01*
X140891182Y-88326359D01*
X140891721Y-88338020D01*
X140891721Y-88338022D01*
X140893166Y-88369271D01*
X140893300Y-88375090D01*
X140893300Y-88391634D01*
X140894337Y-88397186D01*
X140894693Y-88402313D01*
X140895475Y-88419230D01*
X140895475Y-88419233D01*
X140896015Y-88430892D01*
X140900729Y-88441570D01*
X140902594Y-88449497D01*
X140905534Y-88457086D01*
X140907680Y-88468562D01*
X140920395Y-88489097D01*
X140928528Y-88504527D01*
X140938284Y-88526621D01*
X140946540Y-88534877D01*
X140951138Y-88541589D01*
X140956621Y-88547603D01*
X140962769Y-88557532D01*
X140973902Y-88565939D01*
X140982039Y-88572084D01*
X140995202Y-88583539D01*
X141719420Y-89307757D01*
X141721151Y-89309746D01*
X141723866Y-89315198D01*
X141755606Y-89344133D01*
X141755618Y-89344144D01*
X141759817Y-89348154D01*
X141771520Y-89359857D01*
X141776188Y-89363054D01*
X141780026Y-89366395D01*
X141801199Y-89385697D01*
X141812091Y-89389916D01*
X141819013Y-89394202D01*
X141826452Y-89397486D01*
X141836084Y-89404085D01*
X141859582Y-89409611D01*
X141859586Y-89409612D01*
X141876254Y-89414772D01*
X141898778Y-89423499D01*
X141910459Y-89423499D01*
X141918456Y-89424994D01*
X141926583Y-89425369D01*
X141937949Y-89428043D01*
X141949509Y-89426430D01*
X141956268Y-89426743D01*
X142001343Y-89437344D01*
X142021669Y-89451268D01*
X142022553Y-89449946D01*
X142081531Y-89489354D01*
X142133539Y-89499699D01*
X143019560Y-89499698D01*
X143071569Y-89489354D01*
X143130547Y-89449946D01*
X143169955Y-89390968D01*
X143180300Y-89338960D01*
X143180299Y-88948239D01*
X143169955Y-88896230D01*
X143163058Y-88885908D01*
X143158311Y-88874447D01*
X143158894Y-88874205D01*
X143146043Y-88843180D01*
X143146044Y-88794011D01*
X143158894Y-88762994D01*
X143158311Y-88762753D01*
X143163059Y-88751288D01*
X143169955Y-88740969D01*
X143180300Y-88688961D01*
X143180299Y-88298240D01*
X143169955Y-88246231D01*
X143163058Y-88235909D01*
X143158311Y-88224448D01*
X143158894Y-88224206D01*
X143146043Y-88193181D01*
X143146044Y-88144012D01*
X143158894Y-88112995D01*
X143158311Y-88112754D01*
X143163059Y-88101289D01*
X143169955Y-88090970D01*
X143180300Y-88038962D01*
X143180299Y-87648241D01*
X143169955Y-87596232D01*
X143130547Y-87537254D01*
X143071569Y-87497846D01*
X143059399Y-87495425D01*
X143059396Y-87495424D01*
X143025629Y-87488708D01*
X143019561Y-87487501D01*
X143013374Y-87487501D01*
X142139731Y-87487501D01*
X142139720Y-87487501D01*
X142133540Y-87487502D01*
X142127472Y-87488708D01*
X142127470Y-87488709D01*
X142093703Y-87495425D01*
X142093702Y-87495425D01*
X142081531Y-87497846D01*
X142071211Y-87504741D01*
X142071210Y-87504742D01*
X142059395Y-87512637D01*
X141995576Y-87533720D01*
X141929997Y-87518994D01*
X141881319Y-87472649D01*
X141863393Y-87407872D01*
X141863393Y-86054563D01*
X141878271Y-85995167D01*
X141919391Y-85949798D01*
X141977042Y-85929170D01*
X142037610Y-85938154D01*
X142042331Y-85940109D01*
X142047782Y-85943023D01*
X142241618Y-86001822D01*
X142443200Y-86021676D01*
X142644782Y-86001822D01*
X142838618Y-85943023D01*
X143017257Y-85847538D01*
X143173836Y-85719036D01*
X143209900Y-85675091D01*
X143259082Y-85638616D01*
X143319650Y-85629632D01*
X143377302Y-85650260D01*
X143418422Y-85695629D01*
X143433300Y-85755025D01*
X143433300Y-88191857D01*
X143433117Y-88194485D01*
X143431182Y-88200260D01*
X143431721Y-88211921D01*
X143431721Y-88211923D01*
X143433166Y-88243172D01*
X143433300Y-88248991D01*
X143433300Y-88265535D01*
X143434337Y-88271087D01*
X143434693Y-88276214D01*
X143435475Y-88293131D01*
X143435475Y-88293134D01*
X143436015Y-88304793D01*
X143440729Y-88315471D01*
X143442594Y-88323398D01*
X143445534Y-88330987D01*
X143447680Y-88342463D01*
X143460395Y-88362998D01*
X143468529Y-88378429D01*
X143472764Y-88388022D01*
X143478284Y-88400522D01*
X143486540Y-88408778D01*
X143491138Y-88415490D01*
X143496621Y-88421504D01*
X143502769Y-88431433D01*
X143522036Y-88445983D01*
X143535197Y-88457435D01*
X143635900Y-88558139D01*
X143735527Y-88657766D01*
X143737251Y-88659747D01*
X143739966Y-88665199D01*
X143771707Y-88694135D01*
X143775915Y-88698154D01*
X143787619Y-88709858D01*
X143792282Y-88713052D01*
X143796147Y-88716416D01*
X143803878Y-88723463D01*
X143817299Y-88735698D01*
X143828189Y-88739916D01*
X143835107Y-88744200D01*
X143842549Y-88747486D01*
X143852184Y-88754086D01*
X143875696Y-88759615D01*
X143892352Y-88764773D01*
X143914878Y-88773500D01*
X143926556Y-88773500D01*
X143934547Y-88774994D01*
X143942683Y-88775370D01*
X143954049Y-88778043D01*
X143977959Y-88774707D01*
X143995365Y-88773500D01*
X144220639Y-88773500D01*
X144268857Y-88783091D01*
X144295306Y-88800764D01*
X144295853Y-88799947D01*
X144354831Y-88839355D01*
X144406839Y-88849700D01*
X145292860Y-88849699D01*
X145344869Y-88839355D01*
X145403847Y-88799947D01*
X145443255Y-88740969D01*
X145453600Y-88688961D01*
X145453599Y-88298240D01*
X145443255Y-88246231D01*
X145436358Y-88235909D01*
X145431611Y-88224448D01*
X145432194Y-88224206D01*
X145419343Y-88193181D01*
X145419344Y-88144012D01*
X145432194Y-88112995D01*
X145431611Y-88112754D01*
X145436359Y-88101289D01*
X145443255Y-88090970D01*
X145453600Y-88038962D01*
X145453599Y-87648241D01*
X145443255Y-87596232D01*
X145403847Y-87537254D01*
X145344869Y-87497846D01*
X145332699Y-87495425D01*
X145332696Y-87495424D01*
X145298929Y-87488708D01*
X145292861Y-87487501D01*
X145286674Y-87487501D01*
X145255750Y-87487501D01*
X145192750Y-87470620D01*
X145146631Y-87424501D01*
X145129750Y-87361501D01*
X145129750Y-86111964D01*
X145140981Y-86059963D01*
X145172673Y-86017232D01*
X145219175Y-85991389D01*
X145378618Y-85943023D01*
X145557257Y-85847538D01*
X145713836Y-85719036D01*
X145724501Y-85706040D01*
X145773683Y-85669566D01*
X145834251Y-85660582D01*
X145891902Y-85681210D01*
X145933022Y-85726579D01*
X145947900Y-85785975D01*
X145947900Y-88292556D01*
X145947717Y-88295184D01*
X145945782Y-88300959D01*
X145946321Y-88312620D01*
X145946321Y-88312622D01*
X145947766Y-88343871D01*
X145947900Y-88349690D01*
X145947900Y-88366234D01*
X145948937Y-88371786D01*
X145949293Y-88376913D01*
X145950075Y-88393830D01*
X145950075Y-88393833D01*
X145950615Y-88405492D01*
X145955329Y-88416170D01*
X145957194Y-88424097D01*
X145960134Y-88431686D01*
X145962280Y-88443162D01*
X145974995Y-88463697D01*
X145983128Y-88479127D01*
X145992884Y-88501221D01*
X146001140Y-88509477D01*
X146005738Y-88516189D01*
X146011221Y-88522203D01*
X146017369Y-88532132D01*
X146036434Y-88546529D01*
X146036639Y-88546684D01*
X146049802Y-88558139D01*
X146799420Y-89307757D01*
X146801151Y-89309746D01*
X146803866Y-89315198D01*
X146835606Y-89344133D01*
X146835618Y-89344144D01*
X146839817Y-89348154D01*
X146851520Y-89359857D01*
X146856188Y-89363054D01*
X146860026Y-89366395D01*
X146881199Y-89385697D01*
X146892091Y-89389916D01*
X146899013Y-89394202D01*
X146906452Y-89397486D01*
X146916084Y-89404085D01*
X146939582Y-89409611D01*
X146939586Y-89409612D01*
X146956254Y-89414772D01*
X146978778Y-89423499D01*
X146990459Y-89423499D01*
X146998456Y-89424994D01*
X147006583Y-89425369D01*
X147017949Y-89428043D01*
X147029509Y-89426430D01*
X147036268Y-89426743D01*
X147081343Y-89437344D01*
X147101669Y-89451268D01*
X147102553Y-89449946D01*
X147161531Y-89489354D01*
X147213539Y-89499699D01*
X148099560Y-89499698D01*
X148151569Y-89489354D01*
X148210547Y-89449946D01*
X148249955Y-89390968D01*
X148260300Y-89338960D01*
X148260299Y-88948239D01*
X148249955Y-88896230D01*
X148243058Y-88885908D01*
X148238311Y-88874447D01*
X148238894Y-88874205D01*
X148226043Y-88843180D01*
X148226044Y-88794011D01*
X148238894Y-88762994D01*
X148238311Y-88762753D01*
X148243059Y-88751288D01*
X148249955Y-88740969D01*
X148260300Y-88688961D01*
X148260299Y-88298240D01*
X148249955Y-88246231D01*
X148243058Y-88235909D01*
X148238311Y-88224448D01*
X148238894Y-88224206D01*
X148226043Y-88193181D01*
X148226044Y-88144012D01*
X148238894Y-88112995D01*
X148238311Y-88112754D01*
X148243059Y-88101289D01*
X148249955Y-88090970D01*
X148260300Y-88038962D01*
X148260299Y-87970156D01*
X148263977Y-87956217D01*
X148260299Y-87941829D01*
X148260299Y-87648241D01*
X148249955Y-87596232D01*
X148210547Y-87537254D01*
X148151569Y-87497846D01*
X148139399Y-87495425D01*
X148139396Y-87495424D01*
X148105629Y-87488708D01*
X148099561Y-87487501D01*
X148093374Y-87487501D01*
X147219731Y-87487501D01*
X147219720Y-87487501D01*
X147213540Y-87487502D01*
X147207472Y-87488708D01*
X147207460Y-87488710D01*
X147166279Y-87496901D01*
X147111083Y-87495546D01*
X147061766Y-87470721D01*
X147027797Y-87427193D01*
X147015700Y-87373322D01*
X147015700Y-86078915D01*
X147029154Y-86022264D01*
X147066642Y-85977711D01*
X147120159Y-85954770D01*
X147178275Y-85958339D01*
X147321618Y-86001822D01*
X147523200Y-86021676D01*
X147724782Y-86001822D01*
X147918618Y-85943023D01*
X148097257Y-85847538D01*
X148253836Y-85719036D01*
X148289900Y-85675091D01*
X148339082Y-85638616D01*
X148399650Y-85629632D01*
X148457302Y-85650260D01*
X148498422Y-85695629D01*
X148513300Y-85755025D01*
X148513300Y-87934657D01*
X148513117Y-87937285D01*
X148511182Y-87943060D01*
X148511721Y-87954721D01*
X148511089Y-87959249D01*
X148510793Y-87959969D01*
X148512164Y-87964334D01*
X148513165Y-87985967D01*
X148513300Y-87991791D01*
X148513300Y-88008335D01*
X148514337Y-88013887D01*
X148514693Y-88019014D01*
X148515475Y-88035931D01*
X148515475Y-88035934D01*
X148516015Y-88047593D01*
X148520729Y-88058271D01*
X148522594Y-88066198D01*
X148525534Y-88073787D01*
X148527680Y-88085263D01*
X148540395Y-88105798D01*
X148548528Y-88121228D01*
X148558284Y-88143322D01*
X148566540Y-88151578D01*
X148571138Y-88158290D01*
X148576621Y-88164304D01*
X148582769Y-88174233D01*
X148598392Y-88186031D01*
X148602039Y-88188785D01*
X148615202Y-88200240D01*
X149072720Y-88657758D01*
X149074451Y-88659747D01*
X149077166Y-88665199D01*
X149108907Y-88694135D01*
X149108918Y-88694145D01*
X149113117Y-88698155D01*
X149124820Y-88709858D01*
X149129488Y-88713055D01*
X149133326Y-88716396D01*
X149154499Y-88735698D01*
X149165391Y-88739917D01*
X149172313Y-88744203D01*
X149179752Y-88747487D01*
X149189384Y-88754086D01*
X149212882Y-88759612D01*
X149212886Y-88759613D01*
X149229554Y-88764773D01*
X149252078Y-88773500D01*
X149263759Y-88773500D01*
X149271756Y-88774995D01*
X149279883Y-88775370D01*
X149291249Y-88778044D01*
X149302809Y-88776431D01*
X149309568Y-88776744D01*
X149354643Y-88787345D01*
X149374969Y-88801269D01*
X149375853Y-88799947D01*
X149434831Y-88839355D01*
X149486839Y-88849700D01*
X150372860Y-88849699D01*
X150424869Y-88839355D01*
X150483847Y-88799947D01*
X150523255Y-88740969D01*
X150533600Y-88688961D01*
X150533599Y-88298240D01*
X150523255Y-88246231D01*
X150516358Y-88235909D01*
X150511611Y-88224448D01*
X150512194Y-88224206D01*
X150499343Y-88193181D01*
X150499344Y-88144012D01*
X150512194Y-88112995D01*
X150511611Y-88112754D01*
X150516359Y-88101289D01*
X150523255Y-88090970D01*
X150533600Y-88038962D01*
X150533599Y-87648241D01*
X150523255Y-87596232D01*
X150483847Y-87537254D01*
X150424869Y-87497846D01*
X150412699Y-87495425D01*
X150412696Y-87495424D01*
X150378929Y-87488708D01*
X150372861Y-87487501D01*
X150366674Y-87487501D01*
X149493031Y-87487501D01*
X149493020Y-87487501D01*
X149486840Y-87487502D01*
X149480772Y-87488708D01*
X149480770Y-87488709D01*
X149447003Y-87495425D01*
X149447002Y-87495425D01*
X149434831Y-87497846D01*
X149424511Y-87504741D01*
X149424510Y-87504742D01*
X149386168Y-87530361D01*
X149386165Y-87530363D01*
X149375853Y-87537254D01*
X149368962Y-87547566D01*
X149368960Y-87547569D01*
X149343340Y-87585912D01*
X149343338Y-87585914D01*
X149336445Y-87596232D01*
X149334024Y-87608400D01*
X149334023Y-87608404D01*
X149328441Y-87636470D01*
X149326100Y-87648240D01*
X149326100Y-87654426D01*
X149326100Y-87654427D01*
X149326100Y-87815272D01*
X149312367Y-87872475D01*
X149274161Y-87917208D01*
X149219811Y-87939721D01*
X149161164Y-87935105D01*
X149111005Y-87904367D01*
X149110005Y-87903367D01*
X149082691Y-87862490D01*
X149073100Y-87814272D01*
X149073100Y-85755025D01*
X149087978Y-85695629D01*
X149129098Y-85650260D01*
X149186750Y-85629632D01*
X149247318Y-85638616D01*
X149296499Y-85675091D01*
X149332564Y-85719036D01*
X149489143Y-85847538D01*
X149667782Y-85943023D01*
X149861618Y-86001822D01*
X150063200Y-86021676D01*
X150264782Y-86001822D01*
X150458618Y-85943023D01*
X150482666Y-85930168D01*
X150533817Y-85915560D01*
X150586443Y-85923365D01*
X150631156Y-85952194D01*
X150824571Y-86145610D01*
X151016396Y-86337435D01*
X151043709Y-86378312D01*
X151053300Y-86426530D01*
X151053300Y-88367956D01*
X151053117Y-88370584D01*
X151051182Y-88376359D01*
X151051721Y-88388020D01*
X151051721Y-88388022D01*
X151053166Y-88419271D01*
X151053300Y-88425090D01*
X151053300Y-88441634D01*
X151054337Y-88447186D01*
X151054693Y-88452313D01*
X151055475Y-88469230D01*
X151055475Y-88469233D01*
X151056015Y-88480892D01*
X151060729Y-88491570D01*
X151062594Y-88499497D01*
X151065534Y-88507086D01*
X151067680Y-88518562D01*
X151080395Y-88539097D01*
X151088528Y-88554527D01*
X151098284Y-88576621D01*
X151106540Y-88584877D01*
X151111138Y-88591589D01*
X151116621Y-88597603D01*
X151122769Y-88607532D01*
X151142039Y-88622084D01*
X151155202Y-88633539D01*
X151829420Y-89307757D01*
X151831151Y-89309746D01*
X151833866Y-89315198D01*
X151865606Y-89344133D01*
X151865618Y-89344144D01*
X151869817Y-89348154D01*
X151881520Y-89359857D01*
X151886188Y-89363054D01*
X151890026Y-89366395D01*
X151911199Y-89385697D01*
X151922091Y-89389916D01*
X151929013Y-89394202D01*
X151936452Y-89397486D01*
X151946084Y-89404085D01*
X151969582Y-89409611D01*
X151969586Y-89409612D01*
X151986254Y-89414772D01*
X152008778Y-89423499D01*
X152020459Y-89423499D01*
X152028456Y-89424994D01*
X152036583Y-89425369D01*
X152047949Y-89428043D01*
X152071864Y-89424707D01*
X152089272Y-89423499D01*
X152107339Y-89423499D01*
X152155557Y-89433090D01*
X152182006Y-89450763D01*
X152182553Y-89449946D01*
X152241531Y-89489354D01*
X152293539Y-89499699D01*
X153179560Y-89499698D01*
X153231569Y-89489354D01*
X153290547Y-89449946D01*
X153329955Y-89390968D01*
X153340300Y-89338960D01*
X153340299Y-88948239D01*
X153329955Y-88896230D01*
X153323058Y-88885908D01*
X153318311Y-88874447D01*
X153318894Y-88874205D01*
X153306043Y-88843180D01*
X153306044Y-88794011D01*
X153318894Y-88762994D01*
X153318311Y-88762753D01*
X153323059Y-88751288D01*
X153329955Y-88740969D01*
X153340300Y-88688961D01*
X153340299Y-88298240D01*
X153329955Y-88246231D01*
X153323058Y-88235909D01*
X153318311Y-88224448D01*
X153318894Y-88224206D01*
X153306043Y-88193181D01*
X153306044Y-88144012D01*
X153318894Y-88112995D01*
X153318311Y-88112754D01*
X153323059Y-88101289D01*
X153329955Y-88090970D01*
X153340300Y-88038962D01*
X153340299Y-87648241D01*
X153329955Y-87596232D01*
X153290547Y-87537254D01*
X153231569Y-87497846D01*
X153219399Y-87495425D01*
X153219396Y-87495424D01*
X153185629Y-87488708D01*
X153179561Y-87487501D01*
X153173374Y-87487501D01*
X152299731Y-87487501D01*
X152299720Y-87487501D01*
X152293540Y-87487502D01*
X152287472Y-87488708D01*
X152287470Y-87488709D01*
X152253703Y-87495425D01*
X152253702Y-87495425D01*
X152241531Y-87497846D01*
X152231211Y-87504741D01*
X152231210Y-87504742D01*
X152192868Y-87530361D01*
X152192865Y-87530363D01*
X152182553Y-87537254D01*
X152175662Y-87547566D01*
X152175660Y-87547569D01*
X152150040Y-87585912D01*
X152150038Y-87585914D01*
X152143145Y-87596232D01*
X152140724Y-87608400D01*
X152140723Y-87608404D01*
X152135141Y-87636470D01*
X152132800Y-87648240D01*
X152132800Y-87654425D01*
X152132800Y-87654426D01*
X152132800Y-88032769D01*
X152132801Y-88032775D01*
X152132801Y-88038961D01*
X152143145Y-88090970D01*
X152150041Y-88101290D01*
X152154789Y-88112753D01*
X152154205Y-88112994D01*
X152167055Y-88144016D01*
X152167057Y-88193177D01*
X152154206Y-88224205D01*
X152154789Y-88224447D01*
X152150039Y-88235912D01*
X152143145Y-88246231D01*
X152140724Y-88258399D01*
X152140723Y-88258403D01*
X152137812Y-88273041D01*
X152132800Y-88298239D01*
X152132800Y-88304425D01*
X152132800Y-88304426D01*
X152132800Y-88515271D01*
X152119067Y-88572474D01*
X152080861Y-88617207D01*
X152026511Y-88639720D01*
X151967864Y-88635104D01*
X151917705Y-88604366D01*
X151650005Y-88336666D01*
X151622691Y-88295789D01*
X151613100Y-88247571D01*
X151613100Y-86306136D01*
X151613282Y-86303512D01*
X151615217Y-86297740D01*
X151613233Y-86254840D01*
X151613100Y-86249023D01*
X151613100Y-86238291D01*
X151613100Y-86232465D01*
X151612060Y-86226909D01*
X151611706Y-86221815D01*
X151610385Y-86193207D01*
X151605669Y-86182526D01*
X151603806Y-86174604D01*
X151600865Y-86167013D01*
X151598720Y-86155537D01*
X151586009Y-86135009D01*
X151577869Y-86119566D01*
X151572832Y-86108159D01*
X151572831Y-86108158D01*
X151568116Y-86097478D01*
X151559859Y-86089221D01*
X151555262Y-86082510D01*
X151549777Y-86076493D01*
X151543631Y-86066567D01*
X151534313Y-86059530D01*
X151534312Y-86059529D01*
X151524359Y-86052013D01*
X151511197Y-86040559D01*
X151026995Y-85556357D01*
X150998166Y-85511645D01*
X150990360Y-85459020D01*
X151004968Y-85407867D01*
X151017823Y-85383818D01*
X151076622Y-85189982D01*
X151096476Y-84988400D01*
X154109924Y-84988400D01*
X154129778Y-85189982D01*
X154188577Y-85383818D01*
X154284062Y-85562457D01*
X154287987Y-85567239D01*
X154287988Y-85567241D01*
X154364592Y-85660582D01*
X154412564Y-85719036D01*
X154569143Y-85847538D01*
X154747782Y-85943023D01*
X154941618Y-86001822D01*
X155143200Y-86021676D01*
X155344782Y-86001822D01*
X155538618Y-85943023D01*
X155562666Y-85930168D01*
X155613817Y-85915560D01*
X155666443Y-85923365D01*
X155711156Y-85952194D01*
X155904571Y-86145610D01*
X156096396Y-86337435D01*
X156123709Y-86378312D01*
X156133300Y-86426530D01*
X156133300Y-87525372D01*
X156123709Y-87573590D01*
X156096397Y-87614464D01*
X155848372Y-87862490D01*
X155600992Y-88109870D01*
X155548474Y-88141348D01*
X155487317Y-88144353D01*
X155458931Y-88138707D01*
X155458927Y-88138706D01*
X155452861Y-88137500D01*
X155446674Y-88137500D01*
X154573031Y-88137500D01*
X154573020Y-88137500D01*
X154566840Y-88137501D01*
X154560772Y-88138707D01*
X154560770Y-88138708D01*
X154527003Y-88145424D01*
X154527002Y-88145424D01*
X154514831Y-88147845D01*
X154504511Y-88154740D01*
X154504510Y-88154741D01*
X154466168Y-88180360D01*
X154466165Y-88180362D01*
X154455853Y-88187253D01*
X154448962Y-88197565D01*
X154448960Y-88197568D01*
X154423340Y-88235911D01*
X154423338Y-88235913D01*
X154416445Y-88246231D01*
X154414024Y-88258399D01*
X154414023Y-88258403D01*
X154411112Y-88273041D01*
X154406100Y-88298239D01*
X154406100Y-88304424D01*
X154406100Y-88304425D01*
X154406100Y-88682768D01*
X154406101Y-88682774D01*
X154406101Y-88688960D01*
X154416445Y-88740969D01*
X154455853Y-88799947D01*
X154514831Y-88839355D01*
X154566839Y-88849700D01*
X155452860Y-88849699D01*
X155504869Y-88839355D01*
X155563847Y-88799947D01*
X155564170Y-88800430D01*
X155585513Y-88785443D01*
X155627433Y-88774035D01*
X155633205Y-88773500D01*
X155639036Y-88773500D01*
X155644591Y-88772461D01*
X155649676Y-88772107D01*
X155678294Y-88770785D01*
X155688980Y-88766066D01*
X155696901Y-88764203D01*
X155704482Y-88761266D01*
X155715964Y-88759120D01*
X155736491Y-88746408D01*
X155751930Y-88738270D01*
X155774023Y-88728516D01*
X155782283Y-88720254D01*
X155788991Y-88715660D01*
X155795001Y-88710180D01*
X155804934Y-88704031D01*
X155819489Y-88684755D01*
X155830936Y-88671601D01*
X156577365Y-87925172D01*
X156579344Y-87923450D01*
X156584799Y-87920735D01*
X156600632Y-87903367D01*
X156613734Y-87888995D01*
X156617758Y-87884780D01*
X156620371Y-87882167D01*
X156629458Y-87873081D01*
X156632652Y-87868416D01*
X156635977Y-87864593D01*
X156655298Y-87843402D01*
X156659518Y-87832506D01*
X156663799Y-87825593D01*
X156667084Y-87818153D01*
X156673686Y-87808517D01*
X156679215Y-87785003D01*
X156684372Y-87768349D01*
X156693100Y-87745823D01*
X156693100Y-87734145D01*
X156694595Y-87726148D01*
X156694970Y-87718017D01*
X156697644Y-87706652D01*
X156694308Y-87682736D01*
X156693100Y-87665329D01*
X156693100Y-86306136D01*
X156693282Y-86303512D01*
X156695217Y-86297740D01*
X156693233Y-86254840D01*
X156693100Y-86249023D01*
X156693100Y-86238291D01*
X156693100Y-86232465D01*
X156692060Y-86226909D01*
X156691706Y-86221815D01*
X156690385Y-86193207D01*
X156685669Y-86182526D01*
X156683806Y-86174604D01*
X156680865Y-86167013D01*
X156678720Y-86155537D01*
X156666009Y-86135009D01*
X156657869Y-86119566D01*
X156652832Y-86108159D01*
X156652831Y-86108158D01*
X156648116Y-86097478D01*
X156639859Y-86089221D01*
X156635262Y-86082510D01*
X156629777Y-86076493D01*
X156623631Y-86066567D01*
X156614313Y-86059530D01*
X156614312Y-86059529D01*
X156604359Y-86052013D01*
X156591197Y-86040559D01*
X156106995Y-85556357D01*
X156078166Y-85511645D01*
X156070360Y-85459020D01*
X156084968Y-85407867D01*
X156097823Y-85383818D01*
X156156622Y-85189982D01*
X156176476Y-84988400D01*
X156156622Y-84786818D01*
X156097823Y-84592982D01*
X156002338Y-84414343D01*
X155873836Y-84257764D01*
X155717257Y-84129262D01*
X155538618Y-84033777D01*
X155532697Y-84031981D01*
X155532695Y-84031980D01*
X155350704Y-83976774D01*
X155350700Y-83976773D01*
X155344782Y-83974978D01*
X155143200Y-83955124D01*
X155137037Y-83955731D01*
X154947780Y-83974371D01*
X154947779Y-83974371D01*
X154941618Y-83974978D01*
X154935701Y-83976772D01*
X154935695Y-83976774D01*
X154753704Y-84031980D01*
X154753698Y-84031982D01*
X154747782Y-84033777D01*
X154742324Y-84036694D01*
X154742320Y-84036696D01*
X154596255Y-84114770D01*
X154569143Y-84129262D01*
X154564362Y-84133186D01*
X154417343Y-84253841D01*
X154417337Y-84253846D01*
X154412564Y-84257764D01*
X154408646Y-84262537D01*
X154408641Y-84262543D01*
X154287988Y-84409558D01*
X154287983Y-84409564D01*
X154284062Y-84414343D01*
X154281144Y-84419801D01*
X154281144Y-84419802D01*
X154191496Y-84587520D01*
X154191494Y-84587524D01*
X154188577Y-84592982D01*
X154186782Y-84598898D01*
X154186780Y-84598904D01*
X154131574Y-84780895D01*
X154131572Y-84780901D01*
X154129778Y-84786818D01*
X154109924Y-84988400D01*
X151096476Y-84988400D01*
X151076622Y-84786818D01*
X151017823Y-84592982D01*
X150922338Y-84414343D01*
X150793836Y-84257764D01*
X150637257Y-84129262D01*
X150458618Y-84033777D01*
X150452697Y-84031981D01*
X150452695Y-84031980D01*
X150270704Y-83976774D01*
X150270700Y-83976773D01*
X150264782Y-83974978D01*
X150063200Y-83955124D01*
X150057037Y-83955731D01*
X149867780Y-83974371D01*
X149867779Y-83974371D01*
X149861618Y-83974978D01*
X149855701Y-83976772D01*
X149855695Y-83976774D01*
X149673704Y-84031980D01*
X149673698Y-84031982D01*
X149667782Y-84033777D01*
X149662324Y-84036694D01*
X149662320Y-84036696D01*
X149516255Y-84114770D01*
X149489143Y-84129262D01*
X149484362Y-84133186D01*
X149337343Y-84253841D01*
X149337337Y-84253846D01*
X149332564Y-84257764D01*
X149328646Y-84262537D01*
X149328641Y-84262543D01*
X149296499Y-84301709D01*
X149247318Y-84338184D01*
X149186750Y-84347168D01*
X149129098Y-84326540D01*
X149087978Y-84281171D01*
X149073100Y-84221775D01*
X149073100Y-83766136D01*
X149073282Y-83763512D01*
X149075217Y-83757740D01*
X149073233Y-83714840D01*
X149073100Y-83709023D01*
X149073100Y-83698291D01*
X149073100Y-83692465D01*
X149072060Y-83686909D01*
X149071706Y-83681815D01*
X149070385Y-83653207D01*
X149065669Y-83642526D01*
X149063806Y-83634604D01*
X149060865Y-83627013D01*
X149058720Y-83615537D01*
X149046009Y-83595009D01*
X149037869Y-83579566D01*
X149032832Y-83568159D01*
X149032831Y-83568158D01*
X149028116Y-83557478D01*
X149019859Y-83549221D01*
X149015262Y-83542510D01*
X149009777Y-83536493D01*
X149003631Y-83526567D01*
X148994313Y-83519530D01*
X148994312Y-83519529D01*
X148984359Y-83512013D01*
X148971197Y-83500559D01*
X148486995Y-83016357D01*
X148458166Y-82971645D01*
X148450360Y-82919020D01*
X148464968Y-82867867D01*
X148477823Y-82843818D01*
X148536622Y-82649982D01*
X148556476Y-82448400D01*
X149029924Y-82448400D01*
X149049778Y-82649982D01*
X149108577Y-82843818D01*
X149204062Y-83022457D01*
X149207987Y-83027239D01*
X149207988Y-83027241D01*
X149328641Y-83174256D01*
X149332564Y-83179036D01*
X149489143Y-83307538D01*
X149667782Y-83403023D01*
X149861618Y-83461822D01*
X150063200Y-83481676D01*
X150264782Y-83461822D01*
X150458618Y-83403023D01*
X150637257Y-83307538D01*
X150793836Y-83179036D01*
X150922338Y-83022457D01*
X151017823Y-82843818D01*
X151076622Y-82649982D01*
X151096476Y-82448400D01*
X154109924Y-82448400D01*
X154129778Y-82649982D01*
X154188577Y-82843818D01*
X154284062Y-83022457D01*
X154287987Y-83027239D01*
X154287988Y-83027241D01*
X154408641Y-83174256D01*
X154412564Y-83179036D01*
X154569143Y-83307538D01*
X154747782Y-83403023D01*
X154941618Y-83461822D01*
X155143200Y-83481676D01*
X155344782Y-83461822D01*
X155538618Y-83403023D01*
X155717257Y-83307538D01*
X155873836Y-83179036D01*
X156002338Y-83022457D01*
X156097823Y-82843818D01*
X156156622Y-82649982D01*
X156176476Y-82448400D01*
X156156622Y-82246818D01*
X156097823Y-82052982D01*
X156002338Y-81874343D01*
X155873836Y-81717764D01*
X155717257Y-81589262D01*
X155538618Y-81493777D01*
X155532697Y-81491981D01*
X155532695Y-81491980D01*
X155350704Y-81436774D01*
X155350700Y-81436773D01*
X155344782Y-81434978D01*
X155143200Y-81415124D01*
X155137037Y-81415731D01*
X154947780Y-81434371D01*
X154947779Y-81434371D01*
X154941618Y-81434978D01*
X154935701Y-81436772D01*
X154935695Y-81436774D01*
X154753704Y-81491980D01*
X154753698Y-81491982D01*
X154747782Y-81493777D01*
X154742324Y-81496694D01*
X154742320Y-81496696D01*
X154574602Y-81586344D01*
X154569143Y-81589262D01*
X154564364Y-81593183D01*
X154564358Y-81593188D01*
X154417343Y-81713841D01*
X154417337Y-81713846D01*
X154412564Y-81717764D01*
X154408646Y-81722537D01*
X154408641Y-81722543D01*
X154287988Y-81869558D01*
X154287983Y-81869564D01*
X154284062Y-81874343D01*
X154281144Y-81879801D01*
X154281144Y-81879802D01*
X154191496Y-82047520D01*
X154191494Y-82047524D01*
X154188577Y-82052982D01*
X154186782Y-82058898D01*
X154186780Y-82058904D01*
X154131574Y-82240895D01*
X154131572Y-82240901D01*
X154129778Y-82246818D01*
X154109924Y-82448400D01*
X151096476Y-82448400D01*
X151076622Y-82246818D01*
X151017823Y-82052982D01*
X150922338Y-81874343D01*
X150793836Y-81717764D01*
X150637257Y-81589262D01*
X150458618Y-81493777D01*
X150452697Y-81491981D01*
X150452695Y-81491980D01*
X150270704Y-81436774D01*
X150270700Y-81436773D01*
X150264782Y-81434978D01*
X150063200Y-81415124D01*
X150057037Y-81415731D01*
X149867780Y-81434371D01*
X149867779Y-81434371D01*
X149861618Y-81434978D01*
X149855701Y-81436772D01*
X149855695Y-81436774D01*
X149673704Y-81491980D01*
X149673698Y-81491982D01*
X149667782Y-81493777D01*
X149662324Y-81496694D01*
X149662320Y-81496696D01*
X149494602Y-81586344D01*
X149489143Y-81589262D01*
X149484364Y-81593183D01*
X149484358Y-81593188D01*
X149337343Y-81713841D01*
X149337337Y-81713846D01*
X149332564Y-81717764D01*
X149328646Y-81722537D01*
X149328641Y-81722543D01*
X149207988Y-81869558D01*
X149207983Y-81869564D01*
X149204062Y-81874343D01*
X149201144Y-81879801D01*
X149201144Y-81879802D01*
X149111496Y-82047520D01*
X149111494Y-82047524D01*
X149108577Y-82052982D01*
X149106782Y-82058898D01*
X149106780Y-82058904D01*
X149051574Y-82240895D01*
X149051572Y-82240901D01*
X149049778Y-82246818D01*
X149029924Y-82448400D01*
X148556476Y-82448400D01*
X148536622Y-82246818D01*
X148477823Y-82052982D01*
X148382338Y-81874343D01*
X148253836Y-81717764D01*
X148097257Y-81589262D01*
X147918618Y-81493777D01*
X147912697Y-81491981D01*
X147912695Y-81491980D01*
X147730704Y-81436774D01*
X147730700Y-81436773D01*
X147724782Y-81434978D01*
X147523200Y-81415124D01*
X147517037Y-81415731D01*
X147327780Y-81434371D01*
X147327779Y-81434371D01*
X147321618Y-81434978D01*
X147315701Y-81436772D01*
X147315695Y-81436774D01*
X147133704Y-81491980D01*
X147133698Y-81491982D01*
X147127782Y-81493777D01*
X147122324Y-81496694D01*
X147122320Y-81496696D01*
X146954602Y-81586344D01*
X146949143Y-81589262D01*
X146944364Y-81593183D01*
X146944358Y-81593188D01*
X146797343Y-81713841D01*
X146797337Y-81713846D01*
X146792564Y-81717764D01*
X146788646Y-81722537D01*
X146788641Y-81722543D01*
X146667988Y-81869558D01*
X146667983Y-81869564D01*
X146664062Y-81874343D01*
X146661144Y-81879801D01*
X146661144Y-81879802D01*
X146571496Y-82047520D01*
X146571494Y-82047524D01*
X146568577Y-82052982D01*
X146566782Y-82058898D01*
X146566780Y-82058904D01*
X146511574Y-82240895D01*
X146511572Y-82240901D01*
X146509778Y-82246818D01*
X146489924Y-82448400D01*
X146509778Y-82649982D01*
X146568577Y-82843818D01*
X146664062Y-83022457D01*
X146667987Y-83027239D01*
X146667988Y-83027241D01*
X146788641Y-83174256D01*
X146792564Y-83179036D01*
X146949143Y-83307538D01*
X147127782Y-83403023D01*
X147321618Y-83461822D01*
X147523200Y-83481676D01*
X147724782Y-83461822D01*
X147918618Y-83403023D01*
X147942666Y-83390168D01*
X147993817Y-83375560D01*
X148046443Y-83383365D01*
X148091156Y-83412194D01*
X148283927Y-83604966D01*
X148476396Y-83797435D01*
X148503709Y-83838312D01*
X148513300Y-83886530D01*
X148513300Y-84221775D01*
X148498422Y-84281171D01*
X148457302Y-84326540D01*
X148399650Y-84347168D01*
X148339082Y-84338184D01*
X148289901Y-84301709D01*
X148257758Y-84262543D01*
X148253836Y-84257764D01*
X148097257Y-84129262D01*
X147918618Y-84033777D01*
X147912697Y-84031981D01*
X147912695Y-84031980D01*
X147730704Y-83976774D01*
X147730700Y-83976773D01*
X147724782Y-83974978D01*
X147523200Y-83955124D01*
X147517037Y-83955731D01*
X147327780Y-83974371D01*
X147327779Y-83974371D01*
X147321618Y-83974978D01*
X147315701Y-83976772D01*
X147315695Y-83976774D01*
X147133704Y-84031980D01*
X147133698Y-84031982D01*
X147127782Y-84033777D01*
X147122324Y-84036694D01*
X147122320Y-84036696D01*
X146976255Y-84114770D01*
X146949143Y-84129262D01*
X146944362Y-84133186D01*
X146797343Y-84253841D01*
X146797337Y-84253846D01*
X146792564Y-84257764D01*
X146788646Y-84262537D01*
X146788641Y-84262543D01*
X146731099Y-84332659D01*
X146681918Y-84369134D01*
X146621350Y-84378118D01*
X146563698Y-84357490D01*
X146522578Y-84312121D01*
X146507700Y-84252725D01*
X146507700Y-83740736D01*
X146507882Y-83738112D01*
X146509817Y-83732340D01*
X146507833Y-83689440D01*
X146507700Y-83683623D01*
X146507700Y-83672891D01*
X146507700Y-83667065D01*
X146506660Y-83661509D01*
X146506306Y-83656415D01*
X146504985Y-83627807D01*
X146500269Y-83617126D01*
X146498406Y-83609204D01*
X146495465Y-83601613D01*
X146493320Y-83590137D01*
X146480609Y-83569609D01*
X146472469Y-83554166D01*
X146467432Y-83542759D01*
X146467431Y-83542758D01*
X146462716Y-83532078D01*
X146454459Y-83523821D01*
X146449862Y-83517110D01*
X146444377Y-83511093D01*
X146438231Y-83501167D01*
X146428913Y-83494130D01*
X146428912Y-83494129D01*
X146418959Y-83486613D01*
X146405797Y-83475159D01*
X145946995Y-83016357D01*
X145918166Y-82971645D01*
X145910360Y-82919020D01*
X145924968Y-82867867D01*
X145937823Y-82843818D01*
X145996622Y-82649982D01*
X146016476Y-82448400D01*
X145996622Y-82246818D01*
X145937823Y-82052982D01*
X145842338Y-81874343D01*
X145713836Y-81717764D01*
X145557257Y-81589262D01*
X145378618Y-81493777D01*
X145372697Y-81491981D01*
X145372695Y-81491980D01*
X145190704Y-81436774D01*
X145190700Y-81436773D01*
X145184782Y-81434978D01*
X144983200Y-81415124D01*
X144977037Y-81415731D01*
X144787780Y-81434371D01*
X144787779Y-81434371D01*
X144781618Y-81434978D01*
X144775701Y-81436772D01*
X144775695Y-81436774D01*
X144593704Y-81491980D01*
X144593698Y-81491982D01*
X144587782Y-81493777D01*
X144582324Y-81496694D01*
X144582320Y-81496696D01*
X144414602Y-81586344D01*
X144409143Y-81589262D01*
X144404364Y-81593183D01*
X144404358Y-81593188D01*
X144257343Y-81713841D01*
X144257337Y-81713846D01*
X144252564Y-81717764D01*
X144248646Y-81722537D01*
X144248641Y-81722543D01*
X144127988Y-81869558D01*
X144127983Y-81869564D01*
X144124062Y-81874343D01*
X144121144Y-81879801D01*
X144121144Y-81879802D01*
X144031496Y-82047520D01*
X144031494Y-82047524D01*
X144028577Y-82052982D01*
X144026782Y-82058898D01*
X144026780Y-82058904D01*
X143971574Y-82240895D01*
X143971572Y-82240901D01*
X143969778Y-82246818D01*
X143949924Y-82448400D01*
X143969778Y-82649982D01*
X144028577Y-82843818D01*
X144124062Y-83022457D01*
X144127987Y-83027239D01*
X144127988Y-83027241D01*
X144248641Y-83174256D01*
X144252564Y-83179036D01*
X144409143Y-83307538D01*
X144587782Y-83403023D01*
X144781618Y-83461822D01*
X144983200Y-83481676D01*
X145184782Y-83461822D01*
X145378618Y-83403023D01*
X145402666Y-83390168D01*
X145453817Y-83375560D01*
X145506443Y-83383365D01*
X145551156Y-83412194D01*
X145732520Y-83593559D01*
X145910996Y-83772035D01*
X145938309Y-83812912D01*
X145947900Y-83861130D01*
X145947900Y-84190825D01*
X145933022Y-84250221D01*
X145891902Y-84295590D01*
X145834251Y-84316218D01*
X145773683Y-84307234D01*
X145724502Y-84270760D01*
X145717759Y-84262544D01*
X145717758Y-84262543D01*
X145713836Y-84257764D01*
X145557257Y-84129262D01*
X145378618Y-84033777D01*
X145372697Y-84031981D01*
X145372695Y-84031980D01*
X145190704Y-83976774D01*
X145190700Y-83976773D01*
X145184782Y-83974978D01*
X144983200Y-83955124D01*
X144977037Y-83955731D01*
X144787780Y-83974371D01*
X144787779Y-83974371D01*
X144781618Y-83974978D01*
X144775701Y-83976772D01*
X144775695Y-83976774D01*
X144593704Y-84031980D01*
X144593698Y-84031982D01*
X144587782Y-84033777D01*
X144582324Y-84036694D01*
X144582320Y-84036696D01*
X144436255Y-84114770D01*
X144409143Y-84129262D01*
X144404362Y-84133186D01*
X144257343Y-84253841D01*
X144257337Y-84253846D01*
X144252564Y-84257764D01*
X144248646Y-84262537D01*
X144248641Y-84262543D01*
X144216499Y-84301709D01*
X144167318Y-84338184D01*
X144106750Y-84347168D01*
X144049098Y-84326540D01*
X144007978Y-84281171D01*
X143993100Y-84221775D01*
X143993100Y-83766136D01*
X143993282Y-83763512D01*
X143995217Y-83757740D01*
X143993233Y-83714840D01*
X143993100Y-83709023D01*
X143993100Y-83698291D01*
X143993100Y-83692465D01*
X143992060Y-83686909D01*
X143991706Y-83681815D01*
X143990385Y-83653207D01*
X143985669Y-83642526D01*
X143983806Y-83634604D01*
X143980865Y-83627013D01*
X143978720Y-83615537D01*
X143966009Y-83595009D01*
X143957869Y-83579566D01*
X143952832Y-83568159D01*
X143952831Y-83568158D01*
X143948116Y-83557478D01*
X143939859Y-83549221D01*
X143935262Y-83542510D01*
X143929777Y-83536493D01*
X143923631Y-83526567D01*
X143914313Y-83519530D01*
X143914312Y-83519529D01*
X143904359Y-83512013D01*
X143891197Y-83500559D01*
X143406995Y-83016357D01*
X143378166Y-82971645D01*
X143370360Y-82919020D01*
X143384968Y-82867867D01*
X143397823Y-82843818D01*
X143456622Y-82649982D01*
X143476476Y-82448400D01*
X143456622Y-82246818D01*
X143397823Y-82052982D01*
X143302338Y-81874343D01*
X143173836Y-81717764D01*
X143017257Y-81589262D01*
X142838618Y-81493777D01*
X142832697Y-81491981D01*
X142832695Y-81491980D01*
X142650704Y-81436774D01*
X142650700Y-81436773D01*
X142644782Y-81434978D01*
X142443200Y-81415124D01*
X142437037Y-81415731D01*
X142247780Y-81434371D01*
X142247779Y-81434371D01*
X142241618Y-81434978D01*
X142235701Y-81436772D01*
X142235695Y-81436774D01*
X142053704Y-81491980D01*
X142053698Y-81491982D01*
X142047782Y-81493777D01*
X142042324Y-81496694D01*
X142042320Y-81496696D01*
X141874602Y-81586344D01*
X141869143Y-81589262D01*
X141864364Y-81593183D01*
X141864358Y-81593188D01*
X141717343Y-81713841D01*
X141717337Y-81713846D01*
X141712564Y-81717764D01*
X141708646Y-81722537D01*
X141708641Y-81722543D01*
X141587988Y-81869558D01*
X141587983Y-81869564D01*
X141584062Y-81874343D01*
X141581144Y-81879801D01*
X141581144Y-81879802D01*
X141491496Y-82047520D01*
X141491494Y-82047524D01*
X141488577Y-82052982D01*
X141486782Y-82058898D01*
X141486780Y-82058904D01*
X141431574Y-82240895D01*
X141431572Y-82240901D01*
X141429778Y-82246818D01*
X141409924Y-82448400D01*
X141429778Y-82649982D01*
X141488577Y-82843818D01*
X141584062Y-83022457D01*
X141587987Y-83027239D01*
X141587988Y-83027241D01*
X141708641Y-83174256D01*
X141712564Y-83179036D01*
X141869143Y-83307538D01*
X142047782Y-83403023D01*
X142241618Y-83461822D01*
X142443200Y-83481676D01*
X142644782Y-83461822D01*
X142838618Y-83403023D01*
X142862666Y-83390168D01*
X142913817Y-83375560D01*
X142966443Y-83383365D01*
X143011156Y-83412194D01*
X143203927Y-83604966D01*
X143396396Y-83797435D01*
X143423709Y-83838312D01*
X143433300Y-83886530D01*
X143433300Y-84221775D01*
X143418422Y-84281171D01*
X143377302Y-84326540D01*
X143319650Y-84347168D01*
X143259082Y-84338184D01*
X143209901Y-84301709D01*
X143177758Y-84262543D01*
X143173836Y-84257764D01*
X143017257Y-84129262D01*
X142838618Y-84033777D01*
X142832697Y-84031981D01*
X142832695Y-84031980D01*
X142650704Y-83976774D01*
X142650700Y-83976773D01*
X142644782Y-83974978D01*
X142443200Y-83955124D01*
X142437037Y-83955731D01*
X142247780Y-83974371D01*
X142247779Y-83974371D01*
X142241618Y-83974978D01*
X142235701Y-83976772D01*
X142235695Y-83976774D01*
X142053704Y-84031980D01*
X142053698Y-84031982D01*
X142047782Y-84033777D01*
X142042324Y-84036694D01*
X142042320Y-84036696D01*
X141896255Y-84114770D01*
X141869143Y-84129262D01*
X141864362Y-84133186D01*
X141717343Y-84253841D01*
X141717337Y-84253846D01*
X141712564Y-84257764D01*
X141708646Y-84262537D01*
X141708641Y-84262543D01*
X141676499Y-84301709D01*
X141627318Y-84338184D01*
X141566750Y-84347168D01*
X141509098Y-84326540D01*
X141467978Y-84281171D01*
X141453100Y-84221775D01*
X141453100Y-83766136D01*
X141453282Y-83763512D01*
X141455217Y-83757740D01*
X141453233Y-83714840D01*
X141453100Y-83709023D01*
X141453100Y-83698291D01*
X141453100Y-83692465D01*
X141452060Y-83686909D01*
X141451706Y-83681815D01*
X141450385Y-83653207D01*
X141445669Y-83642526D01*
X141443806Y-83634604D01*
X141440865Y-83627013D01*
X141438720Y-83615537D01*
X141426009Y-83595009D01*
X141417869Y-83579566D01*
X141412832Y-83568159D01*
X141412831Y-83568158D01*
X141408116Y-83557478D01*
X141399859Y-83549221D01*
X141395262Y-83542510D01*
X141389777Y-83536493D01*
X141383631Y-83526567D01*
X141374313Y-83519530D01*
X141374312Y-83519529D01*
X141364359Y-83512013D01*
X141351197Y-83500559D01*
X140866995Y-83016357D01*
X140838166Y-82971645D01*
X140830360Y-82919020D01*
X140844968Y-82867867D01*
X140857823Y-82843818D01*
X140916622Y-82649982D01*
X140936476Y-82448400D01*
X140916622Y-82246818D01*
X140857823Y-82052982D01*
X140762338Y-81874343D01*
X140633836Y-81717764D01*
X140477257Y-81589262D01*
X140298618Y-81493777D01*
X140292697Y-81491981D01*
X140292695Y-81491980D01*
X140110704Y-81436774D01*
X140110700Y-81436773D01*
X140104782Y-81434978D01*
X139903200Y-81415124D01*
X139897037Y-81415731D01*
X139707780Y-81434371D01*
X139707779Y-81434371D01*
X139701618Y-81434978D01*
X139695701Y-81436772D01*
X139695695Y-81436774D01*
X139513704Y-81491980D01*
X139513698Y-81491982D01*
X139507782Y-81493777D01*
X139502324Y-81496694D01*
X139502320Y-81496696D01*
X139334602Y-81586344D01*
X139329143Y-81589262D01*
X139324364Y-81593183D01*
X139324358Y-81593188D01*
X139177343Y-81713841D01*
X139177337Y-81713846D01*
X139172564Y-81717764D01*
X139168646Y-81722537D01*
X139168641Y-81722543D01*
X139047988Y-81869558D01*
X139047983Y-81869564D01*
X139044062Y-81874343D01*
X139041144Y-81879801D01*
X139041144Y-81879802D01*
X138951496Y-82047520D01*
X138951494Y-82047524D01*
X138948577Y-82052982D01*
X138946782Y-82058898D01*
X138946780Y-82058904D01*
X138891574Y-82240895D01*
X138891572Y-82240901D01*
X138889778Y-82246818D01*
X138869924Y-82448400D01*
X138889778Y-82649982D01*
X138948577Y-82843818D01*
X139044062Y-83022457D01*
X139047987Y-83027239D01*
X139047988Y-83027241D01*
X139168641Y-83174256D01*
X139172564Y-83179036D01*
X139329143Y-83307538D01*
X139507782Y-83403023D01*
X139701618Y-83461822D01*
X139903200Y-83481676D01*
X140104782Y-83461822D01*
X140298618Y-83403023D01*
X140322666Y-83390168D01*
X140373817Y-83375560D01*
X140426443Y-83383365D01*
X140471156Y-83412194D01*
X140663927Y-83604966D01*
X140856396Y-83797435D01*
X140883709Y-83838312D01*
X140893300Y-83886530D01*
X140893300Y-84221775D01*
X140878422Y-84281171D01*
X140837302Y-84326540D01*
X140779650Y-84347168D01*
X140719082Y-84338184D01*
X140669901Y-84301709D01*
X140637758Y-84262543D01*
X140633836Y-84257764D01*
X140477257Y-84129262D01*
X140298618Y-84033777D01*
X140292697Y-84031981D01*
X140292695Y-84031980D01*
X140110704Y-83976774D01*
X140110700Y-83976773D01*
X140104782Y-83974978D01*
X139903200Y-83955124D01*
X139897037Y-83955731D01*
X139707780Y-83974371D01*
X139707779Y-83974371D01*
X139701618Y-83974978D01*
X139695701Y-83976772D01*
X139695695Y-83976774D01*
X139513704Y-84031980D01*
X139513698Y-84031982D01*
X139507782Y-84033777D01*
X139502324Y-84036694D01*
X139502320Y-84036696D01*
X139356255Y-84114770D01*
X139329143Y-84129262D01*
X139324362Y-84133186D01*
X139177343Y-84253841D01*
X139177337Y-84253846D01*
X139172564Y-84257764D01*
X139168646Y-84262537D01*
X139168640Y-84262544D01*
X139161898Y-84270760D01*
X139112717Y-84307234D01*
X139052149Y-84316218D01*
X138994498Y-84295590D01*
X138953378Y-84250221D01*
X138938500Y-84190825D01*
X138938500Y-83791536D01*
X138938682Y-83788912D01*
X138940617Y-83783140D01*
X138938633Y-83740240D01*
X138938500Y-83734423D01*
X138938500Y-83723691D01*
X138938500Y-83717865D01*
X138937460Y-83712309D01*
X138937106Y-83707215D01*
X138935785Y-83678607D01*
X138931069Y-83667926D01*
X138929206Y-83660004D01*
X138926265Y-83652413D01*
X138924120Y-83640937D01*
X138911409Y-83620409D01*
X138903269Y-83604966D01*
X138898232Y-83593559D01*
X138898231Y-83593558D01*
X138893516Y-83582878D01*
X138885259Y-83574621D01*
X138880662Y-83567910D01*
X138875177Y-83561893D01*
X138869031Y-83551967D01*
X138859713Y-83544930D01*
X138859712Y-83544929D01*
X138849759Y-83537413D01*
X138836597Y-83525959D01*
X138326995Y-83016357D01*
X138298166Y-82971645D01*
X138290360Y-82919020D01*
X138304968Y-82867867D01*
X138317823Y-82843818D01*
X138376622Y-82649982D01*
X138396476Y-82448400D01*
X138376622Y-82246818D01*
X138317823Y-82052982D01*
X138222338Y-81874343D01*
X138093836Y-81717764D01*
X137937257Y-81589262D01*
X137758618Y-81493777D01*
X137752697Y-81491981D01*
X137752695Y-81491980D01*
X137570704Y-81436774D01*
X137570700Y-81436773D01*
X137564782Y-81434978D01*
X137363200Y-81415124D01*
X137357037Y-81415731D01*
X137167780Y-81434371D01*
X137167779Y-81434371D01*
X137161618Y-81434978D01*
X137155701Y-81436772D01*
X137155695Y-81436774D01*
X136973704Y-81491980D01*
X136973698Y-81491982D01*
X136967782Y-81493777D01*
X136962324Y-81496694D01*
X136962320Y-81496696D01*
X136794602Y-81586344D01*
X136789143Y-81589262D01*
X136784364Y-81593183D01*
X136784358Y-81593188D01*
X136637343Y-81713841D01*
X136637337Y-81713846D01*
X136632564Y-81717764D01*
X136628646Y-81722537D01*
X136628641Y-81722543D01*
X136507988Y-81869558D01*
X136507983Y-81869564D01*
X136504062Y-81874343D01*
X136501144Y-81879801D01*
X136501144Y-81879802D01*
X136411496Y-82047520D01*
X136411494Y-82047524D01*
X136408577Y-82052982D01*
X136406782Y-82058898D01*
X136406780Y-82058904D01*
X136351574Y-82240895D01*
X136351572Y-82240901D01*
X136349778Y-82246818D01*
X136329924Y-82448400D01*
X136349778Y-82649982D01*
X136408577Y-82843818D01*
X136504062Y-83022457D01*
X136507987Y-83027239D01*
X136507988Y-83027241D01*
X136628641Y-83174256D01*
X136632564Y-83179036D01*
X136789143Y-83307538D01*
X136967782Y-83403023D01*
X137161618Y-83461822D01*
X137363200Y-83481676D01*
X137564782Y-83461822D01*
X137758618Y-83403023D01*
X137782666Y-83390168D01*
X137833817Y-83375560D01*
X137886443Y-83383365D01*
X137931156Y-83412194D01*
X138139370Y-83620409D01*
X138341796Y-83822835D01*
X138369109Y-83863712D01*
X138378700Y-83911930D01*
X138378700Y-84252725D01*
X138363822Y-84312121D01*
X138322702Y-84357490D01*
X138265050Y-84378118D01*
X138204482Y-84369134D01*
X138155301Y-84332659D01*
X138097758Y-84262543D01*
X138093836Y-84257764D01*
X137937257Y-84129262D01*
X137758618Y-84033777D01*
X137752697Y-84031981D01*
X137752695Y-84031980D01*
X137570704Y-83976774D01*
X137570700Y-83976773D01*
X137564782Y-83974978D01*
X137363200Y-83955124D01*
X137357037Y-83955731D01*
X137167780Y-83974371D01*
X137167779Y-83974371D01*
X137161618Y-83974978D01*
X137155701Y-83976772D01*
X137155695Y-83976774D01*
X136973704Y-84031980D01*
X136973698Y-84031982D01*
X136967782Y-84033777D01*
X136962324Y-84036694D01*
X136962320Y-84036696D01*
X136816255Y-84114770D01*
X136789143Y-84129262D01*
X136784362Y-84133186D01*
X136637343Y-84253841D01*
X136637337Y-84253846D01*
X136632564Y-84257764D01*
X136628646Y-84262537D01*
X136628641Y-84262543D01*
X136596499Y-84301709D01*
X136547318Y-84338184D01*
X136486750Y-84347168D01*
X136429098Y-84326540D01*
X136387978Y-84281171D01*
X136373100Y-84221775D01*
X136373100Y-83766136D01*
X136373282Y-83763512D01*
X136375217Y-83757740D01*
X136373233Y-83714840D01*
X136373100Y-83709023D01*
X136373100Y-83698291D01*
X136373100Y-83692465D01*
X136372060Y-83686909D01*
X136371706Y-83681815D01*
X136370385Y-83653207D01*
X136365669Y-83642526D01*
X136363806Y-83634604D01*
X136360865Y-83627013D01*
X136358720Y-83615537D01*
X136346009Y-83595009D01*
X136337869Y-83579566D01*
X136332832Y-83568159D01*
X136332831Y-83568158D01*
X136328116Y-83557478D01*
X136319859Y-83549221D01*
X136315262Y-83542510D01*
X136309777Y-83536493D01*
X136303631Y-83526567D01*
X136294313Y-83519530D01*
X136294312Y-83519529D01*
X136284359Y-83512013D01*
X136271197Y-83500559D01*
X135786995Y-83016357D01*
X135758166Y-82971645D01*
X135750360Y-82919020D01*
X135764968Y-82867867D01*
X135777823Y-82843818D01*
X135836622Y-82649982D01*
X135856476Y-82448400D01*
X135836622Y-82246818D01*
X135777823Y-82052982D01*
X135682338Y-81874343D01*
X135553836Y-81717764D01*
X135397257Y-81589262D01*
X135218618Y-81493777D01*
X135212697Y-81491981D01*
X135212695Y-81491980D01*
X135030704Y-81436774D01*
X135030700Y-81436773D01*
X135024782Y-81434978D01*
X134823200Y-81415124D01*
X134817037Y-81415731D01*
X134627780Y-81434371D01*
X134627779Y-81434371D01*
X134621618Y-81434978D01*
X134615701Y-81436772D01*
X134615695Y-81436774D01*
X134433704Y-81491980D01*
X134433698Y-81491982D01*
X134427782Y-81493777D01*
X134422324Y-81496694D01*
X134422320Y-81496696D01*
X134254602Y-81586344D01*
X134249143Y-81589262D01*
X134244364Y-81593183D01*
X134244358Y-81593188D01*
X134097343Y-81713841D01*
X134097337Y-81713846D01*
X134092564Y-81717764D01*
X134088646Y-81722537D01*
X134088641Y-81722543D01*
X133967988Y-81869558D01*
X133967983Y-81869564D01*
X133964062Y-81874343D01*
X133961144Y-81879801D01*
X133961144Y-81879802D01*
X133871496Y-82047520D01*
X133871494Y-82047524D01*
X133868577Y-82052982D01*
X133866782Y-82058898D01*
X133866780Y-82058904D01*
X133811574Y-82240895D01*
X133811572Y-82240901D01*
X133809778Y-82246818D01*
X133789924Y-82448400D01*
X133809778Y-82649982D01*
X133868577Y-82843818D01*
X133964062Y-83022457D01*
X133967987Y-83027239D01*
X133967988Y-83027241D01*
X134088641Y-83174256D01*
X134092564Y-83179036D01*
X134249143Y-83307538D01*
X134427782Y-83403023D01*
X134621618Y-83461822D01*
X134823200Y-83481676D01*
X135024782Y-83461822D01*
X135218618Y-83403023D01*
X135242666Y-83390168D01*
X135293817Y-83375560D01*
X135346443Y-83383365D01*
X135391156Y-83412194D01*
X135583927Y-83604966D01*
X135776396Y-83797435D01*
X135803709Y-83838312D01*
X135813300Y-83886530D01*
X135813300Y-84221775D01*
X135798422Y-84281171D01*
X135757302Y-84326540D01*
X135699650Y-84347168D01*
X135639082Y-84338184D01*
X135589901Y-84301709D01*
X135557758Y-84262543D01*
X135553836Y-84257764D01*
X135397257Y-84129262D01*
X135218618Y-84033777D01*
X135212697Y-84031981D01*
X135212695Y-84031980D01*
X135030704Y-83976774D01*
X135030700Y-83976773D01*
X135024782Y-83974978D01*
X134823200Y-83955124D01*
X134817037Y-83955731D01*
X134627780Y-83974371D01*
X134627779Y-83974371D01*
X134621618Y-83974978D01*
X134615701Y-83976772D01*
X134615695Y-83976774D01*
X134433704Y-84031980D01*
X134433698Y-84031982D01*
X134427782Y-84033777D01*
X134422324Y-84036694D01*
X134422320Y-84036696D01*
X134276255Y-84114770D01*
X134249143Y-84129262D01*
X134244362Y-84133186D01*
X134097343Y-84253841D01*
X134097337Y-84253846D01*
X134092564Y-84257764D01*
X134088646Y-84262537D01*
X134088641Y-84262543D01*
X134056499Y-84301709D01*
X134007318Y-84338184D01*
X133946750Y-84347168D01*
X133889098Y-84326540D01*
X133847978Y-84281171D01*
X133833100Y-84221775D01*
X133833100Y-83766136D01*
X133833282Y-83763512D01*
X133835217Y-83757740D01*
X133833233Y-83714840D01*
X133833100Y-83709023D01*
X133833100Y-83698291D01*
X133833100Y-83692465D01*
X133832060Y-83686909D01*
X133831706Y-83681815D01*
X133830385Y-83653207D01*
X133825669Y-83642526D01*
X133823806Y-83634604D01*
X133820865Y-83627013D01*
X133818720Y-83615537D01*
X133806009Y-83595009D01*
X133797869Y-83579566D01*
X133792832Y-83568159D01*
X133792831Y-83568158D01*
X133788116Y-83557478D01*
X133779859Y-83549221D01*
X133775262Y-83542510D01*
X133769777Y-83536493D01*
X133763631Y-83526567D01*
X133754313Y-83519530D01*
X133754312Y-83519529D01*
X133744359Y-83512013D01*
X133731197Y-83500559D01*
X133246995Y-83016357D01*
X133218166Y-82971645D01*
X133210360Y-82919020D01*
X133224968Y-82867867D01*
X133237823Y-82843818D01*
X133296622Y-82649982D01*
X133316476Y-82448400D01*
X133296622Y-82246818D01*
X133237823Y-82052982D01*
X133142338Y-81874343D01*
X133013836Y-81717764D01*
X132857257Y-81589262D01*
X132678618Y-81493777D01*
X132672697Y-81491981D01*
X132672695Y-81491980D01*
X132490704Y-81436774D01*
X132490700Y-81436773D01*
X132484782Y-81434978D01*
X132283200Y-81415124D01*
X132277037Y-81415731D01*
X132087780Y-81434371D01*
X132087779Y-81434371D01*
X132081618Y-81434978D01*
X132075701Y-81436772D01*
X132075695Y-81436774D01*
X131893704Y-81491980D01*
X131893698Y-81491982D01*
X131887782Y-81493777D01*
X131882324Y-81496694D01*
X131882320Y-81496696D01*
X131714602Y-81586344D01*
X131709143Y-81589262D01*
X131704364Y-81593183D01*
X131704358Y-81593188D01*
X131557343Y-81713841D01*
X131557337Y-81713846D01*
X131552564Y-81717764D01*
X131548646Y-81722537D01*
X131548641Y-81722543D01*
X131427988Y-81869558D01*
X131427983Y-81869564D01*
X131424062Y-81874343D01*
X131421144Y-81879801D01*
X131421144Y-81879802D01*
X131331496Y-82047520D01*
X131331494Y-82047524D01*
X131328577Y-82052982D01*
X131326782Y-82058898D01*
X131326780Y-82058904D01*
X131271574Y-82240895D01*
X131271572Y-82240901D01*
X131269778Y-82246818D01*
X131249924Y-82448400D01*
X131269778Y-82649982D01*
X131328577Y-82843818D01*
X131424062Y-83022457D01*
X131427987Y-83027239D01*
X131427988Y-83027241D01*
X131548641Y-83174256D01*
X131552564Y-83179036D01*
X131709143Y-83307538D01*
X131887782Y-83403023D01*
X132081618Y-83461822D01*
X132283200Y-83481676D01*
X132484782Y-83461822D01*
X132678618Y-83403023D01*
X132702666Y-83390168D01*
X132753817Y-83375560D01*
X132806443Y-83383365D01*
X132851156Y-83412194D01*
X133043927Y-83604966D01*
X133236396Y-83797435D01*
X133263709Y-83838312D01*
X133273300Y-83886530D01*
X133273300Y-84221775D01*
X133258422Y-84281171D01*
X133217302Y-84326540D01*
X133159650Y-84347168D01*
X133099082Y-84338184D01*
X133049901Y-84301709D01*
X133017758Y-84262543D01*
X133013836Y-84257764D01*
X132857257Y-84129262D01*
X132678618Y-84033777D01*
X132672697Y-84031981D01*
X132672695Y-84031980D01*
X132490704Y-83976774D01*
X132490700Y-83976773D01*
X132484782Y-83974978D01*
X132283200Y-83955124D01*
X132277037Y-83955731D01*
X132087780Y-83974371D01*
X132087779Y-83974371D01*
X132081618Y-83974978D01*
X132075701Y-83976772D01*
X132075695Y-83976774D01*
X131893704Y-84031980D01*
X131893698Y-84031982D01*
X131887782Y-84033777D01*
X131882324Y-84036694D01*
X131882320Y-84036696D01*
X131736255Y-84114770D01*
X131709143Y-84129262D01*
X131704362Y-84133186D01*
X131557343Y-84253841D01*
X131557337Y-84253846D01*
X131552564Y-84257764D01*
X131548646Y-84262537D01*
X131548641Y-84262543D01*
X131516499Y-84301709D01*
X131467318Y-84338184D01*
X131406750Y-84347168D01*
X131349098Y-84326540D01*
X131307978Y-84281171D01*
X131293100Y-84221775D01*
X131293100Y-83791536D01*
X131293282Y-83788912D01*
X131295217Y-83783140D01*
X131293233Y-83740240D01*
X131293100Y-83734423D01*
X131293100Y-83723691D01*
X131293100Y-83717865D01*
X131292060Y-83712309D01*
X131291706Y-83707215D01*
X131290385Y-83678607D01*
X131285669Y-83667926D01*
X131283806Y-83660004D01*
X131280865Y-83652413D01*
X131278720Y-83640937D01*
X131266009Y-83620409D01*
X131257869Y-83604966D01*
X131252832Y-83593559D01*
X131252831Y-83593558D01*
X131248116Y-83582878D01*
X131239859Y-83574621D01*
X131235262Y-83567910D01*
X131229777Y-83561893D01*
X131223631Y-83551967D01*
X131214313Y-83544930D01*
X131214312Y-83544929D01*
X131204359Y-83537413D01*
X131191197Y-83525959D01*
X130698148Y-83032910D01*
X130669319Y-82988198D01*
X130661513Y-82935574D01*
X130676120Y-82884420D01*
X130697823Y-82843818D01*
X130756622Y-82649982D01*
X130776476Y-82448400D01*
X130756622Y-82246818D01*
X130697823Y-82052982D01*
X130602338Y-81874343D01*
X130473836Y-81717764D01*
X130317257Y-81589262D01*
X130138618Y-81493777D01*
X130132697Y-81491981D01*
X130132695Y-81491980D01*
X129950704Y-81436774D01*
X129950700Y-81436773D01*
X129944782Y-81434978D01*
X129743200Y-81415124D01*
X129737037Y-81415731D01*
X129547780Y-81434371D01*
X129547779Y-81434371D01*
X129541618Y-81434978D01*
X129535701Y-81436772D01*
X129535695Y-81436774D01*
X129353704Y-81491980D01*
X129353698Y-81491982D01*
X129347782Y-81493777D01*
X129342324Y-81496694D01*
X129342320Y-81496696D01*
X129174602Y-81586344D01*
X129169143Y-81589262D01*
X129164364Y-81593183D01*
X129164358Y-81593188D01*
X129017343Y-81713841D01*
X129017337Y-81713846D01*
X129012564Y-81717764D01*
X129008646Y-81722537D01*
X129008641Y-81722543D01*
X128887988Y-81869558D01*
X128887983Y-81869564D01*
X128884062Y-81874343D01*
X128881144Y-81879801D01*
X128881144Y-81879802D01*
X128791496Y-82047520D01*
X128791494Y-82047524D01*
X128788577Y-82052982D01*
X128786782Y-82058898D01*
X128786780Y-82058904D01*
X128731574Y-82240895D01*
X128731572Y-82240901D01*
X128729778Y-82246818D01*
X128709924Y-82448400D01*
X128729778Y-82649982D01*
X128788577Y-82843818D01*
X128884062Y-83022457D01*
X128887987Y-83027239D01*
X128887988Y-83027241D01*
X129008641Y-83174256D01*
X129012564Y-83179036D01*
X129169143Y-83307538D01*
X129347782Y-83403023D01*
X129541618Y-83461822D01*
X129743200Y-83481676D01*
X129944782Y-83461822D01*
X130138618Y-83403023D01*
X130146112Y-83399016D01*
X130148011Y-83398474D01*
X130149792Y-83397737D01*
X130149876Y-83397941D01*
X130197265Y-83384408D01*
X130249891Y-83392213D01*
X130294604Y-83421043D01*
X130696395Y-83822834D01*
X130723709Y-83863711D01*
X130733300Y-83911929D01*
X130733300Y-84221775D01*
X130718422Y-84281171D01*
X130677302Y-84326540D01*
X130619650Y-84347168D01*
X130559082Y-84338184D01*
X130509901Y-84301709D01*
X130477758Y-84262543D01*
X130473836Y-84257764D01*
X130317257Y-84129262D01*
X130138618Y-84033777D01*
X130132697Y-84031981D01*
X130132695Y-84031980D01*
X129950704Y-83976774D01*
X129950700Y-83976773D01*
X129944782Y-83974978D01*
X129743200Y-83955124D01*
X129737037Y-83955731D01*
X129547780Y-83974371D01*
X129547779Y-83974371D01*
X129541618Y-83974978D01*
X129535701Y-83976772D01*
X129535695Y-83976774D01*
X129353704Y-84031980D01*
X129353698Y-84031982D01*
X129347782Y-84033777D01*
X129342324Y-84036694D01*
X129342320Y-84036696D01*
X129196255Y-84114770D01*
X129169143Y-84129262D01*
X129164362Y-84133186D01*
X129054034Y-84223730D01*
X128989524Y-84251383D01*
X128920228Y-84240234D01*
X128867648Y-84193741D01*
X128848100Y-84126331D01*
X128848100Y-83861143D01*
X128848282Y-83858514D01*
X128850218Y-83852740D01*
X128848234Y-83809828D01*
X128848100Y-83804009D01*
X128848100Y-83793299D01*
X128848100Y-83787465D01*
X128847059Y-83781902D01*
X128846708Y-83776836D01*
X128845385Y-83748207D01*
X128840667Y-83737523D01*
X128838805Y-83729604D01*
X128835865Y-83722016D01*
X128833720Y-83710537D01*
X128827573Y-83700609D01*
X128821005Y-83690001D01*
X128812869Y-83674565D01*
X128812130Y-83672891D01*
X128803117Y-83652478D01*
X128794858Y-83644219D01*
X128790263Y-83637511D01*
X128784777Y-83631493D01*
X128778631Y-83621567D01*
X128759360Y-83607014D01*
X128746205Y-83595566D01*
X128458177Y-83307538D01*
X128166994Y-83016356D01*
X128138165Y-82971643D01*
X128130360Y-82919017D01*
X128144968Y-82867866D01*
X128157823Y-82843818D01*
X128216622Y-82649982D01*
X128236476Y-82448400D01*
X128216622Y-82246818D01*
X128157823Y-82052982D01*
X128062338Y-81874343D01*
X127933836Y-81717764D01*
X127777257Y-81589262D01*
X127598618Y-81493777D01*
X127592697Y-81491981D01*
X127592695Y-81491980D01*
X127410704Y-81436774D01*
X127410700Y-81436773D01*
X127404782Y-81434978D01*
X127203200Y-81415124D01*
X127197037Y-81415731D01*
X127007780Y-81434371D01*
X127007779Y-81434371D01*
X127001618Y-81434978D01*
X126995701Y-81436772D01*
X126995695Y-81436774D01*
X126813704Y-81491980D01*
X126813698Y-81491982D01*
X126807782Y-81493777D01*
X126802324Y-81496694D01*
X126802320Y-81496696D01*
X126634602Y-81586344D01*
X126629143Y-81589262D01*
X126624364Y-81593183D01*
X126624358Y-81593188D01*
X126477343Y-81713841D01*
X126477337Y-81713846D01*
X126472564Y-81717764D01*
X126468646Y-81722537D01*
X126468641Y-81722543D01*
X126347988Y-81869558D01*
X126347983Y-81869564D01*
X126344062Y-81874343D01*
X126341144Y-81879801D01*
X126341144Y-81879802D01*
X126251496Y-82047520D01*
X126251494Y-82047524D01*
X126248577Y-82052982D01*
X126246782Y-82058898D01*
X126246780Y-82058904D01*
X126191574Y-82240895D01*
X126191572Y-82240901D01*
X126189778Y-82246818D01*
X126169924Y-82448400D01*
X126189778Y-82649982D01*
X126248577Y-82843818D01*
X126344062Y-83022457D01*
X126347987Y-83027239D01*
X126347988Y-83027241D01*
X126468641Y-83174256D01*
X126472564Y-83179036D01*
X126629143Y-83307538D01*
X126807782Y-83403023D01*
X127001618Y-83461822D01*
X127203200Y-83481676D01*
X127404782Y-83461822D01*
X127598618Y-83403023D01*
X127622667Y-83390168D01*
X127673820Y-83375560D01*
X127726445Y-83383366D01*
X127771157Y-83412195D01*
X128251395Y-83892433D01*
X128278709Y-83933310D01*
X128288300Y-83981528D01*
X128288300Y-84338245D01*
X128272234Y-84399812D01*
X128228134Y-84445678D01*
X128167245Y-84464148D01*
X128105095Y-84450511D01*
X128063407Y-84413464D01*
X128062338Y-84414343D01*
X127933836Y-84257764D01*
X127777257Y-84129262D01*
X127598618Y-84033777D01*
X127592697Y-84031981D01*
X127592695Y-84031980D01*
X127410704Y-83976774D01*
X127410700Y-83976773D01*
X127404782Y-83974978D01*
X127203200Y-83955124D01*
X127197037Y-83955731D01*
X127007780Y-83974371D01*
X127007779Y-83974371D01*
X127001618Y-83974978D01*
X126995701Y-83976772D01*
X126995695Y-83976774D01*
X126813704Y-84031980D01*
X126813698Y-84031982D01*
X126807782Y-84033777D01*
X126802324Y-84036694D01*
X126802320Y-84036696D01*
X126656255Y-84114770D01*
X126629143Y-84129262D01*
X126624362Y-84133186D01*
X126477343Y-84253841D01*
X126477337Y-84253846D01*
X126472564Y-84257764D01*
X126468646Y-84262537D01*
X126468641Y-84262543D01*
X126347988Y-84409558D01*
X126347983Y-84409564D01*
X126344062Y-84414343D01*
X126341144Y-84419801D01*
X126341144Y-84419802D01*
X126251496Y-84587520D01*
X126251494Y-84587524D01*
X126248577Y-84592982D01*
X126246782Y-84598898D01*
X126246780Y-84598904D01*
X126191574Y-84780895D01*
X126191572Y-84780901D01*
X126189778Y-84786818D01*
X126169924Y-84988400D01*
X126189778Y-85189982D01*
X126248577Y-85383818D01*
X126261430Y-85407864D01*
X126276039Y-85459019D01*
X126268233Y-85511644D01*
X126239404Y-85556356D01*
X125972243Y-85823517D01*
X125970249Y-85825252D01*
X125964801Y-85827966D01*
X125956940Y-85836587D01*
X125956938Y-85836590D01*
X125935862Y-85859708D01*
X125931853Y-85863907D01*
X125924260Y-85871501D01*
X125924256Y-85871505D01*
X125920142Y-85875620D01*
X125916952Y-85880275D01*
X125913584Y-85884145D01*
X125910612Y-85887405D01*
X125860835Y-85920831D01*
X125801244Y-85927465D01*
X125745334Y-85905805D01*
X125705765Y-85860755D01*
X125691499Y-85802521D01*
X125691499Y-84120840D01*
X125681155Y-84068831D01*
X125641747Y-84009853D01*
X125582769Y-83970445D01*
X125570599Y-83968024D01*
X125570596Y-83968023D01*
X125536829Y-83961307D01*
X125530761Y-83960100D01*
X125524574Y-83960100D01*
X123801831Y-83960100D01*
X123801820Y-83960100D01*
X123795640Y-83960101D01*
X123789572Y-83961307D01*
X123789570Y-83961308D01*
X123755803Y-83968024D01*
X123755802Y-83968024D01*
X123743631Y-83970445D01*
X123733311Y-83977340D01*
X123733310Y-83977341D01*
X123694968Y-84002960D01*
X123694965Y-84002962D01*
X123684653Y-84009853D01*
X123677762Y-84020165D01*
X123677760Y-84020168D01*
X123652140Y-84058511D01*
X123652138Y-84058513D01*
X123645245Y-84068831D01*
X123642824Y-84080999D01*
X123642823Y-84081003D01*
X123636107Y-84114770D01*
X123634900Y-84120839D01*
X123634900Y-84127024D01*
X123634900Y-84127025D01*
X123634900Y-85849768D01*
X123634900Y-85849778D01*
X117371054Y-85849778D01*
X120765069Y-82448400D01*
X123629924Y-82448400D01*
X123649778Y-82649982D01*
X123708577Y-82843818D01*
X123804062Y-83022457D01*
X123807987Y-83027239D01*
X123807988Y-83027241D01*
X123928641Y-83174256D01*
X123932564Y-83179036D01*
X124089143Y-83307538D01*
X124267782Y-83403023D01*
X124461618Y-83461822D01*
X124663200Y-83481676D01*
X124864782Y-83461822D01*
X125058618Y-83403023D01*
X125237257Y-83307538D01*
X125393836Y-83179036D01*
X125522338Y-83022457D01*
X125617823Y-82843818D01*
X125676622Y-82649982D01*
X125696476Y-82448400D01*
X125676622Y-82246818D01*
X125617823Y-82052982D01*
X125522338Y-81874343D01*
X125393836Y-81717764D01*
X125237257Y-81589262D01*
X125058618Y-81493777D01*
X125052697Y-81491981D01*
X125052695Y-81491980D01*
X124870704Y-81436774D01*
X124870700Y-81436773D01*
X124864782Y-81434978D01*
X124663200Y-81415124D01*
X124657037Y-81415731D01*
X124467780Y-81434371D01*
X124467779Y-81434371D01*
X124461618Y-81434978D01*
X124455701Y-81436772D01*
X124455695Y-81436774D01*
X124273704Y-81491980D01*
X124273698Y-81491982D01*
X124267782Y-81493777D01*
X124262324Y-81496694D01*
X124262320Y-81496696D01*
X124094602Y-81586344D01*
X124089143Y-81589262D01*
X124084364Y-81593183D01*
X124084358Y-81593188D01*
X123937343Y-81713841D01*
X123937337Y-81713846D01*
X123932564Y-81717764D01*
X123928646Y-81722537D01*
X123928641Y-81722543D01*
X123807988Y-81869558D01*
X123807983Y-81869564D01*
X123804062Y-81874343D01*
X123801144Y-81879801D01*
X123801144Y-81879802D01*
X123711496Y-82047520D01*
X123711494Y-82047524D01*
X123708577Y-82052982D01*
X123706782Y-82058898D01*
X123706780Y-82058904D01*
X123651574Y-82240895D01*
X123651572Y-82240901D01*
X123649778Y-82246818D01*
X123629924Y-82448400D01*
X120765069Y-82448400D01*
X126648202Y-76552504D01*
X126937903Y-76262803D01*
X126978780Y-76235491D01*
X127026998Y-76225900D01*
X152347602Y-76225900D01*
X152395820Y-76235491D01*
G37*
%TD.AperFunction*%
%TD*%
%TA.AperFunction,Conductor*%
%TO.N,GNDA*%
G36*
X162559841Y-86385948D02*
G01*
X170320395Y-94146502D01*
X170347709Y-94187379D01*
X170357300Y-94235597D01*
X170357300Y-97865220D01*
X170347692Y-97913479D01*
X170320333Y-97954378D01*
X152411494Y-115837958D01*
X152370638Y-115865226D01*
X152322461Y-115874800D01*
X132845233Y-115874800D01*
X132782233Y-115857919D01*
X132736114Y-115811800D01*
X132719233Y-115748800D01*
X132736114Y-115685800D01*
X132778272Y-115643641D01*
X132778045Y-115643344D01*
X132778045Y-115643343D01*
X132898848Y-115550648D01*
X132991544Y-115429845D01*
X133049815Y-115289167D01*
X133069690Y-115138200D01*
X133049815Y-114987233D01*
X132991544Y-114846555D01*
X132898848Y-114725752D01*
X132892297Y-114720725D01*
X132784598Y-114638084D01*
X132784596Y-114638083D01*
X132778045Y-114633056D01*
X132770418Y-114629896D01*
X132770415Y-114629895D01*
X132644996Y-114577945D01*
X132644995Y-114577944D01*
X132637367Y-114574785D01*
X132629184Y-114573707D01*
X132629178Y-114573706D01*
X132494588Y-114555988D01*
X132486400Y-114554910D01*
X132478212Y-114555988D01*
X132341196Y-114574026D01*
X132284248Y-114568417D01*
X132235654Y-114538199D01*
X132205436Y-114489604D01*
X132199828Y-114432660D01*
X132206090Y-114385100D01*
X132186215Y-114234133D01*
X132127944Y-114093455D01*
X132035248Y-113972652D01*
X132009631Y-113952995D01*
X131920998Y-113884984D01*
X131920996Y-113884983D01*
X131914445Y-113879956D01*
X131906818Y-113876796D01*
X131906815Y-113876795D01*
X131781396Y-113824845D01*
X131781395Y-113824844D01*
X131773767Y-113821685D01*
X131765584Y-113820607D01*
X131765578Y-113820606D01*
X131630988Y-113802888D01*
X131622800Y-113801810D01*
X131614612Y-113802888D01*
X131480021Y-113820606D01*
X131480013Y-113820608D01*
X131471833Y-113821685D01*
X131464206Y-113824844D01*
X131464203Y-113824845D01*
X131338784Y-113876795D01*
X131338778Y-113876798D01*
X131331155Y-113879956D01*
X131324606Y-113884980D01*
X131324601Y-113884984D01*
X131216902Y-113967625D01*
X131216897Y-113967629D01*
X131210352Y-113972652D01*
X131205329Y-113979197D01*
X131205325Y-113979202D01*
X131117656Y-114093455D01*
X131116602Y-114092646D01*
X131077025Y-114132221D01*
X131014028Y-114149100D01*
X129908461Y-114149100D01*
X129841051Y-114129552D01*
X129794558Y-114076972D01*
X129783409Y-114007676D01*
X129811062Y-113943166D01*
X129865531Y-113876795D01*
X129931497Y-113796416D01*
X130026982Y-113617777D01*
X130085781Y-113423941D01*
X130105635Y-113222359D01*
X130085781Y-113020777D01*
X130026982Y-112826941D01*
X129931497Y-112648302D01*
X129802995Y-112491723D01*
X129670183Y-112382726D01*
X129651200Y-112367147D01*
X129651198Y-112367146D01*
X129646416Y-112363221D01*
X129467777Y-112267736D01*
X129461856Y-112265940D01*
X129461854Y-112265939D01*
X129279863Y-112210733D01*
X129279859Y-112210732D01*
X129273941Y-112208937D01*
X129072359Y-112189083D01*
X129066196Y-112189690D01*
X128876939Y-112208330D01*
X128876938Y-112208330D01*
X128870777Y-112208937D01*
X128864860Y-112210731D01*
X128864854Y-112210733D01*
X128682863Y-112265939D01*
X128682857Y-112265941D01*
X128676941Y-112267736D01*
X128671483Y-112270653D01*
X128671479Y-112270655D01*
X128523237Y-112349893D01*
X128498302Y-112363221D01*
X128493523Y-112367142D01*
X128493517Y-112367147D01*
X128346502Y-112487800D01*
X128346496Y-112487805D01*
X128341723Y-112491723D01*
X128337805Y-112496496D01*
X128337800Y-112496502D01*
X128217147Y-112643517D01*
X128217142Y-112643523D01*
X128213221Y-112648302D01*
X128210303Y-112653760D01*
X128210303Y-112653761D01*
X128120655Y-112821479D01*
X128120653Y-112821483D01*
X128117736Y-112826941D01*
X128115941Y-112832857D01*
X128115939Y-112832863D01*
X128060733Y-113014854D01*
X128060731Y-113014860D01*
X128058937Y-113020777D01*
X128039083Y-113222359D01*
X128058937Y-113423941D01*
X128117736Y-113617777D01*
X128213221Y-113796416D01*
X128217146Y-113801198D01*
X128217147Y-113801200D01*
X128333656Y-113943166D01*
X128361309Y-114007676D01*
X128350160Y-114076972D01*
X128303667Y-114129552D01*
X128236257Y-114149100D01*
X127863621Y-114149100D01*
X127815403Y-114139509D01*
X127774526Y-114112195D01*
X125088638Y-111426307D01*
X126243031Y-111426307D01*
X126262885Y-111627889D01*
X126264680Y-111633807D01*
X126264681Y-111633811D01*
X126308181Y-111777212D01*
X126321684Y-111821725D01*
X126417169Y-112000364D01*
X126545671Y-112156943D01*
X126702250Y-112285445D01*
X126880889Y-112380930D01*
X127074725Y-112439729D01*
X127276307Y-112459583D01*
X127477889Y-112439729D01*
X127671725Y-112380930D01*
X127850364Y-112285445D01*
X128006943Y-112156943D01*
X128135445Y-112000364D01*
X128230930Y-111821725D01*
X128241949Y-111785400D01*
X141809110Y-111785400D01*
X141810188Y-111793588D01*
X141827906Y-111928178D01*
X141827907Y-111928184D01*
X141828985Y-111936367D01*
X141832144Y-111943995D01*
X141832145Y-111943996D01*
X141884095Y-112069415D01*
X141884096Y-112069418D01*
X141887256Y-112077045D01*
X141979952Y-112197848D01*
X142100755Y-112290544D01*
X142241433Y-112348815D01*
X142392400Y-112368690D01*
X142543367Y-112348815D01*
X142684045Y-112290544D01*
X142804848Y-112197848D01*
X142897544Y-112077045D01*
X142955815Y-111936367D01*
X142975690Y-111785400D01*
X142955815Y-111634433D01*
X142897544Y-111493755D01*
X142804848Y-111372952D01*
X142798297Y-111367925D01*
X142690598Y-111285284D01*
X142690596Y-111285283D01*
X142684045Y-111280256D01*
X142676418Y-111277096D01*
X142676415Y-111277095D01*
X142550996Y-111225145D01*
X142550995Y-111225144D01*
X142543367Y-111221985D01*
X142535184Y-111220907D01*
X142535178Y-111220906D01*
X142400588Y-111203188D01*
X142392400Y-111202110D01*
X142384212Y-111203188D01*
X142249621Y-111220906D01*
X142249613Y-111220908D01*
X142241433Y-111221985D01*
X142233806Y-111225144D01*
X142233803Y-111225145D01*
X142108384Y-111277095D01*
X142108378Y-111277098D01*
X142100755Y-111280256D01*
X142094206Y-111285280D01*
X142094201Y-111285284D01*
X141986502Y-111367925D01*
X141986497Y-111367929D01*
X141979952Y-111372952D01*
X141974929Y-111379497D01*
X141974925Y-111379502D01*
X141892284Y-111487201D01*
X141892280Y-111487206D01*
X141887256Y-111493755D01*
X141884098Y-111501378D01*
X141884095Y-111501384D01*
X141834248Y-111621726D01*
X141828985Y-111634433D01*
X141827908Y-111642613D01*
X141827906Y-111642621D01*
X141810832Y-111772313D01*
X141809110Y-111785400D01*
X128241949Y-111785400D01*
X128289729Y-111627889D01*
X128309583Y-111426307D01*
X128289729Y-111224725D01*
X128230930Y-111030889D01*
X128135445Y-110852250D01*
X128006943Y-110695671D01*
X127850364Y-110567169D01*
X127671725Y-110471684D01*
X127665804Y-110469888D01*
X127665802Y-110469887D01*
X127483811Y-110414681D01*
X127483807Y-110414680D01*
X127477889Y-110412885D01*
X127276307Y-110393031D01*
X127270144Y-110393638D01*
X127080887Y-110412278D01*
X127080886Y-110412278D01*
X127074725Y-110412885D01*
X127068808Y-110414679D01*
X127068802Y-110414681D01*
X126886811Y-110469887D01*
X126886805Y-110469889D01*
X126880889Y-110471684D01*
X126875431Y-110474601D01*
X126875427Y-110474603D01*
X126712699Y-110561584D01*
X126702250Y-110567169D01*
X126697471Y-110571090D01*
X126697465Y-110571095D01*
X126550450Y-110691748D01*
X126550444Y-110691753D01*
X126545671Y-110695671D01*
X126541753Y-110700444D01*
X126541748Y-110700450D01*
X126421095Y-110847465D01*
X126421090Y-110847471D01*
X126417169Y-110852250D01*
X126414251Y-110857708D01*
X126414251Y-110857709D01*
X126324603Y-111025427D01*
X126324601Y-111025431D01*
X126321684Y-111030889D01*
X126319889Y-111036805D01*
X126319887Y-111036811D01*
X126264681Y-111218802D01*
X126264679Y-111218808D01*
X126262885Y-111224725D01*
X126243031Y-111426307D01*
X125088638Y-111426307D01*
X123292587Y-109630256D01*
X124446980Y-109630256D01*
X124466834Y-109831838D01*
X124525633Y-110025674D01*
X124621118Y-110204313D01*
X124625043Y-110209095D01*
X124625044Y-110209097D01*
X124684141Y-110281106D01*
X124749620Y-110360892D01*
X124906199Y-110489394D01*
X125084838Y-110584879D01*
X125278674Y-110643678D01*
X125480256Y-110663532D01*
X125681838Y-110643678D01*
X125875674Y-110584879D01*
X126054313Y-110489394D01*
X126210892Y-110360892D01*
X126339394Y-110204313D01*
X126434879Y-110025674D01*
X126493678Y-109831838D01*
X126513532Y-109630256D01*
X126493678Y-109428674D01*
X126434879Y-109234838D01*
X126339394Y-109056199D01*
X126210892Y-108899620D01*
X126054313Y-108771118D01*
X125875674Y-108675633D01*
X125869753Y-108673837D01*
X125869751Y-108673836D01*
X125687760Y-108618630D01*
X125687756Y-108618629D01*
X125681838Y-108616834D01*
X125480256Y-108596980D01*
X125474093Y-108597587D01*
X125284836Y-108616227D01*
X125284835Y-108616227D01*
X125278674Y-108616834D01*
X125272757Y-108618628D01*
X125272751Y-108618630D01*
X125090760Y-108673836D01*
X125090754Y-108673838D01*
X125084838Y-108675633D01*
X125079380Y-108678550D01*
X125079376Y-108678552D01*
X124915368Y-108766217D01*
X124906199Y-108771118D01*
X124901420Y-108775039D01*
X124901414Y-108775044D01*
X124754399Y-108895697D01*
X124754393Y-108895702D01*
X124749620Y-108899620D01*
X124745702Y-108904393D01*
X124745697Y-108904399D01*
X124625044Y-109051414D01*
X124625039Y-109051420D01*
X124621118Y-109056199D01*
X124618200Y-109061657D01*
X124618200Y-109061658D01*
X124528552Y-109229376D01*
X124528550Y-109229380D01*
X124525633Y-109234838D01*
X124523838Y-109240754D01*
X124523836Y-109240760D01*
X124468630Y-109422751D01*
X124468628Y-109422757D01*
X124466834Y-109428674D01*
X124446980Y-109630256D01*
X123292587Y-109630256D01*
X122228359Y-108566028D01*
X122201045Y-108525151D01*
X122191454Y-108476933D01*
X122191454Y-107834205D01*
X122650929Y-107834205D01*
X122670783Y-108035787D01*
X122672578Y-108041705D01*
X122672579Y-108041709D01*
X122704548Y-108147096D01*
X122729582Y-108229623D01*
X122825067Y-108408262D01*
X122953569Y-108564841D01*
X123110148Y-108693343D01*
X123288787Y-108788828D01*
X123482623Y-108847627D01*
X123684205Y-108867481D01*
X123885787Y-108847627D01*
X124079623Y-108788828D01*
X124258262Y-108693343D01*
X124414841Y-108564841D01*
X124543343Y-108408262D01*
X124638828Y-108229623D01*
X124640625Y-108223700D01*
X124642995Y-108217979D01*
X124644315Y-108218525D01*
X124665490Y-108180426D01*
X124708220Y-108148736D01*
X124760220Y-108137505D01*
X125944384Y-108137505D01*
X125992602Y-108147096D01*
X126033479Y-108174410D01*
X128882151Y-111023082D01*
X128884497Y-111025777D01*
X128887369Y-111031545D01*
X128895993Y-111039407D01*
X128895994Y-111039408D01*
X128921951Y-111063071D01*
X128926160Y-111067091D01*
X128939009Y-111079940D01*
X128943829Y-111083242D01*
X128944383Y-111083702D01*
X128948760Y-111087511D01*
X128957174Y-111095182D01*
X128962539Y-111100073D01*
X128962540Y-111100073D01*
X128971167Y-111107938D01*
X128982052Y-111112154D01*
X128988832Y-111116352D01*
X128992046Y-111118046D01*
X128999335Y-111121264D01*
X129008969Y-111127864D01*
X129035164Y-111134024D01*
X129051816Y-111139181D01*
X129076903Y-111148900D01*
X129088579Y-111148900D01*
X129096401Y-111150362D01*
X129100039Y-111150784D01*
X129107982Y-111151151D01*
X129119350Y-111153825D01*
X129145996Y-111150107D01*
X129163404Y-111148900D01*
X134417264Y-111148900D01*
X134472992Y-111161894D01*
X134517222Y-111198192D01*
X134563152Y-111258048D01*
X134683955Y-111350744D01*
X134824633Y-111409015D01*
X134975600Y-111428890D01*
X135126567Y-111409015D01*
X135267245Y-111350744D01*
X135388048Y-111258048D01*
X135480744Y-111137245D01*
X135539015Y-110996567D01*
X135558890Y-110845600D01*
X135539015Y-110694633D01*
X135480744Y-110553955D01*
X135388048Y-110433152D01*
X135344566Y-110399787D01*
X135304864Y-110348044D01*
X135296351Y-110283380D01*
X135321311Y-110223122D01*
X135373056Y-110183418D01*
X135437716Y-110174905D01*
X135509000Y-110184290D01*
X135659967Y-110164415D01*
X135800645Y-110106144D01*
X135921448Y-110013448D01*
X136014144Y-109892645D01*
X136072415Y-109751967D01*
X136092290Y-109601000D01*
X136072415Y-109450033D01*
X136014144Y-109309355D01*
X135921448Y-109188552D01*
X135800645Y-109095856D01*
X135793018Y-109092696D01*
X135793015Y-109092695D01*
X135667596Y-109040745D01*
X135667595Y-109040744D01*
X135659967Y-109037585D01*
X135651784Y-109036507D01*
X135651778Y-109036506D01*
X135517188Y-109018788D01*
X135509000Y-109017710D01*
X135500812Y-109018788D01*
X135366221Y-109036506D01*
X135366213Y-109036508D01*
X135358033Y-109037585D01*
X135350406Y-109040744D01*
X135350403Y-109040745D01*
X135224984Y-109092695D01*
X135224978Y-109092698D01*
X135217355Y-109095856D01*
X135210806Y-109100880D01*
X135210801Y-109100884D01*
X135103102Y-109183525D01*
X135103097Y-109183529D01*
X135096552Y-109188552D01*
X135091529Y-109195097D01*
X135091525Y-109195102D01*
X135008884Y-109302801D01*
X135008880Y-109302806D01*
X135003856Y-109309355D01*
X135000698Y-109316978D01*
X135000695Y-109316984D01*
X134948745Y-109442403D01*
X134945585Y-109450033D01*
X134944508Y-109458213D01*
X134944506Y-109458221D01*
X134927432Y-109587913D01*
X134925710Y-109601000D01*
X134926788Y-109609188D01*
X134944506Y-109743778D01*
X134944507Y-109743784D01*
X134945585Y-109751967D01*
X134948744Y-109759595D01*
X134948745Y-109759596D01*
X135000695Y-109885015D01*
X135000696Y-109885018D01*
X135003856Y-109892645D01*
X135096552Y-110013448D01*
X135103102Y-110018474D01*
X135140030Y-110046810D01*
X135179735Y-110098554D01*
X135188248Y-110163218D01*
X135163289Y-110223476D01*
X135111544Y-110263181D01*
X135046880Y-110271694D01*
X134983788Y-110263388D01*
X134975600Y-110262310D01*
X134967412Y-110263388D01*
X134832821Y-110281106D01*
X134832813Y-110281108D01*
X134824633Y-110282185D01*
X134817006Y-110285344D01*
X134817003Y-110285345D01*
X134691584Y-110337295D01*
X134691578Y-110337298D01*
X134683955Y-110340456D01*
X134677406Y-110345480D01*
X134677401Y-110345484D01*
X134569702Y-110428125D01*
X134569697Y-110428129D01*
X134563152Y-110433152D01*
X134517222Y-110493007D01*
X134472992Y-110529306D01*
X134417264Y-110542300D01*
X129311421Y-110542300D01*
X129263203Y-110532709D01*
X129222326Y-110505395D01*
X126373651Y-107656720D01*
X126371307Y-107654027D01*
X126368436Y-107648260D01*
X126359805Y-107640391D01*
X126359803Y-107640389D01*
X126333852Y-107616731D01*
X126329643Y-107612712D01*
X126320924Y-107603993D01*
X126316797Y-107599866D01*
X126311981Y-107596567D01*
X126311417Y-107596099D01*
X126307021Y-107592273D01*
X126293265Y-107579732D01*
X126284638Y-107571867D01*
X126273752Y-107567649D01*
X126266984Y-107563459D01*
X126263758Y-107561758D01*
X126256468Y-107558539D01*
X126246836Y-107551941D01*
X126220651Y-107545782D01*
X126203988Y-107540622D01*
X126189793Y-107535123D01*
X126189787Y-107535121D01*
X126178902Y-107530905D01*
X126167227Y-107530905D01*
X126159400Y-107529442D01*
X126155774Y-107529021D01*
X126147818Y-107528653D01*
X126136455Y-107525981D01*
X126124891Y-107527594D01*
X126109816Y-107529697D01*
X126092408Y-107530905D01*
X124760220Y-107530905D01*
X124708220Y-107519674D01*
X124665490Y-107487984D01*
X124644315Y-107449884D01*
X124642995Y-107450431D01*
X124640622Y-107444704D01*
X124638828Y-107438787D01*
X124635908Y-107433325D01*
X124613307Y-107391042D01*
X124543343Y-107260148D01*
X124414841Y-107103569D01*
X124312329Y-107019439D01*
X124263046Y-106978993D01*
X124263044Y-106978992D01*
X124258262Y-106975067D01*
X124079623Y-106879582D01*
X124073702Y-106877786D01*
X124073700Y-106877785D01*
X123891709Y-106822579D01*
X123891705Y-106822578D01*
X123885787Y-106820783D01*
X123684205Y-106800929D01*
X123678042Y-106801536D01*
X123488785Y-106820176D01*
X123488784Y-106820176D01*
X123482623Y-106820783D01*
X123476706Y-106822577D01*
X123476700Y-106822579D01*
X123294709Y-106877785D01*
X123294703Y-106877787D01*
X123288787Y-106879582D01*
X123283329Y-106882499D01*
X123283325Y-106882501D01*
X123115607Y-106972149D01*
X123110148Y-106975067D01*
X123105369Y-106978988D01*
X123105363Y-106978993D01*
X122958348Y-107099646D01*
X122958342Y-107099651D01*
X122953569Y-107103569D01*
X122949651Y-107108342D01*
X122949646Y-107108348D01*
X122828993Y-107255363D01*
X122828988Y-107255369D01*
X122825067Y-107260148D01*
X122822149Y-107265606D01*
X122822149Y-107265607D01*
X122732501Y-107433325D01*
X122732499Y-107433329D01*
X122729582Y-107438787D01*
X122727787Y-107444703D01*
X122727785Y-107444709D01*
X122672579Y-107626700D01*
X122672577Y-107626706D01*
X122670783Y-107632623D01*
X122670176Y-107638784D01*
X122670176Y-107638785D01*
X122657971Y-107762704D01*
X122650929Y-107834205D01*
X122191454Y-107834205D01*
X122191454Y-107114169D01*
X122202685Y-107062169D01*
X122234375Y-107019439D01*
X122272474Y-106998264D01*
X122271928Y-106996944D01*
X122277653Y-106994572D01*
X122283572Y-106992777D01*
X122462211Y-106897292D01*
X122618790Y-106768790D01*
X122747292Y-106612211D01*
X122842777Y-106433572D01*
X122901576Y-106239736D01*
X122921430Y-106038154D01*
X122901576Y-105836572D01*
X122842777Y-105642736D01*
X122747292Y-105464097D01*
X122618790Y-105307518D01*
X122488867Y-105200892D01*
X122466995Y-105182942D01*
X122466993Y-105182941D01*
X122462211Y-105179016D01*
X122283572Y-105083531D01*
X122277651Y-105081735D01*
X122277649Y-105081734D01*
X122095658Y-105026528D01*
X122095654Y-105026527D01*
X122089736Y-105024732D01*
X121888154Y-105004878D01*
X121881991Y-105005485D01*
X121692734Y-105024125D01*
X121692733Y-105024125D01*
X121686572Y-105024732D01*
X121680655Y-105026526D01*
X121680649Y-105026528D01*
X121498658Y-105081734D01*
X121498652Y-105081736D01*
X121492736Y-105083531D01*
X121487278Y-105086448D01*
X121487274Y-105086450D01*
X121319556Y-105176098D01*
X121314097Y-105179016D01*
X121309318Y-105182937D01*
X121309312Y-105182942D01*
X121162297Y-105303595D01*
X121162291Y-105303600D01*
X121157518Y-105307518D01*
X121153600Y-105312291D01*
X121153595Y-105312297D01*
X121032942Y-105459312D01*
X121032937Y-105459318D01*
X121029016Y-105464097D01*
X121026098Y-105469555D01*
X121026098Y-105469556D01*
X120936450Y-105637274D01*
X120936448Y-105637278D01*
X120933531Y-105642736D01*
X120931736Y-105648652D01*
X120931734Y-105648658D01*
X120876528Y-105830649D01*
X120876526Y-105830655D01*
X120874732Y-105836572D01*
X120854878Y-106038154D01*
X120874732Y-106239736D01*
X120933531Y-106433572D01*
X121029016Y-106612211D01*
X121157518Y-106768790D01*
X121314097Y-106897292D01*
X121444991Y-106967256D01*
X121487280Y-106989861D01*
X121487282Y-106989862D01*
X121492736Y-106992777D01*
X121498653Y-106994571D01*
X121504380Y-106996944D01*
X121503833Y-106998264D01*
X121541933Y-107019439D01*
X121573623Y-107062169D01*
X121584854Y-107114169D01*
X121584854Y-108481933D01*
X121571121Y-108539136D01*
X121532915Y-108583869D01*
X121478565Y-108606382D01*
X121419918Y-108601766D01*
X121369759Y-108571028D01*
X120432307Y-107633576D01*
X120404993Y-107592699D01*
X120395402Y-107544481D01*
X120395402Y-105318117D01*
X120406633Y-105266117D01*
X120438323Y-105223387D01*
X120476422Y-105202212D01*
X120475876Y-105200892D01*
X120481601Y-105198520D01*
X120487520Y-105196725D01*
X120666159Y-105101240D01*
X120822738Y-104972738D01*
X120951240Y-104816159D01*
X121046725Y-104637520D01*
X121105524Y-104443684D01*
X121125378Y-104242102D01*
X121105524Y-104040520D01*
X121046725Y-103846684D01*
X120951240Y-103668045D01*
X120822738Y-103511466D01*
X120719139Y-103426444D01*
X120670943Y-103386890D01*
X120670941Y-103386889D01*
X120666159Y-103382964D01*
X120487520Y-103287479D01*
X120481599Y-103285683D01*
X120481597Y-103285682D01*
X120299606Y-103230476D01*
X120299602Y-103230475D01*
X120293684Y-103228680D01*
X120092102Y-103208826D01*
X120085939Y-103209433D01*
X119896682Y-103228073D01*
X119896681Y-103228073D01*
X119890520Y-103228680D01*
X119884603Y-103230474D01*
X119884597Y-103230476D01*
X119702606Y-103285682D01*
X119702600Y-103285684D01*
X119696684Y-103287479D01*
X119691226Y-103290396D01*
X119691222Y-103290398D01*
X119523504Y-103380046D01*
X119518045Y-103382964D01*
X119513266Y-103386885D01*
X119513260Y-103386890D01*
X119366245Y-103507543D01*
X119366239Y-103507548D01*
X119361466Y-103511466D01*
X119357548Y-103516239D01*
X119357543Y-103516245D01*
X119236890Y-103663260D01*
X119236885Y-103663266D01*
X119232964Y-103668045D01*
X119230046Y-103673503D01*
X119230046Y-103673504D01*
X119140398Y-103841222D01*
X119140396Y-103841226D01*
X119137479Y-103846684D01*
X119135684Y-103852600D01*
X119135682Y-103852606D01*
X119080476Y-104034597D01*
X119080474Y-104034603D01*
X119078680Y-104040520D01*
X119058826Y-104242102D01*
X119078680Y-104443684D01*
X119080475Y-104449602D01*
X119080476Y-104449606D01*
X119108055Y-104540522D01*
X119137479Y-104637520D01*
X119232964Y-104816159D01*
X119361466Y-104972738D01*
X119518045Y-105101240D01*
X119648939Y-105171204D01*
X119691228Y-105193809D01*
X119691230Y-105193810D01*
X119696684Y-105196725D01*
X119702601Y-105198519D01*
X119708328Y-105200892D01*
X119707781Y-105202212D01*
X119745881Y-105223387D01*
X119777571Y-105266117D01*
X119788802Y-105318117D01*
X119788802Y-107670001D01*
X119788554Y-107673563D01*
X119786507Y-107679673D01*
X119787046Y-107691334D01*
X119787046Y-107691335D01*
X119788668Y-107726414D01*
X119788802Y-107732233D01*
X119788802Y-107750408D01*
X119789870Y-107756129D01*
X119789943Y-107756908D01*
X119790345Y-107762704D01*
X119791204Y-107781284D01*
X119791204Y-107781286D01*
X119791744Y-107792946D01*
X119796458Y-107803622D01*
X119798279Y-107811365D01*
X119799364Y-107814869D01*
X119802238Y-107822288D01*
X119804384Y-107833765D01*
X119810529Y-107843690D01*
X119810531Y-107843694D01*
X119818545Y-107856637D01*
X119826680Y-107872069D01*
X119837546Y-107896677D01*
X119845802Y-107904933D01*
X119850304Y-107911505D01*
X119852568Y-107914363D01*
X119857931Y-107920246D01*
X119864078Y-107930173D01*
X119873394Y-107937208D01*
X119873395Y-107937209D01*
X119885545Y-107946384D01*
X119898708Y-107957839D01*
X127205751Y-115264882D01*
X127208097Y-115267577D01*
X127210969Y-115273345D01*
X127219593Y-115281207D01*
X127219594Y-115281208D01*
X127245551Y-115304871D01*
X127249760Y-115308891D01*
X127262608Y-115321739D01*
X127267417Y-115325033D01*
X127267990Y-115325509D01*
X127272373Y-115329323D01*
X127294767Y-115349738D01*
X127305650Y-115353953D01*
X127312419Y-115358145D01*
X127315627Y-115359836D01*
X127322932Y-115363061D01*
X127332569Y-115369663D01*
X127358752Y-115375820D01*
X127375417Y-115380981D01*
X127400503Y-115390700D01*
X127412183Y-115390700D01*
X127420009Y-115392163D01*
X127423631Y-115392583D01*
X127431582Y-115392950D01*
X127442949Y-115395624D01*
X127469588Y-115391907D01*
X127486996Y-115390700D01*
X131889083Y-115390700D01*
X131944811Y-115403694D01*
X131989045Y-115439996D01*
X132073952Y-115550648D01*
X132192498Y-115641612D01*
X132194755Y-115643344D01*
X132194527Y-115643641D01*
X132236686Y-115685800D01*
X132253567Y-115748800D01*
X132236686Y-115811800D01*
X132190567Y-115857919D01*
X132127567Y-115874800D01*
X127052086Y-115874800D01*
X127003950Y-115865243D01*
X126963117Y-115838021D01*
X111732071Y-100650000D01*
X115116126Y-100650000D01*
X115118547Y-100662171D01*
X115127542Y-100707396D01*
X115129964Y-100719569D01*
X115136857Y-100729885D01*
X115154372Y-100756100D01*
X115159424Y-100763660D01*
X116386340Y-101990575D01*
X116430431Y-102020036D01*
X116500000Y-102033874D01*
X116569569Y-102020036D01*
X116613660Y-101990576D01*
X117840575Y-100763660D01*
X117870036Y-100719569D01*
X117883874Y-100650000D01*
X117870036Y-100580431D01*
X117840576Y-100536340D01*
X116613660Y-99309425D01*
X116569569Y-99279964D01*
X116557399Y-99277543D01*
X116557396Y-99277542D01*
X116512171Y-99268547D01*
X116500000Y-99266126D01*
X116487829Y-99268547D01*
X116442600Y-99277543D01*
X116442597Y-99277543D01*
X116430431Y-99279964D01*
X116420115Y-99286856D01*
X116420114Y-99286857D01*
X116391484Y-99305986D01*
X116391477Y-99305991D01*
X116386340Y-99309424D01*
X116381966Y-99313797D01*
X116381961Y-99313802D01*
X115163803Y-100531961D01*
X115163798Y-100531966D01*
X115159425Y-100536340D01*
X115155988Y-100541482D01*
X115155986Y-100541486D01*
X115136859Y-100570111D01*
X115136857Y-100570113D01*
X115129964Y-100580431D01*
X115127543Y-100592598D01*
X115127542Y-100592603D01*
X115119142Y-100634835D01*
X115116126Y-100650000D01*
X111732071Y-100650000D01*
X109053478Y-97978974D01*
X109026236Y-97938446D01*
X109016450Y-97890604D01*
X108991930Y-94261817D01*
X109001356Y-94213145D01*
X109028830Y-94171877D01*
X114935012Y-88265695D01*
X114991550Y-88233071D01*
X115056832Y-88233120D01*
X115113326Y-88265829D01*
X123423102Y-96600189D01*
X123559627Y-96737118D01*
X123586844Y-96777950D01*
X123596400Y-96826082D01*
X123596400Y-103860600D01*
X127558800Y-107823000D01*
X127571210Y-107823000D01*
X134146210Y-107823000D01*
X134162800Y-107823000D01*
X134162800Y-106958400D01*
X134179681Y-106895400D01*
X134225800Y-106849281D01*
X134288800Y-106832400D01*
X150787390Y-106832400D01*
X150799800Y-106832400D01*
X152196800Y-105435400D01*
X152171550Y-96648599D01*
X152181071Y-96600189D01*
X152208451Y-96559148D01*
X162381653Y-86385946D01*
X162438135Y-86353336D01*
X162503357Y-86353336D01*
X162559841Y-86385948D01*
G37*
%TD.AperFunction*%
%TD*%
D28*
X170357800Y-94183200D02*
X170357800Y-97942400D01*
X152374600Y-115900200D01*
X126974600Y-115900200D01*
X108991400Y-97942400D01*
X108991400Y-94208600D01*
X126974600Y-76225400D01*
X152400000Y-76225400D01*
X170357800Y-94183200D01*
M02*
