M48
; DRILL file {KiCad (7.0.0)} date Mon 06 Mar 2023 07:23:16 PM EST
; FORMAT={-:-/ absolute / inch / decimal}
; #@! TF.CreationDate,2023-03-06T19:23:16-05:00
; #@! TF.GenerationSoftware,Kicad,Pcbnew,(7.0.0)
; #@! TF.FileFunction,Plated,1,4,PTH
FMAT,2
INCH
; #@! TA.AperFunction,Plated,PTH,ViaDrill
T1C0.0157
; #@! TA.AperFunction,Plated,PTH,ComponentDrill
T2C0.0394
%
G90
G05
T1
X5.0001Y-3.668
X5.0395Y-3.668
X5.0815Y-3.6655
X5.1215Y-3.6666
X5.182Y-4.5034
X5.2007Y-3.6609
X5.216Y-4.533
X5.24Y-3.662
X5.2793Y-3.6552
X5.305Y-3.903
X5.313Y-4.008
X5.313Y-4.153
X5.314Y-4.364
X5.3258Y-3.6455
X5.335Y-4.315
X5.397Y-3.656
X5.4363Y-3.6581
X5.4756Y-3.658
X5.515Y-3.658
X5.559Y-3.903
X5.5847Y-3.658
X5.606Y-4.401
X5.618Y-3.878
X5.618Y-4.002
X5.624Y-3.66
X5.6705Y-3.662
X5.718Y-3.664
X5.7406Y-4.0733
X5.797Y-3.658
X5.837Y-3.66
X5.9025Y-3.6625
T2
X4.5866Y-3.9626
X4.6573Y-4.0333
X4.728Y-4.104
X4.7987Y-4.1747
X4.8695Y-4.2454
X4.908Y-3.246
X4.908Y-3.346
X4.9402Y-4.3162
X5.008Y-3.246
X5.008Y-3.346
X5.0109Y-4.3869
X5.0816Y-4.4576
X5.108Y-3.246
X5.108Y-3.346
X5.208Y-3.246
X5.208Y-3.346
X5.308Y-3.246
X5.308Y-3.346
X5.408Y-3.246
X5.408Y-3.346
X5.508Y-3.246
X5.508Y-3.346
X5.608Y-3.246
X5.608Y-3.346
X5.708Y-3.246
X5.708Y-3.346
X5.808Y-3.246
X5.808Y-3.346
X5.902Y-3.882
X5.902Y-3.982
X5.908Y-3.246
X5.908Y-3.346
X6.008Y-3.246
X6.008Y-3.346
X6.108Y-3.246
X6.108Y-3.346
T0
M30
