%TF.GenerationSoftware,KiCad,Pcbnew,(7.0.0)*%
%TF.CreationDate,2023-03-06T19:23:03-05:00*%
%TF.ProjectId,cyton daisy,6379746f-6e20-4646-9169-73792e6b6963,rev?*%
%TF.SameCoordinates,Original*%
%TF.FileFunction,Legend,Top*%
%TF.FilePolarity,Positive*%
%FSLAX46Y46*%
G04 Gerber Fmt 4.6, Leading zero omitted, Abs format (unit mm)*
G04 Created by KiCad (PCBNEW (7.0.0)) date 2023-03-06 19:23:03*
%MOMM*%
%LPD*%
G01*
G04 APERTURE LIST*
%ADD10C,0.152400*%
%ADD11C,0.150000*%
%ADD12C,0.120000*%
%ADD13C,0.127000*%
%ADD14C,0.200000*%
%TA.AperFunction,Profile*%
%ADD15C,0.101600*%
%TD*%
G04 APERTURE END LIST*
D10*
X129794000Y-102793800D02*
X126492000Y-102870000D01*
D11*
%TO.C,C13*%
X125315742Y-101922942D02*
X125268123Y-101970561D01*
X125268123Y-101970561D02*
X125125266Y-102018180D01*
X125125266Y-102018180D02*
X125030028Y-102018180D01*
X125030028Y-102018180D02*
X124887171Y-101970561D01*
X124887171Y-101970561D02*
X124791933Y-101875323D01*
X124791933Y-101875323D02*
X124744314Y-101780085D01*
X124744314Y-101780085D02*
X124696695Y-101589609D01*
X124696695Y-101589609D02*
X124696695Y-101446752D01*
X124696695Y-101446752D02*
X124744314Y-101256276D01*
X124744314Y-101256276D02*
X124791933Y-101161038D01*
X124791933Y-101161038D02*
X124887171Y-101065800D01*
X124887171Y-101065800D02*
X125030028Y-101018180D01*
X125030028Y-101018180D02*
X125125266Y-101018180D01*
X125125266Y-101018180D02*
X125268123Y-101065800D01*
X125268123Y-101065800D02*
X125315742Y-101113419D01*
X126268123Y-102018180D02*
X125696695Y-102018180D01*
X125982409Y-102018180D02*
X125982409Y-101018180D01*
X125982409Y-101018180D02*
X125887171Y-101161038D01*
X125887171Y-101161038D02*
X125791933Y-101256276D01*
X125791933Y-101256276D02*
X125696695Y-101303895D01*
X126601457Y-101018180D02*
X127220504Y-101018180D01*
X127220504Y-101018180D02*
X126887171Y-101399133D01*
X126887171Y-101399133D02*
X127030028Y-101399133D01*
X127030028Y-101399133D02*
X127125266Y-101446752D01*
X127125266Y-101446752D02*
X127172885Y-101494371D01*
X127172885Y-101494371D02*
X127220504Y-101589609D01*
X127220504Y-101589609D02*
X127220504Y-101827704D01*
X127220504Y-101827704D02*
X127172885Y-101922942D01*
X127172885Y-101922942D02*
X127125266Y-101970561D01*
X127125266Y-101970561D02*
X127030028Y-102018180D01*
X127030028Y-102018180D02*
X126744314Y-102018180D01*
X126744314Y-102018180D02*
X126649076Y-101970561D01*
X126649076Y-101970561D02*
X126601457Y-101922942D01*
%TO.C,R2*%
X133310333Y-88835580D02*
X132977000Y-88359390D01*
X132738905Y-88835580D02*
X132738905Y-87835580D01*
X132738905Y-87835580D02*
X133119857Y-87835580D01*
X133119857Y-87835580D02*
X133215095Y-87883200D01*
X133215095Y-87883200D02*
X133262714Y-87930819D01*
X133262714Y-87930819D02*
X133310333Y-88026057D01*
X133310333Y-88026057D02*
X133310333Y-88168914D01*
X133310333Y-88168914D02*
X133262714Y-88264152D01*
X133262714Y-88264152D02*
X133215095Y-88311771D01*
X133215095Y-88311771D02*
X133119857Y-88359390D01*
X133119857Y-88359390D02*
X132738905Y-88359390D01*
X133691286Y-87930819D02*
X133738905Y-87883200D01*
X133738905Y-87883200D02*
X133834143Y-87835580D01*
X133834143Y-87835580D02*
X134072238Y-87835580D01*
X134072238Y-87835580D02*
X134167476Y-87883200D01*
X134167476Y-87883200D02*
X134215095Y-87930819D01*
X134215095Y-87930819D02*
X134262714Y-88026057D01*
X134262714Y-88026057D02*
X134262714Y-88121295D01*
X134262714Y-88121295D02*
X134215095Y-88264152D01*
X134215095Y-88264152D02*
X133643667Y-88835580D01*
X133643667Y-88835580D02*
X134262714Y-88835580D01*
%TO.C,C14*%
X131615542Y-99398057D02*
X131663161Y-99445676D01*
X131663161Y-99445676D02*
X131710780Y-99588533D01*
X131710780Y-99588533D02*
X131710780Y-99683771D01*
X131710780Y-99683771D02*
X131663161Y-99826628D01*
X131663161Y-99826628D02*
X131567923Y-99921866D01*
X131567923Y-99921866D02*
X131472685Y-99969485D01*
X131472685Y-99969485D02*
X131282209Y-100017104D01*
X131282209Y-100017104D02*
X131139352Y-100017104D01*
X131139352Y-100017104D02*
X130948876Y-99969485D01*
X130948876Y-99969485D02*
X130853638Y-99921866D01*
X130853638Y-99921866D02*
X130758400Y-99826628D01*
X130758400Y-99826628D02*
X130710780Y-99683771D01*
X130710780Y-99683771D02*
X130710780Y-99588533D01*
X130710780Y-99588533D02*
X130758400Y-99445676D01*
X130758400Y-99445676D02*
X130806019Y-99398057D01*
X131710780Y-98445676D02*
X131710780Y-99017104D01*
X131710780Y-98731390D02*
X130710780Y-98731390D01*
X130710780Y-98731390D02*
X130853638Y-98826628D01*
X130853638Y-98826628D02*
X130948876Y-98921866D01*
X130948876Y-98921866D02*
X130996495Y-99017104D01*
X131044114Y-97588533D02*
X131710780Y-97588533D01*
X130663161Y-97826628D02*
X131377447Y-98064723D01*
X131377447Y-98064723D02*
X131377447Y-97445676D01*
%TO.C,C15*%
X147414342Y-96324657D02*
X147461961Y-96372276D01*
X147461961Y-96372276D02*
X147509580Y-96515133D01*
X147509580Y-96515133D02*
X147509580Y-96610371D01*
X147509580Y-96610371D02*
X147461961Y-96753228D01*
X147461961Y-96753228D02*
X147366723Y-96848466D01*
X147366723Y-96848466D02*
X147271485Y-96896085D01*
X147271485Y-96896085D02*
X147081009Y-96943704D01*
X147081009Y-96943704D02*
X146938152Y-96943704D01*
X146938152Y-96943704D02*
X146747676Y-96896085D01*
X146747676Y-96896085D02*
X146652438Y-96848466D01*
X146652438Y-96848466D02*
X146557200Y-96753228D01*
X146557200Y-96753228D02*
X146509580Y-96610371D01*
X146509580Y-96610371D02*
X146509580Y-96515133D01*
X146509580Y-96515133D02*
X146557200Y-96372276D01*
X146557200Y-96372276D02*
X146604819Y-96324657D01*
X147509580Y-95372276D02*
X147509580Y-95943704D01*
X147509580Y-95657990D02*
X146509580Y-95657990D01*
X146509580Y-95657990D02*
X146652438Y-95753228D01*
X146652438Y-95753228D02*
X146747676Y-95848466D01*
X146747676Y-95848466D02*
X146795295Y-95943704D01*
X146509580Y-94467514D02*
X146509580Y-94943704D01*
X146509580Y-94943704D02*
X146985771Y-94991323D01*
X146985771Y-94991323D02*
X146938152Y-94943704D01*
X146938152Y-94943704D02*
X146890533Y-94848466D01*
X146890533Y-94848466D02*
X146890533Y-94610371D01*
X146890533Y-94610371D02*
X146938152Y-94515133D01*
X146938152Y-94515133D02*
X146985771Y-94467514D01*
X146985771Y-94467514D02*
X147081009Y-94419895D01*
X147081009Y-94419895D02*
X147319104Y-94419895D01*
X147319104Y-94419895D02*
X147414342Y-94467514D01*
X147414342Y-94467514D02*
X147461961Y-94515133D01*
X147461961Y-94515133D02*
X147509580Y-94610371D01*
X147509580Y-94610371D02*
X147509580Y-94848466D01*
X147509580Y-94848466D02*
X147461961Y-94943704D01*
X147461961Y-94943704D02*
X147414342Y-94991323D01*
%TO.C,R6*%
X146290380Y-96178666D02*
X145814190Y-96511999D01*
X146290380Y-96750094D02*
X145290380Y-96750094D01*
X145290380Y-96750094D02*
X145290380Y-96369142D01*
X145290380Y-96369142D02*
X145338000Y-96273904D01*
X145338000Y-96273904D02*
X145385619Y-96226285D01*
X145385619Y-96226285D02*
X145480857Y-96178666D01*
X145480857Y-96178666D02*
X145623714Y-96178666D01*
X145623714Y-96178666D02*
X145718952Y-96226285D01*
X145718952Y-96226285D02*
X145766571Y-96273904D01*
X145766571Y-96273904D02*
X145814190Y-96369142D01*
X145814190Y-96369142D02*
X145814190Y-96750094D01*
X145290380Y-95321523D02*
X145290380Y-95511999D01*
X145290380Y-95511999D02*
X145338000Y-95607237D01*
X145338000Y-95607237D02*
X145385619Y-95654856D01*
X145385619Y-95654856D02*
X145528476Y-95750094D01*
X145528476Y-95750094D02*
X145718952Y-95797713D01*
X145718952Y-95797713D02*
X146099904Y-95797713D01*
X146099904Y-95797713D02*
X146195142Y-95750094D01*
X146195142Y-95750094D02*
X146242761Y-95702475D01*
X146242761Y-95702475D02*
X146290380Y-95607237D01*
X146290380Y-95607237D02*
X146290380Y-95416761D01*
X146290380Y-95416761D02*
X146242761Y-95321523D01*
X146242761Y-95321523D02*
X146195142Y-95273904D01*
X146195142Y-95273904D02*
X146099904Y-95226285D01*
X146099904Y-95226285D02*
X145861809Y-95226285D01*
X145861809Y-95226285D02*
X145766571Y-95273904D01*
X145766571Y-95273904D02*
X145718952Y-95321523D01*
X145718952Y-95321523D02*
X145671333Y-95416761D01*
X145671333Y-95416761D02*
X145671333Y-95607237D01*
X145671333Y-95607237D02*
X145718952Y-95702475D01*
X145718952Y-95702475D02*
X145766571Y-95750094D01*
X145766571Y-95750094D02*
X145861809Y-95797713D01*
%TO.C,R1*%
X128255733Y-88733980D02*
X127922400Y-88257790D01*
X127684305Y-88733980D02*
X127684305Y-87733980D01*
X127684305Y-87733980D02*
X128065257Y-87733980D01*
X128065257Y-87733980D02*
X128160495Y-87781600D01*
X128160495Y-87781600D02*
X128208114Y-87829219D01*
X128208114Y-87829219D02*
X128255733Y-87924457D01*
X128255733Y-87924457D02*
X128255733Y-88067314D01*
X128255733Y-88067314D02*
X128208114Y-88162552D01*
X128208114Y-88162552D02*
X128160495Y-88210171D01*
X128160495Y-88210171D02*
X128065257Y-88257790D01*
X128065257Y-88257790D02*
X127684305Y-88257790D01*
X129208114Y-88733980D02*
X128636686Y-88733980D01*
X128922400Y-88733980D02*
X128922400Y-87733980D01*
X128922400Y-87733980D02*
X128827162Y-87876838D01*
X128827162Y-87876838D02*
X128731924Y-87972076D01*
X128731924Y-87972076D02*
X128636686Y-88019695D01*
%TO.C,C11*%
X130116342Y-107663342D02*
X130068723Y-107710961D01*
X130068723Y-107710961D02*
X129925866Y-107758580D01*
X129925866Y-107758580D02*
X129830628Y-107758580D01*
X129830628Y-107758580D02*
X129687771Y-107710961D01*
X129687771Y-107710961D02*
X129592533Y-107615723D01*
X129592533Y-107615723D02*
X129544914Y-107520485D01*
X129544914Y-107520485D02*
X129497295Y-107330009D01*
X129497295Y-107330009D02*
X129497295Y-107187152D01*
X129497295Y-107187152D02*
X129544914Y-106996676D01*
X129544914Y-106996676D02*
X129592533Y-106901438D01*
X129592533Y-106901438D02*
X129687771Y-106806200D01*
X129687771Y-106806200D02*
X129830628Y-106758580D01*
X129830628Y-106758580D02*
X129925866Y-106758580D01*
X129925866Y-106758580D02*
X130068723Y-106806200D01*
X130068723Y-106806200D02*
X130116342Y-106853819D01*
X131068723Y-107758580D02*
X130497295Y-107758580D01*
X130783009Y-107758580D02*
X130783009Y-106758580D01*
X130783009Y-106758580D02*
X130687771Y-106901438D01*
X130687771Y-106901438D02*
X130592533Y-106996676D01*
X130592533Y-106996676D02*
X130497295Y-107044295D01*
X132021104Y-107758580D02*
X131449676Y-107758580D01*
X131735390Y-107758580D02*
X131735390Y-106758580D01*
X131735390Y-106758580D02*
X131640152Y-106901438D01*
X131640152Y-106901438D02*
X131544914Y-106996676D01*
X131544914Y-106996676D02*
X131449676Y-107044295D01*
%TO.C,R5*%
X148575733Y-88860980D02*
X148242400Y-88384790D01*
X148004305Y-88860980D02*
X148004305Y-87860980D01*
X148004305Y-87860980D02*
X148385257Y-87860980D01*
X148385257Y-87860980D02*
X148480495Y-87908600D01*
X148480495Y-87908600D02*
X148528114Y-87956219D01*
X148528114Y-87956219D02*
X148575733Y-88051457D01*
X148575733Y-88051457D02*
X148575733Y-88194314D01*
X148575733Y-88194314D02*
X148528114Y-88289552D01*
X148528114Y-88289552D02*
X148480495Y-88337171D01*
X148480495Y-88337171D02*
X148385257Y-88384790D01*
X148385257Y-88384790D02*
X148004305Y-88384790D01*
X149480495Y-87860980D02*
X149004305Y-87860980D01*
X149004305Y-87860980D02*
X148956686Y-88337171D01*
X148956686Y-88337171D02*
X149004305Y-88289552D01*
X149004305Y-88289552D02*
X149099543Y-88241933D01*
X149099543Y-88241933D02*
X149337638Y-88241933D01*
X149337638Y-88241933D02*
X149432876Y-88289552D01*
X149432876Y-88289552D02*
X149480495Y-88337171D01*
X149480495Y-88337171D02*
X149528114Y-88432409D01*
X149528114Y-88432409D02*
X149528114Y-88670504D01*
X149528114Y-88670504D02*
X149480495Y-88765742D01*
X149480495Y-88765742D02*
X149432876Y-88813361D01*
X149432876Y-88813361D02*
X149337638Y-88860980D01*
X149337638Y-88860980D02*
X149099543Y-88860980D01*
X149099543Y-88860980D02*
X149004305Y-88813361D01*
X149004305Y-88813361D02*
X148956686Y-88765742D01*
%TO.C,C19*%
X144746742Y-110685942D02*
X144699123Y-110733561D01*
X144699123Y-110733561D02*
X144556266Y-110781180D01*
X144556266Y-110781180D02*
X144461028Y-110781180D01*
X144461028Y-110781180D02*
X144318171Y-110733561D01*
X144318171Y-110733561D02*
X144222933Y-110638323D01*
X144222933Y-110638323D02*
X144175314Y-110543085D01*
X144175314Y-110543085D02*
X144127695Y-110352609D01*
X144127695Y-110352609D02*
X144127695Y-110209752D01*
X144127695Y-110209752D02*
X144175314Y-110019276D01*
X144175314Y-110019276D02*
X144222933Y-109924038D01*
X144222933Y-109924038D02*
X144318171Y-109828800D01*
X144318171Y-109828800D02*
X144461028Y-109781180D01*
X144461028Y-109781180D02*
X144556266Y-109781180D01*
X144556266Y-109781180D02*
X144699123Y-109828800D01*
X144699123Y-109828800D02*
X144746742Y-109876419D01*
X145699123Y-110781180D02*
X145127695Y-110781180D01*
X145413409Y-110781180D02*
X145413409Y-109781180D01*
X145413409Y-109781180D02*
X145318171Y-109924038D01*
X145318171Y-109924038D02*
X145222933Y-110019276D01*
X145222933Y-110019276D02*
X145127695Y-110066895D01*
X146175314Y-110781180D02*
X146365790Y-110781180D01*
X146365790Y-110781180D02*
X146461028Y-110733561D01*
X146461028Y-110733561D02*
X146508647Y-110685942D01*
X146508647Y-110685942D02*
X146603885Y-110543085D01*
X146603885Y-110543085D02*
X146651504Y-110352609D01*
X146651504Y-110352609D02*
X146651504Y-109971657D01*
X146651504Y-109971657D02*
X146603885Y-109876419D01*
X146603885Y-109876419D02*
X146556266Y-109828800D01*
X146556266Y-109828800D02*
X146461028Y-109781180D01*
X146461028Y-109781180D02*
X146270552Y-109781180D01*
X146270552Y-109781180D02*
X146175314Y-109828800D01*
X146175314Y-109828800D02*
X146127695Y-109876419D01*
X146127695Y-109876419D02*
X146080076Y-109971657D01*
X146080076Y-109971657D02*
X146080076Y-110209752D01*
X146080076Y-110209752D02*
X146127695Y-110304990D01*
X146127695Y-110304990D02*
X146175314Y-110352609D01*
X146175314Y-110352609D02*
X146270552Y-110400228D01*
X146270552Y-110400228D02*
X146461028Y-110400228D01*
X146461028Y-110400228D02*
X146556266Y-110352609D01*
X146556266Y-110352609D02*
X146603885Y-110304990D01*
X146603885Y-110304990D02*
X146651504Y-110209752D01*
%TO.C,J1*%
X121744580Y-83823133D02*
X122458866Y-83823133D01*
X122458866Y-83823133D02*
X122601723Y-83870752D01*
X122601723Y-83870752D02*
X122696961Y-83965990D01*
X122696961Y-83965990D02*
X122744580Y-84108847D01*
X122744580Y-84108847D02*
X122744580Y-84204085D01*
X122744580Y-82823133D02*
X122744580Y-83394561D01*
X122744580Y-83108847D02*
X121744580Y-83108847D01*
X121744580Y-83108847D02*
X121887438Y-83204085D01*
X121887438Y-83204085D02*
X121982676Y-83299323D01*
X121982676Y-83299323D02*
X122030295Y-83394561D01*
%TO.C,C10*%
X146372942Y-104960657D02*
X146420561Y-105008276D01*
X146420561Y-105008276D02*
X146468180Y-105151133D01*
X146468180Y-105151133D02*
X146468180Y-105246371D01*
X146468180Y-105246371D02*
X146420561Y-105389228D01*
X146420561Y-105389228D02*
X146325323Y-105484466D01*
X146325323Y-105484466D02*
X146230085Y-105532085D01*
X146230085Y-105532085D02*
X146039609Y-105579704D01*
X146039609Y-105579704D02*
X145896752Y-105579704D01*
X145896752Y-105579704D02*
X145706276Y-105532085D01*
X145706276Y-105532085D02*
X145611038Y-105484466D01*
X145611038Y-105484466D02*
X145515800Y-105389228D01*
X145515800Y-105389228D02*
X145468180Y-105246371D01*
X145468180Y-105246371D02*
X145468180Y-105151133D01*
X145468180Y-105151133D02*
X145515800Y-105008276D01*
X145515800Y-105008276D02*
X145563419Y-104960657D01*
X146468180Y-104008276D02*
X146468180Y-104579704D01*
X146468180Y-104293990D02*
X145468180Y-104293990D01*
X145468180Y-104293990D02*
X145611038Y-104389228D01*
X145611038Y-104389228D02*
X145706276Y-104484466D01*
X145706276Y-104484466D02*
X145753895Y-104579704D01*
X145468180Y-103389228D02*
X145468180Y-103293990D01*
X145468180Y-103293990D02*
X145515800Y-103198752D01*
X145515800Y-103198752D02*
X145563419Y-103151133D01*
X145563419Y-103151133D02*
X145658657Y-103103514D01*
X145658657Y-103103514D02*
X145849133Y-103055895D01*
X145849133Y-103055895D02*
X146087228Y-103055895D01*
X146087228Y-103055895D02*
X146277704Y-103103514D01*
X146277704Y-103103514D02*
X146372942Y-103151133D01*
X146372942Y-103151133D02*
X146420561Y-103198752D01*
X146420561Y-103198752D02*
X146468180Y-103293990D01*
X146468180Y-103293990D02*
X146468180Y-103389228D01*
X146468180Y-103389228D02*
X146420561Y-103484466D01*
X146420561Y-103484466D02*
X146372942Y-103532085D01*
X146372942Y-103532085D02*
X146277704Y-103579704D01*
X146277704Y-103579704D02*
X146087228Y-103627323D01*
X146087228Y-103627323D02*
X145849133Y-103627323D01*
X145849133Y-103627323D02*
X145658657Y-103579704D01*
X145658657Y-103579704D02*
X145563419Y-103532085D01*
X145563419Y-103532085D02*
X145515800Y-103484466D01*
X145515800Y-103484466D02*
X145468180Y-103389228D01*
%TO.C,U1*%
X137896695Y-93880780D02*
X137896695Y-94690304D01*
X137896695Y-94690304D02*
X137944314Y-94785542D01*
X137944314Y-94785542D02*
X137991933Y-94833161D01*
X137991933Y-94833161D02*
X138087171Y-94880780D01*
X138087171Y-94880780D02*
X138277647Y-94880780D01*
X138277647Y-94880780D02*
X138372885Y-94833161D01*
X138372885Y-94833161D02*
X138420504Y-94785542D01*
X138420504Y-94785542D02*
X138468123Y-94690304D01*
X138468123Y-94690304D02*
X138468123Y-93880780D01*
X139468123Y-94880780D02*
X138896695Y-94880780D01*
X139182409Y-94880780D02*
X139182409Y-93880780D01*
X139182409Y-93880780D02*
X139087171Y-94023638D01*
X139087171Y-94023638D02*
X138991933Y-94118876D01*
X138991933Y-94118876D02*
X138896695Y-94166495D01*
%TO.C,C8*%
X147668342Y-104052666D02*
X147715961Y-104100285D01*
X147715961Y-104100285D02*
X147763580Y-104243142D01*
X147763580Y-104243142D02*
X147763580Y-104338380D01*
X147763580Y-104338380D02*
X147715961Y-104481237D01*
X147715961Y-104481237D02*
X147620723Y-104576475D01*
X147620723Y-104576475D02*
X147525485Y-104624094D01*
X147525485Y-104624094D02*
X147335009Y-104671713D01*
X147335009Y-104671713D02*
X147192152Y-104671713D01*
X147192152Y-104671713D02*
X147001676Y-104624094D01*
X147001676Y-104624094D02*
X146906438Y-104576475D01*
X146906438Y-104576475D02*
X146811200Y-104481237D01*
X146811200Y-104481237D02*
X146763580Y-104338380D01*
X146763580Y-104338380D02*
X146763580Y-104243142D01*
X146763580Y-104243142D02*
X146811200Y-104100285D01*
X146811200Y-104100285D02*
X146858819Y-104052666D01*
X147192152Y-103481237D02*
X147144533Y-103576475D01*
X147144533Y-103576475D02*
X147096914Y-103624094D01*
X147096914Y-103624094D02*
X147001676Y-103671713D01*
X147001676Y-103671713D02*
X146954057Y-103671713D01*
X146954057Y-103671713D02*
X146858819Y-103624094D01*
X146858819Y-103624094D02*
X146811200Y-103576475D01*
X146811200Y-103576475D02*
X146763580Y-103481237D01*
X146763580Y-103481237D02*
X146763580Y-103290761D01*
X146763580Y-103290761D02*
X146811200Y-103195523D01*
X146811200Y-103195523D02*
X146858819Y-103147904D01*
X146858819Y-103147904D02*
X146954057Y-103100285D01*
X146954057Y-103100285D02*
X147001676Y-103100285D01*
X147001676Y-103100285D02*
X147096914Y-103147904D01*
X147096914Y-103147904D02*
X147144533Y-103195523D01*
X147144533Y-103195523D02*
X147192152Y-103290761D01*
X147192152Y-103290761D02*
X147192152Y-103481237D01*
X147192152Y-103481237D02*
X147239771Y-103576475D01*
X147239771Y-103576475D02*
X147287390Y-103624094D01*
X147287390Y-103624094D02*
X147382628Y-103671713D01*
X147382628Y-103671713D02*
X147573104Y-103671713D01*
X147573104Y-103671713D02*
X147668342Y-103624094D01*
X147668342Y-103624094D02*
X147715961Y-103576475D01*
X147715961Y-103576475D02*
X147763580Y-103481237D01*
X147763580Y-103481237D02*
X147763580Y-103290761D01*
X147763580Y-103290761D02*
X147715961Y-103195523D01*
X147715961Y-103195523D02*
X147668342Y-103147904D01*
X147668342Y-103147904D02*
X147573104Y-103100285D01*
X147573104Y-103100285D02*
X147382628Y-103100285D01*
X147382628Y-103100285D02*
X147287390Y-103147904D01*
X147287390Y-103147904D02*
X147239771Y-103195523D01*
X147239771Y-103195523D02*
X147192152Y-103290761D01*
%TO.C,J4*%
X152523866Y-99392580D02*
X152523866Y-100106866D01*
X152523866Y-100106866D02*
X152476247Y-100249723D01*
X152476247Y-100249723D02*
X152381009Y-100344961D01*
X152381009Y-100344961D02*
X152238152Y-100392580D01*
X152238152Y-100392580D02*
X152142914Y-100392580D01*
X153428628Y-99725914D02*
X153428628Y-100392580D01*
X153190533Y-99344961D02*
X152952438Y-100059247D01*
X152952438Y-100059247D02*
X153571485Y-100059247D01*
%TO.C,R4*%
X143470333Y-88860980D02*
X143137000Y-88384790D01*
X142898905Y-88860980D02*
X142898905Y-87860980D01*
X142898905Y-87860980D02*
X143279857Y-87860980D01*
X143279857Y-87860980D02*
X143375095Y-87908600D01*
X143375095Y-87908600D02*
X143422714Y-87956219D01*
X143422714Y-87956219D02*
X143470333Y-88051457D01*
X143470333Y-88051457D02*
X143470333Y-88194314D01*
X143470333Y-88194314D02*
X143422714Y-88289552D01*
X143422714Y-88289552D02*
X143375095Y-88337171D01*
X143375095Y-88337171D02*
X143279857Y-88384790D01*
X143279857Y-88384790D02*
X142898905Y-88384790D01*
X144327476Y-88194314D02*
X144327476Y-88860980D01*
X144089381Y-87813361D02*
X143851286Y-88527647D01*
X143851286Y-88527647D02*
X144470333Y-88527647D01*
%TO.C,C6*%
X125233133Y-103269142D02*
X125185514Y-103316761D01*
X125185514Y-103316761D02*
X125042657Y-103364380D01*
X125042657Y-103364380D02*
X124947419Y-103364380D01*
X124947419Y-103364380D02*
X124804562Y-103316761D01*
X124804562Y-103316761D02*
X124709324Y-103221523D01*
X124709324Y-103221523D02*
X124661705Y-103126285D01*
X124661705Y-103126285D02*
X124614086Y-102935809D01*
X124614086Y-102935809D02*
X124614086Y-102792952D01*
X124614086Y-102792952D02*
X124661705Y-102602476D01*
X124661705Y-102602476D02*
X124709324Y-102507238D01*
X124709324Y-102507238D02*
X124804562Y-102412000D01*
X124804562Y-102412000D02*
X124947419Y-102364380D01*
X124947419Y-102364380D02*
X125042657Y-102364380D01*
X125042657Y-102364380D02*
X125185514Y-102412000D01*
X125185514Y-102412000D02*
X125233133Y-102459619D01*
X126090276Y-102364380D02*
X125899800Y-102364380D01*
X125899800Y-102364380D02*
X125804562Y-102412000D01*
X125804562Y-102412000D02*
X125756943Y-102459619D01*
X125756943Y-102459619D02*
X125661705Y-102602476D01*
X125661705Y-102602476D02*
X125614086Y-102792952D01*
X125614086Y-102792952D02*
X125614086Y-103173904D01*
X125614086Y-103173904D02*
X125661705Y-103269142D01*
X125661705Y-103269142D02*
X125709324Y-103316761D01*
X125709324Y-103316761D02*
X125804562Y-103364380D01*
X125804562Y-103364380D02*
X125995038Y-103364380D01*
X125995038Y-103364380D02*
X126090276Y-103316761D01*
X126090276Y-103316761D02*
X126137895Y-103269142D01*
X126137895Y-103269142D02*
X126185514Y-103173904D01*
X126185514Y-103173904D02*
X126185514Y-102935809D01*
X126185514Y-102935809D02*
X126137895Y-102840571D01*
X126137895Y-102840571D02*
X126090276Y-102792952D01*
X126090276Y-102792952D02*
X125995038Y-102745333D01*
X125995038Y-102745333D02*
X125804562Y-102745333D01*
X125804562Y-102745333D02*
X125709324Y-102792952D01*
X125709324Y-102792952D02*
X125661705Y-102840571D01*
X125661705Y-102840571D02*
X125614086Y-102935809D01*
%TO.C,R3*%
X138390333Y-88860980D02*
X138057000Y-88384790D01*
X137818905Y-88860980D02*
X137818905Y-87860980D01*
X137818905Y-87860980D02*
X138199857Y-87860980D01*
X138199857Y-87860980D02*
X138295095Y-87908600D01*
X138295095Y-87908600D02*
X138342714Y-87956219D01*
X138342714Y-87956219D02*
X138390333Y-88051457D01*
X138390333Y-88051457D02*
X138390333Y-88194314D01*
X138390333Y-88194314D02*
X138342714Y-88289552D01*
X138342714Y-88289552D02*
X138295095Y-88337171D01*
X138295095Y-88337171D02*
X138199857Y-88384790D01*
X138199857Y-88384790D02*
X137818905Y-88384790D01*
X138723667Y-87860980D02*
X139342714Y-87860980D01*
X139342714Y-87860980D02*
X139009381Y-88241933D01*
X139009381Y-88241933D02*
X139152238Y-88241933D01*
X139152238Y-88241933D02*
X139247476Y-88289552D01*
X139247476Y-88289552D02*
X139295095Y-88337171D01*
X139295095Y-88337171D02*
X139342714Y-88432409D01*
X139342714Y-88432409D02*
X139342714Y-88670504D01*
X139342714Y-88670504D02*
X139295095Y-88765742D01*
X139295095Y-88765742D02*
X139247476Y-88813361D01*
X139247476Y-88813361D02*
X139152238Y-88860980D01*
X139152238Y-88860980D02*
X138866524Y-88860980D01*
X138866524Y-88860980D02*
X138771286Y-88813361D01*
X138771286Y-88813361D02*
X138723667Y-88765742D01*
%TO.C,C21*%
X144772142Y-109441342D02*
X144724523Y-109488961D01*
X144724523Y-109488961D02*
X144581666Y-109536580D01*
X144581666Y-109536580D02*
X144486428Y-109536580D01*
X144486428Y-109536580D02*
X144343571Y-109488961D01*
X144343571Y-109488961D02*
X144248333Y-109393723D01*
X144248333Y-109393723D02*
X144200714Y-109298485D01*
X144200714Y-109298485D02*
X144153095Y-109108009D01*
X144153095Y-109108009D02*
X144153095Y-108965152D01*
X144153095Y-108965152D02*
X144200714Y-108774676D01*
X144200714Y-108774676D02*
X144248333Y-108679438D01*
X144248333Y-108679438D02*
X144343571Y-108584200D01*
X144343571Y-108584200D02*
X144486428Y-108536580D01*
X144486428Y-108536580D02*
X144581666Y-108536580D01*
X144581666Y-108536580D02*
X144724523Y-108584200D01*
X144724523Y-108584200D02*
X144772142Y-108631819D01*
X145153095Y-108631819D02*
X145200714Y-108584200D01*
X145200714Y-108584200D02*
X145295952Y-108536580D01*
X145295952Y-108536580D02*
X145534047Y-108536580D01*
X145534047Y-108536580D02*
X145629285Y-108584200D01*
X145629285Y-108584200D02*
X145676904Y-108631819D01*
X145676904Y-108631819D02*
X145724523Y-108727057D01*
X145724523Y-108727057D02*
X145724523Y-108822295D01*
X145724523Y-108822295D02*
X145676904Y-108965152D01*
X145676904Y-108965152D02*
X145105476Y-109536580D01*
X145105476Y-109536580D02*
X145724523Y-109536580D01*
X146676904Y-109536580D02*
X146105476Y-109536580D01*
X146391190Y-109536580D02*
X146391190Y-108536580D01*
X146391190Y-108536580D02*
X146295952Y-108679438D01*
X146295952Y-108679438D02*
X146200714Y-108774676D01*
X146200714Y-108774676D02*
X146105476Y-108822295D01*
%TO.C,J2*%
X115973266Y-96217580D02*
X115973266Y-96931866D01*
X115973266Y-96931866D02*
X115925647Y-97074723D01*
X115925647Y-97074723D02*
X115830409Y-97169961D01*
X115830409Y-97169961D02*
X115687552Y-97217580D01*
X115687552Y-97217580D02*
X115592314Y-97217580D01*
X116401838Y-96312819D02*
X116449457Y-96265200D01*
X116449457Y-96265200D02*
X116544695Y-96217580D01*
X116544695Y-96217580D02*
X116782790Y-96217580D01*
X116782790Y-96217580D02*
X116878028Y-96265200D01*
X116878028Y-96265200D02*
X116925647Y-96312819D01*
X116925647Y-96312819D02*
X116973266Y-96408057D01*
X116973266Y-96408057D02*
X116973266Y-96503295D01*
X116973266Y-96503295D02*
X116925647Y-96646152D01*
X116925647Y-96646152D02*
X116354219Y-97217580D01*
X116354219Y-97217580D02*
X116973266Y-97217580D01*
%TO.C,C12*%
X124934742Y-104818542D02*
X124887123Y-104866161D01*
X124887123Y-104866161D02*
X124744266Y-104913780D01*
X124744266Y-104913780D02*
X124649028Y-104913780D01*
X124649028Y-104913780D02*
X124506171Y-104866161D01*
X124506171Y-104866161D02*
X124410933Y-104770923D01*
X124410933Y-104770923D02*
X124363314Y-104675685D01*
X124363314Y-104675685D02*
X124315695Y-104485209D01*
X124315695Y-104485209D02*
X124315695Y-104342352D01*
X124315695Y-104342352D02*
X124363314Y-104151876D01*
X124363314Y-104151876D02*
X124410933Y-104056638D01*
X124410933Y-104056638D02*
X124506171Y-103961400D01*
X124506171Y-103961400D02*
X124649028Y-103913780D01*
X124649028Y-103913780D02*
X124744266Y-103913780D01*
X124744266Y-103913780D02*
X124887123Y-103961400D01*
X124887123Y-103961400D02*
X124934742Y-104009019D01*
X125887123Y-104913780D02*
X125315695Y-104913780D01*
X125601409Y-104913780D02*
X125601409Y-103913780D01*
X125601409Y-103913780D02*
X125506171Y-104056638D01*
X125506171Y-104056638D02*
X125410933Y-104151876D01*
X125410933Y-104151876D02*
X125315695Y-104199495D01*
X126268076Y-104009019D02*
X126315695Y-103961400D01*
X126315695Y-103961400D02*
X126410933Y-103913780D01*
X126410933Y-103913780D02*
X126649028Y-103913780D01*
X126649028Y-103913780D02*
X126744266Y-103961400D01*
X126744266Y-103961400D02*
X126791885Y-104009019D01*
X126791885Y-104009019D02*
X126839504Y-104104257D01*
X126839504Y-104104257D02*
X126839504Y-104199495D01*
X126839504Y-104199495D02*
X126791885Y-104342352D01*
X126791885Y-104342352D02*
X126220457Y-104913780D01*
X126220457Y-104913780D02*
X126839504Y-104913780D01*
D12*
%TO.C,C13*%
X128969380Y-102135400D02*
X128688220Y-102135400D01*
X128969380Y-101115400D02*
X128688220Y-101115400D01*
D13*
%TO.C,R2*%
X135183200Y-89891000D02*
X135183200Y-91691000D01*
X131783200Y-91691000D02*
X131783200Y-89891000D01*
D14*
X135083200Y-88891000D02*
G75*
G03*
X135083200Y-88891000I-100000J0D01*
G01*
D12*
%TO.C,C14*%
X130983400Y-101276036D02*
X130983400Y-101060364D01*
X131703400Y-101276036D02*
X131703400Y-101060364D01*
%TO.C,C15*%
X147503900Y-97900164D02*
X147503900Y-98115836D01*
X146783900Y-97900164D02*
X146783900Y-98115836D01*
%TO.C,R6*%
X146482500Y-97852359D02*
X146482500Y-98159641D01*
X145722500Y-97852359D02*
X145722500Y-98159641D01*
D13*
%TO.C,R1*%
X130103200Y-89891000D02*
X130103200Y-91691000D01*
X126703200Y-91691000D02*
X126703200Y-89891000D01*
D14*
X130003200Y-88891000D02*
G75*
G03*
X130003200Y-88891000I-100000J0D01*
G01*
D12*
%TO.C,C11*%
X130653964Y-105786600D02*
X130869636Y-105786600D01*
X130653964Y-106506600D02*
X130869636Y-106506600D01*
D13*
%TO.C,R5*%
X150423200Y-89916400D02*
X150423200Y-91716400D01*
X147023200Y-91716400D02*
X147023200Y-89916400D01*
D14*
X150323200Y-88916400D02*
G75*
G03*
X150323200Y-88916400I-100000J0D01*
G01*
D12*
%TO.C,C19*%
X142764564Y-110028400D02*
X142980236Y-110028400D01*
X142764564Y-110748400D02*
X142980236Y-110748400D01*
%TO.C,J1*%
X123393200Y-86258400D02*
X123393200Y-84988400D01*
X124663200Y-86258400D02*
X123393200Y-86258400D01*
X126823200Y-83945471D02*
X126823200Y-83491329D01*
X127583200Y-83945471D02*
X127583200Y-83491329D01*
X129363200Y-83945471D02*
X129363200Y-83491329D01*
X130123200Y-83945471D02*
X130123200Y-83491329D01*
X131903200Y-83945471D02*
X131903200Y-83491329D01*
X132663200Y-83945471D02*
X132663200Y-83491329D01*
X134443200Y-83945471D02*
X134443200Y-83491329D01*
X135203200Y-83945471D02*
X135203200Y-83491329D01*
X136983200Y-83945471D02*
X136983200Y-83491329D01*
X137743200Y-83945471D02*
X137743200Y-83491329D01*
X139523200Y-83945471D02*
X139523200Y-83491329D01*
X140283200Y-83945471D02*
X140283200Y-83491329D01*
X142063200Y-83945471D02*
X142063200Y-83491329D01*
X142823200Y-83945471D02*
X142823200Y-83491329D01*
X144603200Y-83945471D02*
X144603200Y-83491329D01*
X145363200Y-83945471D02*
X145363200Y-83491329D01*
X147143200Y-83945471D02*
X147143200Y-83491329D01*
X147903200Y-83945471D02*
X147903200Y-83491329D01*
X149683200Y-83945471D02*
X149683200Y-83491329D01*
X150443200Y-83945471D02*
X150443200Y-83491329D01*
X152223200Y-83945471D02*
X152223200Y-83491329D01*
X152983200Y-83945471D02*
X152983200Y-83491329D01*
X154763200Y-83945471D02*
X154763200Y-83491329D01*
X155523200Y-83945471D02*
X155523200Y-83491329D01*
X124283200Y-83878400D02*
X124283200Y-83491329D01*
X125043200Y-83878400D02*
X125043200Y-83491329D01*
%TO.C,C10*%
X146435400Y-102022964D02*
X146435400Y-102238636D01*
X145715400Y-102022964D02*
X145715400Y-102238636D01*
%TO.C,U1*%
X143744900Y-96758800D02*
X142794900Y-96758800D01*
X142794900Y-96758800D02*
X142794900Y-95468800D01*
X133524900Y-96758800D02*
X134474900Y-96758800D01*
X143744900Y-97708800D02*
X143744900Y-96758800D01*
X133524900Y-97708800D02*
X133524900Y-96758800D01*
X143744900Y-106028800D02*
X143744900Y-106978800D01*
X133524900Y-106028800D02*
X133524900Y-106978800D01*
X143744900Y-106978800D02*
X142794900Y-106978800D01*
X133524900Y-106978800D02*
X134474900Y-106978800D01*
%TO.C,C8*%
X147502200Y-102022964D02*
X147502200Y-102238636D01*
X146782200Y-102022964D02*
X146782200Y-102238636D01*
%TO.C,J4*%
X151240800Y-99872800D02*
X151240800Y-97272800D01*
X151240800Y-99872800D02*
X148580800Y-99872800D01*
X151240800Y-97272800D02*
X148580800Y-97272800D01*
X149910800Y-102472800D02*
X148580800Y-102472800D01*
X148580800Y-102472800D02*
X148580800Y-101142800D01*
X148580800Y-99872800D02*
X148580800Y-97272800D01*
D13*
%TO.C,R4*%
X145330600Y-89891000D02*
X145330600Y-91691000D01*
X141930600Y-91691000D02*
X141930600Y-89891000D01*
D14*
X145230600Y-88891000D02*
G75*
G03*
X145230600Y-88891000I-100000J0D01*
G01*
D12*
%TO.C,C6*%
X130857164Y-102484600D02*
X131072836Y-102484600D01*
X130857164Y-103204600D02*
X131072836Y-103204600D01*
D13*
%TO.C,R3*%
X140263200Y-89891000D02*
X140263200Y-91691000D01*
X136863200Y-91691000D02*
X136863200Y-89891000D01*
D14*
X140163200Y-88891000D02*
G75*
G03*
X140163200Y-88891000I-100000J0D01*
G01*
D12*
%TO.C,C21*%
X142764564Y-108987000D02*
X142980236Y-108987000D01*
X142764564Y-109707000D02*
X142980236Y-109707000D01*
%TO.C,J2*%
X116457574Y-102488478D02*
X129072359Y-115103263D01*
X116457574Y-102488478D02*
X118338478Y-100607574D01*
X129072359Y-115103263D02*
X130953263Y-113222359D01*
X115559548Y-99709548D02*
X116500000Y-98769096D01*
X116500000Y-98769096D02*
X117440452Y-99709548D01*
X118338478Y-100607574D02*
X130953263Y-113222359D01*
%TO.C,C12*%
X128625548Y-103560200D02*
X130048052Y-103560200D01*
X128625548Y-105380200D02*
X130048052Y-105380200D01*
%TD*%
D15*
X170357800Y-94183200D02*
X170357800Y-97942400D01*
X152374600Y-115900200D01*
X126974600Y-115900200D01*
X108991400Y-97942400D01*
X108991400Y-94208600D01*
X126974600Y-76225400D01*
X152400000Y-76225400D01*
X170357800Y-94183200D01*
M02*
