%TF.GenerationSoftware,KiCad,Pcbnew,(6.0.10)*%
%TF.CreationDate,2023-01-18T13:51:00-05:00*%
%TF.ProjectId,cyton hat,6379746f-6e20-4686-9174-2e6b69636164,rev?*%
%TF.SameCoordinates,Original*%
%TF.FileFunction,Paste,Top*%
%TF.FilePolarity,Positive*%
%FSLAX46Y46*%
G04 Gerber Fmt 4.6, Leading zero omitted, Abs format (unit mm)*
G04 Created by KiCad (PCBNEW (6.0.10)) date 2023-01-18 13:51:00*
%MOMM*%
%LPD*%
G01*
G04 APERTURE LIST*
G04 Aperture macros list*
%AMRoundRect*
0 Rectangle with rounded corners*
0 $1 Rounding radius*
0 $2 $3 $4 $5 $6 $7 $8 $9 X,Y pos of 4 corners*
0 Add a 4 corners polygon primitive as box body*
4,1,4,$2,$3,$4,$5,$6,$7,$8,$9,$2,$3,0*
0 Add four circle primitives for the rounded corners*
1,1,$1+$1,$2,$3*
1,1,$1+$1,$4,$5*
1,1,$1+$1,$6,$7*
1,1,$1+$1,$8,$9*
0 Add four rect primitives between the rounded corners*
20,1,$1+$1,$2,$3,$4,$5,0*
20,1,$1+$1,$4,$5,$6,$7,0*
20,1,$1+$1,$6,$7,$8,$9,0*
20,1,$1+$1,$8,$9,$2,$3,0*%
G04 Aperture macros list end*
%TA.AperFunction,Profile*%
%ADD10C,0.101600*%
%TD*%
%ADD11RoundRect,0.225000X0.225000X0.250000X-0.225000X0.250000X-0.225000X-0.250000X0.225000X-0.250000X0*%
%ADD12RoundRect,0.218750X-0.218750X-0.256250X0.218750X-0.256250X0.218750X0.256250X-0.218750X0.256250X0*%
%ADD13RoundRect,0.037100X-0.227900X0.447900X-0.227900X-0.447900X0.227900X-0.447900X0.227900X0.447900X0*%
%ADD14RoundRect,0.037100X0.227900X-0.447900X0.227900X0.447900X-0.227900X0.447900X-0.227900X-0.447900X0*%
%ADD15RoundRect,0.147500X-0.147500X-0.172500X0.147500X-0.172500X0.147500X0.172500X-0.147500X0.172500X0*%
%ADD16RoundRect,0.140000X0.170000X-0.140000X0.170000X0.140000X-0.170000X0.140000X-0.170000X-0.140000X0*%
%ADD17RoundRect,0.140000X-0.170000X0.140000X-0.170000X-0.140000X0.170000X-0.140000X0.170000X0.140000X0*%
%ADD18RoundRect,0.135000X-0.185000X0.135000X-0.185000X-0.135000X0.185000X-0.135000X0.185000X0.135000X0*%
%ADD19RoundRect,0.135000X-0.135000X-0.185000X0.135000X-0.185000X0.135000X0.185000X-0.135000X0.185000X0*%
%ADD20RoundRect,0.140000X-0.140000X-0.170000X0.140000X-0.170000X0.140000X0.170000X-0.140000X0.170000X0*%
%ADD21RoundRect,0.250000X-0.275000X-0.275000X0.275000X-0.275000X0.275000X0.275000X-0.275000X0.275000X0*%
%ADD22RoundRect,0.062500X-0.350000X-0.062500X0.350000X-0.062500X0.350000X0.062500X-0.350000X0.062500X0*%
%ADD23RoundRect,0.062500X-0.062500X-0.350000X0.062500X-0.350000X0.062500X0.350000X-0.062500X0.350000X0*%
%ADD24RoundRect,0.079500X-0.079500X-0.100500X0.079500X-0.100500X0.079500X0.100500X-0.079500X0.100500X0*%
%ADD25R,0.558800X0.304800*%
%ADD26R,0.400000X1.350000*%
%ADD27R,1.500000X1.900000*%
%ADD28RoundRect,0.135000X0.135000X0.185000X-0.135000X0.185000X-0.135000X-0.185000X0.135000X-0.185000X0*%
%ADD29RoundRect,0.075000X-0.075000X0.662500X-0.075000X-0.662500X0.075000X-0.662500X0.075000X0.662500X0*%
%ADD30RoundRect,0.075000X-0.662500X0.075000X-0.662500X-0.075000X0.662500X-0.075000X0.662500X0.075000X0*%
%ADD31RoundRect,0.135000X0.185000X-0.135000X0.185000X0.135000X-0.185000X0.135000X-0.185000X-0.135000X0*%
%ADD32RoundRect,0.079500X0.079500X0.100500X-0.079500X0.100500X-0.079500X-0.100500X0.079500X-0.100500X0*%
%ADD33RoundRect,0.147500X0.147500X0.172500X-0.147500X0.172500X-0.147500X-0.172500X0.147500X-0.172500X0*%
%ADD34RoundRect,0.250000X-0.325000X-0.650000X0.325000X-0.650000X0.325000X0.650000X-0.325000X0.650000X0*%
G04 APERTURE END LIST*
D10*
X154736800Y-100584000D02*
X160375600Y-100584000D01*
X160375600Y-100584000D02*
X160375600Y-115062000D01*
X160375600Y-115062000D02*
X154736800Y-115062000D01*
X154736800Y-115062000D02*
X154736800Y-100584000D01*
G36*
X154736800Y-100584000D02*
G01*
X160375600Y-100584000D01*
X160375600Y-115062000D01*
X154736800Y-115062000D01*
X154736800Y-100584000D01*
G37*
X170357800Y-94183200D02*
X170357800Y-119557800D01*
X152374600Y-137541000D01*
X126949200Y-137541000D01*
X108991400Y-119583200D01*
X108991400Y-94208600D01*
X126974600Y-76225400D01*
X152400000Y-76225400D01*
X170357800Y-94183200D01*
D11*
%TO.C,C13*%
X129603800Y-101625400D03*
X128053800Y-101625400D03*
%TD*%
D12*
%TO.C,D11*%
X120014800Y-123469400D03*
X121589800Y-123469400D03*
%TD*%
D13*
%TO.C,R2*%
X134683200Y-89916000D03*
X133883200Y-89916000D03*
X133083200Y-89916000D03*
X132283200Y-89916000D03*
D14*
X132283200Y-91666000D03*
X133083200Y-91666000D03*
X133883200Y-91666000D03*
X134683200Y-91666000D03*
%TD*%
D15*
%TO.C,D7*%
X134719200Y-127076200D03*
X135689200Y-127076200D03*
%TD*%
D16*
%TO.C,C14*%
X131343400Y-101648200D03*
X131343400Y-100688200D03*
%TD*%
D17*
%TO.C,C15*%
X147143900Y-97528000D03*
X147143900Y-98488000D03*
%TD*%
D18*
%TO.C,R6*%
X146102500Y-97496000D03*
X146102500Y-98516000D03*
%TD*%
D19*
%TO.C,R8*%
X134338600Y-125399800D03*
X135358600Y-125399800D03*
%TD*%
D13*
%TO.C,R1*%
X129603200Y-89916000D03*
X128803200Y-89916000D03*
X128003200Y-89916000D03*
X127203200Y-89916000D03*
D14*
X127203200Y-91666000D03*
X128003200Y-91666000D03*
X128803200Y-91666000D03*
X129603200Y-91666000D03*
%TD*%
D20*
%TO.C,C11*%
X130281800Y-106146600D03*
X131241800Y-106146600D03*
%TD*%
D15*
%TO.C,L1*%
X140358000Y-130937000D03*
X141328000Y-130937000D03*
%TD*%
D13*
%TO.C,R5*%
X149923200Y-89941400D03*
X149123200Y-89941400D03*
X148323200Y-89941400D03*
X147523200Y-89941400D03*
D14*
X147523200Y-91691400D03*
X148323200Y-91691400D03*
X149123200Y-91691400D03*
X149923200Y-91691400D03*
%TD*%
D20*
%TO.C,C19*%
X142392400Y-110388400D03*
X143352400Y-110388400D03*
%TD*%
D21*
%TO.C,U2*%
X140350000Y-124165600D03*
X139050000Y-124165600D03*
X139050000Y-125465600D03*
X140350000Y-125465600D03*
D22*
X137762500Y-123565600D03*
X137762500Y-124065600D03*
X137762500Y-124565600D03*
X137762500Y-125065600D03*
X137762500Y-125565600D03*
X137762500Y-126065600D03*
D23*
X138450000Y-126753100D03*
X138950000Y-126753100D03*
X139450000Y-126753100D03*
X139950000Y-126753100D03*
X140450000Y-126753100D03*
X140950000Y-126753100D03*
D22*
X141637500Y-126065600D03*
X141637500Y-125565600D03*
X141637500Y-125065600D03*
X141637500Y-124565600D03*
X141637500Y-124065600D03*
X141637500Y-123565600D03*
D23*
X140950000Y-122878100D03*
X140450000Y-122878100D03*
X139950000Y-122878100D03*
X139450000Y-122878100D03*
X138950000Y-122878100D03*
X138450000Y-122878100D03*
%TD*%
D24*
%TO.C,C17*%
X134671200Y-128066800D03*
X135361200Y-128066800D03*
%TD*%
D25*
%TO.C,D9*%
X140335000Y-128320800D03*
X140335000Y-128955800D03*
%TD*%
D26*
%TO.C,CONN1*%
X138400000Y-133380300D03*
X139050000Y-133380300D03*
X139700000Y-133380300D03*
X140350000Y-133380300D03*
X141000000Y-133380300D03*
D27*
X138700000Y-136080300D03*
X140700000Y-136080300D03*
%TD*%
D17*
%TO.C,C10*%
X146075400Y-101650800D03*
X146075400Y-102610800D03*
%TD*%
D28*
%TO.C,R12*%
X144477200Y-126441200D03*
X143457200Y-126441200D03*
%TD*%
D20*
%TO.C,C16*%
X139372400Y-129971800D03*
X140332400Y-129971800D03*
%TD*%
D29*
%TO.C,U1*%
X142384900Y-96206300D03*
X141884900Y-96206300D03*
X141384900Y-96206300D03*
X140884900Y-96206300D03*
X140384900Y-96206300D03*
X139884900Y-96206300D03*
X139384900Y-96206300D03*
X138884900Y-96206300D03*
X138384900Y-96206300D03*
X137884900Y-96206300D03*
X137384900Y-96206300D03*
X136884900Y-96206300D03*
X136384900Y-96206300D03*
X135884900Y-96206300D03*
X135384900Y-96206300D03*
X134884900Y-96206300D03*
D30*
X132972400Y-98118800D03*
X132972400Y-98618800D03*
X132972400Y-99118800D03*
X132972400Y-99618800D03*
X132972400Y-100118800D03*
X132972400Y-100618800D03*
X132972400Y-101118800D03*
X132972400Y-101618800D03*
X132972400Y-102118800D03*
X132972400Y-102618800D03*
X132972400Y-103118800D03*
X132972400Y-103618800D03*
X132972400Y-104118800D03*
X132972400Y-104618800D03*
X132972400Y-105118800D03*
X132972400Y-105618800D03*
D29*
X134884900Y-107531300D03*
X135384900Y-107531300D03*
X135884900Y-107531300D03*
X136384900Y-107531300D03*
X136884900Y-107531300D03*
X137384900Y-107531300D03*
X137884900Y-107531300D03*
X138384900Y-107531300D03*
X138884900Y-107531300D03*
X139384900Y-107531300D03*
X139884900Y-107531300D03*
X140384900Y-107531300D03*
X140884900Y-107531300D03*
X141384900Y-107531300D03*
X141884900Y-107531300D03*
X142384900Y-107531300D03*
D30*
X144297400Y-105618800D03*
X144297400Y-105118800D03*
X144297400Y-104618800D03*
X144297400Y-104118800D03*
X144297400Y-103618800D03*
X144297400Y-103118800D03*
X144297400Y-102618800D03*
X144297400Y-102118800D03*
X144297400Y-101618800D03*
X144297400Y-101118800D03*
X144297400Y-100618800D03*
X144297400Y-100118800D03*
X144297400Y-99618800D03*
X144297400Y-99118800D03*
X144297400Y-98618800D03*
X144297400Y-98118800D03*
%TD*%
D12*
%TO.C,D10*%
X120014800Y-121462800D03*
X121589800Y-121462800D03*
%TD*%
D19*
%TO.C,R7*%
X134364000Y-124282200D03*
X135384000Y-124282200D03*
%TD*%
D31*
%TO.C,R10*%
X140766800Y-121107200D03*
X140766800Y-120087200D03*
%TD*%
D32*
%TO.C,C18*%
X133375400Y-125425200D03*
X132685400Y-125425200D03*
%TD*%
D17*
%TO.C,C8*%
X147142200Y-101650800D03*
X147142200Y-102610800D03*
%TD*%
D28*
%TO.C,R11*%
X144502600Y-125323600D03*
X143482600Y-125323600D03*
%TD*%
D33*
%TO.C,D8*%
X133350000Y-124307600D03*
X132380000Y-124307600D03*
%TD*%
D13*
%TO.C,R4*%
X144830600Y-89916000D03*
X144030600Y-89916000D03*
X143230600Y-89916000D03*
X142430600Y-89916000D03*
D14*
X142430600Y-91666000D03*
X143230600Y-91666000D03*
X144030600Y-91666000D03*
X144830600Y-91666000D03*
%TD*%
D20*
%TO.C,C6*%
X130485000Y-102844600D03*
X131445000Y-102844600D03*
%TD*%
D13*
%TO.C,R3*%
X139763200Y-89916000D03*
X138963200Y-89916000D03*
X138163200Y-89916000D03*
X137363200Y-89916000D03*
D14*
X137363200Y-91666000D03*
X138163200Y-91666000D03*
X138963200Y-91666000D03*
X139763200Y-91666000D03*
%TD*%
D20*
%TO.C,C21*%
X142392400Y-109347000D03*
X143352400Y-109347000D03*
%TD*%
D31*
%TO.C,R9*%
X139674600Y-121132600D03*
X139674600Y-120112600D03*
%TD*%
D34*
%TO.C,C12*%
X127861800Y-104470200D03*
X130811800Y-104470200D03*
%TD*%
M02*
