%TF.GenerationSoftware,KiCad,Pcbnew,(6.0.10)*%
%TF.CreationDate,2023-01-11T14:45:33-05:00*%
%TF.ProjectId,cyton hat,6379746f-6e20-4686-9174-2e6b69636164,rev?*%
%TF.SameCoordinates,Original*%
%TF.FileFunction,Plated,1,4,PTH,Mixed*%
%TF.FilePolarity,Positive*%
%FSLAX46Y46*%
G04 Gerber Fmt 4.6, Leading zero omitted, Abs format (unit mm)*
G04 Created by KiCad (PCBNEW (6.0.10)) date 2023-01-11 14:45:33*
%MOMM*%
%LPD*%
G01*
G04 APERTURE LIST*
%TA.AperFunction,ViaDrill*%
%ADD10C,0.400000*%
%TD*%
G04 aperture for slot hole*
%TA.AperFunction,ComponentDrill*%
%ADD11O,0.600000X1.300000*%
%TD*%
%TA.AperFunction,ComponentDrill*%
%ADD12C,0.850000*%
%TD*%
%TA.AperFunction,ComponentDrill*%
%ADD13C,1.000000*%
%TD*%
G04 APERTURE END LIST*
D10*
X119989600Y-120065800D03*
X120015000Y-124968000D03*
X121589800Y-120192800D03*
X121589800Y-124993400D03*
X127003697Y-93167200D03*
X128003200Y-93167200D03*
X129070100Y-93103700D03*
X129387600Y-116281200D03*
X130086327Y-93130684D03*
X131368800Y-117703600D03*
X132096905Y-92986254D03*
X133096000Y-93014800D03*
X134094731Y-92842500D03*
X134747000Y-99136200D03*
X134950200Y-101803200D03*
X134950200Y-105486200D03*
X134975600Y-110845600D03*
X135275931Y-92594901D03*
X135534400Y-109601000D03*
X137083800Y-92862400D03*
X137388600Y-126898400D03*
X138081846Y-92916348D03*
X138150600Y-131495800D03*
X139081343Y-92913148D03*
X139420600Y-129870200D03*
X139674600Y-118745000D03*
X140080845Y-92913206D03*
X141198600Y-99136200D03*
X141706600Y-102819200D03*
X141851353Y-92913928D03*
X142392400Y-111785400D03*
X142849600Y-92964000D03*
X143573500Y-123202700D03*
X144030600Y-93015374D03*
X145237200Y-93065600D03*
X145542000Y-126898400D03*
X145821400Y-103733600D03*
X147243800Y-92913200D03*
X148259800Y-92964000D03*
X149923200Y-93027800D03*
D11*
%TO.C,CONN1*%
X136200000Y-136080300D03*
X143200000Y-136080300D03*
D12*
X137200000Y-133380300D03*
X142200000Y-133380300D03*
D13*
%TO.C,J2*%
X116500000Y-100650000D03*
X118296051Y-102446051D03*
X120092102Y-104242102D03*
X121888154Y-106038154D03*
X123684205Y-107834205D03*
%TO.C,J1*%
X124663200Y-82448400D03*
X124663200Y-84988400D03*
%TO.C,J2*%
X125480256Y-109630256D03*
%TO.C,J1*%
X127203200Y-82448400D03*
X127203200Y-84988400D03*
%TO.C,J2*%
X127276307Y-111426307D03*
X129072359Y-113222359D03*
%TO.C,J1*%
X129743200Y-82448400D03*
X129743200Y-84988400D03*
X132283200Y-82448400D03*
X132283200Y-84988400D03*
X134823200Y-82448400D03*
X134823200Y-84988400D03*
X137363200Y-82448400D03*
X137363200Y-84988400D03*
X139903200Y-82448400D03*
X139903200Y-84988400D03*
X142443200Y-82448400D03*
X142443200Y-84988400D03*
X144983200Y-82448400D03*
X144983200Y-84988400D03*
X147523200Y-82448400D03*
X147523200Y-84988400D03*
%TO.C,J4*%
X149910800Y-98602800D03*
X149910800Y-101142800D03*
%TO.C,J1*%
X150063200Y-82448400D03*
X150063200Y-84988400D03*
X152603200Y-82448400D03*
X152603200Y-84988400D03*
%TO.C,J3*%
X154860446Y-130711754D03*
%TO.C,J1*%
X155143200Y-82448400D03*
X155143200Y-84988400D03*
%TO.C,J3*%
X156656498Y-128915702D03*
X158452549Y-127119651D03*
X160248600Y-125323600D03*
%TO.C,J5*%
X162433000Y-114960400D03*
X162433000Y-117500400D03*
X162433000Y-120040400D03*
X162433000Y-122580400D03*
M02*
