%TF.GenerationSoftware,KiCad,Pcbnew,(6.0.10)*%
%TF.CreationDate,2023-01-18T13:51:00-05:00*%
%TF.ProjectId,cyton hat,6379746f-6e20-4686-9174-2e6b69636164,rev?*%
%TF.SameCoordinates,Original*%
%TF.FileFunction,Legend,Bot*%
%TF.FilePolarity,Positive*%
%FSLAX46Y46*%
G04 Gerber Fmt 4.6, Leading zero omitted, Abs format (unit mm)*
G04 Created by KiCad (PCBNEW (6.0.10)) date 2023-01-18 13:51:00*
%MOMM*%
%LPD*%
G01*
G04 APERTURE LIST*
%TA.AperFunction,Profile*%
%ADD10C,0.101600*%
%TD*%
%ADD11C,0.150000*%
%ADD12C,0.120000*%
%ADD13C,0.127000*%
%ADD14C,0.200000*%
G04 APERTURE END LIST*
D10*
X154736800Y-100584000D02*
X160375600Y-100584000D01*
X160375600Y-100584000D02*
X160375600Y-115062000D01*
X160375600Y-115062000D02*
X154736800Y-115062000D01*
X154736800Y-115062000D02*
X154736800Y-100584000D01*
G36*
X154736800Y-100584000D02*
G01*
X160375600Y-100584000D01*
X160375600Y-115062000D01*
X154736800Y-115062000D01*
X154736800Y-100584000D01*
G37*
X170357800Y-94183200D02*
X170357800Y-119557800D01*
X152374600Y-137541000D01*
X126949200Y-137541000D01*
X108991400Y-119583200D01*
X108991400Y-94208600D01*
X126974600Y-76225400D01*
X152400000Y-76225400D01*
X170357800Y-94183200D01*
D11*
%TO.C,C26*%
X146540457Y-101703142D02*
X146588076Y-101750761D01*
X146730933Y-101798380D01*
X146826171Y-101798380D01*
X146969028Y-101750761D01*
X147064266Y-101655523D01*
X147111885Y-101560285D01*
X147159504Y-101369809D01*
X147159504Y-101226952D01*
X147111885Y-101036476D01*
X147064266Y-100941238D01*
X146969028Y-100846000D01*
X146826171Y-100798380D01*
X146730933Y-100798380D01*
X146588076Y-100846000D01*
X146540457Y-100893619D01*
X146159504Y-100893619D02*
X146111885Y-100846000D01*
X146016647Y-100798380D01*
X145778552Y-100798380D01*
X145683314Y-100846000D01*
X145635695Y-100893619D01*
X145588076Y-100988857D01*
X145588076Y-101084095D01*
X145635695Y-101226952D01*
X146207123Y-101798380D01*
X145588076Y-101798380D01*
X144730933Y-100798380D02*
X144921409Y-100798380D01*
X145016647Y-100846000D01*
X145064266Y-100893619D01*
X145159504Y-101036476D01*
X145207123Y-101226952D01*
X145207123Y-101607904D01*
X145159504Y-101703142D01*
X145111885Y-101750761D01*
X145016647Y-101798380D01*
X144826171Y-101798380D01*
X144730933Y-101750761D01*
X144683314Y-101703142D01*
X144635695Y-101607904D01*
X144635695Y-101369809D01*
X144683314Y-101274571D01*
X144730933Y-101226952D01*
X144826171Y-101179333D01*
X145016647Y-101179333D01*
X145111885Y-101226952D01*
X145159504Y-101274571D01*
X145207123Y-101369809D01*
%TO.C,C25*%
X135154942Y-98848942D02*
X135202561Y-98801323D01*
X135250180Y-98658466D01*
X135250180Y-98563228D01*
X135202561Y-98420371D01*
X135107323Y-98325133D01*
X135012085Y-98277514D01*
X134821609Y-98229895D01*
X134678752Y-98229895D01*
X134488276Y-98277514D01*
X134393038Y-98325133D01*
X134297800Y-98420371D01*
X134250180Y-98563228D01*
X134250180Y-98658466D01*
X134297800Y-98801323D01*
X134345419Y-98848942D01*
X134345419Y-99229895D02*
X134297800Y-99277514D01*
X134250180Y-99372752D01*
X134250180Y-99610847D01*
X134297800Y-99706085D01*
X134345419Y-99753704D01*
X134440657Y-99801323D01*
X134535895Y-99801323D01*
X134678752Y-99753704D01*
X135250180Y-99182276D01*
X135250180Y-99801323D01*
X134250180Y-100706085D02*
X134250180Y-100229895D01*
X134726371Y-100182276D01*
X134678752Y-100229895D01*
X134631133Y-100325133D01*
X134631133Y-100563228D01*
X134678752Y-100658466D01*
X134726371Y-100706085D01*
X134821609Y-100753704D01*
X135059704Y-100753704D01*
X135154942Y-100706085D01*
X135202561Y-100658466D01*
X135250180Y-100563228D01*
X135250180Y-100325133D01*
X135202561Y-100229895D01*
X135154942Y-100182276D01*
%TO.C,C5*%
X148959866Y-94057742D02*
X149007485Y-94105361D01*
X149150342Y-94152980D01*
X149245580Y-94152980D01*
X149388438Y-94105361D01*
X149483676Y-94010123D01*
X149531295Y-93914885D01*
X149578914Y-93724409D01*
X149578914Y-93581552D01*
X149531295Y-93391076D01*
X149483676Y-93295838D01*
X149388438Y-93200600D01*
X149245580Y-93152980D01*
X149150342Y-93152980D01*
X149007485Y-93200600D01*
X148959866Y-93248219D01*
X148055104Y-93152980D02*
X148531295Y-93152980D01*
X148578914Y-93629171D01*
X148531295Y-93581552D01*
X148436057Y-93533933D01*
X148197961Y-93533933D01*
X148102723Y-93581552D01*
X148055104Y-93629171D01*
X148007485Y-93724409D01*
X148007485Y-93962504D01*
X148055104Y-94057742D01*
X148102723Y-94105361D01*
X148197961Y-94152980D01*
X148436057Y-94152980D01*
X148531295Y-94105361D01*
X148578914Y-94057742D01*
%TO.C,C4*%
X143879866Y-93930742D02*
X143927485Y-93978361D01*
X144070342Y-94025980D01*
X144165580Y-94025980D01*
X144308438Y-93978361D01*
X144403676Y-93883123D01*
X144451295Y-93787885D01*
X144498914Y-93597409D01*
X144498914Y-93454552D01*
X144451295Y-93264076D01*
X144403676Y-93168838D01*
X144308438Y-93073600D01*
X144165580Y-93025980D01*
X144070342Y-93025980D01*
X143927485Y-93073600D01*
X143879866Y-93121219D01*
X143022723Y-93359314D02*
X143022723Y-94025980D01*
X143260819Y-92978361D02*
X143498914Y-93692647D01*
X142879866Y-93692647D01*
%TO.C,C20*%
X138685542Y-101490542D02*
X138733161Y-101442923D01*
X138780780Y-101300066D01*
X138780780Y-101204828D01*
X138733161Y-101061971D01*
X138637923Y-100966733D01*
X138542685Y-100919114D01*
X138352209Y-100871495D01*
X138209352Y-100871495D01*
X138018876Y-100919114D01*
X137923638Y-100966733D01*
X137828400Y-101061971D01*
X137780780Y-101204828D01*
X137780780Y-101300066D01*
X137828400Y-101442923D01*
X137876019Y-101490542D01*
X137876019Y-101871495D02*
X137828400Y-101919114D01*
X137780780Y-102014352D01*
X137780780Y-102252447D01*
X137828400Y-102347685D01*
X137876019Y-102395304D01*
X137971257Y-102442923D01*
X138066495Y-102442923D01*
X138209352Y-102395304D01*
X138780780Y-101823876D01*
X138780780Y-102442923D01*
X137780780Y-103061971D02*
X137780780Y-103157209D01*
X137828400Y-103252447D01*
X137876019Y-103300066D01*
X137971257Y-103347685D01*
X138161733Y-103395304D01*
X138399828Y-103395304D01*
X138590304Y-103347685D01*
X138685542Y-103300066D01*
X138733161Y-103252447D01*
X138780780Y-103157209D01*
X138780780Y-103061971D01*
X138733161Y-102966733D01*
X138685542Y-102919114D01*
X138590304Y-102871495D01*
X138399828Y-102823876D01*
X138161733Y-102823876D01*
X137971257Y-102871495D01*
X137876019Y-102919114D01*
X137828400Y-102966733D01*
X137780780Y-103061971D01*
%TO.C,D4*%
X144451295Y-91231980D02*
X144451295Y-90231980D01*
X144213200Y-90231980D01*
X144070342Y-90279600D01*
X143975104Y-90374838D01*
X143927485Y-90470076D01*
X143879866Y-90660552D01*
X143879866Y-90803409D01*
X143927485Y-90993885D01*
X143975104Y-91089123D01*
X144070342Y-91184361D01*
X144213200Y-91231980D01*
X144451295Y-91231980D01*
X143022723Y-90565314D02*
X143022723Y-91231980D01*
X143260819Y-90184361D02*
X143498914Y-90898647D01*
X142879866Y-90898647D01*
X145237200Y-86421980D02*
X145237200Y-86660076D01*
X145475295Y-86564838D02*
X145237200Y-86660076D01*
X144999104Y-86564838D01*
X145380057Y-86850552D02*
X145237200Y-86660076D01*
X145094342Y-86850552D01*
%TO.C,D6*%
X154611295Y-91028780D02*
X154611295Y-90028780D01*
X154373200Y-90028780D01*
X154230342Y-90076400D01*
X154135104Y-90171638D01*
X154087485Y-90266876D01*
X154039866Y-90457352D01*
X154039866Y-90600209D01*
X154087485Y-90790685D01*
X154135104Y-90885923D01*
X154230342Y-90981161D01*
X154373200Y-91028780D01*
X154611295Y-91028780D01*
X153182723Y-90028780D02*
X153373200Y-90028780D01*
X153468438Y-90076400D01*
X153516057Y-90124019D01*
X153611295Y-90266876D01*
X153658914Y-90457352D01*
X153658914Y-90838304D01*
X153611295Y-90933542D01*
X153563676Y-90981161D01*
X153468438Y-91028780D01*
X153277961Y-91028780D01*
X153182723Y-90981161D01*
X153135104Y-90933542D01*
X153087485Y-90838304D01*
X153087485Y-90600209D01*
X153135104Y-90504971D01*
X153182723Y-90457352D01*
X153277961Y-90409733D01*
X153468438Y-90409733D01*
X153563676Y-90457352D01*
X153611295Y-90504971D01*
X153658914Y-90600209D01*
X155397200Y-86421980D02*
X155397200Y-86660076D01*
X155635295Y-86564838D02*
X155397200Y-86660076D01*
X155159104Y-86564838D01*
X155540057Y-86850552D02*
X155397200Y-86660076D01*
X155254342Y-86850552D01*
%TO.C,C1*%
X128639866Y-93905342D02*
X128687485Y-93952961D01*
X128830342Y-94000580D01*
X128925580Y-94000580D01*
X129068438Y-93952961D01*
X129163676Y-93857723D01*
X129211295Y-93762485D01*
X129258914Y-93572009D01*
X129258914Y-93429152D01*
X129211295Y-93238676D01*
X129163676Y-93143438D01*
X129068438Y-93048200D01*
X128925580Y-93000580D01*
X128830342Y-93000580D01*
X128687485Y-93048200D01*
X128639866Y-93095819D01*
X127687485Y-94000580D02*
X128258914Y-94000580D01*
X127973200Y-94000580D02*
X127973200Y-93000580D01*
X128068438Y-93143438D01*
X128163676Y-93238676D01*
X128258914Y-93286295D01*
%TO.C,F1*%
X153038133Y-122576771D02*
X153371466Y-122576771D01*
X153371466Y-123100580D02*
X153371466Y-122100580D01*
X152895276Y-122100580D01*
X151990514Y-123100580D02*
X152561942Y-123100580D01*
X152276228Y-123100580D02*
X152276228Y-122100580D01*
X152371466Y-122243438D01*
X152466704Y-122338676D01*
X152561942Y-122386295D01*
%TO.C,C9*%
X133719866Y-104598742D02*
X133767485Y-104646361D01*
X133910342Y-104693980D01*
X134005580Y-104693980D01*
X134148438Y-104646361D01*
X134243676Y-104551123D01*
X134291295Y-104455885D01*
X134338914Y-104265409D01*
X134338914Y-104122552D01*
X134291295Y-103932076D01*
X134243676Y-103836838D01*
X134148438Y-103741600D01*
X134005580Y-103693980D01*
X133910342Y-103693980D01*
X133767485Y-103741600D01*
X133719866Y-103789219D01*
X133243676Y-104693980D02*
X133053200Y-104693980D01*
X132957961Y-104646361D01*
X132910342Y-104598742D01*
X132815104Y-104455885D01*
X132767485Y-104265409D01*
X132767485Y-103884457D01*
X132815104Y-103789219D01*
X132862723Y-103741600D01*
X132957961Y-103693980D01*
X133148438Y-103693980D01*
X133243676Y-103741600D01*
X133291295Y-103789219D01*
X133338914Y-103884457D01*
X133338914Y-104122552D01*
X133291295Y-104217790D01*
X133243676Y-104265409D01*
X133148438Y-104313028D01*
X132957961Y-104313028D01*
X132862723Y-104265409D01*
X132815104Y-104217790D01*
X132767485Y-104122552D01*
%TO.C,D3*%
X139320495Y-91231980D02*
X139320495Y-90231980D01*
X139082400Y-90231980D01*
X138939542Y-90279600D01*
X138844304Y-90374838D01*
X138796685Y-90470076D01*
X138749066Y-90660552D01*
X138749066Y-90803409D01*
X138796685Y-90993885D01*
X138844304Y-91089123D01*
X138939542Y-91184361D01*
X139082400Y-91231980D01*
X139320495Y-91231980D01*
X138415733Y-90231980D02*
X137796685Y-90231980D01*
X138130019Y-90612933D01*
X137987161Y-90612933D01*
X137891923Y-90660552D01*
X137844304Y-90708171D01*
X137796685Y-90803409D01*
X137796685Y-91041504D01*
X137844304Y-91136742D01*
X137891923Y-91184361D01*
X137987161Y-91231980D01*
X138272876Y-91231980D01*
X138368114Y-91184361D01*
X138415733Y-91136742D01*
X140157200Y-86421980D02*
X140157200Y-86660076D01*
X140395295Y-86564838D02*
X140157200Y-86660076D01*
X139919104Y-86564838D01*
X140300057Y-86850552D02*
X140157200Y-86660076D01*
X140014342Y-86850552D01*
%TO.C,C23*%
X137466342Y-101388942D02*
X137513961Y-101341323D01*
X137561580Y-101198466D01*
X137561580Y-101103228D01*
X137513961Y-100960371D01*
X137418723Y-100865133D01*
X137323485Y-100817514D01*
X137133009Y-100769895D01*
X136990152Y-100769895D01*
X136799676Y-100817514D01*
X136704438Y-100865133D01*
X136609200Y-100960371D01*
X136561580Y-101103228D01*
X136561580Y-101198466D01*
X136609200Y-101341323D01*
X136656819Y-101388942D01*
X136656819Y-101769895D02*
X136609200Y-101817514D01*
X136561580Y-101912752D01*
X136561580Y-102150847D01*
X136609200Y-102246085D01*
X136656819Y-102293704D01*
X136752057Y-102341323D01*
X136847295Y-102341323D01*
X136990152Y-102293704D01*
X137561580Y-101722276D01*
X137561580Y-102341323D01*
X136561580Y-102674657D02*
X136561580Y-103293704D01*
X136942533Y-102960371D01*
X136942533Y-103103228D01*
X136990152Y-103198466D01*
X137037771Y-103246085D01*
X137133009Y-103293704D01*
X137371104Y-103293704D01*
X137466342Y-103246085D01*
X137513961Y-103198466D01*
X137561580Y-103103228D01*
X137561580Y-102817514D01*
X137513961Y-102722276D01*
X137466342Y-102674657D01*
%TO.C,C3*%
X138799866Y-93879942D02*
X138847485Y-93927561D01*
X138990342Y-93975180D01*
X139085580Y-93975180D01*
X139228438Y-93927561D01*
X139323676Y-93832323D01*
X139371295Y-93737085D01*
X139418914Y-93546609D01*
X139418914Y-93403752D01*
X139371295Y-93213276D01*
X139323676Y-93118038D01*
X139228438Y-93022800D01*
X139085580Y-92975180D01*
X138990342Y-92975180D01*
X138847485Y-93022800D01*
X138799866Y-93070419D01*
X138466533Y-92975180D02*
X137847485Y-92975180D01*
X138180819Y-93356133D01*
X138037961Y-93356133D01*
X137942723Y-93403752D01*
X137895104Y-93451371D01*
X137847485Y-93546609D01*
X137847485Y-93784704D01*
X137895104Y-93879942D01*
X137942723Y-93927561D01*
X138037961Y-93975180D01*
X138323676Y-93975180D01*
X138418914Y-93927561D01*
X138466533Y-93879942D01*
%TO.C,L2*%
X148451866Y-129204980D02*
X148928057Y-129204980D01*
X148928057Y-128204980D01*
X148166152Y-128300219D02*
X148118533Y-128252600D01*
X148023295Y-128204980D01*
X147785200Y-128204980D01*
X147689961Y-128252600D01*
X147642342Y-128300219D01*
X147594723Y-128395457D01*
X147594723Y-128490695D01*
X147642342Y-128633552D01*
X148213771Y-129204980D01*
X147594723Y-129204980D01*
%TO.C,C24*%
X146565857Y-100509342D02*
X146613476Y-100556961D01*
X146756333Y-100604580D01*
X146851571Y-100604580D01*
X146994428Y-100556961D01*
X147089666Y-100461723D01*
X147137285Y-100366485D01*
X147184904Y-100176009D01*
X147184904Y-100033152D01*
X147137285Y-99842676D01*
X147089666Y-99747438D01*
X146994428Y-99652200D01*
X146851571Y-99604580D01*
X146756333Y-99604580D01*
X146613476Y-99652200D01*
X146565857Y-99699819D01*
X146184904Y-99699819D02*
X146137285Y-99652200D01*
X146042047Y-99604580D01*
X145803952Y-99604580D01*
X145708714Y-99652200D01*
X145661095Y-99699819D01*
X145613476Y-99795057D01*
X145613476Y-99890295D01*
X145661095Y-100033152D01*
X146232523Y-100604580D01*
X145613476Y-100604580D01*
X144756333Y-99937914D02*
X144756333Y-100604580D01*
X144994428Y-99556961D02*
X145232523Y-100271247D01*
X144613476Y-100271247D01*
%TO.C,D1*%
X129211295Y-91054180D02*
X129211295Y-90054180D01*
X128973200Y-90054180D01*
X128830342Y-90101800D01*
X128735104Y-90197038D01*
X128687485Y-90292276D01*
X128639866Y-90482752D01*
X128639866Y-90625609D01*
X128687485Y-90816085D01*
X128735104Y-90911323D01*
X128830342Y-91006561D01*
X128973200Y-91054180D01*
X129211295Y-91054180D01*
X127687485Y-91054180D02*
X128258914Y-91054180D01*
X127973200Y-91054180D02*
X127973200Y-90054180D01*
X128068438Y-90197038D01*
X128163676Y-90292276D01*
X128258914Y-90339895D01*
X129997200Y-86421980D02*
X129997200Y-86660076D01*
X130235295Y-86564838D02*
X129997200Y-86660076D01*
X129759104Y-86564838D01*
X130140057Y-86850552D02*
X129997200Y-86660076D01*
X129854342Y-86850552D01*
%TO.C,C2*%
X133719866Y-93956142D02*
X133767485Y-94003761D01*
X133910342Y-94051380D01*
X134005580Y-94051380D01*
X134148438Y-94003761D01*
X134243676Y-93908523D01*
X134291295Y-93813285D01*
X134338914Y-93622809D01*
X134338914Y-93479952D01*
X134291295Y-93289476D01*
X134243676Y-93194238D01*
X134148438Y-93099000D01*
X134005580Y-93051380D01*
X133910342Y-93051380D01*
X133767485Y-93099000D01*
X133719866Y-93146619D01*
X133338914Y-93146619D02*
X133291295Y-93099000D01*
X133196057Y-93051380D01*
X132957961Y-93051380D01*
X132862723Y-93099000D01*
X132815104Y-93146619D01*
X132767485Y-93241857D01*
X132767485Y-93337095D01*
X132815104Y-93479952D01*
X133386533Y-94051380D01*
X132767485Y-94051380D01*
%TO.C,C22*%
X139955542Y-101490542D02*
X140003161Y-101442923D01*
X140050780Y-101300066D01*
X140050780Y-101204828D01*
X140003161Y-101061971D01*
X139907923Y-100966733D01*
X139812685Y-100919114D01*
X139622209Y-100871495D01*
X139479352Y-100871495D01*
X139288876Y-100919114D01*
X139193638Y-100966733D01*
X139098400Y-101061971D01*
X139050780Y-101204828D01*
X139050780Y-101300066D01*
X139098400Y-101442923D01*
X139146019Y-101490542D01*
X139146019Y-101871495D02*
X139098400Y-101919114D01*
X139050780Y-102014352D01*
X139050780Y-102252447D01*
X139098400Y-102347685D01*
X139146019Y-102395304D01*
X139241257Y-102442923D01*
X139336495Y-102442923D01*
X139479352Y-102395304D01*
X140050780Y-101823876D01*
X140050780Y-102442923D01*
X139146019Y-102823876D02*
X139098400Y-102871495D01*
X139050780Y-102966733D01*
X139050780Y-103204828D01*
X139098400Y-103300066D01*
X139146019Y-103347685D01*
X139241257Y-103395304D01*
X139336495Y-103395304D01*
X139479352Y-103347685D01*
X140050780Y-102776257D01*
X140050780Y-103395304D01*
%TO.C,D2*%
X134316695Y-91104980D02*
X134316695Y-90104980D01*
X134078600Y-90104980D01*
X133935742Y-90152600D01*
X133840504Y-90247838D01*
X133792885Y-90343076D01*
X133745266Y-90533552D01*
X133745266Y-90676409D01*
X133792885Y-90866885D01*
X133840504Y-90962123D01*
X133935742Y-91057361D01*
X134078600Y-91104980D01*
X134316695Y-91104980D01*
X133364314Y-90200219D02*
X133316695Y-90152600D01*
X133221457Y-90104980D01*
X132983361Y-90104980D01*
X132888123Y-90152600D01*
X132840504Y-90200219D01*
X132792885Y-90295457D01*
X132792885Y-90390695D01*
X132840504Y-90533552D01*
X133411933Y-91104980D01*
X132792885Y-91104980D01*
X135077200Y-86421980D02*
X135077200Y-86660076D01*
X135315295Y-86564838D02*
X135077200Y-86660076D01*
X134839104Y-86564838D01*
X135220057Y-86850552D02*
X135077200Y-86660076D01*
X134934342Y-86850552D01*
%TO.C,C7*%
X133719866Y-103404942D02*
X133767485Y-103452561D01*
X133910342Y-103500180D01*
X134005580Y-103500180D01*
X134148438Y-103452561D01*
X134243676Y-103357323D01*
X134291295Y-103262085D01*
X134338914Y-103071609D01*
X134338914Y-102928752D01*
X134291295Y-102738276D01*
X134243676Y-102643038D01*
X134148438Y-102547800D01*
X134005580Y-102500180D01*
X133910342Y-102500180D01*
X133767485Y-102547800D01*
X133719866Y-102595419D01*
X133386533Y-102500180D02*
X132719866Y-102500180D01*
X133148438Y-103500180D01*
%TO.C,D5*%
X149505895Y-91181180D02*
X149505895Y-90181180D01*
X149267800Y-90181180D01*
X149124942Y-90228800D01*
X149029704Y-90324038D01*
X148982085Y-90419276D01*
X148934466Y-90609752D01*
X148934466Y-90752609D01*
X148982085Y-90943085D01*
X149029704Y-91038323D01*
X149124942Y-91133561D01*
X149267800Y-91181180D01*
X149505895Y-91181180D01*
X148029704Y-90181180D02*
X148505895Y-90181180D01*
X148553514Y-90657371D01*
X148505895Y-90609752D01*
X148410657Y-90562133D01*
X148172561Y-90562133D01*
X148077323Y-90609752D01*
X148029704Y-90657371D01*
X147982085Y-90752609D01*
X147982085Y-90990704D01*
X148029704Y-91085942D01*
X148077323Y-91133561D01*
X148172561Y-91181180D01*
X148410657Y-91181180D01*
X148505895Y-91133561D01*
X148553514Y-91085942D01*
X150317200Y-86421980D02*
X150317200Y-86660076D01*
X150555295Y-86564838D02*
X150317200Y-86660076D01*
X150079104Y-86564838D01*
X150460057Y-86850552D02*
X150317200Y-86660076D01*
X150174342Y-86850552D01*
D12*
%TO.C,C26*%
X143493436Y-101706000D02*
X143277764Y-101706000D01*
X143493436Y-100986000D02*
X143277764Y-100986000D01*
%TO.C,C25*%
X135733200Y-99508364D02*
X135733200Y-99724036D01*
X136453200Y-99508364D02*
X136453200Y-99724036D01*
D13*
%TO.C,C5*%
X147624200Y-94875600D02*
X147624200Y-96335600D01*
X149962200Y-96335600D02*
X149962200Y-94875600D01*
D14*
X149693200Y-97305600D02*
G75*
G03*
X149693200Y-97305600I-100000J0D01*
G01*
D13*
%TO.C,C4*%
X144882200Y-96335600D02*
X144882200Y-94875600D01*
X142544200Y-94875600D02*
X142544200Y-96335600D01*
D14*
X144613200Y-97305600D02*
G75*
G03*
X144613200Y-97305600I-100000J0D01*
G01*
D12*
%TO.C,C20*%
X138612200Y-99508364D02*
X138612200Y-99724036D01*
X137892200Y-99508364D02*
X137892200Y-99724036D01*
%TO.C,D4*%
X144551400Y-89700100D02*
X142875000Y-89700100D01*
X142875000Y-87287100D02*
X144551400Y-87287100D01*
%TO.C,D6*%
X153035000Y-87287100D02*
X154711400Y-87287100D01*
X154711400Y-89700100D02*
X153035000Y-89700100D01*
D13*
%TO.C,C1*%
X127304200Y-94875600D02*
X127304200Y-96335600D01*
X129642200Y-96335600D02*
X129642200Y-94875600D01*
D14*
X129373200Y-97305600D02*
G75*
G03*
X129373200Y-97305600I-100000J0D01*
G01*
D12*
%TO.C,F1*%
X154091052Y-123588200D02*
X151318548Y-123588200D01*
X154091052Y-127008200D02*
X151318548Y-127008200D01*
%TO.C,C9*%
X135274164Y-104604200D02*
X135489836Y-104604200D01*
X135274164Y-103884200D02*
X135489836Y-103884200D01*
%TO.C,D3*%
X139471400Y-89700100D02*
X137795000Y-89700100D01*
X137795000Y-87287100D02*
X139471400Y-87287100D01*
%TO.C,C23*%
X136800000Y-99508364D02*
X136800000Y-99724036D01*
X137520000Y-99508364D02*
X137520000Y-99724036D01*
D13*
%TO.C,C3*%
X137464200Y-94861300D02*
X137464200Y-96321300D01*
X139802200Y-96321300D02*
X139802200Y-94861300D01*
D14*
X139533200Y-97291300D02*
G75*
G03*
X139533200Y-97291300I-100000J0D01*
G01*
D12*
%TO.C,C24*%
X143493436Y-100639200D02*
X143277764Y-100639200D01*
X143493436Y-99919200D02*
X143277764Y-99919200D01*
%TO.C,D1*%
X127635000Y-87287100D02*
X129311400Y-87287100D01*
X129311400Y-89700100D02*
X127635000Y-89700100D01*
D13*
%TO.C,C2*%
X134722200Y-96310200D02*
X134722200Y-94850200D01*
X132384200Y-94850200D02*
X132384200Y-96310200D01*
D14*
X134453200Y-97280200D02*
G75*
G03*
X134453200Y-97280200I-100000J0D01*
G01*
D12*
%TO.C,C22*%
X139704400Y-99508364D02*
X139704400Y-99724036D01*
X138984400Y-99508364D02*
X138984400Y-99724036D01*
%TO.C,D2*%
X134391400Y-89700100D02*
X132715000Y-89700100D01*
X132715000Y-87287100D02*
X134391400Y-87287100D01*
%TO.C,C7*%
X135324964Y-103407800D02*
X135540636Y-103407800D01*
X135324964Y-102687800D02*
X135540636Y-102687800D01*
%TO.C,D5*%
X149631400Y-89700100D02*
X147955000Y-89700100D01*
X147955000Y-87287100D02*
X149631400Y-87287100D01*
%TD*%
M02*
