%TF.GenerationSoftware,KiCad,Pcbnew,(6.0.10)*%
%TF.CreationDate,2023-01-18T13:51:00-05:00*%
%TF.ProjectId,cyton hat,6379746f-6e20-4686-9174-2e6b69636164,rev?*%
%TF.SameCoordinates,Original*%
%TF.FileFunction,Copper,L3,Inr*%
%TF.FilePolarity,Positive*%
%FSLAX46Y46*%
G04 Gerber Fmt 4.6, Leading zero omitted, Abs format (unit mm)*
G04 Created by KiCad (PCBNEW (6.0.10)) date 2023-01-18 13:51:00*
%MOMM*%
%LPD*%
G01*
G04 APERTURE LIST*
G04 Aperture macros list*
%AMHorizOval*
0 Thick line with rounded ends*
0 $1 width*
0 $2 $3 position (X,Y) of the first rounded end (center of the circle)*
0 $4 $5 position (X,Y) of the second rounded end (center of the circle)*
0 Add line between two ends*
20,1,$1,$2,$3,$4,$5,0*
0 Add two circle primitives to create the rounded ends*
1,1,$1,$2,$3*
1,1,$1,$4,$5*%
%AMRotRect*
0 Rectangle, with rotation*
0 The origin of the aperture is its center*
0 $1 length*
0 $2 width*
0 $3 Rotation angle, in degrees counterclockwise*
0 Add horizontal line*
21,1,$1,$2,0,0,$3*%
G04 Aperture macros list end*
%TA.AperFunction,Profile*%
%ADD10C,0.101600*%
%TD*%
%TA.AperFunction,ComponentPad*%
%ADD11RotRect,1.700000X1.700000X315.000000*%
%TD*%
%TA.AperFunction,ComponentPad*%
%ADD12HorizOval,1.700000X0.000000X0.000000X0.000000X0.000000X0*%
%TD*%
%TA.AperFunction,ComponentPad*%
%ADD13R,1.700000X1.700000*%
%TD*%
%TA.AperFunction,ComponentPad*%
%ADD14O,1.700000X1.700000*%
%TD*%
%TA.AperFunction,ComponentPad*%
%ADD15O,1.200000X1.900000*%
%TD*%
%TA.AperFunction,ComponentPad*%
%ADD16C,1.450000*%
%TD*%
%TA.AperFunction,ComponentPad*%
%ADD17RotRect,1.700000X1.700000X45.000000*%
%TD*%
%TA.AperFunction,ComponentPad*%
%ADD18HorizOval,1.700000X0.000000X0.000000X0.000000X0.000000X0*%
%TD*%
%TA.AperFunction,ViaPad*%
%ADD19C,0.800000*%
%TD*%
G04 APERTURE END LIST*
D10*
X154736800Y-100584000D02*
X160375600Y-100584000D01*
X160375600Y-100584000D02*
X160375600Y-115062000D01*
X160375600Y-115062000D02*
X154736800Y-115062000D01*
X154736800Y-115062000D02*
X154736800Y-100584000D01*
G36*
X154736800Y-100584000D02*
G01*
X160375600Y-100584000D01*
X160375600Y-115062000D01*
X154736800Y-115062000D01*
X154736800Y-100584000D01*
G37*
X170357800Y-94183200D02*
X170357800Y-119557800D01*
X152374600Y-137541000D01*
X126949200Y-137541000D01*
X108991400Y-119583200D01*
X108991400Y-94208600D01*
X126974600Y-76225400D01*
X152400000Y-76225400D01*
X170357800Y-94183200D01*
D11*
%TO.N,VCOM*%
%TO.C,J3*%
X160248600Y-125323600D03*
D12*
%TO.N,unconnected-(J3-Pad2)*%
X158452549Y-127119651D03*
%TO.N,VDD*%
X156656498Y-128915702D03*
%TO.N,GNDA*%
X154860446Y-130711754D03*
%TD*%
D13*
%TO.N,VSSA*%
%TO.C,J1*%
X124663200Y-84988400D03*
D14*
X124663200Y-82448400D03*
%TO.N,/SRB1*%
X127203200Y-84988400D03*
%TO.N,/SRB2*%
X127203200Y-82448400D03*
%TO.N,/1P*%
X129743200Y-84988400D03*
%TO.N,/1N*%
X129743200Y-82448400D03*
%TO.N,/2P*%
X132283200Y-84988400D03*
%TO.N,/2N*%
X132283200Y-82448400D03*
%TO.N,/3P*%
X134823200Y-84988400D03*
%TO.N,/3N*%
X134823200Y-82448400D03*
%TO.N,/4P*%
X137363200Y-84988400D03*
%TO.N,/4N*%
X137363200Y-82448400D03*
%TO.N,/5P*%
X139903200Y-84988400D03*
%TO.N,/5N*%
X139903200Y-82448400D03*
%TO.N,/6P*%
X142443200Y-84988400D03*
%TO.N,/6N*%
X142443200Y-82448400D03*
%TO.N,/7P*%
X144983200Y-84988400D03*
%TO.N,/7N*%
X144983200Y-82448400D03*
%TO.N,/8P*%
X147523200Y-84988400D03*
%TO.N,/8N*%
X147523200Y-82448400D03*
%TO.N,/BIAS*%
X150063200Y-84988400D03*
X150063200Y-82448400D03*
%TO.N,GNDA*%
X152603200Y-84988400D03*
X152603200Y-82448400D03*
%TO.N,VDDA*%
X155143200Y-84988400D03*
X155143200Y-82448400D03*
%TD*%
D13*
%TO.N,/RXD*%
%TO.C,J5*%
X162433000Y-114960400D03*
D14*
%TO.N,/TXD*%
X162433000Y-117500400D03*
%TO.N,unconnected-(J5-Pad3)*%
X162433000Y-120040400D03*
%TO.N,unconnected-(J5-Pad4)*%
X162433000Y-122580400D03*
%TD*%
D15*
%TO.N,unconnected-(CONN1-Pad6)*%
%TO.C,CONN1*%
X136200000Y-136080300D03*
X143200000Y-136080300D03*
D16*
X137200000Y-133380300D03*
X142200000Y-133380300D03*
%TD*%
D13*
%TO.N,GNDA*%
%TO.C,J4*%
X149910800Y-101142800D03*
D14*
%TO.N,/BIAS_INV*%
X149910800Y-98602800D03*
%TD*%
D17*
%TO.N,VDD*%
%TO.C,J2*%
X116500000Y-100650000D03*
D18*
%TO.N,GNDA*%
X118296051Y-102446051D03*
%TO.N,/_MISO*%
X120092102Y-104242102D03*
%TO.N,/SCLK*%
X121888154Y-106038154D03*
%TO.N,/RESET*%
X123684205Y-107834205D03*
%TO.N,/CLK*%
X125480256Y-109630256D03*
%TO.N,/MOSI*%
X127276307Y-111426307D03*
%TO.N,/CS2*%
X129072359Y-113222359D03*
%TD*%
D19*
%TO.N,/Daisy Functionality/_SRB1*%
X127003697Y-93167200D03*
%TO.N,/Daisy Functionality/_SRB2*%
X128003200Y-93167200D03*
%TO.N,/Daisy Functionality/IN1P*%
X129070100Y-93103700D03*
%TO.N,/Daisy Functionality/IN1N*%
X130086327Y-93130684D03*
%TO.N,/Daisy Functionality/IN2P*%
X132096905Y-92986254D03*
%TO.N,/Daisy Functionality/IN2N*%
X133096000Y-93014800D03*
%TO.N,/Daisy Functionality/IN3P*%
X134094731Y-92842500D03*
%TO.N,/Daisy Functionality/IN3N*%
X135275931Y-92594901D03*
%TO.N,/Daisy Functionality/IN4P*%
X137083800Y-92862400D03*
%TO.N,/Daisy Functionality/IN4N*%
X138081846Y-92916348D03*
%TO.N,/Daisy Functionality/IN5P*%
X139081343Y-92913148D03*
%TO.N,/Daisy Functionality/IN5N*%
X140080845Y-92913206D03*
%TO.N,/Daisy Functionality/IN6P*%
X141851353Y-92913928D03*
%TO.N,/Daisy Functionality/IN6N*%
X142849600Y-92964000D03*
%TO.N,/Daisy Functionality/IN7P*%
X144030600Y-93015374D03*
%TO.N,/Daisy Functionality/IN7N*%
X145237200Y-93065600D03*
%TO.N,/Daisy Functionality/IN8P*%
X147243800Y-92913200D03*
%TO.N,/Daisy Functionality/IN8N*%
X148259800Y-92964000D03*
%TO.N,/Daisy Functionality/BIAS_DRV*%
X149923200Y-93027800D03*
%TO.N,VSSA*%
X134950200Y-101803200D03*
X134950200Y-105486200D03*
X141706600Y-102819200D03*
%TO.N,Net-(C16-Pad1)*%
X138201400Y-130006100D03*
X138150600Y-131495800D03*
%TO.N,VDD*%
X135534400Y-109601000D03*
X142392400Y-111785400D03*
X121589800Y-120192800D03*
X137388600Y-126898400D03*
X121589800Y-124993400D03*
%TO.N,VDDA*%
X141198600Y-99136200D03*
X134747000Y-99136200D03*
X145821400Y-103733600D03*
%TO.N,Net-(D10-Pad1)*%
X119989600Y-120065800D03*
X143573500Y-123202700D03*
%TO.N,Net-(D11-Pad1)*%
X145542000Y-126898400D03*
X120015000Y-124968000D03*
%TO.N,/_MISO*%
X131368800Y-117703600D03*
%TO.N,/SCLK*%
X129387600Y-116281200D03*
%TO.N,/RESET*%
X134975600Y-110845600D03*
%TO.N,/TXD*%
X139674600Y-118745000D03*
%TD*%
%TA.AperFunction,Conductor*%
%TO.N,GNDA*%
G36*
X152415517Y-76246402D02*
G01*
X152436491Y-76263305D01*
X162114598Y-85941412D01*
X162148624Y-86003724D01*
X162143559Y-86074539D01*
X162114598Y-86119602D01*
X151714200Y-96520000D01*
X151714200Y-105181400D01*
X152196800Y-104698800D01*
X152196703Y-104667734D01*
X152171565Y-96674022D01*
X152191352Y-96605839D01*
X152208469Y-96584531D01*
X162393998Y-86399002D01*
X162456310Y-86364976D01*
X162527125Y-86370041D01*
X162572188Y-86399002D01*
X170319895Y-94146709D01*
X170353921Y-94209021D01*
X170356800Y-94235804D01*
X170356800Y-119481262D01*
X170336798Y-119549383D01*
X170319958Y-119570295D01*
X155741270Y-134169575D01*
X153375712Y-136538474D01*
X153375710Y-136538472D01*
X153375650Y-136538536D01*
X152411091Y-137503095D01*
X152348779Y-137537121D01*
X152321996Y-137540000D01*
X127001804Y-137540000D01*
X126933683Y-137519998D01*
X126912709Y-137503095D01*
X125883820Y-136474206D01*
X135421700Y-136474206D01*
X135436239Y-136603822D01*
X135493662Y-136768720D01*
X135497393Y-136774690D01*
X135497393Y-136774691D01*
X135582459Y-136910824D01*
X135586192Y-136916798D01*
X135591155Y-136921796D01*
X135591156Y-136921797D01*
X135599548Y-136930248D01*
X135709228Y-137040697D01*
X135715174Y-137044471D01*
X135715176Y-137044472D01*
X135766327Y-137076933D01*
X135856657Y-137134258D01*
X135876304Y-137141254D01*
X136014515Y-137190469D01*
X136014520Y-137190470D01*
X136021150Y-137192831D01*
X136028138Y-137193664D01*
X136028141Y-137193665D01*
X136148041Y-137207962D01*
X136194532Y-137213506D01*
X136201535Y-137212770D01*
X136201536Y-137212770D01*
X136361186Y-137195990D01*
X136361188Y-137195989D01*
X136368186Y-137195254D01*
X136455220Y-137165625D01*
X136526811Y-137141254D01*
X136526814Y-137141253D01*
X136533481Y-137138983D01*
X136541162Y-137134258D01*
X136676200Y-137051182D01*
X136676201Y-137051181D01*
X136682201Y-137047490D01*
X136806956Y-136925321D01*
X136901544Y-136778549D01*
X136903956Y-136771923D01*
X136958854Y-136621092D01*
X136958855Y-136621087D01*
X136961264Y-136614469D01*
X136978300Y-136479619D01*
X136978300Y-136474206D01*
X142421700Y-136474206D01*
X142436239Y-136603822D01*
X142493662Y-136768720D01*
X142497393Y-136774690D01*
X142497393Y-136774691D01*
X142582459Y-136910824D01*
X142586192Y-136916798D01*
X142591155Y-136921796D01*
X142591156Y-136921797D01*
X142599548Y-136930248D01*
X142709228Y-137040697D01*
X142715174Y-137044471D01*
X142715176Y-137044472D01*
X142766327Y-137076933D01*
X142856657Y-137134258D01*
X142876304Y-137141254D01*
X143014515Y-137190469D01*
X143014520Y-137190470D01*
X143021150Y-137192831D01*
X143028138Y-137193664D01*
X143028141Y-137193665D01*
X143148041Y-137207962D01*
X143194532Y-137213506D01*
X143201535Y-137212770D01*
X143201536Y-137212770D01*
X143361186Y-137195990D01*
X143361188Y-137195989D01*
X143368186Y-137195254D01*
X143455220Y-137165625D01*
X143526811Y-137141254D01*
X143526814Y-137141253D01*
X143533481Y-137138983D01*
X143541162Y-137134258D01*
X143676200Y-137051182D01*
X143676201Y-137051181D01*
X143682201Y-137047490D01*
X143806956Y-136925321D01*
X143901544Y-136778549D01*
X143903956Y-136771923D01*
X143958854Y-136621092D01*
X143958855Y-136621087D01*
X143961264Y-136614469D01*
X143978300Y-136479619D01*
X143978300Y-135686394D01*
X143963761Y-135556778D01*
X143906338Y-135391880D01*
X143896493Y-135376124D01*
X143817541Y-135249776D01*
X143813808Y-135243802D01*
X143805345Y-135235279D01*
X143695734Y-135124900D01*
X143690772Y-135119903D01*
X143674251Y-135109418D01*
X143633673Y-135083667D01*
X143543343Y-135026342D01*
X143515822Y-135016542D01*
X143385485Y-134970131D01*
X143385480Y-134970130D01*
X143378850Y-134967769D01*
X143371862Y-134966936D01*
X143371859Y-134966935D01*
X143251959Y-134952638D01*
X143205468Y-134947094D01*
X143198465Y-134947830D01*
X143198464Y-134947830D01*
X143038814Y-134964610D01*
X143038812Y-134964611D01*
X143031814Y-134965346D01*
X142944780Y-134994975D01*
X142873189Y-135019346D01*
X142873186Y-135019347D01*
X142866519Y-135021617D01*
X142860521Y-135025307D01*
X142860519Y-135025308D01*
X142852696Y-135030121D01*
X142717799Y-135113110D01*
X142593044Y-135235279D01*
X142498456Y-135382051D01*
X142496045Y-135388674D01*
X142496044Y-135388677D01*
X142441146Y-135539508D01*
X142441145Y-135539513D01*
X142438736Y-135546131D01*
X142421700Y-135680981D01*
X142421700Y-136474206D01*
X136978300Y-136474206D01*
X136978300Y-135686394D01*
X136963761Y-135556778D01*
X136906338Y-135391880D01*
X136896493Y-135376124D01*
X136817541Y-135249776D01*
X136813808Y-135243802D01*
X136805345Y-135235279D01*
X136695734Y-135124900D01*
X136690772Y-135119903D01*
X136674251Y-135109418D01*
X136633673Y-135083667D01*
X136543343Y-135026342D01*
X136515822Y-135016542D01*
X136385485Y-134970131D01*
X136385480Y-134970130D01*
X136378850Y-134967769D01*
X136371862Y-134966936D01*
X136371859Y-134966935D01*
X136251959Y-134952638D01*
X136205468Y-134947094D01*
X136198465Y-134947830D01*
X136198464Y-134947830D01*
X136038814Y-134964610D01*
X136038812Y-134964611D01*
X136031814Y-134965346D01*
X135944780Y-134994975D01*
X135873189Y-135019346D01*
X135873186Y-135019347D01*
X135866519Y-135021617D01*
X135860521Y-135025307D01*
X135860519Y-135025308D01*
X135852696Y-135030121D01*
X135717799Y-135113110D01*
X135593044Y-135235279D01*
X135498456Y-135382051D01*
X135496045Y-135388674D01*
X135496044Y-135388677D01*
X135441146Y-135539508D01*
X135441145Y-135539513D01*
X135438736Y-135546131D01*
X135421700Y-135680981D01*
X135421700Y-136474206D01*
X125883820Y-136474206D01*
X122789914Y-133380300D01*
X136291724Y-133380300D01*
X136311572Y-133569141D01*
X136370249Y-133749729D01*
X136465189Y-133914171D01*
X136592245Y-134055281D01*
X136597587Y-134059162D01*
X136597589Y-134059164D01*
X136740520Y-134163009D01*
X136745862Y-134166890D01*
X136751890Y-134169574D01*
X136751892Y-134169575D01*
X136913296Y-134241437D01*
X136919327Y-134244122D01*
X137012193Y-134263861D01*
X137098602Y-134282228D01*
X137098606Y-134282228D01*
X137105059Y-134283600D01*
X137294941Y-134283600D01*
X137301394Y-134282228D01*
X137301398Y-134282228D01*
X137387807Y-134263861D01*
X137480673Y-134244122D01*
X137486704Y-134241437D01*
X137648108Y-134169575D01*
X137648110Y-134169574D01*
X137654138Y-134166890D01*
X137659480Y-134163009D01*
X137802411Y-134059164D01*
X137802413Y-134059162D01*
X137807755Y-134055281D01*
X137934811Y-133914171D01*
X138029751Y-133749729D01*
X138088428Y-133569141D01*
X138108276Y-133380300D01*
X141291724Y-133380300D01*
X141311572Y-133569141D01*
X141370249Y-133749729D01*
X141465189Y-133914171D01*
X141592245Y-134055281D01*
X141597587Y-134059162D01*
X141597589Y-134059164D01*
X141740520Y-134163009D01*
X141745862Y-134166890D01*
X141751890Y-134169574D01*
X141751892Y-134169575D01*
X141913296Y-134241437D01*
X141919327Y-134244122D01*
X142012193Y-134263861D01*
X142098602Y-134282228D01*
X142098606Y-134282228D01*
X142105059Y-134283600D01*
X142294941Y-134283600D01*
X142301394Y-134282228D01*
X142301398Y-134282228D01*
X142387807Y-134263861D01*
X142480673Y-134244122D01*
X142486704Y-134241437D01*
X142648108Y-134169575D01*
X142648110Y-134169574D01*
X142654138Y-134166890D01*
X142659480Y-134163009D01*
X142802411Y-134059164D01*
X142802413Y-134059162D01*
X142807755Y-134055281D01*
X142934811Y-133914171D01*
X143029751Y-133749729D01*
X143088428Y-133569141D01*
X143108276Y-133380300D01*
X143088428Y-133191459D01*
X143029751Y-133010871D01*
X142934811Y-132846429D01*
X142807755Y-132705319D01*
X142802413Y-132701438D01*
X142802411Y-132701436D01*
X142659480Y-132597591D01*
X142659479Y-132597590D01*
X142654138Y-132593710D01*
X142648110Y-132591026D01*
X142648108Y-132591025D01*
X142486704Y-132519163D01*
X142486702Y-132519162D01*
X142480673Y-132516478D01*
X142387807Y-132496739D01*
X142301398Y-132478372D01*
X142301394Y-132478372D01*
X142294941Y-132477000D01*
X142105059Y-132477000D01*
X142098606Y-132478372D01*
X142098602Y-132478372D01*
X142012193Y-132496739D01*
X141919327Y-132516478D01*
X141913298Y-132519162D01*
X141913296Y-132519163D01*
X141751892Y-132591025D01*
X141751890Y-132591026D01*
X141745862Y-132593710D01*
X141740521Y-132597590D01*
X141740520Y-132597591D01*
X141597589Y-132701436D01*
X141597587Y-132701438D01*
X141592245Y-132705319D01*
X141465189Y-132846429D01*
X141370249Y-133010871D01*
X141311572Y-133191459D01*
X141291724Y-133380300D01*
X138108276Y-133380300D01*
X138088428Y-133191459D01*
X138029751Y-133010871D01*
X137934811Y-132846429D01*
X137807755Y-132705319D01*
X137802413Y-132701438D01*
X137802411Y-132701436D01*
X137659480Y-132597591D01*
X137659479Y-132597590D01*
X137654138Y-132593710D01*
X137648110Y-132591026D01*
X137648108Y-132591025D01*
X137486704Y-132519163D01*
X137486702Y-132519162D01*
X137480673Y-132516478D01*
X137387807Y-132496739D01*
X137301398Y-132478372D01*
X137301394Y-132478372D01*
X137294941Y-132477000D01*
X137105059Y-132477000D01*
X137098606Y-132478372D01*
X137098602Y-132478372D01*
X137012193Y-132496739D01*
X136919327Y-132516478D01*
X136913298Y-132519162D01*
X136913296Y-132519163D01*
X136751892Y-132591025D01*
X136751890Y-132591026D01*
X136745862Y-132593710D01*
X136740521Y-132597590D01*
X136740520Y-132597591D01*
X136597589Y-132701436D01*
X136597587Y-132701438D01*
X136592245Y-132705319D01*
X136465189Y-132846429D01*
X136370249Y-133010871D01*
X136311572Y-133191459D01*
X136291724Y-133380300D01*
X122789914Y-133380300D01*
X120905414Y-131495800D01*
X137567310Y-131495800D01*
X137587185Y-131646767D01*
X137645456Y-131787445D01*
X137738152Y-131908248D01*
X137858955Y-132000944D01*
X137999633Y-132059215D01*
X138150600Y-132079090D01*
X138158788Y-132078012D01*
X138293379Y-132060293D01*
X138301567Y-132059215D01*
X138442245Y-132000944D01*
X138563048Y-131908248D01*
X138618020Y-131836607D01*
X154100423Y-131836607D01*
X154105704Y-131843661D01*
X154267202Y-131938033D01*
X154276488Y-131942483D01*
X154475447Y-132018457D01*
X154485345Y-132021333D01*
X154694041Y-132063792D01*
X154704269Y-132065011D01*
X154917096Y-132072816D01*
X154927382Y-132072349D01*
X155138631Y-132045288D01*
X155148708Y-132043146D01*
X155352701Y-131981945D01*
X155362288Y-131978187D01*
X155553544Y-131884492D01*
X155562390Y-131879219D01*
X155609693Y-131845477D01*
X155618094Y-131834777D01*
X155611106Y-131821624D01*
X154873258Y-131083776D01*
X154859314Y-131076162D01*
X154857481Y-131076293D01*
X154850866Y-131080544D01*
X154107183Y-131824227D01*
X154100423Y-131836607D01*
X138618020Y-131836607D01*
X138655744Y-131787445D01*
X138714015Y-131646767D01*
X138733890Y-131495800D01*
X138714015Y-131344833D01*
X138655744Y-131204155D01*
X138563048Y-131083352D01*
X138442245Y-130990656D01*
X138301567Y-130932385D01*
X138150600Y-130912510D01*
X137999633Y-130932385D01*
X137858955Y-130990656D01*
X137738152Y-131083352D01*
X137645456Y-131204155D01*
X137587185Y-131344833D01*
X137567310Y-131495800D01*
X120905414Y-131495800D01*
X120093231Y-130683617D01*
X153498496Y-130683617D01*
X153510755Y-130896231D01*
X153512191Y-130906451D01*
X153559011Y-131114200D01*
X153562091Y-131124029D01*
X153642216Y-131321357D01*
X153646859Y-131330548D01*
X153726906Y-131461174D01*
X153737362Y-131470634D01*
X153746140Y-131466850D01*
X154488424Y-130724566D01*
X154496038Y-130710622D01*
X154495907Y-130708789D01*
X154491656Y-130702174D01*
X153750295Y-129960813D01*
X153738759Y-129954513D01*
X153726477Y-129964136D01*
X153678535Y-130034416D01*
X153673450Y-130043367D01*
X153583784Y-130236537D01*
X153580221Y-130246224D01*
X153523310Y-130451435D01*
X153521379Y-130461554D01*
X153498748Y-130673328D01*
X153498496Y-130683617D01*
X120093231Y-130683617D01*
X119415714Y-130006100D01*
X137618110Y-130006100D01*
X137637985Y-130157067D01*
X137696256Y-130297745D01*
X137788952Y-130418548D01*
X137909755Y-130511244D01*
X138050433Y-130569515D01*
X138201400Y-130589390D01*
X138209588Y-130588312D01*
X138344179Y-130570593D01*
X138352367Y-130569515D01*
X138493045Y-130511244D01*
X138613848Y-130418548D01*
X138706544Y-130297745D01*
X138764815Y-130157067D01*
X138784690Y-130006100D01*
X138764815Y-129855133D01*
X138706544Y-129714455D01*
X138613848Y-129593652D01*
X138606718Y-129588181D01*
X154101669Y-129588181D01*
X154108414Y-129600512D01*
X155970920Y-131463018D01*
X155982930Y-131469577D01*
X155994669Y-131460609D01*
X156025450Y-131417773D01*
X156030761Y-131408934D01*
X156125116Y-131218021D01*
X156128915Y-131208426D01*
X156190822Y-131004669D01*
X156193001Y-130994588D01*
X156221036Y-130781641D01*
X156221555Y-130774966D01*
X156223018Y-130715118D01*
X156222824Y-130708400D01*
X156205227Y-130494358D01*
X156203542Y-130484178D01*
X156151660Y-130277629D01*
X156148340Y-130267878D01*
X156063418Y-130072568D01*
X156058551Y-130063493D01*
X156026111Y-130013347D01*
X156005904Y-129945286D01*
X156025700Y-129877106D01*
X156079216Y-129830451D01*
X156149459Y-129820136D01*
X156193373Y-129834919D01*
X156229542Y-129855133D01*
X156242827Y-129862558D01*
X156434617Y-129924874D01*
X156634859Y-129948751D01*
X156640994Y-129948279D01*
X156640996Y-129948279D01*
X156829783Y-129933753D01*
X156829788Y-129933752D01*
X156835924Y-129933280D01*
X156841854Y-129931624D01*
X156841856Y-129931624D01*
X157024228Y-129880705D01*
X157024227Y-129880705D01*
X157030156Y-129879050D01*
X157035645Y-129876277D01*
X157035651Y-129876275D01*
X157204659Y-129790902D01*
X157210155Y-129788126D01*
X157240810Y-129764176D01*
X157312836Y-129707902D01*
X157369065Y-129663971D01*
X157373091Y-129659307D01*
X157373094Y-129659304D01*
X157496805Y-129515984D01*
X157496806Y-129515982D01*
X157500834Y-129511316D01*
X157551113Y-129422810D01*
X157597398Y-129341334D01*
X157597400Y-129341330D01*
X157600443Y-129335973D01*
X157664096Y-129144623D01*
X157689371Y-128944553D01*
X157689774Y-128915702D01*
X157670095Y-128715004D01*
X157665829Y-128700872D01*
X157613590Y-128527851D01*
X157611809Y-128521951D01*
X157517136Y-128343896D01*
X157445352Y-128255880D01*
X157393575Y-128192395D01*
X157393572Y-128192392D01*
X157389680Y-128187620D01*
X157383100Y-128182176D01*
X157239047Y-128063005D01*
X157239048Y-128063005D01*
X157234299Y-128059077D01*
X157228882Y-128056148D01*
X157228879Y-128056146D01*
X157062329Y-127966093D01*
X157062324Y-127966091D01*
X157056909Y-127963163D01*
X156864267Y-127903530D01*
X156858142Y-127902886D01*
X156858141Y-127902886D01*
X156669840Y-127883095D01*
X156669839Y-127883095D01*
X156663712Y-127882451D01*
X156579586Y-127890107D01*
X156469020Y-127900169D01*
X156469017Y-127900170D01*
X156462881Y-127900728D01*
X156456975Y-127902466D01*
X156456971Y-127902467D01*
X156275338Y-127955925D01*
X156269426Y-127957665D01*
X156263961Y-127960522D01*
X156258909Y-127963163D01*
X156090714Y-128051094D01*
X156085909Y-128054957D01*
X156085908Y-128054958D01*
X156080785Y-128059077D01*
X155933553Y-128177455D01*
X155803928Y-128331935D01*
X155800965Y-128337324D01*
X155800962Y-128337329D01*
X155720726Y-128483279D01*
X155706778Y-128508651D01*
X155645802Y-128700872D01*
X155623323Y-128901275D01*
X155640197Y-129102228D01*
X155695782Y-129296076D01*
X155716287Y-129335973D01*
X155740387Y-129382867D01*
X155753735Y-129452598D01*
X155727265Y-129518475D01*
X155669381Y-129559584D01*
X155598461Y-129562873D01*
X155567427Y-129550771D01*
X155423553Y-129471348D01*
X155414151Y-129467123D01*
X155213405Y-129396034D01*
X155203435Y-129393400D01*
X154993773Y-129356055D01*
X154983519Y-129355085D01*
X154770562Y-129352482D01*
X154760278Y-129353202D01*
X154549767Y-129385415D01*
X154539739Y-129387804D01*
X154337314Y-129453966D01*
X154327805Y-129457963D01*
X154138912Y-129556294D01*
X154130180Y-129561793D01*
X154110123Y-129576853D01*
X154101669Y-129588181D01*
X138606718Y-129588181D01*
X138493045Y-129500956D01*
X138352367Y-129442685D01*
X138201400Y-129422810D01*
X138050433Y-129442685D01*
X137909755Y-129500956D01*
X137788952Y-129593652D01*
X137696256Y-129714455D01*
X137637985Y-129855133D01*
X137618110Y-130006100D01*
X119415714Y-130006100D01*
X116308014Y-126898400D01*
X136805310Y-126898400D01*
X136825185Y-127049367D01*
X136883456Y-127190045D01*
X136976152Y-127310848D01*
X137096955Y-127403544D01*
X137237633Y-127461815D01*
X137388600Y-127481690D01*
X137396788Y-127480612D01*
X137531379Y-127462893D01*
X137539567Y-127461815D01*
X137680245Y-127403544D01*
X137801048Y-127310848D01*
X137893744Y-127190045D01*
X137952015Y-127049367D01*
X137971890Y-126898400D01*
X144958710Y-126898400D01*
X144978585Y-127049367D01*
X145036856Y-127190045D01*
X145129552Y-127310848D01*
X145250355Y-127403544D01*
X145391033Y-127461815D01*
X145542000Y-127481690D01*
X145550188Y-127480612D01*
X145684779Y-127462893D01*
X145692967Y-127461815D01*
X145833645Y-127403544D01*
X145954448Y-127310848D01*
X146047144Y-127190045D01*
X146082278Y-127105224D01*
X157419374Y-127105224D01*
X157436248Y-127306177D01*
X157459374Y-127386828D01*
X157486576Y-127481690D01*
X157491833Y-127500025D01*
X157584012Y-127679385D01*
X157587838Y-127684212D01*
X157705443Y-127832595D01*
X157705448Y-127832600D01*
X157709272Y-127837425D01*
X157713965Y-127841419D01*
X157713966Y-127841420D01*
X157857014Y-127963163D01*
X157862844Y-127968125D01*
X157868222Y-127971131D01*
X157868224Y-127971132D01*
X157950861Y-128017316D01*
X158038878Y-128066507D01*
X158230668Y-128128823D01*
X158430910Y-128152700D01*
X158437045Y-128152228D01*
X158437047Y-128152228D01*
X158625834Y-128137702D01*
X158625839Y-128137701D01*
X158631975Y-128137229D01*
X158637905Y-128135573D01*
X158637907Y-128135573D01*
X158820279Y-128084654D01*
X158820278Y-128084654D01*
X158826207Y-128082999D01*
X158831696Y-128080226D01*
X158831702Y-128080224D01*
X159000710Y-127994851D01*
X159006206Y-127992075D01*
X159036861Y-127968125D01*
X159062751Y-127947897D01*
X159165116Y-127867920D01*
X159169142Y-127863256D01*
X159169145Y-127863253D01*
X159292856Y-127719933D01*
X159292857Y-127719931D01*
X159296885Y-127715265D01*
X159396494Y-127539922D01*
X159440809Y-127406704D01*
X159458202Y-127354420D01*
X159458203Y-127354417D01*
X159460147Y-127348572D01*
X159485422Y-127148502D01*
X159485825Y-127119651D01*
X159466146Y-126918953D01*
X159461880Y-126904821D01*
X159409641Y-126731800D01*
X159407860Y-126725900D01*
X159313187Y-126547845D01*
X159241403Y-126459829D01*
X159189626Y-126396344D01*
X159189623Y-126396341D01*
X159185731Y-126391569D01*
X159179151Y-126386125D01*
X159035098Y-126266954D01*
X159035099Y-126266954D01*
X159030350Y-126263026D01*
X159024933Y-126260097D01*
X159024930Y-126260095D01*
X158858380Y-126170042D01*
X158858375Y-126170040D01*
X158852960Y-126167112D01*
X158660318Y-126107479D01*
X158654193Y-126106835D01*
X158654192Y-126106835D01*
X158465891Y-126087044D01*
X158465890Y-126087044D01*
X158459763Y-126086400D01*
X158375637Y-126094056D01*
X158265071Y-126104118D01*
X158265068Y-126104119D01*
X158258932Y-126104677D01*
X158253026Y-126106415D01*
X158253022Y-126106416D01*
X158071389Y-126159874D01*
X158065477Y-126161614D01*
X158060012Y-126164471D01*
X158054960Y-126167112D01*
X157886765Y-126255043D01*
X157881960Y-126258906D01*
X157881959Y-126258907D01*
X157876836Y-126263026D01*
X157729604Y-126381404D01*
X157599979Y-126535884D01*
X157597016Y-126541273D01*
X157597013Y-126541278D01*
X157529451Y-126664175D01*
X157502829Y-126712600D01*
X157441853Y-126904821D01*
X157419374Y-127105224D01*
X146082278Y-127105224D01*
X146105415Y-127049367D01*
X146125290Y-126898400D01*
X146105415Y-126747433D01*
X146047144Y-126606755D01*
X145954448Y-126485952D01*
X145833645Y-126393256D01*
X145692967Y-126334985D01*
X145542000Y-126315110D01*
X145391033Y-126334985D01*
X145250355Y-126393256D01*
X145129552Y-126485952D01*
X145036856Y-126606755D01*
X144978585Y-126747433D01*
X144958710Y-126898400D01*
X137971890Y-126898400D01*
X137952015Y-126747433D01*
X137893744Y-126606755D01*
X137801048Y-126485952D01*
X137680245Y-126393256D01*
X137539567Y-126334985D01*
X137388600Y-126315110D01*
X137237633Y-126334985D01*
X137096955Y-126393256D01*
X136976152Y-126485952D01*
X136883456Y-126606755D01*
X136825185Y-126747433D01*
X136805310Y-126898400D01*
X116308014Y-126898400D01*
X114377614Y-124968000D01*
X119431710Y-124968000D01*
X119451585Y-125118967D01*
X119509856Y-125259645D01*
X119602552Y-125380448D01*
X119723355Y-125473144D01*
X119864033Y-125531415D01*
X120015000Y-125551290D01*
X120023188Y-125550212D01*
X120157779Y-125532493D01*
X120165967Y-125531415D01*
X120306645Y-125473144D01*
X120427448Y-125380448D01*
X120520144Y-125259645D01*
X120578415Y-125118967D01*
X120594946Y-124993400D01*
X121006510Y-124993400D01*
X121026385Y-125144367D01*
X121084656Y-125285045D01*
X121177352Y-125405848D01*
X121298155Y-125498544D01*
X121380115Y-125532493D01*
X121425495Y-125551290D01*
X121438833Y-125556815D01*
X121589800Y-125576690D01*
X121597988Y-125575612D01*
X121732579Y-125557893D01*
X121740767Y-125556815D01*
X121754106Y-125551290D01*
X121799485Y-125532493D01*
X121881445Y-125498544D01*
X122002248Y-125405848D01*
X122065360Y-125323600D01*
X158864726Y-125323600D01*
X158867147Y-125335771D01*
X158876034Y-125380448D01*
X158878564Y-125393169D01*
X158885456Y-125403484D01*
X158885457Y-125403486D01*
X158904585Y-125432113D01*
X158908024Y-125437260D01*
X160134940Y-126664175D01*
X160179031Y-126693636D01*
X160248600Y-126707474D01*
X160260771Y-126705053D01*
X160305999Y-126696057D01*
X160306000Y-126696056D01*
X160318169Y-126693636D01*
X160328484Y-126686744D01*
X160328486Y-126686743D01*
X160357115Y-126667614D01*
X160357117Y-126667612D01*
X160362260Y-126664176D01*
X161589175Y-125437260D01*
X161618636Y-125393169D01*
X161632474Y-125323600D01*
X161628341Y-125302823D01*
X161621057Y-125266201D01*
X161621056Y-125266198D01*
X161618636Y-125254031D01*
X161611742Y-125243712D01*
X161592614Y-125215085D01*
X161592612Y-125215083D01*
X161589176Y-125209940D01*
X160362260Y-123983025D01*
X160318169Y-123953564D01*
X160248600Y-123939726D01*
X160236429Y-123942147D01*
X160191201Y-123951143D01*
X160191200Y-123951144D01*
X160179031Y-123953564D01*
X160168716Y-123960456D01*
X160168714Y-123960457D01*
X160140085Y-123979586D01*
X160134940Y-123983024D01*
X158908025Y-125209940D01*
X158878564Y-125254031D01*
X158864726Y-125323600D01*
X122065360Y-125323600D01*
X122094944Y-125285045D01*
X122153215Y-125144367D01*
X122173090Y-124993400D01*
X122153215Y-124842433D01*
X122094944Y-124701755D01*
X122002248Y-124580952D01*
X121881445Y-124488256D01*
X121740767Y-124429985D01*
X121589800Y-124410110D01*
X121438833Y-124429985D01*
X121298155Y-124488256D01*
X121177352Y-124580952D01*
X121084656Y-124701755D01*
X121026385Y-124842433D01*
X121006510Y-124993400D01*
X120594946Y-124993400D01*
X120598290Y-124968000D01*
X120578415Y-124817033D01*
X120520144Y-124676355D01*
X120427448Y-124555552D01*
X120306645Y-124462856D01*
X120181908Y-124411188D01*
X120173596Y-124407745D01*
X120165967Y-124404585D01*
X120015000Y-124384710D01*
X119864033Y-124404585D01*
X119856404Y-124407745D01*
X119848092Y-124411188D01*
X119723355Y-124462856D01*
X119602552Y-124555552D01*
X119509856Y-124676355D01*
X119451585Y-124817033D01*
X119431710Y-124968000D01*
X114377614Y-124968000D01*
X112612314Y-123202700D01*
X142990210Y-123202700D01*
X143010085Y-123353667D01*
X143068356Y-123494345D01*
X143161052Y-123615148D01*
X143281855Y-123707844D01*
X143422533Y-123766115D01*
X143573500Y-123785990D01*
X143581688Y-123784912D01*
X143716279Y-123767193D01*
X143724467Y-123766115D01*
X143865145Y-123707844D01*
X143985948Y-123615148D01*
X144078644Y-123494345D01*
X144136915Y-123353667D01*
X144156790Y-123202700D01*
X144136915Y-123051733D01*
X144078644Y-122911055D01*
X143985948Y-122790252D01*
X143865145Y-122697556D01*
X143724467Y-122639285D01*
X143573500Y-122619410D01*
X143422533Y-122639285D01*
X143281855Y-122697556D01*
X143161052Y-122790252D01*
X143068356Y-122911055D01*
X143010085Y-123051733D01*
X142990210Y-123202700D01*
X112612314Y-123202700D01*
X111975587Y-122565973D01*
X161399825Y-122565973D01*
X161401332Y-122583922D01*
X161410609Y-122694396D01*
X161416699Y-122766926D01*
X161472284Y-122960774D01*
X161564463Y-123140134D01*
X161568289Y-123144961D01*
X161685894Y-123293344D01*
X161685899Y-123293349D01*
X161689723Y-123298174D01*
X161694416Y-123302168D01*
X161694417Y-123302169D01*
X161725555Y-123328669D01*
X161843295Y-123428874D01*
X161848673Y-123431880D01*
X161848675Y-123431881D01*
X161931312Y-123478065D01*
X162019329Y-123527256D01*
X162211119Y-123589572D01*
X162411361Y-123613449D01*
X162417496Y-123612977D01*
X162417498Y-123612977D01*
X162606285Y-123598451D01*
X162606290Y-123598450D01*
X162612426Y-123597978D01*
X162618356Y-123596322D01*
X162618358Y-123596322D01*
X162800730Y-123545403D01*
X162800729Y-123545403D01*
X162806658Y-123543748D01*
X162812147Y-123540975D01*
X162812153Y-123540973D01*
X162981161Y-123455600D01*
X162986657Y-123452824D01*
X163017312Y-123428874D01*
X163043202Y-123408646D01*
X163145567Y-123328669D01*
X163149593Y-123324005D01*
X163149596Y-123324002D01*
X163273307Y-123180682D01*
X163273308Y-123180680D01*
X163277336Y-123176014D01*
X163376945Y-123000671D01*
X163440598Y-122809321D01*
X163465873Y-122609251D01*
X163466276Y-122580400D01*
X163446597Y-122379702D01*
X163442331Y-122365570D01*
X163390092Y-122192549D01*
X163388311Y-122186649D01*
X163293638Y-122008594D01*
X163221854Y-121920578D01*
X163170077Y-121857093D01*
X163170074Y-121857090D01*
X163166182Y-121852318D01*
X163159602Y-121846874D01*
X163015549Y-121727703D01*
X163015550Y-121727703D01*
X163010801Y-121723775D01*
X163005384Y-121720846D01*
X163005381Y-121720844D01*
X162838831Y-121630791D01*
X162838826Y-121630789D01*
X162833411Y-121627861D01*
X162640769Y-121568228D01*
X162634644Y-121567584D01*
X162634643Y-121567584D01*
X162446342Y-121547793D01*
X162446341Y-121547793D01*
X162440214Y-121547149D01*
X162356088Y-121554805D01*
X162245522Y-121564867D01*
X162245519Y-121564868D01*
X162239383Y-121565426D01*
X162233477Y-121567164D01*
X162233473Y-121567165D01*
X162051840Y-121620623D01*
X162045928Y-121622363D01*
X162040463Y-121625220D01*
X162035411Y-121627861D01*
X161867216Y-121715792D01*
X161862411Y-121719655D01*
X161862410Y-121719656D01*
X161857287Y-121723775D01*
X161710055Y-121842153D01*
X161580430Y-121996633D01*
X161577467Y-122002022D01*
X161577464Y-122002027D01*
X161497228Y-122147977D01*
X161483280Y-122173349D01*
X161422304Y-122365570D01*
X161399825Y-122565973D01*
X111975587Y-122565973D01*
X109475414Y-120065800D01*
X119406310Y-120065800D01*
X119426185Y-120216767D01*
X119484456Y-120357445D01*
X119577152Y-120478248D01*
X119697955Y-120570944D01*
X119838633Y-120629215D01*
X119989600Y-120649090D01*
X119997788Y-120648012D01*
X120132379Y-120630293D01*
X120140567Y-120629215D01*
X120281245Y-120570944D01*
X120402048Y-120478248D01*
X120494744Y-120357445D01*
X120553015Y-120216767D01*
X120556170Y-120192800D01*
X121006510Y-120192800D01*
X121026385Y-120343767D01*
X121084656Y-120484445D01*
X121177352Y-120605248D01*
X121298155Y-120697944D01*
X121438833Y-120756215D01*
X121447021Y-120757293D01*
X121514316Y-120766152D01*
X121589800Y-120776090D01*
X121597988Y-120775012D01*
X121732579Y-120757293D01*
X121740767Y-120756215D01*
X121881445Y-120697944D01*
X122002248Y-120605248D01*
X122094944Y-120484445D01*
X122153215Y-120343767D01*
X122173090Y-120192800D01*
X122153215Y-120041833D01*
X122149191Y-120032117D01*
X122146646Y-120025973D01*
X161399825Y-120025973D01*
X161416699Y-120226926D01*
X161439825Y-120307577D01*
X161454125Y-120357445D01*
X161472284Y-120420774D01*
X161564463Y-120600134D01*
X161568289Y-120604961D01*
X161685894Y-120753344D01*
X161685899Y-120753349D01*
X161689723Y-120758174D01*
X161694416Y-120762168D01*
X161694417Y-120762169D01*
X161725555Y-120788669D01*
X161843295Y-120888874D01*
X161848673Y-120891880D01*
X161848675Y-120891881D01*
X161931312Y-120938065D01*
X162019329Y-120987256D01*
X162211119Y-121049572D01*
X162411361Y-121073449D01*
X162417496Y-121072977D01*
X162417498Y-121072977D01*
X162606285Y-121058451D01*
X162606290Y-121058450D01*
X162612426Y-121057978D01*
X162618356Y-121056322D01*
X162618358Y-121056322D01*
X162800730Y-121005403D01*
X162800729Y-121005403D01*
X162806658Y-121003748D01*
X162812147Y-121000975D01*
X162812153Y-121000973D01*
X162981161Y-120915600D01*
X162986657Y-120912824D01*
X163017312Y-120888874D01*
X163043202Y-120868646D01*
X163145567Y-120788669D01*
X163149593Y-120784005D01*
X163149596Y-120784002D01*
X163273307Y-120640682D01*
X163273308Y-120640680D01*
X163277336Y-120636014D01*
X163359717Y-120490998D01*
X163373900Y-120466032D01*
X163373902Y-120466028D01*
X163376945Y-120460671D01*
X163413296Y-120351396D01*
X163438653Y-120275169D01*
X163438654Y-120275166D01*
X163440598Y-120269321D01*
X163465873Y-120069251D01*
X163466276Y-120040400D01*
X163446597Y-119839702D01*
X163442331Y-119825570D01*
X163400692Y-119687656D01*
X163388311Y-119646649D01*
X163293638Y-119468594D01*
X163221854Y-119380578D01*
X163170077Y-119317093D01*
X163170074Y-119317090D01*
X163166182Y-119312318D01*
X163159602Y-119306874D01*
X163015549Y-119187703D01*
X163015550Y-119187703D01*
X163010801Y-119183775D01*
X163005384Y-119180846D01*
X163005381Y-119180844D01*
X162838831Y-119090791D01*
X162838826Y-119090789D01*
X162833411Y-119087861D01*
X162640769Y-119028228D01*
X162634644Y-119027584D01*
X162634643Y-119027584D01*
X162446342Y-119007793D01*
X162446341Y-119007793D01*
X162440214Y-119007149D01*
X162356088Y-119014805D01*
X162245522Y-119024867D01*
X162245519Y-119024868D01*
X162239383Y-119025426D01*
X162233477Y-119027164D01*
X162233473Y-119027165D01*
X162051840Y-119080623D01*
X162045928Y-119082363D01*
X162040463Y-119085220D01*
X162035411Y-119087861D01*
X161867216Y-119175792D01*
X161862411Y-119179655D01*
X161862410Y-119179656D01*
X161857287Y-119183775D01*
X161710055Y-119302153D01*
X161580430Y-119456633D01*
X161577467Y-119462022D01*
X161577464Y-119462027D01*
X161510741Y-119583398D01*
X161483280Y-119633349D01*
X161481419Y-119639216D01*
X161481418Y-119639218D01*
X161438614Y-119774155D01*
X161422304Y-119825570D01*
X161399825Y-120025973D01*
X122146646Y-120025973D01*
X122104001Y-119923021D01*
X122094944Y-119901155D01*
X122002248Y-119780352D01*
X121881445Y-119687656D01*
X121740767Y-119629385D01*
X121729898Y-119627954D01*
X121597988Y-119610588D01*
X121589800Y-119609510D01*
X121581612Y-119610588D01*
X121449703Y-119627954D01*
X121438833Y-119629385D01*
X121298155Y-119687656D01*
X121177352Y-119780352D01*
X121084656Y-119901155D01*
X121075599Y-119923021D01*
X121030410Y-120032117D01*
X121026385Y-120041833D01*
X121006510Y-120192800D01*
X120556170Y-120192800D01*
X120572890Y-120065800D01*
X120553015Y-119914833D01*
X120494744Y-119774155D01*
X120402048Y-119653352D01*
X120281245Y-119560656D01*
X120140567Y-119502385D01*
X119989600Y-119482510D01*
X119838633Y-119502385D01*
X119697955Y-119560656D01*
X119577152Y-119653352D01*
X119484456Y-119774155D01*
X119426185Y-119914833D01*
X119406310Y-120065800D01*
X109475414Y-120065800D01*
X109029305Y-119619691D01*
X108995279Y-119557379D01*
X108992400Y-119530596D01*
X108992400Y-118745000D01*
X139091310Y-118745000D01*
X139111185Y-118895967D01*
X139169456Y-119036645D01*
X139262152Y-119157448D01*
X139382955Y-119250144D01*
X139523633Y-119308415D01*
X139531821Y-119309493D01*
X139589550Y-119317093D01*
X139674600Y-119328290D01*
X139682788Y-119327212D01*
X139817379Y-119309493D01*
X139825567Y-119308415D01*
X139966245Y-119250144D01*
X140087048Y-119157448D01*
X140179744Y-119036645D01*
X140238015Y-118895967D01*
X140257890Y-118745000D01*
X140238015Y-118594033D01*
X140179744Y-118453355D01*
X140087048Y-118332552D01*
X139966245Y-118239856D01*
X139825567Y-118181585D01*
X139674600Y-118161710D01*
X139523633Y-118181585D01*
X139382955Y-118239856D01*
X139262152Y-118332552D01*
X139169456Y-118453355D01*
X139111185Y-118594033D01*
X139091310Y-118745000D01*
X108992400Y-118745000D01*
X108992400Y-117703600D01*
X130785510Y-117703600D01*
X130805385Y-117854567D01*
X130863656Y-117995245D01*
X130956352Y-118116048D01*
X131077155Y-118208744D01*
X131217833Y-118267015D01*
X131368800Y-118286890D01*
X131376988Y-118285812D01*
X131511579Y-118268093D01*
X131519767Y-118267015D01*
X131660445Y-118208744D01*
X131781248Y-118116048D01*
X131873944Y-117995245D01*
X131932215Y-117854567D01*
X131952090Y-117703600D01*
X131932215Y-117552633D01*
X131904603Y-117485973D01*
X161399825Y-117485973D01*
X161416699Y-117686926D01*
X161439825Y-117767577D01*
X161466957Y-117862196D01*
X161472284Y-117880774D01*
X161564463Y-118060134D01*
X161568289Y-118064961D01*
X161685894Y-118213344D01*
X161685899Y-118213349D01*
X161689723Y-118218174D01*
X161694416Y-118222168D01*
X161694417Y-118222169D01*
X161824117Y-118332552D01*
X161843295Y-118348874D01*
X161848673Y-118351880D01*
X161848675Y-118351881D01*
X161931312Y-118398065D01*
X162019329Y-118447256D01*
X162211119Y-118509572D01*
X162411361Y-118533449D01*
X162417496Y-118532977D01*
X162417498Y-118532977D01*
X162606285Y-118518451D01*
X162606290Y-118518450D01*
X162612426Y-118517978D01*
X162618356Y-118516322D01*
X162618358Y-118516322D01*
X162800730Y-118465403D01*
X162800729Y-118465403D01*
X162806658Y-118463748D01*
X162812147Y-118460975D01*
X162812153Y-118460973D01*
X162981161Y-118375600D01*
X162986657Y-118372824D01*
X163017312Y-118348874D01*
X163044635Y-118327526D01*
X163145567Y-118248669D01*
X163149593Y-118244005D01*
X163149596Y-118244002D01*
X163273307Y-118100682D01*
X163273308Y-118100680D01*
X163277336Y-118096014D01*
X163334581Y-117995245D01*
X163373900Y-117926032D01*
X163373902Y-117926028D01*
X163376945Y-117920671D01*
X163440598Y-117729321D01*
X163465873Y-117529251D01*
X163466276Y-117500400D01*
X163446597Y-117299702D01*
X163442331Y-117285570D01*
X163398436Y-117140185D01*
X163388311Y-117106649D01*
X163293638Y-116928594D01*
X163180199Y-116789504D01*
X163170077Y-116777093D01*
X163170074Y-116777090D01*
X163166182Y-116772318D01*
X163159602Y-116766874D01*
X163015549Y-116647703D01*
X163015550Y-116647703D01*
X163010801Y-116643775D01*
X163005384Y-116640846D01*
X163005381Y-116640844D01*
X162838831Y-116550791D01*
X162838826Y-116550789D01*
X162833411Y-116547861D01*
X162640769Y-116488228D01*
X162634644Y-116487584D01*
X162634643Y-116487584D01*
X162446342Y-116467793D01*
X162446341Y-116467793D01*
X162440214Y-116467149D01*
X162356088Y-116474805D01*
X162245522Y-116484867D01*
X162245519Y-116484868D01*
X162239383Y-116485426D01*
X162233477Y-116487164D01*
X162233473Y-116487165D01*
X162051840Y-116540623D01*
X162045928Y-116542363D01*
X162040463Y-116545220D01*
X162035411Y-116547861D01*
X161867216Y-116635792D01*
X161862411Y-116639655D01*
X161862410Y-116639656D01*
X161857287Y-116643775D01*
X161710055Y-116762153D01*
X161580430Y-116916633D01*
X161577467Y-116922022D01*
X161577464Y-116922027D01*
X161497228Y-117067977D01*
X161483280Y-117093349D01*
X161481419Y-117099216D01*
X161481418Y-117099218D01*
X161449938Y-117198456D01*
X161422304Y-117285570D01*
X161399825Y-117485973D01*
X131904603Y-117485973D01*
X131873944Y-117411955D01*
X131781248Y-117291152D01*
X131660445Y-117198456D01*
X131519767Y-117140185D01*
X131368800Y-117120310D01*
X131217833Y-117140185D01*
X131077155Y-117198456D01*
X130956352Y-117291152D01*
X130863656Y-117411955D01*
X130805385Y-117552633D01*
X130785510Y-117703600D01*
X108992400Y-117703600D01*
X108992400Y-116281200D01*
X128804310Y-116281200D01*
X128824185Y-116432167D01*
X128882456Y-116572845D01*
X128975152Y-116693648D01*
X129095955Y-116786344D01*
X129236633Y-116844615D01*
X129387600Y-116864490D01*
X129395788Y-116863412D01*
X129530379Y-116845693D01*
X129538567Y-116844615D01*
X129679245Y-116786344D01*
X129800048Y-116693648D01*
X129892744Y-116572845D01*
X129951015Y-116432167D01*
X129970890Y-116281200D01*
X129951015Y-116130233D01*
X129892744Y-115989555D01*
X129800048Y-115868752D01*
X129679245Y-115776056D01*
X129538567Y-115717785D01*
X129387600Y-115697910D01*
X129236633Y-115717785D01*
X129095955Y-115776056D01*
X128975152Y-115868752D01*
X128882456Y-115989555D01*
X128824185Y-116130233D01*
X128804310Y-116281200D01*
X108992400Y-116281200D01*
X108992400Y-115062000D01*
X154735718Y-115062000D01*
X154735800Y-115062198D01*
X154736035Y-115062765D01*
X154736800Y-115063082D01*
X154736998Y-115063000D01*
X160375402Y-115063000D01*
X160375600Y-115063082D01*
X160376365Y-115062765D01*
X160376600Y-115062198D01*
X160376682Y-115062000D01*
X160376600Y-115061802D01*
X160376600Y-114092839D01*
X161404700Y-114092839D01*
X161404701Y-115827960D01*
X161415045Y-115879969D01*
X161454453Y-115938947D01*
X161513431Y-115978355D01*
X161565439Y-115988700D01*
X162432719Y-115988700D01*
X163300560Y-115988699D01*
X163352569Y-115978355D01*
X163411547Y-115938947D01*
X163450955Y-115879969D01*
X163461300Y-115827961D01*
X163461299Y-114092840D01*
X163450955Y-114040831D01*
X163411547Y-113981853D01*
X163352569Y-113942445D01*
X163300561Y-113932100D01*
X162433281Y-113932100D01*
X161565440Y-113932101D01*
X161559372Y-113933308D01*
X161559371Y-113933308D01*
X161544663Y-113936233D01*
X161513431Y-113942445D01*
X161454453Y-113981853D01*
X161415045Y-114040831D01*
X161404700Y-114092839D01*
X160376600Y-114092839D01*
X160376600Y-100584198D01*
X160376682Y-100584000D01*
X160376365Y-100583235D01*
X160375798Y-100583000D01*
X160375600Y-100582918D01*
X160375402Y-100583000D01*
X154736998Y-100583000D01*
X154736800Y-100582918D01*
X154736602Y-100583000D01*
X154736035Y-100583235D01*
X154735718Y-100584000D01*
X154735800Y-100584198D01*
X154735800Y-115061802D01*
X154735718Y-115062000D01*
X108992400Y-115062000D01*
X108992400Y-113207932D01*
X128039184Y-113207932D01*
X128056058Y-113408885D01*
X128111643Y-113602733D01*
X128203822Y-113782093D01*
X128207648Y-113786920D01*
X128325253Y-113935303D01*
X128325258Y-113935308D01*
X128329082Y-113940133D01*
X128333775Y-113944127D01*
X128333776Y-113944128D01*
X128435275Y-114030510D01*
X128482654Y-114070833D01*
X128488032Y-114073839D01*
X128488034Y-114073840D01*
X128533099Y-114099026D01*
X128658688Y-114169215D01*
X128850478Y-114231531D01*
X129050720Y-114255408D01*
X129056855Y-114254936D01*
X129056857Y-114254936D01*
X129245644Y-114240410D01*
X129245649Y-114240409D01*
X129251785Y-114239937D01*
X129257715Y-114238281D01*
X129257717Y-114238281D01*
X129440089Y-114187362D01*
X129440088Y-114187362D01*
X129446017Y-114185707D01*
X129451506Y-114182934D01*
X129451512Y-114182932D01*
X129620520Y-114097559D01*
X129626016Y-114094783D01*
X129656671Y-114070833D01*
X129695071Y-114040831D01*
X129784926Y-113970628D01*
X129788952Y-113965964D01*
X129788955Y-113965961D01*
X129912666Y-113822641D01*
X129912667Y-113822639D01*
X129916695Y-113817973D01*
X130016304Y-113642630D01*
X130079957Y-113451280D01*
X130105232Y-113251210D01*
X130105635Y-113222359D01*
X130085956Y-113021661D01*
X130081690Y-113007529D01*
X130029451Y-112834508D01*
X130027670Y-112828608D01*
X129932997Y-112650553D01*
X129861213Y-112562537D01*
X129809436Y-112499052D01*
X129809433Y-112499049D01*
X129805541Y-112494277D01*
X129798961Y-112488833D01*
X129654908Y-112369662D01*
X129654909Y-112369662D01*
X129650160Y-112365734D01*
X129644743Y-112362805D01*
X129644740Y-112362803D01*
X129478190Y-112272750D01*
X129478185Y-112272748D01*
X129472770Y-112269820D01*
X129280128Y-112210187D01*
X129274003Y-112209543D01*
X129274002Y-112209543D01*
X129085701Y-112189752D01*
X129085700Y-112189752D01*
X129079573Y-112189108D01*
X128995447Y-112196764D01*
X128884881Y-112206826D01*
X128884878Y-112206827D01*
X128878742Y-112207385D01*
X128872836Y-112209123D01*
X128872832Y-112209124D01*
X128691199Y-112262582D01*
X128685287Y-112264322D01*
X128679822Y-112267179D01*
X128674770Y-112269820D01*
X128506575Y-112357751D01*
X128501770Y-112361614D01*
X128501769Y-112361615D01*
X128464836Y-112391310D01*
X128349414Y-112484112D01*
X128219789Y-112638592D01*
X128216826Y-112643981D01*
X128216823Y-112643986D01*
X128136587Y-112789936D01*
X128122639Y-112815308D01*
X128061663Y-113007529D01*
X128039184Y-113207932D01*
X108992400Y-113207932D01*
X108992400Y-111411880D01*
X126243132Y-111411880D01*
X126260006Y-111612833D01*
X126283132Y-111693484D01*
X126311837Y-111793588D01*
X126315591Y-111806681D01*
X126407770Y-111986041D01*
X126411596Y-111990868D01*
X126529201Y-112139251D01*
X126529206Y-112139256D01*
X126533030Y-112144081D01*
X126537723Y-112148075D01*
X126537724Y-112148076D01*
X126677670Y-112267179D01*
X126686602Y-112274781D01*
X126691980Y-112277787D01*
X126691982Y-112277788D01*
X126774619Y-112323972D01*
X126862636Y-112373163D01*
X127054426Y-112435479D01*
X127254668Y-112459356D01*
X127260803Y-112458884D01*
X127260805Y-112458884D01*
X127449592Y-112444358D01*
X127449597Y-112444357D01*
X127455733Y-112443885D01*
X127461663Y-112442229D01*
X127461665Y-112442229D01*
X127644037Y-112391310D01*
X127644036Y-112391310D01*
X127649965Y-112389655D01*
X127655454Y-112386882D01*
X127655460Y-112386880D01*
X127824468Y-112301507D01*
X127829964Y-112298731D01*
X127836399Y-112293704D01*
X127943294Y-112210187D01*
X127988874Y-112174576D01*
X127992900Y-112169912D01*
X127992903Y-112169909D01*
X128116614Y-112026589D01*
X128116615Y-112026587D01*
X128120643Y-112021921D01*
X128220252Y-111846578D01*
X128240603Y-111785400D01*
X141809110Y-111785400D01*
X141828985Y-111936367D01*
X141887256Y-112077045D01*
X141979952Y-112197848D01*
X142100755Y-112290544D01*
X142241433Y-112348815D01*
X142249621Y-112349893D01*
X142309309Y-112357751D01*
X142392400Y-112368690D01*
X142400588Y-112367612D01*
X142437117Y-112362803D01*
X142475491Y-112357751D01*
X142535179Y-112349893D01*
X142543367Y-112348815D01*
X142684045Y-112290544D01*
X142804848Y-112197848D01*
X142897544Y-112077045D01*
X142955815Y-111936367D01*
X142975690Y-111785400D01*
X142955815Y-111634433D01*
X142897544Y-111493755D01*
X142804848Y-111372952D01*
X142684045Y-111280256D01*
X142543367Y-111221985D01*
X142392400Y-111202110D01*
X142241433Y-111221985D01*
X142100755Y-111280256D01*
X141979952Y-111372952D01*
X141887256Y-111493755D01*
X141828985Y-111634433D01*
X141809110Y-111785400D01*
X128240603Y-111785400D01*
X128283905Y-111655228D01*
X128309180Y-111455158D01*
X128309583Y-111426307D01*
X128289904Y-111225609D01*
X128285638Y-111211477D01*
X128233399Y-111038456D01*
X128231618Y-111032556D01*
X128136945Y-110854501D01*
X128129686Y-110845600D01*
X134392310Y-110845600D01*
X134412185Y-110996567D01*
X134470456Y-111137245D01*
X134563152Y-111258048D01*
X134683955Y-111350744D01*
X134824633Y-111409015D01*
X134975600Y-111428890D01*
X134983788Y-111427812D01*
X135118379Y-111410093D01*
X135126567Y-111409015D01*
X135267245Y-111350744D01*
X135388048Y-111258048D01*
X135480744Y-111137245D01*
X135539015Y-110996567D01*
X135558890Y-110845600D01*
X135539015Y-110694633D01*
X135480744Y-110553955D01*
X135388048Y-110433152D01*
X135339309Y-110395753D01*
X135297442Y-110338414D01*
X135293221Y-110267543D01*
X135327986Y-110205640D01*
X135390699Y-110172360D01*
X135432457Y-110170869D01*
X135534400Y-110184290D01*
X135542588Y-110183212D01*
X135677179Y-110165493D01*
X135685367Y-110164415D01*
X135826045Y-110106144D01*
X135946848Y-110013448D01*
X136039544Y-109892645D01*
X136097815Y-109751967D01*
X136117690Y-109601000D01*
X136097815Y-109450033D01*
X136039544Y-109309355D01*
X135946848Y-109188552D01*
X135826045Y-109095856D01*
X135685367Y-109037585D01*
X135534400Y-109017710D01*
X135383433Y-109037585D01*
X135242755Y-109095856D01*
X135121952Y-109188552D01*
X135029256Y-109309355D01*
X134970985Y-109450033D01*
X134951110Y-109601000D01*
X134970985Y-109751967D01*
X135029256Y-109892645D01*
X135121952Y-110013448D01*
X135162653Y-110044679D01*
X135170691Y-110050847D01*
X135212558Y-110108186D01*
X135216779Y-110179057D01*
X135182014Y-110240960D01*
X135119301Y-110274240D01*
X135077543Y-110275731D01*
X134975600Y-110262310D01*
X134824633Y-110282185D01*
X134683955Y-110340456D01*
X134563152Y-110433152D01*
X134470456Y-110553955D01*
X134412185Y-110694633D01*
X134392310Y-110845600D01*
X128129686Y-110845600D01*
X128065161Y-110766485D01*
X128013384Y-110703000D01*
X128013381Y-110702997D01*
X128009489Y-110698225D01*
X128002909Y-110692781D01*
X127858856Y-110573610D01*
X127858857Y-110573610D01*
X127854108Y-110569682D01*
X127848691Y-110566753D01*
X127848688Y-110566751D01*
X127682138Y-110476698D01*
X127682133Y-110476696D01*
X127676718Y-110473768D01*
X127484076Y-110414135D01*
X127477951Y-110413491D01*
X127477950Y-110413491D01*
X127289649Y-110393700D01*
X127289648Y-110393700D01*
X127283521Y-110393056D01*
X127199395Y-110400712D01*
X127088829Y-110410774D01*
X127088826Y-110410775D01*
X127082690Y-110411333D01*
X127076784Y-110413071D01*
X127076780Y-110413072D01*
X126895147Y-110466530D01*
X126889235Y-110468270D01*
X126883770Y-110471127D01*
X126878718Y-110473768D01*
X126710523Y-110561699D01*
X126705718Y-110565562D01*
X126705717Y-110565563D01*
X126700594Y-110569682D01*
X126553362Y-110688060D01*
X126423737Y-110842540D01*
X126420774Y-110847929D01*
X126420771Y-110847934D01*
X126343562Y-110988379D01*
X126326587Y-111019256D01*
X126265611Y-111211477D01*
X126243132Y-111411880D01*
X108992400Y-111411880D01*
X108992400Y-109615829D01*
X124447081Y-109615829D01*
X124463955Y-109816782D01*
X124519540Y-110010630D01*
X124522359Y-110016115D01*
X124608790Y-110184290D01*
X124611719Y-110189990D01*
X124615545Y-110194817D01*
X124733150Y-110343200D01*
X124733155Y-110343205D01*
X124736979Y-110348030D01*
X124741672Y-110352024D01*
X124741673Y-110352025D01*
X124884721Y-110473768D01*
X124890551Y-110478730D01*
X124895929Y-110481736D01*
X124895931Y-110481737D01*
X124978568Y-110527921D01*
X125066585Y-110577112D01*
X125258375Y-110639428D01*
X125458617Y-110663305D01*
X125464752Y-110662833D01*
X125464754Y-110662833D01*
X125653541Y-110648307D01*
X125653546Y-110648306D01*
X125659682Y-110647834D01*
X125665612Y-110646178D01*
X125665614Y-110646178D01*
X125847986Y-110595259D01*
X125847985Y-110595259D01*
X125853914Y-110593604D01*
X125859403Y-110590831D01*
X125859409Y-110590829D01*
X126028417Y-110505456D01*
X126033913Y-110502680D01*
X126064568Y-110478730D01*
X126090458Y-110458502D01*
X126192823Y-110378525D01*
X126196849Y-110373861D01*
X126196852Y-110373858D01*
X126320563Y-110230538D01*
X126320564Y-110230536D01*
X126324592Y-110225870D01*
X126424201Y-110050527D01*
X126487854Y-109859177D01*
X126513129Y-109659107D01*
X126513532Y-109630256D01*
X126493853Y-109429558D01*
X126489587Y-109415426D01*
X126437348Y-109242405D01*
X126435567Y-109236505D01*
X126340894Y-109058450D01*
X126269110Y-108970434D01*
X126217333Y-108906949D01*
X126217330Y-108906946D01*
X126213438Y-108902174D01*
X126206858Y-108896730D01*
X126062805Y-108777559D01*
X126062806Y-108777559D01*
X126058057Y-108773631D01*
X126052640Y-108770702D01*
X126052637Y-108770700D01*
X125886087Y-108680647D01*
X125886082Y-108680645D01*
X125880667Y-108677717D01*
X125688025Y-108618084D01*
X125681900Y-108617440D01*
X125681899Y-108617440D01*
X125493598Y-108597649D01*
X125493597Y-108597649D01*
X125487470Y-108597005D01*
X125403344Y-108604661D01*
X125292778Y-108614723D01*
X125292775Y-108614724D01*
X125286639Y-108615282D01*
X125280733Y-108617020D01*
X125280729Y-108617021D01*
X125099096Y-108670479D01*
X125093184Y-108672219D01*
X125087719Y-108675076D01*
X125082667Y-108677717D01*
X124914472Y-108765648D01*
X124909667Y-108769511D01*
X124909666Y-108769512D01*
X124904543Y-108773631D01*
X124757311Y-108892009D01*
X124627686Y-109046489D01*
X124624723Y-109051878D01*
X124624720Y-109051883D01*
X124552350Y-109183526D01*
X124530536Y-109223205D01*
X124528675Y-109229072D01*
X124528674Y-109229074D01*
X124500787Y-109316985D01*
X124469560Y-109415426D01*
X124447081Y-109615829D01*
X108992400Y-109615829D01*
X108992400Y-107819778D01*
X122651030Y-107819778D01*
X122667904Y-108020731D01*
X122723489Y-108214579D01*
X122815668Y-108393939D01*
X122819494Y-108398766D01*
X122937099Y-108547149D01*
X122937104Y-108547154D01*
X122940928Y-108551979D01*
X122945621Y-108555973D01*
X122945622Y-108555974D01*
X123088670Y-108677717D01*
X123094500Y-108682679D01*
X123099878Y-108685685D01*
X123099880Y-108685686D01*
X123182517Y-108731870D01*
X123270534Y-108781061D01*
X123462324Y-108843377D01*
X123662566Y-108867254D01*
X123668701Y-108866782D01*
X123668703Y-108866782D01*
X123857490Y-108852256D01*
X123857495Y-108852255D01*
X123863631Y-108851783D01*
X123869561Y-108850127D01*
X123869563Y-108850127D01*
X124051935Y-108799208D01*
X124051934Y-108799208D01*
X124057863Y-108797553D01*
X124063352Y-108794780D01*
X124063358Y-108794778D01*
X124232366Y-108709405D01*
X124237862Y-108706629D01*
X124268517Y-108682679D01*
X124294407Y-108662451D01*
X124396772Y-108582474D01*
X124400798Y-108577810D01*
X124400801Y-108577807D01*
X124524512Y-108434487D01*
X124524513Y-108434485D01*
X124528541Y-108429819D01*
X124628150Y-108254476D01*
X124691803Y-108063126D01*
X124717078Y-107863056D01*
X124717481Y-107834205D01*
X124697802Y-107633507D01*
X124693536Y-107619375D01*
X124644214Y-107456014D01*
X124639516Y-107440454D01*
X124544843Y-107262399D01*
X124473059Y-107174383D01*
X124421282Y-107110898D01*
X124421279Y-107110895D01*
X124417387Y-107106123D01*
X124410807Y-107100679D01*
X124266754Y-106981508D01*
X124266755Y-106981508D01*
X124262006Y-106977580D01*
X124256589Y-106974651D01*
X124256586Y-106974649D01*
X124090036Y-106884596D01*
X124090031Y-106884594D01*
X124084616Y-106881666D01*
X123891974Y-106822033D01*
X123885849Y-106821389D01*
X123885848Y-106821389D01*
X123697547Y-106801598D01*
X123697546Y-106801598D01*
X123691419Y-106800954D01*
X123607293Y-106808610D01*
X123496727Y-106818672D01*
X123496724Y-106818673D01*
X123490588Y-106819231D01*
X123484682Y-106820969D01*
X123484678Y-106820970D01*
X123359542Y-106857800D01*
X123297133Y-106876168D01*
X123291668Y-106879025D01*
X123286616Y-106881666D01*
X123118421Y-106969597D01*
X123113616Y-106973460D01*
X123113615Y-106973461D01*
X123108492Y-106977580D01*
X122961260Y-107095958D01*
X122831635Y-107250438D01*
X122828672Y-107255827D01*
X122828669Y-107255832D01*
X122781628Y-107341400D01*
X122734485Y-107427154D01*
X122673509Y-107619375D01*
X122651030Y-107819778D01*
X108992400Y-107819778D01*
X108992400Y-106023727D01*
X120854979Y-106023727D01*
X120871853Y-106224680D01*
X120894979Y-106305331D01*
X120907731Y-106349800D01*
X120927438Y-106418528D01*
X121019617Y-106597888D01*
X121023443Y-106602715D01*
X121141048Y-106751098D01*
X121141053Y-106751103D01*
X121144877Y-106755928D01*
X121149570Y-106759922D01*
X121149571Y-106759923D01*
X121292619Y-106881666D01*
X121298449Y-106886628D01*
X121303827Y-106889634D01*
X121303829Y-106889635D01*
X121350430Y-106915679D01*
X121474483Y-106985010D01*
X121666273Y-107047326D01*
X121866515Y-107071203D01*
X121872650Y-107070731D01*
X121872652Y-107070731D01*
X122061439Y-107056205D01*
X122061444Y-107056204D01*
X122067580Y-107055732D01*
X122073510Y-107054076D01*
X122073512Y-107054076D01*
X122255884Y-107003157D01*
X122255883Y-107003157D01*
X122261812Y-107001502D01*
X122267301Y-106998729D01*
X122267307Y-106998727D01*
X122395769Y-106933835D01*
X122441811Y-106910578D01*
X122472466Y-106886628D01*
X122509363Y-106857800D01*
X122600721Y-106786423D01*
X122604747Y-106781759D01*
X122604750Y-106781756D01*
X122728461Y-106638436D01*
X122728462Y-106638434D01*
X122732490Y-106633768D01*
X122832099Y-106458425D01*
X122895752Y-106267075D01*
X122921027Y-106067005D01*
X122921430Y-106038154D01*
X122901751Y-105837456D01*
X122897485Y-105823324D01*
X122845246Y-105650303D01*
X122843465Y-105644403D01*
X122748792Y-105466348D01*
X122635635Y-105327604D01*
X122625231Y-105314847D01*
X122625228Y-105314844D01*
X122621336Y-105310072D01*
X122614756Y-105304628D01*
X122470703Y-105185457D01*
X122470704Y-105185457D01*
X122465955Y-105181529D01*
X122460538Y-105178600D01*
X122460535Y-105178598D01*
X122293985Y-105088545D01*
X122293980Y-105088543D01*
X122288565Y-105085615D01*
X122095923Y-105025982D01*
X122089798Y-105025338D01*
X122089797Y-105025338D01*
X121901496Y-105005547D01*
X121901495Y-105005547D01*
X121895368Y-105004903D01*
X121811242Y-105012559D01*
X121700676Y-105022621D01*
X121700673Y-105022622D01*
X121694537Y-105023180D01*
X121688631Y-105024918D01*
X121688627Y-105024919D01*
X121539785Y-105068726D01*
X121501082Y-105080117D01*
X121495617Y-105082974D01*
X121490565Y-105085615D01*
X121322370Y-105173546D01*
X121317565Y-105177409D01*
X121317564Y-105177410D01*
X121280631Y-105207105D01*
X121165209Y-105299907D01*
X121035584Y-105454387D01*
X121032621Y-105459776D01*
X121032618Y-105459781D01*
X121013593Y-105494388D01*
X120938434Y-105631103D01*
X120877458Y-105823324D01*
X120854979Y-106023727D01*
X108992400Y-106023727D01*
X108992400Y-103570904D01*
X117536028Y-103570904D01*
X117541309Y-103577958D01*
X117702807Y-103672330D01*
X117712093Y-103676780D01*
X117911052Y-103752754D01*
X117920950Y-103755630D01*
X118129646Y-103798089D01*
X118139874Y-103799308D01*
X118352701Y-103807113D01*
X118362987Y-103806646D01*
X118574236Y-103779585D01*
X118584313Y-103777443D01*
X118788306Y-103716242D01*
X118797893Y-103712484D01*
X118989142Y-103618792D01*
X118995579Y-103614955D01*
X119064334Y-103597256D01*
X119131743Y-103619539D01*
X119176405Y-103674728D01*
X119184139Y-103745303D01*
X119170510Y-103783886D01*
X119142382Y-103835051D01*
X119140521Y-103840918D01*
X119140520Y-103840920D01*
X119084469Y-104017615D01*
X119081406Y-104027272D01*
X119058927Y-104227675D01*
X119075801Y-104428628D01*
X119131386Y-104622476D01*
X119223565Y-104801836D01*
X119227391Y-104806663D01*
X119344996Y-104955046D01*
X119345001Y-104955051D01*
X119348825Y-104959876D01*
X119353518Y-104963870D01*
X119353519Y-104963871D01*
X119493465Y-105082974D01*
X119502397Y-105090576D01*
X119507775Y-105093582D01*
X119507777Y-105093583D01*
X119590414Y-105139767D01*
X119678431Y-105188958D01*
X119870221Y-105251274D01*
X120070463Y-105275151D01*
X120076598Y-105274679D01*
X120076600Y-105274679D01*
X120265387Y-105260153D01*
X120265392Y-105260152D01*
X120271528Y-105259680D01*
X120277458Y-105258024D01*
X120277460Y-105258024D01*
X120459832Y-105207105D01*
X120459831Y-105207105D01*
X120465760Y-105205450D01*
X120471249Y-105202677D01*
X120471255Y-105202675D01*
X120640263Y-105117302D01*
X120645759Y-105114526D01*
X120676414Y-105090576D01*
X120759089Y-105025982D01*
X120804669Y-104990371D01*
X120808695Y-104985707D01*
X120808698Y-104985704D01*
X120932409Y-104842384D01*
X120932410Y-104842382D01*
X120936438Y-104837716D01*
X121036047Y-104662373D01*
X121099700Y-104471023D01*
X121124975Y-104270953D01*
X121125378Y-104242102D01*
X121105699Y-104041404D01*
X121101433Y-104027272D01*
X121068701Y-103918862D01*
X121047413Y-103848351D01*
X120952740Y-103670296D01*
X120877431Y-103577958D01*
X120829179Y-103518795D01*
X120829176Y-103518792D01*
X120825284Y-103514020D01*
X120669903Y-103385477D01*
X120664486Y-103382548D01*
X120664483Y-103382546D01*
X120497933Y-103292493D01*
X120497928Y-103292491D01*
X120492513Y-103289563D01*
X120299871Y-103229930D01*
X120293746Y-103229286D01*
X120293745Y-103229286D01*
X120105444Y-103209495D01*
X120105443Y-103209495D01*
X120099316Y-103208851D01*
X120015190Y-103216507D01*
X119904624Y-103226569D01*
X119904621Y-103226570D01*
X119898485Y-103227128D01*
X119892579Y-103228866D01*
X119892575Y-103228867D01*
X119810474Y-103253031D01*
X119705030Y-103284065D01*
X119637604Y-103319315D01*
X119630932Y-103322803D01*
X119561297Y-103336637D01*
X119495236Y-103310627D01*
X119453724Y-103253031D01*
X119449941Y-103182135D01*
X119464555Y-103146244D01*
X119466367Y-103143228D01*
X119560721Y-102952318D01*
X119564520Y-102942723D01*
X119626427Y-102738966D01*
X119628606Y-102728885D01*
X119656641Y-102515938D01*
X119657160Y-102509263D01*
X119658623Y-102449415D01*
X119658429Y-102442697D01*
X119640832Y-102228655D01*
X119639147Y-102218475D01*
X119587265Y-102011926D01*
X119583945Y-102002175D01*
X119499023Y-101806865D01*
X119494156Y-101797790D01*
X119429114Y-101697248D01*
X119418428Y-101688046D01*
X119408863Y-101692449D01*
X117542788Y-103558524D01*
X117536028Y-103570904D01*
X108992400Y-103570904D01*
X108992400Y-100650000D01*
X115116126Y-100650000D01*
X115129964Y-100719569D01*
X115136856Y-100729884D01*
X115136857Y-100729886D01*
X115155985Y-100758513D01*
X115159424Y-100763660D01*
X116386340Y-101990575D01*
X116430431Y-102020036D01*
X116500000Y-102033874D01*
X116512171Y-102031453D01*
X116557399Y-102022457D01*
X116557400Y-102022456D01*
X116569569Y-102020036D01*
X116579884Y-102013144D01*
X116579886Y-102013143D01*
X116608515Y-101994014D01*
X116608517Y-101994012D01*
X116613660Y-101990576D01*
X116851057Y-101753179D01*
X116913369Y-101719153D01*
X116984184Y-101724218D01*
X117041020Y-101766765D01*
X117065831Y-101833285D01*
X117054440Y-101895325D01*
X117019388Y-101970839D01*
X117015826Y-101980521D01*
X116958915Y-102185732D01*
X116956984Y-102195851D01*
X116934353Y-102407625D01*
X116934101Y-102417914D01*
X116946360Y-102630528D01*
X116947796Y-102640748D01*
X116994616Y-102848497D01*
X116997696Y-102858326D01*
X117077821Y-103055654D01*
X117082464Y-103064845D01*
X117162511Y-103195471D01*
X117172967Y-103204931D01*
X117181745Y-103201147D01*
X119049440Y-101333452D01*
X119056461Y-101320595D01*
X119049662Y-101311264D01*
X119045605Y-101308569D01*
X118859168Y-101205650D01*
X118849756Y-101201420D01*
X118649010Y-101130331D01*
X118639040Y-101127697D01*
X118429378Y-101090352D01*
X118419124Y-101089382D01*
X118206167Y-101086779D01*
X118195883Y-101087499D01*
X117985372Y-101119712D01*
X117975344Y-101122101D01*
X117772919Y-101188263D01*
X117763419Y-101192256D01*
X117756523Y-101195846D01*
X117686863Y-101209558D01*
X117620848Y-101183433D01*
X117579437Y-101125764D01*
X117575778Y-101054862D01*
X117609248Y-100994987D01*
X117840575Y-100763660D01*
X117870036Y-100719569D01*
X117883874Y-100650000D01*
X117879741Y-100629223D01*
X117872457Y-100592601D01*
X117872456Y-100592600D01*
X117870036Y-100580431D01*
X117863142Y-100570112D01*
X117844014Y-100541485D01*
X117844012Y-100541483D01*
X117840576Y-100536340D01*
X116613660Y-99309425D01*
X116569569Y-99279964D01*
X116500000Y-99266126D01*
X116487829Y-99268547D01*
X116442601Y-99277543D01*
X116442600Y-99277544D01*
X116430431Y-99279964D01*
X116420116Y-99286856D01*
X116420114Y-99286857D01*
X116391485Y-99305986D01*
X116386340Y-99309424D01*
X115159425Y-100536340D01*
X115129964Y-100580431D01*
X115116126Y-100650000D01*
X108992400Y-100650000D01*
X108992400Y-94261204D01*
X109012402Y-94193083D01*
X109029305Y-94172109D01*
X114922679Y-88278735D01*
X114984991Y-88244709D01*
X115055806Y-88249774D01*
X115100999Y-88278865D01*
X123436942Y-96639470D01*
X123559627Y-96762518D01*
X123593560Y-96824881D01*
X123596400Y-96851482D01*
X123596400Y-103911400D01*
X123603910Y-103918862D01*
X127545948Y-107835631D01*
X127545949Y-107835632D01*
X127558800Y-107848400D01*
X134162800Y-107848400D01*
X134162800Y-106983800D01*
X134182802Y-106915679D01*
X134236458Y-106869186D01*
X134288800Y-106857800D01*
X144246600Y-106857800D01*
X144246600Y-106349800D01*
X133832600Y-106349800D01*
X133832600Y-107341400D01*
X133812598Y-107409521D01*
X133758942Y-107456014D01*
X133706600Y-107467400D01*
X127712590Y-107467400D01*
X127644469Y-107447398D01*
X127623495Y-107430495D01*
X125679200Y-105486200D01*
X134366910Y-105486200D01*
X134386785Y-105637167D01*
X134445056Y-105777845D01*
X134537752Y-105898648D01*
X134658555Y-105991344D01*
X134799233Y-106049615D01*
X134950200Y-106069490D01*
X134958388Y-106068412D01*
X134969076Y-106067005D01*
X135101167Y-106049615D01*
X135241845Y-105991344D01*
X135362648Y-105898648D01*
X135455344Y-105777845D01*
X135513615Y-105637167D01*
X135533490Y-105486200D01*
X135513615Y-105335233D01*
X135455344Y-105194555D01*
X135362648Y-105073752D01*
X135241845Y-104981056D01*
X135101167Y-104922785D01*
X134950200Y-104902910D01*
X134799233Y-104922785D01*
X134658555Y-104981056D01*
X134537752Y-105073752D01*
X134445056Y-105194555D01*
X134386785Y-105335233D01*
X134366910Y-105486200D01*
X125679200Y-105486200D01*
X123988905Y-103795905D01*
X123954883Y-103733600D01*
X145238110Y-103733600D01*
X145257985Y-103884567D01*
X145316256Y-104025245D01*
X145408952Y-104146048D01*
X145529755Y-104238744D01*
X145670433Y-104297015D01*
X145821400Y-104316890D01*
X145829588Y-104315812D01*
X145964179Y-104298093D01*
X145972367Y-104297015D01*
X146113045Y-104238744D01*
X146233848Y-104146048D01*
X146326544Y-104025245D01*
X146384815Y-103884567D01*
X146404690Y-103733600D01*
X146384815Y-103582633D01*
X146326544Y-103441955D01*
X146233848Y-103321152D01*
X146113045Y-103228456D01*
X145972367Y-103170185D01*
X145821400Y-103150310D01*
X145670433Y-103170185D01*
X145529755Y-103228456D01*
X145408952Y-103321152D01*
X145316256Y-103441955D01*
X145257985Y-103582633D01*
X145238110Y-103733600D01*
X123954883Y-103733600D01*
X123954879Y-103733593D01*
X123952000Y-103706810D01*
X123952000Y-102819200D01*
X141123310Y-102819200D01*
X141143185Y-102970167D01*
X141201456Y-103110845D01*
X141294152Y-103231648D01*
X141414955Y-103324344D01*
X141555633Y-103382615D01*
X141706600Y-103402490D01*
X141714788Y-103401412D01*
X141849379Y-103383693D01*
X141857567Y-103382615D01*
X141998245Y-103324344D01*
X142119048Y-103231648D01*
X142211744Y-103110845D01*
X142270015Y-102970167D01*
X142289890Y-102819200D01*
X142270015Y-102668233D01*
X142211744Y-102527555D01*
X142119048Y-102406752D01*
X141998245Y-102314056D01*
X141857567Y-102255785D01*
X141706600Y-102235910D01*
X141555633Y-102255785D01*
X141414955Y-102314056D01*
X141294152Y-102406752D01*
X141201456Y-102527555D01*
X141143185Y-102668233D01*
X141123310Y-102819200D01*
X123952000Y-102819200D01*
X123952000Y-101803200D01*
X134366910Y-101803200D01*
X134386785Y-101954167D01*
X134445056Y-102094845D01*
X134537752Y-102215648D01*
X134658555Y-102308344D01*
X134799233Y-102366615D01*
X134950200Y-102386490D01*
X134958388Y-102385412D01*
X135092979Y-102367693D01*
X135101167Y-102366615D01*
X135241845Y-102308344D01*
X135362648Y-102215648D01*
X135455344Y-102094845D01*
X135479110Y-102037469D01*
X148552801Y-102037469D01*
X148553171Y-102044290D01*
X148558695Y-102095152D01*
X148562321Y-102110404D01*
X148607476Y-102230854D01*
X148616014Y-102246449D01*
X148692515Y-102348524D01*
X148705076Y-102361085D01*
X148807151Y-102437586D01*
X148822746Y-102446124D01*
X148943194Y-102491278D01*
X148958449Y-102494905D01*
X149009314Y-102500431D01*
X149016128Y-102500800D01*
X149638685Y-102500800D01*
X149653924Y-102496325D01*
X149655129Y-102494935D01*
X149656800Y-102487252D01*
X149656800Y-102482684D01*
X150164800Y-102482684D01*
X150169275Y-102497923D01*
X150170665Y-102499128D01*
X150178348Y-102500799D01*
X150805469Y-102500799D01*
X150812290Y-102500429D01*
X150863152Y-102494905D01*
X150878404Y-102491279D01*
X150998854Y-102446124D01*
X151014449Y-102437586D01*
X151116524Y-102361085D01*
X151129085Y-102348524D01*
X151205586Y-102246449D01*
X151214124Y-102230854D01*
X151259278Y-102110406D01*
X151262905Y-102095151D01*
X151268431Y-102044286D01*
X151268800Y-102037472D01*
X151268800Y-101414915D01*
X151264325Y-101399676D01*
X151262935Y-101398471D01*
X151255252Y-101396800D01*
X150182915Y-101396800D01*
X150167676Y-101401275D01*
X150166471Y-101402665D01*
X150164800Y-101410348D01*
X150164800Y-102482684D01*
X149656800Y-102482684D01*
X149656800Y-101414915D01*
X149652325Y-101399676D01*
X149650935Y-101398471D01*
X149643252Y-101396800D01*
X148570916Y-101396800D01*
X148555677Y-101401275D01*
X148554472Y-101402665D01*
X148552801Y-101410348D01*
X148552801Y-102037469D01*
X135479110Y-102037469D01*
X135513615Y-101954167D01*
X135533490Y-101803200D01*
X135519541Y-101697248D01*
X135514693Y-101660421D01*
X135513615Y-101652233D01*
X135455344Y-101511555D01*
X135362648Y-101390752D01*
X135241845Y-101298056D01*
X135101167Y-101239785D01*
X134950200Y-101219910D01*
X134799233Y-101239785D01*
X134658555Y-101298056D01*
X134537752Y-101390752D01*
X134445056Y-101511555D01*
X134386785Y-101652233D01*
X134385707Y-101660421D01*
X134380859Y-101697248D01*
X134366910Y-101803200D01*
X123952000Y-101803200D01*
X123952000Y-100870685D01*
X148552800Y-100870685D01*
X148557275Y-100885924D01*
X148558665Y-100887129D01*
X148566348Y-100888800D01*
X151250684Y-100888800D01*
X151265923Y-100884325D01*
X151267128Y-100882935D01*
X151268799Y-100875252D01*
X151268799Y-100248131D01*
X151268429Y-100241310D01*
X151262905Y-100190448D01*
X151259279Y-100175196D01*
X151214124Y-100054746D01*
X151205586Y-100039151D01*
X151129085Y-99937076D01*
X151116524Y-99924515D01*
X151014449Y-99848014D01*
X150998854Y-99839476D01*
X150878406Y-99794322D01*
X150863151Y-99790695D01*
X150812286Y-99785169D01*
X150805472Y-99784800D01*
X150380494Y-99784800D01*
X150312373Y-99764798D01*
X150265880Y-99711142D01*
X150255776Y-99640868D01*
X150285270Y-99576288D01*
X150323683Y-99546334D01*
X150458961Y-99478000D01*
X150464457Y-99475224D01*
X150495112Y-99451274D01*
X150534865Y-99420215D01*
X150623367Y-99351069D01*
X150627393Y-99346405D01*
X150627396Y-99346402D01*
X150751107Y-99203082D01*
X150751108Y-99203080D01*
X150755136Y-99198414D01*
X150854745Y-99023071D01*
X150918398Y-98831721D01*
X150943673Y-98631651D01*
X150944076Y-98602800D01*
X150924397Y-98402102D01*
X150920131Y-98387970D01*
X150867892Y-98214949D01*
X150866111Y-98209049D01*
X150771438Y-98030994D01*
X150699654Y-97942978D01*
X150647877Y-97879493D01*
X150647874Y-97879490D01*
X150643982Y-97874718D01*
X150637402Y-97869274D01*
X150493349Y-97750103D01*
X150493350Y-97750103D01*
X150488601Y-97746175D01*
X150483184Y-97743246D01*
X150483181Y-97743244D01*
X150316631Y-97653191D01*
X150316626Y-97653189D01*
X150311211Y-97650261D01*
X150118569Y-97590628D01*
X150112444Y-97589984D01*
X150112443Y-97589984D01*
X149924142Y-97570193D01*
X149924141Y-97570193D01*
X149918014Y-97569549D01*
X149833888Y-97577205D01*
X149723322Y-97587267D01*
X149723319Y-97587268D01*
X149717183Y-97587826D01*
X149711277Y-97589564D01*
X149711273Y-97589565D01*
X149529640Y-97643023D01*
X149523728Y-97644763D01*
X149518263Y-97647620D01*
X149513211Y-97650261D01*
X149345016Y-97738192D01*
X149340211Y-97742055D01*
X149340210Y-97742056D01*
X149335087Y-97746175D01*
X149187855Y-97864553D01*
X149058230Y-98019033D01*
X149055267Y-98024422D01*
X149055264Y-98024427D01*
X148975028Y-98170377D01*
X148961080Y-98195749D01*
X148900104Y-98387970D01*
X148877625Y-98588373D01*
X148894499Y-98789326D01*
X148950084Y-98983174D01*
X149042263Y-99162534D01*
X149046089Y-99167361D01*
X149163694Y-99315744D01*
X149163699Y-99315749D01*
X149167523Y-99320574D01*
X149172216Y-99324568D01*
X149172217Y-99324569D01*
X149203355Y-99351069D01*
X149321095Y-99451274D01*
X149326473Y-99454280D01*
X149326475Y-99454281D01*
X149495620Y-99548813D01*
X149545326Y-99599507D01*
X149559734Y-99669026D01*
X149534270Y-99735299D01*
X149477019Y-99777284D01*
X149434150Y-99784801D01*
X149016131Y-99784801D01*
X149009310Y-99785171D01*
X148958448Y-99790695D01*
X148943196Y-99794321D01*
X148822746Y-99839476D01*
X148807151Y-99848014D01*
X148705076Y-99924515D01*
X148692515Y-99937076D01*
X148616014Y-100039151D01*
X148607476Y-100054746D01*
X148562322Y-100175194D01*
X148558695Y-100190449D01*
X148553169Y-100241314D01*
X148552800Y-100248128D01*
X148552800Y-100870685D01*
X123952000Y-100870685D01*
X123952000Y-99136200D01*
X134163710Y-99136200D01*
X134183585Y-99287167D01*
X134241856Y-99427845D01*
X134334552Y-99548648D01*
X134455355Y-99641344D01*
X134596033Y-99699615D01*
X134747000Y-99719490D01*
X134755188Y-99718412D01*
X134889779Y-99700693D01*
X134897967Y-99699615D01*
X135038645Y-99641344D01*
X135159448Y-99548648D01*
X135252144Y-99427845D01*
X135310415Y-99287167D01*
X135330290Y-99136200D01*
X140615310Y-99136200D01*
X140635185Y-99287167D01*
X140693456Y-99427845D01*
X140786152Y-99548648D01*
X140906955Y-99641344D01*
X141047633Y-99699615D01*
X141198600Y-99719490D01*
X141206788Y-99718412D01*
X141341379Y-99700693D01*
X141349567Y-99699615D01*
X141490245Y-99641344D01*
X141611048Y-99548648D01*
X141703744Y-99427845D01*
X141762015Y-99287167D01*
X141781890Y-99136200D01*
X141762015Y-98985233D01*
X141703744Y-98844555D01*
X141611048Y-98723752D01*
X141490245Y-98631056D01*
X141349567Y-98572785D01*
X141198600Y-98552910D01*
X141047633Y-98572785D01*
X140906955Y-98631056D01*
X140786152Y-98723752D01*
X140693456Y-98844555D01*
X140635185Y-98985233D01*
X140615310Y-99136200D01*
X135330290Y-99136200D01*
X135310415Y-98985233D01*
X135252144Y-98844555D01*
X135159448Y-98723752D01*
X135038645Y-98631056D01*
X134897967Y-98572785D01*
X134747000Y-98552910D01*
X134596033Y-98572785D01*
X134455355Y-98631056D01*
X134334552Y-98723752D01*
X134241856Y-98844555D01*
X134183585Y-98985233D01*
X134163710Y-99136200D01*
X123952000Y-99136200D01*
X123952000Y-96647000D01*
X120472200Y-93167200D01*
X126420407Y-93167200D01*
X126440282Y-93318167D01*
X126498553Y-93458845D01*
X126591249Y-93579648D01*
X126712052Y-93672344D01*
X126852730Y-93730615D01*
X127003697Y-93750490D01*
X127011885Y-93749412D01*
X127146476Y-93731693D01*
X127154664Y-93730615D01*
X127295342Y-93672344D01*
X127405189Y-93588055D01*
X127409593Y-93584676D01*
X127409595Y-93584674D01*
X127416145Y-93579648D01*
X127417086Y-93578421D01*
X127476672Y-93545889D01*
X127547487Y-93550957D01*
X127589414Y-93577904D01*
X127590752Y-93579648D01*
X127711555Y-93672344D01*
X127852233Y-93730615D01*
X128003200Y-93750490D01*
X128011388Y-93749412D01*
X128145979Y-93731693D01*
X128154167Y-93730615D01*
X128294845Y-93672344D01*
X128415648Y-93579648D01*
X128461490Y-93519906D01*
X128518825Y-93478041D01*
X128589696Y-93473819D01*
X128650545Y-93507517D01*
X128652626Y-93509598D01*
X128657652Y-93516148D01*
X128778455Y-93608844D01*
X128919133Y-93667115D01*
X128927321Y-93668193D01*
X128982854Y-93675504D01*
X129070100Y-93686990D01*
X129078288Y-93685912D01*
X129212879Y-93668193D01*
X129221067Y-93667115D01*
X129361745Y-93608844D01*
X129482548Y-93516148D01*
X129483126Y-93516901D01*
X129539149Y-93486309D01*
X129609964Y-93491374D01*
X129665893Y-93532724D01*
X129673879Y-93543132D01*
X129794682Y-93635828D01*
X129935360Y-93694099D01*
X130086327Y-93713974D01*
X130094515Y-93712896D01*
X130229106Y-93695177D01*
X130237294Y-93694099D01*
X130377972Y-93635828D01*
X130498775Y-93543132D01*
X130591471Y-93422329D01*
X130649742Y-93281651D01*
X130653258Y-93254948D01*
X130668539Y-93138872D01*
X130669617Y-93130684D01*
X130653094Y-93005179D01*
X130650820Y-92987905D01*
X130650603Y-92986254D01*
X131513615Y-92986254D01*
X131514693Y-92994442D01*
X131524878Y-93071802D01*
X131533490Y-93137221D01*
X131591761Y-93277899D01*
X131684457Y-93398702D01*
X131805260Y-93491398D01*
X131945938Y-93549669D01*
X132096905Y-93569544D01*
X132105093Y-93568466D01*
X132239684Y-93550747D01*
X132247872Y-93549669D01*
X132388550Y-93491398D01*
X132406479Y-93477641D01*
X132449522Y-93444612D01*
X132505247Y-93401853D01*
X132571466Y-93376252D01*
X132641015Y-93390516D01*
X132671359Y-93416183D01*
X132672685Y-93414857D01*
X132678526Y-93420698D01*
X132683552Y-93427248D01*
X132804355Y-93519944D01*
X132921497Y-93568466D01*
X132932680Y-93573098D01*
X132945033Y-93578215D01*
X132953221Y-93579293D01*
X132957953Y-93579916D01*
X133096000Y-93598090D01*
X133104188Y-93597012D01*
X133238779Y-93579293D01*
X133246967Y-93578215D01*
X133259321Y-93573098D01*
X133270503Y-93568466D01*
X133387645Y-93519944D01*
X133508448Y-93427248D01*
X133552454Y-93369899D01*
X133579381Y-93334807D01*
X133636719Y-93292940D01*
X133707590Y-93288718D01*
X133756044Y-93311547D01*
X133803086Y-93347644D01*
X133906588Y-93390516D01*
X133933958Y-93401853D01*
X133943764Y-93405915D01*
X134094731Y-93425790D01*
X134102919Y-93424712D01*
X134127682Y-93421452D01*
X134245698Y-93405915D01*
X134255505Y-93401853D01*
X134282874Y-93390516D01*
X134386376Y-93347644D01*
X134507179Y-93254948D01*
X134599875Y-93134145D01*
X134642881Y-93030320D01*
X134687430Y-92975040D01*
X134754793Y-92952619D01*
X134823585Y-92970178D01*
X134852093Y-92995481D01*
X134852616Y-92994958D01*
X134858457Y-93000799D01*
X134863483Y-93007349D01*
X134984286Y-93100045D01*
X135124964Y-93158316D01*
X135133152Y-93159394D01*
X135185920Y-93166341D01*
X135275931Y-93178191D01*
X135284119Y-93177113D01*
X135418710Y-93159394D01*
X135426898Y-93158316D01*
X135567576Y-93100045D01*
X135688379Y-93007349D01*
X135781075Y-92886546D01*
X135791077Y-92862400D01*
X136500510Y-92862400D01*
X136520385Y-93013367D01*
X136578656Y-93154045D01*
X136671352Y-93274848D01*
X136792155Y-93367544D01*
X136905997Y-93414699D01*
X136920480Y-93420698D01*
X136932833Y-93425815D01*
X137083800Y-93445690D01*
X137091988Y-93444612D01*
X137226579Y-93426893D01*
X137234767Y-93425815D01*
X137247121Y-93420698D01*
X137261603Y-93414699D01*
X137375445Y-93367544D01*
X137479214Y-93287918D01*
X137545433Y-93262319D01*
X137614982Y-93276584D01*
X137655877Y-93311176D01*
X137669398Y-93328796D01*
X137790201Y-93421492D01*
X137880379Y-93458845D01*
X137923154Y-93476563D01*
X137930879Y-93479763D01*
X137939067Y-93480841D01*
X138006363Y-93489701D01*
X138081846Y-93499638D01*
X138090034Y-93498560D01*
X138105758Y-93496490D01*
X138157329Y-93489701D01*
X138224625Y-93480841D01*
X138232813Y-93479763D01*
X138240539Y-93476563D01*
X138283313Y-93458845D01*
X138373491Y-93421492D01*
X138494294Y-93328796D01*
X138496190Y-93326325D01*
X138556411Y-93293441D01*
X138627226Y-93298506D01*
X138668422Y-93324980D01*
X138668895Y-93325596D01*
X138789698Y-93418292D01*
X138930376Y-93476563D01*
X138938564Y-93477641D01*
X138962871Y-93480841D01*
X139081343Y-93496438D01*
X139089531Y-93495360D01*
X139224122Y-93477641D01*
X139232310Y-93476563D01*
X139372988Y-93418292D01*
X139493791Y-93325596D01*
X139494712Y-93324396D01*
X139554282Y-93291867D01*
X139625097Y-93296932D01*
X139667044Y-93323890D01*
X139668397Y-93325654D01*
X139789200Y-93418350D01*
X139929878Y-93476621D01*
X140080845Y-93496496D01*
X140089033Y-93495418D01*
X140095566Y-93494558D01*
X140231812Y-93476621D01*
X140372490Y-93418350D01*
X140493293Y-93325654D01*
X140585989Y-93204851D01*
X140644260Y-93064173D01*
X140664040Y-92913928D01*
X141268063Y-92913928D01*
X141287938Y-93064895D01*
X141346209Y-93205573D01*
X141438905Y-93326376D01*
X141559708Y-93419072D01*
X141637308Y-93451215D01*
X141691000Y-93473455D01*
X141700386Y-93477343D01*
X141708574Y-93478421D01*
X141775869Y-93487280D01*
X141851353Y-93497218D01*
X141859541Y-93496140D01*
X141994132Y-93478421D01*
X142002320Y-93477343D01*
X142011707Y-93473455D01*
X142065398Y-93451215D01*
X142142998Y-93419072D01*
X142150569Y-93413263D01*
X142216704Y-93362515D01*
X142248765Y-93337914D01*
X142314984Y-93312313D01*
X142384533Y-93326577D01*
X142425428Y-93361170D01*
X142437152Y-93376448D01*
X142557955Y-93469144D01*
X142698633Y-93527415D01*
X142849600Y-93547290D01*
X142857788Y-93546212D01*
X142860242Y-93545889D01*
X143000567Y-93527415D01*
X143141245Y-93469144D01*
X143262048Y-93376448D01*
X143321150Y-93299425D01*
X143378487Y-93257559D01*
X143449358Y-93253338D01*
X143511261Y-93288103D01*
X143525286Y-93306607D01*
X143525456Y-93307019D01*
X143618152Y-93427822D01*
X143738955Y-93520518D01*
X143879633Y-93578789D01*
X143887821Y-93579867D01*
X143950016Y-93588055D01*
X144030600Y-93598664D01*
X144038788Y-93597586D01*
X144173379Y-93579867D01*
X144181567Y-93578789D01*
X144322245Y-93520518D01*
X144443048Y-93427822D01*
X144517136Y-93331269D01*
X144574472Y-93289403D01*
X144645343Y-93285181D01*
X144707246Y-93319945D01*
X144726216Y-93344973D01*
X144728894Y-93349612D01*
X144732056Y-93357245D01*
X144737084Y-93363798D01*
X144737086Y-93363801D01*
X144790721Y-93433698D01*
X144824752Y-93478048D01*
X144945555Y-93570744D01*
X145086233Y-93629015D01*
X145237200Y-93648890D01*
X145245388Y-93647812D01*
X145379979Y-93630093D01*
X145388167Y-93629015D01*
X145528845Y-93570744D01*
X145649648Y-93478048D01*
X145742344Y-93357245D01*
X145800615Y-93216567D01*
X145820490Y-93065600D01*
X145800615Y-92914633D01*
X145800021Y-92913200D01*
X146660510Y-92913200D01*
X146680385Y-93064167D01*
X146683545Y-93071796D01*
X146683847Y-93072524D01*
X146738656Y-93204845D01*
X146831352Y-93325648D01*
X146952155Y-93418344D01*
X147065753Y-93465398D01*
X147085079Y-93473403D01*
X147092833Y-93476615D01*
X147101021Y-93477693D01*
X147124933Y-93480841D01*
X147243800Y-93496490D01*
X147251988Y-93495412D01*
X147386579Y-93477693D01*
X147394767Y-93476615D01*
X147402522Y-93473403D01*
X147421847Y-93465398D01*
X147535445Y-93418344D01*
X147625014Y-93349615D01*
X147652034Y-93328882D01*
X147718254Y-93303281D01*
X147787803Y-93317546D01*
X147828699Y-93352140D01*
X147847352Y-93376448D01*
X147968155Y-93469144D01*
X148108833Y-93527415D01*
X148259800Y-93547290D01*
X148267988Y-93546212D01*
X148270442Y-93545889D01*
X148410767Y-93527415D01*
X148551445Y-93469144D01*
X148672248Y-93376448D01*
X148764944Y-93255645D01*
X148823215Y-93114967D01*
X148824764Y-93103205D01*
X148834691Y-93027800D01*
X149339910Y-93027800D01*
X149340988Y-93035988D01*
X149357235Y-93159394D01*
X149359785Y-93178767D01*
X149418056Y-93319445D01*
X149510752Y-93440248D01*
X149631555Y-93532944D01*
X149734605Y-93575629D01*
X149756447Y-93584676D01*
X149772233Y-93591215D01*
X149923200Y-93611090D01*
X149931388Y-93610012D01*
X150065979Y-93592293D01*
X150074167Y-93591215D01*
X150089954Y-93584676D01*
X150111795Y-93575629D01*
X150214845Y-93532944D01*
X150335648Y-93440248D01*
X150428344Y-93319445D01*
X150486615Y-93178767D01*
X150489166Y-93159394D01*
X150505412Y-93035988D01*
X150506490Y-93027800D01*
X150486615Y-92876833D01*
X150428344Y-92736155D01*
X150335648Y-92615352D01*
X150214845Y-92522656D01*
X150074167Y-92464385D01*
X149923200Y-92444510D01*
X149772233Y-92464385D01*
X149631555Y-92522656D01*
X149510752Y-92615352D01*
X149418056Y-92736155D01*
X149359785Y-92876833D01*
X149339910Y-93027800D01*
X148834691Y-93027800D01*
X148842012Y-92972188D01*
X148843090Y-92964000D01*
X148823215Y-92813033D01*
X148764944Y-92672355D01*
X148672248Y-92551552D01*
X148551445Y-92458856D01*
X148410767Y-92400585D01*
X148259800Y-92380710D01*
X148108833Y-92400585D01*
X147968155Y-92458856D01*
X147913548Y-92500758D01*
X147851566Y-92548318D01*
X147785346Y-92573919D01*
X147715797Y-92559654D01*
X147674901Y-92525060D01*
X147656248Y-92500752D01*
X147535445Y-92408056D01*
X147405175Y-92354096D01*
X147402396Y-92352945D01*
X147394767Y-92349785D01*
X147243800Y-92329910D01*
X147092833Y-92349785D01*
X147085204Y-92352945D01*
X147082425Y-92354096D01*
X146952155Y-92408056D01*
X146831352Y-92500752D01*
X146738656Y-92621555D01*
X146680385Y-92762233D01*
X146660510Y-92913200D01*
X145800021Y-92913200D01*
X145742344Y-92773955D01*
X145649648Y-92653152D01*
X145528845Y-92560456D01*
X145400535Y-92507308D01*
X145395796Y-92505345D01*
X145388167Y-92502185D01*
X145237200Y-92482310D01*
X145086233Y-92502185D01*
X145078604Y-92505345D01*
X145073865Y-92507308D01*
X144945555Y-92560456D01*
X144824752Y-92653152D01*
X144755207Y-92743785D01*
X144750665Y-92749704D01*
X144693328Y-92791571D01*
X144622457Y-92795793D01*
X144560554Y-92761029D01*
X144541584Y-92736001D01*
X144538906Y-92731362D01*
X144535744Y-92723729D01*
X144530716Y-92717176D01*
X144530714Y-92717173D01*
X144448074Y-92609476D01*
X144443048Y-92602926D01*
X144322245Y-92510230D01*
X144192535Y-92456502D01*
X144189196Y-92455119D01*
X144181567Y-92451959D01*
X144030600Y-92432084D01*
X143879633Y-92451959D01*
X143872004Y-92455119D01*
X143868665Y-92456502D01*
X143738955Y-92510230D01*
X143618152Y-92602926D01*
X143568921Y-92667085D01*
X143559051Y-92679948D01*
X143501713Y-92721815D01*
X143430842Y-92726036D01*
X143368939Y-92691271D01*
X143354914Y-92672767D01*
X143354744Y-92672355D01*
X143262048Y-92551552D01*
X143141245Y-92458856D01*
X143000567Y-92400585D01*
X142849600Y-92380710D01*
X142698633Y-92400585D01*
X142557955Y-92458856D01*
X142551404Y-92463883D01*
X142551402Y-92463884D01*
X142547051Y-92467223D01*
X142453241Y-92539207D01*
X142452189Y-92540014D01*
X142385969Y-92565615D01*
X142316420Y-92551351D01*
X142275525Y-92516758D01*
X142263801Y-92501480D01*
X142142998Y-92408784D01*
X142002320Y-92350513D01*
X141851353Y-92330638D01*
X141700386Y-92350513D01*
X141559708Y-92408784D01*
X141438905Y-92501480D01*
X141346209Y-92622283D01*
X141287938Y-92762961D01*
X141286860Y-92771149D01*
X141284574Y-92788511D01*
X141268063Y-92913928D01*
X140664040Y-92913928D01*
X140664135Y-92913206D01*
X140653508Y-92832486D01*
X140645338Y-92770427D01*
X140644260Y-92762239D01*
X140641098Y-92754604D01*
X140628746Y-92724786D01*
X140585989Y-92621561D01*
X140493293Y-92500758D01*
X140372490Y-92408062D01*
X140231812Y-92349791D01*
X140080845Y-92329916D01*
X139929878Y-92349791D01*
X139789200Y-92408062D01*
X139668397Y-92500758D01*
X139667476Y-92501958D01*
X139607906Y-92534487D01*
X139537091Y-92529422D01*
X139495144Y-92502464D01*
X139493791Y-92500700D01*
X139372988Y-92408004D01*
X139240079Y-92352951D01*
X139239939Y-92352893D01*
X139232310Y-92349733D01*
X139081343Y-92329858D01*
X138930376Y-92349733D01*
X138922747Y-92352893D01*
X138922607Y-92352951D01*
X138789698Y-92408004D01*
X138668895Y-92500700D01*
X138666999Y-92503171D01*
X138606778Y-92536055D01*
X138535963Y-92530990D01*
X138494767Y-92504516D01*
X138494294Y-92503900D01*
X138373491Y-92411204D01*
X138232813Y-92352933D01*
X138208902Y-92349785D01*
X138090034Y-92334136D01*
X138081846Y-92333058D01*
X138073658Y-92334136D01*
X137954791Y-92349785D01*
X137930879Y-92352933D01*
X137790201Y-92411204D01*
X137686432Y-92490830D01*
X137620213Y-92516429D01*
X137550664Y-92502164D01*
X137509769Y-92467572D01*
X137496248Y-92449952D01*
X137375445Y-92357256D01*
X137234767Y-92298985D01*
X137217434Y-92296703D01*
X137091988Y-92280188D01*
X137083800Y-92279110D01*
X137075612Y-92280188D01*
X136950167Y-92296703D01*
X136932833Y-92298985D01*
X136792155Y-92357256D01*
X136671352Y-92449952D01*
X136578656Y-92570755D01*
X136520385Y-92711433D01*
X136500510Y-92862400D01*
X135791077Y-92862400D01*
X135839346Y-92745868D01*
X135842122Y-92724786D01*
X135858143Y-92603089D01*
X135859221Y-92594901D01*
X135841972Y-92463884D01*
X135840424Y-92452122D01*
X135839346Y-92443934D01*
X135781075Y-92303256D01*
X135688379Y-92182453D01*
X135567576Y-92089757D01*
X135426898Y-92031486D01*
X135275931Y-92011611D01*
X135124964Y-92031486D01*
X134984286Y-92089757D01*
X134863483Y-92182453D01*
X134770787Y-92303256D01*
X134738704Y-92380710D01*
X134727781Y-92407081D01*
X134683232Y-92462361D01*
X134615869Y-92484782D01*
X134547077Y-92467223D01*
X134518569Y-92441920D01*
X134518046Y-92442443D01*
X134512205Y-92436602D01*
X134507179Y-92430052D01*
X134386376Y-92337356D01*
X134245698Y-92279085D01*
X134094731Y-92259210D01*
X133943764Y-92279085D01*
X133803086Y-92337356D01*
X133682283Y-92430052D01*
X133677257Y-92436602D01*
X133611350Y-92522493D01*
X133554012Y-92564360D01*
X133483141Y-92568582D01*
X133434687Y-92545753D01*
X133387645Y-92509656D01*
X133265004Y-92458856D01*
X133254596Y-92454545D01*
X133246967Y-92451385D01*
X133096000Y-92431510D01*
X132945033Y-92451385D01*
X132937404Y-92454545D01*
X132926996Y-92458856D01*
X132804355Y-92509656D01*
X132797805Y-92514682D01*
X132797802Y-92514684D01*
X132764792Y-92540014D01*
X132687658Y-92599201D01*
X132621439Y-92624802D01*
X132551890Y-92610538D01*
X132521546Y-92584871D01*
X132520220Y-92586197D01*
X132514379Y-92580356D01*
X132509353Y-92573806D01*
X132388550Y-92481110D01*
X132247872Y-92422839D01*
X132096905Y-92402964D01*
X131945938Y-92422839D01*
X131805260Y-92481110D01*
X131684457Y-92573806D01*
X131591761Y-92694609D01*
X131533490Y-92835287D01*
X131513615Y-92986254D01*
X130650603Y-92986254D01*
X130649742Y-92979717D01*
X130591471Y-92839039D01*
X130498775Y-92718236D01*
X130377972Y-92625540D01*
X130237294Y-92567269D01*
X130086327Y-92547394D01*
X129935360Y-92567269D01*
X129794682Y-92625540D01*
X129673879Y-92718236D01*
X129673301Y-92717483D01*
X129617278Y-92748075D01*
X129546463Y-92743010D01*
X129490534Y-92701660D01*
X129482548Y-92691252D01*
X129361745Y-92598556D01*
X129221067Y-92540285D01*
X129177027Y-92534487D01*
X129078288Y-92521488D01*
X129070100Y-92520410D01*
X129061912Y-92521488D01*
X128963174Y-92534487D01*
X128919133Y-92540285D01*
X128778455Y-92598556D01*
X128657652Y-92691252D01*
X128611810Y-92750994D01*
X128554475Y-92792859D01*
X128483604Y-92797081D01*
X128422755Y-92763383D01*
X128420674Y-92761302D01*
X128415648Y-92754752D01*
X128294845Y-92662056D01*
X128154167Y-92603785D01*
X128114449Y-92598556D01*
X128024491Y-92586713D01*
X128003200Y-92583910D01*
X127981909Y-92586713D01*
X127891952Y-92598556D01*
X127852233Y-92603785D01*
X127711555Y-92662056D01*
X127647206Y-92711433D01*
X127597304Y-92749724D01*
X127597302Y-92749726D01*
X127590752Y-92754752D01*
X127589811Y-92755979D01*
X127530225Y-92788511D01*
X127459410Y-92783443D01*
X127417483Y-92756496D01*
X127416145Y-92754752D01*
X127295342Y-92662056D01*
X127154664Y-92603785D01*
X127114946Y-92598556D01*
X127024988Y-92586713D01*
X127003697Y-92583910D01*
X126982406Y-92586713D01*
X126892449Y-92598556D01*
X126852730Y-92603785D01*
X126712052Y-92662056D01*
X126591249Y-92754752D01*
X126498553Y-92875555D01*
X126440282Y-93016233D01*
X126420407Y-93167200D01*
X120472200Y-93167200D01*
X115354199Y-88049199D01*
X115320173Y-87986887D01*
X115325238Y-87916072D01*
X115354102Y-87871105D01*
X117065631Y-86155864D01*
X119096251Y-84120839D01*
X123634900Y-84120839D01*
X123634901Y-85855960D01*
X123636108Y-85862028D01*
X123636108Y-85862029D01*
X123637169Y-85867365D01*
X123645245Y-85907969D01*
X123652140Y-85918288D01*
X123652141Y-85918290D01*
X123664750Y-85937160D01*
X123684653Y-85966947D01*
X123743631Y-86006355D01*
X123795639Y-86016700D01*
X124662919Y-86016700D01*
X125530760Y-86016699D01*
X125582769Y-86006355D01*
X125598764Y-85995668D01*
X125631431Y-85973840D01*
X125641747Y-85966947D01*
X125681155Y-85907969D01*
X125691500Y-85855961D01*
X125691499Y-84973973D01*
X126170025Y-84973973D01*
X126186899Y-85174926D01*
X126202761Y-85230243D01*
X126227129Y-85315223D01*
X126242484Y-85368774D01*
X126245303Y-85374259D01*
X126307185Y-85494667D01*
X126334663Y-85548134D01*
X126338489Y-85552961D01*
X126456094Y-85701344D01*
X126456099Y-85701349D01*
X126459923Y-85706174D01*
X126464616Y-85710168D01*
X126464617Y-85710169D01*
X126566760Y-85797099D01*
X126613495Y-85836874D01*
X126618873Y-85839880D01*
X126618875Y-85839881D01*
X126668052Y-85867365D01*
X126789529Y-85935256D01*
X126981319Y-85997572D01*
X127181561Y-86021449D01*
X127187696Y-86020977D01*
X127187698Y-86020977D01*
X127376485Y-86006451D01*
X127376490Y-86006450D01*
X127382626Y-86005978D01*
X127388556Y-86004322D01*
X127388558Y-86004322D01*
X127522421Y-85966947D01*
X127576858Y-85951748D01*
X127582347Y-85948975D01*
X127582353Y-85948973D01*
X127710815Y-85884081D01*
X127756857Y-85860824D01*
X127763082Y-85855961D01*
X127813402Y-85816646D01*
X127915767Y-85736669D01*
X127919793Y-85732005D01*
X127919796Y-85732002D01*
X128043507Y-85588682D01*
X128043508Y-85588680D01*
X128047536Y-85584014D01*
X128147145Y-85408671D01*
X128201648Y-85244828D01*
X128208853Y-85223169D01*
X128208854Y-85223166D01*
X128210798Y-85217321D01*
X128236073Y-85017251D01*
X128236476Y-84988400D01*
X128235061Y-84973973D01*
X128710025Y-84973973D01*
X128726899Y-85174926D01*
X128742761Y-85230243D01*
X128767129Y-85315223D01*
X128782484Y-85368774D01*
X128785303Y-85374259D01*
X128847185Y-85494667D01*
X128874663Y-85548134D01*
X128878489Y-85552961D01*
X128996094Y-85701344D01*
X128996099Y-85701349D01*
X128999923Y-85706174D01*
X129004616Y-85710168D01*
X129004617Y-85710169D01*
X129106760Y-85797099D01*
X129153495Y-85836874D01*
X129158873Y-85839880D01*
X129158875Y-85839881D01*
X129208052Y-85867365D01*
X129329529Y-85935256D01*
X129521319Y-85997572D01*
X129721561Y-86021449D01*
X129727696Y-86020977D01*
X129727698Y-86020977D01*
X129916485Y-86006451D01*
X129916490Y-86006450D01*
X129922626Y-86005978D01*
X129928556Y-86004322D01*
X129928558Y-86004322D01*
X130062421Y-85966947D01*
X130116858Y-85951748D01*
X130122347Y-85948975D01*
X130122353Y-85948973D01*
X130250815Y-85884081D01*
X130296857Y-85860824D01*
X130303082Y-85855961D01*
X130353402Y-85816646D01*
X130455767Y-85736669D01*
X130459793Y-85732005D01*
X130459796Y-85732002D01*
X130583507Y-85588682D01*
X130583508Y-85588680D01*
X130587536Y-85584014D01*
X130687145Y-85408671D01*
X130741648Y-85244828D01*
X130748853Y-85223169D01*
X130748854Y-85223166D01*
X130750798Y-85217321D01*
X130776073Y-85017251D01*
X130776476Y-84988400D01*
X130775061Y-84973973D01*
X131250025Y-84973973D01*
X131266899Y-85174926D01*
X131282761Y-85230243D01*
X131307129Y-85315223D01*
X131322484Y-85368774D01*
X131325303Y-85374259D01*
X131387185Y-85494667D01*
X131414663Y-85548134D01*
X131418489Y-85552961D01*
X131536094Y-85701344D01*
X131536099Y-85701349D01*
X131539923Y-85706174D01*
X131544616Y-85710168D01*
X131544617Y-85710169D01*
X131646760Y-85797099D01*
X131693495Y-85836874D01*
X131698873Y-85839880D01*
X131698875Y-85839881D01*
X131748052Y-85867365D01*
X131869529Y-85935256D01*
X132061319Y-85997572D01*
X132261561Y-86021449D01*
X132267696Y-86020977D01*
X132267698Y-86020977D01*
X132456485Y-86006451D01*
X132456490Y-86006450D01*
X132462626Y-86005978D01*
X132468556Y-86004322D01*
X132468558Y-86004322D01*
X132602421Y-85966947D01*
X132656858Y-85951748D01*
X132662347Y-85948975D01*
X132662353Y-85948973D01*
X132790815Y-85884081D01*
X132836857Y-85860824D01*
X132843082Y-85855961D01*
X132893402Y-85816646D01*
X132995767Y-85736669D01*
X132999793Y-85732005D01*
X132999796Y-85732002D01*
X133123507Y-85588682D01*
X133123508Y-85588680D01*
X133127536Y-85584014D01*
X133227145Y-85408671D01*
X133281648Y-85244828D01*
X133288853Y-85223169D01*
X133288854Y-85223166D01*
X133290798Y-85217321D01*
X133316073Y-85017251D01*
X133316476Y-84988400D01*
X133315061Y-84973973D01*
X133790025Y-84973973D01*
X133806899Y-85174926D01*
X133822761Y-85230243D01*
X133847129Y-85315223D01*
X133862484Y-85368774D01*
X133865303Y-85374259D01*
X133927185Y-85494667D01*
X133954663Y-85548134D01*
X133958489Y-85552961D01*
X134076094Y-85701344D01*
X134076099Y-85701349D01*
X134079923Y-85706174D01*
X134084616Y-85710168D01*
X134084617Y-85710169D01*
X134186760Y-85797099D01*
X134233495Y-85836874D01*
X134238873Y-85839880D01*
X134238875Y-85839881D01*
X134288052Y-85867365D01*
X134409529Y-85935256D01*
X134601319Y-85997572D01*
X134801561Y-86021449D01*
X134807696Y-86020977D01*
X134807698Y-86020977D01*
X134996485Y-86006451D01*
X134996490Y-86006450D01*
X135002626Y-86005978D01*
X135008556Y-86004322D01*
X135008558Y-86004322D01*
X135142421Y-85966947D01*
X135196858Y-85951748D01*
X135202347Y-85948975D01*
X135202353Y-85948973D01*
X135330815Y-85884081D01*
X135376857Y-85860824D01*
X135383082Y-85855961D01*
X135433402Y-85816646D01*
X135535767Y-85736669D01*
X135539793Y-85732005D01*
X135539796Y-85732002D01*
X135663507Y-85588682D01*
X135663508Y-85588680D01*
X135667536Y-85584014D01*
X135767145Y-85408671D01*
X135821648Y-85244828D01*
X135828853Y-85223169D01*
X135828854Y-85223166D01*
X135830798Y-85217321D01*
X135856073Y-85017251D01*
X135856476Y-84988400D01*
X135855061Y-84973973D01*
X136330025Y-84973973D01*
X136346899Y-85174926D01*
X136362761Y-85230243D01*
X136387129Y-85315223D01*
X136402484Y-85368774D01*
X136405303Y-85374259D01*
X136467185Y-85494667D01*
X136494663Y-85548134D01*
X136498489Y-85552961D01*
X136616094Y-85701344D01*
X136616099Y-85701349D01*
X136619923Y-85706174D01*
X136624616Y-85710168D01*
X136624617Y-85710169D01*
X136726760Y-85797099D01*
X136773495Y-85836874D01*
X136778873Y-85839880D01*
X136778875Y-85839881D01*
X136828052Y-85867365D01*
X136949529Y-85935256D01*
X137141319Y-85997572D01*
X137341561Y-86021449D01*
X137347696Y-86020977D01*
X137347698Y-86020977D01*
X137536485Y-86006451D01*
X137536490Y-86006450D01*
X137542626Y-86005978D01*
X137548556Y-86004322D01*
X137548558Y-86004322D01*
X137682421Y-85966947D01*
X137736858Y-85951748D01*
X137742347Y-85948975D01*
X137742353Y-85948973D01*
X137870815Y-85884081D01*
X137916857Y-85860824D01*
X137923082Y-85855961D01*
X137973402Y-85816646D01*
X138075767Y-85736669D01*
X138079793Y-85732005D01*
X138079796Y-85732002D01*
X138203507Y-85588682D01*
X138203508Y-85588680D01*
X138207536Y-85584014D01*
X138307145Y-85408671D01*
X138361648Y-85244828D01*
X138368853Y-85223169D01*
X138368854Y-85223166D01*
X138370798Y-85217321D01*
X138396073Y-85017251D01*
X138396476Y-84988400D01*
X138395061Y-84973973D01*
X138870025Y-84973973D01*
X138886899Y-85174926D01*
X138902761Y-85230243D01*
X138927129Y-85315223D01*
X138942484Y-85368774D01*
X138945303Y-85374259D01*
X139007185Y-85494667D01*
X139034663Y-85548134D01*
X139038489Y-85552961D01*
X139156094Y-85701344D01*
X139156099Y-85701349D01*
X139159923Y-85706174D01*
X139164616Y-85710168D01*
X139164617Y-85710169D01*
X139266760Y-85797099D01*
X139313495Y-85836874D01*
X139318873Y-85839880D01*
X139318875Y-85839881D01*
X139368052Y-85867365D01*
X139489529Y-85935256D01*
X139681319Y-85997572D01*
X139881561Y-86021449D01*
X139887696Y-86020977D01*
X139887698Y-86020977D01*
X140076485Y-86006451D01*
X140076490Y-86006450D01*
X140082626Y-86005978D01*
X140088556Y-86004322D01*
X140088558Y-86004322D01*
X140222421Y-85966947D01*
X140276858Y-85951748D01*
X140282347Y-85948975D01*
X140282353Y-85948973D01*
X140410815Y-85884081D01*
X140456857Y-85860824D01*
X140463082Y-85855961D01*
X140513402Y-85816646D01*
X140615767Y-85736669D01*
X140619793Y-85732005D01*
X140619796Y-85732002D01*
X140743507Y-85588682D01*
X140743508Y-85588680D01*
X140747536Y-85584014D01*
X140847145Y-85408671D01*
X140901648Y-85244828D01*
X140908853Y-85223169D01*
X140908854Y-85223166D01*
X140910798Y-85217321D01*
X140936073Y-85017251D01*
X140936476Y-84988400D01*
X140935061Y-84973973D01*
X141410025Y-84973973D01*
X141426899Y-85174926D01*
X141442761Y-85230243D01*
X141467129Y-85315223D01*
X141482484Y-85368774D01*
X141485303Y-85374259D01*
X141547185Y-85494667D01*
X141574663Y-85548134D01*
X141578489Y-85552961D01*
X141696094Y-85701344D01*
X141696099Y-85701349D01*
X141699923Y-85706174D01*
X141704616Y-85710168D01*
X141704617Y-85710169D01*
X141806760Y-85797099D01*
X141853495Y-85836874D01*
X141858873Y-85839880D01*
X141858875Y-85839881D01*
X141908052Y-85867365D01*
X142029529Y-85935256D01*
X142221319Y-85997572D01*
X142421561Y-86021449D01*
X142427696Y-86020977D01*
X142427698Y-86020977D01*
X142616485Y-86006451D01*
X142616490Y-86006450D01*
X142622626Y-86005978D01*
X142628556Y-86004322D01*
X142628558Y-86004322D01*
X142762421Y-85966947D01*
X142816858Y-85951748D01*
X142822347Y-85948975D01*
X142822353Y-85948973D01*
X142950815Y-85884081D01*
X142996857Y-85860824D01*
X143003082Y-85855961D01*
X143053402Y-85816646D01*
X143155767Y-85736669D01*
X143159793Y-85732005D01*
X143159796Y-85732002D01*
X143283507Y-85588682D01*
X143283508Y-85588680D01*
X143287536Y-85584014D01*
X143387145Y-85408671D01*
X143441648Y-85244828D01*
X143448853Y-85223169D01*
X143448854Y-85223166D01*
X143450798Y-85217321D01*
X143476073Y-85017251D01*
X143476476Y-84988400D01*
X143475061Y-84973973D01*
X143950025Y-84973973D01*
X143966899Y-85174926D01*
X143982761Y-85230243D01*
X144007129Y-85315223D01*
X144022484Y-85368774D01*
X144025303Y-85374259D01*
X144087185Y-85494667D01*
X144114663Y-85548134D01*
X144118489Y-85552961D01*
X144236094Y-85701344D01*
X144236099Y-85701349D01*
X144239923Y-85706174D01*
X144244616Y-85710168D01*
X144244617Y-85710169D01*
X144346760Y-85797099D01*
X144393495Y-85836874D01*
X144398873Y-85839880D01*
X144398875Y-85839881D01*
X144448052Y-85867365D01*
X144569529Y-85935256D01*
X144761319Y-85997572D01*
X144961561Y-86021449D01*
X144967696Y-86020977D01*
X144967698Y-86020977D01*
X145156485Y-86006451D01*
X145156490Y-86006450D01*
X145162626Y-86005978D01*
X145168556Y-86004322D01*
X145168558Y-86004322D01*
X145302421Y-85966947D01*
X145356858Y-85951748D01*
X145362347Y-85948975D01*
X145362353Y-85948973D01*
X145490815Y-85884081D01*
X145536857Y-85860824D01*
X145543082Y-85855961D01*
X145593402Y-85816646D01*
X145695767Y-85736669D01*
X145699793Y-85732005D01*
X145699796Y-85732002D01*
X145823507Y-85588682D01*
X145823508Y-85588680D01*
X145827536Y-85584014D01*
X145927145Y-85408671D01*
X145981648Y-85244828D01*
X145988853Y-85223169D01*
X145988854Y-85223166D01*
X145990798Y-85217321D01*
X146016073Y-85017251D01*
X146016476Y-84988400D01*
X146015061Y-84973973D01*
X146490025Y-84973973D01*
X146506899Y-85174926D01*
X146522761Y-85230243D01*
X146547129Y-85315223D01*
X146562484Y-85368774D01*
X146565303Y-85374259D01*
X146627185Y-85494667D01*
X146654663Y-85548134D01*
X146658489Y-85552961D01*
X146776094Y-85701344D01*
X146776099Y-85701349D01*
X146779923Y-85706174D01*
X146784616Y-85710168D01*
X146784617Y-85710169D01*
X146886760Y-85797099D01*
X146933495Y-85836874D01*
X146938873Y-85839880D01*
X146938875Y-85839881D01*
X146988052Y-85867365D01*
X147109529Y-85935256D01*
X147301319Y-85997572D01*
X147501561Y-86021449D01*
X147507696Y-86020977D01*
X147507698Y-86020977D01*
X147696485Y-86006451D01*
X147696490Y-86006450D01*
X147702626Y-86005978D01*
X147708556Y-86004322D01*
X147708558Y-86004322D01*
X147842421Y-85966947D01*
X147896858Y-85951748D01*
X147902347Y-85948975D01*
X147902353Y-85948973D01*
X148030815Y-85884081D01*
X148076857Y-85860824D01*
X148083082Y-85855961D01*
X148133402Y-85816646D01*
X148235767Y-85736669D01*
X148239793Y-85732005D01*
X148239796Y-85732002D01*
X148363507Y-85588682D01*
X148363508Y-85588680D01*
X148367536Y-85584014D01*
X148467145Y-85408671D01*
X148521648Y-85244828D01*
X148528853Y-85223169D01*
X148528854Y-85223166D01*
X148530798Y-85217321D01*
X148556073Y-85017251D01*
X148556476Y-84988400D01*
X148555061Y-84973973D01*
X149030025Y-84973973D01*
X149046899Y-85174926D01*
X149062761Y-85230243D01*
X149087129Y-85315223D01*
X149102484Y-85368774D01*
X149105303Y-85374259D01*
X149167185Y-85494667D01*
X149194663Y-85548134D01*
X149198489Y-85552961D01*
X149316094Y-85701344D01*
X149316099Y-85701349D01*
X149319923Y-85706174D01*
X149324616Y-85710168D01*
X149324617Y-85710169D01*
X149426760Y-85797099D01*
X149473495Y-85836874D01*
X149478873Y-85839880D01*
X149478875Y-85839881D01*
X149528052Y-85867365D01*
X149649529Y-85935256D01*
X149841319Y-85997572D01*
X150041561Y-86021449D01*
X150047696Y-86020977D01*
X150047698Y-86020977D01*
X150236485Y-86006451D01*
X150236490Y-86006450D01*
X150242626Y-86005978D01*
X150248556Y-86004322D01*
X150248558Y-86004322D01*
X150382421Y-85966947D01*
X150436858Y-85951748D01*
X150442347Y-85948975D01*
X150442353Y-85948973D01*
X150570815Y-85884081D01*
X150616857Y-85860824D01*
X150623082Y-85855961D01*
X150673402Y-85816646D01*
X150775767Y-85736669D01*
X150779793Y-85732005D01*
X150779796Y-85732002D01*
X150903507Y-85588682D01*
X150903508Y-85588680D01*
X150907536Y-85584014D01*
X151007145Y-85408671D01*
X151009090Y-85402823D01*
X151009093Y-85402817D01*
X151042247Y-85303152D01*
X151082728Y-85244828D01*
X151148316Y-85217648D01*
X151218187Y-85230243D01*
X151270157Y-85278613D01*
X151284722Y-85315223D01*
X151301765Y-85390847D01*
X151304845Y-85400675D01*
X151384970Y-85598003D01*
X151389613Y-85607194D01*
X151500894Y-85788788D01*
X151506977Y-85797099D01*
X151646413Y-85958067D01*
X151653780Y-85965283D01*
X151817634Y-86101316D01*
X151826081Y-86107231D01*
X152009956Y-86214679D01*
X152019242Y-86219129D01*
X152218201Y-86295103D01*
X152228099Y-86297979D01*
X152331450Y-86319006D01*
X152345499Y-86317810D01*
X152349200Y-86307465D01*
X152349200Y-86306917D01*
X152857200Y-86306917D01*
X152861264Y-86320759D01*
X152874678Y-86322793D01*
X152881384Y-86321934D01*
X152891462Y-86319792D01*
X153095455Y-86258591D01*
X153105042Y-86254833D01*
X153296295Y-86161139D01*
X153305145Y-86155864D01*
X153478528Y-86032192D01*
X153486400Y-86025539D01*
X153637252Y-85875212D01*
X153643930Y-85867365D01*
X153768203Y-85694420D01*
X153773513Y-85685583D01*
X153867870Y-85494667D01*
X153871669Y-85485072D01*
X153924674Y-85310613D01*
X153963615Y-85251249D01*
X154028469Y-85222362D01*
X154098645Y-85233123D01*
X154151863Y-85280117D01*
X154166351Y-85312510D01*
X154182484Y-85368774D01*
X154185303Y-85374259D01*
X154247185Y-85494667D01*
X154274663Y-85548134D01*
X154278489Y-85552961D01*
X154396094Y-85701344D01*
X154396099Y-85701349D01*
X154399923Y-85706174D01*
X154404616Y-85710168D01*
X154404617Y-85710169D01*
X154506760Y-85797099D01*
X154553495Y-85836874D01*
X154558873Y-85839880D01*
X154558875Y-85839881D01*
X154608052Y-85867365D01*
X154729529Y-85935256D01*
X154921319Y-85997572D01*
X155121561Y-86021449D01*
X155127696Y-86020977D01*
X155127698Y-86020977D01*
X155316485Y-86006451D01*
X155316490Y-86006450D01*
X155322626Y-86005978D01*
X155328556Y-86004322D01*
X155328558Y-86004322D01*
X155462421Y-85966947D01*
X155516858Y-85951748D01*
X155522347Y-85948975D01*
X155522353Y-85948973D01*
X155650815Y-85884081D01*
X155696857Y-85860824D01*
X155703082Y-85855961D01*
X155753402Y-85816646D01*
X155855767Y-85736669D01*
X155859793Y-85732005D01*
X155859796Y-85732002D01*
X155983507Y-85588682D01*
X155983508Y-85588680D01*
X155987536Y-85584014D01*
X156087145Y-85408671D01*
X156141648Y-85244828D01*
X156148853Y-85223169D01*
X156148854Y-85223166D01*
X156150798Y-85217321D01*
X156176073Y-85017251D01*
X156176476Y-84988400D01*
X156156797Y-84787702D01*
X156152531Y-84773570D01*
X156121070Y-84669367D01*
X156098511Y-84594649D01*
X156003838Y-84416594D01*
X155917757Y-84311049D01*
X155880277Y-84265093D01*
X155880274Y-84265090D01*
X155876382Y-84260318D01*
X155869802Y-84254874D01*
X155725749Y-84135703D01*
X155725750Y-84135703D01*
X155721001Y-84131775D01*
X155715584Y-84128846D01*
X155715581Y-84128844D01*
X155549031Y-84038791D01*
X155549026Y-84038789D01*
X155543611Y-84035861D01*
X155350969Y-83976228D01*
X155344844Y-83975584D01*
X155344843Y-83975584D01*
X155156542Y-83955793D01*
X155156541Y-83955793D01*
X155150414Y-83955149D01*
X155096012Y-83960100D01*
X154955722Y-83972867D01*
X154955719Y-83972868D01*
X154949583Y-83973426D01*
X154943677Y-83975164D01*
X154943673Y-83975165D01*
X154790764Y-84020169D01*
X154756128Y-84030363D01*
X154750663Y-84033220D01*
X154745611Y-84035861D01*
X154577416Y-84123792D01*
X154572611Y-84127655D01*
X154572610Y-84127656D01*
X154567487Y-84131775D01*
X154420255Y-84250153D01*
X154290630Y-84404633D01*
X154287667Y-84410022D01*
X154287664Y-84410027D01*
X154230954Y-84513183D01*
X154193480Y-84581349D01*
X154191618Y-84587218D01*
X154191617Y-84587221D01*
X154164561Y-84672514D01*
X154124898Y-84731398D01*
X154059696Y-84759491D01*
X153989657Y-84747874D01*
X153937016Y-84700234D01*
X153922255Y-84665112D01*
X153894414Y-84554275D01*
X153891094Y-84544524D01*
X153806172Y-84349214D01*
X153801305Y-84340139D01*
X153685626Y-84161326D01*
X153679336Y-84153157D01*
X153536006Y-83995640D01*
X153528473Y-83988615D01*
X153361339Y-83856622D01*
X153352752Y-83850917D01*
X153315316Y-83830251D01*
X153265346Y-83779819D01*
X153250574Y-83710376D01*
X153275690Y-83643971D01*
X153303042Y-83617364D01*
X153478527Y-83492192D01*
X153486400Y-83485539D01*
X153637252Y-83335212D01*
X153643930Y-83327365D01*
X153768203Y-83154420D01*
X153773513Y-83145583D01*
X153867870Y-82954667D01*
X153871669Y-82945072D01*
X153924674Y-82770613D01*
X153963615Y-82711249D01*
X154028469Y-82682362D01*
X154098645Y-82693123D01*
X154151863Y-82740117D01*
X154166351Y-82772510D01*
X154182484Y-82828774D01*
X154185303Y-82834259D01*
X154247185Y-82954667D01*
X154274663Y-83008134D01*
X154278489Y-83012961D01*
X154396094Y-83161344D01*
X154396099Y-83161349D01*
X154399923Y-83166174D01*
X154404616Y-83170168D01*
X154404617Y-83170169D01*
X154506760Y-83257099D01*
X154553495Y-83296874D01*
X154558873Y-83299880D01*
X154558875Y-83299881D01*
X154608052Y-83327365D01*
X154729529Y-83395256D01*
X154921319Y-83457572D01*
X155121561Y-83481449D01*
X155127696Y-83480977D01*
X155127698Y-83480977D01*
X155316485Y-83466451D01*
X155316490Y-83466450D01*
X155322626Y-83465978D01*
X155328556Y-83464322D01*
X155328558Y-83464322D01*
X155451258Y-83430064D01*
X155516858Y-83411748D01*
X155522347Y-83408975D01*
X155522353Y-83408973D01*
X155650815Y-83344081D01*
X155696857Y-83320824D01*
X155727512Y-83296874D01*
X155753402Y-83276646D01*
X155855767Y-83196669D01*
X155859793Y-83192005D01*
X155859796Y-83192002D01*
X155983507Y-83048682D01*
X155983508Y-83048680D01*
X155987536Y-83044014D01*
X156087145Y-82868671D01*
X156141648Y-82704828D01*
X156148853Y-82683169D01*
X156148854Y-82683166D01*
X156150798Y-82677321D01*
X156176073Y-82477251D01*
X156176476Y-82448400D01*
X156156797Y-82247702D01*
X156152531Y-82233570D01*
X156121070Y-82129367D01*
X156098511Y-82054649D01*
X156003838Y-81876594D01*
X155917757Y-81771049D01*
X155880277Y-81725093D01*
X155880274Y-81725090D01*
X155876382Y-81720318D01*
X155869802Y-81714874D01*
X155725749Y-81595703D01*
X155725750Y-81595703D01*
X155721001Y-81591775D01*
X155715584Y-81588846D01*
X155715581Y-81588844D01*
X155549031Y-81498791D01*
X155549026Y-81498789D01*
X155543611Y-81495861D01*
X155350969Y-81436228D01*
X155344844Y-81435584D01*
X155344843Y-81435584D01*
X155156542Y-81415793D01*
X155156541Y-81415793D01*
X155150414Y-81415149D01*
X155066288Y-81422805D01*
X154955722Y-81432867D01*
X154955719Y-81432868D01*
X154949583Y-81433426D01*
X154943677Y-81435164D01*
X154943673Y-81435165D01*
X154874106Y-81455640D01*
X154756128Y-81490363D01*
X154750663Y-81493220D01*
X154745611Y-81495861D01*
X154577416Y-81583792D01*
X154572611Y-81587655D01*
X154572610Y-81587656D01*
X154567487Y-81591775D01*
X154420255Y-81710153D01*
X154290630Y-81864633D01*
X154287667Y-81870022D01*
X154287664Y-81870027D01*
X154230954Y-81973183D01*
X154193480Y-82041349D01*
X154191618Y-82047218D01*
X154191617Y-82047221D01*
X154164561Y-82132514D01*
X154124898Y-82191398D01*
X154059696Y-82219491D01*
X153989657Y-82207874D01*
X153937016Y-82160234D01*
X153922255Y-82125112D01*
X153894414Y-82014275D01*
X153891094Y-82004524D01*
X153806172Y-81809214D01*
X153801305Y-81800139D01*
X153685626Y-81621326D01*
X153679336Y-81613157D01*
X153536006Y-81455640D01*
X153528473Y-81448615D01*
X153361339Y-81316622D01*
X153352752Y-81310917D01*
X153166317Y-81207999D01*
X153156905Y-81203769D01*
X152956159Y-81132680D01*
X152946188Y-81130046D01*
X152875037Y-81117372D01*
X152861740Y-81118832D01*
X152857200Y-81133389D01*
X152857200Y-86306917D01*
X152349200Y-86306917D01*
X152349200Y-81131502D01*
X152345282Y-81118158D01*
X152331006Y-81116171D01*
X152292524Y-81122060D01*
X152282488Y-81124451D01*
X152080068Y-81190612D01*
X152070559Y-81194609D01*
X151881663Y-81292942D01*
X151872938Y-81298436D01*
X151702633Y-81426305D01*
X151694926Y-81433148D01*
X151547790Y-81587117D01*
X151541304Y-81595127D01*
X151421298Y-81771049D01*
X151416200Y-81780023D01*
X151326538Y-81973183D01*
X151322975Y-81982870D01*
X151283109Y-82126621D01*
X151245630Y-82186919D01*
X151181502Y-82217382D01*
X151111083Y-82208339D01*
X151056733Y-82162660D01*
X151041070Y-82129367D01*
X151020293Y-82060550D01*
X151020292Y-82060546D01*
X151018511Y-82054649D01*
X150923838Y-81876594D01*
X150837757Y-81771049D01*
X150800277Y-81725093D01*
X150800274Y-81725090D01*
X150796382Y-81720318D01*
X150789802Y-81714874D01*
X150645749Y-81595703D01*
X150645750Y-81595703D01*
X150641001Y-81591775D01*
X150635584Y-81588846D01*
X150635581Y-81588844D01*
X150469031Y-81498791D01*
X150469026Y-81498789D01*
X150463611Y-81495861D01*
X150270969Y-81436228D01*
X150264844Y-81435584D01*
X150264843Y-81435584D01*
X150076542Y-81415793D01*
X150076541Y-81415793D01*
X150070414Y-81415149D01*
X149986288Y-81422805D01*
X149875722Y-81432867D01*
X149875719Y-81432868D01*
X149869583Y-81433426D01*
X149863677Y-81435164D01*
X149863673Y-81435165D01*
X149794106Y-81455640D01*
X149676128Y-81490363D01*
X149670663Y-81493220D01*
X149665611Y-81495861D01*
X149497416Y-81583792D01*
X149492611Y-81587655D01*
X149492610Y-81587656D01*
X149487487Y-81591775D01*
X149340255Y-81710153D01*
X149210630Y-81864633D01*
X149207667Y-81870022D01*
X149207664Y-81870027D01*
X149150954Y-81973183D01*
X149113480Y-82041349D01*
X149111619Y-82047216D01*
X149111618Y-82047218D01*
X149065882Y-82191398D01*
X149052504Y-82233570D01*
X149030025Y-82433973D01*
X149046899Y-82634926D01*
X149062761Y-82690243D01*
X149087129Y-82775223D01*
X149102484Y-82828774D01*
X149105303Y-82834259D01*
X149167185Y-82954667D01*
X149194663Y-83008134D01*
X149198489Y-83012961D01*
X149316094Y-83161344D01*
X149316099Y-83161349D01*
X149319923Y-83166174D01*
X149324616Y-83170168D01*
X149324617Y-83170169D01*
X149426760Y-83257099D01*
X149473495Y-83296874D01*
X149478873Y-83299880D01*
X149478875Y-83299881D01*
X149528052Y-83327365D01*
X149649529Y-83395256D01*
X149841319Y-83457572D01*
X150041561Y-83481449D01*
X150047696Y-83480977D01*
X150047698Y-83480977D01*
X150236485Y-83466451D01*
X150236490Y-83466450D01*
X150242626Y-83465978D01*
X150248556Y-83464322D01*
X150248558Y-83464322D01*
X150371258Y-83430064D01*
X150436858Y-83411748D01*
X150442347Y-83408975D01*
X150442353Y-83408973D01*
X150570815Y-83344081D01*
X150616857Y-83320824D01*
X150647512Y-83296874D01*
X150673402Y-83276646D01*
X150775767Y-83196669D01*
X150779793Y-83192005D01*
X150779796Y-83192002D01*
X150903507Y-83048682D01*
X150903508Y-83048680D01*
X150907536Y-83044014D01*
X151007145Y-82868671D01*
X151009090Y-82862823D01*
X151009093Y-82862817D01*
X151042247Y-82763152D01*
X151082728Y-82704828D01*
X151148316Y-82677648D01*
X151218187Y-82690243D01*
X151270157Y-82738613D01*
X151284722Y-82775223D01*
X151301765Y-82850847D01*
X151304845Y-82860675D01*
X151384970Y-83058003D01*
X151389613Y-83067194D01*
X151500894Y-83248788D01*
X151506977Y-83257099D01*
X151646413Y-83418067D01*
X151653780Y-83425283D01*
X151817634Y-83561316D01*
X151826081Y-83567231D01*
X151895679Y-83607901D01*
X151944403Y-83659540D01*
X151957474Y-83729323D01*
X151930743Y-83795094D01*
X151890287Y-83828453D01*
X151881662Y-83832942D01*
X151872938Y-83838436D01*
X151702633Y-83966305D01*
X151694926Y-83973148D01*
X151547790Y-84127117D01*
X151541304Y-84135127D01*
X151421298Y-84311049D01*
X151416200Y-84320023D01*
X151326538Y-84513183D01*
X151322975Y-84522870D01*
X151283109Y-84666621D01*
X151245630Y-84726919D01*
X151181502Y-84757382D01*
X151111083Y-84748339D01*
X151056733Y-84702660D01*
X151041070Y-84669367D01*
X151020293Y-84600550D01*
X151020292Y-84600546D01*
X151018511Y-84594649D01*
X150923838Y-84416594D01*
X150837757Y-84311049D01*
X150800277Y-84265093D01*
X150800274Y-84265090D01*
X150796382Y-84260318D01*
X150789802Y-84254874D01*
X150645749Y-84135703D01*
X150645750Y-84135703D01*
X150641001Y-84131775D01*
X150635584Y-84128846D01*
X150635581Y-84128844D01*
X150469031Y-84038791D01*
X150469026Y-84038789D01*
X150463611Y-84035861D01*
X150270969Y-83976228D01*
X150264844Y-83975584D01*
X150264843Y-83975584D01*
X150076542Y-83955793D01*
X150076541Y-83955793D01*
X150070414Y-83955149D01*
X150016012Y-83960100D01*
X149875722Y-83972867D01*
X149875719Y-83972868D01*
X149869583Y-83973426D01*
X149863677Y-83975164D01*
X149863673Y-83975165D01*
X149710764Y-84020169D01*
X149676128Y-84030363D01*
X149670663Y-84033220D01*
X149665611Y-84035861D01*
X149497416Y-84123792D01*
X149492611Y-84127655D01*
X149492610Y-84127656D01*
X149487487Y-84131775D01*
X149340255Y-84250153D01*
X149210630Y-84404633D01*
X149207667Y-84410022D01*
X149207664Y-84410027D01*
X149150954Y-84513183D01*
X149113480Y-84581349D01*
X149111619Y-84587216D01*
X149111618Y-84587218D01*
X149065882Y-84731398D01*
X149052504Y-84773570D01*
X149030025Y-84973973D01*
X148555061Y-84973973D01*
X148536797Y-84787702D01*
X148532531Y-84773570D01*
X148501070Y-84669367D01*
X148478511Y-84594649D01*
X148383838Y-84416594D01*
X148297757Y-84311049D01*
X148260277Y-84265093D01*
X148260274Y-84265090D01*
X148256382Y-84260318D01*
X148249802Y-84254874D01*
X148105749Y-84135703D01*
X148105750Y-84135703D01*
X148101001Y-84131775D01*
X148095584Y-84128846D01*
X148095581Y-84128844D01*
X147929031Y-84038791D01*
X147929026Y-84038789D01*
X147923611Y-84035861D01*
X147730969Y-83976228D01*
X147724844Y-83975584D01*
X147724843Y-83975584D01*
X147536542Y-83955793D01*
X147536541Y-83955793D01*
X147530414Y-83955149D01*
X147476012Y-83960100D01*
X147335722Y-83972867D01*
X147335719Y-83972868D01*
X147329583Y-83973426D01*
X147323677Y-83975164D01*
X147323673Y-83975165D01*
X147170764Y-84020169D01*
X147136128Y-84030363D01*
X147130663Y-84033220D01*
X147125611Y-84035861D01*
X146957416Y-84123792D01*
X146952611Y-84127655D01*
X146952610Y-84127656D01*
X146947487Y-84131775D01*
X146800255Y-84250153D01*
X146670630Y-84404633D01*
X146667667Y-84410022D01*
X146667664Y-84410027D01*
X146610954Y-84513183D01*
X146573480Y-84581349D01*
X146571619Y-84587216D01*
X146571618Y-84587218D01*
X146525882Y-84731398D01*
X146512504Y-84773570D01*
X146490025Y-84973973D01*
X146015061Y-84973973D01*
X145996797Y-84787702D01*
X145992531Y-84773570D01*
X145961070Y-84669367D01*
X145938511Y-84594649D01*
X145843838Y-84416594D01*
X145757757Y-84311049D01*
X145720277Y-84265093D01*
X145720274Y-84265090D01*
X145716382Y-84260318D01*
X145709802Y-84254874D01*
X145565749Y-84135703D01*
X145565750Y-84135703D01*
X145561001Y-84131775D01*
X145555584Y-84128846D01*
X145555581Y-84128844D01*
X145389031Y-84038791D01*
X145389026Y-84038789D01*
X145383611Y-84035861D01*
X145190969Y-83976228D01*
X145184844Y-83975584D01*
X145184843Y-83975584D01*
X144996542Y-83955793D01*
X144996541Y-83955793D01*
X144990414Y-83955149D01*
X144936012Y-83960100D01*
X144795722Y-83972867D01*
X144795719Y-83972868D01*
X144789583Y-83973426D01*
X144783677Y-83975164D01*
X144783673Y-83975165D01*
X144630764Y-84020169D01*
X144596128Y-84030363D01*
X144590663Y-84033220D01*
X144585611Y-84035861D01*
X144417416Y-84123792D01*
X144412611Y-84127655D01*
X144412610Y-84127656D01*
X144407487Y-84131775D01*
X144260255Y-84250153D01*
X144130630Y-84404633D01*
X144127667Y-84410022D01*
X144127664Y-84410027D01*
X144070954Y-84513183D01*
X144033480Y-84581349D01*
X144031619Y-84587216D01*
X144031618Y-84587218D01*
X143985882Y-84731398D01*
X143972504Y-84773570D01*
X143950025Y-84973973D01*
X143475061Y-84973973D01*
X143456797Y-84787702D01*
X143452531Y-84773570D01*
X143421070Y-84669367D01*
X143398511Y-84594649D01*
X143303838Y-84416594D01*
X143217757Y-84311049D01*
X143180277Y-84265093D01*
X143180274Y-84265090D01*
X143176382Y-84260318D01*
X143169802Y-84254874D01*
X143025749Y-84135703D01*
X143025750Y-84135703D01*
X143021001Y-84131775D01*
X143015584Y-84128846D01*
X143015581Y-84128844D01*
X142849031Y-84038791D01*
X142849026Y-84038789D01*
X142843611Y-84035861D01*
X142650969Y-83976228D01*
X142644844Y-83975584D01*
X142644843Y-83975584D01*
X142456542Y-83955793D01*
X142456541Y-83955793D01*
X142450414Y-83955149D01*
X142396012Y-83960100D01*
X142255722Y-83972867D01*
X142255719Y-83972868D01*
X142249583Y-83973426D01*
X142243677Y-83975164D01*
X142243673Y-83975165D01*
X142090764Y-84020169D01*
X142056128Y-84030363D01*
X142050663Y-84033220D01*
X142045611Y-84035861D01*
X141877416Y-84123792D01*
X141872611Y-84127655D01*
X141872610Y-84127656D01*
X141867487Y-84131775D01*
X141720255Y-84250153D01*
X141590630Y-84404633D01*
X141587667Y-84410022D01*
X141587664Y-84410027D01*
X141530954Y-84513183D01*
X141493480Y-84581349D01*
X141491619Y-84587216D01*
X141491618Y-84587218D01*
X141445882Y-84731398D01*
X141432504Y-84773570D01*
X141410025Y-84973973D01*
X140935061Y-84973973D01*
X140916797Y-84787702D01*
X140912531Y-84773570D01*
X140881070Y-84669367D01*
X140858511Y-84594649D01*
X140763838Y-84416594D01*
X140677757Y-84311049D01*
X140640277Y-84265093D01*
X140640274Y-84265090D01*
X140636382Y-84260318D01*
X140629802Y-84254874D01*
X140485749Y-84135703D01*
X140485750Y-84135703D01*
X140481001Y-84131775D01*
X140475584Y-84128846D01*
X140475581Y-84128844D01*
X140309031Y-84038791D01*
X140309026Y-84038789D01*
X140303611Y-84035861D01*
X140110969Y-83976228D01*
X140104844Y-83975584D01*
X140104843Y-83975584D01*
X139916542Y-83955793D01*
X139916541Y-83955793D01*
X139910414Y-83955149D01*
X139856012Y-83960100D01*
X139715722Y-83972867D01*
X139715719Y-83972868D01*
X139709583Y-83973426D01*
X139703677Y-83975164D01*
X139703673Y-83975165D01*
X139550764Y-84020169D01*
X139516128Y-84030363D01*
X139510663Y-84033220D01*
X139505611Y-84035861D01*
X139337416Y-84123792D01*
X139332611Y-84127655D01*
X139332610Y-84127656D01*
X139327487Y-84131775D01*
X139180255Y-84250153D01*
X139050630Y-84404633D01*
X139047667Y-84410022D01*
X139047664Y-84410027D01*
X138990954Y-84513183D01*
X138953480Y-84581349D01*
X138951619Y-84587216D01*
X138951618Y-84587218D01*
X138905882Y-84731398D01*
X138892504Y-84773570D01*
X138870025Y-84973973D01*
X138395061Y-84973973D01*
X138376797Y-84787702D01*
X138372531Y-84773570D01*
X138341070Y-84669367D01*
X138318511Y-84594649D01*
X138223838Y-84416594D01*
X138137757Y-84311049D01*
X138100277Y-84265093D01*
X138100274Y-84265090D01*
X138096382Y-84260318D01*
X138089802Y-84254874D01*
X137945749Y-84135703D01*
X137945750Y-84135703D01*
X137941001Y-84131775D01*
X137935584Y-84128846D01*
X137935581Y-84128844D01*
X137769031Y-84038791D01*
X137769026Y-84038789D01*
X137763611Y-84035861D01*
X137570969Y-83976228D01*
X137564844Y-83975584D01*
X137564843Y-83975584D01*
X137376542Y-83955793D01*
X137376541Y-83955793D01*
X137370414Y-83955149D01*
X137316012Y-83960100D01*
X137175722Y-83972867D01*
X137175719Y-83972868D01*
X137169583Y-83973426D01*
X137163677Y-83975164D01*
X137163673Y-83975165D01*
X137010764Y-84020169D01*
X136976128Y-84030363D01*
X136970663Y-84033220D01*
X136965611Y-84035861D01*
X136797416Y-84123792D01*
X136792611Y-84127655D01*
X136792610Y-84127656D01*
X136787487Y-84131775D01*
X136640255Y-84250153D01*
X136510630Y-84404633D01*
X136507667Y-84410022D01*
X136507664Y-84410027D01*
X136450954Y-84513183D01*
X136413480Y-84581349D01*
X136411619Y-84587216D01*
X136411618Y-84587218D01*
X136365882Y-84731398D01*
X136352504Y-84773570D01*
X136330025Y-84973973D01*
X135855061Y-84973973D01*
X135836797Y-84787702D01*
X135832531Y-84773570D01*
X135801070Y-84669367D01*
X135778511Y-84594649D01*
X135683838Y-84416594D01*
X135597757Y-84311049D01*
X135560277Y-84265093D01*
X135560274Y-84265090D01*
X135556382Y-84260318D01*
X135549802Y-84254874D01*
X135405749Y-84135703D01*
X135405750Y-84135703D01*
X135401001Y-84131775D01*
X135395584Y-84128846D01*
X135395581Y-84128844D01*
X135229031Y-84038791D01*
X135229026Y-84038789D01*
X135223611Y-84035861D01*
X135030969Y-83976228D01*
X135024844Y-83975584D01*
X135024843Y-83975584D01*
X134836542Y-83955793D01*
X134836541Y-83955793D01*
X134830414Y-83955149D01*
X134776012Y-83960100D01*
X134635722Y-83972867D01*
X134635719Y-83972868D01*
X134629583Y-83973426D01*
X134623677Y-83975164D01*
X134623673Y-83975165D01*
X134470764Y-84020169D01*
X134436128Y-84030363D01*
X134430663Y-84033220D01*
X134425611Y-84035861D01*
X134257416Y-84123792D01*
X134252611Y-84127655D01*
X134252610Y-84127656D01*
X134247487Y-84131775D01*
X134100255Y-84250153D01*
X133970630Y-84404633D01*
X133967667Y-84410022D01*
X133967664Y-84410027D01*
X133910954Y-84513183D01*
X133873480Y-84581349D01*
X133871619Y-84587216D01*
X133871618Y-84587218D01*
X133825882Y-84731398D01*
X133812504Y-84773570D01*
X133790025Y-84973973D01*
X133315061Y-84973973D01*
X133296797Y-84787702D01*
X133292531Y-84773570D01*
X133261070Y-84669367D01*
X133238511Y-84594649D01*
X133143838Y-84416594D01*
X133057757Y-84311049D01*
X133020277Y-84265093D01*
X133020274Y-84265090D01*
X133016382Y-84260318D01*
X133009802Y-84254874D01*
X132865749Y-84135703D01*
X132865750Y-84135703D01*
X132861001Y-84131775D01*
X132855584Y-84128846D01*
X132855581Y-84128844D01*
X132689031Y-84038791D01*
X132689026Y-84038789D01*
X132683611Y-84035861D01*
X132490969Y-83976228D01*
X132484844Y-83975584D01*
X132484843Y-83975584D01*
X132296542Y-83955793D01*
X132296541Y-83955793D01*
X132290414Y-83955149D01*
X132236012Y-83960100D01*
X132095722Y-83972867D01*
X132095719Y-83972868D01*
X132089583Y-83973426D01*
X132083677Y-83975164D01*
X132083673Y-83975165D01*
X131930764Y-84020169D01*
X131896128Y-84030363D01*
X131890663Y-84033220D01*
X131885611Y-84035861D01*
X131717416Y-84123792D01*
X131712611Y-84127655D01*
X131712610Y-84127656D01*
X131707487Y-84131775D01*
X131560255Y-84250153D01*
X131430630Y-84404633D01*
X131427667Y-84410022D01*
X131427664Y-84410027D01*
X131370954Y-84513183D01*
X131333480Y-84581349D01*
X131331619Y-84587216D01*
X131331618Y-84587218D01*
X131285882Y-84731398D01*
X131272504Y-84773570D01*
X131250025Y-84973973D01*
X130775061Y-84973973D01*
X130756797Y-84787702D01*
X130752531Y-84773570D01*
X130721070Y-84669367D01*
X130698511Y-84594649D01*
X130603838Y-84416594D01*
X130517757Y-84311049D01*
X130480277Y-84265093D01*
X130480274Y-84265090D01*
X130476382Y-84260318D01*
X130469802Y-84254874D01*
X130325749Y-84135703D01*
X130325750Y-84135703D01*
X130321001Y-84131775D01*
X130315584Y-84128846D01*
X130315581Y-84128844D01*
X130149031Y-84038791D01*
X130149026Y-84038789D01*
X130143611Y-84035861D01*
X129950969Y-83976228D01*
X129944844Y-83975584D01*
X129944843Y-83975584D01*
X129756542Y-83955793D01*
X129756541Y-83955793D01*
X129750414Y-83955149D01*
X129696012Y-83960100D01*
X129555722Y-83972867D01*
X129555719Y-83972868D01*
X129549583Y-83973426D01*
X129543677Y-83975164D01*
X129543673Y-83975165D01*
X129390764Y-84020169D01*
X129356128Y-84030363D01*
X129350663Y-84033220D01*
X129345611Y-84035861D01*
X129177416Y-84123792D01*
X129172611Y-84127655D01*
X129172610Y-84127656D01*
X129167487Y-84131775D01*
X129020255Y-84250153D01*
X128890630Y-84404633D01*
X128887667Y-84410022D01*
X128887664Y-84410027D01*
X128830954Y-84513183D01*
X128793480Y-84581349D01*
X128791619Y-84587216D01*
X128791618Y-84587218D01*
X128745882Y-84731398D01*
X128732504Y-84773570D01*
X128710025Y-84973973D01*
X128235061Y-84973973D01*
X128216797Y-84787702D01*
X128212531Y-84773570D01*
X128181070Y-84669367D01*
X128158511Y-84594649D01*
X128063838Y-84416594D01*
X127977757Y-84311049D01*
X127940277Y-84265093D01*
X127940274Y-84265090D01*
X127936382Y-84260318D01*
X127929802Y-84254874D01*
X127785749Y-84135703D01*
X127785750Y-84135703D01*
X127781001Y-84131775D01*
X127775584Y-84128846D01*
X127775581Y-84128844D01*
X127609031Y-84038791D01*
X127609026Y-84038789D01*
X127603611Y-84035861D01*
X127410969Y-83976228D01*
X127404844Y-83975584D01*
X127404843Y-83975584D01*
X127216542Y-83955793D01*
X127216541Y-83955793D01*
X127210414Y-83955149D01*
X127156012Y-83960100D01*
X127015722Y-83972867D01*
X127015719Y-83972868D01*
X127009583Y-83973426D01*
X127003677Y-83975164D01*
X127003673Y-83975165D01*
X126850764Y-84020169D01*
X126816128Y-84030363D01*
X126810663Y-84033220D01*
X126805611Y-84035861D01*
X126637416Y-84123792D01*
X126632611Y-84127655D01*
X126632610Y-84127656D01*
X126627487Y-84131775D01*
X126480255Y-84250153D01*
X126350630Y-84404633D01*
X126347667Y-84410022D01*
X126347664Y-84410027D01*
X126290954Y-84513183D01*
X126253480Y-84581349D01*
X126251619Y-84587216D01*
X126251618Y-84587218D01*
X126205882Y-84731398D01*
X126192504Y-84773570D01*
X126170025Y-84973973D01*
X125691499Y-84973973D01*
X125691499Y-84120840D01*
X125681155Y-84068831D01*
X125657361Y-84033220D01*
X125648640Y-84020169D01*
X125641747Y-84009853D01*
X125582769Y-83970445D01*
X125530761Y-83960100D01*
X124663481Y-83960100D01*
X123795640Y-83960101D01*
X123743631Y-83970445D01*
X123684653Y-84009853D01*
X123645245Y-84068831D01*
X123634900Y-84120839D01*
X119096251Y-84120839D01*
X120779466Y-82433973D01*
X123630025Y-82433973D01*
X123646899Y-82634926D01*
X123662761Y-82690243D01*
X123687129Y-82775223D01*
X123702484Y-82828774D01*
X123705303Y-82834259D01*
X123767185Y-82954667D01*
X123794663Y-83008134D01*
X123798489Y-83012961D01*
X123916094Y-83161344D01*
X123916099Y-83161349D01*
X123919923Y-83166174D01*
X123924616Y-83170168D01*
X123924617Y-83170169D01*
X124026760Y-83257099D01*
X124073495Y-83296874D01*
X124078873Y-83299880D01*
X124078875Y-83299881D01*
X124128052Y-83327365D01*
X124249529Y-83395256D01*
X124441319Y-83457572D01*
X124641561Y-83481449D01*
X124647696Y-83480977D01*
X124647698Y-83480977D01*
X124836485Y-83466451D01*
X124836490Y-83466450D01*
X124842626Y-83465978D01*
X124848556Y-83464322D01*
X124848558Y-83464322D01*
X124971258Y-83430064D01*
X125036858Y-83411748D01*
X125042347Y-83408975D01*
X125042353Y-83408973D01*
X125170815Y-83344081D01*
X125216857Y-83320824D01*
X125247512Y-83296874D01*
X125273402Y-83276646D01*
X125375767Y-83196669D01*
X125379793Y-83192005D01*
X125379796Y-83192002D01*
X125503507Y-83048682D01*
X125503508Y-83048680D01*
X125507536Y-83044014D01*
X125607145Y-82868671D01*
X125661648Y-82704828D01*
X125668853Y-82683169D01*
X125668854Y-82683166D01*
X125670798Y-82677321D01*
X125696073Y-82477251D01*
X125696476Y-82448400D01*
X125695061Y-82433973D01*
X126170025Y-82433973D01*
X126186899Y-82634926D01*
X126202761Y-82690243D01*
X126227129Y-82775223D01*
X126242484Y-82828774D01*
X126245303Y-82834259D01*
X126307185Y-82954667D01*
X126334663Y-83008134D01*
X126338489Y-83012961D01*
X126456094Y-83161344D01*
X126456099Y-83161349D01*
X126459923Y-83166174D01*
X126464616Y-83170168D01*
X126464617Y-83170169D01*
X126566760Y-83257099D01*
X126613495Y-83296874D01*
X126618873Y-83299880D01*
X126618875Y-83299881D01*
X126668052Y-83327365D01*
X126789529Y-83395256D01*
X126981319Y-83457572D01*
X127181561Y-83481449D01*
X127187696Y-83480977D01*
X127187698Y-83480977D01*
X127376485Y-83466451D01*
X127376490Y-83466450D01*
X127382626Y-83465978D01*
X127388556Y-83464322D01*
X127388558Y-83464322D01*
X127511258Y-83430064D01*
X127576858Y-83411748D01*
X127582347Y-83408975D01*
X127582353Y-83408973D01*
X127710815Y-83344081D01*
X127756857Y-83320824D01*
X127787512Y-83296874D01*
X127813402Y-83276646D01*
X127915767Y-83196669D01*
X127919793Y-83192005D01*
X127919796Y-83192002D01*
X128043507Y-83048682D01*
X128043508Y-83048680D01*
X128047536Y-83044014D01*
X128147145Y-82868671D01*
X128201648Y-82704828D01*
X128208853Y-82683169D01*
X128208854Y-82683166D01*
X128210798Y-82677321D01*
X128236073Y-82477251D01*
X128236476Y-82448400D01*
X128235061Y-82433973D01*
X128710025Y-82433973D01*
X128726899Y-82634926D01*
X128742761Y-82690243D01*
X128767129Y-82775223D01*
X128782484Y-82828774D01*
X128785303Y-82834259D01*
X128847185Y-82954667D01*
X128874663Y-83008134D01*
X128878489Y-83012961D01*
X128996094Y-83161344D01*
X128996099Y-83161349D01*
X128999923Y-83166174D01*
X129004616Y-83170168D01*
X129004617Y-83170169D01*
X129106760Y-83257099D01*
X129153495Y-83296874D01*
X129158873Y-83299880D01*
X129158875Y-83299881D01*
X129208052Y-83327365D01*
X129329529Y-83395256D01*
X129521319Y-83457572D01*
X129721561Y-83481449D01*
X129727696Y-83480977D01*
X129727698Y-83480977D01*
X129916485Y-83466451D01*
X129916490Y-83466450D01*
X129922626Y-83465978D01*
X129928556Y-83464322D01*
X129928558Y-83464322D01*
X130051258Y-83430064D01*
X130116858Y-83411748D01*
X130122347Y-83408975D01*
X130122353Y-83408973D01*
X130250815Y-83344081D01*
X130296857Y-83320824D01*
X130327512Y-83296874D01*
X130353402Y-83276646D01*
X130455767Y-83196669D01*
X130459793Y-83192005D01*
X130459796Y-83192002D01*
X130583507Y-83048682D01*
X130583508Y-83048680D01*
X130587536Y-83044014D01*
X130687145Y-82868671D01*
X130741648Y-82704828D01*
X130748853Y-82683169D01*
X130748854Y-82683166D01*
X130750798Y-82677321D01*
X130776073Y-82477251D01*
X130776476Y-82448400D01*
X130775061Y-82433973D01*
X131250025Y-82433973D01*
X131266899Y-82634926D01*
X131282761Y-82690243D01*
X131307129Y-82775223D01*
X131322484Y-82828774D01*
X131325303Y-82834259D01*
X131387185Y-82954667D01*
X131414663Y-83008134D01*
X131418489Y-83012961D01*
X131536094Y-83161344D01*
X131536099Y-83161349D01*
X131539923Y-83166174D01*
X131544616Y-83170168D01*
X131544617Y-83170169D01*
X131646760Y-83257099D01*
X131693495Y-83296874D01*
X131698873Y-83299880D01*
X131698875Y-83299881D01*
X131748052Y-83327365D01*
X131869529Y-83395256D01*
X132061319Y-83457572D01*
X132261561Y-83481449D01*
X132267696Y-83480977D01*
X132267698Y-83480977D01*
X132456485Y-83466451D01*
X132456490Y-83466450D01*
X132462626Y-83465978D01*
X132468556Y-83464322D01*
X132468558Y-83464322D01*
X132591258Y-83430064D01*
X132656858Y-83411748D01*
X132662347Y-83408975D01*
X132662353Y-83408973D01*
X132790815Y-83344081D01*
X132836857Y-83320824D01*
X132867512Y-83296874D01*
X132893402Y-83276646D01*
X132995767Y-83196669D01*
X132999793Y-83192005D01*
X132999796Y-83192002D01*
X133123507Y-83048682D01*
X133123508Y-83048680D01*
X133127536Y-83044014D01*
X133227145Y-82868671D01*
X133281648Y-82704828D01*
X133288853Y-82683169D01*
X133288854Y-82683166D01*
X133290798Y-82677321D01*
X133316073Y-82477251D01*
X133316476Y-82448400D01*
X133315061Y-82433973D01*
X133790025Y-82433973D01*
X133806899Y-82634926D01*
X133822761Y-82690243D01*
X133847129Y-82775223D01*
X133862484Y-82828774D01*
X133865303Y-82834259D01*
X133927185Y-82954667D01*
X133954663Y-83008134D01*
X133958489Y-83012961D01*
X134076094Y-83161344D01*
X134076099Y-83161349D01*
X134079923Y-83166174D01*
X134084616Y-83170168D01*
X134084617Y-83170169D01*
X134186760Y-83257099D01*
X134233495Y-83296874D01*
X134238873Y-83299880D01*
X134238875Y-83299881D01*
X134288052Y-83327365D01*
X134409529Y-83395256D01*
X134601319Y-83457572D01*
X134801561Y-83481449D01*
X134807696Y-83480977D01*
X134807698Y-83480977D01*
X134996485Y-83466451D01*
X134996490Y-83466450D01*
X135002626Y-83465978D01*
X135008556Y-83464322D01*
X135008558Y-83464322D01*
X135131258Y-83430064D01*
X135196858Y-83411748D01*
X135202347Y-83408975D01*
X135202353Y-83408973D01*
X135330815Y-83344081D01*
X135376857Y-83320824D01*
X135407512Y-83296874D01*
X135433402Y-83276646D01*
X135535767Y-83196669D01*
X135539793Y-83192005D01*
X135539796Y-83192002D01*
X135663507Y-83048682D01*
X135663508Y-83048680D01*
X135667536Y-83044014D01*
X135767145Y-82868671D01*
X135821648Y-82704828D01*
X135828853Y-82683169D01*
X135828854Y-82683166D01*
X135830798Y-82677321D01*
X135856073Y-82477251D01*
X135856476Y-82448400D01*
X135855061Y-82433973D01*
X136330025Y-82433973D01*
X136346899Y-82634926D01*
X136362761Y-82690243D01*
X136387129Y-82775223D01*
X136402484Y-82828774D01*
X136405303Y-82834259D01*
X136467185Y-82954667D01*
X136494663Y-83008134D01*
X136498489Y-83012961D01*
X136616094Y-83161344D01*
X136616099Y-83161349D01*
X136619923Y-83166174D01*
X136624616Y-83170168D01*
X136624617Y-83170169D01*
X136726760Y-83257099D01*
X136773495Y-83296874D01*
X136778873Y-83299880D01*
X136778875Y-83299881D01*
X136828052Y-83327365D01*
X136949529Y-83395256D01*
X137141319Y-83457572D01*
X137341561Y-83481449D01*
X137347696Y-83480977D01*
X137347698Y-83480977D01*
X137536485Y-83466451D01*
X137536490Y-83466450D01*
X137542626Y-83465978D01*
X137548556Y-83464322D01*
X137548558Y-83464322D01*
X137671258Y-83430064D01*
X137736858Y-83411748D01*
X137742347Y-83408975D01*
X137742353Y-83408973D01*
X137870815Y-83344081D01*
X137916857Y-83320824D01*
X137947512Y-83296874D01*
X137973402Y-83276646D01*
X138075767Y-83196669D01*
X138079793Y-83192005D01*
X138079796Y-83192002D01*
X138203507Y-83048682D01*
X138203508Y-83048680D01*
X138207536Y-83044014D01*
X138307145Y-82868671D01*
X138361648Y-82704828D01*
X138368853Y-82683169D01*
X138368854Y-82683166D01*
X138370798Y-82677321D01*
X138396073Y-82477251D01*
X138396476Y-82448400D01*
X138395061Y-82433973D01*
X138870025Y-82433973D01*
X138886899Y-82634926D01*
X138902761Y-82690243D01*
X138927129Y-82775223D01*
X138942484Y-82828774D01*
X138945303Y-82834259D01*
X139007185Y-82954667D01*
X139034663Y-83008134D01*
X139038489Y-83012961D01*
X139156094Y-83161344D01*
X139156099Y-83161349D01*
X139159923Y-83166174D01*
X139164616Y-83170168D01*
X139164617Y-83170169D01*
X139266760Y-83257099D01*
X139313495Y-83296874D01*
X139318873Y-83299880D01*
X139318875Y-83299881D01*
X139368052Y-83327365D01*
X139489529Y-83395256D01*
X139681319Y-83457572D01*
X139881561Y-83481449D01*
X139887696Y-83480977D01*
X139887698Y-83480977D01*
X140076485Y-83466451D01*
X140076490Y-83466450D01*
X140082626Y-83465978D01*
X140088556Y-83464322D01*
X140088558Y-83464322D01*
X140211258Y-83430064D01*
X140276858Y-83411748D01*
X140282347Y-83408975D01*
X140282353Y-83408973D01*
X140410815Y-83344081D01*
X140456857Y-83320824D01*
X140487512Y-83296874D01*
X140513402Y-83276646D01*
X140615767Y-83196669D01*
X140619793Y-83192005D01*
X140619796Y-83192002D01*
X140743507Y-83048682D01*
X140743508Y-83048680D01*
X140747536Y-83044014D01*
X140847145Y-82868671D01*
X140901648Y-82704828D01*
X140908853Y-82683169D01*
X140908854Y-82683166D01*
X140910798Y-82677321D01*
X140936073Y-82477251D01*
X140936476Y-82448400D01*
X140935061Y-82433973D01*
X141410025Y-82433973D01*
X141426899Y-82634926D01*
X141442761Y-82690243D01*
X141467129Y-82775223D01*
X141482484Y-82828774D01*
X141485303Y-82834259D01*
X141547185Y-82954667D01*
X141574663Y-83008134D01*
X141578489Y-83012961D01*
X141696094Y-83161344D01*
X141696099Y-83161349D01*
X141699923Y-83166174D01*
X141704616Y-83170168D01*
X141704617Y-83170169D01*
X141806760Y-83257099D01*
X141853495Y-83296874D01*
X141858873Y-83299880D01*
X141858875Y-83299881D01*
X141908052Y-83327365D01*
X142029529Y-83395256D01*
X142221319Y-83457572D01*
X142421561Y-83481449D01*
X142427696Y-83480977D01*
X142427698Y-83480977D01*
X142616485Y-83466451D01*
X142616490Y-83466450D01*
X142622626Y-83465978D01*
X142628556Y-83464322D01*
X142628558Y-83464322D01*
X142751258Y-83430064D01*
X142816858Y-83411748D01*
X142822347Y-83408975D01*
X142822353Y-83408973D01*
X142950815Y-83344081D01*
X142996857Y-83320824D01*
X143027512Y-83296874D01*
X143053402Y-83276646D01*
X143155767Y-83196669D01*
X143159793Y-83192005D01*
X143159796Y-83192002D01*
X143283507Y-83048682D01*
X143283508Y-83048680D01*
X143287536Y-83044014D01*
X143387145Y-82868671D01*
X143441648Y-82704828D01*
X143448853Y-82683169D01*
X143448854Y-82683166D01*
X143450798Y-82677321D01*
X143476073Y-82477251D01*
X143476476Y-82448400D01*
X143475061Y-82433973D01*
X143950025Y-82433973D01*
X143966899Y-82634926D01*
X143982761Y-82690243D01*
X144007129Y-82775223D01*
X144022484Y-82828774D01*
X144025303Y-82834259D01*
X144087185Y-82954667D01*
X144114663Y-83008134D01*
X144118489Y-83012961D01*
X144236094Y-83161344D01*
X144236099Y-83161349D01*
X144239923Y-83166174D01*
X144244616Y-83170168D01*
X144244617Y-83170169D01*
X144346760Y-83257099D01*
X144393495Y-83296874D01*
X144398873Y-83299880D01*
X144398875Y-83299881D01*
X144448052Y-83327365D01*
X144569529Y-83395256D01*
X144761319Y-83457572D01*
X144961561Y-83481449D01*
X144967696Y-83480977D01*
X144967698Y-83480977D01*
X145156485Y-83466451D01*
X145156490Y-83466450D01*
X145162626Y-83465978D01*
X145168556Y-83464322D01*
X145168558Y-83464322D01*
X145291258Y-83430064D01*
X145356858Y-83411748D01*
X145362347Y-83408975D01*
X145362353Y-83408973D01*
X145490815Y-83344081D01*
X145536857Y-83320824D01*
X145567512Y-83296874D01*
X145593402Y-83276646D01*
X145695767Y-83196669D01*
X145699793Y-83192005D01*
X145699796Y-83192002D01*
X145823507Y-83048682D01*
X145823508Y-83048680D01*
X145827536Y-83044014D01*
X145927145Y-82868671D01*
X145981648Y-82704828D01*
X145988853Y-82683169D01*
X145988854Y-82683166D01*
X145990798Y-82677321D01*
X146016073Y-82477251D01*
X146016476Y-82448400D01*
X146015061Y-82433973D01*
X146490025Y-82433973D01*
X146506899Y-82634926D01*
X146522761Y-82690243D01*
X146547129Y-82775223D01*
X146562484Y-82828774D01*
X146565303Y-82834259D01*
X146627185Y-82954667D01*
X146654663Y-83008134D01*
X146658489Y-83012961D01*
X146776094Y-83161344D01*
X146776099Y-83161349D01*
X146779923Y-83166174D01*
X146784616Y-83170168D01*
X146784617Y-83170169D01*
X146886760Y-83257099D01*
X146933495Y-83296874D01*
X146938873Y-83299880D01*
X146938875Y-83299881D01*
X146988052Y-83327365D01*
X147109529Y-83395256D01*
X147301319Y-83457572D01*
X147501561Y-83481449D01*
X147507696Y-83480977D01*
X147507698Y-83480977D01*
X147696485Y-83466451D01*
X147696490Y-83466450D01*
X147702626Y-83465978D01*
X147708556Y-83464322D01*
X147708558Y-83464322D01*
X147831258Y-83430064D01*
X147896858Y-83411748D01*
X147902347Y-83408975D01*
X147902353Y-83408973D01*
X148030815Y-83344081D01*
X148076857Y-83320824D01*
X148107512Y-83296874D01*
X148133402Y-83276646D01*
X148235767Y-83196669D01*
X148239793Y-83192005D01*
X148239796Y-83192002D01*
X148363507Y-83048682D01*
X148363508Y-83048680D01*
X148367536Y-83044014D01*
X148467145Y-82868671D01*
X148521648Y-82704828D01*
X148528853Y-82683169D01*
X148528854Y-82683166D01*
X148530798Y-82677321D01*
X148556073Y-82477251D01*
X148556476Y-82448400D01*
X148536797Y-82247702D01*
X148532531Y-82233570D01*
X148501070Y-82129367D01*
X148478511Y-82054649D01*
X148383838Y-81876594D01*
X148297757Y-81771049D01*
X148260277Y-81725093D01*
X148260274Y-81725090D01*
X148256382Y-81720318D01*
X148249802Y-81714874D01*
X148105749Y-81595703D01*
X148105750Y-81595703D01*
X148101001Y-81591775D01*
X148095584Y-81588846D01*
X148095581Y-81588844D01*
X147929031Y-81498791D01*
X147929026Y-81498789D01*
X147923611Y-81495861D01*
X147730969Y-81436228D01*
X147724844Y-81435584D01*
X147724843Y-81435584D01*
X147536542Y-81415793D01*
X147536541Y-81415793D01*
X147530414Y-81415149D01*
X147446288Y-81422805D01*
X147335722Y-81432867D01*
X147335719Y-81432868D01*
X147329583Y-81433426D01*
X147323677Y-81435164D01*
X147323673Y-81435165D01*
X147254106Y-81455640D01*
X147136128Y-81490363D01*
X147130663Y-81493220D01*
X147125611Y-81495861D01*
X146957416Y-81583792D01*
X146952611Y-81587655D01*
X146952610Y-81587656D01*
X146947487Y-81591775D01*
X146800255Y-81710153D01*
X146670630Y-81864633D01*
X146667667Y-81870022D01*
X146667664Y-81870027D01*
X146610954Y-81973183D01*
X146573480Y-82041349D01*
X146571619Y-82047216D01*
X146571618Y-82047218D01*
X146525882Y-82191398D01*
X146512504Y-82233570D01*
X146490025Y-82433973D01*
X146015061Y-82433973D01*
X145996797Y-82247702D01*
X145992531Y-82233570D01*
X145961070Y-82129367D01*
X145938511Y-82054649D01*
X145843838Y-81876594D01*
X145757757Y-81771049D01*
X145720277Y-81725093D01*
X145720274Y-81725090D01*
X145716382Y-81720318D01*
X145709802Y-81714874D01*
X145565749Y-81595703D01*
X145565750Y-81595703D01*
X145561001Y-81591775D01*
X145555584Y-81588846D01*
X145555581Y-81588844D01*
X145389031Y-81498791D01*
X145389026Y-81498789D01*
X145383611Y-81495861D01*
X145190969Y-81436228D01*
X145184844Y-81435584D01*
X145184843Y-81435584D01*
X144996542Y-81415793D01*
X144996541Y-81415793D01*
X144990414Y-81415149D01*
X144906288Y-81422805D01*
X144795722Y-81432867D01*
X144795719Y-81432868D01*
X144789583Y-81433426D01*
X144783677Y-81435164D01*
X144783673Y-81435165D01*
X144714106Y-81455640D01*
X144596128Y-81490363D01*
X144590663Y-81493220D01*
X144585611Y-81495861D01*
X144417416Y-81583792D01*
X144412611Y-81587655D01*
X144412610Y-81587656D01*
X144407487Y-81591775D01*
X144260255Y-81710153D01*
X144130630Y-81864633D01*
X144127667Y-81870022D01*
X144127664Y-81870027D01*
X144070954Y-81973183D01*
X144033480Y-82041349D01*
X144031619Y-82047216D01*
X144031618Y-82047218D01*
X143985882Y-82191398D01*
X143972504Y-82233570D01*
X143950025Y-82433973D01*
X143475061Y-82433973D01*
X143456797Y-82247702D01*
X143452531Y-82233570D01*
X143421070Y-82129367D01*
X143398511Y-82054649D01*
X143303838Y-81876594D01*
X143217757Y-81771049D01*
X143180277Y-81725093D01*
X143180274Y-81725090D01*
X143176382Y-81720318D01*
X143169802Y-81714874D01*
X143025749Y-81595703D01*
X143025750Y-81595703D01*
X143021001Y-81591775D01*
X143015584Y-81588846D01*
X143015581Y-81588844D01*
X142849031Y-81498791D01*
X142849026Y-81498789D01*
X142843611Y-81495861D01*
X142650969Y-81436228D01*
X142644844Y-81435584D01*
X142644843Y-81435584D01*
X142456542Y-81415793D01*
X142456541Y-81415793D01*
X142450414Y-81415149D01*
X142366288Y-81422805D01*
X142255722Y-81432867D01*
X142255719Y-81432868D01*
X142249583Y-81433426D01*
X142243677Y-81435164D01*
X142243673Y-81435165D01*
X142174106Y-81455640D01*
X142056128Y-81490363D01*
X142050663Y-81493220D01*
X142045611Y-81495861D01*
X141877416Y-81583792D01*
X141872611Y-81587655D01*
X141872610Y-81587656D01*
X141867487Y-81591775D01*
X141720255Y-81710153D01*
X141590630Y-81864633D01*
X141587667Y-81870022D01*
X141587664Y-81870027D01*
X141530954Y-81973183D01*
X141493480Y-82041349D01*
X141491619Y-82047216D01*
X141491618Y-82047218D01*
X141445882Y-82191398D01*
X141432504Y-82233570D01*
X141410025Y-82433973D01*
X140935061Y-82433973D01*
X140916797Y-82247702D01*
X140912531Y-82233570D01*
X140881070Y-82129367D01*
X140858511Y-82054649D01*
X140763838Y-81876594D01*
X140677757Y-81771049D01*
X140640277Y-81725093D01*
X140640274Y-81725090D01*
X140636382Y-81720318D01*
X140629802Y-81714874D01*
X140485749Y-81595703D01*
X140485750Y-81595703D01*
X140481001Y-81591775D01*
X140475584Y-81588846D01*
X140475581Y-81588844D01*
X140309031Y-81498791D01*
X140309026Y-81498789D01*
X140303611Y-81495861D01*
X140110969Y-81436228D01*
X140104844Y-81435584D01*
X140104843Y-81435584D01*
X139916542Y-81415793D01*
X139916541Y-81415793D01*
X139910414Y-81415149D01*
X139826288Y-81422805D01*
X139715722Y-81432867D01*
X139715719Y-81432868D01*
X139709583Y-81433426D01*
X139703677Y-81435164D01*
X139703673Y-81435165D01*
X139634106Y-81455640D01*
X139516128Y-81490363D01*
X139510663Y-81493220D01*
X139505611Y-81495861D01*
X139337416Y-81583792D01*
X139332611Y-81587655D01*
X139332610Y-81587656D01*
X139327487Y-81591775D01*
X139180255Y-81710153D01*
X139050630Y-81864633D01*
X139047667Y-81870022D01*
X139047664Y-81870027D01*
X138990954Y-81973183D01*
X138953480Y-82041349D01*
X138951619Y-82047216D01*
X138951618Y-82047218D01*
X138905882Y-82191398D01*
X138892504Y-82233570D01*
X138870025Y-82433973D01*
X138395061Y-82433973D01*
X138376797Y-82247702D01*
X138372531Y-82233570D01*
X138341070Y-82129367D01*
X138318511Y-82054649D01*
X138223838Y-81876594D01*
X138137757Y-81771049D01*
X138100277Y-81725093D01*
X138100274Y-81725090D01*
X138096382Y-81720318D01*
X138089802Y-81714874D01*
X137945749Y-81595703D01*
X137945750Y-81595703D01*
X137941001Y-81591775D01*
X137935584Y-81588846D01*
X137935581Y-81588844D01*
X137769031Y-81498791D01*
X137769026Y-81498789D01*
X137763611Y-81495861D01*
X137570969Y-81436228D01*
X137564844Y-81435584D01*
X137564843Y-81435584D01*
X137376542Y-81415793D01*
X137376541Y-81415793D01*
X137370414Y-81415149D01*
X137286288Y-81422805D01*
X137175722Y-81432867D01*
X137175719Y-81432868D01*
X137169583Y-81433426D01*
X137163677Y-81435164D01*
X137163673Y-81435165D01*
X137094106Y-81455640D01*
X136976128Y-81490363D01*
X136970663Y-81493220D01*
X136965611Y-81495861D01*
X136797416Y-81583792D01*
X136792611Y-81587655D01*
X136792610Y-81587656D01*
X136787487Y-81591775D01*
X136640255Y-81710153D01*
X136510630Y-81864633D01*
X136507667Y-81870022D01*
X136507664Y-81870027D01*
X136450954Y-81973183D01*
X136413480Y-82041349D01*
X136411619Y-82047216D01*
X136411618Y-82047218D01*
X136365882Y-82191398D01*
X136352504Y-82233570D01*
X136330025Y-82433973D01*
X135855061Y-82433973D01*
X135836797Y-82247702D01*
X135832531Y-82233570D01*
X135801070Y-82129367D01*
X135778511Y-82054649D01*
X135683838Y-81876594D01*
X135597757Y-81771049D01*
X135560277Y-81725093D01*
X135560274Y-81725090D01*
X135556382Y-81720318D01*
X135549802Y-81714874D01*
X135405749Y-81595703D01*
X135405750Y-81595703D01*
X135401001Y-81591775D01*
X135395584Y-81588846D01*
X135395581Y-81588844D01*
X135229031Y-81498791D01*
X135229026Y-81498789D01*
X135223611Y-81495861D01*
X135030969Y-81436228D01*
X135024844Y-81435584D01*
X135024843Y-81435584D01*
X134836542Y-81415793D01*
X134836541Y-81415793D01*
X134830414Y-81415149D01*
X134746288Y-81422805D01*
X134635722Y-81432867D01*
X134635719Y-81432868D01*
X134629583Y-81433426D01*
X134623677Y-81435164D01*
X134623673Y-81435165D01*
X134554106Y-81455640D01*
X134436128Y-81490363D01*
X134430663Y-81493220D01*
X134425611Y-81495861D01*
X134257416Y-81583792D01*
X134252611Y-81587655D01*
X134252610Y-81587656D01*
X134247487Y-81591775D01*
X134100255Y-81710153D01*
X133970630Y-81864633D01*
X133967667Y-81870022D01*
X133967664Y-81870027D01*
X133910954Y-81973183D01*
X133873480Y-82041349D01*
X133871619Y-82047216D01*
X133871618Y-82047218D01*
X133825882Y-82191398D01*
X133812504Y-82233570D01*
X133790025Y-82433973D01*
X133315061Y-82433973D01*
X133296797Y-82247702D01*
X133292531Y-82233570D01*
X133261070Y-82129367D01*
X133238511Y-82054649D01*
X133143838Y-81876594D01*
X133057757Y-81771049D01*
X133020277Y-81725093D01*
X133020274Y-81725090D01*
X133016382Y-81720318D01*
X133009802Y-81714874D01*
X132865749Y-81595703D01*
X132865750Y-81595703D01*
X132861001Y-81591775D01*
X132855584Y-81588846D01*
X132855581Y-81588844D01*
X132689031Y-81498791D01*
X132689026Y-81498789D01*
X132683611Y-81495861D01*
X132490969Y-81436228D01*
X132484844Y-81435584D01*
X132484843Y-81435584D01*
X132296542Y-81415793D01*
X132296541Y-81415793D01*
X132290414Y-81415149D01*
X132206288Y-81422805D01*
X132095722Y-81432867D01*
X132095719Y-81432868D01*
X132089583Y-81433426D01*
X132083677Y-81435164D01*
X132083673Y-81435165D01*
X132014106Y-81455640D01*
X131896128Y-81490363D01*
X131890663Y-81493220D01*
X131885611Y-81495861D01*
X131717416Y-81583792D01*
X131712611Y-81587655D01*
X131712610Y-81587656D01*
X131707487Y-81591775D01*
X131560255Y-81710153D01*
X131430630Y-81864633D01*
X131427667Y-81870022D01*
X131427664Y-81870027D01*
X131370954Y-81973183D01*
X131333480Y-82041349D01*
X131331619Y-82047216D01*
X131331618Y-82047218D01*
X131285882Y-82191398D01*
X131272504Y-82233570D01*
X131250025Y-82433973D01*
X130775061Y-82433973D01*
X130756797Y-82247702D01*
X130752531Y-82233570D01*
X130721070Y-82129367D01*
X130698511Y-82054649D01*
X130603838Y-81876594D01*
X130517757Y-81771049D01*
X130480277Y-81725093D01*
X130480274Y-81725090D01*
X130476382Y-81720318D01*
X130469802Y-81714874D01*
X130325749Y-81595703D01*
X130325750Y-81595703D01*
X130321001Y-81591775D01*
X130315584Y-81588846D01*
X130315581Y-81588844D01*
X130149031Y-81498791D01*
X130149026Y-81498789D01*
X130143611Y-81495861D01*
X129950969Y-81436228D01*
X129944844Y-81435584D01*
X129944843Y-81435584D01*
X129756542Y-81415793D01*
X129756541Y-81415793D01*
X129750414Y-81415149D01*
X129666288Y-81422805D01*
X129555722Y-81432867D01*
X129555719Y-81432868D01*
X129549583Y-81433426D01*
X129543677Y-81435164D01*
X129543673Y-81435165D01*
X129474106Y-81455640D01*
X129356128Y-81490363D01*
X129350663Y-81493220D01*
X129345611Y-81495861D01*
X129177416Y-81583792D01*
X129172611Y-81587655D01*
X129172610Y-81587656D01*
X129167487Y-81591775D01*
X129020255Y-81710153D01*
X128890630Y-81864633D01*
X128887667Y-81870022D01*
X128887664Y-81870027D01*
X128830954Y-81973183D01*
X128793480Y-82041349D01*
X128791619Y-82047216D01*
X128791618Y-82047218D01*
X128745882Y-82191398D01*
X128732504Y-82233570D01*
X128710025Y-82433973D01*
X128235061Y-82433973D01*
X128216797Y-82247702D01*
X128212531Y-82233570D01*
X128181070Y-82129367D01*
X128158511Y-82054649D01*
X128063838Y-81876594D01*
X127977757Y-81771049D01*
X127940277Y-81725093D01*
X127940274Y-81725090D01*
X127936382Y-81720318D01*
X127929802Y-81714874D01*
X127785749Y-81595703D01*
X127785750Y-81595703D01*
X127781001Y-81591775D01*
X127775584Y-81588846D01*
X127775581Y-81588844D01*
X127609031Y-81498791D01*
X127609026Y-81498789D01*
X127603611Y-81495861D01*
X127410969Y-81436228D01*
X127404844Y-81435584D01*
X127404843Y-81435584D01*
X127216542Y-81415793D01*
X127216541Y-81415793D01*
X127210414Y-81415149D01*
X127126288Y-81422805D01*
X127015722Y-81432867D01*
X127015719Y-81432868D01*
X127009583Y-81433426D01*
X127003677Y-81435164D01*
X127003673Y-81435165D01*
X126934106Y-81455640D01*
X126816128Y-81490363D01*
X126810663Y-81493220D01*
X126805611Y-81495861D01*
X126637416Y-81583792D01*
X126632611Y-81587655D01*
X126632610Y-81587656D01*
X126627487Y-81591775D01*
X126480255Y-81710153D01*
X126350630Y-81864633D01*
X126347667Y-81870022D01*
X126347664Y-81870027D01*
X126290954Y-81973183D01*
X126253480Y-82041349D01*
X126251619Y-82047216D01*
X126251618Y-82047218D01*
X126205882Y-82191398D01*
X126192504Y-82233570D01*
X126170025Y-82433973D01*
X125695061Y-82433973D01*
X125676797Y-82247702D01*
X125672531Y-82233570D01*
X125641070Y-82129367D01*
X125618511Y-82054649D01*
X125523838Y-81876594D01*
X125437757Y-81771049D01*
X125400277Y-81725093D01*
X125400274Y-81725090D01*
X125396382Y-81720318D01*
X125389802Y-81714874D01*
X125245749Y-81595703D01*
X125245750Y-81595703D01*
X125241001Y-81591775D01*
X125235584Y-81588846D01*
X125235581Y-81588844D01*
X125069031Y-81498791D01*
X125069026Y-81498789D01*
X125063611Y-81495861D01*
X124870969Y-81436228D01*
X124864844Y-81435584D01*
X124864843Y-81435584D01*
X124676542Y-81415793D01*
X124676541Y-81415793D01*
X124670414Y-81415149D01*
X124586288Y-81422805D01*
X124475722Y-81432867D01*
X124475719Y-81432868D01*
X124469583Y-81433426D01*
X124463677Y-81435164D01*
X124463673Y-81435165D01*
X124394106Y-81455640D01*
X124276128Y-81490363D01*
X124270663Y-81493220D01*
X124265611Y-81495861D01*
X124097416Y-81583792D01*
X124092611Y-81587655D01*
X124092610Y-81587656D01*
X124087487Y-81591775D01*
X123940255Y-81710153D01*
X123810630Y-81864633D01*
X123807667Y-81870022D01*
X123807664Y-81870027D01*
X123750954Y-81973183D01*
X123713480Y-82041349D01*
X123711619Y-82047216D01*
X123711618Y-82047218D01*
X123665882Y-82191398D01*
X123652504Y-82233570D01*
X123630025Y-82433973D01*
X120779466Y-82433973D01*
X126322746Y-76878668D01*
X126322749Y-76878671D01*
X126322842Y-76878572D01*
X126938109Y-76263305D01*
X127000421Y-76229279D01*
X127027204Y-76226400D01*
X152347396Y-76226400D01*
X152415517Y-76246402D01*
G37*
%TD.AperFunction*%
%TD*%
M02*
