%TF.GenerationSoftware,KiCad,Pcbnew,(6.0.10)*%
%TF.CreationDate,2023-01-10T15:23:54-05:00*%
%TF.ProjectId,cyton hat,6379746f-6e20-4686-9174-2e6b69636164,rev?*%
%TF.SameCoordinates,Original*%
%TF.FileFunction,Legend,Bot*%
%TF.FilePolarity,Positive*%
%FSLAX46Y46*%
G04 Gerber Fmt 4.6, Leading zero omitted, Abs format (unit mm)*
G04 Created by KiCad (PCBNEW (6.0.10)) date 2023-01-10 15:23:54*
%MOMM*%
%LPD*%
G01*
G04 APERTURE LIST*
%ADD10C,0.150000*%
%ADD11C,0.120000*%
%ADD12C,0.127000*%
%ADD13C,0.200000*%
G04 APERTURE END LIST*
D10*
%TO.C,C26*%
X146212857Y-101654942D02*
X146260476Y-101702561D01*
X146403333Y-101750180D01*
X146498571Y-101750180D01*
X146641428Y-101702561D01*
X146736666Y-101607323D01*
X146784285Y-101512085D01*
X146831904Y-101321609D01*
X146831904Y-101178752D01*
X146784285Y-100988276D01*
X146736666Y-100893038D01*
X146641428Y-100797800D01*
X146498571Y-100750180D01*
X146403333Y-100750180D01*
X146260476Y-100797800D01*
X146212857Y-100845419D01*
X145831904Y-100845419D02*
X145784285Y-100797800D01*
X145689047Y-100750180D01*
X145450952Y-100750180D01*
X145355714Y-100797800D01*
X145308095Y-100845419D01*
X145260476Y-100940657D01*
X145260476Y-101035895D01*
X145308095Y-101178752D01*
X145879523Y-101750180D01*
X145260476Y-101750180D01*
X144403333Y-100750180D02*
X144593809Y-100750180D01*
X144689047Y-100797800D01*
X144736666Y-100845419D01*
X144831904Y-100988276D01*
X144879523Y-101178752D01*
X144879523Y-101559704D01*
X144831904Y-101654942D01*
X144784285Y-101702561D01*
X144689047Y-101750180D01*
X144498571Y-101750180D01*
X144403333Y-101702561D01*
X144355714Y-101654942D01*
X144308095Y-101559704D01*
X144308095Y-101321609D01*
X144355714Y-101226371D01*
X144403333Y-101178752D01*
X144498571Y-101131133D01*
X144689047Y-101131133D01*
X144784285Y-101178752D01*
X144831904Y-101226371D01*
X144879523Y-101321609D01*
%TO.C,C25*%
X135256542Y-98772742D02*
X135304161Y-98725123D01*
X135351780Y-98582266D01*
X135351780Y-98487028D01*
X135304161Y-98344171D01*
X135208923Y-98248933D01*
X135113685Y-98201314D01*
X134923209Y-98153695D01*
X134780352Y-98153695D01*
X134589876Y-98201314D01*
X134494638Y-98248933D01*
X134399400Y-98344171D01*
X134351780Y-98487028D01*
X134351780Y-98582266D01*
X134399400Y-98725123D01*
X134447019Y-98772742D01*
X134447019Y-99153695D02*
X134399400Y-99201314D01*
X134351780Y-99296552D01*
X134351780Y-99534647D01*
X134399400Y-99629885D01*
X134447019Y-99677504D01*
X134542257Y-99725123D01*
X134637495Y-99725123D01*
X134780352Y-99677504D01*
X135351780Y-99106076D01*
X135351780Y-99725123D01*
X134351780Y-100629885D02*
X134351780Y-100153695D01*
X134827971Y-100106076D01*
X134780352Y-100153695D01*
X134732733Y-100248933D01*
X134732733Y-100487028D01*
X134780352Y-100582266D01*
X134827971Y-100629885D01*
X134923209Y-100677504D01*
X135161304Y-100677504D01*
X135256542Y-100629885D01*
X135304161Y-100582266D01*
X135351780Y-100487028D01*
X135351780Y-100248933D01*
X135304161Y-100153695D01*
X135256542Y-100106076D01*
%TO.C,C5*%
X148959866Y-94057742D02*
X149007485Y-94105361D01*
X149150342Y-94152980D01*
X149245580Y-94152980D01*
X149388438Y-94105361D01*
X149483676Y-94010123D01*
X149531295Y-93914885D01*
X149578914Y-93724409D01*
X149578914Y-93581552D01*
X149531295Y-93391076D01*
X149483676Y-93295838D01*
X149388438Y-93200600D01*
X149245580Y-93152980D01*
X149150342Y-93152980D01*
X149007485Y-93200600D01*
X148959866Y-93248219D01*
X148055104Y-93152980D02*
X148531295Y-93152980D01*
X148578914Y-93629171D01*
X148531295Y-93581552D01*
X148436057Y-93533933D01*
X148197961Y-93533933D01*
X148102723Y-93581552D01*
X148055104Y-93629171D01*
X148007485Y-93724409D01*
X148007485Y-93962504D01*
X148055104Y-94057742D01*
X148102723Y-94105361D01*
X148197961Y-94152980D01*
X148436057Y-94152980D01*
X148531295Y-94105361D01*
X148578914Y-94057742D01*
%TO.C,C4*%
X143879866Y-93930742D02*
X143927485Y-93978361D01*
X144070342Y-94025980D01*
X144165580Y-94025980D01*
X144308438Y-93978361D01*
X144403676Y-93883123D01*
X144451295Y-93787885D01*
X144498914Y-93597409D01*
X144498914Y-93454552D01*
X144451295Y-93264076D01*
X144403676Y-93168838D01*
X144308438Y-93073600D01*
X144165580Y-93025980D01*
X144070342Y-93025980D01*
X143927485Y-93073600D01*
X143879866Y-93121219D01*
X143022723Y-93359314D02*
X143022723Y-94025980D01*
X143260819Y-92978361D02*
X143498914Y-93692647D01*
X142879866Y-93692647D01*
%TO.C,C20*%
X138634742Y-101211142D02*
X138682361Y-101163523D01*
X138729980Y-101020666D01*
X138729980Y-100925428D01*
X138682361Y-100782571D01*
X138587123Y-100687333D01*
X138491885Y-100639714D01*
X138301409Y-100592095D01*
X138158552Y-100592095D01*
X137968076Y-100639714D01*
X137872838Y-100687333D01*
X137777600Y-100782571D01*
X137729980Y-100925428D01*
X137729980Y-101020666D01*
X137777600Y-101163523D01*
X137825219Y-101211142D01*
X137825219Y-101592095D02*
X137777600Y-101639714D01*
X137729980Y-101734952D01*
X137729980Y-101973047D01*
X137777600Y-102068285D01*
X137825219Y-102115904D01*
X137920457Y-102163523D01*
X138015695Y-102163523D01*
X138158552Y-102115904D01*
X138729980Y-101544476D01*
X138729980Y-102163523D01*
X137729980Y-102782571D02*
X137729980Y-102877809D01*
X137777600Y-102973047D01*
X137825219Y-103020666D01*
X137920457Y-103068285D01*
X138110933Y-103115904D01*
X138349028Y-103115904D01*
X138539504Y-103068285D01*
X138634742Y-103020666D01*
X138682361Y-102973047D01*
X138729980Y-102877809D01*
X138729980Y-102782571D01*
X138682361Y-102687333D01*
X138634742Y-102639714D01*
X138539504Y-102592095D01*
X138349028Y-102544476D01*
X138110933Y-102544476D01*
X137920457Y-102592095D01*
X137825219Y-102639714D01*
X137777600Y-102687333D01*
X137729980Y-102782571D01*
%TO.C,D4*%
X144451295Y-91231980D02*
X144451295Y-90231980D01*
X144213200Y-90231980D01*
X144070342Y-90279600D01*
X143975104Y-90374838D01*
X143927485Y-90470076D01*
X143879866Y-90660552D01*
X143879866Y-90803409D01*
X143927485Y-90993885D01*
X143975104Y-91089123D01*
X144070342Y-91184361D01*
X144213200Y-91231980D01*
X144451295Y-91231980D01*
X143022723Y-90565314D02*
X143022723Y-91231980D01*
X143260819Y-90184361D02*
X143498914Y-90898647D01*
X142879866Y-90898647D01*
X145237200Y-86421980D02*
X145237200Y-86660076D01*
X145475295Y-86564838D02*
X145237200Y-86660076D01*
X144999104Y-86564838D01*
X145380057Y-86850552D02*
X145237200Y-86660076D01*
X145094342Y-86850552D01*
%TO.C,D6*%
X154611295Y-91028780D02*
X154611295Y-90028780D01*
X154373200Y-90028780D01*
X154230342Y-90076400D01*
X154135104Y-90171638D01*
X154087485Y-90266876D01*
X154039866Y-90457352D01*
X154039866Y-90600209D01*
X154087485Y-90790685D01*
X154135104Y-90885923D01*
X154230342Y-90981161D01*
X154373200Y-91028780D01*
X154611295Y-91028780D01*
X153182723Y-90028780D02*
X153373200Y-90028780D01*
X153468438Y-90076400D01*
X153516057Y-90124019D01*
X153611295Y-90266876D01*
X153658914Y-90457352D01*
X153658914Y-90838304D01*
X153611295Y-90933542D01*
X153563676Y-90981161D01*
X153468438Y-91028780D01*
X153277961Y-91028780D01*
X153182723Y-90981161D01*
X153135104Y-90933542D01*
X153087485Y-90838304D01*
X153087485Y-90600209D01*
X153135104Y-90504971D01*
X153182723Y-90457352D01*
X153277961Y-90409733D01*
X153468438Y-90409733D01*
X153563676Y-90457352D01*
X153611295Y-90504971D01*
X153658914Y-90600209D01*
X155397200Y-86421980D02*
X155397200Y-86660076D01*
X155635295Y-86564838D02*
X155397200Y-86660076D01*
X155159104Y-86564838D01*
X155540057Y-86850552D02*
X155397200Y-86660076D01*
X155254342Y-86850552D01*
%TO.C,C1*%
X128639866Y-93905342D02*
X128687485Y-93952961D01*
X128830342Y-94000580D01*
X128925580Y-94000580D01*
X129068438Y-93952961D01*
X129163676Y-93857723D01*
X129211295Y-93762485D01*
X129258914Y-93572009D01*
X129258914Y-93429152D01*
X129211295Y-93238676D01*
X129163676Y-93143438D01*
X129068438Y-93048200D01*
X128925580Y-93000580D01*
X128830342Y-93000580D01*
X128687485Y-93048200D01*
X128639866Y-93095819D01*
X127687485Y-94000580D02*
X128258914Y-94000580D01*
X127973200Y-94000580D02*
X127973200Y-93000580D01*
X128068438Y-93143438D01*
X128163676Y-93238676D01*
X128258914Y-93286295D01*
%TO.C,F1*%
X153038133Y-122576771D02*
X153371466Y-122576771D01*
X153371466Y-123100580D02*
X153371466Y-122100580D01*
X152895276Y-122100580D01*
X151990514Y-123100580D02*
X152561942Y-123100580D01*
X152276228Y-123100580D02*
X152276228Y-122100580D01*
X152371466Y-122243438D01*
X152466704Y-122338676D01*
X152561942Y-122386295D01*
%TO.C,C9*%
X133719866Y-103943542D02*
X133767485Y-103991161D01*
X133910342Y-104038780D01*
X134005580Y-104038780D01*
X134148438Y-103991161D01*
X134243676Y-103895923D01*
X134291295Y-103800685D01*
X134338914Y-103610209D01*
X134338914Y-103467352D01*
X134291295Y-103276876D01*
X134243676Y-103181638D01*
X134148438Y-103086400D01*
X134005580Y-103038780D01*
X133910342Y-103038780D01*
X133767485Y-103086400D01*
X133719866Y-103134019D01*
X133243676Y-104038780D02*
X133053200Y-104038780D01*
X132957961Y-103991161D01*
X132910342Y-103943542D01*
X132815104Y-103800685D01*
X132767485Y-103610209D01*
X132767485Y-103229257D01*
X132815104Y-103134019D01*
X132862723Y-103086400D01*
X132957961Y-103038780D01*
X133148438Y-103038780D01*
X133243676Y-103086400D01*
X133291295Y-103134019D01*
X133338914Y-103229257D01*
X133338914Y-103467352D01*
X133291295Y-103562590D01*
X133243676Y-103610209D01*
X133148438Y-103657828D01*
X132957961Y-103657828D01*
X132862723Y-103610209D01*
X132815104Y-103562590D01*
X132767485Y-103467352D01*
%TO.C,D3*%
X139320495Y-91231980D02*
X139320495Y-90231980D01*
X139082400Y-90231980D01*
X138939542Y-90279600D01*
X138844304Y-90374838D01*
X138796685Y-90470076D01*
X138749066Y-90660552D01*
X138749066Y-90803409D01*
X138796685Y-90993885D01*
X138844304Y-91089123D01*
X138939542Y-91184361D01*
X139082400Y-91231980D01*
X139320495Y-91231980D01*
X138415733Y-90231980D02*
X137796685Y-90231980D01*
X138130019Y-90612933D01*
X137987161Y-90612933D01*
X137891923Y-90660552D01*
X137844304Y-90708171D01*
X137796685Y-90803409D01*
X137796685Y-91041504D01*
X137844304Y-91136742D01*
X137891923Y-91184361D01*
X137987161Y-91231980D01*
X138272876Y-91231980D01*
X138368114Y-91184361D01*
X138415733Y-91136742D01*
X140157200Y-86421980D02*
X140157200Y-86660076D01*
X140395295Y-86564838D02*
X140157200Y-86660076D01*
X139919104Y-86564838D01*
X140300057Y-86850552D02*
X140157200Y-86660076D01*
X140014342Y-86850552D01*
%TO.C,C23*%
X137339342Y-101211142D02*
X137386961Y-101163523D01*
X137434580Y-101020666D01*
X137434580Y-100925428D01*
X137386961Y-100782571D01*
X137291723Y-100687333D01*
X137196485Y-100639714D01*
X137006009Y-100592095D01*
X136863152Y-100592095D01*
X136672676Y-100639714D01*
X136577438Y-100687333D01*
X136482200Y-100782571D01*
X136434580Y-100925428D01*
X136434580Y-101020666D01*
X136482200Y-101163523D01*
X136529819Y-101211142D01*
X136529819Y-101592095D02*
X136482200Y-101639714D01*
X136434580Y-101734952D01*
X136434580Y-101973047D01*
X136482200Y-102068285D01*
X136529819Y-102115904D01*
X136625057Y-102163523D01*
X136720295Y-102163523D01*
X136863152Y-102115904D01*
X137434580Y-101544476D01*
X137434580Y-102163523D01*
X136434580Y-102496857D02*
X136434580Y-103115904D01*
X136815533Y-102782571D01*
X136815533Y-102925428D01*
X136863152Y-103020666D01*
X136910771Y-103068285D01*
X137006009Y-103115904D01*
X137244104Y-103115904D01*
X137339342Y-103068285D01*
X137386961Y-103020666D01*
X137434580Y-102925428D01*
X137434580Y-102639714D01*
X137386961Y-102544476D01*
X137339342Y-102496857D01*
%TO.C,C3*%
X138799866Y-93879942D02*
X138847485Y-93927561D01*
X138990342Y-93975180D01*
X139085580Y-93975180D01*
X139228438Y-93927561D01*
X139323676Y-93832323D01*
X139371295Y-93737085D01*
X139418914Y-93546609D01*
X139418914Y-93403752D01*
X139371295Y-93213276D01*
X139323676Y-93118038D01*
X139228438Y-93022800D01*
X139085580Y-92975180D01*
X138990342Y-92975180D01*
X138847485Y-93022800D01*
X138799866Y-93070419D01*
X138466533Y-92975180D02*
X137847485Y-92975180D01*
X138180819Y-93356133D01*
X138037961Y-93356133D01*
X137942723Y-93403752D01*
X137895104Y-93451371D01*
X137847485Y-93546609D01*
X137847485Y-93784704D01*
X137895104Y-93879942D01*
X137942723Y-93927561D01*
X138037961Y-93975180D01*
X138323676Y-93975180D01*
X138418914Y-93927561D01*
X138466533Y-93879942D01*
%TO.C,L2*%
X148451866Y-129204980D02*
X148928057Y-129204980D01*
X148928057Y-128204980D01*
X148166152Y-128300219D02*
X148118533Y-128252600D01*
X148023295Y-128204980D01*
X147785200Y-128204980D01*
X147689961Y-128252600D01*
X147642342Y-128300219D01*
X147594723Y-128395457D01*
X147594723Y-128490695D01*
X147642342Y-128633552D01*
X148213771Y-129204980D01*
X147594723Y-129204980D01*
%TO.C,C24*%
X146289057Y-100384942D02*
X146336676Y-100432561D01*
X146479533Y-100480180D01*
X146574771Y-100480180D01*
X146717628Y-100432561D01*
X146812866Y-100337323D01*
X146860485Y-100242085D01*
X146908104Y-100051609D01*
X146908104Y-99908752D01*
X146860485Y-99718276D01*
X146812866Y-99623038D01*
X146717628Y-99527800D01*
X146574771Y-99480180D01*
X146479533Y-99480180D01*
X146336676Y-99527800D01*
X146289057Y-99575419D01*
X145908104Y-99575419D02*
X145860485Y-99527800D01*
X145765247Y-99480180D01*
X145527152Y-99480180D01*
X145431914Y-99527800D01*
X145384295Y-99575419D01*
X145336676Y-99670657D01*
X145336676Y-99765895D01*
X145384295Y-99908752D01*
X145955723Y-100480180D01*
X145336676Y-100480180D01*
X144479533Y-99813514D02*
X144479533Y-100480180D01*
X144717628Y-99432561D02*
X144955723Y-100146847D01*
X144336676Y-100146847D01*
%TO.C,D1*%
X129211295Y-91054180D02*
X129211295Y-90054180D01*
X128973200Y-90054180D01*
X128830342Y-90101800D01*
X128735104Y-90197038D01*
X128687485Y-90292276D01*
X128639866Y-90482752D01*
X128639866Y-90625609D01*
X128687485Y-90816085D01*
X128735104Y-90911323D01*
X128830342Y-91006561D01*
X128973200Y-91054180D01*
X129211295Y-91054180D01*
X127687485Y-91054180D02*
X128258914Y-91054180D01*
X127973200Y-91054180D02*
X127973200Y-90054180D01*
X128068438Y-90197038D01*
X128163676Y-90292276D01*
X128258914Y-90339895D01*
X129997200Y-86421980D02*
X129997200Y-86660076D01*
X130235295Y-86564838D02*
X129997200Y-86660076D01*
X129759104Y-86564838D01*
X130140057Y-86850552D02*
X129997200Y-86660076D01*
X129854342Y-86850552D01*
%TO.C,C2*%
X133719866Y-93956142D02*
X133767485Y-94003761D01*
X133910342Y-94051380D01*
X134005580Y-94051380D01*
X134148438Y-94003761D01*
X134243676Y-93908523D01*
X134291295Y-93813285D01*
X134338914Y-93622809D01*
X134338914Y-93479952D01*
X134291295Y-93289476D01*
X134243676Y-93194238D01*
X134148438Y-93099000D01*
X134005580Y-93051380D01*
X133910342Y-93051380D01*
X133767485Y-93099000D01*
X133719866Y-93146619D01*
X133338914Y-93146619D02*
X133291295Y-93099000D01*
X133196057Y-93051380D01*
X132957961Y-93051380D01*
X132862723Y-93099000D01*
X132815104Y-93146619D01*
X132767485Y-93241857D01*
X132767485Y-93337095D01*
X132815104Y-93479952D01*
X133386533Y-94051380D01*
X132767485Y-94051380D01*
%TO.C,C22*%
X140844542Y-98925142D02*
X140892161Y-98877523D01*
X140939780Y-98734666D01*
X140939780Y-98639428D01*
X140892161Y-98496571D01*
X140796923Y-98401333D01*
X140701685Y-98353714D01*
X140511209Y-98306095D01*
X140368352Y-98306095D01*
X140177876Y-98353714D01*
X140082638Y-98401333D01*
X139987400Y-98496571D01*
X139939780Y-98639428D01*
X139939780Y-98734666D01*
X139987400Y-98877523D01*
X140035019Y-98925142D01*
X140035019Y-99306095D02*
X139987400Y-99353714D01*
X139939780Y-99448952D01*
X139939780Y-99687047D01*
X139987400Y-99782285D01*
X140035019Y-99829904D01*
X140130257Y-99877523D01*
X140225495Y-99877523D01*
X140368352Y-99829904D01*
X140939780Y-99258476D01*
X140939780Y-99877523D01*
X140035019Y-100258476D02*
X139987400Y-100306095D01*
X139939780Y-100401333D01*
X139939780Y-100639428D01*
X139987400Y-100734666D01*
X140035019Y-100782285D01*
X140130257Y-100829904D01*
X140225495Y-100829904D01*
X140368352Y-100782285D01*
X140939780Y-100210857D01*
X140939780Y-100829904D01*
%TO.C,D2*%
X134316695Y-91104980D02*
X134316695Y-90104980D01*
X134078600Y-90104980D01*
X133935742Y-90152600D01*
X133840504Y-90247838D01*
X133792885Y-90343076D01*
X133745266Y-90533552D01*
X133745266Y-90676409D01*
X133792885Y-90866885D01*
X133840504Y-90962123D01*
X133935742Y-91057361D01*
X134078600Y-91104980D01*
X134316695Y-91104980D01*
X133364314Y-90200219D02*
X133316695Y-90152600D01*
X133221457Y-90104980D01*
X132983361Y-90104980D01*
X132888123Y-90152600D01*
X132840504Y-90200219D01*
X132792885Y-90295457D01*
X132792885Y-90390695D01*
X132840504Y-90533552D01*
X133411933Y-91104980D01*
X132792885Y-91104980D01*
X135077200Y-86421980D02*
X135077200Y-86660076D01*
X135315295Y-86564838D02*
X135077200Y-86660076D01*
X134839104Y-86564838D01*
X135220057Y-86850552D02*
X135077200Y-86660076D01*
X134934342Y-86850552D01*
%TO.C,C7*%
X133694466Y-102569342D02*
X133742085Y-102616961D01*
X133884942Y-102664580D01*
X133980180Y-102664580D01*
X134123038Y-102616961D01*
X134218276Y-102521723D01*
X134265895Y-102426485D01*
X134313514Y-102236009D01*
X134313514Y-102093152D01*
X134265895Y-101902676D01*
X134218276Y-101807438D01*
X134123038Y-101712200D01*
X133980180Y-101664580D01*
X133884942Y-101664580D01*
X133742085Y-101712200D01*
X133694466Y-101759819D01*
X133361133Y-101664580D02*
X132694466Y-101664580D01*
X133123038Y-102664580D01*
%TO.C,D5*%
X149505895Y-91181180D02*
X149505895Y-90181180D01*
X149267800Y-90181180D01*
X149124942Y-90228800D01*
X149029704Y-90324038D01*
X148982085Y-90419276D01*
X148934466Y-90609752D01*
X148934466Y-90752609D01*
X148982085Y-90943085D01*
X149029704Y-91038323D01*
X149124942Y-91133561D01*
X149267800Y-91181180D01*
X149505895Y-91181180D01*
X148029704Y-90181180D02*
X148505895Y-90181180D01*
X148553514Y-90657371D01*
X148505895Y-90609752D01*
X148410657Y-90562133D01*
X148172561Y-90562133D01*
X148077323Y-90609752D01*
X148029704Y-90657371D01*
X147982085Y-90752609D01*
X147982085Y-90990704D01*
X148029704Y-91085942D01*
X148077323Y-91133561D01*
X148172561Y-91181180D01*
X148410657Y-91181180D01*
X148505895Y-91133561D01*
X148553514Y-91085942D01*
X150317200Y-86421980D02*
X150317200Y-86660076D01*
X150555295Y-86564838D02*
X150317200Y-86660076D01*
X150079104Y-86564838D01*
X150460057Y-86850552D02*
X150317200Y-86660076D01*
X150174342Y-86850552D01*
D11*
%TO.C,C26*%
X143493436Y-101706000D02*
X143277764Y-101706000D01*
X143493436Y-100986000D02*
X143277764Y-100986000D01*
%TO.C,C25*%
X136453200Y-99508364D02*
X136453200Y-99724036D01*
X135733200Y-99508364D02*
X135733200Y-99724036D01*
D12*
%TO.C,C5*%
X149962200Y-96335600D02*
X149962200Y-94875600D01*
X147624200Y-94875600D02*
X147624200Y-96335600D01*
D13*
X149693200Y-97305600D02*
G75*
G03*
X149693200Y-97305600I-100000J0D01*
G01*
D12*
%TO.C,C4*%
X144882200Y-96335600D02*
X144882200Y-94875600D01*
X142544200Y-94875600D02*
X142544200Y-96335600D01*
D13*
X144613200Y-97305600D02*
G75*
G03*
X144613200Y-97305600I-100000J0D01*
G01*
D11*
%TO.C,C20*%
X138612200Y-99508364D02*
X138612200Y-99724036D01*
X137892200Y-99508364D02*
X137892200Y-99724036D01*
%TO.C,D4*%
X144551400Y-89700100D02*
X142875000Y-89700100D01*
X142875000Y-87287100D02*
X144551400Y-87287100D01*
%TO.C,D6*%
X154711400Y-89700100D02*
X153035000Y-89700100D01*
X153035000Y-87287100D02*
X154711400Y-87287100D01*
D12*
%TO.C,C1*%
X129642200Y-96335600D02*
X129642200Y-94875600D01*
X127304200Y-94875600D02*
X127304200Y-96335600D01*
D13*
X129373200Y-97305600D02*
G75*
G03*
X129373200Y-97305600I-100000J0D01*
G01*
D11*
%TO.C,F1*%
X154091052Y-127008200D02*
X151318548Y-127008200D01*
X154091052Y-123588200D02*
X151318548Y-123588200D01*
%TO.C,C9*%
X135172564Y-103046000D02*
X135388236Y-103046000D01*
X135172564Y-103766000D02*
X135388236Y-103766000D01*
%TO.C,D3*%
X139471400Y-89700100D02*
X137795000Y-89700100D01*
X137795000Y-87287100D02*
X139471400Y-87287100D01*
%TO.C,C23*%
X137520000Y-99508364D02*
X137520000Y-99724036D01*
X136800000Y-99508364D02*
X136800000Y-99724036D01*
D12*
%TO.C,C3*%
X139802200Y-96321300D02*
X139802200Y-94861300D01*
X137464200Y-94861300D02*
X137464200Y-96321300D01*
D13*
X139533200Y-97291300D02*
G75*
G03*
X139533200Y-97291300I-100000J0D01*
G01*
D11*
%TO.C,C24*%
X143493436Y-100639200D02*
X143277764Y-100639200D01*
X143493436Y-99919200D02*
X143277764Y-99919200D01*
%TO.C,D1*%
X129311400Y-89700100D02*
X127635000Y-89700100D01*
X127635000Y-87287100D02*
X129311400Y-87287100D01*
D12*
%TO.C,C2*%
X134722200Y-96310200D02*
X134722200Y-94850200D01*
X132384200Y-94850200D02*
X132384200Y-96310200D01*
D13*
X134453200Y-97280200D02*
G75*
G03*
X134453200Y-97280200I-100000J0D01*
G01*
D11*
%TO.C,C22*%
X139704400Y-99508364D02*
X139704400Y-99724036D01*
X138984400Y-99508364D02*
X138984400Y-99724036D01*
%TO.C,D2*%
X134391400Y-89700100D02*
X132715000Y-89700100D01*
X132715000Y-87287100D02*
X134391400Y-87287100D01*
%TO.C,C7*%
X135223364Y-101849600D02*
X135439036Y-101849600D01*
X135223364Y-102569600D02*
X135439036Y-102569600D01*
%TO.C,D5*%
X149631400Y-89700100D02*
X147955000Y-89700100D01*
X147955000Y-87287100D02*
X149631400Y-87287100D01*
%TD*%
M02*
