%TF.GenerationSoftware,KiCad,Pcbnew,(6.0.10)*%
%TF.CreationDate,2023-01-11T14:45:21-05:00*%
%TF.ProjectId,cyton hat,6379746f-6e20-4686-9174-2e6b69636164,rev?*%
%TF.SameCoordinates,Original*%
%TF.FileFunction,Legend,Top*%
%TF.FilePolarity,Positive*%
%FSLAX46Y46*%
G04 Gerber Fmt 4.6, Leading zero omitted, Abs format (unit mm)*
G04 Created by KiCad (PCBNEW (6.0.10)) date 2023-01-11 14:45:21*
%MOMM*%
%LPD*%
G01*
G04 APERTURE LIST*
%ADD10C,0.150000*%
%ADD11C,0.120000*%
%ADD12C,0.127000*%
%ADD13C,0.200000*%
%ADD14C,0.100000*%
G04 APERTURE END LIST*
D10*
%TO.C,C13*%
X125315742Y-102007942D02*
X125268123Y-102055561D01*
X125125266Y-102103180D01*
X125030028Y-102103180D01*
X124887171Y-102055561D01*
X124791933Y-101960323D01*
X124744314Y-101865085D01*
X124696695Y-101674609D01*
X124696695Y-101531752D01*
X124744314Y-101341276D01*
X124791933Y-101246038D01*
X124887171Y-101150800D01*
X125030028Y-101103180D01*
X125125266Y-101103180D01*
X125268123Y-101150800D01*
X125315742Y-101198419D01*
X126268123Y-102103180D02*
X125696695Y-102103180D01*
X125982409Y-102103180D02*
X125982409Y-101103180D01*
X125887171Y-101246038D01*
X125791933Y-101341276D01*
X125696695Y-101388895D01*
X126601457Y-101103180D02*
X127220504Y-101103180D01*
X126887171Y-101484133D01*
X127030028Y-101484133D01*
X127125266Y-101531752D01*
X127172885Y-101579371D01*
X127220504Y-101674609D01*
X127220504Y-101912704D01*
X127172885Y-102007942D01*
X127125266Y-102055561D01*
X127030028Y-102103180D01*
X126744314Y-102103180D01*
X126649076Y-102055561D01*
X126601457Y-102007942D01*
%TO.C,D11*%
X122382114Y-123896380D02*
X122382114Y-122896380D01*
X122620209Y-122896380D01*
X122763066Y-122944000D01*
X122858304Y-123039238D01*
X122905923Y-123134476D01*
X122953542Y-123324952D01*
X122953542Y-123467809D01*
X122905923Y-123658285D01*
X122858304Y-123753523D01*
X122763066Y-123848761D01*
X122620209Y-123896380D01*
X122382114Y-123896380D01*
X123905923Y-123896380D02*
X123334495Y-123896380D01*
X123620209Y-123896380D02*
X123620209Y-122896380D01*
X123524971Y-123039238D01*
X123429733Y-123134476D01*
X123334495Y-123182095D01*
X124858304Y-123896380D02*
X124286876Y-123896380D01*
X124572590Y-123896380D02*
X124572590Y-122896380D01*
X124477352Y-123039238D01*
X124382114Y-123134476D01*
X124286876Y-123182095D01*
%TO.C,R2*%
X133234133Y-88920580D02*
X132900800Y-88444390D01*
X132662704Y-88920580D02*
X132662704Y-87920580D01*
X133043657Y-87920580D01*
X133138895Y-87968200D01*
X133186514Y-88015819D01*
X133234133Y-88111057D01*
X133234133Y-88253914D01*
X133186514Y-88349152D01*
X133138895Y-88396771D01*
X133043657Y-88444390D01*
X132662704Y-88444390D01*
X133615085Y-88015819D02*
X133662704Y-87968200D01*
X133757942Y-87920580D01*
X133996038Y-87920580D01*
X134091276Y-87968200D01*
X134138895Y-88015819D01*
X134186514Y-88111057D01*
X134186514Y-88206295D01*
X134138895Y-88349152D01*
X133567466Y-88920580D01*
X134186514Y-88920580D01*
%TO.C,D7*%
X132281704Y-127553980D02*
X132281704Y-126553980D01*
X132519800Y-126553980D01*
X132662657Y-126601600D01*
X132757895Y-126696838D01*
X132805514Y-126792076D01*
X132853133Y-126982552D01*
X132853133Y-127125409D01*
X132805514Y-127315885D01*
X132757895Y-127411123D01*
X132662657Y-127506361D01*
X132519800Y-127553980D01*
X132281704Y-127553980D01*
X133186466Y-126553980D02*
X133853133Y-126553980D01*
X133424561Y-127553980D01*
%TO.C,C14*%
X131675142Y-99423457D02*
X131722761Y-99471076D01*
X131770380Y-99613933D01*
X131770380Y-99709171D01*
X131722761Y-99852028D01*
X131627523Y-99947266D01*
X131532285Y-99994885D01*
X131341809Y-100042504D01*
X131198952Y-100042504D01*
X131008476Y-99994885D01*
X130913238Y-99947266D01*
X130818000Y-99852028D01*
X130770380Y-99709171D01*
X130770380Y-99613933D01*
X130818000Y-99471076D01*
X130865619Y-99423457D01*
X131770380Y-98471076D02*
X131770380Y-99042504D01*
X131770380Y-98756790D02*
X130770380Y-98756790D01*
X130913238Y-98852028D01*
X131008476Y-98947266D01*
X131056095Y-99042504D01*
X131103714Y-97613933D02*
X131770380Y-97613933D01*
X130722761Y-97852028D02*
X131437047Y-98090123D01*
X131437047Y-97471076D01*
%TO.C,C15*%
X147677142Y-96299257D02*
X147724761Y-96346876D01*
X147772380Y-96489733D01*
X147772380Y-96584971D01*
X147724761Y-96727828D01*
X147629523Y-96823066D01*
X147534285Y-96870685D01*
X147343809Y-96918304D01*
X147200952Y-96918304D01*
X147010476Y-96870685D01*
X146915238Y-96823066D01*
X146820000Y-96727828D01*
X146772380Y-96584971D01*
X146772380Y-96489733D01*
X146820000Y-96346876D01*
X146867619Y-96299257D01*
X147772380Y-95346876D02*
X147772380Y-95918304D01*
X147772380Y-95632590D02*
X146772380Y-95632590D01*
X146915238Y-95727828D01*
X147010476Y-95823066D01*
X147058095Y-95918304D01*
X146772380Y-94442114D02*
X146772380Y-94918304D01*
X147248571Y-94965923D01*
X147200952Y-94918304D01*
X147153333Y-94823066D01*
X147153333Y-94584971D01*
X147200952Y-94489733D01*
X147248571Y-94442114D01*
X147343809Y-94394495D01*
X147581904Y-94394495D01*
X147677142Y-94442114D01*
X147724761Y-94489733D01*
X147772380Y-94584971D01*
X147772380Y-94823066D01*
X147724761Y-94918304D01*
X147677142Y-94965923D01*
%TO.C,R6*%
X146375380Y-96178666D02*
X145899190Y-96512000D01*
X146375380Y-96750095D02*
X145375380Y-96750095D01*
X145375380Y-96369142D01*
X145423000Y-96273904D01*
X145470619Y-96226285D01*
X145565857Y-96178666D01*
X145708714Y-96178666D01*
X145803952Y-96226285D01*
X145851571Y-96273904D01*
X145899190Y-96369142D01*
X145899190Y-96750095D01*
X145375380Y-95321523D02*
X145375380Y-95512000D01*
X145423000Y-95607238D01*
X145470619Y-95654857D01*
X145613476Y-95750095D01*
X145803952Y-95797714D01*
X146184904Y-95797714D01*
X146280142Y-95750095D01*
X146327761Y-95702476D01*
X146375380Y-95607238D01*
X146375380Y-95416761D01*
X146327761Y-95321523D01*
X146280142Y-95273904D01*
X146184904Y-95226285D01*
X145946809Y-95226285D01*
X145851571Y-95273904D01*
X145803952Y-95321523D01*
X145756333Y-95416761D01*
X145756333Y-95607238D01*
X145803952Y-95702476D01*
X145851571Y-95750095D01*
X145946809Y-95797714D01*
%TO.C,R8*%
X136799580Y-125566466D02*
X136323390Y-125899800D01*
X136799580Y-126137895D02*
X135799580Y-126137895D01*
X135799580Y-125756942D01*
X135847200Y-125661704D01*
X135894819Y-125614085D01*
X135990057Y-125566466D01*
X136132914Y-125566466D01*
X136228152Y-125614085D01*
X136275771Y-125661704D01*
X136323390Y-125756942D01*
X136323390Y-126137895D01*
X136228152Y-124995038D02*
X136180533Y-125090276D01*
X136132914Y-125137895D01*
X136037676Y-125185514D01*
X135990057Y-125185514D01*
X135894819Y-125137895D01*
X135847200Y-125090276D01*
X135799580Y-124995038D01*
X135799580Y-124804561D01*
X135847200Y-124709323D01*
X135894819Y-124661704D01*
X135990057Y-124614085D01*
X136037676Y-124614085D01*
X136132914Y-124661704D01*
X136180533Y-124709323D01*
X136228152Y-124804561D01*
X136228152Y-124995038D01*
X136275771Y-125090276D01*
X136323390Y-125137895D01*
X136418628Y-125185514D01*
X136609104Y-125185514D01*
X136704342Y-125137895D01*
X136751961Y-125090276D01*
X136799580Y-124995038D01*
X136799580Y-124804561D01*
X136751961Y-124709323D01*
X136704342Y-124661704D01*
X136609104Y-124614085D01*
X136418628Y-124614085D01*
X136323390Y-124661704D01*
X136275771Y-124709323D01*
X136228152Y-124804561D01*
%TO.C,R1*%
X128204933Y-88844380D02*
X127871600Y-88368190D01*
X127633504Y-88844380D02*
X127633504Y-87844380D01*
X128014457Y-87844380D01*
X128109695Y-87892000D01*
X128157314Y-87939619D01*
X128204933Y-88034857D01*
X128204933Y-88177714D01*
X128157314Y-88272952D01*
X128109695Y-88320571D01*
X128014457Y-88368190D01*
X127633504Y-88368190D01*
X129157314Y-88844380D02*
X128585885Y-88844380D01*
X128871600Y-88844380D02*
X128871600Y-87844380D01*
X128776361Y-87987238D01*
X128681123Y-88082476D01*
X128585885Y-88130095D01*
%TO.C,C11*%
X130192542Y-107672142D02*
X130144923Y-107719761D01*
X130002066Y-107767380D01*
X129906828Y-107767380D01*
X129763971Y-107719761D01*
X129668733Y-107624523D01*
X129621114Y-107529285D01*
X129573495Y-107338809D01*
X129573495Y-107195952D01*
X129621114Y-107005476D01*
X129668733Y-106910238D01*
X129763971Y-106815000D01*
X129906828Y-106767380D01*
X130002066Y-106767380D01*
X130144923Y-106815000D01*
X130192542Y-106862619D01*
X131144923Y-107767380D02*
X130573495Y-107767380D01*
X130859209Y-107767380D02*
X130859209Y-106767380D01*
X130763971Y-106910238D01*
X130668733Y-107005476D01*
X130573495Y-107053095D01*
X132097304Y-107767380D02*
X131525876Y-107767380D01*
X131811590Y-107767380D02*
X131811590Y-106767380D01*
X131716352Y-106910238D01*
X131621114Y-107005476D01*
X131525876Y-107053095D01*
%TO.C,L1*%
X142352733Y-130474980D02*
X141876542Y-130474980D01*
X141876542Y-129474980D01*
X143209876Y-130474980D02*
X142638447Y-130474980D01*
X142924161Y-130474980D02*
X142924161Y-129474980D01*
X142828923Y-129617838D01*
X142733685Y-129713076D01*
X142638447Y-129760695D01*
%TO.C,R5*%
X148651933Y-88844380D02*
X148318600Y-88368190D01*
X148080504Y-88844380D02*
X148080504Y-87844380D01*
X148461457Y-87844380D01*
X148556695Y-87892000D01*
X148604314Y-87939619D01*
X148651933Y-88034857D01*
X148651933Y-88177714D01*
X148604314Y-88272952D01*
X148556695Y-88320571D01*
X148461457Y-88368190D01*
X148080504Y-88368190D01*
X149556695Y-87844380D02*
X149080504Y-87844380D01*
X149032885Y-88320571D01*
X149080504Y-88272952D01*
X149175742Y-88225333D01*
X149413838Y-88225333D01*
X149509076Y-88272952D01*
X149556695Y-88320571D01*
X149604314Y-88415809D01*
X149604314Y-88653904D01*
X149556695Y-88749142D01*
X149509076Y-88796761D01*
X149413838Y-88844380D01*
X149175742Y-88844380D01*
X149080504Y-88796761D01*
X149032885Y-88749142D01*
%TO.C,J3*%
X155876666Y-125258580D02*
X155876666Y-125972866D01*
X155829047Y-126115723D01*
X155733809Y-126210961D01*
X155590952Y-126258580D01*
X155495714Y-126258580D01*
X156257619Y-125258580D02*
X156876666Y-125258580D01*
X156543333Y-125639533D01*
X156686190Y-125639533D01*
X156781428Y-125687152D01*
X156829047Y-125734771D01*
X156876666Y-125830009D01*
X156876666Y-126068104D01*
X156829047Y-126163342D01*
X156781428Y-126210961D01*
X156686190Y-126258580D01*
X156400476Y-126258580D01*
X156305238Y-126210961D01*
X156257619Y-126163342D01*
%TO.C,C19*%
X144665342Y-110847142D02*
X144617723Y-110894761D01*
X144474866Y-110942380D01*
X144379628Y-110942380D01*
X144236771Y-110894761D01*
X144141533Y-110799523D01*
X144093914Y-110704285D01*
X144046295Y-110513809D01*
X144046295Y-110370952D01*
X144093914Y-110180476D01*
X144141533Y-110085238D01*
X144236771Y-109990000D01*
X144379628Y-109942380D01*
X144474866Y-109942380D01*
X144617723Y-109990000D01*
X144665342Y-110037619D01*
X145617723Y-110942380D02*
X145046295Y-110942380D01*
X145332009Y-110942380D02*
X145332009Y-109942380D01*
X145236771Y-110085238D01*
X145141533Y-110180476D01*
X145046295Y-110228095D01*
X146093914Y-110942380D02*
X146284390Y-110942380D01*
X146379628Y-110894761D01*
X146427247Y-110847142D01*
X146522485Y-110704285D01*
X146570104Y-110513809D01*
X146570104Y-110132857D01*
X146522485Y-110037619D01*
X146474866Y-109990000D01*
X146379628Y-109942380D01*
X146189152Y-109942380D01*
X146093914Y-109990000D01*
X146046295Y-110037619D01*
X145998676Y-110132857D01*
X145998676Y-110370952D01*
X146046295Y-110466190D01*
X146093914Y-110513809D01*
X146189152Y-110561428D01*
X146379628Y-110561428D01*
X146474866Y-110513809D01*
X146522485Y-110466190D01*
X146570104Y-110370952D01*
%TO.C,U2*%
X142113095Y-121626380D02*
X142113095Y-122435904D01*
X142160714Y-122531142D01*
X142208333Y-122578761D01*
X142303571Y-122626380D01*
X142494047Y-122626380D01*
X142589285Y-122578761D01*
X142636904Y-122531142D01*
X142684523Y-122435904D01*
X142684523Y-121626380D01*
X143113095Y-121721619D02*
X143160714Y-121674000D01*
X143255952Y-121626380D01*
X143494047Y-121626380D01*
X143589285Y-121674000D01*
X143636904Y-121721619D01*
X143684523Y-121816857D01*
X143684523Y-121912095D01*
X143636904Y-122054952D01*
X143065476Y-122626380D01*
X143684523Y-122626380D01*
%TO.C,J1*%
X121829580Y-83823133D02*
X122543866Y-83823133D01*
X122686723Y-83870752D01*
X122781961Y-83965990D01*
X122829580Y-84108847D01*
X122829580Y-84204085D01*
X122829580Y-82823133D02*
X122829580Y-83394561D01*
X122829580Y-83108847D02*
X121829580Y-83108847D01*
X121972438Y-83204085D01*
X122067676Y-83299323D01*
X122115295Y-83394561D01*
%TO.C,C17*%
X132072142Y-128931942D02*
X132024523Y-128979561D01*
X131881666Y-129027180D01*
X131786428Y-129027180D01*
X131643571Y-128979561D01*
X131548333Y-128884323D01*
X131500714Y-128789085D01*
X131453095Y-128598609D01*
X131453095Y-128455752D01*
X131500714Y-128265276D01*
X131548333Y-128170038D01*
X131643571Y-128074800D01*
X131786428Y-128027180D01*
X131881666Y-128027180D01*
X132024523Y-128074800D01*
X132072142Y-128122419D01*
X133024523Y-129027180D02*
X132453095Y-129027180D01*
X132738809Y-129027180D02*
X132738809Y-128027180D01*
X132643571Y-128170038D01*
X132548333Y-128265276D01*
X132453095Y-128312895D01*
X133357857Y-128027180D02*
X134024523Y-128027180D01*
X133595952Y-129027180D01*
%TO.C,J5*%
X159762866Y-119594380D02*
X159762866Y-120308666D01*
X159715247Y-120451523D01*
X159620009Y-120546761D01*
X159477152Y-120594380D01*
X159381914Y-120594380D01*
X160715247Y-119594380D02*
X160239057Y-119594380D01*
X160191438Y-120070571D01*
X160239057Y-120022952D01*
X160334295Y-119975333D01*
X160572390Y-119975333D01*
X160667628Y-120022952D01*
X160715247Y-120070571D01*
X160762866Y-120165809D01*
X160762866Y-120403904D01*
X160715247Y-120499142D01*
X160667628Y-120546761D01*
X160572390Y-120594380D01*
X160334295Y-120594380D01*
X160239057Y-120546761D01*
X160191438Y-120499142D01*
%TO.C,CONN1*%
X137987304Y-132030742D02*
X137939685Y-132078361D01*
X137796828Y-132125980D01*
X137701590Y-132125980D01*
X137558733Y-132078361D01*
X137463495Y-131983123D01*
X137415876Y-131887885D01*
X137368257Y-131697409D01*
X137368257Y-131554552D01*
X137415876Y-131364076D01*
X137463495Y-131268838D01*
X137558733Y-131173600D01*
X137701590Y-131125980D01*
X137796828Y-131125980D01*
X137939685Y-131173600D01*
X137987304Y-131221219D01*
X138606352Y-131125980D02*
X138796828Y-131125980D01*
X138892066Y-131173600D01*
X138987304Y-131268838D01*
X139034923Y-131459314D01*
X139034923Y-131792647D01*
X138987304Y-131983123D01*
X138892066Y-132078361D01*
X138796828Y-132125980D01*
X138606352Y-132125980D01*
X138511114Y-132078361D01*
X138415876Y-131983123D01*
X138368257Y-131792647D01*
X138368257Y-131459314D01*
X138415876Y-131268838D01*
X138511114Y-131173600D01*
X138606352Y-131125980D01*
X139463495Y-132125980D02*
X139463495Y-131125980D01*
X140034923Y-132125980D01*
X140034923Y-131125980D01*
X140511114Y-132125980D02*
X140511114Y-131125980D01*
X141082542Y-132125980D01*
X141082542Y-131125980D01*
X142082542Y-132125980D02*
X141511114Y-132125980D01*
X141796828Y-132125980D02*
X141796828Y-131125980D01*
X141701590Y-131268838D01*
X141606352Y-131364076D01*
X141511114Y-131411695D01*
%TO.C,C10*%
X146457942Y-105087657D02*
X146505561Y-105135276D01*
X146553180Y-105278133D01*
X146553180Y-105373371D01*
X146505561Y-105516228D01*
X146410323Y-105611466D01*
X146315085Y-105659085D01*
X146124609Y-105706704D01*
X145981752Y-105706704D01*
X145791276Y-105659085D01*
X145696038Y-105611466D01*
X145600800Y-105516228D01*
X145553180Y-105373371D01*
X145553180Y-105278133D01*
X145600800Y-105135276D01*
X145648419Y-105087657D01*
X146553180Y-104135276D02*
X146553180Y-104706704D01*
X146553180Y-104420990D02*
X145553180Y-104420990D01*
X145696038Y-104516228D01*
X145791276Y-104611466D01*
X145838895Y-104706704D01*
X145553180Y-103516228D02*
X145553180Y-103420990D01*
X145600800Y-103325752D01*
X145648419Y-103278133D01*
X145743657Y-103230514D01*
X145934133Y-103182895D01*
X146172228Y-103182895D01*
X146362704Y-103230514D01*
X146457942Y-103278133D01*
X146505561Y-103325752D01*
X146553180Y-103420990D01*
X146553180Y-103516228D01*
X146505561Y-103611466D01*
X146457942Y-103659085D01*
X146362704Y-103706704D01*
X146172228Y-103754323D01*
X145934133Y-103754323D01*
X145743657Y-103706704D01*
X145648419Y-103659085D01*
X145600800Y-103611466D01*
X145553180Y-103516228D01*
%TO.C,R12*%
X145661142Y-127045980D02*
X145327809Y-126569790D01*
X145089714Y-127045980D02*
X145089714Y-126045980D01*
X145470666Y-126045980D01*
X145565904Y-126093600D01*
X145613523Y-126141219D01*
X145661142Y-126236457D01*
X145661142Y-126379314D01*
X145613523Y-126474552D01*
X145565904Y-126522171D01*
X145470666Y-126569790D01*
X145089714Y-126569790D01*
X146613523Y-127045980D02*
X146042095Y-127045980D01*
X146327809Y-127045980D02*
X146327809Y-126045980D01*
X146232571Y-126188838D01*
X146137333Y-126284076D01*
X146042095Y-126331695D01*
X146994476Y-126141219D02*
X147042095Y-126093600D01*
X147137333Y-126045980D01*
X147375428Y-126045980D01*
X147470666Y-126093600D01*
X147518285Y-126141219D01*
X147565904Y-126236457D01*
X147565904Y-126331695D01*
X147518285Y-126474552D01*
X146946857Y-127045980D01*
X147565904Y-127045980D01*
%TO.C,C16*%
X136948942Y-129084342D02*
X136901323Y-129131961D01*
X136758466Y-129179580D01*
X136663228Y-129179580D01*
X136520371Y-129131961D01*
X136425133Y-129036723D01*
X136377514Y-128941485D01*
X136329895Y-128751009D01*
X136329895Y-128608152D01*
X136377514Y-128417676D01*
X136425133Y-128322438D01*
X136520371Y-128227200D01*
X136663228Y-128179580D01*
X136758466Y-128179580D01*
X136901323Y-128227200D01*
X136948942Y-128274819D01*
X137901323Y-129179580D02*
X137329895Y-129179580D01*
X137615609Y-129179580D02*
X137615609Y-128179580D01*
X137520371Y-128322438D01*
X137425133Y-128417676D01*
X137329895Y-128465295D01*
X138758466Y-128179580D02*
X138567990Y-128179580D01*
X138472752Y-128227200D01*
X138425133Y-128274819D01*
X138329895Y-128417676D01*
X138282276Y-128608152D01*
X138282276Y-128989104D01*
X138329895Y-129084342D01*
X138377514Y-129131961D01*
X138472752Y-129179580D01*
X138663228Y-129179580D01*
X138758466Y-129131961D01*
X138806085Y-129084342D01*
X138853704Y-128989104D01*
X138853704Y-128751009D01*
X138806085Y-128655771D01*
X138758466Y-128608152D01*
X138663228Y-128560533D01*
X138472752Y-128560533D01*
X138377514Y-128608152D01*
X138329895Y-128655771D01*
X138282276Y-128751009D01*
%TO.C,U1*%
X140828780Y-99796504D02*
X141638304Y-99796504D01*
X141733542Y-99748885D01*
X141781161Y-99701266D01*
X141828780Y-99606028D01*
X141828780Y-99415552D01*
X141781161Y-99320314D01*
X141733542Y-99272695D01*
X141638304Y-99225076D01*
X140828780Y-99225076D01*
X141828780Y-98225076D02*
X141828780Y-98796504D01*
X141828780Y-98510790D02*
X140828780Y-98510790D01*
X140971638Y-98606028D01*
X141066876Y-98701266D01*
X141114495Y-98796504D01*
%TO.C,D10*%
X122458314Y-121940580D02*
X122458314Y-120940580D01*
X122696409Y-120940580D01*
X122839266Y-120988200D01*
X122934504Y-121083438D01*
X122982123Y-121178676D01*
X123029742Y-121369152D01*
X123029742Y-121512009D01*
X122982123Y-121702485D01*
X122934504Y-121797723D01*
X122839266Y-121892961D01*
X122696409Y-121940580D01*
X122458314Y-121940580D01*
X123982123Y-121940580D02*
X123410695Y-121940580D01*
X123696409Y-121940580D02*
X123696409Y-120940580D01*
X123601171Y-121083438D01*
X123505933Y-121178676D01*
X123410695Y-121226295D01*
X124601171Y-120940580D02*
X124696409Y-120940580D01*
X124791647Y-120988200D01*
X124839266Y-121035819D01*
X124886885Y-121131057D01*
X124934504Y-121321533D01*
X124934504Y-121559628D01*
X124886885Y-121750104D01*
X124839266Y-121845342D01*
X124791647Y-121892961D01*
X124696409Y-121940580D01*
X124601171Y-121940580D01*
X124505933Y-121892961D01*
X124458314Y-121845342D01*
X124410695Y-121750104D01*
X124363076Y-121559628D01*
X124363076Y-121321533D01*
X124410695Y-121131057D01*
X124458314Y-121035819D01*
X124505933Y-120988200D01*
X124601171Y-120940580D01*
%TO.C,R7*%
X134859733Y-123515380D02*
X134526400Y-123039190D01*
X134288304Y-123515380D02*
X134288304Y-122515380D01*
X134669257Y-122515380D01*
X134764495Y-122563000D01*
X134812114Y-122610619D01*
X134859733Y-122705857D01*
X134859733Y-122848714D01*
X134812114Y-122943952D01*
X134764495Y-122991571D01*
X134669257Y-123039190D01*
X134288304Y-123039190D01*
X135193066Y-122515380D02*
X135859733Y-122515380D01*
X135431161Y-123515380D01*
%TO.C,R10*%
X141219180Y-118778257D02*
X140742990Y-119111590D01*
X141219180Y-119349685D02*
X140219180Y-119349685D01*
X140219180Y-118968733D01*
X140266800Y-118873495D01*
X140314419Y-118825876D01*
X140409657Y-118778257D01*
X140552514Y-118778257D01*
X140647752Y-118825876D01*
X140695371Y-118873495D01*
X140742990Y-118968733D01*
X140742990Y-119349685D01*
X141219180Y-117825876D02*
X141219180Y-118397304D01*
X141219180Y-118111590D02*
X140219180Y-118111590D01*
X140362038Y-118206828D01*
X140457276Y-118302066D01*
X140504895Y-118397304D01*
X140219180Y-117206828D02*
X140219180Y-117111590D01*
X140266800Y-117016352D01*
X140314419Y-116968733D01*
X140409657Y-116921114D01*
X140600133Y-116873495D01*
X140838228Y-116873495D01*
X141028704Y-116921114D01*
X141123942Y-116968733D01*
X141171561Y-117016352D01*
X141219180Y-117111590D01*
X141219180Y-117206828D01*
X141171561Y-117302066D01*
X141123942Y-117349685D01*
X141028704Y-117397304D01*
X140838228Y-117444923D01*
X140600133Y-117444923D01*
X140409657Y-117397304D01*
X140314419Y-117349685D01*
X140266800Y-117302066D01*
X140219180Y-117206828D01*
%TO.C,C18*%
X130167142Y-125833142D02*
X130119523Y-125880761D01*
X129976666Y-125928380D01*
X129881428Y-125928380D01*
X129738571Y-125880761D01*
X129643333Y-125785523D01*
X129595714Y-125690285D01*
X129548095Y-125499809D01*
X129548095Y-125356952D01*
X129595714Y-125166476D01*
X129643333Y-125071238D01*
X129738571Y-124976000D01*
X129881428Y-124928380D01*
X129976666Y-124928380D01*
X130119523Y-124976000D01*
X130167142Y-125023619D01*
X131119523Y-125928380D02*
X130548095Y-125928380D01*
X130833809Y-125928380D02*
X130833809Y-124928380D01*
X130738571Y-125071238D01*
X130643333Y-125166476D01*
X130548095Y-125214095D01*
X131690952Y-125356952D02*
X131595714Y-125309333D01*
X131548095Y-125261714D01*
X131500476Y-125166476D01*
X131500476Y-125118857D01*
X131548095Y-125023619D01*
X131595714Y-124976000D01*
X131690952Y-124928380D01*
X131881428Y-124928380D01*
X131976666Y-124976000D01*
X132024285Y-125023619D01*
X132071904Y-125118857D01*
X132071904Y-125166476D01*
X132024285Y-125261714D01*
X131976666Y-125309333D01*
X131881428Y-125356952D01*
X131690952Y-125356952D01*
X131595714Y-125404571D01*
X131548095Y-125452190D01*
X131500476Y-125547428D01*
X131500476Y-125737904D01*
X131548095Y-125833142D01*
X131595714Y-125880761D01*
X131690952Y-125928380D01*
X131881428Y-125928380D01*
X131976666Y-125880761D01*
X132024285Y-125833142D01*
X132071904Y-125737904D01*
X132071904Y-125547428D01*
X132024285Y-125452190D01*
X131976666Y-125404571D01*
X131881428Y-125356952D01*
%TO.C,C8*%
X147778742Y-104255866D02*
X147826361Y-104303485D01*
X147873980Y-104446342D01*
X147873980Y-104541580D01*
X147826361Y-104684438D01*
X147731123Y-104779676D01*
X147635885Y-104827295D01*
X147445409Y-104874914D01*
X147302552Y-104874914D01*
X147112076Y-104827295D01*
X147016838Y-104779676D01*
X146921600Y-104684438D01*
X146873980Y-104541580D01*
X146873980Y-104446342D01*
X146921600Y-104303485D01*
X146969219Y-104255866D01*
X147302552Y-103684438D02*
X147254933Y-103779676D01*
X147207314Y-103827295D01*
X147112076Y-103874914D01*
X147064457Y-103874914D01*
X146969219Y-103827295D01*
X146921600Y-103779676D01*
X146873980Y-103684438D01*
X146873980Y-103493961D01*
X146921600Y-103398723D01*
X146969219Y-103351104D01*
X147064457Y-103303485D01*
X147112076Y-103303485D01*
X147207314Y-103351104D01*
X147254933Y-103398723D01*
X147302552Y-103493961D01*
X147302552Y-103684438D01*
X147350171Y-103779676D01*
X147397790Y-103827295D01*
X147493028Y-103874914D01*
X147683504Y-103874914D01*
X147778742Y-103827295D01*
X147826361Y-103779676D01*
X147873980Y-103684438D01*
X147873980Y-103493961D01*
X147826361Y-103398723D01*
X147778742Y-103351104D01*
X147683504Y-103303485D01*
X147493028Y-103303485D01*
X147397790Y-103351104D01*
X147350171Y-103398723D01*
X147302552Y-103493961D01*
%TO.C,J4*%
X151863466Y-99325180D02*
X151863466Y-100039466D01*
X151815847Y-100182323D01*
X151720609Y-100277561D01*
X151577752Y-100325180D01*
X151482514Y-100325180D01*
X152768228Y-99658514D02*
X152768228Y-100325180D01*
X152530133Y-99277561D02*
X152292038Y-99991847D01*
X152911085Y-99991847D01*
%TO.C,R11*%
X145661142Y-125750580D02*
X145327809Y-125274390D01*
X145089714Y-125750580D02*
X145089714Y-124750580D01*
X145470666Y-124750580D01*
X145565904Y-124798200D01*
X145613523Y-124845819D01*
X145661142Y-124941057D01*
X145661142Y-125083914D01*
X145613523Y-125179152D01*
X145565904Y-125226771D01*
X145470666Y-125274390D01*
X145089714Y-125274390D01*
X146613523Y-125750580D02*
X146042095Y-125750580D01*
X146327809Y-125750580D02*
X146327809Y-124750580D01*
X146232571Y-124893438D01*
X146137333Y-124988676D01*
X146042095Y-125036295D01*
X147565904Y-125750580D02*
X146994476Y-125750580D01*
X147280190Y-125750580D02*
X147280190Y-124750580D01*
X147184952Y-124893438D01*
X147089714Y-124988676D01*
X146994476Y-125036295D01*
%TO.C,D8*%
X132129304Y-123820180D02*
X132129304Y-122820180D01*
X132367400Y-122820180D01*
X132510257Y-122867800D01*
X132605495Y-122963038D01*
X132653114Y-123058276D01*
X132700733Y-123248752D01*
X132700733Y-123391609D01*
X132653114Y-123582085D01*
X132605495Y-123677323D01*
X132510257Y-123772561D01*
X132367400Y-123820180D01*
X132129304Y-123820180D01*
X133272161Y-123248752D02*
X133176923Y-123201133D01*
X133129304Y-123153514D01*
X133081685Y-123058276D01*
X133081685Y-123010657D01*
X133129304Y-122915419D01*
X133176923Y-122867800D01*
X133272161Y-122820180D01*
X133462638Y-122820180D01*
X133557876Y-122867800D01*
X133605495Y-122915419D01*
X133653114Y-123010657D01*
X133653114Y-123058276D01*
X133605495Y-123153514D01*
X133557876Y-123201133D01*
X133462638Y-123248752D01*
X133272161Y-123248752D01*
X133176923Y-123296371D01*
X133129304Y-123343990D01*
X133081685Y-123439228D01*
X133081685Y-123629704D01*
X133129304Y-123724942D01*
X133176923Y-123772561D01*
X133272161Y-123820180D01*
X133462638Y-123820180D01*
X133557876Y-123772561D01*
X133605495Y-123724942D01*
X133653114Y-123629704D01*
X133653114Y-123439228D01*
X133605495Y-123343990D01*
X133557876Y-123296371D01*
X133462638Y-123248752D01*
%TO.C,R4*%
X143521133Y-88615780D02*
X143187800Y-88139590D01*
X142949704Y-88615780D02*
X142949704Y-87615780D01*
X143330657Y-87615780D01*
X143425895Y-87663400D01*
X143473514Y-87711019D01*
X143521133Y-87806257D01*
X143521133Y-87949114D01*
X143473514Y-88044352D01*
X143425895Y-88091971D01*
X143330657Y-88139590D01*
X142949704Y-88139590D01*
X144378276Y-87949114D02*
X144378276Y-88615780D01*
X144140180Y-87568161D02*
X143902085Y-88282447D01*
X144521133Y-88282447D01*
%TO.C,C6*%
X129119333Y-103227142D02*
X129071714Y-103274761D01*
X128928857Y-103322380D01*
X128833619Y-103322380D01*
X128690761Y-103274761D01*
X128595523Y-103179523D01*
X128547904Y-103084285D01*
X128500285Y-102893809D01*
X128500285Y-102750952D01*
X128547904Y-102560476D01*
X128595523Y-102465238D01*
X128690761Y-102370000D01*
X128833619Y-102322380D01*
X128928857Y-102322380D01*
X129071714Y-102370000D01*
X129119333Y-102417619D01*
X129976476Y-102322380D02*
X129786000Y-102322380D01*
X129690761Y-102370000D01*
X129643142Y-102417619D01*
X129547904Y-102560476D01*
X129500285Y-102750952D01*
X129500285Y-103131904D01*
X129547904Y-103227142D01*
X129595523Y-103274761D01*
X129690761Y-103322380D01*
X129881238Y-103322380D01*
X129976476Y-103274761D01*
X130024095Y-103227142D01*
X130071714Y-103131904D01*
X130071714Y-102893809D01*
X130024095Y-102798571D01*
X129976476Y-102750952D01*
X129881238Y-102703333D01*
X129690761Y-102703333D01*
X129595523Y-102750952D01*
X129547904Y-102798571D01*
X129500285Y-102893809D01*
%TO.C,R3*%
X138441133Y-88768180D02*
X138107800Y-88291990D01*
X137869704Y-88768180D02*
X137869704Y-87768180D01*
X138250657Y-87768180D01*
X138345895Y-87815800D01*
X138393514Y-87863419D01*
X138441133Y-87958657D01*
X138441133Y-88101514D01*
X138393514Y-88196752D01*
X138345895Y-88244371D01*
X138250657Y-88291990D01*
X137869704Y-88291990D01*
X138774466Y-87768180D02*
X139393514Y-87768180D01*
X139060180Y-88149133D01*
X139203038Y-88149133D01*
X139298276Y-88196752D01*
X139345895Y-88244371D01*
X139393514Y-88339609D01*
X139393514Y-88577704D01*
X139345895Y-88672942D01*
X139298276Y-88720561D01*
X139203038Y-88768180D01*
X138917323Y-88768180D01*
X138822085Y-88720561D01*
X138774466Y-88672942D01*
%TO.C,C21*%
X144614542Y-109500942D02*
X144566923Y-109548561D01*
X144424066Y-109596180D01*
X144328828Y-109596180D01*
X144185971Y-109548561D01*
X144090733Y-109453323D01*
X144043114Y-109358085D01*
X143995495Y-109167609D01*
X143995495Y-109024752D01*
X144043114Y-108834276D01*
X144090733Y-108739038D01*
X144185971Y-108643800D01*
X144328828Y-108596180D01*
X144424066Y-108596180D01*
X144566923Y-108643800D01*
X144614542Y-108691419D01*
X144995495Y-108691419D02*
X145043114Y-108643800D01*
X145138352Y-108596180D01*
X145376447Y-108596180D01*
X145471685Y-108643800D01*
X145519304Y-108691419D01*
X145566923Y-108786657D01*
X145566923Y-108881895D01*
X145519304Y-109024752D01*
X144947876Y-109596180D01*
X145566923Y-109596180D01*
X146519304Y-109596180D02*
X145947876Y-109596180D01*
X146233590Y-109596180D02*
X146233590Y-108596180D01*
X146138352Y-108739038D01*
X146043114Y-108834276D01*
X145947876Y-108881895D01*
%TO.C,J2*%
X121307266Y-108824780D02*
X121307266Y-109539066D01*
X121259647Y-109681923D01*
X121164409Y-109777161D01*
X121021552Y-109824780D01*
X120926314Y-109824780D01*
X121735838Y-108920019D02*
X121783457Y-108872400D01*
X121878695Y-108824780D01*
X122116790Y-108824780D01*
X122212028Y-108872400D01*
X122259647Y-108920019D01*
X122307266Y-109015257D01*
X122307266Y-109110495D01*
X122259647Y-109253352D01*
X121688219Y-109824780D01*
X122307266Y-109824780D01*
%TO.C,R9*%
X140050780Y-118657666D02*
X139574590Y-118991000D01*
X140050780Y-119229095D02*
X139050780Y-119229095D01*
X139050780Y-118848142D01*
X139098400Y-118752904D01*
X139146019Y-118705285D01*
X139241257Y-118657666D01*
X139384114Y-118657666D01*
X139479352Y-118705285D01*
X139526971Y-118752904D01*
X139574590Y-118848142D01*
X139574590Y-119229095D01*
X140050780Y-118181476D02*
X140050780Y-117991000D01*
X140003161Y-117895761D01*
X139955542Y-117848142D01*
X139812685Y-117752904D01*
X139622209Y-117705285D01*
X139241257Y-117705285D01*
X139146019Y-117752904D01*
X139098400Y-117800523D01*
X139050780Y-117895761D01*
X139050780Y-118086238D01*
X139098400Y-118181476D01*
X139146019Y-118229095D01*
X139241257Y-118276714D01*
X139479352Y-118276714D01*
X139574590Y-118229095D01*
X139622209Y-118181476D01*
X139669828Y-118086238D01*
X139669828Y-117895761D01*
X139622209Y-117800523D01*
X139574590Y-117752904D01*
X139479352Y-117705285D01*
%TO.C,C12*%
X124934742Y-104903542D02*
X124887123Y-104951161D01*
X124744266Y-104998780D01*
X124649028Y-104998780D01*
X124506171Y-104951161D01*
X124410933Y-104855923D01*
X124363314Y-104760685D01*
X124315695Y-104570209D01*
X124315695Y-104427352D01*
X124363314Y-104236876D01*
X124410933Y-104141638D01*
X124506171Y-104046400D01*
X124649028Y-103998780D01*
X124744266Y-103998780D01*
X124887123Y-104046400D01*
X124934742Y-104094019D01*
X125887123Y-104998780D02*
X125315695Y-104998780D01*
X125601409Y-104998780D02*
X125601409Y-103998780D01*
X125506171Y-104141638D01*
X125410933Y-104236876D01*
X125315695Y-104284495D01*
X126268076Y-104094019D02*
X126315695Y-104046400D01*
X126410933Y-103998780D01*
X126649028Y-103998780D01*
X126744266Y-104046400D01*
X126791885Y-104094019D01*
X126839504Y-104189257D01*
X126839504Y-104284495D01*
X126791885Y-104427352D01*
X126220457Y-104998780D01*
X126839504Y-104998780D01*
D11*
%TO.C,C13*%
X128969380Y-101115400D02*
X128688220Y-101115400D01*
X128969380Y-102135400D02*
X128688220Y-102135400D01*
%TO.C,D11*%
X119317300Y-122734400D02*
X119317300Y-124204400D01*
X119317300Y-124204400D02*
X121602300Y-124204400D01*
X121602300Y-122734400D02*
X119317300Y-122734400D01*
D12*
%TO.C,R2*%
X131783200Y-91691000D02*
X131783200Y-89891000D01*
X135183200Y-89891000D02*
X135183200Y-91691000D01*
D13*
X135083200Y-88891000D02*
G75*
G03*
X135083200Y-88891000I-100000J0D01*
G01*
D14*
%TO.C,D7*%
X134164200Y-127076200D02*
G75*
G03*
X134164200Y-127076200I-50000J0D01*
G01*
D11*
%TO.C,C14*%
X131703400Y-101276036D02*
X131703400Y-101060364D01*
X130983400Y-101276036D02*
X130983400Y-101060364D01*
%TO.C,C15*%
X147503900Y-97900164D02*
X147503900Y-98115836D01*
X146783900Y-97900164D02*
X146783900Y-98115836D01*
%TO.C,R6*%
X145722500Y-97852359D02*
X145722500Y-98159641D01*
X146482500Y-97852359D02*
X146482500Y-98159641D01*
%TO.C,R8*%
X134694959Y-125019800D02*
X135002241Y-125019800D01*
X134694959Y-125779800D02*
X135002241Y-125779800D01*
D12*
%TO.C,R1*%
X130103200Y-89891000D02*
X130103200Y-91691000D01*
X126703200Y-91691000D02*
X126703200Y-89891000D01*
D13*
X130003200Y-88891000D02*
G75*
G03*
X130003200Y-88891000I-100000J0D01*
G01*
D11*
%TO.C,C11*%
X130653964Y-105786600D02*
X130869636Y-105786600D01*
X130653964Y-106506600D02*
X130869636Y-106506600D01*
D12*
%TO.C,R5*%
X150423200Y-89916400D02*
X150423200Y-91716400D01*
X147023200Y-91716400D02*
X147023200Y-89916400D01*
D13*
X150323200Y-88916400D02*
G75*
G03*
X150323200Y-88916400I-100000J0D01*
G01*
D11*
%TO.C,J3*%
X152979542Y-130711754D02*
X154860446Y-132592658D01*
X158410122Y-125281174D02*
X152979542Y-130711754D01*
X162129504Y-125323600D02*
X161189052Y-126264052D01*
X160291026Y-127162078D02*
X154860446Y-132592658D01*
X161189052Y-124383148D02*
X162129504Y-125323600D01*
X158410122Y-125281174D02*
X160291026Y-127162078D01*
%TO.C,C19*%
X142764564Y-110748400D02*
X142980236Y-110748400D01*
X142764564Y-110028400D02*
X142980236Y-110028400D01*
%TO.C,U2*%
X141810000Y-126925600D02*
X141810000Y-126450600D01*
X141335000Y-122705600D02*
X141810000Y-122705600D01*
X141810000Y-122705600D02*
X141810000Y-123180600D01*
X138065000Y-122705600D02*
X137590000Y-122705600D01*
X138065000Y-126925600D02*
X137590000Y-126925600D01*
X137590000Y-126925600D02*
X137590000Y-126450600D01*
X141335000Y-126925600D02*
X141810000Y-126925600D01*
%TO.C,J1*%
X124663200Y-86258400D02*
X123393200Y-86258400D01*
X126823200Y-81405471D02*
X126823200Y-81008400D01*
X131903200Y-81405471D02*
X131903200Y-81008400D01*
X130123200Y-81405471D02*
X130123200Y-81008400D01*
X127583200Y-83945471D02*
X127583200Y-83491329D01*
X140283200Y-83945471D02*
X140283200Y-83491329D01*
X135203200Y-83945471D02*
X135203200Y-83491329D01*
X142823200Y-81405471D02*
X142823200Y-81008400D01*
X134443200Y-81405471D02*
X134443200Y-81008400D01*
X150443200Y-81405471D02*
X150443200Y-81008400D01*
X136983200Y-83945471D02*
X136983200Y-83491329D01*
X126823200Y-83945471D02*
X126823200Y-83491329D01*
X129363200Y-83945471D02*
X129363200Y-83491329D01*
X154763200Y-81405471D02*
X154763200Y-81008400D01*
X139523200Y-83945471D02*
X139523200Y-83491329D01*
X149683200Y-81405471D02*
X149683200Y-81008400D01*
X147143200Y-81405471D02*
X147143200Y-81008400D01*
X123393200Y-86258400D02*
X123393200Y-84988400D01*
X137743200Y-83945471D02*
X137743200Y-83491329D01*
X124283200Y-81405471D02*
X124283200Y-81008400D01*
X132663200Y-81405471D02*
X132663200Y-81008400D01*
X142063200Y-81405471D02*
X142063200Y-81008400D01*
X130123200Y-83945471D02*
X130123200Y-83491329D01*
X147143200Y-83945471D02*
X147143200Y-83491329D01*
X125043200Y-81405471D02*
X125043200Y-81008400D01*
X127583200Y-81405471D02*
X127583200Y-81008400D01*
X147903200Y-81405471D02*
X147903200Y-81008400D01*
X124283200Y-83878400D02*
X124283200Y-83491329D01*
X145363200Y-81405471D02*
X145363200Y-81008400D01*
X152223200Y-81405471D02*
X152223200Y-81008400D01*
X142063200Y-83945471D02*
X142063200Y-83491329D01*
X140283200Y-81405471D02*
X140283200Y-81008400D01*
X135203200Y-81405471D02*
X135203200Y-81008400D01*
X149683200Y-83945471D02*
X149683200Y-83491329D01*
X144603200Y-83945471D02*
X144603200Y-83491329D01*
X142823200Y-83945471D02*
X142823200Y-83491329D01*
X145363200Y-83945471D02*
X145363200Y-83491329D01*
X139523200Y-81405471D02*
X139523200Y-81008400D01*
X136983200Y-81405471D02*
X136983200Y-81008400D01*
X144603200Y-81405471D02*
X144603200Y-81008400D01*
X150443200Y-83945471D02*
X150443200Y-83491329D01*
X152983200Y-81405471D02*
X152983200Y-81008400D01*
X137743200Y-81405471D02*
X137743200Y-81008400D01*
X155523200Y-81405471D02*
X155523200Y-81008400D01*
X132663200Y-83945471D02*
X132663200Y-83491329D01*
X125043200Y-83878400D02*
X125043200Y-83491329D01*
X131903200Y-83945471D02*
X131903200Y-83491329D01*
X129363200Y-81405471D02*
X129363200Y-81008400D01*
X134443200Y-83945471D02*
X134443200Y-83491329D01*
X147903200Y-83945471D02*
X147903200Y-83491329D01*
X155523200Y-83945471D02*
X155523200Y-83491329D01*
X152223200Y-83945471D02*
X152223200Y-83491329D01*
X152983200Y-83945471D02*
X152983200Y-83491329D01*
X154763200Y-83945471D02*
X154763200Y-83491329D01*
%TO.C,J5*%
X163763000Y-113630400D02*
X163763000Y-114960400D01*
X161103000Y-123910400D02*
X163763000Y-123910400D01*
X162433000Y-113630400D02*
X163763000Y-113630400D01*
X163763000Y-116230400D02*
X163763000Y-123910400D01*
X161103000Y-116230400D02*
X161103000Y-123910400D01*
X161103000Y-116230400D02*
X163763000Y-116230400D01*
%TO.C,CONN1*%
X135800000Y-134930300D02*
X135800000Y-133080300D01*
X143600000Y-134930300D02*
X143600000Y-133080300D01*
X138000000Y-132530300D02*
X138000000Y-132980300D01*
X138000000Y-132530300D02*
X138450000Y-132530300D01*
X143600000Y-133080300D02*
X143150000Y-133080300D01*
X143600000Y-137480300D02*
X143600000Y-137230300D01*
X135800000Y-137480300D02*
X135800000Y-137230300D01*
X135800000Y-133080300D02*
X136250000Y-133080300D01*
%TO.C,C10*%
X146435400Y-102022964D02*
X146435400Y-102238636D01*
X145715400Y-102022964D02*
X145715400Y-102238636D01*
%TO.C,R12*%
X144120841Y-126821200D02*
X143813559Y-126821200D01*
X144120841Y-126061200D02*
X143813559Y-126061200D01*
%TO.C,C16*%
X139772564Y-128519600D02*
X139988236Y-128519600D01*
X139772564Y-129239600D02*
X139988236Y-129239600D01*
%TO.C,U1*%
X143744900Y-106028800D02*
X143744900Y-106978800D01*
X133524900Y-106978800D02*
X134474900Y-106978800D01*
X143744900Y-106978800D02*
X142794900Y-106978800D01*
X133524900Y-96758800D02*
X134474900Y-96758800D01*
X143744900Y-96758800D02*
X142794900Y-96758800D01*
X143744900Y-97708800D02*
X143744900Y-96758800D01*
X142794900Y-96758800D02*
X142794900Y-95468800D01*
X133524900Y-106028800D02*
X133524900Y-106978800D01*
X133524900Y-97708800D02*
X133524900Y-96758800D01*
%TO.C,D10*%
X119317300Y-120727800D02*
X119317300Y-122197800D01*
X119317300Y-122197800D02*
X121602300Y-122197800D01*
X121602300Y-120727800D02*
X119317300Y-120727800D01*
%TO.C,R7*%
X134720359Y-123902200D02*
X135027641Y-123902200D01*
X134720359Y-124662200D02*
X135027641Y-124662200D01*
%TO.C,R10*%
X140386800Y-120750841D02*
X140386800Y-120443559D01*
X141146800Y-120750841D02*
X141146800Y-120443559D01*
%TO.C,C8*%
X146782200Y-102022964D02*
X146782200Y-102238636D01*
X147502200Y-102022964D02*
X147502200Y-102238636D01*
%TO.C,J4*%
X151240800Y-99872800D02*
X148580800Y-99872800D01*
X151240800Y-97272800D02*
X148580800Y-97272800D01*
X148580800Y-99872800D02*
X148580800Y-97272800D01*
X148580800Y-102472800D02*
X148580800Y-101142800D01*
X149910800Y-102472800D02*
X148580800Y-102472800D01*
X151240800Y-99872800D02*
X151240800Y-97272800D01*
%TO.C,R11*%
X144146241Y-124943600D02*
X143838959Y-124943600D01*
X144146241Y-125703600D02*
X143838959Y-125703600D01*
D14*
%TO.C,D8*%
X134005000Y-124307600D02*
G75*
G03*
X134005000Y-124307600I-50000J0D01*
G01*
D12*
%TO.C,R4*%
X145330600Y-89891000D02*
X145330600Y-91691000D01*
X141930600Y-91691000D02*
X141930600Y-89891000D01*
D13*
X145230600Y-88891000D02*
G75*
G03*
X145230600Y-88891000I-100000J0D01*
G01*
D11*
%TO.C,C6*%
X130857164Y-103204600D02*
X131072836Y-103204600D01*
X130857164Y-102484600D02*
X131072836Y-102484600D01*
D12*
%TO.C,R3*%
X136863200Y-91691000D02*
X136863200Y-89891000D01*
X140263200Y-89891000D02*
X140263200Y-91691000D01*
D13*
X140163200Y-88891000D02*
G75*
G03*
X140163200Y-88891000I-100000J0D01*
G01*
D11*
%TO.C,C21*%
X142764564Y-108987000D02*
X142980236Y-108987000D01*
X142764564Y-109707000D02*
X142980236Y-109707000D01*
%TO.C,J2*%
X129072359Y-115103263D02*
X130953263Y-113222359D01*
X115559548Y-99709548D02*
X116500000Y-98769096D01*
X116457574Y-102488478D02*
X118338478Y-100607574D01*
X116457574Y-102488478D02*
X129072359Y-115103263D01*
X118338478Y-100607574D02*
X130953263Y-113222359D01*
X116500000Y-98769096D02*
X117440452Y-99709548D01*
%TO.C,R9*%
X139294600Y-120776241D02*
X139294600Y-120468959D01*
X140054600Y-120776241D02*
X140054600Y-120468959D01*
%TO.C,C12*%
X128625548Y-103560200D02*
X130048052Y-103560200D01*
X128625548Y-105380200D02*
X130048052Y-105380200D01*
%TD*%
M02*
