%TF.GenerationSoftware,KiCad,Pcbnew,(6.0.10)*%
%TF.CreationDate,2023-01-18T13:51:00-05:00*%
%TF.ProjectId,cyton hat,6379746f-6e20-4686-9174-2e6b69636164,rev?*%
%TF.SameCoordinates,Original*%
%TF.FileFunction,Paste,Bot*%
%TF.FilePolarity,Positive*%
%FSLAX46Y46*%
G04 Gerber Fmt 4.6, Leading zero omitted, Abs format (unit mm)*
G04 Created by KiCad (PCBNEW (6.0.10)) date 2023-01-18 13:51:00*
%MOMM*%
%LPD*%
G01*
G04 APERTURE LIST*
G04 Aperture macros list*
%AMRoundRect*
0 Rectangle with rounded corners*
0 $1 Rounding radius*
0 $2 $3 $4 $5 $6 $7 $8 $9 X,Y pos of 4 corners*
0 Add a 4 corners polygon primitive as box body*
4,1,4,$2,$3,$4,$5,$6,$7,$8,$9,$2,$3,0*
0 Add four circle primitives for the rounded corners*
1,1,$1+$1,$2,$3*
1,1,$1+$1,$4,$5*
1,1,$1+$1,$6,$7*
1,1,$1+$1,$8,$9*
0 Add four rect primitives between the rounded corners*
20,1,$1+$1,$2,$3,$4,$5,0*
20,1,$1+$1,$4,$5,$6,$7,0*
20,1,$1+$1,$6,$7,$8,$9,0*
20,1,$1+$1,$8,$9,$2,$3,0*%
G04 Aperture macros list end*
%TA.AperFunction,Profile*%
%ADD10C,0.101600*%
%TD*%
%ADD11RoundRect,0.140000X0.140000X0.170000X-0.140000X0.170000X-0.140000X-0.170000X0.140000X-0.170000X0*%
%ADD12RoundRect,0.140000X-0.170000X0.140000X-0.170000X-0.140000X0.170000X-0.140000X0.170000X0.140000X0*%
%ADD13RoundRect,0.010500X0.094500X-0.374500X0.094500X0.374500X-0.094500X0.374500X-0.094500X-0.374500X0*%
%ADD14RoundRect,0.010500X-0.094500X0.374500X-0.094500X-0.374500X0.094500X-0.374500X0.094500X0.374500X0*%
%ADD15R,0.850900X0.355600*%
%ADD16RoundRect,0.250000X0.312500X1.450000X-0.312500X1.450000X-0.312500X-1.450000X0.312500X-1.450000X0*%
%ADD17RoundRect,0.140000X-0.140000X-0.170000X0.140000X-0.170000X0.140000X0.170000X-0.140000X0.170000X0*%
%ADD18RoundRect,0.147500X0.147500X0.172500X-0.147500X0.172500X-0.147500X-0.172500X0.147500X-0.172500X0*%
G04 APERTURE END LIST*
D10*
X154736800Y-100584000D02*
X160375600Y-100584000D01*
X160375600Y-100584000D02*
X160375600Y-115062000D01*
X160375600Y-115062000D02*
X154736800Y-115062000D01*
X154736800Y-115062000D02*
X154736800Y-100584000D01*
G36*
X154736800Y-100584000D02*
G01*
X160375600Y-100584000D01*
X160375600Y-115062000D01*
X154736800Y-115062000D01*
X154736800Y-100584000D01*
G37*
X170357800Y-94183200D02*
X170357800Y-119557800D01*
X152374600Y-137541000D01*
X126949200Y-137541000D01*
X108991400Y-119583200D01*
X108991400Y-94208600D01*
X126974600Y-76225400D01*
X152400000Y-76225400D01*
X170357800Y-94183200D01*
D11*
%TO.C,C26*%
X143865600Y-101346000D03*
X142905600Y-101346000D03*
%TD*%
D12*
%TO.C,C25*%
X136093200Y-99136200D03*
X136093200Y-100096200D03*
%TD*%
D13*
%TO.C,C5*%
X149543200Y-96405600D03*
X149043200Y-96405600D03*
X148543200Y-96405600D03*
X148043200Y-96405600D03*
D14*
X148043200Y-94805600D03*
X148543200Y-94805600D03*
X149043200Y-94805600D03*
X149543200Y-94805600D03*
%TD*%
D13*
%TO.C,C4*%
X144463200Y-96405600D03*
X143963200Y-96405600D03*
X143463200Y-96405600D03*
X142963200Y-96405600D03*
D14*
X142963200Y-94805600D03*
X143463200Y-94805600D03*
X143963200Y-94805600D03*
X144463200Y-94805600D03*
%TD*%
D12*
%TO.C,C20*%
X138252200Y-99136200D03*
X138252200Y-100096200D03*
%TD*%
D15*
%TO.C,D4*%
X144849850Y-87843601D03*
X144849850Y-88493600D03*
X144849850Y-89143599D03*
X142576550Y-89143599D03*
X142576550Y-88493600D03*
X142576550Y-87843601D03*
%TD*%
%TO.C,D6*%
X155009850Y-87843601D03*
X155009850Y-88493600D03*
X155009850Y-89143599D03*
X152736550Y-89143599D03*
X152736550Y-88493600D03*
X152736550Y-87843601D03*
%TD*%
D13*
%TO.C,C1*%
X129223200Y-96405600D03*
X128723200Y-96405600D03*
X128223200Y-96405600D03*
X127723200Y-96405600D03*
D14*
X127723200Y-94805600D03*
X128223200Y-94805600D03*
X128723200Y-94805600D03*
X129223200Y-94805600D03*
%TD*%
D16*
%TO.C,F1*%
X154842300Y-125298200D03*
X150567300Y-125298200D03*
%TD*%
D17*
%TO.C,C9*%
X134902000Y-104244200D03*
X135862000Y-104244200D03*
%TD*%
D15*
%TO.C,D3*%
X139769850Y-87843601D03*
X139769850Y-88493600D03*
X139769850Y-89143599D03*
X137496550Y-89143599D03*
X137496550Y-88493600D03*
X137496550Y-87843601D03*
%TD*%
D12*
%TO.C,C23*%
X137160000Y-99136200D03*
X137160000Y-100096200D03*
%TD*%
D13*
%TO.C,C3*%
X139383200Y-96391300D03*
X138883200Y-96391300D03*
X138383200Y-96391300D03*
X137883200Y-96391300D03*
D14*
X137883200Y-94791300D03*
X138383200Y-94791300D03*
X138883200Y-94791300D03*
X139383200Y-94791300D03*
%TD*%
D18*
%TO.C,L2*%
X150573600Y-128701800D03*
X149603600Y-128701800D03*
%TD*%
D11*
%TO.C,C24*%
X143865600Y-100279200D03*
X142905600Y-100279200D03*
%TD*%
D15*
%TO.C,D1*%
X129609850Y-87843601D03*
X129609850Y-88493600D03*
X129609850Y-89143599D03*
X127336550Y-89143599D03*
X127336550Y-88493600D03*
X127336550Y-87843601D03*
%TD*%
D13*
%TO.C,C2*%
X134303200Y-96380200D03*
X133803200Y-96380200D03*
X133303200Y-96380200D03*
X132803200Y-96380200D03*
D14*
X132803200Y-94780200D03*
X133303200Y-94780200D03*
X133803200Y-94780200D03*
X134303200Y-94780200D03*
%TD*%
D12*
%TO.C,C22*%
X139344400Y-99136200D03*
X139344400Y-100096200D03*
%TD*%
D15*
%TO.C,D2*%
X134689850Y-87843601D03*
X134689850Y-88493600D03*
X134689850Y-89143599D03*
X132416550Y-89143599D03*
X132416550Y-88493600D03*
X132416550Y-87843601D03*
%TD*%
D17*
%TO.C,C7*%
X134952800Y-103047800D03*
X135912800Y-103047800D03*
%TD*%
D15*
%TO.C,D5*%
X149929850Y-87843601D03*
X149929850Y-88493600D03*
X149929850Y-89143599D03*
X147656550Y-89143599D03*
X147656550Y-88493600D03*
X147656550Y-87843601D03*
%TD*%
M02*
