%TF.GenerationSoftware,KiCad,Pcbnew,(7.0.0)*%
%TF.CreationDate,2023-03-06T19:44:04-05:00*%
%TF.ProjectId,cyton wired,6379746f-6e20-4776-9972-65642e6b6963,rev?*%
%TF.SameCoordinates,Original*%
%TF.FileFunction,Legend,Bot*%
%TF.FilePolarity,Positive*%
%FSLAX46Y46*%
G04 Gerber Fmt 4.6, Leading zero omitted, Abs format (unit mm)*
G04 Created by KiCad (PCBNEW (7.0.0)) date 2023-03-06 19:44:04*
%MOMM*%
%LPD*%
G01*
G04 APERTURE LIST*
%ADD10C,0.152400*%
%ADD11C,0.150000*%
%ADD12C,0.120000*%
%ADD13C,0.127000*%
%ADD14C,0.200000*%
%ADD15C,0.101600*%
%ADD16C,0.010000*%
%TA.AperFunction,Profile*%
%ADD17C,0.101600*%
%TD*%
G04 APERTURE END LIST*
D10*
X151790400Y-113461800D02*
X152222200Y-114173000D01*
X150444200Y-114071400D02*
X151917400Y-115570000D01*
D11*
%TO.C,C35*%
X155735257Y-108272942D02*
X155782876Y-108320561D01*
X155782876Y-108320561D02*
X155925733Y-108368180D01*
X155925733Y-108368180D02*
X156020971Y-108368180D01*
X156020971Y-108368180D02*
X156163828Y-108320561D01*
X156163828Y-108320561D02*
X156259066Y-108225323D01*
X156259066Y-108225323D02*
X156306685Y-108130085D01*
X156306685Y-108130085D02*
X156354304Y-107939609D01*
X156354304Y-107939609D02*
X156354304Y-107796752D01*
X156354304Y-107796752D02*
X156306685Y-107606276D01*
X156306685Y-107606276D02*
X156259066Y-107511038D01*
X156259066Y-107511038D02*
X156163828Y-107415800D01*
X156163828Y-107415800D02*
X156020971Y-107368180D01*
X156020971Y-107368180D02*
X155925733Y-107368180D01*
X155925733Y-107368180D02*
X155782876Y-107415800D01*
X155782876Y-107415800D02*
X155735257Y-107463419D01*
X155401923Y-107368180D02*
X154782876Y-107368180D01*
X154782876Y-107368180D02*
X155116209Y-107749133D01*
X155116209Y-107749133D02*
X154973352Y-107749133D01*
X154973352Y-107749133D02*
X154878114Y-107796752D01*
X154878114Y-107796752D02*
X154830495Y-107844371D01*
X154830495Y-107844371D02*
X154782876Y-107939609D01*
X154782876Y-107939609D02*
X154782876Y-108177704D01*
X154782876Y-108177704D02*
X154830495Y-108272942D01*
X154830495Y-108272942D02*
X154878114Y-108320561D01*
X154878114Y-108320561D02*
X154973352Y-108368180D01*
X154973352Y-108368180D02*
X155259066Y-108368180D01*
X155259066Y-108368180D02*
X155354304Y-108320561D01*
X155354304Y-108320561D02*
X155401923Y-108272942D01*
X153878114Y-107368180D02*
X154354304Y-107368180D01*
X154354304Y-107368180D02*
X154401923Y-107844371D01*
X154401923Y-107844371D02*
X154354304Y-107796752D01*
X154354304Y-107796752D02*
X154259066Y-107749133D01*
X154259066Y-107749133D02*
X154020971Y-107749133D01*
X154020971Y-107749133D02*
X153925733Y-107796752D01*
X153925733Y-107796752D02*
X153878114Y-107844371D01*
X153878114Y-107844371D02*
X153830495Y-107939609D01*
X153830495Y-107939609D02*
X153830495Y-108177704D01*
X153830495Y-108177704D02*
X153878114Y-108272942D01*
X153878114Y-108272942D02*
X153925733Y-108320561D01*
X153925733Y-108320561D02*
X154020971Y-108368180D01*
X154020971Y-108368180D02*
X154259066Y-108368180D01*
X154259066Y-108368180D02*
X154354304Y-108320561D01*
X154354304Y-108320561D02*
X154401923Y-108272942D01*
%TO.C,C26*%
X145981657Y-103726342D02*
X146029276Y-103773961D01*
X146029276Y-103773961D02*
X146172133Y-103821580D01*
X146172133Y-103821580D02*
X146267371Y-103821580D01*
X146267371Y-103821580D02*
X146410228Y-103773961D01*
X146410228Y-103773961D02*
X146505466Y-103678723D01*
X146505466Y-103678723D02*
X146553085Y-103583485D01*
X146553085Y-103583485D02*
X146600704Y-103393009D01*
X146600704Y-103393009D02*
X146600704Y-103250152D01*
X146600704Y-103250152D02*
X146553085Y-103059676D01*
X146553085Y-103059676D02*
X146505466Y-102964438D01*
X146505466Y-102964438D02*
X146410228Y-102869200D01*
X146410228Y-102869200D02*
X146267371Y-102821580D01*
X146267371Y-102821580D02*
X146172133Y-102821580D01*
X146172133Y-102821580D02*
X146029276Y-102869200D01*
X146029276Y-102869200D02*
X145981657Y-102916819D01*
X145600704Y-102916819D02*
X145553085Y-102869200D01*
X145553085Y-102869200D02*
X145457847Y-102821580D01*
X145457847Y-102821580D02*
X145219752Y-102821580D01*
X145219752Y-102821580D02*
X145124514Y-102869200D01*
X145124514Y-102869200D02*
X145076895Y-102916819D01*
X145076895Y-102916819D02*
X145029276Y-103012057D01*
X145029276Y-103012057D02*
X145029276Y-103107295D01*
X145029276Y-103107295D02*
X145076895Y-103250152D01*
X145076895Y-103250152D02*
X145648323Y-103821580D01*
X145648323Y-103821580D02*
X145029276Y-103821580D01*
X144172133Y-102821580D02*
X144362609Y-102821580D01*
X144362609Y-102821580D02*
X144457847Y-102869200D01*
X144457847Y-102869200D02*
X144505466Y-102916819D01*
X144505466Y-102916819D02*
X144600704Y-103059676D01*
X144600704Y-103059676D02*
X144648323Y-103250152D01*
X144648323Y-103250152D02*
X144648323Y-103631104D01*
X144648323Y-103631104D02*
X144600704Y-103726342D01*
X144600704Y-103726342D02*
X144553085Y-103773961D01*
X144553085Y-103773961D02*
X144457847Y-103821580D01*
X144457847Y-103821580D02*
X144267371Y-103821580D01*
X144267371Y-103821580D02*
X144172133Y-103773961D01*
X144172133Y-103773961D02*
X144124514Y-103726342D01*
X144124514Y-103726342D02*
X144076895Y-103631104D01*
X144076895Y-103631104D02*
X144076895Y-103393009D01*
X144076895Y-103393009D02*
X144124514Y-103297771D01*
X144124514Y-103297771D02*
X144172133Y-103250152D01*
X144172133Y-103250152D02*
X144267371Y-103202533D01*
X144267371Y-103202533D02*
X144457847Y-103202533D01*
X144457847Y-103202533D02*
X144553085Y-103250152D01*
X144553085Y-103250152D02*
X144600704Y-103297771D01*
X144600704Y-103297771D02*
X144648323Y-103393009D01*
%TO.C,C25*%
X135069942Y-98848942D02*
X135117561Y-98801323D01*
X135117561Y-98801323D02*
X135165180Y-98658466D01*
X135165180Y-98658466D02*
X135165180Y-98563228D01*
X135165180Y-98563228D02*
X135117561Y-98420371D01*
X135117561Y-98420371D02*
X135022323Y-98325133D01*
X135022323Y-98325133D02*
X134927085Y-98277514D01*
X134927085Y-98277514D02*
X134736609Y-98229895D01*
X134736609Y-98229895D02*
X134593752Y-98229895D01*
X134593752Y-98229895D02*
X134403276Y-98277514D01*
X134403276Y-98277514D02*
X134308038Y-98325133D01*
X134308038Y-98325133D02*
X134212800Y-98420371D01*
X134212800Y-98420371D02*
X134165180Y-98563228D01*
X134165180Y-98563228D02*
X134165180Y-98658466D01*
X134165180Y-98658466D02*
X134212800Y-98801323D01*
X134212800Y-98801323D02*
X134260419Y-98848942D01*
X134260419Y-99229895D02*
X134212800Y-99277514D01*
X134212800Y-99277514D02*
X134165180Y-99372752D01*
X134165180Y-99372752D02*
X134165180Y-99610847D01*
X134165180Y-99610847D02*
X134212800Y-99706085D01*
X134212800Y-99706085D02*
X134260419Y-99753704D01*
X134260419Y-99753704D02*
X134355657Y-99801323D01*
X134355657Y-99801323D02*
X134450895Y-99801323D01*
X134450895Y-99801323D02*
X134593752Y-99753704D01*
X134593752Y-99753704D02*
X135165180Y-99182276D01*
X135165180Y-99182276D02*
X135165180Y-99801323D01*
X134165180Y-100706085D02*
X134165180Y-100229895D01*
X134165180Y-100229895D02*
X134641371Y-100182276D01*
X134641371Y-100182276D02*
X134593752Y-100229895D01*
X134593752Y-100229895D02*
X134546133Y-100325133D01*
X134546133Y-100325133D02*
X134546133Y-100563228D01*
X134546133Y-100563228D02*
X134593752Y-100658466D01*
X134593752Y-100658466D02*
X134641371Y-100706085D01*
X134641371Y-100706085D02*
X134736609Y-100753704D01*
X134736609Y-100753704D02*
X134974704Y-100753704D01*
X134974704Y-100753704D02*
X135069942Y-100706085D01*
X135069942Y-100706085D02*
X135117561Y-100658466D01*
X135117561Y-100658466D02*
X135165180Y-100563228D01*
X135165180Y-100563228D02*
X135165180Y-100325133D01*
X135165180Y-100325133D02*
X135117561Y-100229895D01*
X135117561Y-100229895D02*
X135069942Y-100182276D01*
%TO.C,C5*%
X148959866Y-93972742D02*
X149007485Y-94020361D01*
X149007485Y-94020361D02*
X149150342Y-94067980D01*
X149150342Y-94067980D02*
X149245580Y-94067980D01*
X149245580Y-94067980D02*
X149388437Y-94020361D01*
X149388437Y-94020361D02*
X149483675Y-93925123D01*
X149483675Y-93925123D02*
X149531294Y-93829885D01*
X149531294Y-93829885D02*
X149578913Y-93639409D01*
X149578913Y-93639409D02*
X149578913Y-93496552D01*
X149578913Y-93496552D02*
X149531294Y-93306076D01*
X149531294Y-93306076D02*
X149483675Y-93210838D01*
X149483675Y-93210838D02*
X149388437Y-93115600D01*
X149388437Y-93115600D02*
X149245580Y-93067980D01*
X149245580Y-93067980D02*
X149150342Y-93067980D01*
X149150342Y-93067980D02*
X149007485Y-93115600D01*
X149007485Y-93115600D02*
X148959866Y-93163219D01*
X148055104Y-93067980D02*
X148531294Y-93067980D01*
X148531294Y-93067980D02*
X148578913Y-93544171D01*
X148578913Y-93544171D02*
X148531294Y-93496552D01*
X148531294Y-93496552D02*
X148436056Y-93448933D01*
X148436056Y-93448933D02*
X148197961Y-93448933D01*
X148197961Y-93448933D02*
X148102723Y-93496552D01*
X148102723Y-93496552D02*
X148055104Y-93544171D01*
X148055104Y-93544171D02*
X148007485Y-93639409D01*
X148007485Y-93639409D02*
X148007485Y-93877504D01*
X148007485Y-93877504D02*
X148055104Y-93972742D01*
X148055104Y-93972742D02*
X148102723Y-94020361D01*
X148102723Y-94020361D02*
X148197961Y-94067980D01*
X148197961Y-94067980D02*
X148436056Y-94067980D01*
X148436056Y-94067980D02*
X148531294Y-94020361D01*
X148531294Y-94020361D02*
X148578913Y-93972742D01*
%TO.C,U5*%
X158216504Y-112905380D02*
X158216504Y-113714904D01*
X158216504Y-113714904D02*
X158168885Y-113810142D01*
X158168885Y-113810142D02*
X158121266Y-113857761D01*
X158121266Y-113857761D02*
X158026028Y-113905380D01*
X158026028Y-113905380D02*
X157835552Y-113905380D01*
X157835552Y-113905380D02*
X157740314Y-113857761D01*
X157740314Y-113857761D02*
X157692695Y-113810142D01*
X157692695Y-113810142D02*
X157645076Y-113714904D01*
X157645076Y-113714904D02*
X157645076Y-112905380D01*
X156692695Y-112905380D02*
X157168885Y-112905380D01*
X157168885Y-112905380D02*
X157216504Y-113381571D01*
X157216504Y-113381571D02*
X157168885Y-113333952D01*
X157168885Y-113333952D02*
X157073647Y-113286333D01*
X157073647Y-113286333D02*
X156835552Y-113286333D01*
X156835552Y-113286333D02*
X156740314Y-113333952D01*
X156740314Y-113333952D02*
X156692695Y-113381571D01*
X156692695Y-113381571D02*
X156645076Y-113476809D01*
X156645076Y-113476809D02*
X156645076Y-113714904D01*
X156645076Y-113714904D02*
X156692695Y-113810142D01*
X156692695Y-113810142D02*
X156740314Y-113857761D01*
X156740314Y-113857761D02*
X156835552Y-113905380D01*
X156835552Y-113905380D02*
X157073647Y-113905380D01*
X157073647Y-113905380D02*
X157168885Y-113857761D01*
X157168885Y-113857761D02*
X157216504Y-113810142D01*
%TO.C,L1*%
X144646666Y-130643980D02*
X145122856Y-130643980D01*
X145122856Y-130643980D02*
X145122856Y-129643980D01*
X143789523Y-130643980D02*
X144360951Y-130643980D01*
X144075237Y-130643980D02*
X144075237Y-129643980D01*
X144075237Y-129643980D02*
X144170475Y-129786838D01*
X144170475Y-129786838D02*
X144265713Y-129882076D01*
X144265713Y-129882076D02*
X144360951Y-129929695D01*
%TO.C,C4*%
X143879866Y-93845742D02*
X143927485Y-93893361D01*
X143927485Y-93893361D02*
X144070342Y-93940980D01*
X144070342Y-93940980D02*
X144165580Y-93940980D01*
X144165580Y-93940980D02*
X144308437Y-93893361D01*
X144308437Y-93893361D02*
X144403675Y-93798123D01*
X144403675Y-93798123D02*
X144451294Y-93702885D01*
X144451294Y-93702885D02*
X144498913Y-93512409D01*
X144498913Y-93512409D02*
X144498913Y-93369552D01*
X144498913Y-93369552D02*
X144451294Y-93179076D01*
X144451294Y-93179076D02*
X144403675Y-93083838D01*
X144403675Y-93083838D02*
X144308437Y-92988600D01*
X144308437Y-92988600D02*
X144165580Y-92940980D01*
X144165580Y-92940980D02*
X144070342Y-92940980D01*
X144070342Y-92940980D02*
X143927485Y-92988600D01*
X143927485Y-92988600D02*
X143879866Y-93036219D01*
X143022723Y-93274314D02*
X143022723Y-93940980D01*
X143260818Y-92893361D02*
X143498913Y-93607647D01*
X143498913Y-93607647D02*
X142879866Y-93607647D01*
%TO.C,U3*%
X155295504Y-126214980D02*
X155295504Y-127024504D01*
X155295504Y-127024504D02*
X155247885Y-127119742D01*
X155247885Y-127119742D02*
X155200266Y-127167361D01*
X155200266Y-127167361D02*
X155105028Y-127214980D01*
X155105028Y-127214980D02*
X154914552Y-127214980D01*
X154914552Y-127214980D02*
X154819314Y-127167361D01*
X154819314Y-127167361D02*
X154771695Y-127119742D01*
X154771695Y-127119742D02*
X154724076Y-127024504D01*
X154724076Y-127024504D02*
X154724076Y-126214980D01*
X154343123Y-126214980D02*
X153724076Y-126214980D01*
X153724076Y-126214980D02*
X154057409Y-126595933D01*
X154057409Y-126595933D02*
X153914552Y-126595933D01*
X153914552Y-126595933D02*
X153819314Y-126643552D01*
X153819314Y-126643552D02*
X153771695Y-126691171D01*
X153771695Y-126691171D02*
X153724076Y-126786409D01*
X153724076Y-126786409D02*
X153724076Y-127024504D01*
X153724076Y-127024504D02*
X153771695Y-127119742D01*
X153771695Y-127119742D02*
X153819314Y-127167361D01*
X153819314Y-127167361D02*
X153914552Y-127214980D01*
X153914552Y-127214980D02*
X154200266Y-127214980D01*
X154200266Y-127214980D02*
X154295504Y-127167361D01*
X154295504Y-127167361D02*
X154343123Y-127119742D01*
%TO.C,C20*%
X138600542Y-101490542D02*
X138648161Y-101442923D01*
X138648161Y-101442923D02*
X138695780Y-101300066D01*
X138695780Y-101300066D02*
X138695780Y-101204828D01*
X138695780Y-101204828D02*
X138648161Y-101061971D01*
X138648161Y-101061971D02*
X138552923Y-100966733D01*
X138552923Y-100966733D02*
X138457685Y-100919114D01*
X138457685Y-100919114D02*
X138267209Y-100871495D01*
X138267209Y-100871495D02*
X138124352Y-100871495D01*
X138124352Y-100871495D02*
X137933876Y-100919114D01*
X137933876Y-100919114D02*
X137838638Y-100966733D01*
X137838638Y-100966733D02*
X137743400Y-101061971D01*
X137743400Y-101061971D02*
X137695780Y-101204828D01*
X137695780Y-101204828D02*
X137695780Y-101300066D01*
X137695780Y-101300066D02*
X137743400Y-101442923D01*
X137743400Y-101442923D02*
X137791019Y-101490542D01*
X137791019Y-101871495D02*
X137743400Y-101919114D01*
X137743400Y-101919114D02*
X137695780Y-102014352D01*
X137695780Y-102014352D02*
X137695780Y-102252447D01*
X137695780Y-102252447D02*
X137743400Y-102347685D01*
X137743400Y-102347685D02*
X137791019Y-102395304D01*
X137791019Y-102395304D02*
X137886257Y-102442923D01*
X137886257Y-102442923D02*
X137981495Y-102442923D01*
X137981495Y-102442923D02*
X138124352Y-102395304D01*
X138124352Y-102395304D02*
X138695780Y-101823876D01*
X138695780Y-101823876D02*
X138695780Y-102442923D01*
X137695780Y-103061971D02*
X137695780Y-103157209D01*
X137695780Y-103157209D02*
X137743400Y-103252447D01*
X137743400Y-103252447D02*
X137791019Y-103300066D01*
X137791019Y-103300066D02*
X137886257Y-103347685D01*
X137886257Y-103347685D02*
X138076733Y-103395304D01*
X138076733Y-103395304D02*
X138314828Y-103395304D01*
X138314828Y-103395304D02*
X138505304Y-103347685D01*
X138505304Y-103347685D02*
X138600542Y-103300066D01*
X138600542Y-103300066D02*
X138648161Y-103252447D01*
X138648161Y-103252447D02*
X138695780Y-103157209D01*
X138695780Y-103157209D02*
X138695780Y-103061971D01*
X138695780Y-103061971D02*
X138648161Y-102966733D01*
X138648161Y-102966733D02*
X138600542Y-102919114D01*
X138600542Y-102919114D02*
X138505304Y-102871495D01*
X138505304Y-102871495D02*
X138314828Y-102823876D01*
X138314828Y-102823876D02*
X138076733Y-102823876D01*
X138076733Y-102823876D02*
X137886257Y-102871495D01*
X137886257Y-102871495D02*
X137791019Y-102919114D01*
X137791019Y-102919114D02*
X137743400Y-102966733D01*
X137743400Y-102966733D02*
X137695780Y-103061971D01*
%TO.C,D12*%
X149321685Y-124374380D02*
X149321685Y-123374380D01*
X149321685Y-123374380D02*
X149083590Y-123374380D01*
X149083590Y-123374380D02*
X148940733Y-123422000D01*
X148940733Y-123422000D02*
X148845495Y-123517238D01*
X148845495Y-123517238D02*
X148797876Y-123612476D01*
X148797876Y-123612476D02*
X148750257Y-123802952D01*
X148750257Y-123802952D02*
X148750257Y-123945809D01*
X148750257Y-123945809D02*
X148797876Y-124136285D01*
X148797876Y-124136285D02*
X148845495Y-124231523D01*
X148845495Y-124231523D02*
X148940733Y-124326761D01*
X148940733Y-124326761D02*
X149083590Y-124374380D01*
X149083590Y-124374380D02*
X149321685Y-124374380D01*
X147797876Y-124374380D02*
X148369304Y-124374380D01*
X148083590Y-124374380D02*
X148083590Y-123374380D01*
X148083590Y-123374380D02*
X148178828Y-123517238D01*
X148178828Y-123517238D02*
X148274066Y-123612476D01*
X148274066Y-123612476D02*
X148369304Y-123660095D01*
X147416923Y-123469619D02*
X147369304Y-123422000D01*
X147369304Y-123422000D02*
X147274066Y-123374380D01*
X147274066Y-123374380D02*
X147035971Y-123374380D01*
X147035971Y-123374380D02*
X146940733Y-123422000D01*
X146940733Y-123422000D02*
X146893114Y-123469619D01*
X146893114Y-123469619D02*
X146845495Y-123564857D01*
X146845495Y-123564857D02*
X146845495Y-123660095D01*
X146845495Y-123660095D02*
X146893114Y-123802952D01*
X146893114Y-123802952D02*
X147464542Y-124374380D01*
X147464542Y-124374380D02*
X146845495Y-124374380D01*
%TO.C,C38*%
X144787857Y-109619142D02*
X144835476Y-109666761D01*
X144835476Y-109666761D02*
X144978333Y-109714380D01*
X144978333Y-109714380D02*
X145073571Y-109714380D01*
X145073571Y-109714380D02*
X145216428Y-109666761D01*
X145216428Y-109666761D02*
X145311666Y-109571523D01*
X145311666Y-109571523D02*
X145359285Y-109476285D01*
X145359285Y-109476285D02*
X145406904Y-109285809D01*
X145406904Y-109285809D02*
X145406904Y-109142952D01*
X145406904Y-109142952D02*
X145359285Y-108952476D01*
X145359285Y-108952476D02*
X145311666Y-108857238D01*
X145311666Y-108857238D02*
X145216428Y-108762000D01*
X145216428Y-108762000D02*
X145073571Y-108714380D01*
X145073571Y-108714380D02*
X144978333Y-108714380D01*
X144978333Y-108714380D02*
X144835476Y-108762000D01*
X144835476Y-108762000D02*
X144787857Y-108809619D01*
X144454523Y-108714380D02*
X143835476Y-108714380D01*
X143835476Y-108714380D02*
X144168809Y-109095333D01*
X144168809Y-109095333D02*
X144025952Y-109095333D01*
X144025952Y-109095333D02*
X143930714Y-109142952D01*
X143930714Y-109142952D02*
X143883095Y-109190571D01*
X143883095Y-109190571D02*
X143835476Y-109285809D01*
X143835476Y-109285809D02*
X143835476Y-109523904D01*
X143835476Y-109523904D02*
X143883095Y-109619142D01*
X143883095Y-109619142D02*
X143930714Y-109666761D01*
X143930714Y-109666761D02*
X144025952Y-109714380D01*
X144025952Y-109714380D02*
X144311666Y-109714380D01*
X144311666Y-109714380D02*
X144406904Y-109666761D01*
X144406904Y-109666761D02*
X144454523Y-109619142D01*
X143264047Y-109142952D02*
X143359285Y-109095333D01*
X143359285Y-109095333D02*
X143406904Y-109047714D01*
X143406904Y-109047714D02*
X143454523Y-108952476D01*
X143454523Y-108952476D02*
X143454523Y-108904857D01*
X143454523Y-108904857D02*
X143406904Y-108809619D01*
X143406904Y-108809619D02*
X143359285Y-108762000D01*
X143359285Y-108762000D02*
X143264047Y-108714380D01*
X143264047Y-108714380D02*
X143073571Y-108714380D01*
X143073571Y-108714380D02*
X142978333Y-108762000D01*
X142978333Y-108762000D02*
X142930714Y-108809619D01*
X142930714Y-108809619D02*
X142883095Y-108904857D01*
X142883095Y-108904857D02*
X142883095Y-108952476D01*
X142883095Y-108952476D02*
X142930714Y-109047714D01*
X142930714Y-109047714D02*
X142978333Y-109095333D01*
X142978333Y-109095333D02*
X143073571Y-109142952D01*
X143073571Y-109142952D02*
X143264047Y-109142952D01*
X143264047Y-109142952D02*
X143359285Y-109190571D01*
X143359285Y-109190571D02*
X143406904Y-109238190D01*
X143406904Y-109238190D02*
X143454523Y-109333428D01*
X143454523Y-109333428D02*
X143454523Y-109523904D01*
X143454523Y-109523904D02*
X143406904Y-109619142D01*
X143406904Y-109619142D02*
X143359285Y-109666761D01*
X143359285Y-109666761D02*
X143264047Y-109714380D01*
X143264047Y-109714380D02*
X143073571Y-109714380D01*
X143073571Y-109714380D02*
X142978333Y-109666761D01*
X142978333Y-109666761D02*
X142930714Y-109619142D01*
X142930714Y-109619142D02*
X142883095Y-109523904D01*
X142883095Y-109523904D02*
X142883095Y-109333428D01*
X142883095Y-109333428D02*
X142930714Y-109238190D01*
X142930714Y-109238190D02*
X142978333Y-109190571D01*
X142978333Y-109190571D02*
X143073571Y-109142952D01*
%TO.C,D4*%
X144451294Y-87006780D02*
X144451294Y-86006780D01*
X144451294Y-86006780D02*
X144213199Y-86006780D01*
X144213199Y-86006780D02*
X144070342Y-86054400D01*
X144070342Y-86054400D02*
X143975104Y-86149638D01*
X143975104Y-86149638D02*
X143927485Y-86244876D01*
X143927485Y-86244876D02*
X143879866Y-86435352D01*
X143879866Y-86435352D02*
X143879866Y-86578209D01*
X143879866Y-86578209D02*
X143927485Y-86768685D01*
X143927485Y-86768685D02*
X143975104Y-86863923D01*
X143975104Y-86863923D02*
X144070342Y-86959161D01*
X144070342Y-86959161D02*
X144213199Y-87006780D01*
X144213199Y-87006780D02*
X144451294Y-87006780D01*
X143022723Y-86340114D02*
X143022723Y-87006780D01*
X143260818Y-85959161D02*
X143498913Y-86673447D01*
X143498913Y-86673447D02*
X142879866Y-86673447D01*
X145237199Y-86336980D02*
X145237199Y-86575076D01*
X145475294Y-86479838D02*
X145237199Y-86575076D01*
X145237199Y-86575076D02*
X144999104Y-86479838D01*
X145380056Y-86765552D02*
X145237199Y-86575076D01*
X145237199Y-86575076D02*
X145094342Y-86765552D01*
%TO.C,U4*%
X150596504Y-119102980D02*
X150596504Y-119912504D01*
X150596504Y-119912504D02*
X150548885Y-120007742D01*
X150548885Y-120007742D02*
X150501266Y-120055361D01*
X150501266Y-120055361D02*
X150406028Y-120102980D01*
X150406028Y-120102980D02*
X150215552Y-120102980D01*
X150215552Y-120102980D02*
X150120314Y-120055361D01*
X150120314Y-120055361D02*
X150072695Y-120007742D01*
X150072695Y-120007742D02*
X150025076Y-119912504D01*
X150025076Y-119912504D02*
X150025076Y-119102980D01*
X149120314Y-119436314D02*
X149120314Y-120102980D01*
X149358409Y-119055361D02*
X149596504Y-119769647D01*
X149596504Y-119769647D02*
X148977457Y-119769647D01*
%TO.C,U6*%
X146481704Y-111203580D02*
X146481704Y-112013104D01*
X146481704Y-112013104D02*
X146434085Y-112108342D01*
X146434085Y-112108342D02*
X146386466Y-112155961D01*
X146386466Y-112155961D02*
X146291228Y-112203580D01*
X146291228Y-112203580D02*
X146100752Y-112203580D01*
X146100752Y-112203580D02*
X146005514Y-112155961D01*
X146005514Y-112155961D02*
X145957895Y-112108342D01*
X145957895Y-112108342D02*
X145910276Y-112013104D01*
X145910276Y-112013104D02*
X145910276Y-111203580D01*
X145005514Y-111203580D02*
X145195990Y-111203580D01*
X145195990Y-111203580D02*
X145291228Y-111251200D01*
X145291228Y-111251200D02*
X145338847Y-111298819D01*
X145338847Y-111298819D02*
X145434085Y-111441676D01*
X145434085Y-111441676D02*
X145481704Y-111632152D01*
X145481704Y-111632152D02*
X145481704Y-112013104D01*
X145481704Y-112013104D02*
X145434085Y-112108342D01*
X145434085Y-112108342D02*
X145386466Y-112155961D01*
X145386466Y-112155961D02*
X145291228Y-112203580D01*
X145291228Y-112203580D02*
X145100752Y-112203580D01*
X145100752Y-112203580D02*
X145005514Y-112155961D01*
X145005514Y-112155961D02*
X144957895Y-112108342D01*
X144957895Y-112108342D02*
X144910276Y-112013104D01*
X144910276Y-112013104D02*
X144910276Y-111775009D01*
X144910276Y-111775009D02*
X144957895Y-111679771D01*
X144957895Y-111679771D02*
X145005514Y-111632152D01*
X145005514Y-111632152D02*
X145100752Y-111584533D01*
X145100752Y-111584533D02*
X145291228Y-111584533D01*
X145291228Y-111584533D02*
X145386466Y-111632152D01*
X145386466Y-111632152D02*
X145434085Y-111679771D01*
X145434085Y-111679771D02*
X145481704Y-111775009D01*
%TO.C,D9*%
X148032694Y-129602580D02*
X148032694Y-128602580D01*
X148032694Y-128602580D02*
X147794599Y-128602580D01*
X147794599Y-128602580D02*
X147651742Y-128650200D01*
X147651742Y-128650200D02*
X147556504Y-128745438D01*
X147556504Y-128745438D02*
X147508885Y-128840676D01*
X147508885Y-128840676D02*
X147461266Y-129031152D01*
X147461266Y-129031152D02*
X147461266Y-129174009D01*
X147461266Y-129174009D02*
X147508885Y-129364485D01*
X147508885Y-129364485D02*
X147556504Y-129459723D01*
X147556504Y-129459723D02*
X147651742Y-129554961D01*
X147651742Y-129554961D02*
X147794599Y-129602580D01*
X147794599Y-129602580D02*
X148032694Y-129602580D01*
X146985075Y-129602580D02*
X146794599Y-129602580D01*
X146794599Y-129602580D02*
X146699361Y-129554961D01*
X146699361Y-129554961D02*
X146651742Y-129507342D01*
X146651742Y-129507342D02*
X146556504Y-129364485D01*
X146556504Y-129364485D02*
X146508885Y-129174009D01*
X146508885Y-129174009D02*
X146508885Y-128793057D01*
X146508885Y-128793057D02*
X146556504Y-128697819D01*
X146556504Y-128697819D02*
X146604123Y-128650200D01*
X146604123Y-128650200D02*
X146699361Y-128602580D01*
X146699361Y-128602580D02*
X146889837Y-128602580D01*
X146889837Y-128602580D02*
X146985075Y-128650200D01*
X146985075Y-128650200D02*
X147032694Y-128697819D01*
X147032694Y-128697819D02*
X147080313Y-128793057D01*
X147080313Y-128793057D02*
X147080313Y-129031152D01*
X147080313Y-129031152D02*
X147032694Y-129126390D01*
X147032694Y-129126390D02*
X146985075Y-129174009D01*
X146985075Y-129174009D02*
X146889837Y-129221628D01*
X146889837Y-129221628D02*
X146699361Y-129221628D01*
X146699361Y-129221628D02*
X146604123Y-129174009D01*
X146604123Y-129174009D02*
X146556504Y-129126390D01*
X146556504Y-129126390D02*
X146508885Y-129031152D01*
X147804980Y-127101600D02*
X148043076Y-127101600D01*
X147947838Y-126863505D02*
X148043076Y-127101600D01*
X148043076Y-127101600D02*
X147947838Y-127339695D01*
X148233552Y-126958743D02*
X148043076Y-127101600D01*
X148043076Y-127101600D02*
X148233552Y-127244457D01*
%TO.C,C36*%
X156065457Y-109949342D02*
X156113076Y-109996961D01*
X156113076Y-109996961D02*
X156255933Y-110044580D01*
X156255933Y-110044580D02*
X156351171Y-110044580D01*
X156351171Y-110044580D02*
X156494028Y-109996961D01*
X156494028Y-109996961D02*
X156589266Y-109901723D01*
X156589266Y-109901723D02*
X156636885Y-109806485D01*
X156636885Y-109806485D02*
X156684504Y-109616009D01*
X156684504Y-109616009D02*
X156684504Y-109473152D01*
X156684504Y-109473152D02*
X156636885Y-109282676D01*
X156636885Y-109282676D02*
X156589266Y-109187438D01*
X156589266Y-109187438D02*
X156494028Y-109092200D01*
X156494028Y-109092200D02*
X156351171Y-109044580D01*
X156351171Y-109044580D02*
X156255933Y-109044580D01*
X156255933Y-109044580D02*
X156113076Y-109092200D01*
X156113076Y-109092200D02*
X156065457Y-109139819D01*
X155732123Y-109044580D02*
X155113076Y-109044580D01*
X155113076Y-109044580D02*
X155446409Y-109425533D01*
X155446409Y-109425533D02*
X155303552Y-109425533D01*
X155303552Y-109425533D02*
X155208314Y-109473152D01*
X155208314Y-109473152D02*
X155160695Y-109520771D01*
X155160695Y-109520771D02*
X155113076Y-109616009D01*
X155113076Y-109616009D02*
X155113076Y-109854104D01*
X155113076Y-109854104D02*
X155160695Y-109949342D01*
X155160695Y-109949342D02*
X155208314Y-109996961D01*
X155208314Y-109996961D02*
X155303552Y-110044580D01*
X155303552Y-110044580D02*
X155589266Y-110044580D01*
X155589266Y-110044580D02*
X155684504Y-109996961D01*
X155684504Y-109996961D02*
X155732123Y-109949342D01*
X154255933Y-109044580D02*
X154446409Y-109044580D01*
X154446409Y-109044580D02*
X154541647Y-109092200D01*
X154541647Y-109092200D02*
X154589266Y-109139819D01*
X154589266Y-109139819D02*
X154684504Y-109282676D01*
X154684504Y-109282676D02*
X154732123Y-109473152D01*
X154732123Y-109473152D02*
X154732123Y-109854104D01*
X154732123Y-109854104D02*
X154684504Y-109949342D01*
X154684504Y-109949342D02*
X154636885Y-109996961D01*
X154636885Y-109996961D02*
X154541647Y-110044580D01*
X154541647Y-110044580D02*
X154351171Y-110044580D01*
X154351171Y-110044580D02*
X154255933Y-109996961D01*
X154255933Y-109996961D02*
X154208314Y-109949342D01*
X154208314Y-109949342D02*
X154160695Y-109854104D01*
X154160695Y-109854104D02*
X154160695Y-109616009D01*
X154160695Y-109616009D02*
X154208314Y-109520771D01*
X154208314Y-109520771D02*
X154255933Y-109473152D01*
X154255933Y-109473152D02*
X154351171Y-109425533D01*
X154351171Y-109425533D02*
X154541647Y-109425533D01*
X154541647Y-109425533D02*
X154636885Y-109473152D01*
X154636885Y-109473152D02*
X154684504Y-109520771D01*
X154684504Y-109520771D02*
X154732123Y-109616009D01*
%TO.C,R13*%
X147454857Y-98868580D02*
X147788190Y-98392390D01*
X148026285Y-98868580D02*
X148026285Y-97868580D01*
X148026285Y-97868580D02*
X147645333Y-97868580D01*
X147645333Y-97868580D02*
X147550095Y-97916200D01*
X147550095Y-97916200D02*
X147502476Y-97963819D01*
X147502476Y-97963819D02*
X147454857Y-98059057D01*
X147454857Y-98059057D02*
X147454857Y-98201914D01*
X147454857Y-98201914D02*
X147502476Y-98297152D01*
X147502476Y-98297152D02*
X147550095Y-98344771D01*
X147550095Y-98344771D02*
X147645333Y-98392390D01*
X147645333Y-98392390D02*
X148026285Y-98392390D01*
X146502476Y-98868580D02*
X147073904Y-98868580D01*
X146788190Y-98868580D02*
X146788190Y-97868580D01*
X146788190Y-97868580D02*
X146883428Y-98011438D01*
X146883428Y-98011438D02*
X146978666Y-98106676D01*
X146978666Y-98106676D02*
X147073904Y-98154295D01*
X146169142Y-97868580D02*
X145550095Y-97868580D01*
X145550095Y-97868580D02*
X145883428Y-98249533D01*
X145883428Y-98249533D02*
X145740571Y-98249533D01*
X145740571Y-98249533D02*
X145645333Y-98297152D01*
X145645333Y-98297152D02*
X145597714Y-98344771D01*
X145597714Y-98344771D02*
X145550095Y-98440009D01*
X145550095Y-98440009D02*
X145550095Y-98678104D01*
X145550095Y-98678104D02*
X145597714Y-98773342D01*
X145597714Y-98773342D02*
X145645333Y-98820961D01*
X145645333Y-98820961D02*
X145740571Y-98868580D01*
X145740571Y-98868580D02*
X146026285Y-98868580D01*
X146026285Y-98868580D02*
X146121523Y-98820961D01*
X146121523Y-98820961D02*
X146169142Y-98773342D01*
%TO.C,C16*%
X139171857Y-130497942D02*
X139219476Y-130545561D01*
X139219476Y-130545561D02*
X139362333Y-130593180D01*
X139362333Y-130593180D02*
X139457571Y-130593180D01*
X139457571Y-130593180D02*
X139600428Y-130545561D01*
X139600428Y-130545561D02*
X139695666Y-130450323D01*
X139695666Y-130450323D02*
X139743285Y-130355085D01*
X139743285Y-130355085D02*
X139790904Y-130164609D01*
X139790904Y-130164609D02*
X139790904Y-130021752D01*
X139790904Y-130021752D02*
X139743285Y-129831276D01*
X139743285Y-129831276D02*
X139695666Y-129736038D01*
X139695666Y-129736038D02*
X139600428Y-129640800D01*
X139600428Y-129640800D02*
X139457571Y-129593180D01*
X139457571Y-129593180D02*
X139362333Y-129593180D01*
X139362333Y-129593180D02*
X139219476Y-129640800D01*
X139219476Y-129640800D02*
X139171857Y-129688419D01*
X138219476Y-130593180D02*
X138790904Y-130593180D01*
X138505190Y-130593180D02*
X138505190Y-129593180D01*
X138505190Y-129593180D02*
X138600428Y-129736038D01*
X138600428Y-129736038D02*
X138695666Y-129831276D01*
X138695666Y-129831276D02*
X138790904Y-129878895D01*
X137362333Y-129593180D02*
X137552809Y-129593180D01*
X137552809Y-129593180D02*
X137648047Y-129640800D01*
X137648047Y-129640800D02*
X137695666Y-129688419D01*
X137695666Y-129688419D02*
X137790904Y-129831276D01*
X137790904Y-129831276D02*
X137838523Y-130021752D01*
X137838523Y-130021752D02*
X137838523Y-130402704D01*
X137838523Y-130402704D02*
X137790904Y-130497942D01*
X137790904Y-130497942D02*
X137743285Y-130545561D01*
X137743285Y-130545561D02*
X137648047Y-130593180D01*
X137648047Y-130593180D02*
X137457571Y-130593180D01*
X137457571Y-130593180D02*
X137362333Y-130545561D01*
X137362333Y-130545561D02*
X137314714Y-130497942D01*
X137314714Y-130497942D02*
X137267095Y-130402704D01*
X137267095Y-130402704D02*
X137267095Y-130164609D01*
X137267095Y-130164609D02*
X137314714Y-130069371D01*
X137314714Y-130069371D02*
X137362333Y-130021752D01*
X137362333Y-130021752D02*
X137457571Y-129974133D01*
X137457571Y-129974133D02*
X137648047Y-129974133D01*
X137648047Y-129974133D02*
X137743285Y-130021752D01*
X137743285Y-130021752D02*
X137790904Y-130069371D01*
X137790904Y-130069371D02*
X137838523Y-130164609D01*
%TO.C,D6*%
X154611294Y-87032180D02*
X154611294Y-86032180D01*
X154611294Y-86032180D02*
X154373199Y-86032180D01*
X154373199Y-86032180D02*
X154230342Y-86079800D01*
X154230342Y-86079800D02*
X154135104Y-86175038D01*
X154135104Y-86175038D02*
X154087485Y-86270276D01*
X154087485Y-86270276D02*
X154039866Y-86460752D01*
X154039866Y-86460752D02*
X154039866Y-86603609D01*
X154039866Y-86603609D02*
X154087485Y-86794085D01*
X154087485Y-86794085D02*
X154135104Y-86889323D01*
X154135104Y-86889323D02*
X154230342Y-86984561D01*
X154230342Y-86984561D02*
X154373199Y-87032180D01*
X154373199Y-87032180D02*
X154611294Y-87032180D01*
X153182723Y-86032180D02*
X153373199Y-86032180D01*
X153373199Y-86032180D02*
X153468437Y-86079800D01*
X153468437Y-86079800D02*
X153516056Y-86127419D01*
X153516056Y-86127419D02*
X153611294Y-86270276D01*
X153611294Y-86270276D02*
X153658913Y-86460752D01*
X153658913Y-86460752D02*
X153658913Y-86841704D01*
X153658913Y-86841704D02*
X153611294Y-86936942D01*
X153611294Y-86936942D02*
X153563675Y-86984561D01*
X153563675Y-86984561D02*
X153468437Y-87032180D01*
X153468437Y-87032180D02*
X153277961Y-87032180D01*
X153277961Y-87032180D02*
X153182723Y-86984561D01*
X153182723Y-86984561D02*
X153135104Y-86936942D01*
X153135104Y-86936942D02*
X153087485Y-86841704D01*
X153087485Y-86841704D02*
X153087485Y-86603609D01*
X153087485Y-86603609D02*
X153135104Y-86508371D01*
X153135104Y-86508371D02*
X153182723Y-86460752D01*
X153182723Y-86460752D02*
X153277961Y-86413133D01*
X153277961Y-86413133D02*
X153468437Y-86413133D01*
X153468437Y-86413133D02*
X153563675Y-86460752D01*
X153563675Y-86460752D02*
X153611294Y-86508371D01*
X153611294Y-86508371D02*
X153658913Y-86603609D01*
X155397199Y-86336980D02*
X155397199Y-86575076D01*
X155635294Y-86479838D02*
X155397199Y-86575076D01*
X155397199Y-86575076D02*
X155159104Y-86479838D01*
X155540056Y-86765552D02*
X155397199Y-86575076D01*
X155397199Y-86575076D02*
X155254342Y-86765552D01*
%TO.C,C1*%
X128639866Y-94048942D02*
X128687485Y-94096561D01*
X128687485Y-94096561D02*
X128830342Y-94144180D01*
X128830342Y-94144180D02*
X128925580Y-94144180D01*
X128925580Y-94144180D02*
X129068437Y-94096561D01*
X129068437Y-94096561D02*
X129163675Y-94001323D01*
X129163675Y-94001323D02*
X129211294Y-93906085D01*
X129211294Y-93906085D02*
X129258913Y-93715609D01*
X129258913Y-93715609D02*
X129258913Y-93572752D01*
X129258913Y-93572752D02*
X129211294Y-93382276D01*
X129211294Y-93382276D02*
X129163675Y-93287038D01*
X129163675Y-93287038D02*
X129068437Y-93191800D01*
X129068437Y-93191800D02*
X128925580Y-93144180D01*
X128925580Y-93144180D02*
X128830342Y-93144180D01*
X128830342Y-93144180D02*
X128687485Y-93191800D01*
X128687485Y-93191800D02*
X128639866Y-93239419D01*
X127687485Y-94144180D02*
X128258913Y-94144180D01*
X127973199Y-94144180D02*
X127973199Y-93144180D01*
X127973199Y-93144180D02*
X128068437Y-93287038D01*
X128068437Y-93287038D02*
X128163675Y-93382276D01*
X128163675Y-93382276D02*
X128258913Y-93429895D01*
%TO.C,F1*%
X143839433Y-123736371D02*
X144172766Y-123736371D01*
X144172766Y-124260180D02*
X144172766Y-123260180D01*
X144172766Y-123260180D02*
X143696576Y-123260180D01*
X142791814Y-124260180D02*
X143363242Y-124260180D01*
X143077528Y-124260180D02*
X143077528Y-123260180D01*
X143077528Y-123260180D02*
X143172766Y-123403038D01*
X143172766Y-123403038D02*
X143268004Y-123498276D01*
X143268004Y-123498276D02*
X143363242Y-123545895D01*
%TO.C,C9*%
X133719866Y-104513742D02*
X133767485Y-104561361D01*
X133767485Y-104561361D02*
X133910342Y-104608980D01*
X133910342Y-104608980D02*
X134005580Y-104608980D01*
X134005580Y-104608980D02*
X134148437Y-104561361D01*
X134148437Y-104561361D02*
X134243675Y-104466123D01*
X134243675Y-104466123D02*
X134291294Y-104370885D01*
X134291294Y-104370885D02*
X134338913Y-104180409D01*
X134338913Y-104180409D02*
X134338913Y-104037552D01*
X134338913Y-104037552D02*
X134291294Y-103847076D01*
X134291294Y-103847076D02*
X134243675Y-103751838D01*
X134243675Y-103751838D02*
X134148437Y-103656600D01*
X134148437Y-103656600D02*
X134005580Y-103608980D01*
X134005580Y-103608980D02*
X133910342Y-103608980D01*
X133910342Y-103608980D02*
X133767485Y-103656600D01*
X133767485Y-103656600D02*
X133719866Y-103704219D01*
X133243675Y-104608980D02*
X133053199Y-104608980D01*
X133053199Y-104608980D02*
X132957961Y-104561361D01*
X132957961Y-104561361D02*
X132910342Y-104513742D01*
X132910342Y-104513742D02*
X132815104Y-104370885D01*
X132815104Y-104370885D02*
X132767485Y-104180409D01*
X132767485Y-104180409D02*
X132767485Y-103799457D01*
X132767485Y-103799457D02*
X132815104Y-103704219D01*
X132815104Y-103704219D02*
X132862723Y-103656600D01*
X132862723Y-103656600D02*
X132957961Y-103608980D01*
X132957961Y-103608980D02*
X133148437Y-103608980D01*
X133148437Y-103608980D02*
X133243675Y-103656600D01*
X133243675Y-103656600D02*
X133291294Y-103704219D01*
X133291294Y-103704219D02*
X133338913Y-103799457D01*
X133338913Y-103799457D02*
X133338913Y-104037552D01*
X133338913Y-104037552D02*
X133291294Y-104132790D01*
X133291294Y-104132790D02*
X133243675Y-104180409D01*
X133243675Y-104180409D02*
X133148437Y-104228028D01*
X133148437Y-104228028D02*
X132957961Y-104228028D01*
X132957961Y-104228028D02*
X132862723Y-104180409D01*
X132862723Y-104180409D02*
X132815104Y-104132790D01*
X132815104Y-104132790D02*
X132767485Y-104037552D01*
%TO.C,D3*%
X139371294Y-86930580D02*
X139371294Y-85930580D01*
X139371294Y-85930580D02*
X139133199Y-85930580D01*
X139133199Y-85930580D02*
X138990342Y-85978200D01*
X138990342Y-85978200D02*
X138895104Y-86073438D01*
X138895104Y-86073438D02*
X138847485Y-86168676D01*
X138847485Y-86168676D02*
X138799866Y-86359152D01*
X138799866Y-86359152D02*
X138799866Y-86502009D01*
X138799866Y-86502009D02*
X138847485Y-86692485D01*
X138847485Y-86692485D02*
X138895104Y-86787723D01*
X138895104Y-86787723D02*
X138990342Y-86882961D01*
X138990342Y-86882961D02*
X139133199Y-86930580D01*
X139133199Y-86930580D02*
X139371294Y-86930580D01*
X138466532Y-85930580D02*
X137847485Y-85930580D01*
X137847485Y-85930580D02*
X138180818Y-86311533D01*
X138180818Y-86311533D02*
X138037961Y-86311533D01*
X138037961Y-86311533D02*
X137942723Y-86359152D01*
X137942723Y-86359152D02*
X137895104Y-86406771D01*
X137895104Y-86406771D02*
X137847485Y-86502009D01*
X137847485Y-86502009D02*
X137847485Y-86740104D01*
X137847485Y-86740104D02*
X137895104Y-86835342D01*
X137895104Y-86835342D02*
X137942723Y-86882961D01*
X137942723Y-86882961D02*
X138037961Y-86930580D01*
X138037961Y-86930580D02*
X138323675Y-86930580D01*
X138323675Y-86930580D02*
X138418913Y-86882961D01*
X138418913Y-86882961D02*
X138466532Y-86835342D01*
X140157199Y-86336980D02*
X140157199Y-86575076D01*
X140395294Y-86479838D02*
X140157199Y-86575076D01*
X140157199Y-86575076D02*
X139919104Y-86479838D01*
X140300056Y-86765552D02*
X140157199Y-86575076D01*
X140157199Y-86575076D02*
X140014342Y-86765552D01*
%TO.C,C30*%
X154287457Y-114876942D02*
X154335076Y-114924561D01*
X154335076Y-114924561D02*
X154477933Y-114972180D01*
X154477933Y-114972180D02*
X154573171Y-114972180D01*
X154573171Y-114972180D02*
X154716028Y-114924561D01*
X154716028Y-114924561D02*
X154811266Y-114829323D01*
X154811266Y-114829323D02*
X154858885Y-114734085D01*
X154858885Y-114734085D02*
X154906504Y-114543609D01*
X154906504Y-114543609D02*
X154906504Y-114400752D01*
X154906504Y-114400752D02*
X154858885Y-114210276D01*
X154858885Y-114210276D02*
X154811266Y-114115038D01*
X154811266Y-114115038D02*
X154716028Y-114019800D01*
X154716028Y-114019800D02*
X154573171Y-113972180D01*
X154573171Y-113972180D02*
X154477933Y-113972180D01*
X154477933Y-113972180D02*
X154335076Y-114019800D01*
X154335076Y-114019800D02*
X154287457Y-114067419D01*
X153954123Y-113972180D02*
X153335076Y-113972180D01*
X153335076Y-113972180D02*
X153668409Y-114353133D01*
X153668409Y-114353133D02*
X153525552Y-114353133D01*
X153525552Y-114353133D02*
X153430314Y-114400752D01*
X153430314Y-114400752D02*
X153382695Y-114448371D01*
X153382695Y-114448371D02*
X153335076Y-114543609D01*
X153335076Y-114543609D02*
X153335076Y-114781704D01*
X153335076Y-114781704D02*
X153382695Y-114876942D01*
X153382695Y-114876942D02*
X153430314Y-114924561D01*
X153430314Y-114924561D02*
X153525552Y-114972180D01*
X153525552Y-114972180D02*
X153811266Y-114972180D01*
X153811266Y-114972180D02*
X153906504Y-114924561D01*
X153906504Y-114924561D02*
X153954123Y-114876942D01*
X152716028Y-113972180D02*
X152620790Y-113972180D01*
X152620790Y-113972180D02*
X152525552Y-114019800D01*
X152525552Y-114019800D02*
X152477933Y-114067419D01*
X152477933Y-114067419D02*
X152430314Y-114162657D01*
X152430314Y-114162657D02*
X152382695Y-114353133D01*
X152382695Y-114353133D02*
X152382695Y-114591228D01*
X152382695Y-114591228D02*
X152430314Y-114781704D01*
X152430314Y-114781704D02*
X152477933Y-114876942D01*
X152477933Y-114876942D02*
X152525552Y-114924561D01*
X152525552Y-114924561D02*
X152620790Y-114972180D01*
X152620790Y-114972180D02*
X152716028Y-114972180D01*
X152716028Y-114972180D02*
X152811266Y-114924561D01*
X152811266Y-114924561D02*
X152858885Y-114876942D01*
X152858885Y-114876942D02*
X152906504Y-114781704D01*
X152906504Y-114781704D02*
X152954123Y-114591228D01*
X152954123Y-114591228D02*
X152954123Y-114353133D01*
X152954123Y-114353133D02*
X152906504Y-114162657D01*
X152906504Y-114162657D02*
X152858885Y-114067419D01*
X152858885Y-114067419D02*
X152811266Y-114019800D01*
X152811266Y-114019800D02*
X152716028Y-113972180D01*
%TO.C,C37*%
X149842457Y-108704742D02*
X149890076Y-108752361D01*
X149890076Y-108752361D02*
X150032933Y-108799980D01*
X150032933Y-108799980D02*
X150128171Y-108799980D01*
X150128171Y-108799980D02*
X150271028Y-108752361D01*
X150271028Y-108752361D02*
X150366266Y-108657123D01*
X150366266Y-108657123D02*
X150413885Y-108561885D01*
X150413885Y-108561885D02*
X150461504Y-108371409D01*
X150461504Y-108371409D02*
X150461504Y-108228552D01*
X150461504Y-108228552D02*
X150413885Y-108038076D01*
X150413885Y-108038076D02*
X150366266Y-107942838D01*
X150366266Y-107942838D02*
X150271028Y-107847600D01*
X150271028Y-107847600D02*
X150128171Y-107799980D01*
X150128171Y-107799980D02*
X150032933Y-107799980D01*
X150032933Y-107799980D02*
X149890076Y-107847600D01*
X149890076Y-107847600D02*
X149842457Y-107895219D01*
X149509123Y-107799980D02*
X148890076Y-107799980D01*
X148890076Y-107799980D02*
X149223409Y-108180933D01*
X149223409Y-108180933D02*
X149080552Y-108180933D01*
X149080552Y-108180933D02*
X148985314Y-108228552D01*
X148985314Y-108228552D02*
X148937695Y-108276171D01*
X148937695Y-108276171D02*
X148890076Y-108371409D01*
X148890076Y-108371409D02*
X148890076Y-108609504D01*
X148890076Y-108609504D02*
X148937695Y-108704742D01*
X148937695Y-108704742D02*
X148985314Y-108752361D01*
X148985314Y-108752361D02*
X149080552Y-108799980D01*
X149080552Y-108799980D02*
X149366266Y-108799980D01*
X149366266Y-108799980D02*
X149461504Y-108752361D01*
X149461504Y-108752361D02*
X149509123Y-108704742D01*
X148556742Y-107799980D02*
X147890076Y-107799980D01*
X147890076Y-107799980D02*
X148318647Y-108799980D01*
%TO.C,C23*%
X137381342Y-101388942D02*
X137428961Y-101341323D01*
X137428961Y-101341323D02*
X137476580Y-101198466D01*
X137476580Y-101198466D02*
X137476580Y-101103228D01*
X137476580Y-101103228D02*
X137428961Y-100960371D01*
X137428961Y-100960371D02*
X137333723Y-100865133D01*
X137333723Y-100865133D02*
X137238485Y-100817514D01*
X137238485Y-100817514D02*
X137048009Y-100769895D01*
X137048009Y-100769895D02*
X136905152Y-100769895D01*
X136905152Y-100769895D02*
X136714676Y-100817514D01*
X136714676Y-100817514D02*
X136619438Y-100865133D01*
X136619438Y-100865133D02*
X136524200Y-100960371D01*
X136524200Y-100960371D02*
X136476580Y-101103228D01*
X136476580Y-101103228D02*
X136476580Y-101198466D01*
X136476580Y-101198466D02*
X136524200Y-101341323D01*
X136524200Y-101341323D02*
X136571819Y-101388942D01*
X136571819Y-101769895D02*
X136524200Y-101817514D01*
X136524200Y-101817514D02*
X136476580Y-101912752D01*
X136476580Y-101912752D02*
X136476580Y-102150847D01*
X136476580Y-102150847D02*
X136524200Y-102246085D01*
X136524200Y-102246085D02*
X136571819Y-102293704D01*
X136571819Y-102293704D02*
X136667057Y-102341323D01*
X136667057Y-102341323D02*
X136762295Y-102341323D01*
X136762295Y-102341323D02*
X136905152Y-102293704D01*
X136905152Y-102293704D02*
X137476580Y-101722276D01*
X137476580Y-101722276D02*
X137476580Y-102341323D01*
X136476580Y-102674657D02*
X136476580Y-103293704D01*
X136476580Y-103293704D02*
X136857533Y-102960371D01*
X136857533Y-102960371D02*
X136857533Y-103103228D01*
X136857533Y-103103228D02*
X136905152Y-103198466D01*
X136905152Y-103198466D02*
X136952771Y-103246085D01*
X136952771Y-103246085D02*
X137048009Y-103293704D01*
X137048009Y-103293704D02*
X137286104Y-103293704D01*
X137286104Y-103293704D02*
X137381342Y-103246085D01*
X137381342Y-103246085D02*
X137428961Y-103198466D01*
X137428961Y-103198466D02*
X137476580Y-103103228D01*
X137476580Y-103103228D02*
X137476580Y-102817514D01*
X137476580Y-102817514D02*
X137428961Y-102722276D01*
X137428961Y-102722276D02*
X137381342Y-102674657D01*
%TO.C,C29*%
X146474542Y-116521542D02*
X146522161Y-116473923D01*
X146522161Y-116473923D02*
X146569780Y-116331066D01*
X146569780Y-116331066D02*
X146569780Y-116235828D01*
X146569780Y-116235828D02*
X146522161Y-116092971D01*
X146522161Y-116092971D02*
X146426923Y-115997733D01*
X146426923Y-115997733D02*
X146331685Y-115950114D01*
X146331685Y-115950114D02*
X146141209Y-115902495D01*
X146141209Y-115902495D02*
X145998352Y-115902495D01*
X145998352Y-115902495D02*
X145807876Y-115950114D01*
X145807876Y-115950114D02*
X145712638Y-115997733D01*
X145712638Y-115997733D02*
X145617400Y-116092971D01*
X145617400Y-116092971D02*
X145569780Y-116235828D01*
X145569780Y-116235828D02*
X145569780Y-116331066D01*
X145569780Y-116331066D02*
X145617400Y-116473923D01*
X145617400Y-116473923D02*
X145665019Y-116521542D01*
X145665019Y-116902495D02*
X145617400Y-116950114D01*
X145617400Y-116950114D02*
X145569780Y-117045352D01*
X145569780Y-117045352D02*
X145569780Y-117283447D01*
X145569780Y-117283447D02*
X145617400Y-117378685D01*
X145617400Y-117378685D02*
X145665019Y-117426304D01*
X145665019Y-117426304D02*
X145760257Y-117473923D01*
X145760257Y-117473923D02*
X145855495Y-117473923D01*
X145855495Y-117473923D02*
X145998352Y-117426304D01*
X145998352Y-117426304D02*
X146569780Y-116854876D01*
X146569780Y-116854876D02*
X146569780Y-117473923D01*
X146569780Y-117950114D02*
X146569780Y-118140590D01*
X146569780Y-118140590D02*
X146522161Y-118235828D01*
X146522161Y-118235828D02*
X146474542Y-118283447D01*
X146474542Y-118283447D02*
X146331685Y-118378685D01*
X146331685Y-118378685D02*
X146141209Y-118426304D01*
X146141209Y-118426304D02*
X145760257Y-118426304D01*
X145760257Y-118426304D02*
X145665019Y-118378685D01*
X145665019Y-118378685D02*
X145617400Y-118331066D01*
X145617400Y-118331066D02*
X145569780Y-118235828D01*
X145569780Y-118235828D02*
X145569780Y-118045352D01*
X145569780Y-118045352D02*
X145617400Y-117950114D01*
X145617400Y-117950114D02*
X145665019Y-117902495D01*
X145665019Y-117902495D02*
X145760257Y-117854876D01*
X145760257Y-117854876D02*
X145998352Y-117854876D01*
X145998352Y-117854876D02*
X146093590Y-117902495D01*
X146093590Y-117902495D02*
X146141209Y-117950114D01*
X146141209Y-117950114D02*
X146188828Y-118045352D01*
X146188828Y-118045352D02*
X146188828Y-118235828D01*
X146188828Y-118235828D02*
X146141209Y-118331066D01*
X146141209Y-118331066D02*
X146093590Y-118378685D01*
X146093590Y-118378685D02*
X145998352Y-118426304D01*
%TO.C,C3*%
X138799866Y-93794942D02*
X138847485Y-93842561D01*
X138847485Y-93842561D02*
X138990342Y-93890180D01*
X138990342Y-93890180D02*
X139085580Y-93890180D01*
X139085580Y-93890180D02*
X139228437Y-93842561D01*
X139228437Y-93842561D02*
X139323675Y-93747323D01*
X139323675Y-93747323D02*
X139371294Y-93652085D01*
X139371294Y-93652085D02*
X139418913Y-93461609D01*
X139418913Y-93461609D02*
X139418913Y-93318752D01*
X139418913Y-93318752D02*
X139371294Y-93128276D01*
X139371294Y-93128276D02*
X139323675Y-93033038D01*
X139323675Y-93033038D02*
X139228437Y-92937800D01*
X139228437Y-92937800D02*
X139085580Y-92890180D01*
X139085580Y-92890180D02*
X138990342Y-92890180D01*
X138990342Y-92890180D02*
X138847485Y-92937800D01*
X138847485Y-92937800D02*
X138799866Y-92985419D01*
X138466532Y-92890180D02*
X137847485Y-92890180D01*
X137847485Y-92890180D02*
X138180818Y-93271133D01*
X138180818Y-93271133D02*
X138037961Y-93271133D01*
X138037961Y-93271133D02*
X137942723Y-93318752D01*
X137942723Y-93318752D02*
X137895104Y-93366371D01*
X137895104Y-93366371D02*
X137847485Y-93461609D01*
X137847485Y-93461609D02*
X137847485Y-93699704D01*
X137847485Y-93699704D02*
X137895104Y-93794942D01*
X137895104Y-93794942D02*
X137942723Y-93842561D01*
X137942723Y-93842561D02*
X138037961Y-93890180D01*
X138037961Y-93890180D02*
X138323675Y-93890180D01*
X138323675Y-93890180D02*
X138418913Y-93842561D01*
X138418913Y-93842561D02*
X138466532Y-93794942D01*
%TO.C,L2*%
X139180866Y-129297780D02*
X139657056Y-129297780D01*
X139657056Y-129297780D02*
X139657056Y-128297780D01*
X138895151Y-128393019D02*
X138847532Y-128345400D01*
X138847532Y-128345400D02*
X138752294Y-128297780D01*
X138752294Y-128297780D02*
X138514199Y-128297780D01*
X138514199Y-128297780D02*
X138418961Y-128345400D01*
X138418961Y-128345400D02*
X138371342Y-128393019D01*
X138371342Y-128393019D02*
X138323723Y-128488257D01*
X138323723Y-128488257D02*
X138323723Y-128583495D01*
X138323723Y-128583495D02*
X138371342Y-128726352D01*
X138371342Y-128726352D02*
X138942770Y-129297780D01*
X138942770Y-129297780D02*
X138323723Y-129297780D01*
%TO.C,C24*%
X145981657Y-100449742D02*
X146029276Y-100497361D01*
X146029276Y-100497361D02*
X146172133Y-100544980D01*
X146172133Y-100544980D02*
X146267371Y-100544980D01*
X146267371Y-100544980D02*
X146410228Y-100497361D01*
X146410228Y-100497361D02*
X146505466Y-100402123D01*
X146505466Y-100402123D02*
X146553085Y-100306885D01*
X146553085Y-100306885D02*
X146600704Y-100116409D01*
X146600704Y-100116409D02*
X146600704Y-99973552D01*
X146600704Y-99973552D02*
X146553085Y-99783076D01*
X146553085Y-99783076D02*
X146505466Y-99687838D01*
X146505466Y-99687838D02*
X146410228Y-99592600D01*
X146410228Y-99592600D02*
X146267371Y-99544980D01*
X146267371Y-99544980D02*
X146172133Y-99544980D01*
X146172133Y-99544980D02*
X146029276Y-99592600D01*
X146029276Y-99592600D02*
X145981657Y-99640219D01*
X145600704Y-99640219D02*
X145553085Y-99592600D01*
X145553085Y-99592600D02*
X145457847Y-99544980D01*
X145457847Y-99544980D02*
X145219752Y-99544980D01*
X145219752Y-99544980D02*
X145124514Y-99592600D01*
X145124514Y-99592600D02*
X145076895Y-99640219D01*
X145076895Y-99640219D02*
X145029276Y-99735457D01*
X145029276Y-99735457D02*
X145029276Y-99830695D01*
X145029276Y-99830695D02*
X145076895Y-99973552D01*
X145076895Y-99973552D02*
X145648323Y-100544980D01*
X145648323Y-100544980D02*
X145029276Y-100544980D01*
X144172133Y-99878314D02*
X144172133Y-100544980D01*
X144410228Y-99497361D02*
X144648323Y-100211647D01*
X144648323Y-100211647D02*
X144029276Y-100211647D01*
%TO.C,C31*%
X152738057Y-130946742D02*
X152785676Y-130994361D01*
X152785676Y-130994361D02*
X152928533Y-131041980D01*
X152928533Y-131041980D02*
X153023771Y-131041980D01*
X153023771Y-131041980D02*
X153166628Y-130994361D01*
X153166628Y-130994361D02*
X153261866Y-130899123D01*
X153261866Y-130899123D02*
X153309485Y-130803885D01*
X153309485Y-130803885D02*
X153357104Y-130613409D01*
X153357104Y-130613409D02*
X153357104Y-130470552D01*
X153357104Y-130470552D02*
X153309485Y-130280076D01*
X153309485Y-130280076D02*
X153261866Y-130184838D01*
X153261866Y-130184838D02*
X153166628Y-130089600D01*
X153166628Y-130089600D02*
X153023771Y-130041980D01*
X153023771Y-130041980D02*
X152928533Y-130041980D01*
X152928533Y-130041980D02*
X152785676Y-130089600D01*
X152785676Y-130089600D02*
X152738057Y-130137219D01*
X152404723Y-130041980D02*
X151785676Y-130041980D01*
X151785676Y-130041980D02*
X152119009Y-130422933D01*
X152119009Y-130422933D02*
X151976152Y-130422933D01*
X151976152Y-130422933D02*
X151880914Y-130470552D01*
X151880914Y-130470552D02*
X151833295Y-130518171D01*
X151833295Y-130518171D02*
X151785676Y-130613409D01*
X151785676Y-130613409D02*
X151785676Y-130851504D01*
X151785676Y-130851504D02*
X151833295Y-130946742D01*
X151833295Y-130946742D02*
X151880914Y-130994361D01*
X151880914Y-130994361D02*
X151976152Y-131041980D01*
X151976152Y-131041980D02*
X152261866Y-131041980D01*
X152261866Y-131041980D02*
X152357104Y-130994361D01*
X152357104Y-130994361D02*
X152404723Y-130946742D01*
X150833295Y-131041980D02*
X151404723Y-131041980D01*
X151119009Y-131041980D02*
X151119009Y-130041980D01*
X151119009Y-130041980D02*
X151214247Y-130184838D01*
X151214247Y-130184838D02*
X151309485Y-130280076D01*
X151309485Y-130280076D02*
X151404723Y-130327695D01*
%TO.C,D1*%
X129211294Y-86981380D02*
X129211294Y-85981380D01*
X129211294Y-85981380D02*
X128973199Y-85981380D01*
X128973199Y-85981380D02*
X128830342Y-86029000D01*
X128830342Y-86029000D02*
X128735104Y-86124238D01*
X128735104Y-86124238D02*
X128687485Y-86219476D01*
X128687485Y-86219476D02*
X128639866Y-86409952D01*
X128639866Y-86409952D02*
X128639866Y-86552809D01*
X128639866Y-86552809D02*
X128687485Y-86743285D01*
X128687485Y-86743285D02*
X128735104Y-86838523D01*
X128735104Y-86838523D02*
X128830342Y-86933761D01*
X128830342Y-86933761D02*
X128973199Y-86981380D01*
X128973199Y-86981380D02*
X129211294Y-86981380D01*
X127687485Y-86981380D02*
X128258913Y-86981380D01*
X127973199Y-86981380D02*
X127973199Y-85981380D01*
X127973199Y-85981380D02*
X128068437Y-86124238D01*
X128068437Y-86124238D02*
X128163675Y-86219476D01*
X128163675Y-86219476D02*
X128258913Y-86267095D01*
X129997199Y-86336980D02*
X129997199Y-86575076D01*
X130235294Y-86479838D02*
X129997199Y-86575076D01*
X129997199Y-86575076D02*
X129759104Y-86479838D01*
X130140056Y-86765552D02*
X129997199Y-86575076D01*
X129997199Y-86575076D02*
X129854342Y-86765552D01*
%TO.C,C28*%
X154617657Y-124630542D02*
X154665276Y-124678161D01*
X154665276Y-124678161D02*
X154808133Y-124725780D01*
X154808133Y-124725780D02*
X154903371Y-124725780D01*
X154903371Y-124725780D02*
X155046228Y-124678161D01*
X155046228Y-124678161D02*
X155141466Y-124582923D01*
X155141466Y-124582923D02*
X155189085Y-124487685D01*
X155189085Y-124487685D02*
X155236704Y-124297209D01*
X155236704Y-124297209D02*
X155236704Y-124154352D01*
X155236704Y-124154352D02*
X155189085Y-123963876D01*
X155189085Y-123963876D02*
X155141466Y-123868638D01*
X155141466Y-123868638D02*
X155046228Y-123773400D01*
X155046228Y-123773400D02*
X154903371Y-123725780D01*
X154903371Y-123725780D02*
X154808133Y-123725780D01*
X154808133Y-123725780D02*
X154665276Y-123773400D01*
X154665276Y-123773400D02*
X154617657Y-123821019D01*
X154236704Y-123821019D02*
X154189085Y-123773400D01*
X154189085Y-123773400D02*
X154093847Y-123725780D01*
X154093847Y-123725780D02*
X153855752Y-123725780D01*
X153855752Y-123725780D02*
X153760514Y-123773400D01*
X153760514Y-123773400D02*
X153712895Y-123821019D01*
X153712895Y-123821019D02*
X153665276Y-123916257D01*
X153665276Y-123916257D02*
X153665276Y-124011495D01*
X153665276Y-124011495D02*
X153712895Y-124154352D01*
X153712895Y-124154352D02*
X154284323Y-124725780D01*
X154284323Y-124725780D02*
X153665276Y-124725780D01*
X153093847Y-124154352D02*
X153189085Y-124106733D01*
X153189085Y-124106733D02*
X153236704Y-124059114D01*
X153236704Y-124059114D02*
X153284323Y-123963876D01*
X153284323Y-123963876D02*
X153284323Y-123916257D01*
X153284323Y-123916257D02*
X153236704Y-123821019D01*
X153236704Y-123821019D02*
X153189085Y-123773400D01*
X153189085Y-123773400D02*
X153093847Y-123725780D01*
X153093847Y-123725780D02*
X152903371Y-123725780D01*
X152903371Y-123725780D02*
X152808133Y-123773400D01*
X152808133Y-123773400D02*
X152760514Y-123821019D01*
X152760514Y-123821019D02*
X152712895Y-123916257D01*
X152712895Y-123916257D02*
X152712895Y-123963876D01*
X152712895Y-123963876D02*
X152760514Y-124059114D01*
X152760514Y-124059114D02*
X152808133Y-124106733D01*
X152808133Y-124106733D02*
X152903371Y-124154352D01*
X152903371Y-124154352D02*
X153093847Y-124154352D01*
X153093847Y-124154352D02*
X153189085Y-124201971D01*
X153189085Y-124201971D02*
X153236704Y-124249590D01*
X153236704Y-124249590D02*
X153284323Y-124344828D01*
X153284323Y-124344828D02*
X153284323Y-124535304D01*
X153284323Y-124535304D02*
X153236704Y-124630542D01*
X153236704Y-124630542D02*
X153189085Y-124678161D01*
X153189085Y-124678161D02*
X153093847Y-124725780D01*
X153093847Y-124725780D02*
X152903371Y-124725780D01*
X152903371Y-124725780D02*
X152808133Y-124678161D01*
X152808133Y-124678161D02*
X152760514Y-124630542D01*
X152760514Y-124630542D02*
X152712895Y-124535304D01*
X152712895Y-124535304D02*
X152712895Y-124344828D01*
X152712895Y-124344828D02*
X152760514Y-124249590D01*
X152760514Y-124249590D02*
X152808133Y-124201971D01*
X152808133Y-124201971D02*
X152903371Y-124154352D01*
%TO.C,C34*%
X145473657Y-114445142D02*
X145521276Y-114492761D01*
X145521276Y-114492761D02*
X145664133Y-114540380D01*
X145664133Y-114540380D02*
X145759371Y-114540380D01*
X145759371Y-114540380D02*
X145902228Y-114492761D01*
X145902228Y-114492761D02*
X145997466Y-114397523D01*
X145997466Y-114397523D02*
X146045085Y-114302285D01*
X146045085Y-114302285D02*
X146092704Y-114111809D01*
X146092704Y-114111809D02*
X146092704Y-113968952D01*
X146092704Y-113968952D02*
X146045085Y-113778476D01*
X146045085Y-113778476D02*
X145997466Y-113683238D01*
X145997466Y-113683238D02*
X145902228Y-113588000D01*
X145902228Y-113588000D02*
X145759371Y-113540380D01*
X145759371Y-113540380D02*
X145664133Y-113540380D01*
X145664133Y-113540380D02*
X145521276Y-113588000D01*
X145521276Y-113588000D02*
X145473657Y-113635619D01*
X145140323Y-113540380D02*
X144521276Y-113540380D01*
X144521276Y-113540380D02*
X144854609Y-113921333D01*
X144854609Y-113921333D02*
X144711752Y-113921333D01*
X144711752Y-113921333D02*
X144616514Y-113968952D01*
X144616514Y-113968952D02*
X144568895Y-114016571D01*
X144568895Y-114016571D02*
X144521276Y-114111809D01*
X144521276Y-114111809D02*
X144521276Y-114349904D01*
X144521276Y-114349904D02*
X144568895Y-114445142D01*
X144568895Y-114445142D02*
X144616514Y-114492761D01*
X144616514Y-114492761D02*
X144711752Y-114540380D01*
X144711752Y-114540380D02*
X144997466Y-114540380D01*
X144997466Y-114540380D02*
X145092704Y-114492761D01*
X145092704Y-114492761D02*
X145140323Y-114445142D01*
X143664133Y-113873714D02*
X143664133Y-114540380D01*
X143902228Y-113492761D02*
X144140323Y-114207047D01*
X144140323Y-114207047D02*
X143521276Y-114207047D01*
%TO.C,C32*%
X160231057Y-111879742D02*
X160278676Y-111927361D01*
X160278676Y-111927361D02*
X160421533Y-111974980D01*
X160421533Y-111974980D02*
X160516771Y-111974980D01*
X160516771Y-111974980D02*
X160659628Y-111927361D01*
X160659628Y-111927361D02*
X160754866Y-111832123D01*
X160754866Y-111832123D02*
X160802485Y-111736885D01*
X160802485Y-111736885D02*
X160850104Y-111546409D01*
X160850104Y-111546409D02*
X160850104Y-111403552D01*
X160850104Y-111403552D02*
X160802485Y-111213076D01*
X160802485Y-111213076D02*
X160754866Y-111117838D01*
X160754866Y-111117838D02*
X160659628Y-111022600D01*
X160659628Y-111022600D02*
X160516771Y-110974980D01*
X160516771Y-110974980D02*
X160421533Y-110974980D01*
X160421533Y-110974980D02*
X160278676Y-111022600D01*
X160278676Y-111022600D02*
X160231057Y-111070219D01*
X159897723Y-110974980D02*
X159278676Y-110974980D01*
X159278676Y-110974980D02*
X159612009Y-111355933D01*
X159612009Y-111355933D02*
X159469152Y-111355933D01*
X159469152Y-111355933D02*
X159373914Y-111403552D01*
X159373914Y-111403552D02*
X159326295Y-111451171D01*
X159326295Y-111451171D02*
X159278676Y-111546409D01*
X159278676Y-111546409D02*
X159278676Y-111784504D01*
X159278676Y-111784504D02*
X159326295Y-111879742D01*
X159326295Y-111879742D02*
X159373914Y-111927361D01*
X159373914Y-111927361D02*
X159469152Y-111974980D01*
X159469152Y-111974980D02*
X159754866Y-111974980D01*
X159754866Y-111974980D02*
X159850104Y-111927361D01*
X159850104Y-111927361D02*
X159897723Y-111879742D01*
X158897723Y-111070219D02*
X158850104Y-111022600D01*
X158850104Y-111022600D02*
X158754866Y-110974980D01*
X158754866Y-110974980D02*
X158516771Y-110974980D01*
X158516771Y-110974980D02*
X158421533Y-111022600D01*
X158421533Y-111022600D02*
X158373914Y-111070219D01*
X158373914Y-111070219D02*
X158326295Y-111165457D01*
X158326295Y-111165457D02*
X158326295Y-111260695D01*
X158326295Y-111260695D02*
X158373914Y-111403552D01*
X158373914Y-111403552D02*
X158945342Y-111974980D01*
X158945342Y-111974980D02*
X158326295Y-111974980D01*
%TO.C,C33*%
X153982657Y-116273942D02*
X154030276Y-116321561D01*
X154030276Y-116321561D02*
X154173133Y-116369180D01*
X154173133Y-116369180D02*
X154268371Y-116369180D01*
X154268371Y-116369180D02*
X154411228Y-116321561D01*
X154411228Y-116321561D02*
X154506466Y-116226323D01*
X154506466Y-116226323D02*
X154554085Y-116131085D01*
X154554085Y-116131085D02*
X154601704Y-115940609D01*
X154601704Y-115940609D02*
X154601704Y-115797752D01*
X154601704Y-115797752D02*
X154554085Y-115607276D01*
X154554085Y-115607276D02*
X154506466Y-115512038D01*
X154506466Y-115512038D02*
X154411228Y-115416800D01*
X154411228Y-115416800D02*
X154268371Y-115369180D01*
X154268371Y-115369180D02*
X154173133Y-115369180D01*
X154173133Y-115369180D02*
X154030276Y-115416800D01*
X154030276Y-115416800D02*
X153982657Y-115464419D01*
X153649323Y-115369180D02*
X153030276Y-115369180D01*
X153030276Y-115369180D02*
X153363609Y-115750133D01*
X153363609Y-115750133D02*
X153220752Y-115750133D01*
X153220752Y-115750133D02*
X153125514Y-115797752D01*
X153125514Y-115797752D02*
X153077895Y-115845371D01*
X153077895Y-115845371D02*
X153030276Y-115940609D01*
X153030276Y-115940609D02*
X153030276Y-116178704D01*
X153030276Y-116178704D02*
X153077895Y-116273942D01*
X153077895Y-116273942D02*
X153125514Y-116321561D01*
X153125514Y-116321561D02*
X153220752Y-116369180D01*
X153220752Y-116369180D02*
X153506466Y-116369180D01*
X153506466Y-116369180D02*
X153601704Y-116321561D01*
X153601704Y-116321561D02*
X153649323Y-116273942D01*
X152696942Y-115369180D02*
X152077895Y-115369180D01*
X152077895Y-115369180D02*
X152411228Y-115750133D01*
X152411228Y-115750133D02*
X152268371Y-115750133D01*
X152268371Y-115750133D02*
X152173133Y-115797752D01*
X152173133Y-115797752D02*
X152125514Y-115845371D01*
X152125514Y-115845371D02*
X152077895Y-115940609D01*
X152077895Y-115940609D02*
X152077895Y-116178704D01*
X152077895Y-116178704D02*
X152125514Y-116273942D01*
X152125514Y-116273942D02*
X152173133Y-116321561D01*
X152173133Y-116321561D02*
X152268371Y-116369180D01*
X152268371Y-116369180D02*
X152554085Y-116369180D01*
X152554085Y-116369180D02*
X152649323Y-116321561D01*
X152649323Y-116321561D02*
X152696942Y-116273942D01*
%TO.C,C2*%
X133719866Y-93871142D02*
X133767485Y-93918761D01*
X133767485Y-93918761D02*
X133910342Y-93966380D01*
X133910342Y-93966380D02*
X134005580Y-93966380D01*
X134005580Y-93966380D02*
X134148437Y-93918761D01*
X134148437Y-93918761D02*
X134243675Y-93823523D01*
X134243675Y-93823523D02*
X134291294Y-93728285D01*
X134291294Y-93728285D02*
X134338913Y-93537809D01*
X134338913Y-93537809D02*
X134338913Y-93394952D01*
X134338913Y-93394952D02*
X134291294Y-93204476D01*
X134291294Y-93204476D02*
X134243675Y-93109238D01*
X134243675Y-93109238D02*
X134148437Y-93014000D01*
X134148437Y-93014000D02*
X134005580Y-92966380D01*
X134005580Y-92966380D02*
X133910342Y-92966380D01*
X133910342Y-92966380D02*
X133767485Y-93014000D01*
X133767485Y-93014000D02*
X133719866Y-93061619D01*
X133338913Y-93061619D02*
X133291294Y-93014000D01*
X133291294Y-93014000D02*
X133196056Y-92966380D01*
X133196056Y-92966380D02*
X132957961Y-92966380D01*
X132957961Y-92966380D02*
X132862723Y-93014000D01*
X132862723Y-93014000D02*
X132815104Y-93061619D01*
X132815104Y-93061619D02*
X132767485Y-93156857D01*
X132767485Y-93156857D02*
X132767485Y-93252095D01*
X132767485Y-93252095D02*
X132815104Y-93394952D01*
X132815104Y-93394952D02*
X133386532Y-93966380D01*
X133386532Y-93966380D02*
X132767485Y-93966380D01*
%TO.C,C22*%
X139870542Y-101490542D02*
X139918161Y-101442923D01*
X139918161Y-101442923D02*
X139965780Y-101300066D01*
X139965780Y-101300066D02*
X139965780Y-101204828D01*
X139965780Y-101204828D02*
X139918161Y-101061971D01*
X139918161Y-101061971D02*
X139822923Y-100966733D01*
X139822923Y-100966733D02*
X139727685Y-100919114D01*
X139727685Y-100919114D02*
X139537209Y-100871495D01*
X139537209Y-100871495D02*
X139394352Y-100871495D01*
X139394352Y-100871495D02*
X139203876Y-100919114D01*
X139203876Y-100919114D02*
X139108638Y-100966733D01*
X139108638Y-100966733D02*
X139013400Y-101061971D01*
X139013400Y-101061971D02*
X138965780Y-101204828D01*
X138965780Y-101204828D02*
X138965780Y-101300066D01*
X138965780Y-101300066D02*
X139013400Y-101442923D01*
X139013400Y-101442923D02*
X139061019Y-101490542D01*
X139061019Y-101871495D02*
X139013400Y-101919114D01*
X139013400Y-101919114D02*
X138965780Y-102014352D01*
X138965780Y-102014352D02*
X138965780Y-102252447D01*
X138965780Y-102252447D02*
X139013400Y-102347685D01*
X139013400Y-102347685D02*
X139061019Y-102395304D01*
X139061019Y-102395304D02*
X139156257Y-102442923D01*
X139156257Y-102442923D02*
X139251495Y-102442923D01*
X139251495Y-102442923D02*
X139394352Y-102395304D01*
X139394352Y-102395304D02*
X139965780Y-101823876D01*
X139965780Y-101823876D02*
X139965780Y-102442923D01*
X139061019Y-102823876D02*
X139013400Y-102871495D01*
X139013400Y-102871495D02*
X138965780Y-102966733D01*
X138965780Y-102966733D02*
X138965780Y-103204828D01*
X138965780Y-103204828D02*
X139013400Y-103300066D01*
X139013400Y-103300066D02*
X139061019Y-103347685D01*
X139061019Y-103347685D02*
X139156257Y-103395304D01*
X139156257Y-103395304D02*
X139251495Y-103395304D01*
X139251495Y-103395304D02*
X139394352Y-103347685D01*
X139394352Y-103347685D02*
X139965780Y-102776257D01*
X139965780Y-102776257D02*
X139965780Y-103395304D01*
%TO.C,C27*%
X141978742Y-99382342D02*
X142026361Y-99334723D01*
X142026361Y-99334723D02*
X142073980Y-99191866D01*
X142073980Y-99191866D02*
X142073980Y-99096628D01*
X142073980Y-99096628D02*
X142026361Y-98953771D01*
X142026361Y-98953771D02*
X141931123Y-98858533D01*
X141931123Y-98858533D02*
X141835885Y-98810914D01*
X141835885Y-98810914D02*
X141645409Y-98763295D01*
X141645409Y-98763295D02*
X141502552Y-98763295D01*
X141502552Y-98763295D02*
X141312076Y-98810914D01*
X141312076Y-98810914D02*
X141216838Y-98858533D01*
X141216838Y-98858533D02*
X141121600Y-98953771D01*
X141121600Y-98953771D02*
X141073980Y-99096628D01*
X141073980Y-99096628D02*
X141073980Y-99191866D01*
X141073980Y-99191866D02*
X141121600Y-99334723D01*
X141121600Y-99334723D02*
X141169219Y-99382342D01*
X141169219Y-99763295D02*
X141121600Y-99810914D01*
X141121600Y-99810914D02*
X141073980Y-99906152D01*
X141073980Y-99906152D02*
X141073980Y-100144247D01*
X141073980Y-100144247D02*
X141121600Y-100239485D01*
X141121600Y-100239485D02*
X141169219Y-100287104D01*
X141169219Y-100287104D02*
X141264457Y-100334723D01*
X141264457Y-100334723D02*
X141359695Y-100334723D01*
X141359695Y-100334723D02*
X141502552Y-100287104D01*
X141502552Y-100287104D02*
X142073980Y-99715676D01*
X142073980Y-99715676D02*
X142073980Y-100334723D01*
X141073980Y-100668057D02*
X141073980Y-101334723D01*
X141073980Y-101334723D02*
X142073980Y-100906152D01*
%TO.C,D2*%
X134291294Y-86930580D02*
X134291294Y-85930580D01*
X134291294Y-85930580D02*
X134053199Y-85930580D01*
X134053199Y-85930580D02*
X133910342Y-85978200D01*
X133910342Y-85978200D02*
X133815104Y-86073438D01*
X133815104Y-86073438D02*
X133767485Y-86168676D01*
X133767485Y-86168676D02*
X133719866Y-86359152D01*
X133719866Y-86359152D02*
X133719866Y-86502009D01*
X133719866Y-86502009D02*
X133767485Y-86692485D01*
X133767485Y-86692485D02*
X133815104Y-86787723D01*
X133815104Y-86787723D02*
X133910342Y-86882961D01*
X133910342Y-86882961D02*
X134053199Y-86930580D01*
X134053199Y-86930580D02*
X134291294Y-86930580D01*
X133338913Y-86025819D02*
X133291294Y-85978200D01*
X133291294Y-85978200D02*
X133196056Y-85930580D01*
X133196056Y-85930580D02*
X132957961Y-85930580D01*
X132957961Y-85930580D02*
X132862723Y-85978200D01*
X132862723Y-85978200D02*
X132815104Y-86025819D01*
X132815104Y-86025819D02*
X132767485Y-86121057D01*
X132767485Y-86121057D02*
X132767485Y-86216295D01*
X132767485Y-86216295D02*
X132815104Y-86359152D01*
X132815104Y-86359152D02*
X133386532Y-86930580D01*
X133386532Y-86930580D02*
X132767485Y-86930580D01*
X135077199Y-86336980D02*
X135077199Y-86575076D01*
X135315294Y-86479838D02*
X135077199Y-86575076D01*
X135077199Y-86575076D02*
X134839104Y-86479838D01*
X135220056Y-86765552D02*
X135077199Y-86575076D01*
X135077199Y-86575076D02*
X134934342Y-86765552D01*
%TO.C,C7*%
X133719866Y-103319942D02*
X133767485Y-103367561D01*
X133767485Y-103367561D02*
X133910342Y-103415180D01*
X133910342Y-103415180D02*
X134005580Y-103415180D01*
X134005580Y-103415180D02*
X134148437Y-103367561D01*
X134148437Y-103367561D02*
X134243675Y-103272323D01*
X134243675Y-103272323D02*
X134291294Y-103177085D01*
X134291294Y-103177085D02*
X134338913Y-102986609D01*
X134338913Y-102986609D02*
X134338913Y-102843752D01*
X134338913Y-102843752D02*
X134291294Y-102653276D01*
X134291294Y-102653276D02*
X134243675Y-102558038D01*
X134243675Y-102558038D02*
X134148437Y-102462800D01*
X134148437Y-102462800D02*
X134005580Y-102415180D01*
X134005580Y-102415180D02*
X133910342Y-102415180D01*
X133910342Y-102415180D02*
X133767485Y-102462800D01*
X133767485Y-102462800D02*
X133719866Y-102510419D01*
X133386532Y-102415180D02*
X132719866Y-102415180D01*
X132719866Y-102415180D02*
X133148437Y-103415180D01*
%TO.C,D5*%
X149531294Y-87057580D02*
X149531294Y-86057580D01*
X149531294Y-86057580D02*
X149293199Y-86057580D01*
X149293199Y-86057580D02*
X149150342Y-86105200D01*
X149150342Y-86105200D02*
X149055104Y-86200438D01*
X149055104Y-86200438D02*
X149007485Y-86295676D01*
X149007485Y-86295676D02*
X148959866Y-86486152D01*
X148959866Y-86486152D02*
X148959866Y-86629009D01*
X148959866Y-86629009D02*
X149007485Y-86819485D01*
X149007485Y-86819485D02*
X149055104Y-86914723D01*
X149055104Y-86914723D02*
X149150342Y-87009961D01*
X149150342Y-87009961D02*
X149293199Y-87057580D01*
X149293199Y-87057580D02*
X149531294Y-87057580D01*
X148055104Y-86057580D02*
X148531294Y-86057580D01*
X148531294Y-86057580D02*
X148578913Y-86533771D01*
X148578913Y-86533771D02*
X148531294Y-86486152D01*
X148531294Y-86486152D02*
X148436056Y-86438533D01*
X148436056Y-86438533D02*
X148197961Y-86438533D01*
X148197961Y-86438533D02*
X148102723Y-86486152D01*
X148102723Y-86486152D02*
X148055104Y-86533771D01*
X148055104Y-86533771D02*
X148007485Y-86629009D01*
X148007485Y-86629009D02*
X148007485Y-86867104D01*
X148007485Y-86867104D02*
X148055104Y-86962342D01*
X148055104Y-86962342D02*
X148102723Y-87009961D01*
X148102723Y-87009961D02*
X148197961Y-87057580D01*
X148197961Y-87057580D02*
X148436056Y-87057580D01*
X148436056Y-87057580D02*
X148531294Y-87009961D01*
X148531294Y-87009961D02*
X148578913Y-86962342D01*
X150317199Y-86336980D02*
X150317199Y-86575076D01*
X150555294Y-86479838D02*
X150317199Y-86575076D01*
X150317199Y-86575076D02*
X150079104Y-86479838D01*
X150460056Y-86765552D02*
X150317199Y-86575076D01*
X150317199Y-86575076D02*
X150174342Y-86765552D01*
D12*
%TO.C,C35*%
X152604736Y-108566100D02*
X152389064Y-108566100D01*
X152604736Y-107846100D02*
X152389064Y-107846100D01*
%TO.C,C26*%
X145446636Y-102620400D02*
X145230964Y-102620400D01*
X145446636Y-101900400D02*
X145230964Y-101900400D01*
%TO.C,C25*%
X136453200Y-99508364D02*
X136453200Y-99724036D01*
X135733200Y-99508364D02*
X135733200Y-99724036D01*
D13*
%TO.C,C5*%
X149962200Y-96335600D02*
X149962200Y-94875600D01*
X147624200Y-94875600D02*
X147624200Y-96335600D01*
D14*
X149693200Y-97305600D02*
G75*
G03*
X149693200Y-97305600I-100000J0D01*
G01*
D12*
%TO.C,U5*%
X154585200Y-113611700D02*
X155385200Y-113611700D01*
X154585200Y-113611700D02*
X153785200Y-113611700D01*
X154585200Y-110491700D02*
X156385200Y-110491700D01*
X154585200Y-110491700D02*
X153785200Y-110491700D01*
D13*
%TO.C,C4*%
X144882200Y-96335600D02*
X144882200Y-94875600D01*
X142544200Y-94875600D02*
X142544200Y-96335600D01*
D14*
X144613200Y-97305600D02*
G75*
G03*
X144613200Y-97305600I-100000J0D01*
G01*
D12*
%TO.C,U3*%
X153198000Y-126994500D02*
X153198000Y-126194500D01*
X153198000Y-126994500D02*
X153198000Y-127794500D01*
X150078000Y-126994500D02*
X150078000Y-125194500D01*
X150078000Y-126994500D02*
X150078000Y-127794500D01*
%TO.C,C20*%
X138612200Y-99508364D02*
X138612200Y-99724036D01*
X137892200Y-99508364D02*
X137892200Y-99724036D01*
%TO.C,D12*%
X149717400Y-126707000D02*
X147057400Y-126707000D01*
X149717400Y-125007000D02*
X149717400Y-126707000D01*
X149717400Y-125007000D02*
X147057400Y-125007000D01*
%TO.C,C38*%
X146805680Y-109864600D02*
X146524520Y-109864600D01*
X146805680Y-108844600D02*
X146524520Y-108844600D01*
%TO.C,D4*%
X144551400Y-89700100D02*
X142875000Y-89700100D01*
X142875000Y-87287100D02*
X144551400Y-87287100D01*
%TO.C,U4*%
X151349300Y-116771400D02*
X151349300Y-115971400D01*
X151349300Y-116771400D02*
X151349300Y-117571400D01*
X148229300Y-116771400D02*
X148229300Y-114971400D01*
X148229300Y-116771400D02*
X148229300Y-117571400D01*
%TO.C,U6*%
X148646300Y-113403800D02*
X149446300Y-113403800D01*
X148646300Y-113403800D02*
X147846300Y-113403800D01*
X148646300Y-110283800D02*
X150446300Y-110283800D01*
X148646300Y-110283800D02*
X147846300Y-110283800D01*
D15*
%TO.C,D9*%
X147574000Y-127012700D02*
X146659600Y-127012700D01*
X146659600Y-127012700D02*
X146659600Y-128282700D01*
X146659600Y-128282700D02*
X147574000Y-128282700D01*
X147574000Y-128282700D02*
X147574000Y-127012700D01*
D12*
%TO.C,C36*%
X152625080Y-109986100D02*
X152343920Y-109986100D01*
X152625080Y-108966100D02*
X152343920Y-108966100D01*
%TO.C,R13*%
X144245359Y-98121200D02*
X144552641Y-98121200D01*
X144245359Y-98881200D02*
X144552641Y-98881200D01*
%TO.C,C16*%
X140783364Y-129865800D02*
X140999036Y-129865800D01*
X140783364Y-130585800D02*
X140999036Y-130585800D01*
%TO.C,D6*%
X154711400Y-89700100D02*
X153035000Y-89700100D01*
X153035000Y-87287100D02*
X154711400Y-87287100D01*
D13*
%TO.C,C1*%
X129642200Y-96335600D02*
X129642200Y-94875600D01*
X127304200Y-94875600D02*
X127304200Y-96335600D01*
D14*
X129373200Y-97305600D02*
G75*
G03*
X129373200Y-97305600I-100000J0D01*
G01*
D12*
%TO.C,F1*%
X144892352Y-128252800D02*
X142119848Y-128252800D01*
X144892352Y-124832800D02*
X142119848Y-124832800D01*
%TO.C,C9*%
X135274164Y-103884200D02*
X135489836Y-103884200D01*
X135274164Y-104604200D02*
X135489836Y-104604200D01*
%TO.C,D3*%
X139471400Y-89700100D02*
X137795000Y-89700100D01*
X137795000Y-87287100D02*
X139471400Y-87287100D01*
%TO.C,C30*%
X151082700Y-112162180D02*
X151082700Y-111881020D01*
X152102700Y-112162180D02*
X152102700Y-111881020D01*
%TO.C,C37*%
X149021064Y-109248600D02*
X149236736Y-109248600D01*
X149021064Y-109968600D02*
X149236736Y-109968600D01*
%TO.C,C23*%
X137520000Y-99508364D02*
X137520000Y-99724036D01*
X136800000Y-99508364D02*
X136800000Y-99724036D01*
%TO.C,C29*%
X146815500Y-117304980D02*
X146815500Y-117023820D01*
X147835500Y-117304980D02*
X147835500Y-117023820D01*
D13*
%TO.C,C3*%
X139802200Y-96321300D02*
X139802200Y-94861300D01*
X137464200Y-94861300D02*
X137464200Y-96321300D01*
D14*
X139533200Y-97291300D02*
G75*
G03*
X139533200Y-97291300I-100000J0D01*
G01*
D12*
%TO.C,C24*%
X145446636Y-100884400D02*
X145230964Y-100884400D01*
X145446636Y-101604400D02*
X145230964Y-101604400D01*
%TO.C,C31*%
X151987364Y-129154600D02*
X152203036Y-129154600D01*
X151987364Y-129874600D02*
X152203036Y-129874600D01*
%TO.C,D1*%
X129311400Y-89700100D02*
X127635000Y-89700100D01*
X127635000Y-87287100D02*
X129311400Y-87287100D01*
%TO.C,C28*%
X151050164Y-123871400D02*
X151265836Y-123871400D01*
X151050164Y-124591400D02*
X151265836Y-124591400D01*
%TO.C,C34*%
X147268464Y-113820600D02*
X147484136Y-113820600D01*
X147268464Y-114540600D02*
X147484136Y-114540600D01*
%TO.C,C32*%
X157536000Y-111489264D02*
X157536000Y-111704936D01*
X156816000Y-111489264D02*
X156816000Y-111704936D01*
%TO.C,C33*%
X149414536Y-114489800D02*
X149198864Y-114489800D01*
X149414536Y-113769800D02*
X149198864Y-113769800D01*
%TO.C,REF\u002A\u002A*%
G36*
X159228206Y-104738549D02*
G01*
X159253927Y-104754247D01*
X159280578Y-104775827D01*
X159280578Y-105423284D01*
X159253927Y-105444864D01*
X159222567Y-105462339D01*
X159186766Y-105463175D01*
X159155328Y-105442682D01*
X159151452Y-105438016D01*
X159145986Y-105428549D01*
X159141779Y-105414867D01*
X159138667Y-105394348D01*
X159136487Y-105364368D01*
X159135076Y-105322304D01*
X159134271Y-105265532D01*
X159133907Y-105191430D01*
X159133822Y-105097373D01*
X159133822Y-104775827D01*
X159160473Y-104754247D01*
X159184186Y-104739477D01*
X159207200Y-104732667D01*
X159228206Y-104738549D01*
G37*
D16*
X159228206Y-104738549D02*
X159253927Y-104754247D01*
X159280578Y-104775827D01*
X159280578Y-105423284D01*
X159253927Y-105444864D01*
X159222567Y-105462339D01*
X159186766Y-105463175D01*
X159155328Y-105442682D01*
X159151452Y-105438016D01*
X159145986Y-105428549D01*
X159141779Y-105414867D01*
X159138667Y-105394348D01*
X159136487Y-105364368D01*
X159135076Y-105322304D01*
X159134271Y-105265532D01*
X159133907Y-105191430D01*
X159133822Y-105097373D01*
X159133822Y-104775827D01*
X159160473Y-104754247D01*
X159184186Y-104739477D01*
X159207200Y-104732667D01*
X159228206Y-104738549D01*
G36*
X166358937Y-104737063D02*
G01*
X166393091Y-104760376D01*
X166420800Y-104788085D01*
X166420800Y-105101137D01*
X166420759Y-105185167D01*
X166420501Y-105259389D01*
X166419830Y-105316141D01*
X166418552Y-105358112D01*
X166416473Y-105387989D01*
X166413399Y-105408461D01*
X166409134Y-105422214D01*
X166403484Y-105431937D01*
X166396255Y-105440317D01*
X166364791Y-105461781D01*
X166329626Y-105463547D01*
X166296622Y-105443867D01*
X166291316Y-105437998D01*
X166285866Y-105428914D01*
X166281700Y-105415573D01*
X166278646Y-105395357D01*
X166276532Y-105365649D01*
X166275186Y-105323832D01*
X166274438Y-105267289D01*
X166274114Y-105193402D01*
X166274045Y-105099556D01*
X166274084Y-105023894D01*
X166274339Y-104945985D01*
X166274983Y-104885975D01*
X166276187Y-104841248D01*
X166278124Y-104809185D01*
X166280964Y-104787171D01*
X166284879Y-104772587D01*
X166290042Y-104762818D01*
X166296622Y-104755245D01*
X166325806Y-104736223D01*
X166358937Y-104737063D01*
G37*
X166358937Y-104737063D02*
X166393091Y-104760376D01*
X166420800Y-104788085D01*
X166420800Y-105101137D01*
X166420759Y-105185167D01*
X166420501Y-105259389D01*
X166419830Y-105316141D01*
X166418552Y-105358112D01*
X166416473Y-105387989D01*
X166413399Y-105408461D01*
X166409134Y-105422214D01*
X166403484Y-105431937D01*
X166396255Y-105440317D01*
X166364791Y-105461781D01*
X166329626Y-105463547D01*
X166296622Y-105443867D01*
X166291316Y-105437998D01*
X166285866Y-105428914D01*
X166281700Y-105415573D01*
X166278646Y-105395357D01*
X166276532Y-105365649D01*
X166275186Y-105323832D01*
X166274438Y-105267289D01*
X166274114Y-105193402D01*
X166274045Y-105099556D01*
X166274084Y-105023894D01*
X166274339Y-104945985D01*
X166274983Y-104885975D01*
X166276187Y-104841248D01*
X166278124Y-104809185D01*
X166280964Y-104787171D01*
X166284879Y-104772587D01*
X166290042Y-104762818D01*
X166296622Y-104755245D01*
X166325806Y-104736223D01*
X166358937Y-104737063D01*
G36*
X165827362Y-99496450D02*
G01*
X165910113Y-99523653D01*
X165985206Y-99569084D01*
X166057098Y-99634902D01*
X166095646Y-99679167D01*
X166135056Y-99737561D01*
X166160246Y-99798186D01*
X166173661Y-99867465D01*
X166177748Y-99951822D01*
X166177469Y-99997907D01*
X166175260Y-100039050D01*
X166169694Y-100071182D01*
X166159386Y-100101722D01*
X166142948Y-100138089D01*
X166129000Y-100165328D01*
X166070465Y-100251029D01*
X165998419Y-100320217D01*
X165914747Y-100371341D01*
X165821331Y-100402850D01*
X165788234Y-100409825D01*
X165747760Y-100416694D01*
X165714799Y-100418519D01*
X165680498Y-100415547D01*
X165636000Y-100408026D01*
X165584734Y-100395602D01*
X165494234Y-100357712D01*
X165415145Y-100303436D01*
X165349328Y-100235370D01*
X165298640Y-100156111D01*
X165264940Y-100068254D01*
X165250086Y-99974395D01*
X165255936Y-99877130D01*
X165282199Y-99780820D01*
X165327218Y-99692094D01*
X165388173Y-99617019D01*
X165462984Y-99557241D01*
X165549568Y-99514409D01*
X165645843Y-99490171D01*
X165749728Y-99486176D01*
X165827362Y-99496450D01*
G37*
X165827362Y-99496450D02*
X165910113Y-99523653D01*
X165985206Y-99569084D01*
X166057098Y-99634902D01*
X166095646Y-99679167D01*
X166135056Y-99737561D01*
X166160246Y-99798186D01*
X166173661Y-99867465D01*
X166177748Y-99951822D01*
X166177469Y-99997907D01*
X166175260Y-100039050D01*
X166169694Y-100071182D01*
X166159386Y-100101722D01*
X166142948Y-100138089D01*
X166129000Y-100165328D01*
X166070465Y-100251029D01*
X165998419Y-100320217D01*
X165914747Y-100371341D01*
X165821331Y-100402850D01*
X165788234Y-100409825D01*
X165747760Y-100416694D01*
X165714799Y-100418519D01*
X165680498Y-100415547D01*
X165636000Y-100408026D01*
X165584734Y-100395602D01*
X165494234Y-100357712D01*
X165415145Y-100303436D01*
X165349328Y-100235370D01*
X165298640Y-100156111D01*
X165264940Y-100068254D01*
X165250086Y-99974395D01*
X165255936Y-99877130D01*
X165282199Y-99780820D01*
X165327218Y-99692094D01*
X165388173Y-99617019D01*
X165462984Y-99557241D01*
X165549568Y-99514409D01*
X165645843Y-99490171D01*
X165749728Y-99486176D01*
X165827362Y-99496450D01*
G36*
X158528567Y-104732668D02*
G01*
X158622690Y-104732758D01*
X158697205Y-104733098D01*
X158754611Y-104733839D01*
X158797411Y-104735135D01*
X158828104Y-104737137D01*
X158849191Y-104739996D01*
X158863173Y-104743866D01*
X158872550Y-104748898D01*
X158879822Y-104755245D01*
X158898628Y-104787962D01*
X158900075Y-104825539D01*
X158883717Y-104858778D01*
X158882357Y-104860231D01*
X158871154Y-104868592D01*
X158854052Y-104874147D01*
X158826882Y-104877440D01*
X158785478Y-104879018D01*
X158725673Y-104879422D01*
X158586311Y-104879422D01*
X158586311Y-105143189D01*
X158586236Y-105219017D01*
X158585828Y-105285683D01*
X158584846Y-105335467D01*
X158583050Y-105371384D01*
X158580199Y-105396450D01*
X158576053Y-105413681D01*
X158570371Y-105426092D01*
X158562914Y-105436700D01*
X158560624Y-105439506D01*
X158529446Y-105462148D01*
X158495066Y-105463712D01*
X158462134Y-105443867D01*
X158455155Y-105435791D01*
X158449683Y-105425193D01*
X158445663Y-105409349D01*
X158442872Y-105385373D01*
X158441088Y-105350374D01*
X158440089Y-105301464D01*
X158439652Y-105235754D01*
X158439556Y-105150356D01*
X158439556Y-104879422D01*
X158293620Y-104879422D01*
X158282520Y-104879421D01*
X158226002Y-104879196D01*
X158187158Y-104878057D01*
X158161765Y-104875257D01*
X158145604Y-104870050D01*
X158134452Y-104861689D01*
X158124089Y-104849426D01*
X158108241Y-104818738D01*
X158111343Y-104784958D01*
X158136987Y-104752422D01*
X158141929Y-104748705D01*
X158152138Y-104743869D01*
X158167564Y-104740106D01*
X158190686Y-104737283D01*
X158223983Y-104735270D01*
X158269937Y-104733933D01*
X158331028Y-104733142D01*
X158409735Y-104732763D01*
X158508540Y-104732667D01*
X158528567Y-104732668D01*
G37*
X158528567Y-104732668D02*
X158622690Y-104732758D01*
X158697205Y-104733098D01*
X158754611Y-104733839D01*
X158797411Y-104735135D01*
X158828104Y-104737137D01*
X158849191Y-104739996D01*
X158863173Y-104743866D01*
X158872550Y-104748898D01*
X158879822Y-104755245D01*
X158898628Y-104787962D01*
X158900075Y-104825539D01*
X158883717Y-104858778D01*
X158882357Y-104860231D01*
X158871154Y-104868592D01*
X158854052Y-104874147D01*
X158826882Y-104877440D01*
X158785478Y-104879018D01*
X158725673Y-104879422D01*
X158586311Y-104879422D01*
X158586311Y-105143189D01*
X158586236Y-105219017D01*
X158585828Y-105285683D01*
X158584846Y-105335467D01*
X158583050Y-105371384D01*
X158580199Y-105396450D01*
X158576053Y-105413681D01*
X158570371Y-105426092D01*
X158562914Y-105436700D01*
X158560624Y-105439506D01*
X158529446Y-105462148D01*
X158495066Y-105463712D01*
X158462134Y-105443867D01*
X158455155Y-105435791D01*
X158449683Y-105425193D01*
X158445663Y-105409349D01*
X158442872Y-105385373D01*
X158441088Y-105350374D01*
X158440089Y-105301464D01*
X158439652Y-105235754D01*
X158439556Y-105150356D01*
X158439556Y-104879422D01*
X158293620Y-104879422D01*
X158282520Y-104879421D01*
X158226002Y-104879196D01*
X158187158Y-104878057D01*
X158161765Y-104875257D01*
X158145604Y-104870050D01*
X158134452Y-104861689D01*
X158124089Y-104849426D01*
X158108241Y-104818738D01*
X158111343Y-104784958D01*
X158136987Y-104752422D01*
X158141929Y-104748705D01*
X158152138Y-104743869D01*
X158167564Y-104740106D01*
X158190686Y-104737283D01*
X158223983Y-104735270D01*
X158269937Y-104733933D01*
X158331028Y-104733142D01*
X158409735Y-104732763D01*
X158508540Y-104732667D01*
X158528567Y-104732668D01*
G36*
X157852534Y-104755245D02*
G01*
X157858166Y-104761435D01*
X157863256Y-104769641D01*
X157867343Y-104781417D01*
X157870521Y-104798876D01*
X157872887Y-104824130D01*
X157874538Y-104859290D01*
X157875569Y-104906469D01*
X157876077Y-104967777D01*
X157876159Y-105045327D01*
X157875909Y-105141231D01*
X157875425Y-105257600D01*
X157875357Y-105271775D01*
X157874771Y-105333537D01*
X157873448Y-105377220D01*
X157870903Y-105406601D01*
X157866648Y-105425455D01*
X157860196Y-105437559D01*
X157851062Y-105446689D01*
X157817604Y-105464106D01*
X157782656Y-105461204D01*
X157751753Y-105436700D01*
X157742744Y-105423497D01*
X157735292Y-105404961D01*
X157730924Y-105378933D01*
X157728869Y-105340387D01*
X157728356Y-105284300D01*
X157728356Y-105161645D01*
X157231645Y-105161645D01*
X157231645Y-105296471D01*
X157231572Y-105332262D01*
X157230809Y-105378592D01*
X157228633Y-105409126D01*
X157224336Y-105428157D01*
X157217212Y-105439974D01*
X157206555Y-105448871D01*
X157174304Y-105463941D01*
X157139017Y-105461273D01*
X157108286Y-105436700D01*
X157103631Y-105430445D01*
X157097695Y-105419921D01*
X157093164Y-105405991D01*
X157089848Y-105385917D01*
X157087559Y-105356960D01*
X157086108Y-105316380D01*
X157085305Y-105261440D01*
X157084962Y-105189399D01*
X157084889Y-105097520D01*
X157084889Y-104788085D01*
X157112598Y-104760376D01*
X157143977Y-104738133D01*
X157177206Y-104735444D01*
X157209067Y-104755245D01*
X157217353Y-104765015D01*
X157224765Y-104780907D01*
X157229102Y-104804875D01*
X157231138Y-104841748D01*
X157231645Y-104896356D01*
X157231645Y-105014889D01*
X157728356Y-105014889D01*
X157728356Y-104899376D01*
X157728794Y-104847678D01*
X157730758Y-104813154D01*
X157735274Y-104790578D01*
X157743367Y-104774726D01*
X157756065Y-104760376D01*
X157787443Y-104738133D01*
X157820672Y-104735444D01*
X157852534Y-104755245D01*
G37*
X157852534Y-104755245D02*
X157858166Y-104761435D01*
X157863256Y-104769641D01*
X157867343Y-104781417D01*
X157870521Y-104798876D01*
X157872887Y-104824130D01*
X157874538Y-104859290D01*
X157875569Y-104906469D01*
X157876077Y-104967777D01*
X157876159Y-105045327D01*
X157875909Y-105141231D01*
X157875425Y-105257600D01*
X157875357Y-105271775D01*
X157874771Y-105333537D01*
X157873448Y-105377220D01*
X157870903Y-105406601D01*
X157866648Y-105425455D01*
X157860196Y-105437559D01*
X157851062Y-105446689D01*
X157817604Y-105464106D01*
X157782656Y-105461204D01*
X157751753Y-105436700D01*
X157742744Y-105423497D01*
X157735292Y-105404961D01*
X157730924Y-105378933D01*
X157728869Y-105340387D01*
X157728356Y-105284300D01*
X157728356Y-105161645D01*
X157231645Y-105161645D01*
X157231645Y-105296471D01*
X157231572Y-105332262D01*
X157230809Y-105378592D01*
X157228633Y-105409126D01*
X157224336Y-105428157D01*
X157217212Y-105439974D01*
X157206555Y-105448871D01*
X157174304Y-105463941D01*
X157139017Y-105461273D01*
X157108286Y-105436700D01*
X157103631Y-105430445D01*
X157097695Y-105419921D01*
X157093164Y-105405991D01*
X157089848Y-105385917D01*
X157087559Y-105356960D01*
X157086108Y-105316380D01*
X157085305Y-105261440D01*
X157084962Y-105189399D01*
X157084889Y-105097520D01*
X157084889Y-104788085D01*
X157112598Y-104760376D01*
X157143977Y-104738133D01*
X157177206Y-104735444D01*
X157209067Y-104755245D01*
X157217353Y-104765015D01*
X157224765Y-104780907D01*
X157229102Y-104804875D01*
X157231138Y-104841748D01*
X157231645Y-104896356D01*
X157231645Y-105014889D01*
X157728356Y-105014889D01*
X157728356Y-104899376D01*
X157728794Y-104847678D01*
X157730758Y-104813154D01*
X157735274Y-104790578D01*
X157743367Y-104774726D01*
X157756065Y-104760376D01*
X157787443Y-104738133D01*
X157820672Y-104735444D01*
X157852534Y-104755245D01*
G36*
X162558575Y-105319689D02*
G01*
X162557933Y-105343996D01*
X162555963Y-105376775D01*
X162553035Y-105399695D01*
X162548958Y-105415497D01*
X162543543Y-105426919D01*
X162536603Y-105436700D01*
X162513206Y-105466445D01*
X162347514Y-105465851D01*
X162312718Y-105465553D01*
X162214235Y-105462122D01*
X162133273Y-105454439D01*
X162066179Y-105441882D01*
X162009296Y-105423827D01*
X161958969Y-105399652D01*
X161955610Y-105397735D01*
X161897798Y-105361017D01*
X161855444Y-105324051D01*
X161822628Y-105280566D01*
X161793428Y-105224289D01*
X161789146Y-105214673D01*
X161766569Y-105151487D01*
X161760834Y-105105933D01*
X161910079Y-105105933D01*
X161915692Y-105130661D01*
X161921418Y-105146539D01*
X161954348Y-105206447D01*
X162001686Y-105252200D01*
X162065452Y-105285336D01*
X162147661Y-105307390D01*
X162150455Y-105307892D01*
X162196740Y-105313855D01*
X162253136Y-105318083D01*
X162308074Y-105319689D01*
X162401956Y-105319689D01*
X162401956Y-104879422D01*
X162314467Y-104879870D01*
X162247547Y-104882346D01*
X162155149Y-104893598D01*
X162075834Y-104913137D01*
X162013860Y-104940111D01*
X161982920Y-104960840D01*
X161954800Y-104990606D01*
X161931460Y-105033034D01*
X161924333Y-105049000D01*
X161912509Y-105081502D01*
X161910079Y-105105933D01*
X161760834Y-105105933D01*
X161759597Y-105096109D01*
X161768199Y-105041083D01*
X161792341Y-104978951D01*
X161793137Y-104977258D01*
X161833588Y-104907836D01*
X161884273Y-104851238D01*
X161946998Y-104806670D01*
X162023574Y-104773341D01*
X162115809Y-104750461D01*
X162225512Y-104737236D01*
X162354491Y-104732875D01*
X162358063Y-104732870D01*
X162418083Y-104733010D01*
X162460014Y-104734046D01*
X162488128Y-104736640D01*
X162506697Y-104741453D01*
X162519994Y-104749144D01*
X162532291Y-104760376D01*
X162560000Y-104788085D01*
X162560000Y-105097520D01*
X162559975Y-105159126D01*
X162559750Y-105237911D01*
X162559132Y-105298621D01*
X162558575Y-105319689D01*
G37*
X162558575Y-105319689D02*
X162557933Y-105343996D01*
X162555963Y-105376775D01*
X162553035Y-105399695D01*
X162548958Y-105415497D01*
X162543543Y-105426919D01*
X162536603Y-105436700D01*
X162513206Y-105466445D01*
X162347514Y-105465851D01*
X162312718Y-105465553D01*
X162214235Y-105462122D01*
X162133273Y-105454439D01*
X162066179Y-105441882D01*
X162009296Y-105423827D01*
X161958969Y-105399652D01*
X161955610Y-105397735D01*
X161897798Y-105361017D01*
X161855444Y-105324051D01*
X161822628Y-105280566D01*
X161793428Y-105224289D01*
X161789146Y-105214673D01*
X161766569Y-105151487D01*
X161760834Y-105105933D01*
X161910079Y-105105933D01*
X161915692Y-105130661D01*
X161921418Y-105146539D01*
X161954348Y-105206447D01*
X162001686Y-105252200D01*
X162065452Y-105285336D01*
X162147661Y-105307390D01*
X162150455Y-105307892D01*
X162196740Y-105313855D01*
X162253136Y-105318083D01*
X162308074Y-105319689D01*
X162401956Y-105319689D01*
X162401956Y-104879422D01*
X162314467Y-104879870D01*
X162247547Y-104882346D01*
X162155149Y-104893598D01*
X162075834Y-104913137D01*
X162013860Y-104940111D01*
X161982920Y-104960840D01*
X161954800Y-104990606D01*
X161931460Y-105033034D01*
X161924333Y-105049000D01*
X161912509Y-105081502D01*
X161910079Y-105105933D01*
X161760834Y-105105933D01*
X161759597Y-105096109D01*
X161768199Y-105041083D01*
X161792341Y-104978951D01*
X161793137Y-104977258D01*
X161833588Y-104907836D01*
X161884273Y-104851238D01*
X161946998Y-104806670D01*
X162023574Y-104773341D01*
X162115809Y-104750461D01*
X162225512Y-104737236D01*
X162354491Y-104732875D01*
X162358063Y-104732870D01*
X162418083Y-104733010D01*
X162460014Y-104734046D01*
X162488128Y-104736640D01*
X162506697Y-104741453D01*
X162519994Y-104749144D01*
X162532291Y-104760376D01*
X162560000Y-104788085D01*
X162560000Y-105097520D01*
X162559975Y-105159126D01*
X162559750Y-105237911D01*
X162559132Y-105298621D01*
X162558575Y-105319689D01*
G36*
X169648657Y-104879422D02*
G01*
X169649617Y-104918027D01*
X169649670Y-104998641D01*
X169649422Y-105099556D01*
X169649383Y-105175217D01*
X169649128Y-105253126D01*
X169648484Y-105313136D01*
X169647280Y-105357864D01*
X169645343Y-105389926D01*
X169642503Y-105411940D01*
X169638588Y-105426524D01*
X169633426Y-105436294D01*
X169626845Y-105443867D01*
X169619877Y-105450101D01*
X169606879Y-105457401D01*
X169587731Y-105462154D01*
X169558328Y-105464892D01*
X169514562Y-105466145D01*
X169452328Y-105466445D01*
X169403382Y-105466069D01*
X169296522Y-105461641D01*
X169207294Y-105451553D01*
X169132496Y-105434965D01*
X169068925Y-105411035D01*
X169013379Y-105378921D01*
X168962654Y-105337782D01*
X168956666Y-105331930D01*
X168919799Y-105283421D01*
X168888699Y-105222613D01*
X168867217Y-105158369D01*
X168861936Y-105119626D01*
X169009153Y-105119626D01*
X169027435Y-105170561D01*
X169057105Y-105216478D01*
X169103802Y-105258887D01*
X169165192Y-105288690D01*
X169244338Y-105307826D01*
X169245828Y-105308064D01*
X169294799Y-105313856D01*
X169353493Y-105317996D01*
X169409534Y-105319604D01*
X169502667Y-105319689D01*
X169502667Y-104879422D01*
X169426467Y-104879408D01*
X169423439Y-104879417D01*
X169372319Y-104881382D01*
X169312216Y-104886107D01*
X169255508Y-104892635D01*
X169205550Y-104901931D01*
X169130798Y-104928200D01*
X169073289Y-104967499D01*
X169031788Y-105020533D01*
X169010571Y-105071800D01*
X169009153Y-105119626D01*
X168861936Y-105119626D01*
X168859200Y-105099556D01*
X168860479Y-105078339D01*
X168872791Y-105020923D01*
X168895320Y-104961013D01*
X168924550Y-104906963D01*
X168956967Y-104867132D01*
X168976508Y-104850110D01*
X169031220Y-104810922D01*
X169091523Y-104780793D01*
X169160719Y-104758832D01*
X169242111Y-104744150D01*
X169339000Y-104735859D01*
X169454689Y-104733067D01*
X169494171Y-104732666D01*
X169539882Y-104732253D01*
X169575683Y-104734057D01*
X169602774Y-104740339D01*
X169622356Y-104753359D01*
X169635630Y-104775378D01*
X169643798Y-104808655D01*
X169648060Y-104855451D01*
X169648657Y-104879422D01*
G37*
X169648657Y-104879422D02*
X169649617Y-104918027D01*
X169649670Y-104998641D01*
X169649422Y-105099556D01*
X169649383Y-105175217D01*
X169649128Y-105253126D01*
X169648484Y-105313136D01*
X169647280Y-105357864D01*
X169645343Y-105389926D01*
X169642503Y-105411940D01*
X169638588Y-105426524D01*
X169633426Y-105436294D01*
X169626845Y-105443867D01*
X169619877Y-105450101D01*
X169606879Y-105457401D01*
X169587731Y-105462154D01*
X169558328Y-105464892D01*
X169514562Y-105466145D01*
X169452328Y-105466445D01*
X169403382Y-105466069D01*
X169296522Y-105461641D01*
X169207294Y-105451553D01*
X169132496Y-105434965D01*
X169068925Y-105411035D01*
X169013379Y-105378921D01*
X168962654Y-105337782D01*
X168956666Y-105331930D01*
X168919799Y-105283421D01*
X168888699Y-105222613D01*
X168867217Y-105158369D01*
X168861936Y-105119626D01*
X169009153Y-105119626D01*
X169027435Y-105170561D01*
X169057105Y-105216478D01*
X169103802Y-105258887D01*
X169165192Y-105288690D01*
X169244338Y-105307826D01*
X169245828Y-105308064D01*
X169294799Y-105313856D01*
X169353493Y-105317996D01*
X169409534Y-105319604D01*
X169502667Y-105319689D01*
X169502667Y-104879422D01*
X169426467Y-104879408D01*
X169423439Y-104879417D01*
X169372319Y-104881382D01*
X169312216Y-104886107D01*
X169255508Y-104892635D01*
X169205550Y-104901931D01*
X169130798Y-104928200D01*
X169073289Y-104967499D01*
X169031788Y-105020533D01*
X169010571Y-105071800D01*
X169009153Y-105119626D01*
X168861936Y-105119626D01*
X168859200Y-105099556D01*
X168860479Y-105078339D01*
X168872791Y-105020923D01*
X168895320Y-104961013D01*
X168924550Y-104906963D01*
X168956967Y-104867132D01*
X168976508Y-104850110D01*
X169031220Y-104810922D01*
X169091523Y-104780793D01*
X169160719Y-104758832D01*
X169242111Y-104744150D01*
X169339000Y-104735859D01*
X169454689Y-104733067D01*
X169494171Y-104732666D01*
X169539882Y-104732253D01*
X169575683Y-104734057D01*
X169602774Y-104740339D01*
X169622356Y-104753359D01*
X169635630Y-104775378D01*
X169643798Y-104808655D01*
X169648060Y-104855451D01*
X169648657Y-104879422D01*
G36*
X164704693Y-104731492D02*
G01*
X164716101Y-104737629D01*
X164726650Y-104748291D01*
X164737936Y-104762411D01*
X164742389Y-104768372D01*
X164748388Y-104778868D01*
X164752967Y-104792693D01*
X164756319Y-104812598D01*
X164758633Y-104841332D01*
X164760101Y-104881645D01*
X164760913Y-104936287D01*
X164761260Y-105008007D01*
X164761334Y-105099556D01*
X164761311Y-105158086D01*
X164761092Y-105237173D01*
X164760483Y-105298116D01*
X164759292Y-105343662D01*
X164757329Y-105376563D01*
X164754403Y-105399568D01*
X164750323Y-105415426D01*
X164744897Y-105426886D01*
X164737936Y-105436700D01*
X164707508Y-105461093D01*
X164672565Y-105463972D01*
X164635584Y-105444882D01*
X164631400Y-105441407D01*
X164623224Y-105432879D01*
X164617164Y-105421328D01*
X164612781Y-105403496D01*
X164609639Y-105376124D01*
X164607302Y-105335954D01*
X164605331Y-105279728D01*
X164603289Y-105204189D01*
X164597645Y-104985058D01*
X164332356Y-105225699D01*
X164258522Y-105292475D01*
X164193342Y-105350591D01*
X164141148Y-105395549D01*
X164100073Y-105428471D01*
X164068255Y-105450479D01*
X164043826Y-105462694D01*
X164024924Y-105466239D01*
X164009683Y-105462236D01*
X163996239Y-105451807D01*
X163982727Y-105436074D01*
X163976482Y-105427591D01*
X163970850Y-105417013D01*
X163966639Y-105402855D01*
X163963687Y-105382403D01*
X163961832Y-105352942D01*
X163960913Y-105311761D01*
X163960768Y-105256144D01*
X163961235Y-105183379D01*
X163962152Y-105090751D01*
X163965467Y-104775799D01*
X163992118Y-104754233D01*
X164018183Y-104738041D01*
X164051041Y-104735270D01*
X164085572Y-104754223D01*
X164089884Y-104757808D01*
X164098016Y-104766337D01*
X164104045Y-104777929D01*
X164108406Y-104795835D01*
X164111534Y-104823306D01*
X164113863Y-104863594D01*
X164115829Y-104919951D01*
X164117867Y-104995629D01*
X164123511Y-105215478D01*
X164304134Y-105051684D01*
X164390872Y-104973051D01*
X164466643Y-104904658D01*
X164528780Y-104849308D01*
X164578878Y-104805938D01*
X164618535Y-104773481D01*
X164649348Y-104750873D01*
X164672914Y-104737048D01*
X164690830Y-104730943D01*
X164704693Y-104731492D01*
G37*
X164704693Y-104731492D02*
X164716101Y-104737629D01*
X164726650Y-104748291D01*
X164737936Y-104762411D01*
X164742389Y-104768372D01*
X164748388Y-104778868D01*
X164752967Y-104792693D01*
X164756319Y-104812598D01*
X164758633Y-104841332D01*
X164760101Y-104881645D01*
X164760913Y-104936287D01*
X164761260Y-105008007D01*
X164761334Y-105099556D01*
X164761311Y-105158086D01*
X164761092Y-105237173D01*
X164760483Y-105298116D01*
X164759292Y-105343662D01*
X164757329Y-105376563D01*
X164754403Y-105399568D01*
X164750323Y-105415426D01*
X164744897Y-105426886D01*
X164737936Y-105436700D01*
X164707508Y-105461093D01*
X164672565Y-105463972D01*
X164635584Y-105444882D01*
X164631400Y-105441407D01*
X164623224Y-105432879D01*
X164617164Y-105421328D01*
X164612781Y-105403496D01*
X164609639Y-105376124D01*
X164607302Y-105335954D01*
X164605331Y-105279728D01*
X164603289Y-105204189D01*
X164597645Y-104985058D01*
X164332356Y-105225699D01*
X164258522Y-105292475D01*
X164193342Y-105350591D01*
X164141148Y-105395549D01*
X164100073Y-105428471D01*
X164068255Y-105450479D01*
X164043826Y-105462694D01*
X164024924Y-105466239D01*
X164009683Y-105462236D01*
X163996239Y-105451807D01*
X163982727Y-105436074D01*
X163976482Y-105427591D01*
X163970850Y-105417013D01*
X163966639Y-105402855D01*
X163963687Y-105382403D01*
X163961832Y-105352942D01*
X163960913Y-105311761D01*
X163960768Y-105256144D01*
X163961235Y-105183379D01*
X163962152Y-105090751D01*
X163965467Y-104775799D01*
X163992118Y-104754233D01*
X164018183Y-104738041D01*
X164051041Y-104735270D01*
X164085572Y-104754223D01*
X164089884Y-104757808D01*
X164098016Y-104766337D01*
X164104045Y-104777929D01*
X164108406Y-104795835D01*
X164111534Y-104823306D01*
X164113863Y-104863594D01*
X164115829Y-104919951D01*
X164117867Y-104995629D01*
X164123511Y-105215478D01*
X164304134Y-105051684D01*
X164390872Y-104973051D01*
X164466643Y-104904658D01*
X164528780Y-104849308D01*
X164578878Y-104805938D01*
X164618535Y-104773481D01*
X164649348Y-104750873D01*
X164672914Y-104737048D01*
X164690830Y-104730943D01*
X164704693Y-104731492D01*
G36*
X165501950Y-104737779D02*
G01*
X165607957Y-104754094D01*
X165701769Y-104782145D01*
X165780565Y-104821052D01*
X165841519Y-104869934D01*
X165867589Y-104902795D01*
X165897097Y-104951994D01*
X165922368Y-105005852D01*
X165940018Y-105057019D01*
X165946658Y-105098144D01*
X165945098Y-105117859D01*
X165932157Y-105169192D01*
X165908994Y-105225718D01*
X165879102Y-105279635D01*
X165845973Y-105323139D01*
X165835777Y-105333487D01*
X165768692Y-105385262D01*
X165688566Y-105425154D01*
X165602356Y-105449556D01*
X165547392Y-105457668D01*
X165453939Y-105464273D01*
X165364158Y-105462186D01*
X165281669Y-105451940D01*
X165210086Y-105434070D01*
X165153028Y-105409108D01*
X165114111Y-105377588D01*
X165112736Y-105375612D01*
X165105648Y-105350386D01*
X165101409Y-105303135D01*
X165100000Y-105233671D01*
X165100860Y-105171438D01*
X165105580Y-105124056D01*
X165117270Y-105091953D01*
X165139039Y-105072400D01*
X165173998Y-105062670D01*
X165225256Y-105060033D01*
X165295923Y-105061761D01*
X165344543Y-105064773D01*
X165394739Y-105072966D01*
X165427233Y-105087019D01*
X165444692Y-105108254D01*
X165449783Y-105137994D01*
X165449677Y-105142536D01*
X165440975Y-105177330D01*
X165416965Y-105200747D01*
X165375700Y-105213947D01*
X165315231Y-105218089D01*
X165246756Y-105218089D01*
X165246756Y-105256441D01*
X165246806Y-105265576D01*
X165249027Y-105282827D01*
X165258294Y-105293121D01*
X165279675Y-105300059D01*
X165318236Y-105307241D01*
X165323710Y-105308175D01*
X165420660Y-105318078D01*
X165510652Y-105315159D01*
X165591560Y-105300429D01*
X165661259Y-105274899D01*
X165717624Y-105239578D01*
X165758529Y-105195479D01*
X165781851Y-105143612D01*
X165785463Y-105084988D01*
X165779945Y-105056094D01*
X165753261Y-105000204D01*
X165707073Y-104954545D01*
X165642091Y-104919708D01*
X165559029Y-104896290D01*
X165534355Y-104891841D01*
X165445026Y-104881342D01*
X165365219Y-104882571D01*
X165287126Y-104895506D01*
X165251983Y-104902296D01*
X165206545Y-104903313D01*
X165175230Y-104890782D01*
X165155077Y-104863995D01*
X165148693Y-104835748D01*
X165158179Y-104804524D01*
X165167508Y-104791099D01*
X165201743Y-104767567D01*
X165254365Y-104749695D01*
X165322881Y-104738199D01*
X165404800Y-104733792D01*
X165501950Y-104737779D01*
G37*
X165501950Y-104737779D02*
X165607957Y-104754094D01*
X165701769Y-104782145D01*
X165780565Y-104821052D01*
X165841519Y-104869934D01*
X165867589Y-104902795D01*
X165897097Y-104951994D01*
X165922368Y-105005852D01*
X165940018Y-105057019D01*
X165946658Y-105098144D01*
X165945098Y-105117859D01*
X165932157Y-105169192D01*
X165908994Y-105225718D01*
X165879102Y-105279635D01*
X165845973Y-105323139D01*
X165835777Y-105333487D01*
X165768692Y-105385262D01*
X165688566Y-105425154D01*
X165602356Y-105449556D01*
X165547392Y-105457668D01*
X165453939Y-105464273D01*
X165364158Y-105462186D01*
X165281669Y-105451940D01*
X165210086Y-105434070D01*
X165153028Y-105409108D01*
X165114111Y-105377588D01*
X165112736Y-105375612D01*
X165105648Y-105350386D01*
X165101409Y-105303135D01*
X165100000Y-105233671D01*
X165100860Y-105171438D01*
X165105580Y-105124056D01*
X165117270Y-105091953D01*
X165139039Y-105072400D01*
X165173998Y-105062670D01*
X165225256Y-105060033D01*
X165295923Y-105061761D01*
X165344543Y-105064773D01*
X165394739Y-105072966D01*
X165427233Y-105087019D01*
X165444692Y-105108254D01*
X165449783Y-105137994D01*
X165449677Y-105142536D01*
X165440975Y-105177330D01*
X165416965Y-105200747D01*
X165375700Y-105213947D01*
X165315231Y-105218089D01*
X165246756Y-105218089D01*
X165246756Y-105256441D01*
X165246806Y-105265576D01*
X165249027Y-105282827D01*
X165258294Y-105293121D01*
X165279675Y-105300059D01*
X165318236Y-105307241D01*
X165323710Y-105308175D01*
X165420660Y-105318078D01*
X165510652Y-105315159D01*
X165591560Y-105300429D01*
X165661259Y-105274899D01*
X165717624Y-105239578D01*
X165758529Y-105195479D01*
X165781851Y-105143612D01*
X165785463Y-105084988D01*
X165779945Y-105056094D01*
X165753261Y-105000204D01*
X165707073Y-104954545D01*
X165642091Y-104919708D01*
X165559029Y-104896290D01*
X165534355Y-104891841D01*
X165445026Y-104881342D01*
X165365219Y-104882571D01*
X165287126Y-104895506D01*
X165251983Y-104902296D01*
X165206545Y-104903313D01*
X165175230Y-104890782D01*
X165155077Y-104863995D01*
X165148693Y-104835748D01*
X165158179Y-104804524D01*
X165167508Y-104791099D01*
X165201743Y-104767567D01*
X165254365Y-104749695D01*
X165322881Y-104738199D01*
X165404800Y-104733792D01*
X165501950Y-104737779D01*
G36*
X163552603Y-104762411D02*
G01*
X163557552Y-104769095D01*
X163563396Y-104779666D01*
X163567857Y-104793753D01*
X163571121Y-104814078D01*
X163573374Y-104843365D01*
X163574802Y-104884337D01*
X163575592Y-104939717D01*
X163575929Y-105012228D01*
X163576000Y-105104594D01*
X163575971Y-105170511D01*
X163575739Y-105248828D01*
X163575119Y-105309096D01*
X163573926Y-105353993D01*
X163571979Y-105386202D01*
X163569094Y-105408400D01*
X163565088Y-105423269D01*
X163559779Y-105433489D01*
X163552983Y-105441738D01*
X163548468Y-105446395D01*
X163540238Y-105452882D01*
X163528878Y-105457794D01*
X163511610Y-105461349D01*
X163485655Y-105463767D01*
X163448236Y-105465267D01*
X163396573Y-105466067D01*
X163327889Y-105466387D01*
X163239406Y-105466445D01*
X163219731Y-105466438D01*
X163132706Y-105466172D01*
X163065054Y-105465406D01*
X163014099Y-105463992D01*
X162977167Y-105461780D01*
X162951583Y-105458622D01*
X162934671Y-105454369D01*
X162923757Y-105448871D01*
X162913264Y-105438885D01*
X162900003Y-105407768D01*
X162901186Y-105371880D01*
X162917350Y-105340333D01*
X162919539Y-105338057D01*
X162928227Y-105331789D01*
X162941569Y-105327123D01*
X162962552Y-105323827D01*
X162994163Y-105321668D01*
X163039390Y-105320414D01*
X163101220Y-105319831D01*
X163182639Y-105319689D01*
X163429245Y-105319689D01*
X163429245Y-105161645D01*
X163266806Y-105161645D01*
X163231138Y-105161564D01*
X163175368Y-105160767D01*
X163136230Y-105158762D01*
X163109776Y-105155121D01*
X163092059Y-105149412D01*
X163079129Y-105141207D01*
X163075486Y-105138023D01*
X163057078Y-105107048D01*
X163056444Y-105070712D01*
X163073983Y-105037093D01*
X163074045Y-105037024D01*
X163083716Y-105028398D01*
X163097009Y-105022342D01*
X163117717Y-105018411D01*
X163149628Y-105016156D01*
X163196534Y-105015131D01*
X163262224Y-105014889D01*
X163430371Y-105014889D01*
X163426986Y-104949978D01*
X163423600Y-104885067D01*
X163181523Y-104882014D01*
X163156507Y-104881686D01*
X163074887Y-104880206D01*
X163012568Y-104877822D01*
X162966954Y-104873827D01*
X162935452Y-104867513D01*
X162915467Y-104858174D01*
X162904404Y-104845103D01*
X162899669Y-104827592D01*
X162898667Y-104804935D01*
X162898673Y-104802570D01*
X162899827Y-104782539D01*
X162904624Y-104766746D01*
X162915432Y-104754690D01*
X162934617Y-104745867D01*
X162964545Y-104739775D01*
X163007583Y-104735911D01*
X163066099Y-104733774D01*
X163142457Y-104732860D01*
X163239026Y-104732667D01*
X163529206Y-104732667D01*
X163552603Y-104762411D01*
G37*
X163552603Y-104762411D02*
X163557552Y-104769095D01*
X163563396Y-104779666D01*
X163567857Y-104793753D01*
X163571121Y-104814078D01*
X163573374Y-104843365D01*
X163574802Y-104884337D01*
X163575592Y-104939717D01*
X163575929Y-105012228D01*
X163576000Y-105104594D01*
X163575971Y-105170511D01*
X163575739Y-105248828D01*
X163575119Y-105309096D01*
X163573926Y-105353993D01*
X163571979Y-105386202D01*
X163569094Y-105408400D01*
X163565088Y-105423269D01*
X163559779Y-105433489D01*
X163552983Y-105441738D01*
X163548468Y-105446395D01*
X163540238Y-105452882D01*
X163528878Y-105457794D01*
X163511610Y-105461349D01*
X163485655Y-105463767D01*
X163448236Y-105465267D01*
X163396573Y-105466067D01*
X163327889Y-105466387D01*
X163239406Y-105466445D01*
X163219731Y-105466438D01*
X163132706Y-105466172D01*
X163065054Y-105465406D01*
X163014099Y-105463992D01*
X162977167Y-105461780D01*
X162951583Y-105458622D01*
X162934671Y-105454369D01*
X162923757Y-105448871D01*
X162913264Y-105438885D01*
X162900003Y-105407768D01*
X162901186Y-105371880D01*
X162917350Y-105340333D01*
X162919539Y-105338057D01*
X162928227Y-105331789D01*
X162941569Y-105327123D01*
X162962552Y-105323827D01*
X162994163Y-105321668D01*
X163039390Y-105320414D01*
X163101220Y-105319831D01*
X163182639Y-105319689D01*
X163429245Y-105319689D01*
X163429245Y-105161645D01*
X163266806Y-105161645D01*
X163231138Y-105161564D01*
X163175368Y-105160767D01*
X163136230Y-105158762D01*
X163109776Y-105155121D01*
X163092059Y-105149412D01*
X163079129Y-105141207D01*
X163075486Y-105138023D01*
X163057078Y-105107048D01*
X163056444Y-105070712D01*
X163073983Y-105037093D01*
X163074045Y-105037024D01*
X163083716Y-105028398D01*
X163097009Y-105022342D01*
X163117717Y-105018411D01*
X163149628Y-105016156D01*
X163196534Y-105015131D01*
X163262224Y-105014889D01*
X163430371Y-105014889D01*
X163426986Y-104949978D01*
X163423600Y-104885067D01*
X163181523Y-104882014D01*
X163156507Y-104881686D01*
X163074887Y-104880206D01*
X163012568Y-104877822D01*
X162966954Y-104873827D01*
X162935452Y-104867513D01*
X162915467Y-104858174D01*
X162904404Y-104845103D01*
X162899669Y-104827592D01*
X162898667Y-104804935D01*
X162898673Y-104802570D01*
X162899827Y-104782539D01*
X162904624Y-104766746D01*
X162915432Y-104754690D01*
X162934617Y-104745867D01*
X162964545Y-104739775D01*
X163007583Y-104735911D01*
X163066099Y-104733774D01*
X163142457Y-104732860D01*
X163239026Y-104732667D01*
X163529206Y-104732667D01*
X163552603Y-104762411D01*
G36*
X168229534Y-104732683D02*
G01*
X168306631Y-104732875D01*
X168365577Y-104733460D01*
X168409164Y-104734651D01*
X168440183Y-104736664D01*
X168461425Y-104739712D01*
X168475682Y-104744009D01*
X168485745Y-104749772D01*
X168494406Y-104757212D01*
X168496191Y-104758893D01*
X168503435Y-104766432D01*
X168509077Y-104775450D01*
X168513317Y-104788584D01*
X168516356Y-104808472D01*
X168518394Y-104837751D01*
X168519630Y-104879058D01*
X168520265Y-104935031D01*
X168520500Y-105008307D01*
X168520534Y-105101523D01*
X168520497Y-105174313D01*
X168520248Y-105252489D01*
X168519612Y-105312703D01*
X168518415Y-105357582D01*
X168516484Y-105389752D01*
X168513646Y-105411839D01*
X168509727Y-105426470D01*
X168504555Y-105436270D01*
X168497956Y-105443867D01*
X168494622Y-105447044D01*
X168486100Y-105453154D01*
X168474098Y-105457829D01*
X168455887Y-105461259D01*
X168428740Y-105463636D01*
X168389929Y-105465152D01*
X168336724Y-105465998D01*
X168266398Y-105466365D01*
X168176222Y-105466445D01*
X168134114Y-105466433D01*
X168052967Y-105466251D01*
X167990475Y-105465698D01*
X167943909Y-105464582D01*
X167910541Y-105462713D01*
X167887644Y-105459898D01*
X167872488Y-105455946D01*
X167862346Y-105450666D01*
X167854489Y-105443867D01*
X167839763Y-105422267D01*
X167831911Y-105393067D01*
X167837410Y-105369160D01*
X167854489Y-105342267D01*
X167859468Y-105337659D01*
X167869243Y-105331372D01*
X167883359Y-105326746D01*
X167904854Y-105323530D01*
X167936768Y-105321470D01*
X167982142Y-105320312D01*
X168044013Y-105319802D01*
X168125422Y-105319689D01*
X168373778Y-105319689D01*
X168373778Y-105161645D01*
X168212601Y-105161645D01*
X168176783Y-105161499D01*
X168111159Y-105159776D01*
X168063918Y-105155341D01*
X168032183Y-105147237D01*
X168013077Y-105134506D01*
X168003723Y-105116192D01*
X168001245Y-105091338D01*
X168002042Y-105071082D01*
X168007294Y-105049256D01*
X168020088Y-105033904D01*
X168043428Y-105023909D01*
X168080317Y-105018153D01*
X168133759Y-105015519D01*
X168206758Y-105014889D01*
X168374905Y-105014889D01*
X168371519Y-104949978D01*
X168368134Y-104885067D01*
X168120417Y-104882018D01*
X168057826Y-104881139D01*
X167989365Y-104879695D01*
X167938461Y-104877764D01*
X167902208Y-104875114D01*
X167877701Y-104871510D01*
X167862035Y-104866721D01*
X167852306Y-104860513D01*
X167846291Y-104854110D01*
X167833282Y-104822428D01*
X167836843Y-104786742D01*
X167856618Y-104755684D01*
X167859869Y-104752761D01*
X167868849Y-104746410D01*
X167880953Y-104741557D01*
X167898959Y-104738003D01*
X167925647Y-104735546D01*
X167963797Y-104733985D01*
X168016186Y-104733118D01*
X168085594Y-104732746D01*
X168174801Y-104732667D01*
X168229534Y-104732683D01*
G37*
X168229534Y-104732683D02*
X168306631Y-104732875D01*
X168365577Y-104733460D01*
X168409164Y-104734651D01*
X168440183Y-104736664D01*
X168461425Y-104739712D01*
X168475682Y-104744009D01*
X168485745Y-104749772D01*
X168494406Y-104757212D01*
X168496191Y-104758893D01*
X168503435Y-104766432D01*
X168509077Y-104775450D01*
X168513317Y-104788584D01*
X168516356Y-104808472D01*
X168518394Y-104837751D01*
X168519630Y-104879058D01*
X168520265Y-104935031D01*
X168520500Y-105008307D01*
X168520534Y-105101523D01*
X168520497Y-105174313D01*
X168520248Y-105252489D01*
X168519612Y-105312703D01*
X168518415Y-105357582D01*
X168516484Y-105389752D01*
X168513646Y-105411839D01*
X168509727Y-105426470D01*
X168504555Y-105436270D01*
X168497956Y-105443867D01*
X168494622Y-105447044D01*
X168486100Y-105453154D01*
X168474098Y-105457829D01*
X168455887Y-105461259D01*
X168428740Y-105463636D01*
X168389929Y-105465152D01*
X168336724Y-105465998D01*
X168266398Y-105466365D01*
X168176222Y-105466445D01*
X168134114Y-105466433D01*
X168052967Y-105466251D01*
X167990475Y-105465698D01*
X167943909Y-105464582D01*
X167910541Y-105462713D01*
X167887644Y-105459898D01*
X167872488Y-105455946D01*
X167862346Y-105450666D01*
X167854489Y-105443867D01*
X167839763Y-105422267D01*
X167831911Y-105393067D01*
X167837410Y-105369160D01*
X167854489Y-105342267D01*
X167859468Y-105337659D01*
X167869243Y-105331372D01*
X167883359Y-105326746D01*
X167904854Y-105323530D01*
X167936768Y-105321470D01*
X167982142Y-105320312D01*
X168044013Y-105319802D01*
X168125422Y-105319689D01*
X168373778Y-105319689D01*
X168373778Y-105161645D01*
X168212601Y-105161645D01*
X168176783Y-105161499D01*
X168111159Y-105159776D01*
X168063918Y-105155341D01*
X168032183Y-105147237D01*
X168013077Y-105134506D01*
X168003723Y-105116192D01*
X168001245Y-105091338D01*
X168002042Y-105071082D01*
X168007294Y-105049256D01*
X168020088Y-105033904D01*
X168043428Y-105023909D01*
X168080317Y-105018153D01*
X168133759Y-105015519D01*
X168206758Y-105014889D01*
X168374905Y-105014889D01*
X168371519Y-104949978D01*
X168368134Y-104885067D01*
X168120417Y-104882018D01*
X168057826Y-104881139D01*
X167989365Y-104879695D01*
X167938461Y-104877764D01*
X167902208Y-104875114D01*
X167877701Y-104871510D01*
X167862035Y-104866721D01*
X167852306Y-104860513D01*
X167846291Y-104854110D01*
X167833282Y-104822428D01*
X167836843Y-104786742D01*
X167856618Y-104755684D01*
X167859869Y-104752761D01*
X167868849Y-104746410D01*
X167880953Y-104741557D01*
X167898959Y-104738003D01*
X167925647Y-104735546D01*
X167963797Y-104733985D01*
X168016186Y-104733118D01*
X168085594Y-104732746D01*
X168174801Y-104732667D01*
X168229534Y-104732683D01*
G36*
X159662502Y-104742078D02*
G01*
X159680463Y-104760589D01*
X159701063Y-104791671D01*
X159725895Y-104837356D01*
X159756550Y-104899678D01*
X159794620Y-104980671D01*
X159809254Y-105012054D01*
X159839003Y-105075238D01*
X159865097Y-105129844D01*
X159886092Y-105172890D01*
X159900539Y-105201393D01*
X159906991Y-105212370D01*
X159908350Y-105211789D01*
X159918342Y-105197842D01*
X159935633Y-105168304D01*
X159958230Y-105126687D01*
X159984138Y-105076503D01*
X160000111Y-105045014D01*
X160029061Y-104989661D01*
X160051549Y-104950644D01*
X160069765Y-104925166D01*
X160085896Y-104910431D01*
X160102130Y-104903642D01*
X160120657Y-104902000D01*
X160131160Y-104902475D01*
X160147276Y-104906682D01*
X160162590Y-104917546D01*
X160179188Y-104937819D01*
X160199157Y-104970254D01*
X160224583Y-105017604D01*
X160257552Y-105082622D01*
X160267285Y-105101877D01*
X160291743Y-105148546D01*
X160311978Y-105184709D01*
X160326111Y-105207097D01*
X160332260Y-105212445D01*
X160333627Y-105209173D01*
X160343002Y-105188264D01*
X160359862Y-105151325D01*
X160382779Y-105101474D01*
X160410320Y-105041826D01*
X160441055Y-104975498D01*
X160467770Y-104918277D01*
X160497393Y-104856288D01*
X160520464Y-104810549D01*
X160538443Y-104778508D01*
X160552790Y-104757614D01*
X160564966Y-104745318D01*
X160576432Y-104739066D01*
X160585842Y-104736174D01*
X160610947Y-104736025D01*
X160638090Y-104751368D01*
X160639390Y-104752353D01*
X160661474Y-104774988D01*
X160672523Y-104797213D01*
X160672569Y-104797853D01*
X160668028Y-104815515D01*
X160655164Y-104850081D01*
X160635405Y-104898426D01*
X160610181Y-104957425D01*
X160580919Y-105023955D01*
X160549050Y-105094891D01*
X160516001Y-105167107D01*
X160483201Y-105237480D01*
X160452080Y-105302885D01*
X160424065Y-105360197D01*
X160400586Y-105406292D01*
X160383072Y-105438046D01*
X160372951Y-105452333D01*
X160338543Y-105465702D01*
X160296846Y-105459341D01*
X160291481Y-105454644D01*
X160275652Y-105432493D01*
X160253450Y-105395732D01*
X160227033Y-105348015D01*
X160198560Y-105292993D01*
X160118786Y-105133750D01*
X160045599Y-105280342D01*
X160035903Y-105299632D01*
X160008925Y-105351980D01*
X159984896Y-105396770D01*
X159966132Y-105429754D01*
X159954946Y-105446689D01*
X159953800Y-105447932D01*
X159925679Y-105463219D01*
X159890617Y-105464902D01*
X159859576Y-105452333D01*
X159857150Y-105449484D01*
X159844890Y-105428859D01*
X159825152Y-105391308D01*
X159799248Y-105339480D01*
X159768485Y-105276023D01*
X159734175Y-105203585D01*
X159697625Y-105124816D01*
X159677385Y-105080693D01*
X159640612Y-104999965D01*
X159612155Y-104936287D01*
X159591131Y-104887352D01*
X159576654Y-104850857D01*
X159567839Y-104824495D01*
X159563804Y-104805961D01*
X159563662Y-104792952D01*
X159566530Y-104783161D01*
X159581187Y-104762278D01*
X159607790Y-104741977D01*
X159608545Y-104741635D01*
X159628135Y-104734634D01*
X159645590Y-104734104D01*
X159662502Y-104742078D01*
G37*
X159662502Y-104742078D02*
X159680463Y-104760589D01*
X159701063Y-104791671D01*
X159725895Y-104837356D01*
X159756550Y-104899678D01*
X159794620Y-104980671D01*
X159809254Y-105012054D01*
X159839003Y-105075238D01*
X159865097Y-105129844D01*
X159886092Y-105172890D01*
X159900539Y-105201393D01*
X159906991Y-105212370D01*
X159908350Y-105211789D01*
X159918342Y-105197842D01*
X159935633Y-105168304D01*
X159958230Y-105126687D01*
X159984138Y-105076503D01*
X160000111Y-105045014D01*
X160029061Y-104989661D01*
X160051549Y-104950644D01*
X160069765Y-104925166D01*
X160085896Y-104910431D01*
X160102130Y-104903642D01*
X160120657Y-104902000D01*
X160131160Y-104902475D01*
X160147276Y-104906682D01*
X160162590Y-104917546D01*
X160179188Y-104937819D01*
X160199157Y-104970254D01*
X160224583Y-105017604D01*
X160257552Y-105082622D01*
X160267285Y-105101877D01*
X160291743Y-105148546D01*
X160311978Y-105184709D01*
X160326111Y-105207097D01*
X160332260Y-105212445D01*
X160333627Y-105209173D01*
X160343002Y-105188264D01*
X160359862Y-105151325D01*
X160382779Y-105101474D01*
X160410320Y-105041826D01*
X160441055Y-104975498D01*
X160467770Y-104918277D01*
X160497393Y-104856288D01*
X160520464Y-104810549D01*
X160538443Y-104778508D01*
X160552790Y-104757614D01*
X160564966Y-104745318D01*
X160576432Y-104739066D01*
X160585842Y-104736174D01*
X160610947Y-104736025D01*
X160638090Y-104751368D01*
X160639390Y-104752353D01*
X160661474Y-104774988D01*
X160672523Y-104797213D01*
X160672569Y-104797853D01*
X160668028Y-104815515D01*
X160655164Y-104850081D01*
X160635405Y-104898426D01*
X160610181Y-104957425D01*
X160580919Y-105023955D01*
X160549050Y-105094891D01*
X160516001Y-105167107D01*
X160483201Y-105237480D01*
X160452080Y-105302885D01*
X160424065Y-105360197D01*
X160400586Y-105406292D01*
X160383072Y-105438046D01*
X160372951Y-105452333D01*
X160338543Y-105465702D01*
X160296846Y-105459341D01*
X160291481Y-105454644D01*
X160275652Y-105432493D01*
X160253450Y-105395732D01*
X160227033Y-105348015D01*
X160198560Y-105292993D01*
X160118786Y-105133750D01*
X160045599Y-105280342D01*
X160035903Y-105299632D01*
X160008925Y-105351980D01*
X159984896Y-105396770D01*
X159966132Y-105429754D01*
X159954946Y-105446689D01*
X159953800Y-105447932D01*
X159925679Y-105463219D01*
X159890617Y-105464902D01*
X159859576Y-105452333D01*
X159857150Y-105449484D01*
X159844890Y-105428859D01*
X159825152Y-105391308D01*
X159799248Y-105339480D01*
X159768485Y-105276023D01*
X159734175Y-105203585D01*
X159697625Y-105124816D01*
X159677385Y-105080693D01*
X159640612Y-104999965D01*
X159612155Y-104936287D01*
X159591131Y-104887352D01*
X159576654Y-104850857D01*
X159567839Y-104824495D01*
X159563804Y-104805961D01*
X159563662Y-104792952D01*
X159566530Y-104783161D01*
X159581187Y-104762278D01*
X159607790Y-104741977D01*
X159608545Y-104741635D01*
X159628135Y-104734634D01*
X159645590Y-104734104D01*
X159662502Y-104742078D01*
G36*
X167213653Y-104733536D02*
G01*
X167279900Y-104738966D01*
X167335200Y-104748564D01*
X167386083Y-104763425D01*
X167457395Y-104796558D01*
X167508552Y-104839240D01*
X167539375Y-104891305D01*
X167549689Y-104952583D01*
X167548752Y-104983832D01*
X167542960Y-105008629D01*
X167528153Y-105030299D01*
X167500180Y-105057649D01*
X167492202Y-105064978D01*
X167468492Y-105085881D01*
X167446098Y-105102851D01*
X167422065Y-105116805D01*
X167393437Y-105128656D01*
X167357260Y-105139320D01*
X167310580Y-105149711D01*
X167250441Y-105160746D01*
X167173890Y-105173338D01*
X167077971Y-105188404D01*
X167059608Y-105191438D01*
X166997278Y-105205058D01*
X166952060Y-105220792D01*
X166925776Y-105237863D01*
X166920247Y-105255497D01*
X166922868Y-105259768D01*
X166940800Y-105274833D01*
X166968926Y-105291467D01*
X166981726Y-105297457D01*
X167003024Y-105304650D01*
X167029410Y-105309427D01*
X167065254Y-105312246D01*
X167114928Y-105313564D01*
X167182800Y-105313837D01*
X167200585Y-105313764D01*
X167268206Y-105312653D01*
X167333145Y-105310428D01*
X167388770Y-105307362D01*
X167428451Y-105303727D01*
X167463962Y-105299659D01*
X167493215Y-105298876D01*
X167512115Y-105303476D01*
X167527229Y-105314151D01*
X167530885Y-105317744D01*
X167547227Y-105349518D01*
X167545907Y-105385172D01*
X167526950Y-105415790D01*
X167506580Y-105427396D01*
X167470596Y-105440091D01*
X167428172Y-105450141D01*
X167424722Y-105450740D01*
X167382052Y-105455956D01*
X167324666Y-105460330D01*
X167259649Y-105463418D01*
X167194089Y-105464777D01*
X167177857Y-105464818D01*
X167079544Y-105462341D01*
X166999492Y-105454335D01*
X166934313Y-105439803D01*
X166880617Y-105417749D01*
X166835016Y-105387176D01*
X166794123Y-105347086D01*
X166774002Y-105320859D01*
X166762376Y-105291312D01*
X166759467Y-105251595D01*
X166759608Y-105239626D01*
X166763481Y-105206945D01*
X166775865Y-105180419D01*
X166801030Y-105149571D01*
X166822242Y-105127431D01*
X166848638Y-105104885D01*
X166878355Y-105086517D01*
X166914585Y-105071261D01*
X166960517Y-105058049D01*
X167019344Y-105045814D01*
X167094256Y-105033489D01*
X167188445Y-105020006D01*
X167233757Y-105012996D01*
X167301711Y-104998437D01*
X167350847Y-104981937D01*
X167380414Y-104964039D01*
X167389664Y-104945285D01*
X167377848Y-104926215D01*
X167344216Y-104907371D01*
X167341170Y-104906157D01*
X167294811Y-104894079D01*
X167232161Y-104885879D01*
X167158727Y-104881719D01*
X167080017Y-104881761D01*
X167001539Y-104886169D01*
X166928800Y-104895105D01*
X166924873Y-104895754D01*
X166876057Y-104903461D01*
X166843805Y-104907073D01*
X166822808Y-104906476D01*
X166807754Y-104901554D01*
X166793334Y-104892196D01*
X166792164Y-104891325D01*
X166767647Y-104860951D01*
X166762854Y-104825450D01*
X166778660Y-104790869D01*
X166783206Y-104786413D01*
X166812820Y-104771273D01*
X166859802Y-104758150D01*
X166920106Y-104747350D01*
X166989688Y-104739181D01*
X167064503Y-104733951D01*
X167140506Y-104731967D01*
X167213653Y-104733536D01*
G37*
X167213653Y-104733536D02*
X167279900Y-104738966D01*
X167335200Y-104748564D01*
X167386083Y-104763425D01*
X167457395Y-104796558D01*
X167508552Y-104839240D01*
X167539375Y-104891305D01*
X167549689Y-104952583D01*
X167548752Y-104983832D01*
X167542960Y-105008629D01*
X167528153Y-105030299D01*
X167500180Y-105057649D01*
X167492202Y-105064978D01*
X167468492Y-105085881D01*
X167446098Y-105102851D01*
X167422065Y-105116805D01*
X167393437Y-105128656D01*
X167357260Y-105139320D01*
X167310580Y-105149711D01*
X167250441Y-105160746D01*
X167173890Y-105173338D01*
X167077971Y-105188404D01*
X167059608Y-105191438D01*
X166997278Y-105205058D01*
X166952060Y-105220792D01*
X166925776Y-105237863D01*
X166920247Y-105255497D01*
X166922868Y-105259768D01*
X166940800Y-105274833D01*
X166968926Y-105291467D01*
X166981726Y-105297457D01*
X167003024Y-105304650D01*
X167029410Y-105309427D01*
X167065254Y-105312246D01*
X167114928Y-105313564D01*
X167182800Y-105313837D01*
X167200585Y-105313764D01*
X167268206Y-105312653D01*
X167333145Y-105310428D01*
X167388770Y-105307362D01*
X167428451Y-105303727D01*
X167463962Y-105299659D01*
X167493215Y-105298876D01*
X167512115Y-105303476D01*
X167527229Y-105314151D01*
X167530885Y-105317744D01*
X167547227Y-105349518D01*
X167545907Y-105385172D01*
X167526950Y-105415790D01*
X167506580Y-105427396D01*
X167470596Y-105440091D01*
X167428172Y-105450141D01*
X167424722Y-105450740D01*
X167382052Y-105455956D01*
X167324666Y-105460330D01*
X167259649Y-105463418D01*
X167194089Y-105464777D01*
X167177857Y-105464818D01*
X167079544Y-105462341D01*
X166999492Y-105454335D01*
X166934313Y-105439803D01*
X166880617Y-105417749D01*
X166835016Y-105387176D01*
X166794123Y-105347086D01*
X166774002Y-105320859D01*
X166762376Y-105291312D01*
X166759467Y-105251595D01*
X166759608Y-105239626D01*
X166763481Y-105206945D01*
X166775865Y-105180419D01*
X166801030Y-105149571D01*
X166822242Y-105127431D01*
X166848638Y-105104885D01*
X166878355Y-105086517D01*
X166914585Y-105071261D01*
X166960517Y-105058049D01*
X167019344Y-105045814D01*
X167094256Y-105033489D01*
X167188445Y-105020006D01*
X167233757Y-105012996D01*
X167301711Y-104998437D01*
X167350847Y-104981937D01*
X167380414Y-104964039D01*
X167389664Y-104945285D01*
X167377848Y-104926215D01*
X167344216Y-104907371D01*
X167341170Y-104906157D01*
X167294811Y-104894079D01*
X167232161Y-104885879D01*
X167158727Y-104881719D01*
X167080017Y-104881761D01*
X167001539Y-104886169D01*
X166928800Y-104895105D01*
X166924873Y-104895754D01*
X166876057Y-104903461D01*
X166843805Y-104907073D01*
X166822808Y-104906476D01*
X166807754Y-104901554D01*
X166793334Y-104892196D01*
X166792164Y-104891325D01*
X166767647Y-104860951D01*
X166762854Y-104825450D01*
X166778660Y-104790869D01*
X166783206Y-104786413D01*
X166812820Y-104771273D01*
X166859802Y-104758150D01*
X166920106Y-104747350D01*
X166989688Y-104739181D01*
X167064503Y-104733951D01*
X167140506Y-104731967D01*
X167213653Y-104733536D01*
G36*
X163361511Y-100425633D02*
G01*
X163457068Y-100443123D01*
X163621358Y-100488164D01*
X163775389Y-100551256D01*
X163921309Y-100633515D01*
X164061266Y-100736057D01*
X164197408Y-100859999D01*
X164241273Y-100905261D01*
X164353558Y-101037465D01*
X164446772Y-101175432D01*
X164523519Y-101323350D01*
X164586403Y-101485403D01*
X164590220Y-101496991D01*
X164640307Y-101682992D01*
X164673699Y-101879121D01*
X164690384Y-102081168D01*
X164690351Y-102284925D01*
X164673591Y-102486181D01*
X164640092Y-102680728D01*
X164589844Y-102864356D01*
X164545990Y-102981653D01*
X164468148Y-103144551D01*
X164374628Y-103298466D01*
X164267622Y-103440271D01*
X164149319Y-103566839D01*
X164021911Y-103675041D01*
X163944406Y-103727720D01*
X163817525Y-103797350D01*
X163680043Y-103856068D01*
X163538516Y-103901187D01*
X163399502Y-103930022D01*
X163385397Y-103931706D01*
X163341953Y-103935034D01*
X163284523Y-103937875D01*
X163218922Y-103939973D01*
X163150967Y-103941068D01*
X163024178Y-103938740D01*
X162876473Y-103925736D01*
X162738579Y-103900733D01*
X162604814Y-103862918D01*
X162581362Y-103854489D01*
X162533412Y-103835008D01*
X162476940Y-103810073D01*
X162415179Y-103781322D01*
X162351363Y-103750390D01*
X162288726Y-103718915D01*
X162230503Y-103688534D01*
X162179927Y-103660883D01*
X162140233Y-103637599D01*
X162114654Y-103620318D01*
X162106425Y-103610679D01*
X162107876Y-103607584D01*
X162119050Y-103587679D01*
X162139934Y-103552020D01*
X162169065Y-103503059D01*
X162204981Y-103443246D01*
X162246220Y-103375033D01*
X162291317Y-103300871D01*
X162472585Y-103003608D01*
X162519115Y-103048139D01*
X162610523Y-103126465D01*
X162724134Y-103201039D01*
X162841922Y-103255074D01*
X162962359Y-103287890D01*
X163083917Y-103298811D01*
X163125385Y-103297468D01*
X163242880Y-103279212D01*
X163352889Y-103240217D01*
X163454230Y-103181270D01*
X163545721Y-103103157D01*
X163626180Y-103006664D01*
X163694427Y-102892578D01*
X163710708Y-102858324D01*
X163756782Y-102734840D01*
X163791906Y-102596518D01*
X163815997Y-102447161D01*
X163828973Y-102290573D01*
X163830749Y-102130556D01*
X163821243Y-101970914D01*
X163800372Y-101815450D01*
X163768052Y-101667966D01*
X163724199Y-101532267D01*
X163686782Y-101445676D01*
X163621985Y-101332288D01*
X163546572Y-101238670D01*
X163460218Y-101164559D01*
X163362595Y-101109694D01*
X163253377Y-101073812D01*
X163132239Y-101056651D01*
X163062838Y-101055480D01*
X162939968Y-101069741D01*
X162824464Y-101104841D01*
X162717753Y-101160282D01*
X162621264Y-101235564D01*
X162605520Y-101250040D01*
X162574950Y-101276562D01*
X162552609Y-101293738D01*
X162542491Y-101298387D01*
X162540506Y-101296197D01*
X162526041Y-101277321D01*
X162502200Y-101243997D01*
X162470829Y-101198980D01*
X162433774Y-101145025D01*
X162392883Y-101084885D01*
X162350002Y-101021318D01*
X162306978Y-100957076D01*
X162265657Y-100894915D01*
X162227886Y-100837591D01*
X162195512Y-100787857D01*
X162170382Y-100748468D01*
X162154342Y-100722180D01*
X162149239Y-100711747D01*
X162153850Y-100707541D01*
X162173067Y-100702533D01*
X162182638Y-100699986D01*
X162210609Y-100688849D01*
X162252248Y-100670402D01*
X162303795Y-100646325D01*
X162361490Y-100618299D01*
X162372757Y-100612754D01*
X162550487Y-100533489D01*
X162720290Y-100473985D01*
X162884230Y-100433845D01*
X163044371Y-100412671D01*
X163202777Y-100410066D01*
X163361511Y-100425633D01*
G37*
X163361511Y-100425633D02*
X163457068Y-100443123D01*
X163621358Y-100488164D01*
X163775389Y-100551256D01*
X163921309Y-100633515D01*
X164061266Y-100736057D01*
X164197408Y-100859999D01*
X164241273Y-100905261D01*
X164353558Y-101037465D01*
X164446772Y-101175432D01*
X164523519Y-101323350D01*
X164586403Y-101485403D01*
X164590220Y-101496991D01*
X164640307Y-101682992D01*
X164673699Y-101879121D01*
X164690384Y-102081168D01*
X164690351Y-102284925D01*
X164673591Y-102486181D01*
X164640092Y-102680728D01*
X164589844Y-102864356D01*
X164545990Y-102981653D01*
X164468148Y-103144551D01*
X164374628Y-103298466D01*
X164267622Y-103440271D01*
X164149319Y-103566839D01*
X164021911Y-103675041D01*
X163944406Y-103727720D01*
X163817525Y-103797350D01*
X163680043Y-103856068D01*
X163538516Y-103901187D01*
X163399502Y-103930022D01*
X163385397Y-103931706D01*
X163341953Y-103935034D01*
X163284523Y-103937875D01*
X163218922Y-103939973D01*
X163150967Y-103941068D01*
X163024178Y-103938740D01*
X162876473Y-103925736D01*
X162738579Y-103900733D01*
X162604814Y-103862918D01*
X162581362Y-103854489D01*
X162533412Y-103835008D01*
X162476940Y-103810073D01*
X162415179Y-103781322D01*
X162351363Y-103750390D01*
X162288726Y-103718915D01*
X162230503Y-103688534D01*
X162179927Y-103660883D01*
X162140233Y-103637599D01*
X162114654Y-103620318D01*
X162106425Y-103610679D01*
X162107876Y-103607584D01*
X162119050Y-103587679D01*
X162139934Y-103552020D01*
X162169065Y-103503059D01*
X162204981Y-103443246D01*
X162246220Y-103375033D01*
X162291317Y-103300871D01*
X162472585Y-103003608D01*
X162519115Y-103048139D01*
X162610523Y-103126465D01*
X162724134Y-103201039D01*
X162841922Y-103255074D01*
X162962359Y-103287890D01*
X163083917Y-103298811D01*
X163125385Y-103297468D01*
X163242880Y-103279212D01*
X163352889Y-103240217D01*
X163454230Y-103181270D01*
X163545721Y-103103157D01*
X163626180Y-103006664D01*
X163694427Y-102892578D01*
X163710708Y-102858324D01*
X163756782Y-102734840D01*
X163791906Y-102596518D01*
X163815997Y-102447161D01*
X163828973Y-102290573D01*
X163830749Y-102130556D01*
X163821243Y-101970914D01*
X163800372Y-101815450D01*
X163768052Y-101667966D01*
X163724199Y-101532267D01*
X163686782Y-101445676D01*
X163621985Y-101332288D01*
X163546572Y-101238670D01*
X163460218Y-101164559D01*
X163362595Y-101109694D01*
X163253377Y-101073812D01*
X163132239Y-101056651D01*
X163062838Y-101055480D01*
X162939968Y-101069741D01*
X162824464Y-101104841D01*
X162717753Y-101160282D01*
X162621264Y-101235564D01*
X162605520Y-101250040D01*
X162574950Y-101276562D01*
X162552609Y-101293738D01*
X162542491Y-101298387D01*
X162540506Y-101296197D01*
X162526041Y-101277321D01*
X162502200Y-101243997D01*
X162470829Y-101198980D01*
X162433774Y-101145025D01*
X162392883Y-101084885D01*
X162350002Y-101021318D01*
X162306978Y-100957076D01*
X162265657Y-100894915D01*
X162227886Y-100837591D01*
X162195512Y-100787857D01*
X162170382Y-100748468D01*
X162154342Y-100722180D01*
X162149239Y-100711747D01*
X162153850Y-100707541D01*
X162173067Y-100702533D01*
X162182638Y-100699986D01*
X162210609Y-100688849D01*
X162252248Y-100670402D01*
X162303795Y-100646325D01*
X162361490Y-100618299D01*
X162372757Y-100612754D01*
X162550487Y-100533489D01*
X162720290Y-100473985D01*
X162884230Y-100433845D01*
X163044371Y-100412671D01*
X163202777Y-100410066D01*
X163361511Y-100425633D01*
G36*
X159556700Y-102649534D02*
G01*
X159558794Y-102706311D01*
X159558068Y-102783758D01*
X159549489Y-102935194D01*
X159530633Y-103071883D01*
X159500637Y-103197876D01*
X159458636Y-103317225D01*
X159403769Y-103433981D01*
X159336967Y-103544779D01*
X159246163Y-103658339D01*
X159142508Y-103753811D01*
X159026687Y-103830673D01*
X158899386Y-103888397D01*
X158761289Y-103926458D01*
X158723593Y-103932266D01*
X158644552Y-103937996D01*
X158556429Y-103938183D01*
X158467036Y-103933139D01*
X158384184Y-103923178D01*
X158315687Y-103908612D01*
X158284835Y-103898964D01*
X158207530Y-103868723D01*
X158130479Y-103831217D01*
X158061000Y-103790214D01*
X158006415Y-103749479D01*
X157983716Y-103730105D01*
X157961001Y-103712262D01*
X157949579Y-103705378D01*
X157948337Y-103707024D01*
X157945528Y-103724805D01*
X157943576Y-103757970D01*
X157942845Y-103801333D01*
X157942845Y-103897289D01*
X157084696Y-103897289D01*
X157118961Y-103836574D01*
X157124155Y-103827468D01*
X157132515Y-103812849D01*
X157140088Y-103798773D01*
X157146912Y-103784140D01*
X157153027Y-103767849D01*
X157158473Y-103748798D01*
X157163287Y-103725886D01*
X157167508Y-103698013D01*
X157171177Y-103664078D01*
X157174331Y-103622979D01*
X157177011Y-103573615D01*
X157179254Y-103514886D01*
X157181099Y-103445690D01*
X157182587Y-103364926D01*
X157183755Y-103271494D01*
X157184478Y-103184321D01*
X157988000Y-103184321D01*
X158058556Y-103230689D01*
X158099217Y-103254391D01*
X158153346Y-103280239D01*
X158202489Y-103298429D01*
X158265965Y-103314151D01*
X158362131Y-103325141D01*
X158446700Y-103316965D01*
X158520019Y-103289405D01*
X158582437Y-103242242D01*
X158634302Y-103175258D01*
X158675960Y-103088233D01*
X158707762Y-102980950D01*
X158710345Y-102968609D01*
X158718800Y-102907372D01*
X158724463Y-102830292D01*
X158727376Y-102742602D01*
X158727583Y-102649534D01*
X158725130Y-102556320D01*
X158720061Y-102468194D01*
X158712419Y-102390388D01*
X158702248Y-102328133D01*
X158700967Y-102322266D01*
X158671926Y-102211721D01*
X158637410Y-102121175D01*
X158596256Y-102048553D01*
X158547299Y-101991781D01*
X158489374Y-101948784D01*
X158457420Y-101933215D01*
X158384584Y-101914322D01*
X158303243Y-101911065D01*
X158218119Y-101922989D01*
X158133933Y-101949640D01*
X158055408Y-101990562D01*
X157988000Y-102034130D01*
X157988000Y-103184321D01*
X157184478Y-103184321D01*
X157184644Y-103164292D01*
X157185291Y-103042220D01*
X157185736Y-102904176D01*
X157186018Y-102749059D01*
X157186175Y-102575768D01*
X157186248Y-102383203D01*
X157186274Y-102170262D01*
X157186293Y-101935845D01*
X157186489Y-100250978D01*
X158091817Y-100250978D01*
X158067385Y-100287667D01*
X158061118Y-100297247D01*
X158035008Y-100343581D01*
X158017269Y-100390702D01*
X158005708Y-100445851D01*
X157998131Y-100516267D01*
X157997639Y-100523250D01*
X157995862Y-100561241D01*
X157994244Y-100615176D01*
X157992799Y-100682303D01*
X157991540Y-100759871D01*
X157990480Y-100845128D01*
X157989629Y-100935324D01*
X157989003Y-101027707D01*
X157988612Y-101119525D01*
X157988470Y-101208027D01*
X157988590Y-101290462D01*
X157988983Y-101364079D01*
X157989662Y-101426126D01*
X157990641Y-101473851D01*
X157991932Y-101504504D01*
X157993547Y-101515333D01*
X158001757Y-101510933D01*
X158023447Y-101495962D01*
X158052814Y-101474048D01*
X158101679Y-101439836D01*
X158189925Y-101393314D01*
X158288716Y-101359646D01*
X158401310Y-101337831D01*
X158530964Y-101326865D01*
X158623470Y-101325819D01*
X158744811Y-101335614D01*
X158854899Y-101359774D01*
X158958189Y-101399385D01*
X159059138Y-101455532D01*
X159104303Y-101486483D01*
X159209711Y-101577715D01*
X159301338Y-101686706D01*
X159379132Y-101813326D01*
X159443041Y-101957445D01*
X159493014Y-102118932D01*
X159528998Y-102297659D01*
X159550943Y-102493495D01*
X159556700Y-102649534D01*
G37*
X159556700Y-102649534D02*
X159558794Y-102706311D01*
X159558068Y-102783758D01*
X159549489Y-102935194D01*
X159530633Y-103071883D01*
X159500637Y-103197876D01*
X159458636Y-103317225D01*
X159403769Y-103433981D01*
X159336967Y-103544779D01*
X159246163Y-103658339D01*
X159142508Y-103753811D01*
X159026687Y-103830673D01*
X158899386Y-103888397D01*
X158761289Y-103926458D01*
X158723593Y-103932266D01*
X158644552Y-103937996D01*
X158556429Y-103938183D01*
X158467036Y-103933139D01*
X158384184Y-103923178D01*
X158315687Y-103908612D01*
X158284835Y-103898964D01*
X158207530Y-103868723D01*
X158130479Y-103831217D01*
X158061000Y-103790214D01*
X158006415Y-103749479D01*
X157983716Y-103730105D01*
X157961001Y-103712262D01*
X157949579Y-103705378D01*
X157948337Y-103707024D01*
X157945528Y-103724805D01*
X157943576Y-103757970D01*
X157942845Y-103801333D01*
X157942845Y-103897289D01*
X157084696Y-103897289D01*
X157118961Y-103836574D01*
X157124155Y-103827468D01*
X157132515Y-103812849D01*
X157140088Y-103798773D01*
X157146912Y-103784140D01*
X157153027Y-103767849D01*
X157158473Y-103748798D01*
X157163287Y-103725886D01*
X157167508Y-103698013D01*
X157171177Y-103664078D01*
X157174331Y-103622979D01*
X157177011Y-103573615D01*
X157179254Y-103514886D01*
X157181099Y-103445690D01*
X157182587Y-103364926D01*
X157183755Y-103271494D01*
X157184478Y-103184321D01*
X157988000Y-103184321D01*
X158058556Y-103230689D01*
X158099217Y-103254391D01*
X158153346Y-103280239D01*
X158202489Y-103298429D01*
X158265965Y-103314151D01*
X158362131Y-103325141D01*
X158446700Y-103316965D01*
X158520019Y-103289405D01*
X158582437Y-103242242D01*
X158634302Y-103175258D01*
X158675960Y-103088233D01*
X158707762Y-102980950D01*
X158710345Y-102968609D01*
X158718800Y-102907372D01*
X158724463Y-102830292D01*
X158727376Y-102742602D01*
X158727583Y-102649534D01*
X158725130Y-102556320D01*
X158720061Y-102468194D01*
X158712419Y-102390388D01*
X158702248Y-102328133D01*
X158700967Y-102322266D01*
X158671926Y-102211721D01*
X158637410Y-102121175D01*
X158596256Y-102048553D01*
X158547299Y-101991781D01*
X158489374Y-101948784D01*
X158457420Y-101933215D01*
X158384584Y-101914322D01*
X158303243Y-101911065D01*
X158218119Y-101922989D01*
X158133933Y-101949640D01*
X158055408Y-101990562D01*
X157988000Y-102034130D01*
X157988000Y-103184321D01*
X157184478Y-103184321D01*
X157184644Y-103164292D01*
X157185291Y-103042220D01*
X157185736Y-102904176D01*
X157186018Y-102749059D01*
X157186175Y-102575768D01*
X157186248Y-102383203D01*
X157186274Y-102170262D01*
X157186293Y-101935845D01*
X157186489Y-100250978D01*
X158091817Y-100250978D01*
X158067385Y-100287667D01*
X158061118Y-100297247D01*
X158035008Y-100343581D01*
X158017269Y-100390702D01*
X158005708Y-100445851D01*
X157998131Y-100516267D01*
X157997639Y-100523250D01*
X157995862Y-100561241D01*
X157994244Y-100615176D01*
X157992799Y-100682303D01*
X157991540Y-100759871D01*
X157990480Y-100845128D01*
X157989629Y-100935324D01*
X157989003Y-101027707D01*
X157988612Y-101119525D01*
X157988470Y-101208027D01*
X157988590Y-101290462D01*
X157988983Y-101364079D01*
X157989662Y-101426126D01*
X157990641Y-101473851D01*
X157991932Y-101504504D01*
X157993547Y-101515333D01*
X158001757Y-101510933D01*
X158023447Y-101495962D01*
X158052814Y-101474048D01*
X158101679Y-101439836D01*
X158189925Y-101393314D01*
X158288716Y-101359646D01*
X158401310Y-101337831D01*
X158530964Y-101326865D01*
X158623470Y-101325819D01*
X158744811Y-101335614D01*
X158854899Y-101359774D01*
X158958189Y-101399385D01*
X159059138Y-101455532D01*
X159104303Y-101486483D01*
X159209711Y-101577715D01*
X159301338Y-101686706D01*
X159379132Y-101813326D01*
X159443041Y-101957445D01*
X159493014Y-102118932D01*
X159528998Y-102297659D01*
X159550943Y-102493495D01*
X159556700Y-102649534D01*
G36*
X162100490Y-103103882D02*
G01*
X162100555Y-103107067D01*
X162100061Y-103140963D01*
X162096432Y-103215802D01*
X162088822Y-103278001D01*
X162076488Y-103334584D01*
X162032113Y-103460676D01*
X161969200Y-103575279D01*
X161889038Y-103676168D01*
X161792540Y-103762524D01*
X161680622Y-103833532D01*
X161554197Y-103888376D01*
X161414178Y-103926238D01*
X161377949Y-103931951D01*
X161298955Y-103937913D01*
X161210641Y-103938246D01*
X161120875Y-103933259D01*
X161037522Y-103923266D01*
X160968451Y-103908578D01*
X160881987Y-103878349D01*
X160772086Y-103823657D01*
X160674756Y-103756143D01*
X160612667Y-103705156D01*
X160609405Y-103801222D01*
X160606143Y-103897289D01*
X160183250Y-103897289D01*
X160172343Y-103897286D01*
X160077856Y-103896980D01*
X159991131Y-103896216D01*
X159914637Y-103895051D01*
X159850843Y-103893542D01*
X159802218Y-103891747D01*
X159771233Y-103889721D01*
X159760356Y-103887522D01*
X159760378Y-103887063D01*
X159767414Y-103871510D01*
X159783234Y-103848671D01*
X159787534Y-103843238D01*
X159798577Y-103829206D01*
X159808111Y-103815786D01*
X159816261Y-103801322D01*
X159823152Y-103784156D01*
X159828911Y-103762634D01*
X159833662Y-103735098D01*
X159837531Y-103699892D01*
X159840644Y-103655360D01*
X159843125Y-103599846D01*
X159845100Y-103531693D01*
X159846694Y-103449245D01*
X159848034Y-103350846D01*
X159849244Y-103234839D01*
X159849696Y-103184062D01*
X160652178Y-103184062D01*
X160696848Y-103240573D01*
X160709585Y-103255812D01*
X160756404Y-103298444D01*
X160817055Y-103334272D01*
X160827697Y-103339450D01*
X160866476Y-103356345D01*
X160901492Y-103366509D01*
X160941522Y-103371925D01*
X160995341Y-103374578D01*
X161013448Y-103374983D01*
X161088811Y-103372140D01*
X161149543Y-103360220D01*
X161201252Y-103337637D01*
X161249546Y-103302811D01*
X161254603Y-103298398D01*
X161303072Y-103242760D01*
X161331259Y-103178933D01*
X161340552Y-103103882D01*
X161333320Y-103032293D01*
X161308596Y-102969245D01*
X161264049Y-102911358D01*
X161209119Y-102864408D01*
X161136694Y-102824561D01*
X161050140Y-102796863D01*
X160947470Y-102780696D01*
X160826694Y-102775442D01*
X160817807Y-102775457D01*
X160762460Y-102776255D01*
X160715536Y-102778088D01*
X160681753Y-102780711D01*
X160665828Y-102783874D01*
X160661743Y-102790341D01*
X160657372Y-102812475D01*
X160654404Y-102851588D01*
X160652714Y-102909539D01*
X160652178Y-102988186D01*
X160652178Y-103184062D01*
X159849696Y-103184062D01*
X159850449Y-103099568D01*
X159851775Y-102943378D01*
X159853028Y-102800612D01*
X159854451Y-102655542D01*
X159855976Y-102529627D01*
X159857733Y-102421036D01*
X159859851Y-102327934D01*
X159862460Y-102248491D01*
X159865690Y-102180873D01*
X159869669Y-102123249D01*
X159874528Y-102073785D01*
X159880397Y-102030650D01*
X159887404Y-101992010D01*
X159895680Y-101956034D01*
X159905354Y-101920889D01*
X159916556Y-101884742D01*
X159929416Y-101845761D01*
X159944890Y-101802691D01*
X159987794Y-101710471D01*
X160041535Y-101630699D01*
X160110376Y-101556565D01*
X160187985Y-101493005D01*
X160292561Y-101431325D01*
X160412044Y-101383802D01*
X160547308Y-101350167D01*
X160699226Y-101330152D01*
X160868672Y-101323489D01*
X160926690Y-101323887D01*
X160992198Y-101325935D01*
X161053493Y-101330304D01*
X161114897Y-101337635D01*
X161180732Y-101348569D01*
X161255320Y-101363747D01*
X161342984Y-101383809D01*
X161448045Y-101409397D01*
X161476606Y-101416420D01*
X161551854Y-101434376D01*
X161622188Y-101450420D01*
X161683367Y-101463628D01*
X161731154Y-101473074D01*
X161761311Y-101477831D01*
X161789583Y-101481510D01*
X161815860Y-101486787D01*
X161825859Y-101491542D01*
X161822752Y-101500381D01*
X161811994Y-101527672D01*
X161794664Y-101570506D01*
X161771926Y-101626025D01*
X161744947Y-101691372D01*
X161714890Y-101763689D01*
X161708293Y-101779479D01*
X161669707Y-101870084D01*
X161638568Y-101939817D01*
X161614717Y-101989005D01*
X161597998Y-102017974D01*
X161588254Y-102027052D01*
X161580566Y-102025005D01*
X161554215Y-102015360D01*
X161515782Y-101999790D01*
X161470622Y-101980415D01*
X161376093Y-101942414D01*
X161239280Y-101901380D01*
X161098089Y-101876212D01*
X161060114Y-101872211D01*
X160956859Y-101870047D01*
X160869752Y-101883222D01*
X160797929Y-101912356D01*
X160740531Y-101958066D01*
X160696696Y-102020972D01*
X160665562Y-102101692D01*
X160646270Y-102200845D01*
X160638850Y-102259824D01*
X160800736Y-102253045D01*
X160927295Y-102251413D01*
X161078751Y-102257794D01*
X161227196Y-102272377D01*
X161363378Y-102294482D01*
X161428045Y-102309421D01*
X161560290Y-102352341D01*
X161682562Y-102408940D01*
X161792485Y-102477617D01*
X161887683Y-102556770D01*
X161965780Y-102644796D01*
X162024399Y-102740093D01*
X162048395Y-102792464D01*
X162074032Y-102863190D01*
X162090278Y-102934412D01*
X162098622Y-103013312D01*
X162100490Y-103103882D01*
G37*
X162100490Y-103103882D02*
X162100555Y-103107067D01*
X162100061Y-103140963D01*
X162096432Y-103215802D01*
X162088822Y-103278001D01*
X162076488Y-103334584D01*
X162032113Y-103460676D01*
X161969200Y-103575279D01*
X161889038Y-103676168D01*
X161792540Y-103762524D01*
X161680622Y-103833532D01*
X161554197Y-103888376D01*
X161414178Y-103926238D01*
X161377949Y-103931951D01*
X161298955Y-103937913D01*
X161210641Y-103938246D01*
X161120875Y-103933259D01*
X161037522Y-103923266D01*
X160968451Y-103908578D01*
X160881987Y-103878349D01*
X160772086Y-103823657D01*
X160674756Y-103756143D01*
X160612667Y-103705156D01*
X160609405Y-103801222D01*
X160606143Y-103897289D01*
X160183250Y-103897289D01*
X160172343Y-103897286D01*
X160077856Y-103896980D01*
X159991131Y-103896216D01*
X159914637Y-103895051D01*
X159850843Y-103893542D01*
X159802218Y-103891747D01*
X159771233Y-103889721D01*
X159760356Y-103887522D01*
X159760378Y-103887063D01*
X159767414Y-103871510D01*
X159783234Y-103848671D01*
X159787534Y-103843238D01*
X159798577Y-103829206D01*
X159808111Y-103815786D01*
X159816261Y-103801322D01*
X159823152Y-103784156D01*
X159828911Y-103762634D01*
X159833662Y-103735098D01*
X159837531Y-103699892D01*
X159840644Y-103655360D01*
X159843125Y-103599846D01*
X159845100Y-103531693D01*
X159846694Y-103449245D01*
X159848034Y-103350846D01*
X159849244Y-103234839D01*
X159849696Y-103184062D01*
X160652178Y-103184062D01*
X160696848Y-103240573D01*
X160709585Y-103255812D01*
X160756404Y-103298444D01*
X160817055Y-103334272D01*
X160827697Y-103339450D01*
X160866476Y-103356345D01*
X160901492Y-103366509D01*
X160941522Y-103371925D01*
X160995341Y-103374578D01*
X161013448Y-103374983D01*
X161088811Y-103372140D01*
X161149543Y-103360220D01*
X161201252Y-103337637D01*
X161249546Y-103302811D01*
X161254603Y-103298398D01*
X161303072Y-103242760D01*
X161331259Y-103178933D01*
X161340552Y-103103882D01*
X161333320Y-103032293D01*
X161308596Y-102969245D01*
X161264049Y-102911358D01*
X161209119Y-102864408D01*
X161136694Y-102824561D01*
X161050140Y-102796863D01*
X160947470Y-102780696D01*
X160826694Y-102775442D01*
X160817807Y-102775457D01*
X160762460Y-102776255D01*
X160715536Y-102778088D01*
X160681753Y-102780711D01*
X160665828Y-102783874D01*
X160661743Y-102790341D01*
X160657372Y-102812475D01*
X160654404Y-102851588D01*
X160652714Y-102909539D01*
X160652178Y-102988186D01*
X160652178Y-103184062D01*
X159849696Y-103184062D01*
X159850449Y-103099568D01*
X159851775Y-102943378D01*
X159853028Y-102800612D01*
X159854451Y-102655542D01*
X159855976Y-102529627D01*
X159857733Y-102421036D01*
X159859851Y-102327934D01*
X159862460Y-102248491D01*
X159865690Y-102180873D01*
X159869669Y-102123249D01*
X159874528Y-102073785D01*
X159880397Y-102030650D01*
X159887404Y-101992010D01*
X159895680Y-101956034D01*
X159905354Y-101920889D01*
X159916556Y-101884742D01*
X159929416Y-101845761D01*
X159944890Y-101802691D01*
X159987794Y-101710471D01*
X160041535Y-101630699D01*
X160110376Y-101556565D01*
X160187985Y-101493005D01*
X160292561Y-101431325D01*
X160412044Y-101383802D01*
X160547308Y-101350167D01*
X160699226Y-101330152D01*
X160868672Y-101323489D01*
X160926690Y-101323887D01*
X160992198Y-101325935D01*
X161053493Y-101330304D01*
X161114897Y-101337635D01*
X161180732Y-101348569D01*
X161255320Y-101363747D01*
X161342984Y-101383809D01*
X161448045Y-101409397D01*
X161476606Y-101416420D01*
X161551854Y-101434376D01*
X161622188Y-101450420D01*
X161683367Y-101463628D01*
X161731154Y-101473074D01*
X161761311Y-101477831D01*
X161789583Y-101481510D01*
X161815860Y-101486787D01*
X161825859Y-101491542D01*
X161822752Y-101500381D01*
X161811994Y-101527672D01*
X161794664Y-101570506D01*
X161771926Y-101626025D01*
X161744947Y-101691372D01*
X161714890Y-101763689D01*
X161708293Y-101779479D01*
X161669707Y-101870084D01*
X161638568Y-101939817D01*
X161614717Y-101989005D01*
X161597998Y-102017974D01*
X161588254Y-102027052D01*
X161580566Y-102025005D01*
X161554215Y-102015360D01*
X161515782Y-101999790D01*
X161470622Y-101980415D01*
X161376093Y-101942414D01*
X161239280Y-101901380D01*
X161098089Y-101876212D01*
X161060114Y-101872211D01*
X160956859Y-101870047D01*
X160869752Y-101883222D01*
X160797929Y-101912356D01*
X160740531Y-101958066D01*
X160696696Y-102020972D01*
X160665562Y-102101692D01*
X160646270Y-102200845D01*
X160638850Y-102259824D01*
X160800736Y-102253045D01*
X160927295Y-102251413D01*
X161078751Y-102257794D01*
X161227196Y-102272377D01*
X161363378Y-102294482D01*
X161428045Y-102309421D01*
X161560290Y-102352341D01*
X161682562Y-102408940D01*
X161792485Y-102477617D01*
X161887683Y-102556770D01*
X161965780Y-102644796D01*
X162024399Y-102740093D01*
X162048395Y-102792464D01*
X162074032Y-102863190D01*
X162090278Y-102934412D01*
X162098622Y-103013312D01*
X162100490Y-103103882D01*
G36*
X169647834Y-100465467D02*
G01*
X169648414Y-100575392D01*
X169648859Y-100706611D01*
X169649162Y-100853816D01*
X169649348Y-101017949D01*
X169649442Y-101199952D01*
X169649471Y-101400765D01*
X169649461Y-101621332D01*
X169649436Y-101862592D01*
X169649422Y-102125489D01*
X169649422Y-102167640D01*
X169649446Y-102428268D01*
X169649485Y-102667396D01*
X169649508Y-102885960D01*
X169649487Y-103084895D01*
X169649393Y-103265135D01*
X169649195Y-103427615D01*
X169648863Y-103573270D01*
X169648369Y-103703034D01*
X169647683Y-103817843D01*
X169646776Y-103918630D01*
X169645617Y-104006330D01*
X169644178Y-104081879D01*
X169642429Y-104146211D01*
X169640340Y-104200261D01*
X169637883Y-104244963D01*
X169635027Y-104281252D01*
X169631743Y-104310063D01*
X169628002Y-104332331D01*
X169623774Y-104348990D01*
X169619029Y-104360975D01*
X169613739Y-104369221D01*
X169607873Y-104374662D01*
X169601402Y-104378234D01*
X169594297Y-104380870D01*
X169586528Y-104383506D01*
X169578066Y-104387077D01*
X169573708Y-104388745D01*
X169565195Y-104390711D01*
X169552494Y-104392511D01*
X169534685Y-104394155D01*
X169510849Y-104395647D01*
X169480066Y-104396997D01*
X169441417Y-104398211D01*
X169393982Y-104399297D01*
X169336843Y-104400261D01*
X169269079Y-104401111D01*
X169189771Y-104401853D01*
X169097999Y-104402497D01*
X168992844Y-104403047D01*
X168873387Y-104403513D01*
X168738708Y-104403900D01*
X168587888Y-104404216D01*
X168420006Y-104404469D01*
X168234145Y-104404666D01*
X168029383Y-104404813D01*
X167804802Y-104404918D01*
X167559482Y-104404989D01*
X167292504Y-104405032D01*
X167254121Y-104405037D01*
X166988722Y-104405080D01*
X166744850Y-104405125D01*
X166521583Y-104405148D01*
X166317996Y-104405124D01*
X166133167Y-104405030D01*
X165966173Y-104404843D01*
X165816090Y-104404539D01*
X165681996Y-104404094D01*
X165562966Y-104403485D01*
X165458079Y-104402689D01*
X165366410Y-104401680D01*
X165287037Y-104400437D01*
X165219037Y-104398935D01*
X165161486Y-104397151D01*
X165113462Y-104395061D01*
X165074040Y-104392642D01*
X165042299Y-104389870D01*
X165017314Y-104386721D01*
X164998164Y-104383172D01*
X164983923Y-104379198D01*
X164973671Y-104374778D01*
X164966482Y-104369886D01*
X164961435Y-104364500D01*
X164957605Y-104358596D01*
X164954071Y-104352149D01*
X164949908Y-104345137D01*
X164948825Y-104343287D01*
X164946613Y-104337780D01*
X164944586Y-104329468D01*
X164942738Y-104317409D01*
X164941061Y-104300663D01*
X164939545Y-104278287D01*
X164938183Y-104249340D01*
X164936967Y-104212880D01*
X164935889Y-104167967D01*
X164934940Y-104113657D01*
X164934112Y-104049010D01*
X164933397Y-103973084D01*
X164932787Y-103884938D01*
X164932742Y-103876093D01*
X165224178Y-103876093D01*
X165228060Y-103877365D01*
X165251320Y-103879391D01*
X165293674Y-103881226D01*
X165352932Y-103882827D01*
X165426907Y-103884149D01*
X165513410Y-103885148D01*
X165610252Y-103885780D01*
X165715245Y-103886000D01*
X166413451Y-103886000D01*
X167567890Y-103886000D01*
X167567256Y-103809800D01*
X167568374Y-103767760D01*
X167574104Y-103731934D01*
X167586690Y-103694372D01*
X167608368Y-103646177D01*
X167611589Y-103639497D01*
X167636988Y-103589959D01*
X167663796Y-103541969D01*
X167686717Y-103505066D01*
X167691285Y-103498434D01*
X167713316Y-103467193D01*
X167745493Y-103422254D01*
X167786257Y-103365747D01*
X167834045Y-103299804D01*
X167887298Y-103226557D01*
X167944455Y-103148136D01*
X168003955Y-103066672D01*
X168064237Y-102984298D01*
X168123740Y-102903144D01*
X168180905Y-102825342D01*
X168234170Y-102753023D01*
X168281974Y-102688318D01*
X168322757Y-102633359D01*
X168354958Y-102590276D01*
X168377016Y-102561202D01*
X168387371Y-102548267D01*
X168391844Y-102543951D01*
X168396036Y-102541912D01*
X168399443Y-102544526D01*
X168402125Y-102553586D01*
X168404141Y-102570885D01*
X168405548Y-102598214D01*
X168406405Y-102637365D01*
X168406770Y-102690133D01*
X168406703Y-102758307D01*
X168406260Y-102843682D01*
X168405502Y-102948049D01*
X168404485Y-103073200D01*
X168404108Y-103117900D01*
X168402969Y-103238995D01*
X168401772Y-103340288D01*
X168400436Y-103423862D01*
X168398877Y-103491804D01*
X168397015Y-103546199D01*
X168394766Y-103589132D01*
X168392048Y-103622689D01*
X168388779Y-103648955D01*
X168384878Y-103670016D01*
X168380261Y-103687957D01*
X168371992Y-103714370D01*
X168348383Y-103776372D01*
X168322485Y-103829173D01*
X168297335Y-103866245D01*
X168296139Y-103867675D01*
X168293968Y-103872024D01*
X168296128Y-103875626D01*
X168304444Y-103878551D01*
X168320740Y-103880869D01*
X168346841Y-103882651D01*
X168384571Y-103883967D01*
X168435756Y-103884886D01*
X168502220Y-103885478D01*
X168585787Y-103885815D01*
X168688283Y-103885965D01*
X168811532Y-103886000D01*
X169343096Y-103886000D01*
X169304323Y-103828383D01*
X169298232Y-103819493D01*
X169287776Y-103804669D01*
X169278379Y-103791022D01*
X169269983Y-103777365D01*
X169262533Y-103762511D01*
X169255973Y-103745270D01*
X169250246Y-103724455D01*
X169245295Y-103698880D01*
X169241066Y-103667355D01*
X169237501Y-103628693D01*
X169234544Y-103581707D01*
X169232140Y-103525208D01*
X169230231Y-103458009D01*
X169228762Y-103378922D01*
X169227676Y-103286760D01*
X169226918Y-103180334D01*
X169226430Y-103058457D01*
X169226158Y-102919941D01*
X169226043Y-102763599D01*
X169226031Y-102588242D01*
X169226065Y-102392682D01*
X169226089Y-102175733D01*
X169226080Y-102053113D01*
X169226043Y-101848047D01*
X169226027Y-101663716D01*
X169226088Y-101498934D01*
X169226284Y-101352516D01*
X169226670Y-101223274D01*
X169227305Y-101110022D01*
X169228244Y-101011575D01*
X169229545Y-100926744D01*
X169231264Y-100854344D01*
X169233459Y-100793189D01*
X169236185Y-100742092D01*
X169239501Y-100699867D01*
X169243462Y-100665327D01*
X169248125Y-100637286D01*
X169253547Y-100614558D01*
X169259786Y-100595956D01*
X169266897Y-100580293D01*
X169274938Y-100566384D01*
X169283966Y-100553041D01*
X169294036Y-100539079D01*
X169305207Y-100523311D01*
X169344997Y-100465467D01*
X168285114Y-100465467D01*
X168323111Y-100528566D01*
X168337793Y-100553605D01*
X168352331Y-100581186D01*
X168364427Y-100609300D01*
X168374332Y-100640151D01*
X168382294Y-100675944D01*
X168388561Y-100718883D01*
X168393382Y-100771174D01*
X168397006Y-100835019D01*
X168399681Y-100912625D01*
X168401657Y-101006194D01*
X168403182Y-101117933D01*
X168404504Y-101250045D01*
X168405413Y-101370034D01*
X168405820Y-101486663D01*
X168405567Y-101582131D01*
X168404657Y-101656156D01*
X168403093Y-101708455D01*
X168400879Y-101738749D01*
X168398020Y-101746756D01*
X168394961Y-101743458D01*
X168376806Y-101722008D01*
X168347075Y-101685489D01*
X168307439Y-101636042D01*
X168259571Y-101575807D01*
X168205143Y-101506927D01*
X168145827Y-101431543D01*
X168083295Y-101351796D01*
X168019221Y-101269828D01*
X167955275Y-101187780D01*
X167893131Y-101107794D01*
X167834461Y-101032011D01*
X167780937Y-100962573D01*
X167734230Y-100901621D01*
X167696014Y-100851296D01*
X167667961Y-100813740D01*
X167651743Y-100791095D01*
X167606435Y-100718812D01*
X167566461Y-100639063D01*
X167544930Y-100570788D01*
X167541627Y-100513444D01*
X167546916Y-100465467D01*
X166415156Y-100465717D01*
X166454667Y-100496322D01*
X166464048Y-100503689D01*
X166526983Y-100558038D01*
X166595797Y-100625859D01*
X166672396Y-100709116D01*
X166758688Y-100809778D01*
X166775852Y-100830447D01*
X166816633Y-100880009D01*
X166866388Y-100940926D01*
X166923755Y-101011498D01*
X166987369Y-101090024D01*
X167055869Y-101174804D01*
X167127890Y-101264137D01*
X167202070Y-101356322D01*
X167217317Y-101375302D01*
X167277046Y-101449660D01*
X167351453Y-101542448D01*
X167423931Y-101632988D01*
X167493114Y-101719578D01*
X167557641Y-101800518D01*
X167616147Y-101874106D01*
X167667270Y-101938644D01*
X167709647Y-101992429D01*
X167741915Y-102033762D01*
X167762710Y-102060942D01*
X167770669Y-102072268D01*
X167768911Y-102076371D01*
X167756030Y-102096934D01*
X167731685Y-102133161D01*
X167697047Y-102183424D01*
X167653286Y-102246092D01*
X167601575Y-102319536D01*
X167543084Y-102402127D01*
X167478984Y-102492236D01*
X167410446Y-102588231D01*
X167338643Y-102688485D01*
X167264744Y-102791368D01*
X167189921Y-102895250D01*
X167115345Y-102998501D01*
X167042187Y-103099492D01*
X166971619Y-103196594D01*
X166904811Y-103288177D01*
X166842935Y-103372611D01*
X166787161Y-103448267D01*
X166738662Y-103513516D01*
X166698607Y-103566728D01*
X166668169Y-103606273D01*
X166647744Y-103631626D01*
X166601699Y-103685895D01*
X166551412Y-103742375D01*
X166504615Y-103792269D01*
X166413451Y-103886000D01*
X165715245Y-103886000D01*
X165784156Y-103885949D01*
X165882407Y-103885691D01*
X165971830Y-103885237D01*
X166050133Y-103884610D01*
X166115023Y-103883835D01*
X166164211Y-103882935D01*
X166195404Y-103881934D01*
X166206311Y-103880857D01*
X166205122Y-103877637D01*
X166194976Y-103860052D01*
X166177840Y-103833758D01*
X166169340Y-103821291D01*
X166160129Y-103807222D01*
X166152033Y-103792951D01*
X166144985Y-103777079D01*
X166138917Y-103758209D01*
X166133761Y-103734941D01*
X166129451Y-103705878D01*
X166125919Y-103669621D01*
X166123097Y-103624770D01*
X166120918Y-103569928D01*
X166119314Y-103503697D01*
X166118219Y-103424677D01*
X166117565Y-103331471D01*
X166117284Y-103222679D01*
X166117309Y-103096903D01*
X166117572Y-102952745D01*
X166118006Y-102788807D01*
X166118545Y-102603689D01*
X166119079Y-102424832D01*
X166119605Y-102265974D01*
X166120150Y-102126916D01*
X166120745Y-102006265D01*
X166121419Y-101902628D01*
X166122203Y-101814611D01*
X166123126Y-101740823D01*
X166124219Y-101679869D01*
X166125512Y-101630357D01*
X166127035Y-101590893D01*
X166128819Y-101560084D01*
X166130892Y-101536538D01*
X166133286Y-101518860D01*
X166136030Y-101505659D01*
X166139156Y-101495540D01*
X166142692Y-101487111D01*
X166146591Y-101478975D01*
X166166238Y-101442144D01*
X166185025Y-101411991D01*
X166186072Y-101410508D01*
X166200402Y-101388259D01*
X166206311Y-101375302D01*
X166205304Y-101374849D01*
X166188105Y-101373403D01*
X166151456Y-101372080D01*
X166097762Y-101370916D01*
X166029430Y-101369947D01*
X165948864Y-101369211D01*
X165858470Y-101368742D01*
X165760653Y-101368578D01*
X165314995Y-101368578D01*
X165311920Y-102545445D01*
X165308845Y-103722311D01*
X165282207Y-103781222D01*
X165270285Y-103805783D01*
X165253046Y-103836034D01*
X165239874Y-103853160D01*
X165231876Y-103861191D01*
X165224178Y-103876093D01*
X164932742Y-103876093D01*
X164932274Y-103783629D01*
X164931850Y-103668217D01*
X164931506Y-103537760D01*
X164931234Y-103391316D01*
X164931027Y-103227944D01*
X164930876Y-103046701D01*
X164930772Y-102846648D01*
X164930708Y-102626841D01*
X164930676Y-102386339D01*
X164930667Y-102124202D01*
X164930667Y-99932631D01*
X164969049Y-99894249D01*
X164996155Y-99870511D01*
X165023053Y-99858711D01*
X165059360Y-99855867D01*
X165111289Y-99855867D01*
X165111289Y-99943806D01*
X165113227Y-99993702D01*
X165131999Y-100104123D01*
X165169017Y-100205587D01*
X165222169Y-100296752D01*
X165289346Y-100376273D01*
X165368438Y-100442805D01*
X165457334Y-100495006D01*
X165553925Y-100531530D01*
X165656100Y-100551034D01*
X165761750Y-100552173D01*
X165868764Y-100533605D01*
X165975032Y-100493984D01*
X166072019Y-100436116D01*
X166157093Y-100361284D01*
X166225815Y-100273215D01*
X166276718Y-100174216D01*
X166308335Y-100066593D01*
X166319200Y-99952654D01*
X166319200Y-99855867D01*
X167939553Y-99855867D01*
X168150697Y-99855880D01*
X168354820Y-99855930D01*
X168538486Y-99856030D01*
X168702791Y-99856192D01*
X168848829Y-99856429D01*
X168977694Y-99856753D01*
X169090483Y-99857175D01*
X169188288Y-99857709D01*
X169272204Y-99858367D01*
X169343327Y-99859161D01*
X169402750Y-99860104D01*
X169451568Y-99861208D01*
X169490877Y-99862484D01*
X169521769Y-99863947D01*
X169545341Y-99865607D01*
X169562686Y-99867478D01*
X169574899Y-99869572D01*
X169583075Y-99871900D01*
X169588308Y-99874476D01*
X169594304Y-99878045D01*
X169601079Y-99881578D01*
X169607278Y-99885088D01*
X169612926Y-99889518D01*
X169618047Y-99895808D01*
X169622669Y-99904901D01*
X169626815Y-99917739D01*
X169630513Y-99935262D01*
X169633787Y-99958413D01*
X169636663Y-99988134D01*
X169639167Y-100025365D01*
X169641324Y-100071049D01*
X169643160Y-100126127D01*
X169644700Y-100191541D01*
X169645970Y-100268233D01*
X169646995Y-100357144D01*
X169647801Y-100459217D01*
X169647834Y-100465467D01*
G37*
X169647834Y-100465467D02*
X169648414Y-100575392D01*
X169648859Y-100706611D01*
X169649162Y-100853816D01*
X169649348Y-101017949D01*
X169649442Y-101199952D01*
X169649471Y-101400765D01*
X169649461Y-101621332D01*
X169649436Y-101862592D01*
X169649422Y-102125489D01*
X169649422Y-102167640D01*
X169649446Y-102428268D01*
X169649485Y-102667396D01*
X169649508Y-102885960D01*
X169649487Y-103084895D01*
X169649393Y-103265135D01*
X169649195Y-103427615D01*
X169648863Y-103573270D01*
X169648369Y-103703034D01*
X169647683Y-103817843D01*
X169646776Y-103918630D01*
X169645617Y-104006330D01*
X169644178Y-104081879D01*
X169642429Y-104146211D01*
X169640340Y-104200261D01*
X169637883Y-104244963D01*
X169635027Y-104281252D01*
X169631743Y-104310063D01*
X169628002Y-104332331D01*
X169623774Y-104348990D01*
X169619029Y-104360975D01*
X169613739Y-104369221D01*
X169607873Y-104374662D01*
X169601402Y-104378234D01*
X169594297Y-104380870D01*
X169586528Y-104383506D01*
X169578066Y-104387077D01*
X169573708Y-104388745D01*
X169565195Y-104390711D01*
X169552494Y-104392511D01*
X169534685Y-104394155D01*
X169510849Y-104395647D01*
X169480066Y-104396997D01*
X169441417Y-104398211D01*
X169393982Y-104399297D01*
X169336843Y-104400261D01*
X169269079Y-104401111D01*
X169189771Y-104401853D01*
X169097999Y-104402497D01*
X168992844Y-104403047D01*
X168873387Y-104403513D01*
X168738708Y-104403900D01*
X168587888Y-104404216D01*
X168420006Y-104404469D01*
X168234145Y-104404666D01*
X168029383Y-104404813D01*
X167804802Y-104404918D01*
X167559482Y-104404989D01*
X167292504Y-104405032D01*
X167254121Y-104405037D01*
X166988722Y-104405080D01*
X166744850Y-104405125D01*
X166521583Y-104405148D01*
X166317996Y-104405124D01*
X166133167Y-104405030D01*
X165966173Y-104404843D01*
X165816090Y-104404539D01*
X165681996Y-104404094D01*
X165562966Y-104403485D01*
X165458079Y-104402689D01*
X165366410Y-104401680D01*
X165287037Y-104400437D01*
X165219037Y-104398935D01*
X165161486Y-104397151D01*
X165113462Y-104395061D01*
X165074040Y-104392642D01*
X165042299Y-104389870D01*
X165017314Y-104386721D01*
X164998164Y-104383172D01*
X164983923Y-104379198D01*
X164973671Y-104374778D01*
X164966482Y-104369886D01*
X164961435Y-104364500D01*
X164957605Y-104358596D01*
X164954071Y-104352149D01*
X164949908Y-104345137D01*
X164948825Y-104343287D01*
X164946613Y-104337780D01*
X164944586Y-104329468D01*
X164942738Y-104317409D01*
X164941061Y-104300663D01*
X164939545Y-104278287D01*
X164938183Y-104249340D01*
X164936967Y-104212880D01*
X164935889Y-104167967D01*
X164934940Y-104113657D01*
X164934112Y-104049010D01*
X164933397Y-103973084D01*
X164932787Y-103884938D01*
X164932742Y-103876093D01*
X165224178Y-103876093D01*
X165228060Y-103877365D01*
X165251320Y-103879391D01*
X165293674Y-103881226D01*
X165352932Y-103882827D01*
X165426907Y-103884149D01*
X165513410Y-103885148D01*
X165610252Y-103885780D01*
X165715245Y-103886000D01*
X166413451Y-103886000D01*
X167567890Y-103886000D01*
X167567256Y-103809800D01*
X167568374Y-103767760D01*
X167574104Y-103731934D01*
X167586690Y-103694372D01*
X167608368Y-103646177D01*
X167611589Y-103639497D01*
X167636988Y-103589959D01*
X167663796Y-103541969D01*
X167686717Y-103505066D01*
X167691285Y-103498434D01*
X167713316Y-103467193D01*
X167745493Y-103422254D01*
X167786257Y-103365747D01*
X167834045Y-103299804D01*
X167887298Y-103226557D01*
X167944455Y-103148136D01*
X168003955Y-103066672D01*
X168064237Y-102984298D01*
X168123740Y-102903144D01*
X168180905Y-102825342D01*
X168234170Y-102753023D01*
X168281974Y-102688318D01*
X168322757Y-102633359D01*
X168354958Y-102590276D01*
X168377016Y-102561202D01*
X168387371Y-102548267D01*
X168391844Y-102543951D01*
X168396036Y-102541912D01*
X168399443Y-102544526D01*
X168402125Y-102553586D01*
X168404141Y-102570885D01*
X168405548Y-102598214D01*
X168406405Y-102637365D01*
X168406770Y-102690133D01*
X168406703Y-102758307D01*
X168406260Y-102843682D01*
X168405502Y-102948049D01*
X168404485Y-103073200D01*
X168404108Y-103117900D01*
X168402969Y-103238995D01*
X168401772Y-103340288D01*
X168400436Y-103423862D01*
X168398877Y-103491804D01*
X168397015Y-103546199D01*
X168394766Y-103589132D01*
X168392048Y-103622689D01*
X168388779Y-103648955D01*
X168384878Y-103670016D01*
X168380261Y-103687957D01*
X168371992Y-103714370D01*
X168348383Y-103776372D01*
X168322485Y-103829173D01*
X168297335Y-103866245D01*
X168296139Y-103867675D01*
X168293968Y-103872024D01*
X168296128Y-103875626D01*
X168304444Y-103878551D01*
X168320740Y-103880869D01*
X168346841Y-103882651D01*
X168384571Y-103883967D01*
X168435756Y-103884886D01*
X168502220Y-103885478D01*
X168585787Y-103885815D01*
X168688283Y-103885965D01*
X168811532Y-103886000D01*
X169343096Y-103886000D01*
X169304323Y-103828383D01*
X169298232Y-103819493D01*
X169287776Y-103804669D01*
X169278379Y-103791022D01*
X169269983Y-103777365D01*
X169262533Y-103762511D01*
X169255973Y-103745270D01*
X169250246Y-103724455D01*
X169245295Y-103698880D01*
X169241066Y-103667355D01*
X169237501Y-103628693D01*
X169234544Y-103581707D01*
X169232140Y-103525208D01*
X169230231Y-103458009D01*
X169228762Y-103378922D01*
X169227676Y-103286760D01*
X169226918Y-103180334D01*
X169226430Y-103058457D01*
X169226158Y-102919941D01*
X169226043Y-102763599D01*
X169226031Y-102588242D01*
X169226065Y-102392682D01*
X169226089Y-102175733D01*
X169226080Y-102053113D01*
X169226043Y-101848047D01*
X169226027Y-101663716D01*
X169226088Y-101498934D01*
X169226284Y-101352516D01*
X169226670Y-101223274D01*
X169227305Y-101110022D01*
X169228244Y-101011575D01*
X169229545Y-100926744D01*
X169231264Y-100854344D01*
X169233459Y-100793189D01*
X169236185Y-100742092D01*
X169239501Y-100699867D01*
X169243462Y-100665327D01*
X169248125Y-100637286D01*
X169253547Y-100614558D01*
X169259786Y-100595956D01*
X169266897Y-100580293D01*
X169274938Y-100566384D01*
X169283966Y-100553041D01*
X169294036Y-100539079D01*
X169305207Y-100523311D01*
X169344997Y-100465467D01*
X168285114Y-100465467D01*
X168323111Y-100528566D01*
X168337793Y-100553605D01*
X168352331Y-100581186D01*
X168364427Y-100609300D01*
X168374332Y-100640151D01*
X168382294Y-100675944D01*
X168388561Y-100718883D01*
X168393382Y-100771174D01*
X168397006Y-100835019D01*
X168399681Y-100912625D01*
X168401657Y-101006194D01*
X168403182Y-101117933D01*
X168404504Y-101250045D01*
X168405413Y-101370034D01*
X168405820Y-101486663D01*
X168405567Y-101582131D01*
X168404657Y-101656156D01*
X168403093Y-101708455D01*
X168400879Y-101738749D01*
X168398020Y-101746756D01*
X168394961Y-101743458D01*
X168376806Y-101722008D01*
X168347075Y-101685489D01*
X168307439Y-101636042D01*
X168259571Y-101575807D01*
X168205143Y-101506927D01*
X168145827Y-101431543D01*
X168083295Y-101351796D01*
X168019221Y-101269828D01*
X167955275Y-101187780D01*
X167893131Y-101107794D01*
X167834461Y-101032011D01*
X167780937Y-100962573D01*
X167734230Y-100901621D01*
X167696014Y-100851296D01*
X167667961Y-100813740D01*
X167651743Y-100791095D01*
X167606435Y-100718812D01*
X167566461Y-100639063D01*
X167544930Y-100570788D01*
X167541627Y-100513444D01*
X167546916Y-100465467D01*
X166415156Y-100465717D01*
X166454667Y-100496322D01*
X166464048Y-100503689D01*
X166526983Y-100558038D01*
X166595797Y-100625859D01*
X166672396Y-100709116D01*
X166758688Y-100809778D01*
X166775852Y-100830447D01*
X166816633Y-100880009D01*
X166866388Y-100940926D01*
X166923755Y-101011498D01*
X166987369Y-101090024D01*
X167055869Y-101174804D01*
X167127890Y-101264137D01*
X167202070Y-101356322D01*
X167217317Y-101375302D01*
X167277046Y-101449660D01*
X167351453Y-101542448D01*
X167423931Y-101632988D01*
X167493114Y-101719578D01*
X167557641Y-101800518D01*
X167616147Y-101874106D01*
X167667270Y-101938644D01*
X167709647Y-101992429D01*
X167741915Y-102033762D01*
X167762710Y-102060942D01*
X167770669Y-102072268D01*
X167768911Y-102076371D01*
X167756030Y-102096934D01*
X167731685Y-102133161D01*
X167697047Y-102183424D01*
X167653286Y-102246092D01*
X167601575Y-102319536D01*
X167543084Y-102402127D01*
X167478984Y-102492236D01*
X167410446Y-102588231D01*
X167338643Y-102688485D01*
X167264744Y-102791368D01*
X167189921Y-102895250D01*
X167115345Y-102998501D01*
X167042187Y-103099492D01*
X166971619Y-103196594D01*
X166904811Y-103288177D01*
X166842935Y-103372611D01*
X166787161Y-103448267D01*
X166738662Y-103513516D01*
X166698607Y-103566728D01*
X166668169Y-103606273D01*
X166647744Y-103631626D01*
X166601699Y-103685895D01*
X166551412Y-103742375D01*
X166504615Y-103792269D01*
X166413451Y-103886000D01*
X165715245Y-103886000D01*
X165784156Y-103885949D01*
X165882407Y-103885691D01*
X165971830Y-103885237D01*
X166050133Y-103884610D01*
X166115023Y-103883835D01*
X166164211Y-103882935D01*
X166195404Y-103881934D01*
X166206311Y-103880857D01*
X166205122Y-103877637D01*
X166194976Y-103860052D01*
X166177840Y-103833758D01*
X166169340Y-103821291D01*
X166160129Y-103807222D01*
X166152033Y-103792951D01*
X166144985Y-103777079D01*
X166138917Y-103758209D01*
X166133761Y-103734941D01*
X166129451Y-103705878D01*
X166125919Y-103669621D01*
X166123097Y-103624770D01*
X166120918Y-103569928D01*
X166119314Y-103503697D01*
X166118219Y-103424677D01*
X166117565Y-103331471D01*
X166117284Y-103222679D01*
X166117309Y-103096903D01*
X166117572Y-102952745D01*
X166118006Y-102788807D01*
X166118545Y-102603689D01*
X166119079Y-102424832D01*
X166119605Y-102265974D01*
X166120150Y-102126916D01*
X166120745Y-102006265D01*
X166121419Y-101902628D01*
X166122203Y-101814611D01*
X166123126Y-101740823D01*
X166124219Y-101679869D01*
X166125512Y-101630357D01*
X166127035Y-101590893D01*
X166128819Y-101560084D01*
X166130892Y-101536538D01*
X166133286Y-101518860D01*
X166136030Y-101505659D01*
X166139156Y-101495540D01*
X166142692Y-101487111D01*
X166146591Y-101478975D01*
X166166238Y-101442144D01*
X166185025Y-101411991D01*
X166186072Y-101410508D01*
X166200402Y-101388259D01*
X166206311Y-101375302D01*
X166205304Y-101374849D01*
X166188105Y-101373403D01*
X166151456Y-101372080D01*
X166097762Y-101370916D01*
X166029430Y-101369947D01*
X165948864Y-101369211D01*
X165858470Y-101368742D01*
X165760653Y-101368578D01*
X165314995Y-101368578D01*
X165311920Y-102545445D01*
X165308845Y-103722311D01*
X165282207Y-103781222D01*
X165270285Y-103805783D01*
X165253046Y-103836034D01*
X165239874Y-103853160D01*
X165231876Y-103861191D01*
X165224178Y-103876093D01*
X164932742Y-103876093D01*
X164932274Y-103783629D01*
X164931850Y-103668217D01*
X164931506Y-103537760D01*
X164931234Y-103391316D01*
X164931027Y-103227944D01*
X164930876Y-103046701D01*
X164930772Y-102846648D01*
X164930708Y-102626841D01*
X164930676Y-102386339D01*
X164930667Y-102124202D01*
X164930667Y-99932631D01*
X164969049Y-99894249D01*
X164996155Y-99870511D01*
X165023053Y-99858711D01*
X165059360Y-99855867D01*
X165111289Y-99855867D01*
X165111289Y-99943806D01*
X165113227Y-99993702D01*
X165131999Y-100104123D01*
X165169017Y-100205587D01*
X165222169Y-100296752D01*
X165289346Y-100376273D01*
X165368438Y-100442805D01*
X165457334Y-100495006D01*
X165553925Y-100531530D01*
X165656100Y-100551034D01*
X165761750Y-100552173D01*
X165868764Y-100533605D01*
X165975032Y-100493984D01*
X166072019Y-100436116D01*
X166157093Y-100361284D01*
X166225815Y-100273215D01*
X166276718Y-100174216D01*
X166308335Y-100066593D01*
X166319200Y-99952654D01*
X166319200Y-99855867D01*
X167939553Y-99855867D01*
X168150697Y-99855880D01*
X168354820Y-99855930D01*
X168538486Y-99856030D01*
X168702791Y-99856192D01*
X168848829Y-99856429D01*
X168977694Y-99856753D01*
X169090483Y-99857175D01*
X169188288Y-99857709D01*
X169272204Y-99858367D01*
X169343327Y-99859161D01*
X169402750Y-99860104D01*
X169451568Y-99861208D01*
X169490877Y-99862484D01*
X169521769Y-99863947D01*
X169545341Y-99865607D01*
X169562686Y-99867478D01*
X169574899Y-99869572D01*
X169583075Y-99871900D01*
X169588308Y-99874476D01*
X169594304Y-99878045D01*
X169601079Y-99881578D01*
X169607278Y-99885088D01*
X169612926Y-99889518D01*
X169618047Y-99895808D01*
X169622669Y-99904901D01*
X169626815Y-99917739D01*
X169630513Y-99935262D01*
X169633787Y-99958413D01*
X169636663Y-99988134D01*
X169639167Y-100025365D01*
X169641324Y-100071049D01*
X169643160Y-100126127D01*
X169644700Y-100191541D01*
X169645970Y-100268233D01*
X169646995Y-100357144D01*
X169647801Y-100459217D01*
X169647834Y-100465467D01*
D13*
%TO.C,C2*%
X134722200Y-96310200D02*
X134722200Y-94850200D01*
X132384200Y-94850200D02*
X132384200Y-96310200D01*
D14*
X134453200Y-97280200D02*
G75*
G03*
X134453200Y-97280200I-100000J0D01*
G01*
D12*
%TO.C,C22*%
X139704400Y-99508364D02*
X139704400Y-99724036D01*
X138984400Y-99508364D02*
X138984400Y-99724036D01*
%TO.C,C27*%
X143057200Y-100133036D02*
X143057200Y-99917364D01*
X142337200Y-100133036D02*
X142337200Y-99917364D01*
%TO.C,D2*%
X134391400Y-89700100D02*
X132715000Y-89700100D01*
X132715000Y-87287100D02*
X134391400Y-87287100D01*
%TO.C,C7*%
X135324964Y-102687800D02*
X135540636Y-102687800D01*
X135324964Y-103407800D02*
X135540636Y-103407800D01*
%TO.C,D5*%
X149631400Y-89700100D02*
X147955000Y-89700100D01*
X147955000Y-87287100D02*
X149631400Y-87287100D01*
%TD*%
D17*
X170357800Y-94183200D02*
X170357800Y-119557800D01*
X152374600Y-137541000D01*
X126949200Y-137541000D01*
X108991400Y-119583200D01*
X108991400Y-94208600D01*
X126974600Y-76225400D01*
X152400000Y-76225400D01*
X170357800Y-94183200D01*
M02*
