%TF.GenerationSoftware,KiCad,Pcbnew,(7.0.0)*%
%TF.CreationDate,2023-03-06T19:44:04-05:00*%
%TF.ProjectId,cyton wired,6379746f-6e20-4776-9972-65642e6b6963,rev?*%
%TF.SameCoordinates,Original*%
%TF.FileFunction,Soldermask,Top*%
%TF.FilePolarity,Negative*%
%FSLAX46Y46*%
G04 Gerber Fmt 4.6, Leading zero omitted, Abs format (unit mm)*
G04 Created by KiCad (PCBNEW (7.0.0)) date 2023-03-06 19:44:04*
%MOMM*%
%LPD*%
G01*
G04 APERTURE LIST*
G04 Aperture macros list*
%AMRoundRect*
0 Rectangle with rounded corners*
0 $1 Rounding radius*
0 $2 $3 $4 $5 $6 $7 $8 $9 X,Y pos of 4 corners*
0 Add a 4 corners polygon primitive as box body*
4,1,4,$2,$3,$4,$5,$6,$7,$8,$9,$2,$3,0*
0 Add four circle primitives for the rounded corners*
1,1,$1+$1,$2,$3*
1,1,$1+$1,$4,$5*
1,1,$1+$1,$6,$7*
1,1,$1+$1,$8,$9*
0 Add four rect primitives between the rounded corners*
20,1,$1+$1,$2,$3,$4,$5,0*
20,1,$1+$1,$4,$5,$6,$7,0*
20,1,$1+$1,$6,$7,$8,$9,0*
20,1,$1+$1,$8,$9,$2,$3,0*%
%AMHorizOval*
0 Thick line with rounded ends*
0 $1 width*
0 $2 $3 position (X,Y) of the first rounded end (center of the circle)*
0 $4 $5 position (X,Y) of the second rounded end (center of the circle)*
0 Add line between two ends*
20,1,$1,$2,$3,$4,$5,0*
0 Add two circle primitives to create the rounded ends*
1,1,$1,$2,$3*
1,1,$1,$4,$5*%
%AMRotRect*
0 Rectangle, with rotation*
0 The origin of the aperture is its center*
0 $1 length*
0 $2 width*
0 $3 Rotation angle, in degrees counterclockwise*
0 Add horizontal line*
21,1,$1,$2,0,0,$3*%
G04 Aperture macros list end*
%ADD10RoundRect,0.140000X-0.170000X0.140000X-0.170000X-0.140000X0.170000X-0.140000X0.170000X0.140000X0*%
%ADD11RoundRect,0.147500X-0.172500X0.147500X-0.172500X-0.147500X0.172500X-0.147500X0.172500X0.147500X0*%
%ADD12RoundRect,0.225000X0.225000X0.250000X-0.225000X0.250000X-0.225000X-0.250000X0.225000X-0.250000X0*%
%ADD13R,0.650000X1.050000*%
%ADD14RoundRect,0.218750X-0.218750X-0.256250X0.218750X-0.256250X0.218750X0.256250X-0.218750X0.256250X0*%
%ADD15RoundRect,0.037100X-0.227900X0.447900X-0.227900X-0.447900X0.227900X-0.447900X0.227900X0.447900X0*%
%ADD16RoundRect,0.037100X0.227900X-0.447900X0.227900X0.447900X-0.227900X0.447900X-0.227900X-0.447900X0*%
%ADD17RoundRect,0.147500X0.172500X-0.147500X0.172500X0.147500X-0.172500X0.147500X-0.172500X-0.147500X0*%
%ADD18RoundRect,0.135000X-0.135000X-0.185000X0.135000X-0.185000X0.135000X0.185000X-0.135000X0.185000X0*%
%ADD19RoundRect,0.140000X0.170000X-0.140000X0.170000X0.140000X-0.170000X0.140000X-0.170000X-0.140000X0*%
%ADD20C,2.000000*%
%ADD21C,2.100000*%
%ADD22RoundRect,0.135000X-0.185000X0.135000X-0.185000X-0.135000X0.185000X-0.135000X0.185000X0.135000X0*%
%ADD23R,1.400000X1.800000*%
%ADD24RoundRect,0.135000X0.185000X-0.135000X0.185000X0.135000X-0.185000X0.135000X-0.185000X-0.135000X0*%
%ADD25RoundRect,0.140000X-0.140000X-0.170000X0.140000X-0.170000X0.140000X0.170000X-0.140000X0.170000X0*%
%ADD26RotRect,1.700000X1.700000X315.000000*%
%ADD27HorizOval,1.700000X0.000000X0.000000X0.000000X0.000000X0*%
%ADD28RoundRect,0.225000X0.250000X-0.225000X0.250000X0.225000X-0.250000X0.225000X-0.250000X-0.225000X0*%
%ADD29RoundRect,0.062500X0.062500X-0.350000X0.062500X0.350000X-0.062500X0.350000X-0.062500X-0.350000X0*%
%ADD30RoundRect,0.062500X0.350000X-0.062500X0.350000X0.062500X-0.350000X0.062500X-0.350000X-0.062500X0*%
%ADD31R,2.600000X2.600000*%
%ADD32R,1.700000X1.700000*%
%ADD33O,1.700000X1.700000*%
%ADD34R,0.400000X1.350000*%
%ADD35O,1.200000X1.900000*%
%ADD36R,1.200000X1.900000*%
%ADD37C,1.450000*%
%ADD38R,1.500000X1.900000*%
%ADD39RoundRect,0.135000X0.135000X0.185000X-0.135000X0.185000X-0.135000X-0.185000X0.135000X-0.185000X0*%
%ADD40RoundRect,0.075000X-0.075000X0.662500X-0.075000X-0.662500X0.075000X-0.662500X0.075000X0.662500X0*%
%ADD41RoundRect,0.075000X-0.662500X0.075000X-0.662500X-0.075000X0.662500X-0.075000X0.662500X0.075000X0*%
%ADD42R,1.750000X0.450000*%
%ADD43RotRect,1.700000X1.700000X45.000000*%
%ADD44HorizOval,1.700000X0.000000X0.000000X0.000000X0.000000X0*%
%ADD45RoundRect,0.250000X-0.325000X-0.650000X0.325000X-0.650000X0.325000X0.650000X-0.325000X0.650000X0*%
%ADD46RoundRect,0.140000X0.140000X0.170000X-0.140000X0.170000X-0.140000X-0.170000X0.140000X-0.170000X0*%
%TA.AperFunction,Profile*%
%ADD47C,0.101600*%
%TD*%
G04 APERTURE END LIST*
D10*
%TO.C,C17*%
X149047200Y-134442200D03*
X149047200Y-135402200D03*
%TD*%
D11*
%TO.C,D8*%
X147015200Y-134467600D03*
X147015200Y-135437600D03*
%TD*%
D10*
%TO.C,C18*%
X145999200Y-134467600D03*
X145999200Y-135427600D03*
%TD*%
D12*
%TO.C,C13*%
X129603800Y-101625400D03*
X128053800Y-101625400D03*
%TD*%
D13*
%TO.C,SW1*%
X153466799Y-110921799D03*
X153466799Y-106771799D03*
X155616799Y-110921799D03*
X155616799Y-106771799D03*
%TD*%
D14*
%TO.C,D11*%
X149250200Y-122859800D03*
X150825200Y-122859800D03*
%TD*%
D15*
%TO.C,R2*%
X134683200Y-89916000D03*
X133883200Y-89916000D03*
X133083200Y-89916000D03*
X132283200Y-89916000D03*
D16*
X132283200Y-91666000D03*
X133083200Y-91666000D03*
X133883200Y-91666000D03*
X134683200Y-91666000D03*
%TD*%
D17*
%TO.C,D7*%
X149047200Y-133504800D03*
X149047200Y-132534800D03*
%TD*%
D18*
%TO.C,R14*%
X126665800Y-130429000D03*
X127685800Y-130429000D03*
%TD*%
D19*
%TO.C,C14*%
X131343400Y-101648200D03*
X131343400Y-100688200D03*
%TD*%
D10*
%TO.C,C15*%
X147143900Y-97528000D03*
X147143900Y-98488000D03*
%TD*%
D20*
%TO.C,REF\u002A\u002A*%
X163779200Y-91973400D03*
%TD*%
D21*
%TO.C,*%
X112877600Y-118719600D03*
%TD*%
D22*
%TO.C,R6*%
X146102500Y-97496000D03*
X146102500Y-98516000D03*
%TD*%
D23*
%TO.C,Y1*%
X146030799Y-123586599D03*
X146030799Y-119186599D03*
X143630799Y-119186599D03*
X143630799Y-123586599D03*
%TD*%
D24*
%TO.C,R8*%
X148031200Y-133506400D03*
X148031200Y-132486400D03*
%TD*%
D15*
%TO.C,R1*%
X129603200Y-89916000D03*
X128803200Y-89916000D03*
X128003200Y-89916000D03*
X127203200Y-89916000D03*
D16*
X127203200Y-91666000D03*
X128003200Y-91666000D03*
X128803200Y-91666000D03*
X129603200Y-91666000D03*
%TD*%
D25*
%TO.C,C11*%
X130281800Y-106146600D03*
X131241800Y-106146600D03*
%TD*%
D15*
%TO.C,R5*%
X149923200Y-89941400D03*
X149123200Y-89941400D03*
X148323200Y-89941400D03*
X147523200Y-89941400D03*
D16*
X147523200Y-91691400D03*
X148323200Y-91691400D03*
X149123200Y-91691400D03*
X149923200Y-91691400D03*
%TD*%
D26*
%TO.C,J3*%
X160248599Y-125323599D03*
D27*
X158452548Y-127119650D03*
X156656497Y-128915701D03*
X154860445Y-130711753D03*
%TD*%
D20*
%TO.C,REF\u002A\u002A*%
X128676400Y-133451600D03*
%TD*%
D25*
%TO.C,C19*%
X142392400Y-110388400D03*
X143352400Y-110388400D03*
%TD*%
D28*
%TO.C,C41*%
X127736600Y-120942400D03*
X127736600Y-119392400D03*
%TD*%
D29*
%TO.C,U2*%
X146232800Y-130776700D03*
X146732800Y-130776700D03*
X147232800Y-130776700D03*
X147732800Y-130776700D03*
X148232800Y-130776700D03*
X148732800Y-130776700D03*
D30*
X149420300Y-130089200D03*
X149420300Y-129589200D03*
X149420300Y-129089200D03*
X149420300Y-128589200D03*
X149420300Y-128089200D03*
X149420300Y-127589200D03*
D29*
X148732800Y-126901700D03*
X148232800Y-126901700D03*
X147732800Y-126901700D03*
X147232800Y-126901700D03*
X146732800Y-126901700D03*
X146232800Y-126901700D03*
D30*
X145545300Y-127589200D03*
X145545300Y-128089200D03*
X145545300Y-128589200D03*
X145545300Y-129089200D03*
X145545300Y-129589200D03*
X145545300Y-130089200D03*
D31*
X147482799Y-128839199D03*
%TD*%
D32*
%TO.C,J1*%
X124663199Y-84988399D03*
D33*
X124663199Y-82448399D03*
X127203199Y-84988399D03*
X127203199Y-82448399D03*
X129743199Y-84988399D03*
X129743199Y-82448399D03*
X132283199Y-84988399D03*
X132283199Y-82448399D03*
X134823199Y-84988399D03*
X134823199Y-82448399D03*
X137363199Y-84988399D03*
X137363199Y-82448399D03*
X139903199Y-84988399D03*
X139903199Y-82448399D03*
X142443199Y-84988399D03*
X142443199Y-82448399D03*
X144983199Y-84988399D03*
X144983199Y-82448399D03*
X147523199Y-84988399D03*
X147523199Y-82448399D03*
X150063199Y-84988399D03*
X150063199Y-82448399D03*
X152603199Y-84988399D03*
X152603199Y-82448399D03*
X155143199Y-84988399D03*
X155143199Y-82448399D03*
%TD*%
D21*
%TO.C,REF\u002A\u002A*%
X166039800Y-108737400D03*
%TD*%
D32*
%TO.C,J5*%
X162432999Y-114960399D03*
D33*
X162432999Y-117500399D03*
X162432999Y-120040399D03*
X162432999Y-122580399D03*
%TD*%
D34*
%TO.C,CONN1*%
X138399999Y-133380299D03*
X139049999Y-133380299D03*
X139699999Y-133380299D03*
X140349999Y-133380299D03*
X140999999Y-133380299D03*
D35*
X136199999Y-136080299D03*
D36*
X136799999Y-136080299D03*
D37*
X137200000Y-133380300D03*
D38*
X138699999Y-136080299D03*
X140699999Y-136080299D03*
D37*
X142200000Y-133380300D03*
D36*
X142599999Y-136080299D03*
D35*
X143199999Y-136080299D03*
%TD*%
D39*
%TO.C,R15*%
X155602400Y-105283000D03*
X154582400Y-105283000D03*
%TD*%
D10*
%TO.C,C10*%
X146075400Y-101650800D03*
X146075400Y-102610800D03*
%TD*%
D25*
%TO.C,C39*%
X144551400Y-125196600D03*
X145511400Y-125196600D03*
%TD*%
D22*
%TO.C,R12*%
X149250400Y-124434600D03*
X149250400Y-125454600D03*
%TD*%
D40*
%TO.C,U1*%
X142384900Y-96206300D03*
X141884900Y-96206300D03*
X141384900Y-96206300D03*
X140884900Y-96206300D03*
X140384900Y-96206300D03*
X139884900Y-96206300D03*
X139384900Y-96206300D03*
X138884900Y-96206300D03*
X138384900Y-96206300D03*
X137884900Y-96206300D03*
X137384900Y-96206300D03*
X136884900Y-96206300D03*
X136384900Y-96206300D03*
X135884900Y-96206300D03*
X135384900Y-96206300D03*
X134884900Y-96206300D03*
D41*
X132972400Y-98118800D03*
X132972400Y-98618800D03*
X132972400Y-99118800D03*
X132972400Y-99618800D03*
X132972400Y-100118800D03*
X132972400Y-100618800D03*
X132972400Y-101118800D03*
X132972400Y-101618800D03*
X132972400Y-102118800D03*
X132972400Y-102618800D03*
X132972400Y-103118800D03*
X132972400Y-103618800D03*
X132972400Y-104118800D03*
X132972400Y-104618800D03*
X132972400Y-105118800D03*
X132972400Y-105618800D03*
D40*
X134884900Y-107531300D03*
X135384900Y-107531300D03*
X135884900Y-107531300D03*
X136384900Y-107531300D03*
X136884900Y-107531300D03*
X137384900Y-107531300D03*
X137884900Y-107531300D03*
X138384900Y-107531300D03*
X138884900Y-107531300D03*
X139384900Y-107531300D03*
X139884900Y-107531300D03*
X140384900Y-107531300D03*
X140884900Y-107531300D03*
X141384900Y-107531300D03*
X141884900Y-107531300D03*
X142384900Y-107531300D03*
D41*
X144297400Y-105618800D03*
X144297400Y-105118800D03*
X144297400Y-104618800D03*
X144297400Y-104118800D03*
X144297400Y-103618800D03*
X144297400Y-103118800D03*
X144297400Y-102618800D03*
X144297400Y-102118800D03*
X144297400Y-101618800D03*
X144297400Y-101118800D03*
X144297400Y-100618800D03*
X144297400Y-100118800D03*
X144297400Y-99618800D03*
X144297400Y-99118800D03*
X144297400Y-98618800D03*
X144297400Y-98118800D03*
%TD*%
D14*
%TO.C,D10*%
X149250200Y-121259600D03*
X150825200Y-121259600D03*
%TD*%
D24*
%TO.C,R7*%
X147015200Y-133506400D03*
X147015200Y-132486400D03*
%TD*%
D42*
%TO.C,U7*%
X137610399Y-126424399D03*
X137610399Y-125774399D03*
X137610399Y-125124399D03*
X137610399Y-124474399D03*
X137610399Y-123824399D03*
X137610399Y-123174399D03*
X137610399Y-122524399D03*
X137610399Y-121874399D03*
X137610399Y-121224399D03*
X137610399Y-120574399D03*
X137610399Y-119924399D03*
X137610399Y-119274399D03*
X137610399Y-118624399D03*
X137610399Y-117974399D03*
X130410399Y-117974399D03*
X130410399Y-118624399D03*
X130410399Y-119274399D03*
X130410399Y-119924399D03*
X130410399Y-120574399D03*
X130410399Y-121224399D03*
X130410399Y-121874399D03*
X130410399Y-122524399D03*
X130410399Y-123174399D03*
X130410399Y-123824399D03*
X130410399Y-124474399D03*
X130410399Y-125124399D03*
X130410399Y-125774399D03*
X130410399Y-126424399D03*
%TD*%
D39*
%TO.C,R10*%
X143774400Y-127772400D03*
X142754400Y-127772400D03*
%TD*%
D10*
%TO.C,C8*%
X147142200Y-101650800D03*
X147142200Y-102610800D03*
%TD*%
D32*
%TO.C,J4*%
X149910799Y-101142799D03*
D33*
X149910799Y-98602799D03*
%TD*%
D22*
%TO.C,R11*%
X148234400Y-124434600D03*
X148234400Y-125454600D03*
%TD*%
D15*
%TO.C,R4*%
X144830600Y-89916000D03*
X144030600Y-89916000D03*
X143230600Y-89916000D03*
X142430600Y-89916000D03*
D16*
X142430600Y-91666000D03*
X143230600Y-91666000D03*
X144030600Y-91666000D03*
X144830600Y-91666000D03*
%TD*%
D18*
%TO.C,R16*%
X152450800Y-118643400D03*
X153470800Y-118643400D03*
%TD*%
D25*
%TO.C,C6*%
X130485000Y-102844600D03*
X131445000Y-102844600D03*
%TD*%
D15*
%TO.C,R3*%
X139763200Y-89916000D03*
X138963200Y-89916000D03*
X138163200Y-89916000D03*
X137363200Y-89916000D03*
D16*
X137363200Y-91666000D03*
X138163200Y-91666000D03*
X138963200Y-91666000D03*
X139763200Y-91666000D03*
%TD*%
D25*
%TO.C,C21*%
X142392400Y-109347000D03*
X143352400Y-109347000D03*
%TD*%
D21*
%TO.C,*%
X112852200Y-95605600D03*
%TD*%
D13*
%TO.C,SW2*%
X155616799Y-113121799D03*
X155616799Y-117271799D03*
X153466799Y-113121799D03*
X153466799Y-117271799D03*
%TD*%
D43*
%TO.C,J2*%
X116499999Y-100649999D03*
D44*
X118296050Y-102446050D03*
X120092101Y-104242101D03*
X121888153Y-106038153D03*
X123684204Y-107834204D03*
X125480255Y-109630255D03*
X127276306Y-111426306D03*
X129072358Y-113222358D03*
%TD*%
D39*
%TO.C,R9*%
X143799800Y-128864600D03*
X142779800Y-128864600D03*
%TD*%
D14*
%TO.C,D13*%
X129031800Y-130429000D03*
X130606800Y-130429000D03*
%TD*%
D45*
%TO.C,C12*%
X127861800Y-104470200D03*
X130811800Y-104470200D03*
%TD*%
D20*
%TO.C,REF\u002A\u002A*%
X115392200Y-91973400D03*
%TD*%
D46*
%TO.C,C40*%
X144955200Y-117576600D03*
X143995200Y-117576600D03*
%TD*%
D47*
X170357800Y-94183200D02*
X170357800Y-119557800D01*
X152374600Y-137541000D01*
X126949200Y-137541000D01*
X108991400Y-119583200D01*
X108991400Y-94208600D01*
X126974600Y-76225400D01*
X152400000Y-76225400D01*
X170357800Y-94183200D01*
M02*
