M48
; DRILL file {KiCad (7.0.0)} date Mon 06 Mar 2023 07:44:11 PM EST
; FORMAT={-:-/ absolute / inch / decimal}
; #@! TF.CreationDate,2023-03-06T19:44:11-05:00
; #@! TF.GenerationSoftware,Kicad,Pcbnew,(7.0.0)
; #@! TF.FileFunction,Plated,1,4,PTH
FMAT,2
INCH
; #@! TA.AperFunction,Plated,PTH,ViaDrill
T1C0.0157
; #@! TA.AperFunction,Plated,PTH,ComponentDrill
T2C0.0236
; #@! TA.AperFunction,Plated,PTH,ComponentDrill
T3C0.0335
; #@! TA.AperFunction,Plated,PTH,ComponentDrill
T4C0.0394
%
G90
G05
T1
X5.0001Y-3.668
X5.0395Y-3.668
X5.06Y-4.865
X5.0625Y-4.9875
X5.0815Y-3.6655
X5.1215Y-3.6666
X5.182Y-4.5034
X5.2007Y-3.6609
X5.2032Y-4.6447
X5.208Y-4.911
X5.215Y-5.135
X5.216Y-4.533
X5.24Y-3.662
X5.2793Y-3.6552
X5.305Y-3.903
X5.313Y-4.008
X5.313Y-4.153
X5.314Y-4.364
X5.3258Y-3.6455
X5.334Y-4.846
X5.335Y-4.315
X5.346Y-4.9517
X5.348Y-4.901
X5.358Y-4.67
X5.397Y-3.656
X5.416Y-4.358
X5.4363Y-3.6581
X5.449Y-5.174
X5.471Y-5.065
X5.4756Y-3.658
X5.488Y-4.9773
X5.5133Y-4.9021
X5.515Y-3.658
X5.5194Y-4.6958
X5.5393Y-4.8471
X5.541Y-5.191
X5.559Y-3.903
X5.563Y-4.355
X5.564Y-4.814
X5.5684Y-4.1412
X5.5847Y-3.658
X5.606Y-4.401
X5.618Y-3.878
X5.618Y-4.002
X5.624Y-3.66
X5.6705Y-3.662
X5.718Y-3.664
X5.741Y-4.084
X5.797Y-3.658
X5.837Y-3.66
X5.899Y-5.178
X5.9025Y-3.6625
X5.937Y-5.14
X5.9868Y-4.6241
X6.084Y-4.284
X6.101Y-4.671
X6.2358Y-4.4111
T3
X5.4016Y-5.2512
X5.5984Y-5.2512
T4
X4.5866Y-3.9626
X4.6573Y-4.0333
X4.728Y-4.104
X4.7987Y-4.1747
X4.8695Y-4.2454
X4.908Y-3.246
X4.908Y-3.346
X4.9402Y-4.3162
X5.008Y-3.246
X5.008Y-3.346
X5.0109Y-4.3869
X5.0816Y-4.4576
X5.108Y-3.246
X5.108Y-3.346
X5.208Y-3.246
X5.208Y-3.346
X5.308Y-3.246
X5.308Y-3.346
X5.408Y-3.246
X5.408Y-3.346
X5.508Y-3.246
X5.508Y-3.346
X5.608Y-3.246
X5.608Y-3.346
X5.708Y-3.246
X5.708Y-3.346
X5.808Y-3.246
X5.808Y-3.346
X5.902Y-3.882
X5.902Y-3.982
X5.908Y-3.246
X5.908Y-3.346
X6.008Y-3.246
X6.008Y-3.346
X6.0969Y-5.1461
X6.108Y-3.246
X6.108Y-3.346
X6.1676Y-5.0754
X6.2383Y-5.0047
X6.309Y-4.934
X6.395Y-4.526
X6.395Y-4.626
X6.395Y-4.726
X6.395Y-4.826
T2
G00X5.3622Y-5.3713
M15
G01X5.3622Y-5.3437
M16
G05
G00X5.6378Y-5.3437
M15
G01X5.6378Y-5.3713
M16
G05
T0
M30
