%TF.GenerationSoftware,KiCad,Pcbnew,(7.0.0)*%
%TF.CreationDate,2023-03-06T19:44:03-05:00*%
%TF.ProjectId,cyton wired,6379746f-6e20-4776-9972-65642e6b6963,rev?*%
%TF.SameCoordinates,Original*%
%TF.FileFunction,Copper,L3,Inr*%
%TF.FilePolarity,Positive*%
%FSLAX46Y46*%
G04 Gerber Fmt 4.6, Leading zero omitted, Abs format (unit mm)*
G04 Created by KiCad (PCBNEW (7.0.0)) date 2023-03-06 19:44:03*
%MOMM*%
%LPD*%
G01*
G04 APERTURE LIST*
G04 Aperture macros list*
%AMHorizOval*
0 Thick line with rounded ends*
0 $1 width*
0 $2 $3 position (X,Y) of the first rounded end (center of the circle)*
0 $4 $5 position (X,Y) of the second rounded end (center of the circle)*
0 Add line between two ends*
20,1,$1,$2,$3,$4,$5,0*
0 Add two circle primitives to create the rounded ends*
1,1,$1,$2,$3*
1,1,$1,$4,$5*%
%AMRotRect*
0 Rectangle, with rotation*
0 The origin of the aperture is its center*
0 $1 length*
0 $2 width*
0 $3 Rotation angle, in degrees counterclockwise*
0 Add horizontal line*
21,1,$1,$2,0,0,$3*%
G04 Aperture macros list end*
%TA.AperFunction,ComponentPad*%
%ADD10RotRect,1.700000X1.700000X315.000000*%
%TD*%
%TA.AperFunction,ComponentPad*%
%ADD11HorizOval,1.700000X0.000000X0.000000X0.000000X0.000000X0*%
%TD*%
%TA.AperFunction,ComponentPad*%
%ADD12R,1.700000X1.700000*%
%TD*%
%TA.AperFunction,ComponentPad*%
%ADD13O,1.700000X1.700000*%
%TD*%
%TA.AperFunction,ComponentPad*%
%ADD14O,1.200000X1.900000*%
%TD*%
%TA.AperFunction,ComponentPad*%
%ADD15C,1.450000*%
%TD*%
%TA.AperFunction,ComponentPad*%
%ADD16RotRect,1.700000X1.700000X45.000000*%
%TD*%
%TA.AperFunction,ComponentPad*%
%ADD17HorizOval,1.700000X0.000000X0.000000X0.000000X0.000000X0*%
%TD*%
%TA.AperFunction,ViaPad*%
%ADD18C,0.800000*%
%TD*%
%TA.AperFunction,Conductor*%
%ADD19C,0.250000*%
%TD*%
%TA.AperFunction,Profile*%
%ADD20C,0.101600*%
%TD*%
G04 APERTURE END LIST*
D10*
%TO.N,/D13*%
%TO.C,J3*%
X160248599Y-125323599D03*
D11*
%TO.N,/PGC*%
X158452548Y-127119650D03*
%TO.N,VDD*%
X156656497Y-128915701D03*
%TO.N,GNDA*%
X154860445Y-130711753D03*
%TD*%
D12*
%TO.N,VSSA*%
%TO.C,J1*%
X124663199Y-84988399D03*
D13*
X124663199Y-82448399D03*
%TO.N,/SRB1*%
X127203199Y-84988399D03*
%TO.N,/SRB2*%
X127203199Y-82448399D03*
%TO.N,/1P*%
X129743199Y-84988399D03*
%TO.N,/1N*%
X129743199Y-82448399D03*
%TO.N,/2P*%
X132283199Y-84988399D03*
%TO.N,/2N*%
X132283199Y-82448399D03*
%TO.N,/3P*%
X134823199Y-84988399D03*
%TO.N,/3N*%
X134823199Y-82448399D03*
%TO.N,/4P*%
X137363199Y-84988399D03*
%TO.N,/4N*%
X137363199Y-82448399D03*
%TO.N,/5P*%
X139903199Y-84988399D03*
%TO.N,/5N*%
X139903199Y-82448399D03*
%TO.N,/6P*%
X142443199Y-84988399D03*
%TO.N,/6N*%
X142443199Y-82448399D03*
%TO.N,/7P*%
X144983199Y-84988399D03*
%TO.N,/7N*%
X144983199Y-82448399D03*
%TO.N,/8P*%
X147523199Y-84988399D03*
%TO.N,/8N*%
X147523199Y-82448399D03*
%TO.N,/BIAS*%
X150063199Y-84988399D03*
X150063199Y-82448399D03*
%TO.N,GNDA*%
X152603199Y-84988399D03*
X152603199Y-82448399D03*
%TO.N,VDDA*%
X155143199Y-84988399D03*
X155143199Y-82448399D03*
%TD*%
D12*
%TO.N,/BOOT_EN*%
%TO.C,J5*%
X162432999Y-114960399D03*
D13*
%TO.N,/MCLR*%
X162432999Y-117500399D03*
%TO.N,/D18*%
X162432999Y-120040399D03*
%TO.N,/PGD*%
X162432999Y-122580399D03*
%TD*%
D14*
%TO.N,unconnected-(CONN1-Shield-Pad6)*%
%TO.C,CONN1*%
X136199999Y-136080299D03*
D15*
X137200000Y-133380300D03*
X142200000Y-133380300D03*
D14*
X143199999Y-136080299D03*
%TD*%
D12*
%TO.N,GNDA*%
%TO.C,J4*%
X149910799Y-101142799D03*
D13*
%TO.N,/BIAS_INV*%
X149910799Y-98602799D03*
%TD*%
D16*
%TO.N,VDD*%
%TO.C,J2*%
X116499999Y-100649999D03*
D17*
%TO.N,GNDA*%
X118296050Y-102446050D03*
%TO.N,/MISO*%
X120092101Y-104242101D03*
%TO.N,/SCLK*%
X121888153Y-106038153D03*
%TO.N,/RESET*%
X123684204Y-107834204D03*
%TO.N,/CLK*%
X125480255Y-109630255D03*
%TO.N,/MOSI*%
X127276306Y-111426306D03*
%TO.N,/CS2*%
X129072358Y-113222358D03*
%TD*%
D18*
%TO.N,/Daisy Functionality/_SRB1*%
X127003697Y-93167200D03*
%TO.N,/Daisy Functionality/_SRB2*%
X128003200Y-93167200D03*
%TO.N,/Daisy Functionality/IN1P*%
X129070100Y-93103700D03*
%TO.N,/Daisy Functionality/IN1N*%
X130086327Y-93130684D03*
%TO.N,/Daisy Functionality/IN2P*%
X132096905Y-92986254D03*
%TO.N,/Daisy Functionality/IN2N*%
X133096000Y-93014800D03*
%TO.N,/Daisy Functionality/IN3P*%
X134094731Y-92842500D03*
%TO.N,/Daisy Functionality/IN3N*%
X135275931Y-92594901D03*
%TO.N,/Daisy Functionality/IN4P*%
X137083800Y-92862400D03*
%TO.N,/Daisy Functionality/IN4N*%
X138081846Y-92916348D03*
%TO.N,/Daisy Functionality/IN5P*%
X139081343Y-92913148D03*
%TO.N,/Daisy Functionality/IN5N*%
X140080845Y-92913206D03*
%TO.N,/Daisy Functionality/IN6P*%
X141851353Y-92913928D03*
%TO.N,/Daisy Functionality/IN6N*%
X142849600Y-92964000D03*
%TO.N,/Daisy Functionality/IN7P*%
X144030600Y-93015374D03*
%TO.N,/Daisy Functionality/IN7N*%
X145237200Y-93065600D03*
%TO.N,/Daisy Functionality/IN8P*%
X147243800Y-92913200D03*
%TO.N,/Daisy Functionality/IN8N*%
X148259800Y-92964000D03*
%TO.N,/Daisy Functionality/BIAS_DRV*%
X149923200Y-93027800D03*
%TO.N,VSSA*%
X134950200Y-101803200D03*
X134950200Y-105486200D03*
X141437400Y-105186900D03*
X142697200Y-101650800D03*
%TO.N,Net-(CONN1-VBUS)*%
X138404600Y-131419600D03*
%TO.N,Net-(CONN1-GND)*%
X140741400Y-131851400D03*
%TO.N,VDD*%
X154533600Y-108813600D03*
X128587500Y-126682500D03*
X136093200Y-118618000D03*
X158389700Y-112041500D03*
X135509000Y-109601000D03*
X128524000Y-123571000D03*
X142392400Y-111785400D03*
X149834600Y-131521200D03*
X152065100Y-117451700D03*
X132161451Y-117976279D03*
%TO.N,VDDA*%
X141198600Y-99136200D03*
X134747000Y-99136200D03*
X145821400Y-103733600D03*
%TO.N,Net-(U1-WCT)*%
X142697200Y-98501200D03*
%TO.N,VCOM*%
X150799800Y-130556000D03*
%TO.N,/SCLK*%
X131622800Y-114385100D03*
%TO.N,/RESET*%
X134975600Y-110845600D03*
%TO.N,/MOSI*%
X135839200Y-124485400D03*
%TO.N,/TXD*%
X138963400Y-128651000D03*
X135483600Y-123088400D03*
%TO.N,/MISO*%
X132486400Y-115138200D03*
%TO.N,/CS1*%
X132283200Y-124739400D03*
X137566400Y-110693200D03*
%TO.N,/PGD*%
X132461000Y-130429000D03*
X140038005Y-124512171D03*
%TO.N,/D13*%
X141325600Y-122275600D03*
%TO.N,/PGC*%
X140699082Y-123117261D03*
%TO.N,/MCLR*%
X154965400Y-118643400D03*
X139395200Y-126424400D03*
%TO.N,/D18*%
X140192758Y-119274400D03*
%TO.N,/DRDY*%
X135788400Y-125774400D03*
X141300200Y-110617000D03*
%TD*%
D19*
%TO.N,/MOSI*%
X135839200Y-124485400D02*
X133731000Y-124485400D01*
X127276307Y-118030707D02*
X127276307Y-111426307D01*
X133731000Y-124485400D02*
X127276307Y-118030707D01*
%TO.N,/TXD*%
X136448800Y-123088400D02*
X135483600Y-123088400D01*
X137566400Y-127254000D02*
X137566400Y-124206000D01*
X138963400Y-128651000D02*
X137566400Y-127254000D01*
X137566400Y-124206000D02*
X136448800Y-123088400D01*
%TO.N,/MCLR*%
X147218400Y-126390400D02*
X154965400Y-118643400D01*
X139429200Y-126390400D02*
X147218400Y-126390400D01*
X139395200Y-126424400D02*
X139429200Y-126390400D01*
%TD*%
%TA.AperFunction,Conductor*%
%TO.N,GNDA*%
G36*
X152395820Y-76235491D02*
G01*
X152436697Y-76262805D01*
X162114950Y-85941058D01*
X162147562Y-85997542D01*
X162147562Y-86062764D01*
X162114950Y-86119248D01*
X151722975Y-96511224D01*
X151722972Y-96511227D01*
X151714200Y-96520000D01*
X151714200Y-105181400D01*
X152196800Y-104698800D01*
X152171564Y-96674017D01*
X152181079Y-96625591D01*
X152208465Y-96584534D01*
X162394353Y-86398646D01*
X162450835Y-86366036D01*
X162516057Y-86366036D01*
X162572541Y-86398648D01*
X170320395Y-94146502D01*
X170347709Y-94187379D01*
X170357300Y-94235597D01*
X170357300Y-119480762D01*
X170347726Y-119528939D01*
X170320458Y-119569794D01*
X167118956Y-122775819D01*
X152875844Y-137039047D01*
X152875782Y-137039109D01*
X152411297Y-137503595D01*
X152370419Y-137530909D01*
X152322201Y-137540500D01*
X127001597Y-137540500D01*
X126953379Y-137530909D01*
X126912502Y-137503595D01*
X125882918Y-136474011D01*
X135421700Y-136474011D01*
X135422094Y-136477511D01*
X135422095Y-136477522D01*
X135435620Y-136597555D01*
X135436412Y-136604584D01*
X135438747Y-136611257D01*
X135438748Y-136611261D01*
X135492001Y-136763449D01*
X135492003Y-136763453D01*
X135494339Y-136770129D01*
X135587650Y-136918633D01*
X135711667Y-137042650D01*
X135860171Y-137135961D01*
X136025716Y-137193888D01*
X136200000Y-137213525D01*
X136374284Y-137193888D01*
X136539829Y-137135961D01*
X136688333Y-137042650D01*
X136812350Y-136918633D01*
X136905661Y-136770129D01*
X136963588Y-136604584D01*
X136978300Y-136474011D01*
X142421700Y-136474011D01*
X142422094Y-136477511D01*
X142422095Y-136477522D01*
X142435620Y-136597555D01*
X142436412Y-136604584D01*
X142438747Y-136611257D01*
X142438748Y-136611261D01*
X142492001Y-136763449D01*
X142492003Y-136763453D01*
X142494339Y-136770129D01*
X142587650Y-136918633D01*
X142711667Y-137042650D01*
X142860171Y-137135961D01*
X143025716Y-137193888D01*
X143200000Y-137213525D01*
X143374284Y-137193888D01*
X143539829Y-137135961D01*
X143688333Y-137042650D01*
X143812350Y-136918633D01*
X143905661Y-136770129D01*
X143963588Y-136604584D01*
X143978300Y-136474011D01*
X143978300Y-135686589D01*
X143963588Y-135556016D01*
X143905661Y-135390471D01*
X143812350Y-135241967D01*
X143688333Y-135117950D01*
X143682339Y-135114184D01*
X143682337Y-135114182D01*
X143545820Y-135028403D01*
X143545817Y-135028401D01*
X143539829Y-135024639D01*
X143533153Y-135022303D01*
X143533149Y-135022301D01*
X143380961Y-134969048D01*
X143380957Y-134969047D01*
X143374284Y-134966712D01*
X143200000Y-134947075D01*
X143192971Y-134947867D01*
X143032744Y-134965920D01*
X143032742Y-134965920D01*
X143025716Y-134966712D01*
X143019044Y-134969046D01*
X143019038Y-134969048D01*
X142866850Y-135022301D01*
X142866843Y-135022304D01*
X142860171Y-135024639D01*
X142854185Y-135028399D01*
X142854179Y-135028403D01*
X142717662Y-135114182D01*
X142717655Y-135114187D01*
X142711667Y-135117950D01*
X142706662Y-135122954D01*
X142706658Y-135122958D01*
X142592658Y-135236958D01*
X142592654Y-135236962D01*
X142587650Y-135241967D01*
X142583887Y-135247955D01*
X142583882Y-135247962D01*
X142498103Y-135384479D01*
X142498099Y-135384485D01*
X142494339Y-135390471D01*
X142492004Y-135397143D01*
X142492001Y-135397150D01*
X142438748Y-135549338D01*
X142438746Y-135549344D01*
X142436412Y-135556016D01*
X142435620Y-135563042D01*
X142435620Y-135563044D01*
X142422095Y-135683077D01*
X142422094Y-135683089D01*
X142421700Y-135686589D01*
X142421700Y-136474011D01*
X136978300Y-136474011D01*
X136978300Y-135686589D01*
X136963588Y-135556016D01*
X136905661Y-135390471D01*
X136812350Y-135241967D01*
X136688333Y-135117950D01*
X136682339Y-135114184D01*
X136682337Y-135114182D01*
X136545820Y-135028403D01*
X136545817Y-135028401D01*
X136539829Y-135024639D01*
X136533153Y-135022303D01*
X136533149Y-135022301D01*
X136380961Y-134969048D01*
X136380957Y-134969047D01*
X136374284Y-134966712D01*
X136200000Y-134947075D01*
X136192971Y-134947867D01*
X136032744Y-134965920D01*
X136032742Y-134965920D01*
X136025716Y-134966712D01*
X136019044Y-134969046D01*
X136019038Y-134969048D01*
X135866850Y-135022301D01*
X135866843Y-135022304D01*
X135860171Y-135024639D01*
X135854185Y-135028399D01*
X135854179Y-135028403D01*
X135717662Y-135114182D01*
X135717655Y-135114187D01*
X135711667Y-135117950D01*
X135706662Y-135122954D01*
X135706658Y-135122958D01*
X135592658Y-135236958D01*
X135592654Y-135236962D01*
X135587650Y-135241967D01*
X135583887Y-135247955D01*
X135583882Y-135247962D01*
X135498103Y-135384479D01*
X135498099Y-135384485D01*
X135494339Y-135390471D01*
X135492004Y-135397143D01*
X135492001Y-135397150D01*
X135438748Y-135549338D01*
X135438746Y-135549344D01*
X135436412Y-135556016D01*
X135435620Y-135563042D01*
X135435620Y-135563044D01*
X135422095Y-135683077D01*
X135422094Y-135683089D01*
X135421700Y-135686589D01*
X135421700Y-136474011D01*
X125882918Y-136474011D01*
X122789208Y-133380300D01*
X136291724Y-133380300D01*
X136311572Y-133569141D01*
X136313611Y-133575418D01*
X136313612Y-133575420D01*
X136368206Y-133743444D01*
X136368209Y-133743451D01*
X136370249Y-133749729D01*
X136465189Y-133914171D01*
X136592245Y-134055281D01*
X136745862Y-134166890D01*
X136919327Y-134244122D01*
X137105059Y-134283600D01*
X137288338Y-134283600D01*
X137294941Y-134283600D01*
X137480673Y-134244122D01*
X137654138Y-134166890D01*
X137807755Y-134055281D01*
X137934811Y-133914171D01*
X138029751Y-133749729D01*
X138088428Y-133569141D01*
X138108276Y-133380300D01*
X141291724Y-133380300D01*
X141311572Y-133569141D01*
X141313611Y-133575418D01*
X141313612Y-133575420D01*
X141368206Y-133743444D01*
X141368209Y-133743451D01*
X141370249Y-133749729D01*
X141465189Y-133914171D01*
X141592245Y-134055281D01*
X141745862Y-134166890D01*
X141919327Y-134244122D01*
X142105059Y-134283600D01*
X142288338Y-134283600D01*
X142294941Y-134283600D01*
X142480673Y-134244122D01*
X142654138Y-134166890D01*
X142807755Y-134055281D01*
X142934811Y-133914171D01*
X143029751Y-133749729D01*
X143088428Y-133569141D01*
X143108276Y-133380300D01*
X143088428Y-133191459D01*
X143029751Y-133010871D01*
X142934811Y-132846429D01*
X142807755Y-132705319D01*
X142654138Y-132593710D01*
X142480673Y-132516478D01*
X142474220Y-132515106D01*
X142474216Y-132515105D01*
X142301398Y-132478372D01*
X142301393Y-132478371D01*
X142294941Y-132477000D01*
X142105059Y-132477000D01*
X142098607Y-132478371D01*
X142098601Y-132478372D01*
X141925783Y-132515105D01*
X141925776Y-132515107D01*
X141919327Y-132516478D01*
X141913297Y-132519162D01*
X141913296Y-132519163D01*
X141751892Y-132591025D01*
X141751890Y-132591026D01*
X141745862Y-132593710D01*
X141740521Y-132597590D01*
X141740520Y-132597591D01*
X141597589Y-132701436D01*
X141597586Y-132701437D01*
X141592245Y-132705319D01*
X141587828Y-132710224D01*
X141587823Y-132710229D01*
X141469608Y-132841521D01*
X141465189Y-132846429D01*
X141461890Y-132852142D01*
X141461887Y-132852147D01*
X141373553Y-133005147D01*
X141373550Y-133005152D01*
X141370249Y-133010871D01*
X141368210Y-133017145D01*
X141368206Y-133017155D01*
X141313612Y-133185179D01*
X141313611Y-133185183D01*
X141311572Y-133191459D01*
X141291724Y-133380300D01*
X138108276Y-133380300D01*
X138088428Y-133191459D01*
X138029751Y-133010871D01*
X137934811Y-132846429D01*
X137807755Y-132705319D01*
X137654138Y-132593710D01*
X137480673Y-132516478D01*
X137474220Y-132515106D01*
X137474216Y-132515105D01*
X137301398Y-132478372D01*
X137301393Y-132478371D01*
X137294941Y-132477000D01*
X137105059Y-132477000D01*
X137098607Y-132478371D01*
X137098601Y-132478372D01*
X136925783Y-132515105D01*
X136925776Y-132515107D01*
X136919327Y-132516478D01*
X136913297Y-132519162D01*
X136913296Y-132519163D01*
X136751892Y-132591025D01*
X136751890Y-132591026D01*
X136745862Y-132593710D01*
X136740521Y-132597590D01*
X136740520Y-132597591D01*
X136597589Y-132701436D01*
X136597586Y-132701437D01*
X136592245Y-132705319D01*
X136587828Y-132710224D01*
X136587823Y-132710229D01*
X136469608Y-132841521D01*
X136465189Y-132846429D01*
X136461890Y-132852142D01*
X136461887Y-132852147D01*
X136373553Y-133005147D01*
X136373550Y-133005152D01*
X136370249Y-133010871D01*
X136368210Y-133017145D01*
X136368206Y-133017155D01*
X136313612Y-133185179D01*
X136313611Y-133185183D01*
X136311572Y-133191459D01*
X136291724Y-133380300D01*
X122789208Y-133380300D01*
X120828508Y-131419600D01*
X137821310Y-131419600D01*
X137822388Y-131427788D01*
X137840106Y-131562378D01*
X137840107Y-131562384D01*
X137841185Y-131570567D01*
X137844344Y-131578195D01*
X137844345Y-131578196D01*
X137896295Y-131703615D01*
X137896296Y-131703618D01*
X137899456Y-131711245D01*
X137992152Y-131832048D01*
X138112955Y-131924744D01*
X138253633Y-131983015D01*
X138404600Y-132002890D01*
X138555567Y-131983015D01*
X138696245Y-131924744D01*
X138791828Y-131851400D01*
X140158110Y-131851400D01*
X140159188Y-131859588D01*
X140176906Y-131994178D01*
X140176907Y-131994184D01*
X140177985Y-132002367D01*
X140181144Y-132009995D01*
X140181145Y-132009996D01*
X140233095Y-132135415D01*
X140233096Y-132135418D01*
X140236256Y-132143045D01*
X140328952Y-132263848D01*
X140449755Y-132356544D01*
X140590433Y-132414815D01*
X140741400Y-132434690D01*
X140892367Y-132414815D01*
X141033045Y-132356544D01*
X141153848Y-132263848D01*
X141246544Y-132143045D01*
X141304815Y-132002367D01*
X141324690Y-131851400D01*
X141304815Y-131700433D01*
X141246544Y-131559755D01*
X141216960Y-131521200D01*
X149251310Y-131521200D01*
X149252388Y-131529388D01*
X149270106Y-131663978D01*
X149270107Y-131663984D01*
X149271185Y-131672167D01*
X149274344Y-131679795D01*
X149274345Y-131679796D01*
X149326295Y-131805215D01*
X149326296Y-131805218D01*
X149329456Y-131812845D01*
X149334483Y-131819396D01*
X149334484Y-131819398D01*
X149417125Y-131927097D01*
X149422152Y-131933648D01*
X149542955Y-132026344D01*
X149683633Y-132084615D01*
X149834600Y-132104490D01*
X149985567Y-132084615D01*
X150126245Y-132026344D01*
X150247048Y-131933648D01*
X150339744Y-131812845D01*
X150398015Y-131672167D01*
X150417890Y-131521200D01*
X150398015Y-131370233D01*
X150339744Y-131229555D01*
X150340247Y-131229346D01*
X150324983Y-131172386D01*
X150341863Y-131109384D01*
X150387984Y-131063263D01*
X150450986Y-131046383D01*
X150507946Y-131061647D01*
X150508155Y-131061144D01*
X150648833Y-131119415D01*
X150799800Y-131139290D01*
X150950767Y-131119415D01*
X151091445Y-131061144D01*
X151212248Y-130968448D01*
X151212347Y-130968319D01*
X153527197Y-130968319D01*
X153527432Y-130979697D01*
X153570346Y-131149162D01*
X153573716Y-131158977D01*
X153659934Y-131355532D01*
X153664877Y-131364667D01*
X153782268Y-131544347D01*
X153788656Y-131552553D01*
X153934013Y-131710454D01*
X153941657Y-131717491D01*
X154111034Y-131849322D01*
X154119727Y-131855001D01*
X154308488Y-131957154D01*
X154318005Y-131961329D01*
X154521003Y-132031018D01*
X154531073Y-132033568D01*
X154592907Y-132043886D01*
X154604044Y-132043310D01*
X154606446Y-132032418D01*
X155114446Y-132032418D01*
X155116847Y-132043310D01*
X155127984Y-132043886D01*
X155189818Y-132033568D01*
X155199888Y-132031018D01*
X155402886Y-131961329D01*
X155412403Y-131957154D01*
X155601164Y-131855001D01*
X155609857Y-131849322D01*
X155779234Y-131717491D01*
X155786878Y-131710454D01*
X155932235Y-131552553D01*
X155938623Y-131544347D01*
X156056014Y-131364667D01*
X156060957Y-131355532D01*
X156147175Y-131158977D01*
X156150545Y-131149162D01*
X156193459Y-130979697D01*
X156193694Y-130968319D01*
X156182606Y-130965754D01*
X155131036Y-130965754D01*
X155117952Y-130969260D01*
X155114446Y-130982344D01*
X155114446Y-132032418D01*
X154606446Y-132032418D01*
X154606446Y-130982344D01*
X154602939Y-130969260D01*
X154589856Y-130965754D01*
X153538286Y-130965754D01*
X153527197Y-130968319D01*
X151212347Y-130968319D01*
X151304944Y-130847645D01*
X151363215Y-130706967D01*
X151383090Y-130556000D01*
X151369818Y-130455188D01*
X153527197Y-130455188D01*
X153538286Y-130457754D01*
X154589856Y-130457754D01*
X154602939Y-130454247D01*
X154606446Y-130441164D01*
X155114446Y-130441164D01*
X155117952Y-130454247D01*
X155131036Y-130457754D01*
X156182606Y-130457754D01*
X156193694Y-130455188D01*
X156193459Y-130443810D01*
X156150545Y-130274345D01*
X156147175Y-130264530D01*
X156060957Y-130067975D01*
X156056014Y-130058840D01*
X156025939Y-130012807D01*
X156005584Y-129950269D01*
X156019512Y-129885993D01*
X156063930Y-129837492D01*
X156126736Y-129817978D01*
X156190818Y-129832769D01*
X156261080Y-129870325D01*
X156454916Y-129929124D01*
X156656498Y-129948978D01*
X156858080Y-129929124D01*
X157051916Y-129870325D01*
X157230555Y-129774840D01*
X157387134Y-129646338D01*
X157515636Y-129489759D01*
X157611121Y-129311120D01*
X157669920Y-129117284D01*
X157689774Y-128915702D01*
X157669920Y-128714120D01*
X157611121Y-128520284D01*
X157515636Y-128341645D01*
X157387134Y-128185066D01*
X157347233Y-128152320D01*
X157235339Y-128060490D01*
X157235337Y-128060489D01*
X157230555Y-128056564D01*
X157051916Y-127961079D01*
X157045995Y-127959283D01*
X157045993Y-127959282D01*
X156864002Y-127904076D01*
X156863998Y-127904075D01*
X156858080Y-127902280D01*
X156656498Y-127882426D01*
X156650335Y-127883033D01*
X156461078Y-127901673D01*
X156461077Y-127901673D01*
X156454916Y-127902280D01*
X156448999Y-127904074D01*
X156448993Y-127904076D01*
X156267002Y-127959282D01*
X156266996Y-127959284D01*
X156261080Y-127961079D01*
X156255622Y-127963996D01*
X156255618Y-127963998D01*
X156110195Y-128041729D01*
X156082441Y-128056564D01*
X156077662Y-128060485D01*
X156077656Y-128060490D01*
X155930641Y-128181143D01*
X155930635Y-128181148D01*
X155925862Y-128185066D01*
X155921944Y-128189839D01*
X155921939Y-128189845D01*
X155801286Y-128336860D01*
X155801281Y-128336866D01*
X155797360Y-128341645D01*
X155794442Y-128347103D01*
X155794442Y-128347104D01*
X155704794Y-128514822D01*
X155704792Y-128514826D01*
X155701875Y-128520284D01*
X155700080Y-128526200D01*
X155700078Y-128526206D01*
X155644872Y-128708197D01*
X155644870Y-128708203D01*
X155643076Y-128714120D01*
X155623222Y-128915702D01*
X155643076Y-129117284D01*
X155644871Y-129123202D01*
X155644872Y-129123206D01*
X155671581Y-129211254D01*
X155701875Y-129311120D01*
X155704793Y-129316580D01*
X155704796Y-129316586D01*
X155738791Y-129380187D01*
X155753642Y-129442187D01*
X155736241Y-129503520D01*
X155691044Y-129548484D01*
X155629622Y-129565567D01*
X155567700Y-129550396D01*
X155412403Y-129466353D01*
X155402886Y-129462178D01*
X155199888Y-129392489D01*
X155189818Y-129389939D01*
X155127984Y-129379621D01*
X155116847Y-129380197D01*
X155114446Y-129391090D01*
X155114446Y-130441164D01*
X154606446Y-130441164D01*
X154606446Y-129391090D01*
X154604044Y-129380197D01*
X154592907Y-129379621D01*
X154531073Y-129389939D01*
X154521003Y-129392489D01*
X154318005Y-129462178D01*
X154308488Y-129466353D01*
X154119727Y-129568506D01*
X154111034Y-129574185D01*
X153941657Y-129706016D01*
X153934013Y-129713053D01*
X153788656Y-129870954D01*
X153782268Y-129879160D01*
X153664877Y-130058840D01*
X153659934Y-130067975D01*
X153573716Y-130264530D01*
X153570346Y-130274345D01*
X153527432Y-130443810D01*
X153527197Y-130455188D01*
X151369818Y-130455188D01*
X151363215Y-130405033D01*
X151304944Y-130264355D01*
X151212248Y-130143552D01*
X151091445Y-130050856D01*
X151083818Y-130047696D01*
X151083815Y-130047695D01*
X150958396Y-129995745D01*
X150958395Y-129995744D01*
X150950767Y-129992585D01*
X150942584Y-129991507D01*
X150942578Y-129991506D01*
X150807988Y-129973788D01*
X150799800Y-129972710D01*
X150791612Y-129973788D01*
X150657021Y-129991506D01*
X150657013Y-129991508D01*
X150648833Y-129992585D01*
X150641206Y-129995744D01*
X150641203Y-129995745D01*
X150515784Y-130047695D01*
X150515778Y-130047698D01*
X150508155Y-130050856D01*
X150501606Y-130055880D01*
X150501601Y-130055884D01*
X150393902Y-130138525D01*
X150393897Y-130138529D01*
X150387352Y-130143552D01*
X150382329Y-130150097D01*
X150382325Y-130150102D01*
X150299684Y-130257801D01*
X150299680Y-130257806D01*
X150294656Y-130264355D01*
X150291498Y-130271978D01*
X150291495Y-130271984D01*
X150239545Y-130397403D01*
X150236385Y-130405033D01*
X150235308Y-130413213D01*
X150235306Y-130413221D01*
X150229444Y-130457754D01*
X150216510Y-130556000D01*
X150217588Y-130564188D01*
X150235306Y-130698778D01*
X150235307Y-130698784D01*
X150236385Y-130706967D01*
X150239544Y-130714595D01*
X150239545Y-130714596D01*
X150291495Y-130840015D01*
X150293071Y-130843818D01*
X150293072Y-130843822D01*
X150294656Y-130847645D01*
X150294152Y-130847853D01*
X150309416Y-130904816D01*
X150292535Y-130967816D01*
X150246416Y-131013935D01*
X150183416Y-131030816D01*
X150126453Y-131015552D01*
X150126245Y-131016056D01*
X150122422Y-131014472D01*
X150122418Y-131014471D01*
X150118619Y-131012897D01*
X150118617Y-131012896D01*
X149993196Y-130960945D01*
X149993195Y-130960944D01*
X149985567Y-130957785D01*
X149977384Y-130956707D01*
X149977378Y-130956706D01*
X149842788Y-130938988D01*
X149834600Y-130937910D01*
X149826412Y-130938988D01*
X149691821Y-130956706D01*
X149691813Y-130956708D01*
X149683633Y-130957785D01*
X149676006Y-130960944D01*
X149676003Y-130960945D01*
X149550584Y-131012895D01*
X149550578Y-131012898D01*
X149542955Y-131016056D01*
X149536406Y-131021080D01*
X149536401Y-131021084D01*
X149428702Y-131103725D01*
X149428697Y-131103729D01*
X149422152Y-131108752D01*
X149417129Y-131115297D01*
X149417125Y-131115302D01*
X149334484Y-131223001D01*
X149334480Y-131223006D01*
X149329456Y-131229555D01*
X149326298Y-131237178D01*
X149326295Y-131237184D01*
X149277274Y-131355532D01*
X149271185Y-131370233D01*
X149270108Y-131378413D01*
X149270106Y-131378421D01*
X149253032Y-131508113D01*
X149251310Y-131521200D01*
X141216960Y-131521200D01*
X141153848Y-131438952D01*
X141128628Y-131419600D01*
X141039598Y-131351284D01*
X141039596Y-131351283D01*
X141033045Y-131346256D01*
X141025418Y-131343096D01*
X141025415Y-131343095D01*
X140899996Y-131291145D01*
X140899995Y-131291144D01*
X140892367Y-131287985D01*
X140884184Y-131286907D01*
X140884178Y-131286906D01*
X140749588Y-131269188D01*
X140741400Y-131268110D01*
X140733212Y-131269188D01*
X140598621Y-131286906D01*
X140598613Y-131286908D01*
X140590433Y-131287985D01*
X140582806Y-131291144D01*
X140582803Y-131291145D01*
X140457384Y-131343095D01*
X140457378Y-131343098D01*
X140449755Y-131346256D01*
X140443206Y-131351280D01*
X140443201Y-131351284D01*
X140335502Y-131433925D01*
X140335497Y-131433929D01*
X140328952Y-131438952D01*
X140323929Y-131445497D01*
X140323925Y-131445502D01*
X140241284Y-131553201D01*
X140241280Y-131553206D01*
X140236256Y-131559755D01*
X140233098Y-131567378D01*
X140233095Y-131567384D01*
X140228617Y-131578196D01*
X140177985Y-131700433D01*
X140176908Y-131708613D01*
X140176906Y-131708621D01*
X140164190Y-131805215D01*
X140158110Y-131851400D01*
X138791828Y-131851400D01*
X138817048Y-131832048D01*
X138909744Y-131711245D01*
X138968015Y-131570567D01*
X138987890Y-131419600D01*
X138968015Y-131268633D01*
X138909744Y-131127955D01*
X138900765Y-131116254D01*
X138822074Y-131013702D01*
X138817048Y-131007152D01*
X138810497Y-131002125D01*
X138702798Y-130919484D01*
X138702796Y-130919483D01*
X138696245Y-130914456D01*
X138688618Y-130911296D01*
X138688615Y-130911295D01*
X138563196Y-130859345D01*
X138563195Y-130859344D01*
X138555567Y-130856185D01*
X138547384Y-130855107D01*
X138547378Y-130855106D01*
X138412788Y-130837388D01*
X138404600Y-130836310D01*
X138396412Y-130837388D01*
X138261821Y-130855106D01*
X138261813Y-130855108D01*
X138253633Y-130856185D01*
X138246006Y-130859344D01*
X138246003Y-130859345D01*
X138120584Y-130911295D01*
X138120578Y-130911298D01*
X138112955Y-130914456D01*
X138106406Y-130919480D01*
X138106401Y-130919484D01*
X137998702Y-131002125D01*
X137998697Y-131002129D01*
X137992152Y-131007152D01*
X137987129Y-131013697D01*
X137987125Y-131013702D01*
X137904484Y-131121401D01*
X137904480Y-131121406D01*
X137899456Y-131127955D01*
X137896298Y-131135578D01*
X137896295Y-131135584D01*
X137844345Y-131261003D01*
X137841185Y-131268633D01*
X137840108Y-131276813D01*
X137840106Y-131276821D01*
X137828542Y-131364667D01*
X137821310Y-131419600D01*
X120828508Y-131419600D01*
X119837908Y-130429000D01*
X131877710Y-130429000D01*
X131878788Y-130437188D01*
X131896506Y-130571778D01*
X131896507Y-130571784D01*
X131897585Y-130579967D01*
X131900744Y-130587595D01*
X131900745Y-130587596D01*
X131952695Y-130713015D01*
X131952696Y-130713018D01*
X131955856Y-130720645D01*
X132048552Y-130841448D01*
X132169355Y-130934144D01*
X132310033Y-130992415D01*
X132461000Y-131012290D01*
X132611967Y-130992415D01*
X132752645Y-130934144D01*
X132873448Y-130841448D01*
X132966144Y-130720645D01*
X133024415Y-130579967D01*
X133044290Y-130429000D01*
X133024415Y-130278033D01*
X132966144Y-130137355D01*
X132873448Y-130016552D01*
X132840808Y-129991506D01*
X132759198Y-129928884D01*
X132759196Y-129928883D01*
X132752645Y-129923856D01*
X132745018Y-129920696D01*
X132745015Y-129920695D01*
X132619596Y-129868745D01*
X132619595Y-129868744D01*
X132611967Y-129865585D01*
X132603784Y-129864507D01*
X132603778Y-129864506D01*
X132469188Y-129846788D01*
X132461000Y-129845710D01*
X132452812Y-129846788D01*
X132318221Y-129864506D01*
X132318213Y-129864508D01*
X132310033Y-129865585D01*
X132302406Y-129868744D01*
X132302403Y-129868745D01*
X132176984Y-129920695D01*
X132176978Y-129920698D01*
X132169355Y-129923856D01*
X132162806Y-129928880D01*
X132162801Y-129928884D01*
X132055102Y-130011525D01*
X132055097Y-130011529D01*
X132048552Y-130016552D01*
X132043529Y-130023097D01*
X132043525Y-130023102D01*
X131960884Y-130130801D01*
X131960880Y-130130806D01*
X131955856Y-130137355D01*
X131952698Y-130144978D01*
X131952695Y-130144984D01*
X131903178Y-130264530D01*
X131897585Y-130278033D01*
X131896508Y-130286213D01*
X131896506Y-130286221D01*
X131881870Y-130397403D01*
X131877710Y-130429000D01*
X119837908Y-130429000D01*
X116091408Y-126682500D01*
X128004210Y-126682500D01*
X128005702Y-126693834D01*
X128023006Y-126825278D01*
X128023007Y-126825284D01*
X128024085Y-126833467D01*
X128027244Y-126841095D01*
X128027245Y-126841096D01*
X128079195Y-126966515D01*
X128079196Y-126966518D01*
X128082356Y-126974145D01*
X128087383Y-126980696D01*
X128087384Y-126980698D01*
X128107269Y-127006612D01*
X128175052Y-127094948D01*
X128295855Y-127187644D01*
X128436533Y-127245915D01*
X128587500Y-127265790D01*
X128738467Y-127245915D01*
X128879145Y-127187644D01*
X128999948Y-127094948D01*
X129092644Y-126974145D01*
X129150915Y-126833467D01*
X129170790Y-126682500D01*
X129150915Y-126531533D01*
X129092644Y-126390855D01*
X129067195Y-126357690D01*
X129008825Y-126281621D01*
X128999948Y-126270052D01*
X128983714Y-126257595D01*
X128885698Y-126182384D01*
X128885696Y-126182383D01*
X128879145Y-126177356D01*
X128871518Y-126174196D01*
X128871515Y-126174195D01*
X128746096Y-126122245D01*
X128746095Y-126122244D01*
X128738467Y-126119085D01*
X128730284Y-126118007D01*
X128730278Y-126118006D01*
X128595688Y-126100288D01*
X128587500Y-126099210D01*
X128579312Y-126100288D01*
X128444721Y-126118006D01*
X128444713Y-126118008D01*
X128436533Y-126119085D01*
X128428906Y-126122244D01*
X128428903Y-126122245D01*
X128303484Y-126174195D01*
X128303478Y-126174198D01*
X128295855Y-126177356D01*
X128289306Y-126182380D01*
X128289301Y-126182384D01*
X128181602Y-126265025D01*
X128181597Y-126265029D01*
X128175052Y-126270052D01*
X128170029Y-126276597D01*
X128170025Y-126276602D01*
X128087384Y-126384301D01*
X128087380Y-126384306D01*
X128082356Y-126390855D01*
X128079198Y-126398478D01*
X128079195Y-126398484D01*
X128027245Y-126523903D01*
X128024085Y-126531533D01*
X128023008Y-126539713D01*
X128023006Y-126539721D01*
X128006622Y-126664176D01*
X128004210Y-126682500D01*
X116091408Y-126682500D01*
X114148308Y-124739400D01*
X131699910Y-124739400D01*
X131700988Y-124747588D01*
X131718706Y-124882178D01*
X131718707Y-124882184D01*
X131719785Y-124890367D01*
X131722944Y-124897995D01*
X131722945Y-124897996D01*
X131774895Y-125023415D01*
X131774896Y-125023418D01*
X131778056Y-125031045D01*
X131783083Y-125037596D01*
X131783084Y-125037598D01*
X131813061Y-125076664D01*
X131870752Y-125151848D01*
X131991555Y-125244544D01*
X132132233Y-125302815D01*
X132283200Y-125322690D01*
X132434167Y-125302815D01*
X132574845Y-125244544D01*
X132695648Y-125151848D01*
X132788344Y-125031045D01*
X132846615Y-124890367D01*
X132866490Y-124739400D01*
X132852926Y-124636367D01*
X132847693Y-124596621D01*
X132847692Y-124596620D01*
X132846615Y-124588433D01*
X132788344Y-124447755D01*
X132695648Y-124326952D01*
X132606181Y-124258301D01*
X132581398Y-124239284D01*
X132581396Y-124239283D01*
X132574845Y-124234256D01*
X132567218Y-124231096D01*
X132567215Y-124231095D01*
X132441796Y-124179145D01*
X132441795Y-124179144D01*
X132434167Y-124175985D01*
X132425984Y-124174907D01*
X132425978Y-124174906D01*
X132291388Y-124157188D01*
X132283200Y-124156110D01*
X132275012Y-124157188D01*
X132140421Y-124174906D01*
X132140413Y-124174908D01*
X132132233Y-124175985D01*
X132124606Y-124179144D01*
X132124603Y-124179145D01*
X131999184Y-124231095D01*
X131999178Y-124231098D01*
X131991555Y-124234256D01*
X131985006Y-124239280D01*
X131985001Y-124239284D01*
X131877302Y-124321925D01*
X131877297Y-124321929D01*
X131870752Y-124326952D01*
X131865729Y-124333497D01*
X131865725Y-124333502D01*
X131783084Y-124441201D01*
X131783080Y-124441206D01*
X131778056Y-124447755D01*
X131774898Y-124455378D01*
X131774895Y-124455384D01*
X131747982Y-124520359D01*
X131719785Y-124588433D01*
X131718708Y-124596613D01*
X131718706Y-124596621D01*
X131707834Y-124679208D01*
X131699910Y-124739400D01*
X114148308Y-124739400D01*
X112979908Y-123571000D01*
X127940710Y-123571000D01*
X127941788Y-123579188D01*
X127959506Y-123713778D01*
X127959507Y-123713784D01*
X127960585Y-123721967D01*
X127963744Y-123729595D01*
X127963745Y-123729596D01*
X128015695Y-123855015D01*
X128015696Y-123855018D01*
X128018856Y-123862645D01*
X128023883Y-123869196D01*
X128023884Y-123869198D01*
X128086763Y-123951143D01*
X128111552Y-123983448D01*
X128232355Y-124076144D01*
X128373033Y-124134415D01*
X128524000Y-124154290D01*
X128674967Y-124134415D01*
X128815645Y-124076144D01*
X128936448Y-123983448D01*
X129029144Y-123862645D01*
X129087415Y-123721967D01*
X129107290Y-123571000D01*
X129087415Y-123420033D01*
X129029144Y-123279355D01*
X128936448Y-123158552D01*
X128871966Y-123109073D01*
X128822198Y-123070884D01*
X128822196Y-123070883D01*
X128815645Y-123065856D01*
X128808018Y-123062696D01*
X128808015Y-123062695D01*
X128682596Y-123010745D01*
X128682595Y-123010744D01*
X128674967Y-123007585D01*
X128666784Y-123006507D01*
X128666778Y-123006506D01*
X128532188Y-122988788D01*
X128524000Y-122987710D01*
X128515812Y-122988788D01*
X128381221Y-123006506D01*
X128381213Y-123006508D01*
X128373033Y-123007585D01*
X128365406Y-123010744D01*
X128365403Y-123010745D01*
X128239984Y-123062695D01*
X128239978Y-123062698D01*
X128232355Y-123065856D01*
X128225806Y-123070880D01*
X128225801Y-123070884D01*
X128118102Y-123153525D01*
X128118097Y-123153529D01*
X128111552Y-123158552D01*
X128106529Y-123165097D01*
X128106525Y-123165102D01*
X128023884Y-123272801D01*
X128023880Y-123272806D01*
X128018856Y-123279355D01*
X128015698Y-123286978D01*
X128015695Y-123286984D01*
X127963745Y-123412403D01*
X127960585Y-123420033D01*
X127959508Y-123428213D01*
X127959506Y-123428221D01*
X127949284Y-123505874D01*
X127940710Y-123571000D01*
X112979908Y-123571000D01*
X109028805Y-119619897D01*
X109001491Y-119579020D01*
X108991900Y-119530802D01*
X108991900Y-118719600D01*
X111572132Y-118719600D01*
X111572611Y-118725075D01*
X111588758Y-118909645D01*
X111591965Y-118946292D01*
X111593389Y-118951606D01*
X111639429Y-119123433D01*
X111650861Y-119166096D01*
X111747032Y-119372334D01*
X111750184Y-119376835D01*
X111750186Y-119376839D01*
X111874393Y-119554227D01*
X111874397Y-119554231D01*
X111877553Y-119558739D01*
X112038461Y-119719647D01*
X112042969Y-119722803D01*
X112042972Y-119722806D01*
X112207224Y-119837815D01*
X112224866Y-119850168D01*
X112431104Y-119946339D01*
X112650908Y-120005235D01*
X112820816Y-120020100D01*
X112931644Y-120020100D01*
X112934384Y-120020100D01*
X113104292Y-120005235D01*
X113324096Y-119946339D01*
X113530334Y-119850168D01*
X113716739Y-119719647D01*
X113877647Y-119558739D01*
X114008168Y-119372334D01*
X114104339Y-119166096D01*
X114163235Y-118946292D01*
X114183068Y-118719600D01*
X114163235Y-118492908D01*
X114104339Y-118273104D01*
X114008168Y-118066866D01*
X114004192Y-118061188D01*
X113880806Y-117884972D01*
X113880803Y-117884969D01*
X113877647Y-117880461D01*
X113716739Y-117719553D01*
X113712231Y-117716397D01*
X113712227Y-117716393D01*
X113534839Y-117592186D01*
X113534835Y-117592184D01*
X113530334Y-117589032D01*
X113353480Y-117506563D01*
X113329078Y-117495184D01*
X113329076Y-117495183D01*
X113324096Y-117492861D01*
X113318788Y-117491438D01*
X113318786Y-117491438D01*
X113109606Y-117435389D01*
X113109607Y-117435389D01*
X113104292Y-117433965D01*
X113098816Y-117433485D01*
X113098811Y-117433485D01*
X112937107Y-117419338D01*
X112937101Y-117419337D01*
X112934384Y-117419100D01*
X112820816Y-117419100D01*
X112818099Y-117419337D01*
X112818092Y-117419338D01*
X112656388Y-117433485D01*
X112656381Y-117433486D01*
X112650908Y-117433965D01*
X112645594Y-117435388D01*
X112645593Y-117435389D01*
X112436413Y-117491438D01*
X112436408Y-117491439D01*
X112431104Y-117492861D01*
X112426127Y-117495181D01*
X112426121Y-117495184D01*
X112229847Y-117586709D01*
X112229844Y-117586710D01*
X112224866Y-117589032D01*
X112220369Y-117592180D01*
X112220360Y-117592186D01*
X112042972Y-117716393D01*
X112042961Y-117716401D01*
X112038461Y-117719553D01*
X112034571Y-117723442D01*
X112034565Y-117723448D01*
X111881448Y-117876565D01*
X111881442Y-117876571D01*
X111877553Y-117880461D01*
X111874401Y-117884961D01*
X111874393Y-117884972D01*
X111750186Y-118062360D01*
X111750180Y-118062369D01*
X111747032Y-118066866D01*
X111744710Y-118071844D01*
X111744709Y-118071847D01*
X111653184Y-118268121D01*
X111653181Y-118268127D01*
X111650861Y-118273104D01*
X111649439Y-118278408D01*
X111649438Y-118278413D01*
X111598898Y-118467033D01*
X111591965Y-118492908D01*
X111591486Y-118498381D01*
X111591485Y-118498388D01*
X111574530Y-118692188D01*
X111572132Y-118719600D01*
X108991900Y-118719600D01*
X108991900Y-111426307D01*
X126243031Y-111426307D01*
X126262885Y-111627889D01*
X126264680Y-111633807D01*
X126264681Y-111633811D01*
X126302197Y-111757484D01*
X126321684Y-111821725D01*
X126417169Y-112000364D01*
X126545671Y-112156943D01*
X126702250Y-112285445D01*
X126822823Y-112349893D01*
X126875433Y-112378014D01*
X126875435Y-112378015D01*
X126880889Y-112380930D01*
X126886806Y-112382724D01*
X126892533Y-112385097D01*
X126891986Y-112386417D01*
X126930086Y-112407592D01*
X126961776Y-112450322D01*
X126973007Y-112502322D01*
X126973007Y-117978406D01*
X126972759Y-117981968D01*
X126970712Y-117988078D01*
X126971251Y-117999739D01*
X126971251Y-117999740D01*
X126972873Y-118034819D01*
X126973007Y-118040638D01*
X126973007Y-118058813D01*
X126974075Y-118064534D01*
X126974148Y-118065313D01*
X126974550Y-118071109D01*
X126975409Y-118089689D01*
X126975409Y-118089691D01*
X126975949Y-118101351D01*
X126980663Y-118112027D01*
X126982484Y-118119770D01*
X126983569Y-118123274D01*
X126986443Y-118130693D01*
X126988589Y-118142170D01*
X126994734Y-118152095D01*
X126994736Y-118152099D01*
X127002750Y-118165042D01*
X127010885Y-118180474D01*
X127021751Y-118205082D01*
X127030007Y-118213338D01*
X127034509Y-118219910D01*
X127036773Y-118222768D01*
X127042136Y-118228651D01*
X127048283Y-118238578D01*
X127057599Y-118245613D01*
X127057600Y-118245614D01*
X127069750Y-118254789D01*
X127082913Y-118266244D01*
X133479551Y-124662882D01*
X133481897Y-124665577D01*
X133484769Y-124671345D01*
X133493393Y-124679207D01*
X133493394Y-124679208D01*
X133519351Y-124702871D01*
X133523560Y-124706891D01*
X133536408Y-124719739D01*
X133541217Y-124723033D01*
X133541790Y-124723509D01*
X133546173Y-124727323D01*
X133568567Y-124747738D01*
X133579450Y-124751953D01*
X133586219Y-124756145D01*
X133589427Y-124757836D01*
X133596732Y-124761061D01*
X133606369Y-124767663D01*
X133632552Y-124773820D01*
X133649217Y-124778981D01*
X133674303Y-124788700D01*
X133685983Y-124788700D01*
X133693809Y-124790163D01*
X133697431Y-124790583D01*
X133705382Y-124790950D01*
X133716749Y-124793624D01*
X133743388Y-124789907D01*
X133760796Y-124788700D01*
X135280864Y-124788700D01*
X135336592Y-124801694D01*
X135380822Y-124837992D01*
X135426752Y-124897848D01*
X135547555Y-124990544D01*
X135577553Y-125002969D01*
X135625145Y-125037546D01*
X135651853Y-125089962D01*
X135651854Y-125148790D01*
X135625147Y-125201207D01*
X135577555Y-125235786D01*
X135504386Y-125266094D01*
X135504379Y-125266097D01*
X135496755Y-125269256D01*
X135490206Y-125274280D01*
X135490201Y-125274284D01*
X135382502Y-125356925D01*
X135382497Y-125356929D01*
X135375952Y-125361952D01*
X135370929Y-125368497D01*
X135370925Y-125368502D01*
X135288284Y-125476201D01*
X135288280Y-125476206D01*
X135283256Y-125482755D01*
X135280098Y-125490378D01*
X135280095Y-125490384D01*
X135228145Y-125615803D01*
X135224985Y-125623433D01*
X135223908Y-125631613D01*
X135223906Y-125631621D01*
X135206832Y-125761313D01*
X135205110Y-125774400D01*
X135206188Y-125782588D01*
X135223906Y-125917178D01*
X135223907Y-125917184D01*
X135224985Y-125925367D01*
X135228144Y-125932995D01*
X135228145Y-125932996D01*
X135280095Y-126058415D01*
X135280096Y-126058418D01*
X135283256Y-126066045D01*
X135288283Y-126072596D01*
X135288284Y-126072598D01*
X135366243Y-126174195D01*
X135375952Y-126186848D01*
X135382502Y-126191874D01*
X135477833Y-126265025D01*
X135496755Y-126279544D01*
X135637433Y-126337815D01*
X135788400Y-126357690D01*
X135939367Y-126337815D01*
X136080045Y-126279544D01*
X136200848Y-126186848D01*
X136293544Y-126066045D01*
X136351815Y-125925367D01*
X136371690Y-125774400D01*
X136351815Y-125623433D01*
X136293544Y-125482755D01*
X136200848Y-125361952D01*
X136194297Y-125356925D01*
X136086598Y-125274284D01*
X136086596Y-125274283D01*
X136080045Y-125269256D01*
X136072418Y-125266096D01*
X136072415Y-125266095D01*
X136050046Y-125256830D01*
X136002453Y-125222251D01*
X135975745Y-125169835D01*
X135975745Y-125111007D01*
X136002453Y-125058591D01*
X136050046Y-125024012D01*
X136130845Y-124990544D01*
X136251648Y-124897848D01*
X136344344Y-124777045D01*
X136402615Y-124636367D01*
X136422490Y-124485400D01*
X136402615Y-124334433D01*
X136344344Y-124193755D01*
X136326853Y-124170961D01*
X136256674Y-124079502D01*
X136251648Y-124072952D01*
X136245097Y-124067925D01*
X136137398Y-123985284D01*
X136137396Y-123985283D01*
X136130845Y-123980256D01*
X136123218Y-123977096D01*
X136123215Y-123977095D01*
X135997796Y-123925145D01*
X135997795Y-123925144D01*
X135990167Y-123921985D01*
X135981984Y-123920907D01*
X135981978Y-123920906D01*
X135847388Y-123903188D01*
X135839200Y-123902110D01*
X135831012Y-123903188D01*
X135696421Y-123920906D01*
X135696413Y-123920908D01*
X135688233Y-123921985D01*
X135680606Y-123925144D01*
X135680603Y-123925145D01*
X135555184Y-123977095D01*
X135555178Y-123977098D01*
X135547555Y-123980256D01*
X135541006Y-123985280D01*
X135541001Y-123985284D01*
X135433302Y-124067925D01*
X135433297Y-124067929D01*
X135426752Y-124072952D01*
X135380822Y-124132807D01*
X135336592Y-124169106D01*
X135280864Y-124182100D01*
X133908821Y-124182100D01*
X133860603Y-124172509D01*
X133819726Y-124145195D01*
X132762931Y-123088400D01*
X134900310Y-123088400D01*
X134901388Y-123096588D01*
X134919106Y-123231178D01*
X134919107Y-123231184D01*
X134920185Y-123239367D01*
X134923344Y-123246995D01*
X134923345Y-123246996D01*
X134975295Y-123372415D01*
X134975296Y-123372418D01*
X134978456Y-123380045D01*
X134983483Y-123386596D01*
X134983484Y-123386598D01*
X135026345Y-123442455D01*
X135071152Y-123500848D01*
X135077702Y-123505874D01*
X135151904Y-123562812D01*
X135191955Y-123593544D01*
X135332633Y-123651815D01*
X135483600Y-123671690D01*
X135634567Y-123651815D01*
X135775245Y-123593544D01*
X135896048Y-123500848D01*
X135941977Y-123440992D01*
X135986208Y-123404694D01*
X136041936Y-123391700D01*
X136270979Y-123391700D01*
X136319197Y-123401291D01*
X136360074Y-123428605D01*
X137226195Y-124294726D01*
X137253509Y-124335603D01*
X137263100Y-124383821D01*
X137263100Y-127201699D01*
X137262852Y-127205261D01*
X137260805Y-127211371D01*
X137261344Y-127223032D01*
X137261344Y-127223033D01*
X137262966Y-127258112D01*
X137263100Y-127263931D01*
X137263100Y-127282106D01*
X137264168Y-127287827D01*
X137264241Y-127288606D01*
X137264643Y-127294402D01*
X137265502Y-127312982D01*
X137265502Y-127312984D01*
X137266042Y-127324644D01*
X137270756Y-127335320D01*
X137272577Y-127343063D01*
X137273662Y-127346567D01*
X137276536Y-127353986D01*
X137278682Y-127365463D01*
X137284827Y-127375388D01*
X137284829Y-127375392D01*
X137292843Y-127388335D01*
X137300978Y-127403767D01*
X137311844Y-127428375D01*
X137320100Y-127436631D01*
X137324602Y-127443203D01*
X137326866Y-127446061D01*
X137332229Y-127451944D01*
X137338376Y-127461871D01*
X137347692Y-127468906D01*
X137347693Y-127468907D01*
X137359843Y-127478082D01*
X137373006Y-127489537D01*
X138354129Y-128470660D01*
X138384347Y-128519252D01*
X138389956Y-128576199D01*
X138381188Y-128642809D01*
X138380110Y-128651000D01*
X138381188Y-128659188D01*
X138398906Y-128793778D01*
X138398907Y-128793784D01*
X138399985Y-128801967D01*
X138403144Y-128809595D01*
X138403145Y-128809596D01*
X138455095Y-128935015D01*
X138455096Y-128935018D01*
X138458256Y-128942645D01*
X138550952Y-129063448D01*
X138671755Y-129156144D01*
X138812433Y-129214415D01*
X138963400Y-129234290D01*
X139114367Y-129214415D01*
X139255045Y-129156144D01*
X139375848Y-129063448D01*
X139468544Y-128942645D01*
X139526815Y-128801967D01*
X139546690Y-128651000D01*
X139526815Y-128500033D01*
X139468544Y-128359355D01*
X139459143Y-128347104D01*
X139380874Y-128245102D01*
X139375848Y-128238552D01*
X139369297Y-128233525D01*
X139261598Y-128150884D01*
X139261596Y-128150883D01*
X139255045Y-128145856D01*
X139247418Y-128142696D01*
X139247415Y-128142695D01*
X139121996Y-128090745D01*
X139121995Y-128090744D01*
X139114367Y-128087585D01*
X139106184Y-128086507D01*
X139106178Y-128086506D01*
X138971588Y-128068788D01*
X138963400Y-128067710D01*
X138955211Y-128068788D01*
X138955209Y-128068788D01*
X138888599Y-128077556D01*
X138831652Y-128071947D01*
X138783060Y-128041729D01*
X137906605Y-127165274D01*
X137879291Y-127124397D01*
X137878347Y-127119651D01*
X157419273Y-127119651D01*
X157439127Y-127321233D01*
X157440922Y-127327151D01*
X157440923Y-127327155D01*
X157483923Y-127468907D01*
X157497926Y-127515069D01*
X157593411Y-127693708D01*
X157721913Y-127850287D01*
X157878492Y-127978789D01*
X158057131Y-128074274D01*
X158250967Y-128133073D01*
X158452549Y-128152927D01*
X158654131Y-128133073D01*
X158847967Y-128074274D01*
X159026606Y-127978789D01*
X159183185Y-127850287D01*
X159311687Y-127693708D01*
X159407172Y-127515069D01*
X159465971Y-127321233D01*
X159485825Y-127119651D01*
X159465971Y-126918069D01*
X159407172Y-126724233D01*
X159311687Y-126545594D01*
X159183185Y-126389015D01*
X159120798Y-126337815D01*
X159031390Y-126264439D01*
X159031388Y-126264438D01*
X159026606Y-126260513D01*
X158847967Y-126165028D01*
X158842046Y-126163232D01*
X158842044Y-126163231D01*
X158660053Y-126108025D01*
X158660049Y-126108024D01*
X158654131Y-126106229D01*
X158452549Y-126086375D01*
X158446386Y-126086982D01*
X158257129Y-126105622D01*
X158257128Y-126105622D01*
X158250967Y-126106229D01*
X158245050Y-126108023D01*
X158245044Y-126108025D01*
X158063053Y-126163231D01*
X158063047Y-126163233D01*
X158057131Y-126165028D01*
X158051673Y-126167945D01*
X158051669Y-126167947D01*
X157883951Y-126257595D01*
X157878492Y-126260513D01*
X157873713Y-126264434D01*
X157873707Y-126264439D01*
X157726692Y-126385092D01*
X157726686Y-126385097D01*
X157721913Y-126389015D01*
X157717995Y-126393788D01*
X157717990Y-126393794D01*
X157597337Y-126540809D01*
X157597332Y-126540815D01*
X157593411Y-126545594D01*
X157590493Y-126551052D01*
X157590493Y-126551053D01*
X157500845Y-126718771D01*
X157500843Y-126718775D01*
X157497926Y-126724233D01*
X157496131Y-126730149D01*
X157496129Y-126730155D01*
X157440923Y-126912146D01*
X157440921Y-126912152D01*
X157439127Y-126918069D01*
X157438520Y-126924230D01*
X157438520Y-126924231D01*
X157433604Y-126974145D01*
X157419273Y-127119651D01*
X137878347Y-127119651D01*
X137869700Y-127076179D01*
X137869700Y-126424400D01*
X138811910Y-126424400D01*
X138812988Y-126432588D01*
X138830706Y-126567178D01*
X138830707Y-126567184D01*
X138831785Y-126575367D01*
X138834944Y-126582995D01*
X138834945Y-126582996D01*
X138886895Y-126708415D01*
X138886896Y-126708418D01*
X138890056Y-126716045D01*
X138982752Y-126836848D01*
X138989302Y-126841874D01*
X139088600Y-126918069D01*
X139103555Y-126929544D01*
X139244233Y-126987815D01*
X139395200Y-127007690D01*
X139546167Y-126987815D01*
X139686845Y-126929544D01*
X139807648Y-126836848D01*
X139879663Y-126742996D01*
X139923898Y-126706694D01*
X139979626Y-126693700D01*
X147166099Y-126693700D01*
X147169661Y-126693947D01*
X147175771Y-126695995D01*
X147222511Y-126693834D01*
X147228331Y-126693700D01*
X147240674Y-126693700D01*
X147246506Y-126693700D01*
X147252244Y-126692627D01*
X147252968Y-126692560D01*
X147258755Y-126692158D01*
X147289044Y-126690758D01*
X147299729Y-126686039D01*
X147307500Y-126684212D01*
X147310944Y-126683145D01*
X147318380Y-126680264D01*
X147329863Y-126678118D01*
X147352739Y-126663952D01*
X147368166Y-126655820D01*
X147392775Y-126644956D01*
X147401032Y-126636697D01*
X147407612Y-126632191D01*
X147410451Y-126629942D01*
X147416343Y-126624570D01*
X147426271Y-126618424D01*
X147442485Y-126596952D01*
X147453932Y-126583797D01*
X148714129Y-125323600D01*
X158864726Y-125323600D01*
X158867147Y-125335771D01*
X158876142Y-125380996D01*
X158878564Y-125393169D01*
X158908024Y-125437260D01*
X160134940Y-126664175D01*
X160179031Y-126693636D01*
X160248600Y-126707474D01*
X160318169Y-126693636D01*
X160362260Y-126664176D01*
X161589175Y-125437260D01*
X161618636Y-125393169D01*
X161632474Y-125323600D01*
X161618636Y-125254031D01*
X161589176Y-125209940D01*
X160362260Y-123983025D01*
X160318169Y-123953564D01*
X160305999Y-123951143D01*
X160305996Y-123951142D01*
X160260771Y-123942147D01*
X160248600Y-123939726D01*
X160236429Y-123942147D01*
X160191200Y-123951143D01*
X160191197Y-123951143D01*
X160179031Y-123953564D01*
X160168715Y-123960456D01*
X160168714Y-123960457D01*
X160140084Y-123979586D01*
X160140077Y-123979591D01*
X160134940Y-123983024D01*
X160130566Y-123987397D01*
X160130561Y-123987402D01*
X158912403Y-125205561D01*
X158912398Y-125205566D01*
X158908025Y-125209940D01*
X158904588Y-125215082D01*
X158904586Y-125215086D01*
X158885459Y-125243711D01*
X158885457Y-125243713D01*
X158878564Y-125254031D01*
X158876143Y-125266198D01*
X158876142Y-125266203D01*
X158874535Y-125274284D01*
X158864726Y-125323600D01*
X148714129Y-125323600D01*
X151457329Y-122580400D01*
X161399724Y-122580400D01*
X161419578Y-122781982D01*
X161421373Y-122787900D01*
X161421374Y-122787904D01*
X161466733Y-122937433D01*
X161478377Y-122975818D01*
X161573862Y-123154457D01*
X161577787Y-123159239D01*
X161577788Y-123159241D01*
X161667232Y-123268228D01*
X161702364Y-123311036D01*
X161858943Y-123439538D01*
X162037582Y-123535023D01*
X162231418Y-123593822D01*
X162433000Y-123613676D01*
X162634582Y-123593822D01*
X162828418Y-123535023D01*
X163007057Y-123439538D01*
X163163636Y-123311036D01*
X163292138Y-123154457D01*
X163387623Y-122975818D01*
X163446422Y-122781982D01*
X163466276Y-122580400D01*
X163446422Y-122378818D01*
X163387623Y-122184982D01*
X163292138Y-122006343D01*
X163163636Y-121849764D01*
X163007057Y-121721262D01*
X162828418Y-121625777D01*
X162822497Y-121623981D01*
X162822495Y-121623980D01*
X162640504Y-121568774D01*
X162640500Y-121568773D01*
X162634582Y-121566978D01*
X162433000Y-121547124D01*
X162426837Y-121547731D01*
X162237580Y-121566371D01*
X162237579Y-121566371D01*
X162231418Y-121566978D01*
X162225501Y-121568772D01*
X162225495Y-121568774D01*
X162043504Y-121623980D01*
X162043498Y-121623982D01*
X162037582Y-121625777D01*
X162032124Y-121628694D01*
X162032120Y-121628696D01*
X161913108Y-121692310D01*
X161858943Y-121721262D01*
X161854164Y-121725183D01*
X161854158Y-121725188D01*
X161707143Y-121845841D01*
X161707137Y-121845846D01*
X161702364Y-121849764D01*
X161698446Y-121854537D01*
X161698441Y-121854543D01*
X161577788Y-122001558D01*
X161577783Y-122001564D01*
X161573862Y-122006343D01*
X161570944Y-122011801D01*
X161570944Y-122011802D01*
X161481296Y-122179520D01*
X161481294Y-122179524D01*
X161478377Y-122184982D01*
X161476582Y-122190898D01*
X161476580Y-122190904D01*
X161421374Y-122372895D01*
X161421372Y-122372901D01*
X161419578Y-122378818D01*
X161418971Y-122384979D01*
X161418971Y-122384980D01*
X161402339Y-122553846D01*
X161399724Y-122580400D01*
X151457329Y-122580400D01*
X153997329Y-120040400D01*
X161399724Y-120040400D01*
X161419578Y-120241982D01*
X161478377Y-120435818D01*
X161573862Y-120614457D01*
X161702364Y-120771036D01*
X161858943Y-120899538D01*
X162037582Y-120995023D01*
X162231418Y-121053822D01*
X162433000Y-121073676D01*
X162634582Y-121053822D01*
X162828418Y-120995023D01*
X163007057Y-120899538D01*
X163163636Y-120771036D01*
X163292138Y-120614457D01*
X163387623Y-120435818D01*
X163446422Y-120241982D01*
X163466276Y-120040400D01*
X163446422Y-119838818D01*
X163387623Y-119644982D01*
X163292138Y-119466343D01*
X163163636Y-119309764D01*
X163031461Y-119201290D01*
X163011841Y-119185188D01*
X163011839Y-119185187D01*
X163007057Y-119181262D01*
X162828418Y-119085777D01*
X162822497Y-119083981D01*
X162822495Y-119083980D01*
X162640504Y-119028774D01*
X162640500Y-119028773D01*
X162634582Y-119026978D01*
X162433000Y-119007124D01*
X162426837Y-119007731D01*
X162237580Y-119026371D01*
X162237579Y-119026371D01*
X162231418Y-119026978D01*
X162225501Y-119028772D01*
X162225495Y-119028774D01*
X162043504Y-119083980D01*
X162043498Y-119083982D01*
X162037582Y-119085777D01*
X162032124Y-119088694D01*
X162032120Y-119088696D01*
X161864402Y-119178344D01*
X161858943Y-119181262D01*
X161854164Y-119185183D01*
X161854158Y-119185188D01*
X161707143Y-119305841D01*
X161707137Y-119305846D01*
X161702364Y-119309764D01*
X161698446Y-119314537D01*
X161698441Y-119314543D01*
X161577788Y-119461558D01*
X161577783Y-119461564D01*
X161573862Y-119466343D01*
X161570944Y-119471801D01*
X161570944Y-119471802D01*
X161481296Y-119639520D01*
X161481294Y-119639524D01*
X161478377Y-119644982D01*
X161476582Y-119650898D01*
X161476580Y-119650904D01*
X161421374Y-119832895D01*
X161421372Y-119832901D01*
X161419578Y-119838818D01*
X161399724Y-120040400D01*
X153997329Y-120040400D01*
X154785062Y-119252667D01*
X154833654Y-119222451D01*
X154890599Y-119216842D01*
X154965400Y-119226690D01*
X155116367Y-119206815D01*
X155257045Y-119148544D01*
X155377848Y-119055848D01*
X155470544Y-118935045D01*
X155528815Y-118794367D01*
X155548690Y-118643400D01*
X155528815Y-118492433D01*
X155470544Y-118351755D01*
X155377848Y-118230952D01*
X155371297Y-118225925D01*
X155263598Y-118143284D01*
X155263596Y-118143283D01*
X155257045Y-118138256D01*
X155249418Y-118135096D01*
X155249415Y-118135095D01*
X155123996Y-118083145D01*
X155123995Y-118083144D01*
X155116367Y-118079985D01*
X155108184Y-118078907D01*
X155108178Y-118078906D01*
X154973588Y-118061188D01*
X154965400Y-118060110D01*
X154957212Y-118061188D01*
X154822621Y-118078906D01*
X154822613Y-118078908D01*
X154814433Y-118079985D01*
X154806806Y-118083144D01*
X154806803Y-118083145D01*
X154681384Y-118135095D01*
X154681378Y-118135098D01*
X154673755Y-118138256D01*
X154667206Y-118143280D01*
X154667201Y-118143284D01*
X154559502Y-118225925D01*
X154559497Y-118225929D01*
X154552952Y-118230952D01*
X154547929Y-118237497D01*
X154547925Y-118237502D01*
X154465284Y-118345201D01*
X154465280Y-118345206D01*
X154460256Y-118351755D01*
X154457098Y-118359378D01*
X154457095Y-118359384D01*
X154405145Y-118484803D01*
X154401985Y-118492433D01*
X154400908Y-118500613D01*
X154400906Y-118500621D01*
X154393288Y-118558491D01*
X154382110Y-118643400D01*
X154383188Y-118651588D01*
X154383188Y-118651591D01*
X154391956Y-118718199D01*
X154386347Y-118775145D01*
X154356129Y-118823738D01*
X147129674Y-126050195D01*
X147088797Y-126077509D01*
X147040579Y-126087100D01*
X139927448Y-126087100D01*
X139871720Y-126074106D01*
X139827486Y-126037804D01*
X139812679Y-126018507D01*
X139812673Y-126018501D01*
X139807648Y-126011952D01*
X139777097Y-125988509D01*
X139693398Y-125924284D01*
X139693396Y-125924283D01*
X139686845Y-125919256D01*
X139679218Y-125916096D01*
X139679215Y-125916095D01*
X139553796Y-125864145D01*
X139553795Y-125864144D01*
X139546167Y-125860985D01*
X139537984Y-125859907D01*
X139537978Y-125859906D01*
X139403388Y-125842188D01*
X139395200Y-125841110D01*
X139387012Y-125842188D01*
X139252421Y-125859906D01*
X139252413Y-125859908D01*
X139244233Y-125860985D01*
X139236606Y-125864144D01*
X139236603Y-125864145D01*
X139111184Y-125916095D01*
X139111178Y-125916098D01*
X139103555Y-125919256D01*
X139097006Y-125924280D01*
X139097001Y-125924284D01*
X138989302Y-126006925D01*
X138989297Y-126006929D01*
X138982752Y-126011952D01*
X138977729Y-126018497D01*
X138977725Y-126018502D01*
X138895084Y-126126201D01*
X138895080Y-126126206D01*
X138890056Y-126132755D01*
X138886898Y-126140378D01*
X138886895Y-126140384D01*
X138834945Y-126265803D01*
X138831785Y-126273433D01*
X138830708Y-126281613D01*
X138830706Y-126281621D01*
X138823167Y-126338893D01*
X138811910Y-126424400D01*
X137869700Y-126424400D01*
X137869700Y-124512171D01*
X139454715Y-124512171D01*
X139455793Y-124520359D01*
X139473511Y-124654949D01*
X139473512Y-124654955D01*
X139474590Y-124663138D01*
X139477749Y-124670766D01*
X139477750Y-124670767D01*
X139529700Y-124796186D01*
X139529701Y-124796189D01*
X139532861Y-124803816D01*
X139537888Y-124810367D01*
X139537889Y-124810369D01*
X139599274Y-124890367D01*
X139625557Y-124924619D01*
X139632107Y-124929645D01*
X139711471Y-124990544D01*
X139746360Y-125017315D01*
X139887038Y-125075586D01*
X140038005Y-125095461D01*
X140188972Y-125075586D01*
X140329650Y-125017315D01*
X140450453Y-124924619D01*
X140543149Y-124803816D01*
X140601420Y-124663138D01*
X140621295Y-124512171D01*
X140601420Y-124361204D01*
X140543149Y-124220526D01*
X140528847Y-124201888D01*
X140455479Y-124106273D01*
X140450453Y-124099723D01*
X140423843Y-124079304D01*
X140336203Y-124012055D01*
X140336201Y-124012054D01*
X140329650Y-124007027D01*
X140322023Y-124003867D01*
X140322020Y-124003866D01*
X140196601Y-123951916D01*
X140196600Y-123951915D01*
X140188972Y-123948756D01*
X140180789Y-123947678D01*
X140180783Y-123947677D01*
X140046193Y-123929959D01*
X140038005Y-123928881D01*
X140029817Y-123929959D01*
X139895226Y-123947677D01*
X139895218Y-123947679D01*
X139887038Y-123948756D01*
X139879411Y-123951915D01*
X139879408Y-123951916D01*
X139753989Y-124003866D01*
X139753983Y-124003869D01*
X139746360Y-124007027D01*
X139739811Y-124012051D01*
X139739806Y-124012055D01*
X139632107Y-124094696D01*
X139632102Y-124094700D01*
X139625557Y-124099723D01*
X139620534Y-124106268D01*
X139620530Y-124106273D01*
X139537889Y-124213972D01*
X139537885Y-124213977D01*
X139532861Y-124220526D01*
X139529703Y-124228149D01*
X139529700Y-124228155D01*
X139485194Y-124335603D01*
X139474590Y-124361204D01*
X139473513Y-124369384D01*
X139473511Y-124369392D01*
X139471612Y-124383821D01*
X139454715Y-124512171D01*
X137869700Y-124512171D01*
X137869700Y-124258301D01*
X137869947Y-124254738D01*
X137871995Y-124248629D01*
X137869834Y-124201888D01*
X137869700Y-124196069D01*
X137869700Y-124183716D01*
X137869700Y-124177894D01*
X137868630Y-124172170D01*
X137868560Y-124171414D01*
X137868156Y-124165604D01*
X137867583Y-124153212D01*
X137866758Y-124135356D01*
X137862042Y-124124676D01*
X137860218Y-124116919D01*
X137859144Y-124113451D01*
X137856263Y-124106016D01*
X137854118Y-124094537D01*
X137839959Y-124071671D01*
X137831821Y-124056232D01*
X137825671Y-124042304D01*
X137820956Y-124031625D01*
X137812699Y-124023368D01*
X137808195Y-124016793D01*
X137805939Y-124013945D01*
X137800570Y-124008056D01*
X137794424Y-123998129D01*
X137772956Y-123981917D01*
X137759793Y-123970462D01*
X136906592Y-123117261D01*
X140115792Y-123117261D01*
X140116870Y-123125449D01*
X140134588Y-123260039D01*
X140134589Y-123260045D01*
X140135667Y-123268228D01*
X140138826Y-123275856D01*
X140138827Y-123275857D01*
X140190777Y-123401276D01*
X140190778Y-123401279D01*
X140193938Y-123408906D01*
X140198965Y-123415457D01*
X140198966Y-123415459D01*
X140281607Y-123523158D01*
X140286634Y-123529709D01*
X140407437Y-123622405D01*
X140548115Y-123680676D01*
X140699082Y-123700551D01*
X140850049Y-123680676D01*
X140990727Y-123622405D01*
X141111530Y-123529709D01*
X141204226Y-123408906D01*
X141262497Y-123268228D01*
X141282372Y-123117261D01*
X141266119Y-122993806D01*
X141274632Y-122929143D01*
X141314338Y-122877398D01*
X141374593Y-122852439D01*
X141476567Y-122839015D01*
X141617245Y-122780744D01*
X141738048Y-122688048D01*
X141830744Y-122567245D01*
X141889015Y-122426567D01*
X141908890Y-122275600D01*
X141889015Y-122124633D01*
X141830744Y-121983955D01*
X141738048Y-121863152D01*
X141617245Y-121770456D01*
X141609618Y-121767296D01*
X141609615Y-121767295D01*
X141484196Y-121715345D01*
X141484195Y-121715344D01*
X141476567Y-121712185D01*
X141468384Y-121711107D01*
X141468378Y-121711106D01*
X141333788Y-121693388D01*
X141325600Y-121692310D01*
X141317412Y-121693388D01*
X141182821Y-121711106D01*
X141182813Y-121711108D01*
X141174633Y-121712185D01*
X141167006Y-121715344D01*
X141167003Y-121715345D01*
X141041584Y-121767295D01*
X141041578Y-121767298D01*
X141033955Y-121770456D01*
X141027406Y-121775480D01*
X141027401Y-121775484D01*
X140919702Y-121858125D01*
X140919697Y-121858129D01*
X140913152Y-121863152D01*
X140908129Y-121869697D01*
X140908125Y-121869702D01*
X140825484Y-121977401D01*
X140825480Y-121977406D01*
X140820456Y-121983955D01*
X140817298Y-121991578D01*
X140817295Y-121991584D01*
X140765345Y-122117003D01*
X140762185Y-122124633D01*
X140761108Y-122132813D01*
X140761106Y-122132821D01*
X140753460Y-122190904D01*
X140742310Y-122275600D01*
X140743388Y-122283788D01*
X140743388Y-122283790D01*
X140758562Y-122399054D01*
X140750049Y-122463718D01*
X140710344Y-122515462D01*
X140650087Y-122540421D01*
X140556302Y-122552768D01*
X140556300Y-122552768D01*
X140548115Y-122553846D01*
X140540488Y-122557005D01*
X140540485Y-122557006D01*
X140415066Y-122608956D01*
X140415060Y-122608959D01*
X140407437Y-122612117D01*
X140400888Y-122617141D01*
X140400883Y-122617145D01*
X140293184Y-122699786D01*
X140293179Y-122699790D01*
X140286634Y-122704813D01*
X140281611Y-122711358D01*
X140281607Y-122711363D01*
X140198966Y-122819062D01*
X140198962Y-122819067D01*
X140193938Y-122825616D01*
X140190780Y-122833239D01*
X140190777Y-122833245D01*
X140144230Y-122945621D01*
X140135667Y-122966294D01*
X140134590Y-122974474D01*
X140134588Y-122974482D01*
X140118514Y-123096588D01*
X140115792Y-123117261D01*
X136906592Y-123117261D01*
X136700246Y-122910915D01*
X136697902Y-122908222D01*
X136695031Y-122902455D01*
X136686400Y-122894586D01*
X136686398Y-122894584D01*
X136660447Y-122870926D01*
X136656238Y-122866907D01*
X136647519Y-122858188D01*
X136647518Y-122858187D01*
X136643392Y-122854061D01*
X136638576Y-122850762D01*
X136638012Y-122850294D01*
X136633616Y-122846468D01*
X136626623Y-122840093D01*
X136611233Y-122826062D01*
X136600347Y-122821844D01*
X136593579Y-122817654D01*
X136590353Y-122815953D01*
X136583063Y-122812734D01*
X136573431Y-122806136D01*
X136547246Y-122799977D01*
X136530583Y-122794817D01*
X136516388Y-122789318D01*
X136516382Y-122789316D01*
X136505497Y-122785100D01*
X136493822Y-122785100D01*
X136485995Y-122783637D01*
X136482369Y-122783216D01*
X136474413Y-122782848D01*
X136463050Y-122780176D01*
X136451486Y-122781789D01*
X136436411Y-122783892D01*
X136419003Y-122785100D01*
X136041936Y-122785100D01*
X135986208Y-122772106D01*
X135941977Y-122735807D01*
X135896048Y-122675952D01*
X135819410Y-122617145D01*
X135781798Y-122588284D01*
X135781796Y-122588283D01*
X135775245Y-122583256D01*
X135767618Y-122580096D01*
X135767615Y-122580095D01*
X135642196Y-122528145D01*
X135642195Y-122528144D01*
X135634567Y-122524985D01*
X135626384Y-122523907D01*
X135626378Y-122523906D01*
X135491788Y-122506188D01*
X135483600Y-122505110D01*
X135475412Y-122506188D01*
X135340821Y-122523906D01*
X135340813Y-122523908D01*
X135332633Y-122524985D01*
X135325006Y-122528144D01*
X135325003Y-122528145D01*
X135199584Y-122580095D01*
X135199578Y-122580098D01*
X135191955Y-122583256D01*
X135185406Y-122588280D01*
X135185401Y-122588284D01*
X135077702Y-122670925D01*
X135077697Y-122670929D01*
X135071152Y-122675952D01*
X135066129Y-122682497D01*
X135066125Y-122682502D01*
X134983484Y-122790201D01*
X134983480Y-122790206D01*
X134978456Y-122796755D01*
X134975298Y-122804378D01*
X134975295Y-122804384D01*
X134923345Y-122929803D01*
X134920185Y-122937433D01*
X134919108Y-122945613D01*
X134919106Y-122945621D01*
X134912763Y-122993807D01*
X134900310Y-123088400D01*
X132762931Y-123088400D01*
X128948931Y-119274400D01*
X139609468Y-119274400D01*
X139610546Y-119282588D01*
X139628264Y-119417178D01*
X139628265Y-119417184D01*
X139629343Y-119425367D01*
X139632502Y-119432995D01*
X139632503Y-119432996D01*
X139684453Y-119558415D01*
X139684454Y-119558418D01*
X139687614Y-119566045D01*
X139692641Y-119572596D01*
X139692642Y-119572598D01*
X139748185Y-119644982D01*
X139780310Y-119686848D01*
X139901113Y-119779544D01*
X140041791Y-119837815D01*
X140192758Y-119857690D01*
X140343725Y-119837815D01*
X140484403Y-119779544D01*
X140605206Y-119686848D01*
X140697902Y-119566045D01*
X140756173Y-119425367D01*
X140776048Y-119274400D01*
X140756173Y-119123433D01*
X140697902Y-118982755D01*
X140605206Y-118861952D01*
X140555405Y-118823738D01*
X140490956Y-118774284D01*
X140490954Y-118774283D01*
X140484403Y-118769256D01*
X140476776Y-118766096D01*
X140476773Y-118766095D01*
X140351354Y-118714145D01*
X140351353Y-118714144D01*
X140343725Y-118710985D01*
X140335542Y-118709907D01*
X140335536Y-118709906D01*
X140200946Y-118692188D01*
X140192758Y-118691110D01*
X140184570Y-118692188D01*
X140049979Y-118709906D01*
X140049971Y-118709908D01*
X140041791Y-118710985D01*
X140034164Y-118714144D01*
X140034161Y-118714145D01*
X139908742Y-118766095D01*
X139908736Y-118766098D01*
X139901113Y-118769256D01*
X139894564Y-118774280D01*
X139894559Y-118774284D01*
X139786860Y-118856925D01*
X139786855Y-118856929D01*
X139780310Y-118861952D01*
X139775287Y-118868497D01*
X139775283Y-118868502D01*
X139692642Y-118976201D01*
X139692638Y-118976206D01*
X139687614Y-118982755D01*
X139684456Y-118990378D01*
X139684453Y-118990384D01*
X139632503Y-119115803D01*
X139629343Y-119123433D01*
X139628266Y-119131613D01*
X139628264Y-119131621D01*
X139616307Y-119222451D01*
X139609468Y-119274400D01*
X128948931Y-119274400D01*
X128292531Y-118618000D01*
X135509910Y-118618000D01*
X135510988Y-118626188D01*
X135528706Y-118760778D01*
X135528707Y-118760784D01*
X135529785Y-118768967D01*
X135532944Y-118776595D01*
X135532945Y-118776596D01*
X135584895Y-118902015D01*
X135584896Y-118902018D01*
X135588056Y-118909645D01*
X135593083Y-118916196D01*
X135593084Y-118916198D01*
X135675725Y-119023897D01*
X135680752Y-119030448D01*
X135801555Y-119123144D01*
X135942233Y-119181415D01*
X136093200Y-119201290D01*
X136244167Y-119181415D01*
X136384845Y-119123144D01*
X136505648Y-119030448D01*
X136598344Y-118909645D01*
X136656615Y-118768967D01*
X136676490Y-118618000D01*
X136660743Y-118498388D01*
X136657693Y-118475221D01*
X136657692Y-118475220D01*
X136656615Y-118467033D01*
X136598344Y-118326355D01*
X136505648Y-118205552D01*
X136452855Y-118165042D01*
X136391398Y-118117884D01*
X136391396Y-118117883D01*
X136384845Y-118112856D01*
X136377218Y-118109696D01*
X136377215Y-118109695D01*
X136251796Y-118057745D01*
X136251795Y-118057744D01*
X136244167Y-118054585D01*
X136235984Y-118053507D01*
X136235978Y-118053506D01*
X136101388Y-118035788D01*
X136093200Y-118034710D01*
X136085012Y-118035788D01*
X135950421Y-118053506D01*
X135950413Y-118053508D01*
X135942233Y-118054585D01*
X135934606Y-118057744D01*
X135934603Y-118057745D01*
X135809184Y-118109695D01*
X135809178Y-118109698D01*
X135801555Y-118112856D01*
X135795006Y-118117880D01*
X135795001Y-118117884D01*
X135687302Y-118200525D01*
X135687297Y-118200529D01*
X135680752Y-118205552D01*
X135675729Y-118212097D01*
X135675725Y-118212102D01*
X135593084Y-118319801D01*
X135593080Y-118319806D01*
X135588056Y-118326355D01*
X135584898Y-118333978D01*
X135584895Y-118333984D01*
X135532945Y-118459403D01*
X135529785Y-118467033D01*
X135528708Y-118475213D01*
X135528706Y-118475221D01*
X135511632Y-118604913D01*
X135509910Y-118618000D01*
X128292531Y-118618000D01*
X127650810Y-117976279D01*
X131578161Y-117976279D01*
X131579239Y-117984467D01*
X131596957Y-118119057D01*
X131596958Y-118119063D01*
X131598036Y-118127246D01*
X131601195Y-118134874D01*
X131601196Y-118134875D01*
X131653146Y-118260294D01*
X131653147Y-118260297D01*
X131656307Y-118267924D01*
X131661334Y-118274475D01*
X131661335Y-118274477D01*
X131743976Y-118382176D01*
X131749003Y-118388727D01*
X131869806Y-118481423D01*
X132010484Y-118539694D01*
X132161451Y-118559569D01*
X132312418Y-118539694D01*
X132453096Y-118481423D01*
X132573899Y-118388727D01*
X132666595Y-118267924D01*
X132724866Y-118127246D01*
X132744741Y-117976279D01*
X132731614Y-117876565D01*
X132725944Y-117833500D01*
X132725943Y-117833499D01*
X132724866Y-117825312D01*
X132666595Y-117684634D01*
X132573899Y-117563831D01*
X132567348Y-117558804D01*
X132459649Y-117476163D01*
X132459647Y-117476162D01*
X132453096Y-117471135D01*
X132445469Y-117467975D01*
X132445466Y-117467974D01*
X132406177Y-117451700D01*
X151481810Y-117451700D01*
X151482888Y-117459888D01*
X151500606Y-117594478D01*
X151500607Y-117594484D01*
X151501685Y-117602667D01*
X151504844Y-117610295D01*
X151504845Y-117610296D01*
X151556795Y-117735715D01*
X151556796Y-117735718D01*
X151559956Y-117743345D01*
X151652652Y-117864148D01*
X151773455Y-117956844D01*
X151914133Y-118015115D01*
X152065100Y-118034990D01*
X152216067Y-118015115D01*
X152356745Y-117956844D01*
X152477548Y-117864148D01*
X152570244Y-117743345D01*
X152628515Y-117602667D01*
X152641979Y-117500400D01*
X161399724Y-117500400D01*
X161419578Y-117701982D01*
X161421373Y-117707900D01*
X161421374Y-117707904D01*
X161475087Y-117884972D01*
X161478377Y-117895818D01*
X161573862Y-118074457D01*
X161577787Y-118079239D01*
X161577788Y-118079241D01*
X161698169Y-118225925D01*
X161702364Y-118231036D01*
X161858943Y-118359538D01*
X162037582Y-118455023D01*
X162231418Y-118513822D01*
X162433000Y-118533676D01*
X162634582Y-118513822D01*
X162828418Y-118455023D01*
X163007057Y-118359538D01*
X163163636Y-118231036D01*
X163292138Y-118074457D01*
X163387623Y-117895818D01*
X163446422Y-117701982D01*
X163466276Y-117500400D01*
X163446422Y-117298818D01*
X163387623Y-117104982D01*
X163292138Y-116926343D01*
X163163636Y-116769764D01*
X163007057Y-116641262D01*
X162828418Y-116545777D01*
X162822497Y-116543981D01*
X162822495Y-116543980D01*
X162640504Y-116488774D01*
X162640500Y-116488773D01*
X162634582Y-116486978D01*
X162433000Y-116467124D01*
X162426837Y-116467731D01*
X162237580Y-116486371D01*
X162237579Y-116486371D01*
X162231418Y-116486978D01*
X162225501Y-116488772D01*
X162225495Y-116488774D01*
X162043504Y-116543980D01*
X162043498Y-116543982D01*
X162037582Y-116545777D01*
X162032124Y-116548694D01*
X162032120Y-116548696D01*
X161864402Y-116638344D01*
X161858943Y-116641262D01*
X161854164Y-116645183D01*
X161854158Y-116645188D01*
X161707143Y-116765841D01*
X161707137Y-116765846D01*
X161702364Y-116769764D01*
X161698446Y-116774537D01*
X161698441Y-116774543D01*
X161577788Y-116921558D01*
X161577783Y-116921564D01*
X161573862Y-116926343D01*
X161570944Y-116931801D01*
X161570944Y-116931802D01*
X161481296Y-117099520D01*
X161481294Y-117099524D01*
X161478377Y-117104982D01*
X161476582Y-117110898D01*
X161476580Y-117110904D01*
X161421374Y-117292895D01*
X161421372Y-117292901D01*
X161419578Y-117298818D01*
X161418971Y-117304979D01*
X161418971Y-117304980D01*
X161403714Y-117459888D01*
X161399724Y-117500400D01*
X152641979Y-117500400D01*
X152648390Y-117451700D01*
X152628515Y-117300733D01*
X152570244Y-117160055D01*
X152477548Y-117039252D01*
X152356745Y-116946556D01*
X152349118Y-116943396D01*
X152349115Y-116943395D01*
X152223696Y-116891445D01*
X152223695Y-116891444D01*
X152216067Y-116888285D01*
X152207884Y-116887207D01*
X152207878Y-116887206D01*
X152073288Y-116869488D01*
X152065100Y-116868410D01*
X152056912Y-116869488D01*
X151922321Y-116887206D01*
X151922313Y-116887208D01*
X151914133Y-116888285D01*
X151906506Y-116891444D01*
X151906503Y-116891445D01*
X151781084Y-116943395D01*
X151781078Y-116943398D01*
X151773455Y-116946556D01*
X151766906Y-116951580D01*
X151766901Y-116951584D01*
X151659202Y-117034225D01*
X151659197Y-117034229D01*
X151652652Y-117039252D01*
X151647629Y-117045797D01*
X151647625Y-117045802D01*
X151564984Y-117153501D01*
X151564980Y-117153506D01*
X151559956Y-117160055D01*
X151556798Y-117167678D01*
X151556795Y-117167684D01*
X151504845Y-117293103D01*
X151501685Y-117300733D01*
X151500608Y-117308913D01*
X151500606Y-117308921D01*
X151489539Y-117392989D01*
X151481810Y-117451700D01*
X132406177Y-117451700D01*
X132320047Y-117416024D01*
X132320046Y-117416023D01*
X132312418Y-117412864D01*
X132304235Y-117411786D01*
X132304229Y-117411785D01*
X132169639Y-117394067D01*
X132161451Y-117392989D01*
X132153263Y-117394067D01*
X132018672Y-117411785D01*
X132018664Y-117411787D01*
X132010484Y-117412864D01*
X132002857Y-117416023D01*
X132002854Y-117416024D01*
X131877435Y-117467974D01*
X131877429Y-117467977D01*
X131869806Y-117471135D01*
X131863257Y-117476159D01*
X131863252Y-117476163D01*
X131755553Y-117558804D01*
X131755548Y-117558808D01*
X131749003Y-117563831D01*
X131743980Y-117570376D01*
X131743976Y-117570381D01*
X131661335Y-117678080D01*
X131661331Y-117678085D01*
X131656307Y-117684634D01*
X131653149Y-117692257D01*
X131653146Y-117692263D01*
X131601196Y-117817682D01*
X131598036Y-117825312D01*
X131596959Y-117833492D01*
X131596957Y-117833500D01*
X131587535Y-117905076D01*
X131578161Y-117976279D01*
X127650810Y-117976279D01*
X127616512Y-117941981D01*
X127589198Y-117901104D01*
X127579607Y-117852886D01*
X127579607Y-115821768D01*
X161404700Y-115821768D01*
X161404701Y-115821774D01*
X161404701Y-115827960D01*
X161415045Y-115879969D01*
X161454453Y-115938947D01*
X161513431Y-115978355D01*
X161565439Y-115988700D01*
X163300560Y-115988699D01*
X163352569Y-115978355D01*
X163411547Y-115938947D01*
X163450955Y-115879969D01*
X163461300Y-115827961D01*
X163461299Y-114092840D01*
X163450955Y-114040831D01*
X163411547Y-113981853D01*
X163352569Y-113942445D01*
X163340399Y-113940024D01*
X163340396Y-113940023D01*
X163306629Y-113933307D01*
X163300561Y-113932100D01*
X163294374Y-113932100D01*
X161571631Y-113932100D01*
X161571620Y-113932100D01*
X161565440Y-113932101D01*
X161559372Y-113933307D01*
X161559370Y-113933308D01*
X161525603Y-113940024D01*
X161525602Y-113940024D01*
X161513431Y-113942445D01*
X161503111Y-113949340D01*
X161503110Y-113949341D01*
X161464768Y-113974960D01*
X161464765Y-113974962D01*
X161454453Y-113981853D01*
X161447562Y-113992165D01*
X161447560Y-113992168D01*
X161421940Y-114030511D01*
X161421938Y-114030513D01*
X161415045Y-114040831D01*
X161412624Y-114052999D01*
X161412623Y-114053003D01*
X161407737Y-114077570D01*
X161404700Y-114092839D01*
X161404700Y-114099024D01*
X161404700Y-114099025D01*
X161404700Y-115821768D01*
X127579607Y-115821768D01*
X127579607Y-114385100D01*
X131039510Y-114385100D01*
X131040588Y-114393288D01*
X131058306Y-114527878D01*
X131058307Y-114527884D01*
X131059385Y-114536067D01*
X131062544Y-114543695D01*
X131062545Y-114543696D01*
X131114495Y-114669115D01*
X131114496Y-114669118D01*
X131117656Y-114676745D01*
X131122683Y-114683296D01*
X131122684Y-114683298D01*
X131205325Y-114790997D01*
X131210352Y-114797548D01*
X131331155Y-114890244D01*
X131471833Y-114948515D01*
X131480020Y-114949592D01*
X131480021Y-114949593D01*
X131547316Y-114958452D01*
X131622800Y-114968390D01*
X131768006Y-114949273D01*
X131824950Y-114954882D01*
X131873544Y-114985099D01*
X131903762Y-115033693D01*
X131909371Y-115090641D01*
X131903110Y-115138200D01*
X131904188Y-115146388D01*
X131921906Y-115280978D01*
X131921907Y-115280984D01*
X131922985Y-115289167D01*
X131926144Y-115296795D01*
X131926145Y-115296796D01*
X131978095Y-115422215D01*
X131978096Y-115422218D01*
X131981256Y-115429845D01*
X132073952Y-115550648D01*
X132194755Y-115643344D01*
X132335433Y-115701615D01*
X132486400Y-115721490D01*
X132637367Y-115701615D01*
X132778045Y-115643344D01*
X132898848Y-115550648D01*
X132991544Y-115429845D01*
X133049815Y-115289167D01*
X133069690Y-115138200D01*
X133049815Y-114987233D01*
X132991544Y-114846555D01*
X132898848Y-114725752D01*
X132858996Y-114695172D01*
X132784598Y-114638084D01*
X132784596Y-114638083D01*
X132778045Y-114633056D01*
X132770418Y-114629896D01*
X132770415Y-114629895D01*
X132644996Y-114577945D01*
X132644995Y-114577944D01*
X132637367Y-114574785D01*
X132629184Y-114573707D01*
X132629178Y-114573706D01*
X132494588Y-114555988D01*
X132486400Y-114554910D01*
X132478212Y-114555988D01*
X132341196Y-114574026D01*
X132284248Y-114568417D01*
X132235654Y-114538199D01*
X132205436Y-114489604D01*
X132199828Y-114432660D01*
X132206090Y-114385100D01*
X132186215Y-114234133D01*
X132127944Y-114093455D01*
X132035248Y-113972652D01*
X132004869Y-113949341D01*
X131920998Y-113884984D01*
X131920996Y-113884983D01*
X131914445Y-113879956D01*
X131906818Y-113876796D01*
X131906815Y-113876795D01*
X131781396Y-113824845D01*
X131781395Y-113824844D01*
X131773767Y-113821685D01*
X131765584Y-113820607D01*
X131765578Y-113820606D01*
X131630988Y-113802888D01*
X131622800Y-113801810D01*
X131614612Y-113802888D01*
X131480021Y-113820606D01*
X131480013Y-113820608D01*
X131471833Y-113821685D01*
X131464206Y-113824844D01*
X131464203Y-113824845D01*
X131338784Y-113876795D01*
X131338778Y-113876798D01*
X131331155Y-113879956D01*
X131324606Y-113884980D01*
X131324601Y-113884984D01*
X131216902Y-113967625D01*
X131216897Y-113967629D01*
X131210352Y-113972652D01*
X131205329Y-113979197D01*
X131205325Y-113979202D01*
X131122684Y-114086901D01*
X131122680Y-114086906D01*
X131117656Y-114093455D01*
X131114498Y-114101078D01*
X131114495Y-114101084D01*
X131062545Y-114226503D01*
X131059385Y-114234133D01*
X131058308Y-114242313D01*
X131058306Y-114242321D01*
X131041232Y-114372013D01*
X131039510Y-114385100D01*
X127579607Y-114385100D01*
X127579607Y-113222359D01*
X128039083Y-113222359D01*
X128058937Y-113423941D01*
X128117736Y-113617777D01*
X128213221Y-113796416D01*
X128217146Y-113801198D01*
X128217147Y-113801200D01*
X128325565Y-113933307D01*
X128341723Y-113952995D01*
X128498302Y-114081497D01*
X128676941Y-114176982D01*
X128870777Y-114235781D01*
X129072359Y-114255635D01*
X129273941Y-114235781D01*
X129467777Y-114176982D01*
X129646416Y-114081497D01*
X129802995Y-113952995D01*
X129931497Y-113796416D01*
X130026982Y-113617777D01*
X130085781Y-113423941D01*
X130105635Y-113222359D01*
X130085781Y-113020777D01*
X130026982Y-112826941D01*
X129931497Y-112648302D01*
X129802995Y-112491723D01*
X129763091Y-112458974D01*
X129651200Y-112367147D01*
X129651198Y-112367146D01*
X129646416Y-112363221D01*
X129467777Y-112267736D01*
X129461856Y-112265940D01*
X129461854Y-112265939D01*
X129279863Y-112210733D01*
X129279859Y-112210732D01*
X129273941Y-112208937D01*
X129072359Y-112189083D01*
X129066196Y-112189690D01*
X128876939Y-112208330D01*
X128876938Y-112208330D01*
X128870777Y-112208937D01*
X128864860Y-112210731D01*
X128864854Y-112210733D01*
X128682863Y-112265939D01*
X128682857Y-112265941D01*
X128676941Y-112267736D01*
X128671483Y-112270653D01*
X128671479Y-112270655D01*
X128523237Y-112349893D01*
X128498302Y-112363221D01*
X128493523Y-112367142D01*
X128493517Y-112367147D01*
X128346502Y-112487800D01*
X128346496Y-112487805D01*
X128341723Y-112491723D01*
X128337805Y-112496496D01*
X128337800Y-112496502D01*
X128217147Y-112643517D01*
X128217142Y-112643523D01*
X128213221Y-112648302D01*
X128210303Y-112653760D01*
X128210303Y-112653761D01*
X128120655Y-112821479D01*
X128120653Y-112821483D01*
X128117736Y-112826941D01*
X128115941Y-112832857D01*
X128115939Y-112832863D01*
X128060733Y-113014854D01*
X128060731Y-113014860D01*
X128058937Y-113020777D01*
X128039083Y-113222359D01*
X127579607Y-113222359D01*
X127579607Y-112502322D01*
X127590838Y-112450322D01*
X127622528Y-112407592D01*
X127660627Y-112386417D01*
X127660081Y-112385097D01*
X127665806Y-112382725D01*
X127671725Y-112380930D01*
X127850364Y-112285445D01*
X128006943Y-112156943D01*
X128135445Y-112000364D01*
X128230930Y-111821725D01*
X128241949Y-111785400D01*
X141809110Y-111785400D01*
X141810188Y-111793588D01*
X141827906Y-111928178D01*
X141827907Y-111928184D01*
X141828985Y-111936367D01*
X141832144Y-111943995D01*
X141832145Y-111943996D01*
X141884095Y-112069415D01*
X141884096Y-112069418D01*
X141887256Y-112077045D01*
X141979952Y-112197848D01*
X142100755Y-112290544D01*
X142241433Y-112348815D01*
X142392400Y-112368690D01*
X142543367Y-112348815D01*
X142684045Y-112290544D01*
X142804848Y-112197848D01*
X142897544Y-112077045D01*
X142912267Y-112041500D01*
X157806410Y-112041500D01*
X157807488Y-112049688D01*
X157825206Y-112184278D01*
X157825207Y-112184284D01*
X157826285Y-112192467D01*
X157829444Y-112200095D01*
X157829445Y-112200096D01*
X157881395Y-112325515D01*
X157881396Y-112325518D01*
X157884556Y-112333145D01*
X157889583Y-112339696D01*
X157889584Y-112339698D01*
X157972225Y-112447397D01*
X157977252Y-112453948D01*
X157983802Y-112458974D01*
X158021368Y-112487800D01*
X158098055Y-112546644D01*
X158238733Y-112604915D01*
X158389700Y-112624790D01*
X158540667Y-112604915D01*
X158681345Y-112546644D01*
X158802148Y-112453948D01*
X158894844Y-112333145D01*
X158953115Y-112192467D01*
X158972990Y-112041500D01*
X158953115Y-111890533D01*
X158894844Y-111749855D01*
X158802148Y-111629052D01*
X158681345Y-111536356D01*
X158673718Y-111533196D01*
X158673715Y-111533195D01*
X158548296Y-111481245D01*
X158548295Y-111481244D01*
X158540667Y-111478085D01*
X158532484Y-111477007D01*
X158532478Y-111477006D01*
X158397888Y-111459288D01*
X158389700Y-111458210D01*
X158381512Y-111459288D01*
X158246921Y-111477006D01*
X158246913Y-111477008D01*
X158238733Y-111478085D01*
X158231106Y-111481244D01*
X158231103Y-111481245D01*
X158105684Y-111533195D01*
X158105678Y-111533198D01*
X158098055Y-111536356D01*
X158091506Y-111541380D01*
X158091501Y-111541384D01*
X157983802Y-111624025D01*
X157983797Y-111624029D01*
X157977252Y-111629052D01*
X157972229Y-111635597D01*
X157972225Y-111635602D01*
X157889584Y-111743301D01*
X157889580Y-111743306D01*
X157884556Y-111749855D01*
X157881398Y-111757478D01*
X157881395Y-111757484D01*
X157854786Y-111821725D01*
X157826285Y-111890533D01*
X157825208Y-111898713D01*
X157825206Y-111898721D01*
X157811196Y-112005148D01*
X157806410Y-112041500D01*
X142912267Y-112041500D01*
X142955815Y-111936367D01*
X142975690Y-111785400D01*
X142955815Y-111634433D01*
X142897544Y-111493755D01*
X142804848Y-111372952D01*
X142798297Y-111367925D01*
X142690598Y-111285284D01*
X142690596Y-111285283D01*
X142684045Y-111280256D01*
X142676418Y-111277096D01*
X142676415Y-111277095D01*
X142550996Y-111225145D01*
X142550995Y-111225144D01*
X142543367Y-111221985D01*
X142535184Y-111220907D01*
X142535178Y-111220906D01*
X142400588Y-111203188D01*
X142392400Y-111202110D01*
X142384212Y-111203188D01*
X142249621Y-111220906D01*
X142249613Y-111220908D01*
X142241433Y-111221985D01*
X142233806Y-111225144D01*
X142233803Y-111225145D01*
X142108384Y-111277095D01*
X142108378Y-111277098D01*
X142100755Y-111280256D01*
X142094206Y-111285280D01*
X142094201Y-111285284D01*
X141986502Y-111367925D01*
X141986497Y-111367929D01*
X141979952Y-111372952D01*
X141974929Y-111379497D01*
X141974925Y-111379502D01*
X141892284Y-111487201D01*
X141892280Y-111487206D01*
X141887256Y-111493755D01*
X141884098Y-111501378D01*
X141884095Y-111501384D01*
X141867527Y-111541384D01*
X141828985Y-111634433D01*
X141827908Y-111642613D01*
X141827906Y-111642621D01*
X141812785Y-111757484D01*
X141809110Y-111785400D01*
X128241949Y-111785400D01*
X128289729Y-111627889D01*
X128309583Y-111426307D01*
X128289729Y-111224725D01*
X128230930Y-111030889D01*
X128135445Y-110852250D01*
X128129987Y-110845600D01*
X134392310Y-110845600D01*
X134393388Y-110853788D01*
X134411106Y-110988378D01*
X134411107Y-110988384D01*
X134412185Y-110996567D01*
X134415344Y-111004195D01*
X134415345Y-111004196D01*
X134467295Y-111129615D01*
X134467296Y-111129618D01*
X134470456Y-111137245D01*
X134475483Y-111143796D01*
X134475484Y-111143798D01*
X134537582Y-111224725D01*
X134563152Y-111258048D01*
X134683955Y-111350744D01*
X134824633Y-111409015D01*
X134975600Y-111428890D01*
X135126567Y-111409015D01*
X135267245Y-111350744D01*
X135388048Y-111258048D01*
X135480744Y-111137245D01*
X135539015Y-110996567D01*
X135558890Y-110845600D01*
X135539015Y-110694633D01*
X135538421Y-110693200D01*
X136983110Y-110693200D01*
X136984188Y-110701388D01*
X137001906Y-110835978D01*
X137001907Y-110835984D01*
X137002985Y-110844167D01*
X137006144Y-110851795D01*
X137006145Y-110851796D01*
X137058095Y-110977215D01*
X137058096Y-110977218D01*
X137061256Y-110984845D01*
X137066283Y-110991396D01*
X137066284Y-110991398D01*
X137092396Y-111025427D01*
X137153952Y-111105648D01*
X137274755Y-111198344D01*
X137415433Y-111256615D01*
X137566400Y-111276490D01*
X137717367Y-111256615D01*
X137858045Y-111198344D01*
X137978848Y-111105648D01*
X138071544Y-110984845D01*
X138129815Y-110844167D01*
X138149690Y-110693200D01*
X138139658Y-110617000D01*
X140716910Y-110617000D01*
X140717988Y-110625188D01*
X140735706Y-110759778D01*
X140735707Y-110759784D01*
X140736785Y-110767967D01*
X140739944Y-110775595D01*
X140739945Y-110775596D01*
X140791895Y-110901015D01*
X140791896Y-110901018D01*
X140795056Y-110908645D01*
X140800083Y-110915196D01*
X140800084Y-110915198D01*
X140858555Y-110991398D01*
X140887752Y-111029448D01*
X141008555Y-111122144D01*
X141149233Y-111180415D01*
X141300200Y-111200290D01*
X141451167Y-111180415D01*
X141591845Y-111122144D01*
X141712648Y-111029448D01*
X141805344Y-110908645D01*
X141863615Y-110767967D01*
X141883490Y-110617000D01*
X141863615Y-110466033D01*
X141805344Y-110325355D01*
X141712648Y-110204552D01*
X141687031Y-110184895D01*
X141598398Y-110116884D01*
X141598396Y-110116883D01*
X141591845Y-110111856D01*
X141584218Y-110108696D01*
X141584215Y-110108695D01*
X141458796Y-110056745D01*
X141458795Y-110056744D01*
X141451167Y-110053585D01*
X141442984Y-110052507D01*
X141442978Y-110052506D01*
X141308388Y-110034788D01*
X141300200Y-110033710D01*
X141292012Y-110034788D01*
X141157421Y-110052506D01*
X141157413Y-110052508D01*
X141149233Y-110053585D01*
X141141606Y-110056744D01*
X141141603Y-110056745D01*
X141016184Y-110108695D01*
X141016178Y-110108698D01*
X141008555Y-110111856D01*
X141002006Y-110116880D01*
X141002001Y-110116884D01*
X140894302Y-110199525D01*
X140894297Y-110199529D01*
X140887752Y-110204552D01*
X140882729Y-110211097D01*
X140882725Y-110211102D01*
X140800084Y-110318801D01*
X140800080Y-110318806D01*
X140795056Y-110325355D01*
X140791898Y-110332978D01*
X140791895Y-110332984D01*
X140739945Y-110458403D01*
X140736785Y-110466033D01*
X140735708Y-110474213D01*
X140735706Y-110474221D01*
X140723854Y-110564251D01*
X140716910Y-110617000D01*
X138139658Y-110617000D01*
X138129815Y-110542233D01*
X138071544Y-110401555D01*
X138043351Y-110364814D01*
X137983874Y-110287302D01*
X137978848Y-110280752D01*
X137972297Y-110275725D01*
X137864598Y-110193084D01*
X137864596Y-110193083D01*
X137858045Y-110188056D01*
X137850418Y-110184896D01*
X137850415Y-110184895D01*
X137724996Y-110132945D01*
X137724995Y-110132944D01*
X137717367Y-110129785D01*
X137709184Y-110128707D01*
X137709178Y-110128706D01*
X137574588Y-110110988D01*
X137566400Y-110109910D01*
X137558212Y-110110988D01*
X137423621Y-110128706D01*
X137423613Y-110128708D01*
X137415433Y-110129785D01*
X137407806Y-110132944D01*
X137407803Y-110132945D01*
X137282384Y-110184895D01*
X137282378Y-110184898D01*
X137274755Y-110188056D01*
X137268206Y-110193080D01*
X137268201Y-110193084D01*
X137160502Y-110275725D01*
X137160497Y-110275729D01*
X137153952Y-110280752D01*
X137148929Y-110287297D01*
X137148925Y-110287302D01*
X137066284Y-110395001D01*
X137066280Y-110395006D01*
X137061256Y-110401555D01*
X137058098Y-110409178D01*
X137058095Y-110409184D01*
X137023663Y-110492311D01*
X137002985Y-110542233D01*
X137001908Y-110550413D01*
X137001906Y-110550421D01*
X136989550Y-110644284D01*
X136983110Y-110693200D01*
X135538421Y-110693200D01*
X135480744Y-110553955D01*
X135388048Y-110433152D01*
X135344566Y-110399787D01*
X135304864Y-110348044D01*
X135296351Y-110283380D01*
X135321311Y-110223122D01*
X135373056Y-110183418D01*
X135437716Y-110174905D01*
X135509000Y-110184290D01*
X135659967Y-110164415D01*
X135800645Y-110106144D01*
X135921448Y-110013448D01*
X136014144Y-109892645D01*
X136072415Y-109751967D01*
X136092290Y-109601000D01*
X136072415Y-109450033D01*
X136014144Y-109309355D01*
X135954076Y-109231074D01*
X135926474Y-109195102D01*
X135921448Y-109188552D01*
X135800645Y-109095856D01*
X135793018Y-109092696D01*
X135793015Y-109092695D01*
X135667596Y-109040745D01*
X135667595Y-109040744D01*
X135659967Y-109037585D01*
X135651784Y-109036507D01*
X135651778Y-109036506D01*
X135517188Y-109018788D01*
X135509000Y-109017710D01*
X135500812Y-109018788D01*
X135366221Y-109036506D01*
X135366213Y-109036508D01*
X135358033Y-109037585D01*
X135350406Y-109040744D01*
X135350403Y-109040745D01*
X135224984Y-109092695D01*
X135224978Y-109092698D01*
X135217355Y-109095856D01*
X135210806Y-109100880D01*
X135210801Y-109100884D01*
X135103102Y-109183525D01*
X135103097Y-109183529D01*
X135096552Y-109188552D01*
X135091529Y-109195097D01*
X135091525Y-109195102D01*
X135008884Y-109302801D01*
X135008880Y-109302806D01*
X135003856Y-109309355D01*
X135000698Y-109316978D01*
X135000695Y-109316984D01*
X134948745Y-109442403D01*
X134945585Y-109450033D01*
X134944508Y-109458213D01*
X134944506Y-109458221D01*
X134927432Y-109587913D01*
X134925710Y-109601000D01*
X134926788Y-109609188D01*
X134944506Y-109743778D01*
X134944507Y-109743784D01*
X134945585Y-109751967D01*
X134948744Y-109759595D01*
X134948745Y-109759596D01*
X135000695Y-109885015D01*
X135000696Y-109885018D01*
X135003856Y-109892645D01*
X135008883Y-109899196D01*
X135008884Y-109899198D01*
X135059807Y-109965561D01*
X135096552Y-110013448D01*
X135103102Y-110018474D01*
X135140030Y-110046810D01*
X135179735Y-110098554D01*
X135188248Y-110163218D01*
X135163289Y-110223476D01*
X135111544Y-110263181D01*
X135046880Y-110271694D01*
X134983788Y-110263388D01*
X134975600Y-110262310D01*
X134967412Y-110263388D01*
X134832821Y-110281106D01*
X134832813Y-110281108D01*
X134824633Y-110282185D01*
X134817006Y-110285344D01*
X134817003Y-110285345D01*
X134691584Y-110337295D01*
X134691578Y-110337298D01*
X134683955Y-110340456D01*
X134677406Y-110345480D01*
X134677401Y-110345484D01*
X134569702Y-110428125D01*
X134569697Y-110428129D01*
X134563152Y-110433152D01*
X134558129Y-110439697D01*
X134558125Y-110439702D01*
X134475484Y-110547401D01*
X134475480Y-110547406D01*
X134470456Y-110553955D01*
X134467298Y-110561578D01*
X134467295Y-110561584D01*
X134416170Y-110685012D01*
X134412185Y-110694633D01*
X134411108Y-110702813D01*
X134411106Y-110702821D01*
X134402530Y-110767967D01*
X134392310Y-110845600D01*
X128129987Y-110845600D01*
X128006943Y-110695671D01*
X127850364Y-110567169D01*
X127671725Y-110471684D01*
X127665804Y-110469888D01*
X127665802Y-110469887D01*
X127483811Y-110414681D01*
X127483807Y-110414680D01*
X127477889Y-110412885D01*
X127276307Y-110393031D01*
X127270144Y-110393638D01*
X127080887Y-110412278D01*
X127080886Y-110412278D01*
X127074725Y-110412885D01*
X127068808Y-110414679D01*
X127068802Y-110414681D01*
X126886811Y-110469887D01*
X126886805Y-110469889D01*
X126880889Y-110471684D01*
X126875431Y-110474601D01*
X126875427Y-110474603D01*
X126712699Y-110561584D01*
X126702250Y-110567169D01*
X126697471Y-110571090D01*
X126697465Y-110571095D01*
X126550450Y-110691748D01*
X126550444Y-110691753D01*
X126545671Y-110695671D01*
X126541753Y-110700444D01*
X126541748Y-110700450D01*
X126421095Y-110847465D01*
X126421090Y-110847471D01*
X126417169Y-110852250D01*
X126414251Y-110857708D01*
X126414251Y-110857709D01*
X126324603Y-111025427D01*
X126324601Y-111025431D01*
X126321684Y-111030889D01*
X126319889Y-111036805D01*
X126319887Y-111036811D01*
X126264681Y-111218802D01*
X126264679Y-111218808D01*
X126262885Y-111224725D01*
X126243031Y-111426307D01*
X108991900Y-111426307D01*
X108991900Y-109630256D01*
X124446980Y-109630256D01*
X124466834Y-109831838D01*
X124468629Y-109837756D01*
X124468630Y-109837760D01*
X124507398Y-109965561D01*
X124525633Y-110025674D01*
X124621118Y-110204313D01*
X124625043Y-110209095D01*
X124625044Y-110209097D01*
X124720455Y-110325355D01*
X124749620Y-110360892D01*
X124906199Y-110489394D01*
X125084838Y-110584879D01*
X125278674Y-110643678D01*
X125480256Y-110663532D01*
X125681838Y-110643678D01*
X125875674Y-110584879D01*
X126054313Y-110489394D01*
X126210892Y-110360892D01*
X126339394Y-110204313D01*
X126434879Y-110025674D01*
X126493678Y-109831838D01*
X126513532Y-109630256D01*
X126493678Y-109428674D01*
X126434879Y-109234838D01*
X126339394Y-109056199D01*
X126210892Y-108899620D01*
X126106077Y-108813600D01*
X153950310Y-108813600D01*
X153951388Y-108821788D01*
X153969106Y-108956378D01*
X153969107Y-108956384D01*
X153970185Y-108964567D01*
X153973344Y-108972195D01*
X153973345Y-108972196D01*
X154025295Y-109097615D01*
X154025296Y-109097618D01*
X154028456Y-109105245D01*
X154033483Y-109111796D01*
X154033484Y-109111798D01*
X154088807Y-109183896D01*
X154121152Y-109226048D01*
X154241955Y-109318744D01*
X154382633Y-109377015D01*
X154533600Y-109396890D01*
X154684567Y-109377015D01*
X154825245Y-109318744D01*
X154946048Y-109226048D01*
X155038744Y-109105245D01*
X155097015Y-108964567D01*
X155116890Y-108813600D01*
X155106858Y-108737400D01*
X164734332Y-108737400D01*
X164734811Y-108742875D01*
X164748942Y-108904399D01*
X164754165Y-108964092D01*
X164813061Y-109183896D01*
X164909232Y-109390134D01*
X164912384Y-109394635D01*
X164912386Y-109394639D01*
X165036593Y-109572027D01*
X165036597Y-109572031D01*
X165039753Y-109576539D01*
X165200661Y-109737447D01*
X165205169Y-109740603D01*
X165205172Y-109740606D01*
X165343924Y-109837760D01*
X165387066Y-109867968D01*
X165593304Y-109964139D01*
X165813108Y-110023035D01*
X165983016Y-110037900D01*
X166093844Y-110037900D01*
X166096584Y-110037900D01*
X166266492Y-110023035D01*
X166486296Y-109964139D01*
X166692534Y-109867968D01*
X166878939Y-109737447D01*
X167039847Y-109576539D01*
X167170368Y-109390134D01*
X167266539Y-109183896D01*
X167325435Y-108964092D01*
X167345268Y-108737400D01*
X167325435Y-108510708D01*
X167266539Y-108290904D01*
X167170368Y-108084666D01*
X167167213Y-108080160D01*
X167043006Y-107902772D01*
X167043003Y-107902769D01*
X167039847Y-107898261D01*
X166878939Y-107737353D01*
X166874431Y-107734197D01*
X166874427Y-107734193D01*
X166697039Y-107609986D01*
X166697035Y-107609984D01*
X166692534Y-107606832D01*
X166486296Y-107510661D01*
X166480988Y-107509238D01*
X166480986Y-107509238D01*
X166324843Y-107467400D01*
X166266492Y-107451765D01*
X166261016Y-107451285D01*
X166261011Y-107451285D01*
X166099307Y-107437138D01*
X166099301Y-107437137D01*
X166096584Y-107436900D01*
X165983016Y-107436900D01*
X165980299Y-107437137D01*
X165980292Y-107437138D01*
X165818588Y-107451285D01*
X165818581Y-107451286D01*
X165813108Y-107451765D01*
X165807794Y-107453188D01*
X165807793Y-107453189D01*
X165598613Y-107509238D01*
X165598608Y-107509239D01*
X165593304Y-107510661D01*
X165588327Y-107512981D01*
X165588321Y-107512984D01*
X165392047Y-107604509D01*
X165392044Y-107604510D01*
X165387066Y-107606832D01*
X165382569Y-107609980D01*
X165382560Y-107609986D01*
X165205172Y-107734193D01*
X165205161Y-107734201D01*
X165200661Y-107737353D01*
X165196771Y-107741242D01*
X165196765Y-107741248D01*
X165043648Y-107894365D01*
X165043642Y-107894371D01*
X165039753Y-107898261D01*
X165036601Y-107902761D01*
X165036593Y-107902772D01*
X164912386Y-108080160D01*
X164912380Y-108080169D01*
X164909232Y-108084666D01*
X164906910Y-108089644D01*
X164906909Y-108089647D01*
X164815384Y-108285921D01*
X164815381Y-108285927D01*
X164813061Y-108290904D01*
X164811639Y-108296208D01*
X164811638Y-108296213D01*
X164784867Y-108396125D01*
X164754165Y-108510708D01*
X164753686Y-108516181D01*
X164753685Y-108516188D01*
X164738530Y-108689416D01*
X164734332Y-108737400D01*
X155106858Y-108737400D01*
X155099111Y-108678552D01*
X155098093Y-108670821D01*
X155098092Y-108670820D01*
X155097015Y-108662633D01*
X155038744Y-108521955D01*
X155026035Y-108505393D01*
X154951074Y-108407702D01*
X154946048Y-108401152D01*
X154825245Y-108308456D01*
X154817618Y-108305296D01*
X154817615Y-108305295D01*
X154692196Y-108253345D01*
X154692195Y-108253344D01*
X154684567Y-108250185D01*
X154676384Y-108249107D01*
X154676378Y-108249106D01*
X154541788Y-108231388D01*
X154533600Y-108230310D01*
X154525412Y-108231388D01*
X154390821Y-108249106D01*
X154390813Y-108249108D01*
X154382633Y-108250185D01*
X154375006Y-108253344D01*
X154375003Y-108253345D01*
X154249584Y-108305295D01*
X154249578Y-108305298D01*
X154241955Y-108308456D01*
X154235406Y-108313480D01*
X154235401Y-108313484D01*
X154127702Y-108396125D01*
X154127697Y-108396129D01*
X154121152Y-108401152D01*
X154116129Y-108407697D01*
X154116125Y-108407702D01*
X154033484Y-108515401D01*
X154033480Y-108515406D01*
X154028456Y-108521955D01*
X154025298Y-108529578D01*
X154025295Y-108529584D01*
X153973345Y-108655003D01*
X153970185Y-108662633D01*
X153969108Y-108670813D01*
X153969106Y-108670821D01*
X153959621Y-108742875D01*
X153950310Y-108813600D01*
X126106077Y-108813600D01*
X126054313Y-108771118D01*
X125875674Y-108675633D01*
X125869753Y-108673837D01*
X125869751Y-108673836D01*
X125687760Y-108618630D01*
X125687756Y-108618629D01*
X125681838Y-108616834D01*
X125480256Y-108596980D01*
X125474093Y-108597587D01*
X125284836Y-108616227D01*
X125284835Y-108616227D01*
X125278674Y-108616834D01*
X125272757Y-108618628D01*
X125272751Y-108618630D01*
X125090760Y-108673836D01*
X125090754Y-108673838D01*
X125084838Y-108675633D01*
X125079380Y-108678550D01*
X125079376Y-108678552D01*
X124911658Y-108768200D01*
X124906199Y-108771118D01*
X124901420Y-108775039D01*
X124901414Y-108775044D01*
X124754399Y-108895697D01*
X124754393Y-108895702D01*
X124749620Y-108899620D01*
X124745702Y-108904393D01*
X124745697Y-108904399D01*
X124625044Y-109051414D01*
X124625039Y-109051420D01*
X124621118Y-109056199D01*
X124618200Y-109061657D01*
X124618200Y-109061658D01*
X124528552Y-109229376D01*
X124528550Y-109229380D01*
X124525633Y-109234838D01*
X124523838Y-109240754D01*
X124523836Y-109240760D01*
X124468630Y-109422751D01*
X124468628Y-109422757D01*
X124466834Y-109428674D01*
X124446980Y-109630256D01*
X108991900Y-109630256D01*
X108991900Y-107834205D01*
X122650929Y-107834205D01*
X122670783Y-108035787D01*
X122729582Y-108229623D01*
X122825067Y-108408262D01*
X122953569Y-108564841D01*
X123110148Y-108693343D01*
X123288787Y-108788828D01*
X123482623Y-108847627D01*
X123684205Y-108867481D01*
X123885787Y-108847627D01*
X124079623Y-108788828D01*
X124258262Y-108693343D01*
X124414841Y-108564841D01*
X124543343Y-108408262D01*
X124638828Y-108229623D01*
X124697627Y-108035787D01*
X124717481Y-107834205D01*
X124697627Y-107632623D01*
X124638828Y-107438787D01*
X124543343Y-107260148D01*
X124414841Y-107103569D01*
X124258262Y-106975067D01*
X124079623Y-106879582D01*
X124073702Y-106877786D01*
X124073700Y-106877785D01*
X123891709Y-106822579D01*
X123891705Y-106822578D01*
X123885787Y-106820783D01*
X123684205Y-106800929D01*
X123678042Y-106801536D01*
X123488785Y-106820176D01*
X123488784Y-106820176D01*
X123482623Y-106820783D01*
X123476706Y-106822577D01*
X123476700Y-106822579D01*
X123294709Y-106877785D01*
X123294703Y-106877787D01*
X123288787Y-106879582D01*
X123283329Y-106882499D01*
X123283325Y-106882501D01*
X123115607Y-106972149D01*
X123110148Y-106975067D01*
X123105369Y-106978988D01*
X123105363Y-106978993D01*
X122958348Y-107099646D01*
X122958342Y-107099651D01*
X122953569Y-107103569D01*
X122949651Y-107108342D01*
X122949646Y-107108348D01*
X122828993Y-107255363D01*
X122828988Y-107255369D01*
X122825067Y-107260148D01*
X122822149Y-107265606D01*
X122822149Y-107265607D01*
X122732501Y-107433325D01*
X122732499Y-107433329D01*
X122729582Y-107438787D01*
X122727787Y-107444703D01*
X122727785Y-107444709D01*
X122672579Y-107626700D01*
X122672577Y-107626706D01*
X122670783Y-107632623D01*
X122650929Y-107834205D01*
X108991900Y-107834205D01*
X108991900Y-106038154D01*
X120854878Y-106038154D01*
X120874732Y-106239736D01*
X120876527Y-106245654D01*
X120876528Y-106245658D01*
X120931734Y-106427649D01*
X120933531Y-106433572D01*
X121029016Y-106612211D01*
X121157518Y-106768790D01*
X121314097Y-106897292D01*
X121492736Y-106992777D01*
X121686572Y-107051576D01*
X121888154Y-107071430D01*
X122089736Y-107051576D01*
X122283572Y-106992777D01*
X122462211Y-106897292D01*
X122618790Y-106768790D01*
X122747292Y-106612211D01*
X122842777Y-106433572D01*
X122901576Y-106239736D01*
X122921430Y-106038154D01*
X122901576Y-105836572D01*
X122842777Y-105642736D01*
X122747292Y-105464097D01*
X122618790Y-105307518D01*
X122485978Y-105198521D01*
X122466995Y-105182942D01*
X122466993Y-105182941D01*
X122462211Y-105179016D01*
X122283572Y-105083531D01*
X122277651Y-105081735D01*
X122277649Y-105081734D01*
X122095658Y-105026528D01*
X122095654Y-105026527D01*
X122089736Y-105024732D01*
X121888154Y-105004878D01*
X121881991Y-105005485D01*
X121692734Y-105024125D01*
X121692733Y-105024125D01*
X121686572Y-105024732D01*
X121680655Y-105026526D01*
X121680649Y-105026528D01*
X121498658Y-105081734D01*
X121498652Y-105081736D01*
X121492736Y-105083531D01*
X121487278Y-105086448D01*
X121487274Y-105086450D01*
X121319556Y-105176098D01*
X121314097Y-105179016D01*
X121309318Y-105182937D01*
X121309312Y-105182942D01*
X121162297Y-105303595D01*
X121162291Y-105303600D01*
X121157518Y-105307518D01*
X121153600Y-105312291D01*
X121153595Y-105312297D01*
X121032942Y-105459312D01*
X121032937Y-105459318D01*
X121029016Y-105464097D01*
X121026098Y-105469555D01*
X121026098Y-105469556D01*
X120936450Y-105637274D01*
X120936448Y-105637278D01*
X120933531Y-105642736D01*
X120931736Y-105648652D01*
X120931734Y-105648658D01*
X120876528Y-105830649D01*
X120876526Y-105830655D01*
X120874732Y-105836572D01*
X120854878Y-106038154D01*
X108991900Y-106038154D01*
X108991900Y-102702616D01*
X116962802Y-102702616D01*
X116963037Y-102713994D01*
X117005951Y-102883459D01*
X117009321Y-102893274D01*
X117095539Y-103089829D01*
X117100482Y-103098964D01*
X117217873Y-103278644D01*
X117224261Y-103286850D01*
X117369618Y-103444751D01*
X117377262Y-103451788D01*
X117546639Y-103583619D01*
X117555332Y-103589298D01*
X117744093Y-103691451D01*
X117753610Y-103695626D01*
X117956608Y-103765315D01*
X117966678Y-103767865D01*
X118028512Y-103778183D01*
X118039649Y-103777607D01*
X118042051Y-103766715D01*
X118550051Y-103766715D01*
X118552452Y-103777607D01*
X118563589Y-103778183D01*
X118625423Y-103767865D01*
X118635493Y-103765315D01*
X118838491Y-103695626D01*
X118848012Y-103691449D01*
X119003302Y-103607410D01*
X119065224Y-103592238D01*
X119126647Y-103609321D01*
X119171844Y-103654285D01*
X119189245Y-103715618D01*
X119174395Y-103777618D01*
X119140396Y-103841225D01*
X119140392Y-103841232D01*
X119137479Y-103846684D01*
X119135684Y-103852600D01*
X119135682Y-103852606D01*
X119080476Y-104034597D01*
X119080474Y-104034603D01*
X119078680Y-104040520D01*
X119058826Y-104242102D01*
X119078680Y-104443684D01*
X119080475Y-104449602D01*
X119080476Y-104449606D01*
X119134180Y-104626645D01*
X119137479Y-104637520D01*
X119232964Y-104816159D01*
X119361466Y-104972738D01*
X119518045Y-105101240D01*
X119696684Y-105196725D01*
X119890520Y-105255524D01*
X120092102Y-105275378D01*
X120293684Y-105255524D01*
X120487520Y-105196725D01*
X120666159Y-105101240D01*
X120822738Y-104972738D01*
X120951240Y-104816159D01*
X121046725Y-104637520D01*
X121105524Y-104443684D01*
X121125378Y-104242102D01*
X121105524Y-104040520D01*
X121046725Y-103846684D01*
X120951240Y-103668045D01*
X120822738Y-103511466D01*
X120666159Y-103382964D01*
X120487520Y-103287479D01*
X120481599Y-103285683D01*
X120481597Y-103285682D01*
X120299606Y-103230476D01*
X120299602Y-103230475D01*
X120293684Y-103228680D01*
X120092102Y-103208826D01*
X120085939Y-103209433D01*
X119896682Y-103228073D01*
X119896681Y-103228073D01*
X119890520Y-103228680D01*
X119884603Y-103230474D01*
X119884597Y-103230476D01*
X119702606Y-103285682D01*
X119702600Y-103285684D01*
X119696684Y-103287479D01*
X119691232Y-103290392D01*
X119691225Y-103290396D01*
X119626423Y-103325034D01*
X119562340Y-103339824D01*
X119499535Y-103320309D01*
X119455117Y-103271807D01*
X119441190Y-103207531D01*
X119461546Y-103144994D01*
X119491618Y-103098966D01*
X119496562Y-103089829D01*
X119582780Y-102893274D01*
X119586150Y-102883459D01*
X119629064Y-102713994D01*
X119629299Y-102702616D01*
X119618211Y-102700051D01*
X118566641Y-102700051D01*
X118553557Y-102703557D01*
X118550051Y-102716641D01*
X118550051Y-103766715D01*
X118042051Y-103766715D01*
X118042051Y-102716641D01*
X118038544Y-102703557D01*
X118025461Y-102700051D01*
X116973891Y-102700051D01*
X116962802Y-102702616D01*
X108991900Y-102702616D01*
X108991900Y-100650000D01*
X115116126Y-100650000D01*
X115118547Y-100662171D01*
X115127542Y-100707396D01*
X115129964Y-100719569D01*
X115159424Y-100763660D01*
X116386340Y-101990575D01*
X116430431Y-102020036D01*
X116500000Y-102033874D01*
X116569569Y-102020036D01*
X116613660Y-101990576D01*
X116851509Y-101752726D01*
X116911693Y-101719185D01*
X116980526Y-101722317D01*
X117037419Y-101761188D01*
X117065359Y-101824173D01*
X117055989Y-101892437D01*
X117009319Y-101998833D01*
X117005951Y-102008642D01*
X116963037Y-102178107D01*
X116962802Y-102189485D01*
X116973891Y-102192051D01*
X118025461Y-102192051D01*
X118038544Y-102188544D01*
X118042051Y-102175461D01*
X118550051Y-102175461D01*
X118553557Y-102188544D01*
X118566641Y-102192051D01*
X119618211Y-102192051D01*
X119629299Y-102189485D01*
X119629064Y-102178107D01*
X119586150Y-102008642D01*
X119582780Y-101998827D01*
X119496562Y-101802272D01*
X119491619Y-101793137D01*
X119374228Y-101613457D01*
X119367840Y-101605251D01*
X119222483Y-101447350D01*
X119214839Y-101440313D01*
X119045462Y-101308482D01*
X119036769Y-101302803D01*
X118848008Y-101200650D01*
X118838491Y-101196475D01*
X118635493Y-101126786D01*
X118625423Y-101124236D01*
X118563589Y-101113918D01*
X118552452Y-101114494D01*
X118550051Y-101125387D01*
X118550051Y-102175461D01*
X118042051Y-102175461D01*
X118042051Y-101125387D01*
X118039649Y-101114494D01*
X118028512Y-101113918D01*
X117966678Y-101124236D01*
X117956608Y-101126786D01*
X117753602Y-101196478D01*
X117750642Y-101197777D01*
X117749274Y-101197964D01*
X117748679Y-101198169D01*
X117748638Y-101198051D01*
X117682380Y-101207141D01*
X117619398Y-101179199D01*
X117580530Y-101122306D01*
X117577400Y-101053475D01*
X117610941Y-100993293D01*
X117840575Y-100763660D01*
X117870036Y-100719569D01*
X117883874Y-100650000D01*
X117870036Y-100580431D01*
X117840576Y-100536340D01*
X116613660Y-99309425D01*
X116569569Y-99279964D01*
X116557399Y-99277543D01*
X116557396Y-99277542D01*
X116512171Y-99268547D01*
X116500000Y-99266126D01*
X116487829Y-99268547D01*
X116442600Y-99277543D01*
X116442597Y-99277543D01*
X116430431Y-99279964D01*
X116420115Y-99286856D01*
X116420114Y-99286857D01*
X116391484Y-99305986D01*
X116391477Y-99305991D01*
X116386340Y-99309424D01*
X116381966Y-99313797D01*
X116381961Y-99313802D01*
X115163803Y-100531961D01*
X115163798Y-100531966D01*
X115159425Y-100536340D01*
X115155988Y-100541482D01*
X115155986Y-100541486D01*
X115136859Y-100570111D01*
X115136857Y-100570113D01*
X115129964Y-100580431D01*
X115127543Y-100592598D01*
X115127542Y-100592603D01*
X115119142Y-100634835D01*
X115116126Y-100650000D01*
X108991900Y-100650000D01*
X108991900Y-95605600D01*
X111546732Y-95605600D01*
X111566565Y-95832292D01*
X111625461Y-96052096D01*
X111721632Y-96258334D01*
X111724784Y-96262835D01*
X111724786Y-96262839D01*
X111848993Y-96440227D01*
X111848997Y-96440231D01*
X111852153Y-96444739D01*
X112013061Y-96605647D01*
X112017569Y-96608803D01*
X112017572Y-96608806D01*
X112089843Y-96659410D01*
X112199466Y-96736168D01*
X112405704Y-96832339D01*
X112625508Y-96891235D01*
X112795416Y-96906100D01*
X112906244Y-96906100D01*
X112908984Y-96906100D01*
X113078892Y-96891235D01*
X113298696Y-96832339D01*
X113504934Y-96736168D01*
X113691339Y-96605647D01*
X113852247Y-96444739D01*
X113982768Y-96258334D01*
X114078939Y-96052096D01*
X114137835Y-95832292D01*
X114157668Y-95605600D01*
X114137835Y-95378908D01*
X114078939Y-95159104D01*
X113982768Y-94952866D01*
X113852247Y-94766461D01*
X113691339Y-94605553D01*
X113686831Y-94602397D01*
X113686827Y-94602393D01*
X113509439Y-94478186D01*
X113509435Y-94478184D01*
X113504934Y-94475032D01*
X113298696Y-94378861D01*
X113293388Y-94377438D01*
X113293386Y-94377438D01*
X113084206Y-94321389D01*
X113084207Y-94321389D01*
X113078892Y-94319965D01*
X113073416Y-94319485D01*
X113073411Y-94319485D01*
X112911707Y-94305338D01*
X112911701Y-94305337D01*
X112908984Y-94305100D01*
X112795416Y-94305100D01*
X112792699Y-94305337D01*
X112792692Y-94305338D01*
X112630988Y-94319485D01*
X112630981Y-94319486D01*
X112625508Y-94319965D01*
X112620194Y-94321388D01*
X112620193Y-94321389D01*
X112411013Y-94377438D01*
X112411008Y-94377439D01*
X112405704Y-94378861D01*
X112400727Y-94381181D01*
X112400721Y-94381184D01*
X112204447Y-94472709D01*
X112204444Y-94472710D01*
X112199466Y-94475032D01*
X112194969Y-94478180D01*
X112194960Y-94478186D01*
X112017572Y-94602393D01*
X112017561Y-94602401D01*
X112013061Y-94605553D01*
X112009171Y-94609442D01*
X112009165Y-94609448D01*
X111856048Y-94762565D01*
X111856042Y-94762571D01*
X111852153Y-94766461D01*
X111849001Y-94770961D01*
X111848993Y-94770972D01*
X111724786Y-94948360D01*
X111724780Y-94948369D01*
X111721632Y-94952866D01*
X111719310Y-94957844D01*
X111719309Y-94957847D01*
X111627784Y-95154121D01*
X111627781Y-95154127D01*
X111625461Y-95159104D01*
X111566565Y-95378908D01*
X111566086Y-95384381D01*
X111566085Y-95384388D01*
X111547211Y-95600125D01*
X111546732Y-95605600D01*
X108991900Y-95605600D01*
X108991900Y-94260998D01*
X109001491Y-94212780D01*
X109028805Y-94171903D01*
X110499051Y-92701657D01*
X114922328Y-88278378D01*
X114978869Y-88245753D01*
X115044151Y-88245802D01*
X115100647Y-88278512D01*
X120416420Y-93610012D01*
X123435699Y-96638224D01*
X123559627Y-96762518D01*
X123586844Y-96803350D01*
X123596400Y-96851482D01*
X123596400Y-103911400D01*
X127558800Y-107848400D01*
X127571161Y-107848400D01*
X134146210Y-107848400D01*
X134162800Y-107848400D01*
X134162800Y-106983800D01*
X134179681Y-106920800D01*
X134225800Y-106874681D01*
X134288800Y-106857800D01*
X144230010Y-106857800D01*
X144246600Y-106857800D01*
X144246600Y-106349800D01*
X144230010Y-106349800D01*
X133849190Y-106349800D01*
X133832600Y-106349800D01*
X133832600Y-106366390D01*
X133832600Y-107341400D01*
X133815719Y-107404400D01*
X133769600Y-107450519D01*
X133706600Y-107467400D01*
X127712590Y-107467400D01*
X127664372Y-107457809D01*
X127623495Y-107430495D01*
X125679200Y-105486200D01*
X134366910Y-105486200D01*
X134367988Y-105494388D01*
X134385706Y-105628978D01*
X134385707Y-105628984D01*
X134386785Y-105637167D01*
X134389944Y-105644795D01*
X134389945Y-105644796D01*
X134441895Y-105770215D01*
X134441896Y-105770218D01*
X134445056Y-105777845D01*
X134537752Y-105898648D01*
X134658555Y-105991344D01*
X134799233Y-106049615D01*
X134950200Y-106069490D01*
X135101167Y-106049615D01*
X135241845Y-105991344D01*
X135362648Y-105898648D01*
X135455344Y-105777845D01*
X135513615Y-105637167D01*
X135533490Y-105486200D01*
X135513615Y-105335233D01*
X135455344Y-105194555D01*
X135449470Y-105186900D01*
X140854110Y-105186900D01*
X140855640Y-105198521D01*
X140872906Y-105329678D01*
X140872907Y-105329684D01*
X140873985Y-105337867D01*
X140877144Y-105345495D01*
X140877145Y-105345496D01*
X140929095Y-105470915D01*
X140929096Y-105470918D01*
X140932256Y-105478545D01*
X141024952Y-105599348D01*
X141145755Y-105692044D01*
X141286433Y-105750315D01*
X141437400Y-105770190D01*
X141588367Y-105750315D01*
X141729045Y-105692044D01*
X141849848Y-105599348D01*
X141942544Y-105478545D01*
X142000815Y-105337867D01*
X142020690Y-105186900D01*
X142000815Y-105035933D01*
X141942544Y-104895255D01*
X141849848Y-104774452D01*
X141729045Y-104681756D01*
X141721418Y-104678596D01*
X141721415Y-104678595D01*
X141595996Y-104626645D01*
X141595995Y-104626644D01*
X141588367Y-104623485D01*
X141580184Y-104622407D01*
X141580178Y-104622406D01*
X141445588Y-104604688D01*
X141437400Y-104603610D01*
X141429212Y-104604688D01*
X141294621Y-104622406D01*
X141294613Y-104622408D01*
X141286433Y-104623485D01*
X141278806Y-104626644D01*
X141278803Y-104626645D01*
X141153384Y-104678595D01*
X141153378Y-104678598D01*
X141145755Y-104681756D01*
X141139206Y-104686780D01*
X141139201Y-104686784D01*
X141031502Y-104769425D01*
X141031497Y-104769429D01*
X141024952Y-104774452D01*
X141019929Y-104780997D01*
X141019925Y-104781002D01*
X140937284Y-104888701D01*
X140937280Y-104888706D01*
X140932256Y-104895255D01*
X140929098Y-104902878D01*
X140929095Y-104902884D01*
X140877145Y-105028303D01*
X140873985Y-105035933D01*
X140872908Y-105044113D01*
X140872906Y-105044121D01*
X140867334Y-105086450D01*
X140854110Y-105186900D01*
X135449470Y-105186900D01*
X135443420Y-105179016D01*
X135367674Y-105080302D01*
X135362648Y-105073752D01*
X135356097Y-105068725D01*
X135248398Y-104986084D01*
X135248396Y-104986083D01*
X135241845Y-104981056D01*
X135234218Y-104977896D01*
X135234215Y-104977895D01*
X135108796Y-104925945D01*
X135108795Y-104925944D01*
X135101167Y-104922785D01*
X135092984Y-104921707D01*
X135092978Y-104921706D01*
X134958388Y-104903988D01*
X134950200Y-104902910D01*
X134942012Y-104903988D01*
X134807421Y-104921706D01*
X134807413Y-104921708D01*
X134799233Y-104922785D01*
X134791606Y-104925944D01*
X134791603Y-104925945D01*
X134666184Y-104977895D01*
X134666178Y-104977898D01*
X134658555Y-104981056D01*
X134652006Y-104986080D01*
X134652001Y-104986084D01*
X134544302Y-105068725D01*
X134544297Y-105068729D01*
X134537752Y-105073752D01*
X134532729Y-105080297D01*
X134532725Y-105080302D01*
X134450084Y-105188001D01*
X134450080Y-105188006D01*
X134445056Y-105194555D01*
X134441898Y-105202178D01*
X134441895Y-105202184D01*
X134396285Y-105312297D01*
X134386785Y-105335233D01*
X134385708Y-105343413D01*
X134385706Y-105343421D01*
X134370450Y-105459312D01*
X134366910Y-105486200D01*
X125679200Y-105486200D01*
X123988905Y-103795905D01*
X123961591Y-103755028D01*
X123957329Y-103733600D01*
X145238110Y-103733600D01*
X145239188Y-103741788D01*
X145256906Y-103876378D01*
X145256907Y-103876384D01*
X145257985Y-103884567D01*
X145261144Y-103892195D01*
X145261145Y-103892196D01*
X145313095Y-104017615D01*
X145313096Y-104017618D01*
X145316256Y-104025245D01*
X145408952Y-104146048D01*
X145529755Y-104238744D01*
X145670433Y-104297015D01*
X145821400Y-104316890D01*
X145972367Y-104297015D01*
X146113045Y-104238744D01*
X146233848Y-104146048D01*
X146326544Y-104025245D01*
X146384815Y-103884567D01*
X146404690Y-103733600D01*
X146384815Y-103582633D01*
X146326544Y-103441955D01*
X146233848Y-103321152D01*
X146193769Y-103290398D01*
X146119598Y-103233484D01*
X146119596Y-103233483D01*
X146113045Y-103228456D01*
X146105418Y-103225296D01*
X146105415Y-103225295D01*
X145979996Y-103173345D01*
X145979995Y-103173344D01*
X145972367Y-103170185D01*
X145964184Y-103169107D01*
X145964178Y-103169106D01*
X145829588Y-103151388D01*
X145821400Y-103150310D01*
X145813212Y-103151388D01*
X145678621Y-103169106D01*
X145678613Y-103169108D01*
X145670433Y-103170185D01*
X145662806Y-103173344D01*
X145662803Y-103173345D01*
X145537384Y-103225295D01*
X145537378Y-103225298D01*
X145529755Y-103228456D01*
X145523206Y-103233480D01*
X145523201Y-103233484D01*
X145415502Y-103316125D01*
X145415497Y-103316129D01*
X145408952Y-103321152D01*
X145403929Y-103327697D01*
X145403925Y-103327702D01*
X145321284Y-103435401D01*
X145321280Y-103435406D01*
X145316256Y-103441955D01*
X145313098Y-103449578D01*
X145313095Y-103449584D01*
X145261145Y-103575003D01*
X145257985Y-103582633D01*
X145256908Y-103590813D01*
X145256906Y-103590821D01*
X145243659Y-103691449D01*
X145238110Y-103733600D01*
X123957329Y-103733600D01*
X123952000Y-103706810D01*
X123952000Y-101803200D01*
X134366910Y-101803200D01*
X134367988Y-101811388D01*
X134385706Y-101945978D01*
X134385707Y-101945984D01*
X134386785Y-101954167D01*
X134389944Y-101961795D01*
X134389945Y-101961796D01*
X134441895Y-102087215D01*
X134441896Y-102087218D01*
X134445056Y-102094845D01*
X134450083Y-102101396D01*
X134450084Y-102101398D01*
X134516954Y-102188544D01*
X134537752Y-102215648D01*
X134658555Y-102308344D01*
X134799233Y-102366615D01*
X134950200Y-102386490D01*
X135101167Y-102366615D01*
X135241845Y-102308344D01*
X135362648Y-102215648D01*
X135455344Y-102094845D01*
X135513615Y-101954167D01*
X135533490Y-101803200D01*
X135513615Y-101652233D01*
X135513021Y-101650800D01*
X142113910Y-101650800D01*
X142114988Y-101658988D01*
X142132706Y-101793578D01*
X142132707Y-101793584D01*
X142133785Y-101801767D01*
X142136944Y-101809395D01*
X142136945Y-101809396D01*
X142188895Y-101934815D01*
X142188896Y-101934818D01*
X142192056Y-101942445D01*
X142197083Y-101948996D01*
X142197084Y-101948998D01*
X142279725Y-102056697D01*
X142284752Y-102063248D01*
X142405555Y-102155944D01*
X142546233Y-102214215D01*
X142697200Y-102234090D01*
X142848167Y-102214215D01*
X142988845Y-102155944D01*
X143109648Y-102063248D01*
X143129004Y-102038023D01*
X148552800Y-102038023D01*
X148553159Y-102044738D01*
X148558462Y-102094057D01*
X148562059Y-102109278D01*
X148607205Y-102230319D01*
X148615754Y-102245975D01*
X148692497Y-102348492D01*
X148705107Y-102361102D01*
X148807624Y-102437845D01*
X148823280Y-102446394D01*
X148944321Y-102491540D01*
X148959542Y-102495137D01*
X149008861Y-102500440D01*
X149015577Y-102500800D01*
X149640210Y-102500800D01*
X149653293Y-102497293D01*
X149656800Y-102484210D01*
X150164800Y-102484210D01*
X150168306Y-102497293D01*
X150181390Y-102500800D01*
X150806023Y-102500800D01*
X150812738Y-102500440D01*
X150862057Y-102495137D01*
X150877278Y-102491540D01*
X150998319Y-102446394D01*
X151013975Y-102437845D01*
X151116492Y-102361102D01*
X151129102Y-102348492D01*
X151205845Y-102245975D01*
X151214394Y-102230319D01*
X151259540Y-102109278D01*
X151263137Y-102094057D01*
X151268440Y-102044738D01*
X151268800Y-102038023D01*
X151268800Y-101413390D01*
X151265293Y-101400306D01*
X151252210Y-101396800D01*
X150181390Y-101396800D01*
X150168306Y-101400306D01*
X150164800Y-101413390D01*
X150164800Y-102484210D01*
X149656800Y-102484210D01*
X149656800Y-101413390D01*
X149653293Y-101400306D01*
X149640210Y-101396800D01*
X148569390Y-101396800D01*
X148556306Y-101400306D01*
X148552800Y-101413390D01*
X148552800Y-102038023D01*
X143129004Y-102038023D01*
X143202344Y-101942445D01*
X143260615Y-101801767D01*
X143280490Y-101650800D01*
X143260615Y-101499833D01*
X143202344Y-101359155D01*
X143109648Y-101238352D01*
X143085614Y-101219910D01*
X142995398Y-101150684D01*
X142995396Y-101150683D01*
X142988845Y-101145656D01*
X142981218Y-101142496D01*
X142981215Y-101142495D01*
X142855796Y-101090545D01*
X142855795Y-101090544D01*
X142848167Y-101087385D01*
X142839984Y-101086307D01*
X142839978Y-101086306D01*
X142705388Y-101068588D01*
X142697200Y-101067510D01*
X142689012Y-101068588D01*
X142554421Y-101086306D01*
X142554413Y-101086308D01*
X142546233Y-101087385D01*
X142538606Y-101090544D01*
X142538603Y-101090545D01*
X142413184Y-101142495D01*
X142413178Y-101142498D01*
X142405555Y-101145656D01*
X142399006Y-101150680D01*
X142399001Y-101150684D01*
X142291302Y-101233325D01*
X142291297Y-101233329D01*
X142284752Y-101238352D01*
X142279729Y-101244897D01*
X142279725Y-101244902D01*
X142197084Y-101352601D01*
X142197080Y-101352606D01*
X142192056Y-101359155D01*
X142188898Y-101366778D01*
X142188895Y-101366784D01*
X142155524Y-101447350D01*
X142133785Y-101499833D01*
X142132708Y-101508013D01*
X142132706Y-101508021D01*
X142118826Y-101613457D01*
X142113910Y-101650800D01*
X135513021Y-101650800D01*
X135455344Y-101511555D01*
X135362648Y-101390752D01*
X135356097Y-101385725D01*
X135248398Y-101303084D01*
X135248396Y-101303083D01*
X135241845Y-101298056D01*
X135234218Y-101294896D01*
X135234215Y-101294895D01*
X135108796Y-101242945D01*
X135108795Y-101242944D01*
X135101167Y-101239785D01*
X135092984Y-101238707D01*
X135092978Y-101238706D01*
X134958388Y-101220988D01*
X134950200Y-101219910D01*
X134942012Y-101220988D01*
X134807421Y-101238706D01*
X134807413Y-101238708D01*
X134799233Y-101239785D01*
X134791606Y-101242944D01*
X134791603Y-101242945D01*
X134666184Y-101294895D01*
X134666178Y-101294898D01*
X134658555Y-101298056D01*
X134652006Y-101303080D01*
X134652001Y-101303084D01*
X134544302Y-101385725D01*
X134544297Y-101385729D01*
X134537752Y-101390752D01*
X134532729Y-101397297D01*
X134532725Y-101397302D01*
X134450084Y-101505001D01*
X134450080Y-101505006D01*
X134445056Y-101511555D01*
X134441898Y-101519178D01*
X134441895Y-101519184D01*
X134390770Y-101642612D01*
X134386785Y-101652233D01*
X134385708Y-101660413D01*
X134385706Y-101660421D01*
X134372441Y-101761188D01*
X134366910Y-101803200D01*
X123952000Y-101803200D01*
X123952000Y-100872210D01*
X148552800Y-100872210D01*
X148556306Y-100885293D01*
X148569390Y-100888800D01*
X151252210Y-100888800D01*
X151265293Y-100885293D01*
X151268800Y-100872210D01*
X151268800Y-100247577D01*
X151268440Y-100240861D01*
X151263137Y-100191542D01*
X151259540Y-100176321D01*
X151214394Y-100055280D01*
X151205845Y-100039624D01*
X151129102Y-99937107D01*
X151116492Y-99924497D01*
X151013975Y-99847754D01*
X150998319Y-99839205D01*
X150877278Y-99794059D01*
X150862057Y-99790462D01*
X150812738Y-99785159D01*
X150806023Y-99784800D01*
X150383846Y-99784800D01*
X150320133Y-99767505D01*
X150273912Y-99720366D01*
X150257870Y-99656326D01*
X150276413Y-99592965D01*
X150324450Y-99547678D01*
X150380824Y-99517545D01*
X150484857Y-99461938D01*
X150641436Y-99333436D01*
X150769938Y-99176857D01*
X150865423Y-98998218D01*
X150924222Y-98804382D01*
X150944076Y-98602800D01*
X150924222Y-98401218D01*
X150865423Y-98207382D01*
X150769938Y-98028743D01*
X150641436Y-97872164D01*
X150484857Y-97743662D01*
X150306218Y-97648177D01*
X150300297Y-97646381D01*
X150300295Y-97646380D01*
X150118304Y-97591174D01*
X150118300Y-97591173D01*
X150112382Y-97589378D01*
X149910800Y-97569524D01*
X149904637Y-97570131D01*
X149715380Y-97588771D01*
X149715379Y-97588771D01*
X149709218Y-97589378D01*
X149703301Y-97591172D01*
X149703295Y-97591174D01*
X149521304Y-97646380D01*
X149521298Y-97646382D01*
X149515382Y-97648177D01*
X149509924Y-97651094D01*
X149509920Y-97651096D01*
X149342202Y-97740744D01*
X149336743Y-97743662D01*
X149331964Y-97747583D01*
X149331958Y-97747588D01*
X149184943Y-97868241D01*
X149184937Y-97868246D01*
X149180164Y-97872164D01*
X149176246Y-97876937D01*
X149176241Y-97876943D01*
X149055588Y-98023958D01*
X149055583Y-98023964D01*
X149051662Y-98028743D01*
X149048744Y-98034201D01*
X149048744Y-98034202D01*
X148959096Y-98201920D01*
X148959094Y-98201924D01*
X148956177Y-98207382D01*
X148954382Y-98213298D01*
X148954380Y-98213304D01*
X148899174Y-98395295D01*
X148899172Y-98395301D01*
X148897378Y-98401218D01*
X148877524Y-98602800D01*
X148897378Y-98804382D01*
X148899173Y-98810300D01*
X148899174Y-98810304D01*
X148952238Y-98985233D01*
X148956177Y-98998218D01*
X149051662Y-99176857D01*
X149055587Y-99181639D01*
X149055588Y-99181641D01*
X149164051Y-99313802D01*
X149180164Y-99333436D01*
X149336743Y-99461938D01*
X149342201Y-99464855D01*
X149342202Y-99464856D01*
X149497150Y-99547678D01*
X149545187Y-99592965D01*
X149563730Y-99656326D01*
X149547688Y-99720366D01*
X149501467Y-99767505D01*
X149437754Y-99784800D01*
X149015577Y-99784800D01*
X149008861Y-99785159D01*
X148959542Y-99790462D01*
X148944321Y-99794059D01*
X148823280Y-99839205D01*
X148807624Y-99847754D01*
X148705107Y-99924497D01*
X148692497Y-99937107D01*
X148615754Y-100039624D01*
X148607205Y-100055280D01*
X148562059Y-100176321D01*
X148558462Y-100191542D01*
X148553159Y-100240861D01*
X148552800Y-100247577D01*
X148552800Y-100872210D01*
X123952000Y-100872210D01*
X123952000Y-99136200D01*
X134163710Y-99136200D01*
X134164788Y-99144388D01*
X134182506Y-99278978D01*
X134182507Y-99278984D01*
X134183585Y-99287167D01*
X134186744Y-99294795D01*
X134186745Y-99294796D01*
X134238695Y-99420215D01*
X134238696Y-99420218D01*
X134241856Y-99427845D01*
X134246883Y-99434396D01*
X134246884Y-99434398D01*
X134329525Y-99542097D01*
X134334552Y-99548648D01*
X134341102Y-99553674D01*
X134422615Y-99616222D01*
X134455355Y-99641344D01*
X134596033Y-99699615D01*
X134747000Y-99719490D01*
X134897967Y-99699615D01*
X135038645Y-99641344D01*
X135159448Y-99548648D01*
X135252144Y-99427845D01*
X135310415Y-99287167D01*
X135330290Y-99136200D01*
X140615310Y-99136200D01*
X140616388Y-99144388D01*
X140634106Y-99278978D01*
X140634107Y-99278984D01*
X140635185Y-99287167D01*
X140638344Y-99294795D01*
X140638345Y-99294796D01*
X140690295Y-99420215D01*
X140690296Y-99420218D01*
X140693456Y-99427845D01*
X140698483Y-99434396D01*
X140698484Y-99434398D01*
X140781125Y-99542097D01*
X140786152Y-99548648D01*
X140792702Y-99553674D01*
X140874215Y-99616222D01*
X140906955Y-99641344D01*
X141047633Y-99699615D01*
X141198600Y-99719490D01*
X141349567Y-99699615D01*
X141490245Y-99641344D01*
X141611048Y-99548648D01*
X141703744Y-99427845D01*
X141762015Y-99287167D01*
X141781890Y-99136200D01*
X141764132Y-99001315D01*
X141763093Y-98993421D01*
X141763092Y-98993420D01*
X141762015Y-98985233D01*
X141703744Y-98844555D01*
X141611048Y-98723752D01*
X141604497Y-98718725D01*
X141496798Y-98636084D01*
X141496796Y-98636083D01*
X141490245Y-98631056D01*
X141482618Y-98627896D01*
X141482615Y-98627895D01*
X141357196Y-98575945D01*
X141357195Y-98575944D01*
X141349567Y-98572785D01*
X141341384Y-98571707D01*
X141341378Y-98571706D01*
X141206788Y-98553988D01*
X141198600Y-98552910D01*
X141190412Y-98553988D01*
X141055821Y-98571706D01*
X141055813Y-98571708D01*
X141047633Y-98572785D01*
X141040006Y-98575944D01*
X141040003Y-98575945D01*
X140914584Y-98627895D01*
X140914578Y-98627898D01*
X140906955Y-98631056D01*
X140900406Y-98636080D01*
X140900401Y-98636084D01*
X140792702Y-98718725D01*
X140792697Y-98718729D01*
X140786152Y-98723752D01*
X140781129Y-98730297D01*
X140781125Y-98730302D01*
X140698484Y-98838001D01*
X140698480Y-98838006D01*
X140693456Y-98844555D01*
X140690298Y-98852178D01*
X140690295Y-98852184D01*
X140638345Y-98977603D01*
X140635185Y-98985233D01*
X140634108Y-98993413D01*
X140634106Y-98993421D01*
X140617032Y-99123113D01*
X140615310Y-99136200D01*
X135330290Y-99136200D01*
X135312532Y-99001315D01*
X135311493Y-98993421D01*
X135311492Y-98993420D01*
X135310415Y-98985233D01*
X135252144Y-98844555D01*
X135159448Y-98723752D01*
X135152897Y-98718725D01*
X135045198Y-98636084D01*
X135045196Y-98636083D01*
X135038645Y-98631056D01*
X135031018Y-98627896D01*
X135031015Y-98627895D01*
X134905596Y-98575945D01*
X134905595Y-98575944D01*
X134897967Y-98572785D01*
X134889784Y-98571707D01*
X134889778Y-98571706D01*
X134755188Y-98553988D01*
X134747000Y-98552910D01*
X134738812Y-98553988D01*
X134604221Y-98571706D01*
X134604213Y-98571708D01*
X134596033Y-98572785D01*
X134588406Y-98575944D01*
X134588403Y-98575945D01*
X134462984Y-98627895D01*
X134462978Y-98627898D01*
X134455355Y-98631056D01*
X134448806Y-98636080D01*
X134448801Y-98636084D01*
X134341102Y-98718725D01*
X134341097Y-98718729D01*
X134334552Y-98723752D01*
X134329529Y-98730297D01*
X134329525Y-98730302D01*
X134246884Y-98838001D01*
X134246880Y-98838006D01*
X134241856Y-98844555D01*
X134238698Y-98852178D01*
X134238695Y-98852184D01*
X134186745Y-98977603D01*
X134183585Y-98985233D01*
X134182508Y-98993413D01*
X134182506Y-98993421D01*
X134165432Y-99123113D01*
X134163710Y-99136200D01*
X123952000Y-99136200D01*
X123952000Y-98501200D01*
X142113910Y-98501200D01*
X142114988Y-98509388D01*
X142132706Y-98643978D01*
X142132707Y-98643984D01*
X142133785Y-98652167D01*
X142136944Y-98659795D01*
X142136945Y-98659796D01*
X142188895Y-98785215D01*
X142188896Y-98785218D01*
X142192056Y-98792845D01*
X142197083Y-98799396D01*
X142197084Y-98799398D01*
X142279725Y-98907097D01*
X142284752Y-98913648D01*
X142291302Y-98918674D01*
X142388713Y-98993421D01*
X142405555Y-99006344D01*
X142546233Y-99064615D01*
X142697200Y-99084490D01*
X142848167Y-99064615D01*
X142988845Y-99006344D01*
X143109648Y-98913648D01*
X143202344Y-98792845D01*
X143260615Y-98652167D01*
X143280490Y-98501200D01*
X143260615Y-98350233D01*
X143202344Y-98209555D01*
X143196485Y-98201920D01*
X143114674Y-98095302D01*
X143109648Y-98088752D01*
X143038558Y-98034202D01*
X142995398Y-98001084D01*
X142995396Y-98001083D01*
X142988845Y-97996056D01*
X142981218Y-97992896D01*
X142981215Y-97992895D01*
X142855796Y-97940945D01*
X142855795Y-97940944D01*
X142848167Y-97937785D01*
X142839984Y-97936707D01*
X142839978Y-97936706D01*
X142705388Y-97918988D01*
X142697200Y-97917910D01*
X142689012Y-97918988D01*
X142554421Y-97936706D01*
X142554413Y-97936708D01*
X142546233Y-97937785D01*
X142538606Y-97940944D01*
X142538603Y-97940945D01*
X142413184Y-97992895D01*
X142413178Y-97992898D01*
X142405555Y-97996056D01*
X142399006Y-98001080D01*
X142399001Y-98001084D01*
X142291302Y-98083725D01*
X142291297Y-98083729D01*
X142284752Y-98088752D01*
X142279729Y-98095297D01*
X142279725Y-98095302D01*
X142197084Y-98203001D01*
X142197080Y-98203006D01*
X142192056Y-98209555D01*
X142188898Y-98217178D01*
X142188895Y-98217184D01*
X142136945Y-98342603D01*
X142133785Y-98350233D01*
X142132708Y-98358413D01*
X142132706Y-98358421D01*
X142115632Y-98488113D01*
X142113910Y-98501200D01*
X123952000Y-98501200D01*
X123952000Y-96659410D01*
X123952000Y-96647000D01*
X120472200Y-93167200D01*
X126420407Y-93167200D01*
X126421485Y-93175388D01*
X126439203Y-93309978D01*
X126439204Y-93309984D01*
X126440282Y-93318167D01*
X126443441Y-93325795D01*
X126443442Y-93325796D01*
X126495392Y-93451215D01*
X126495393Y-93451218D01*
X126498553Y-93458845D01*
X126503580Y-93465396D01*
X126503581Y-93465398D01*
X126586222Y-93573097D01*
X126591249Y-93579648D01*
X126712052Y-93672344D01*
X126852730Y-93730615D01*
X127003697Y-93750490D01*
X127154664Y-93730615D01*
X127295342Y-93672344D01*
X127416145Y-93579648D01*
X127417201Y-93578271D01*
X127470833Y-93547304D01*
X127536057Y-93547303D01*
X127589695Y-93578270D01*
X127590752Y-93579648D01*
X127711555Y-93672344D01*
X127852233Y-93730615D01*
X128003200Y-93750490D01*
X128154167Y-93730615D01*
X128294845Y-93672344D01*
X128415648Y-93579648D01*
X128461490Y-93519905D01*
X128518355Y-93478211D01*
X128588721Y-93473599D01*
X128650545Y-93507517D01*
X128652625Y-93509597D01*
X128657652Y-93516148D01*
X128664202Y-93521174D01*
X128755480Y-93591215D01*
X128778455Y-93608844D01*
X128919133Y-93667115D01*
X128927320Y-93668192D01*
X128927321Y-93668193D01*
X128982854Y-93675504D01*
X129070100Y-93686990D01*
X129221067Y-93667115D01*
X129361745Y-93608844D01*
X129482548Y-93516148D01*
X129483117Y-93516890D01*
X129538656Y-93486417D01*
X129609026Y-93491028D01*
X129665895Y-93532728D01*
X129673879Y-93543132D01*
X129794682Y-93635828D01*
X129935360Y-93694099D01*
X130086327Y-93713974D01*
X130237294Y-93694099D01*
X130377972Y-93635828D01*
X130498775Y-93543132D01*
X130591471Y-93422329D01*
X130649742Y-93281651D01*
X130669617Y-93130684D01*
X130651881Y-92995967D01*
X130650820Y-92987905D01*
X130650819Y-92987904D01*
X130650602Y-92986254D01*
X131513615Y-92986254D01*
X131514693Y-92994442D01*
X131532411Y-93129032D01*
X131532412Y-93129038D01*
X131533490Y-93137221D01*
X131536649Y-93144849D01*
X131536650Y-93144850D01*
X131588600Y-93270269D01*
X131588601Y-93270272D01*
X131591761Y-93277899D01*
X131596788Y-93284450D01*
X131596789Y-93284452D01*
X131660548Y-93367544D01*
X131684457Y-93398702D01*
X131691007Y-93403728D01*
X131785994Y-93476615D01*
X131805260Y-93491398D01*
X131945938Y-93549669D01*
X132096905Y-93569544D01*
X132247872Y-93549669D01*
X132388550Y-93491398D01*
X132505247Y-93401852D01*
X132565501Y-93376893D01*
X132630163Y-93385404D01*
X132670890Y-93416651D01*
X132672685Y-93414857D01*
X132678525Y-93420697D01*
X132683552Y-93427248D01*
X132690102Y-93432274D01*
X132773721Y-93496438D01*
X132804355Y-93519944D01*
X132945033Y-93578215D01*
X133096000Y-93598090D01*
X133246967Y-93578215D01*
X133387645Y-93519944D01*
X133508448Y-93427248D01*
X133579383Y-93334803D01*
X133631124Y-93295102D01*
X133695788Y-93286589D01*
X133756044Y-93311547D01*
X133803086Y-93347644D01*
X133943764Y-93405915D01*
X134094731Y-93425790D01*
X134245698Y-93405915D01*
X134386376Y-93347644D01*
X134507179Y-93254948D01*
X134599875Y-93134145D01*
X134642881Y-93030319D01*
X134682584Y-92978576D01*
X134742841Y-92953616D01*
X134807505Y-92962128D01*
X134851606Y-92995967D01*
X134852616Y-92994958D01*
X134858456Y-93000798D01*
X134863483Y-93007349D01*
X134870033Y-93012375D01*
X134893420Y-93030321D01*
X134984286Y-93100045D01*
X135124964Y-93158316D01*
X135133151Y-93159393D01*
X135133152Y-93159394D01*
X135185920Y-93166341D01*
X135275931Y-93178191D01*
X135426898Y-93158316D01*
X135567576Y-93100045D01*
X135688379Y-93007349D01*
X135781075Y-92886546D01*
X135791077Y-92862400D01*
X136500510Y-92862400D01*
X136501588Y-92870588D01*
X136519306Y-93005178D01*
X136519307Y-93005184D01*
X136520385Y-93013367D01*
X136523544Y-93020995D01*
X136523545Y-93020996D01*
X136575495Y-93146415D01*
X136575496Y-93146418D01*
X136578656Y-93154045D01*
X136583683Y-93160596D01*
X136583684Y-93160598D01*
X136661645Y-93262198D01*
X136671352Y-93274848D01*
X136677902Y-93279874D01*
X136783849Y-93361171D01*
X136792155Y-93367544D01*
X136932833Y-93425815D01*
X137083800Y-93445690D01*
X137234767Y-93425815D01*
X137375445Y-93367544D01*
X137479216Y-93287916D01*
X137539468Y-93262959D01*
X137604132Y-93271471D01*
X137655876Y-93311174D01*
X137669398Y-93328796D01*
X137675948Y-93333822D01*
X137779548Y-93413318D01*
X137790201Y-93421492D01*
X137930879Y-93479763D01*
X138081846Y-93499638D01*
X138232813Y-93479763D01*
X138373491Y-93421492D01*
X138494294Y-93328796D01*
X138496280Y-93326207D01*
X138550579Y-93294855D01*
X138615804Y-93294854D01*
X138668771Y-93325435D01*
X138668895Y-93325596D01*
X138680899Y-93334807D01*
X138727680Y-93370704D01*
X138789698Y-93418292D01*
X138930376Y-93476563D01*
X138938563Y-93477640D01*
X138938564Y-93477641D01*
X138962871Y-93480841D01*
X139081343Y-93496438D01*
X139232310Y-93476563D01*
X139372988Y-93418292D01*
X139493791Y-93325596D01*
X139494829Y-93324242D01*
X139548447Y-93293283D01*
X139613669Y-93293280D01*
X139667321Y-93324252D01*
X139668397Y-93325654D01*
X139763594Y-93398702D01*
X139782570Y-93413263D01*
X139789200Y-93418350D01*
X139929878Y-93476621D01*
X140080845Y-93496496D01*
X140231812Y-93476621D01*
X140372490Y-93418350D01*
X140493293Y-93325654D01*
X140585989Y-93204851D01*
X140644260Y-93064173D01*
X140664040Y-92913928D01*
X141268063Y-92913928D01*
X141269141Y-92922116D01*
X141286859Y-93056706D01*
X141286860Y-93056712D01*
X141287938Y-93064895D01*
X141291097Y-93072523D01*
X141291098Y-93072524D01*
X141343048Y-93197943D01*
X141343049Y-93197946D01*
X141346209Y-93205573D01*
X141351236Y-93212124D01*
X141351237Y-93212126D01*
X141433878Y-93319825D01*
X141438905Y-93326376D01*
X141445455Y-93331402D01*
X141552137Y-93413263D01*
X141559708Y-93419072D01*
X141700386Y-93477343D01*
X141708573Y-93478420D01*
X141708574Y-93478421D01*
X141775869Y-93487280D01*
X141851353Y-93497218D01*
X142002320Y-93477343D01*
X142142998Y-93419072D01*
X142248765Y-93337913D01*
X142309021Y-93312954D01*
X142373685Y-93321467D01*
X142425428Y-93361170D01*
X142437152Y-93376448D01*
X142443702Y-93381474D01*
X142485205Y-93413321D01*
X142557955Y-93469144D01*
X142698633Y-93527415D01*
X142706820Y-93528492D01*
X142706821Y-93528493D01*
X142774116Y-93537352D01*
X142849600Y-93547290D01*
X143000567Y-93527415D01*
X143141245Y-93469144D01*
X143262048Y-93376448D01*
X143321151Y-93299423D01*
X143369107Y-93261363D01*
X143429346Y-93250400D01*
X143487640Y-93269128D01*
X143524801Y-93307521D01*
X143525456Y-93307019D01*
X143529817Y-93312703D01*
X143529819Y-93312705D01*
X143543571Y-93330627D01*
X143612688Y-93420702D01*
X143618152Y-93427822D01*
X143624702Y-93432848D01*
X143707573Y-93496438D01*
X143738955Y-93520518D01*
X143879633Y-93578789D01*
X144030600Y-93598664D01*
X144181567Y-93578789D01*
X144322245Y-93520518D01*
X144443048Y-93427822D01*
X144517136Y-93331269D01*
X144565096Y-93293205D01*
X144625337Y-93282244D01*
X144683633Y-93300974D01*
X144726216Y-93344973D01*
X144728894Y-93349611D01*
X144732056Y-93357245D01*
X144761291Y-93395345D01*
X144817919Y-93469144D01*
X144824752Y-93478048D01*
X144831302Y-93483074D01*
X144919494Y-93550747D01*
X144945555Y-93570744D01*
X145086233Y-93629015D01*
X145237200Y-93648890D01*
X145388167Y-93629015D01*
X145528845Y-93570744D01*
X145649648Y-93478048D01*
X145742344Y-93357245D01*
X145800615Y-93216567D01*
X145820490Y-93065600D01*
X145800615Y-92914633D01*
X145800021Y-92913200D01*
X146660510Y-92913200D01*
X146661588Y-92921388D01*
X146679306Y-93055978D01*
X146679307Y-93055984D01*
X146680385Y-93064167D01*
X146683544Y-93071795D01*
X146683545Y-93071796D01*
X146735495Y-93197215D01*
X146735496Y-93197218D01*
X146738656Y-93204845D01*
X146743683Y-93211396D01*
X146743684Y-93211398D01*
X146826325Y-93319097D01*
X146831352Y-93325648D01*
X146842010Y-93333826D01*
X146874501Y-93358758D01*
X146952155Y-93418344D01*
X147092833Y-93476615D01*
X147101020Y-93477692D01*
X147101021Y-93477693D01*
X147124933Y-93480841D01*
X147243800Y-93496490D01*
X147394767Y-93476615D01*
X147535445Y-93418344D01*
X147652037Y-93328878D01*
X147712290Y-93303921D01*
X147776955Y-93312434D01*
X147828698Y-93352138D01*
X147847352Y-93376448D01*
X147853902Y-93381474D01*
X147895405Y-93413321D01*
X147968155Y-93469144D01*
X148108833Y-93527415D01*
X148117020Y-93528492D01*
X148117021Y-93528493D01*
X148184316Y-93537352D01*
X148259800Y-93547290D01*
X148410767Y-93527415D01*
X148551445Y-93469144D01*
X148672248Y-93376448D01*
X148764944Y-93255645D01*
X148823215Y-93114967D01*
X148834691Y-93027800D01*
X149339910Y-93027800D01*
X149340988Y-93035988D01*
X149358706Y-93170578D01*
X149358707Y-93170584D01*
X149359785Y-93178767D01*
X149362944Y-93186395D01*
X149362945Y-93186396D01*
X149414895Y-93311815D01*
X149414896Y-93311818D01*
X149418056Y-93319445D01*
X149423083Y-93325996D01*
X149423084Y-93325998D01*
X149504633Y-93432274D01*
X149510752Y-93440248D01*
X149517302Y-93445274D01*
X149624349Y-93527415D01*
X149631555Y-93532944D01*
X149772233Y-93591215D01*
X149923200Y-93611090D01*
X150074167Y-93591215D01*
X150214845Y-93532944D01*
X150335648Y-93440248D01*
X150428344Y-93319445D01*
X150486615Y-93178767D01*
X150506490Y-93027800D01*
X150486615Y-92876833D01*
X150428344Y-92736155D01*
X150393888Y-92691252D01*
X150340674Y-92621902D01*
X150335648Y-92615352D01*
X150329097Y-92610325D01*
X150221398Y-92527684D01*
X150221396Y-92527683D01*
X150214845Y-92522656D01*
X150207218Y-92519496D01*
X150207215Y-92519495D01*
X150081796Y-92467545D01*
X150081795Y-92467544D01*
X150074167Y-92464385D01*
X150065984Y-92463307D01*
X150065978Y-92463306D01*
X149931388Y-92445588D01*
X149923200Y-92444510D01*
X149915012Y-92445588D01*
X149780421Y-92463306D01*
X149780413Y-92463308D01*
X149772233Y-92464385D01*
X149764606Y-92467544D01*
X149764603Y-92467545D01*
X149639184Y-92519495D01*
X149639178Y-92519498D01*
X149631555Y-92522656D01*
X149625006Y-92527680D01*
X149625001Y-92527684D01*
X149517302Y-92610325D01*
X149517297Y-92610329D01*
X149510752Y-92615352D01*
X149505729Y-92621897D01*
X149505725Y-92621902D01*
X149423084Y-92729601D01*
X149423080Y-92729606D01*
X149418056Y-92736155D01*
X149414898Y-92743778D01*
X149414895Y-92743784D01*
X149365763Y-92862400D01*
X149359785Y-92876833D01*
X149358708Y-92885013D01*
X149358706Y-92885021D01*
X149344234Y-92994958D01*
X149339910Y-93027800D01*
X148834691Y-93027800D01*
X148843090Y-92964000D01*
X148823215Y-92813033D01*
X148764944Y-92672355D01*
X148721755Y-92616071D01*
X148677274Y-92558102D01*
X148672248Y-92551552D01*
X148657565Y-92540285D01*
X148557998Y-92463884D01*
X148557996Y-92463883D01*
X148551445Y-92458856D01*
X148543818Y-92455696D01*
X148543815Y-92455695D01*
X148418396Y-92403745D01*
X148418395Y-92403744D01*
X148410767Y-92400585D01*
X148402584Y-92399507D01*
X148402578Y-92399506D01*
X148267988Y-92381788D01*
X148259800Y-92380710D01*
X148251612Y-92381788D01*
X148117021Y-92399506D01*
X148117013Y-92399508D01*
X148108833Y-92400585D01*
X148101206Y-92403744D01*
X148101203Y-92403745D01*
X147975784Y-92455695D01*
X147975778Y-92455698D01*
X147968155Y-92458856D01*
X147961606Y-92463880D01*
X147961601Y-92463884D01*
X147851566Y-92548318D01*
X147791308Y-92573278D01*
X147726644Y-92564765D01*
X147674900Y-92525060D01*
X147656248Y-92500752D01*
X147632214Y-92482310D01*
X147541998Y-92413084D01*
X147541996Y-92413083D01*
X147535445Y-92408056D01*
X147527818Y-92404896D01*
X147527815Y-92404895D01*
X147402396Y-92352945D01*
X147402395Y-92352944D01*
X147394767Y-92349785D01*
X147386584Y-92348707D01*
X147386578Y-92348706D01*
X147251988Y-92330988D01*
X147243800Y-92329910D01*
X147235612Y-92330988D01*
X147101021Y-92348706D01*
X147101013Y-92348708D01*
X147092833Y-92349785D01*
X147085206Y-92352944D01*
X147085203Y-92352945D01*
X146959784Y-92404895D01*
X146959778Y-92404898D01*
X146952155Y-92408056D01*
X146945606Y-92413080D01*
X146945601Y-92413084D01*
X146837902Y-92495725D01*
X146837897Y-92495729D01*
X146831352Y-92500752D01*
X146826329Y-92507297D01*
X146826325Y-92507302D01*
X146743684Y-92615001D01*
X146743680Y-92615006D01*
X146738656Y-92621555D01*
X146735498Y-92629178D01*
X146735495Y-92629184D01*
X146683545Y-92754603D01*
X146680385Y-92762233D01*
X146679308Y-92770413D01*
X146679306Y-92770421D01*
X146664462Y-92883184D01*
X146660510Y-92913200D01*
X145800021Y-92913200D01*
X145742344Y-92773955D01*
X145723735Y-92749704D01*
X145654674Y-92659702D01*
X145649648Y-92653152D01*
X145620216Y-92630568D01*
X145535398Y-92565484D01*
X145535396Y-92565483D01*
X145528845Y-92560456D01*
X145521218Y-92557296D01*
X145521215Y-92557295D01*
X145395796Y-92505345D01*
X145395795Y-92505344D01*
X145388167Y-92502185D01*
X145379984Y-92501107D01*
X145379978Y-92501106D01*
X145245388Y-92483388D01*
X145237200Y-92482310D01*
X145229012Y-92483388D01*
X145094421Y-92501106D01*
X145094413Y-92501108D01*
X145086233Y-92502185D01*
X145078606Y-92505344D01*
X145078603Y-92505345D01*
X144953184Y-92557295D01*
X144953178Y-92557298D01*
X144945555Y-92560456D01*
X144939006Y-92565480D01*
X144939001Y-92565484D01*
X144831302Y-92648125D01*
X144831297Y-92648129D01*
X144824752Y-92653152D01*
X144819729Y-92659697D01*
X144819728Y-92659699D01*
X144750664Y-92749704D01*
X144702702Y-92787768D01*
X144642460Y-92798729D01*
X144584165Y-92779998D01*
X144541583Y-92735999D01*
X144538905Y-92731361D01*
X144535744Y-92723729D01*
X144518807Y-92701657D01*
X144448074Y-92609476D01*
X144443048Y-92602926D01*
X144433278Y-92595429D01*
X144328798Y-92515258D01*
X144328796Y-92515257D01*
X144322245Y-92510230D01*
X144314618Y-92507070D01*
X144314615Y-92507069D01*
X144189196Y-92455119D01*
X144189195Y-92455118D01*
X144181567Y-92451959D01*
X144173384Y-92450881D01*
X144173378Y-92450880D01*
X144038788Y-92433162D01*
X144030600Y-92432084D01*
X144022412Y-92433162D01*
X143887821Y-92450880D01*
X143887813Y-92450882D01*
X143879633Y-92451959D01*
X143872006Y-92455118D01*
X143872003Y-92455119D01*
X143746584Y-92507069D01*
X143746578Y-92507072D01*
X143738955Y-92510230D01*
X143732406Y-92515254D01*
X143732401Y-92515258D01*
X143624702Y-92597899D01*
X143624697Y-92597903D01*
X143618152Y-92602926D01*
X143613129Y-92609471D01*
X143613128Y-92609473D01*
X143559051Y-92679947D01*
X143511090Y-92718011D01*
X143450850Y-92728972D01*
X143392555Y-92710243D01*
X143355398Y-92671852D01*
X143354744Y-92672355D01*
X143350379Y-92666666D01*
X143350377Y-92666664D01*
X143311555Y-92616071D01*
X143267074Y-92558102D01*
X143262048Y-92551552D01*
X143247365Y-92540285D01*
X143147798Y-92463884D01*
X143147796Y-92463883D01*
X143141245Y-92458856D01*
X143133618Y-92455696D01*
X143133615Y-92455695D01*
X143008196Y-92403745D01*
X143008195Y-92403744D01*
X143000567Y-92400585D01*
X142992384Y-92399507D01*
X142992378Y-92399506D01*
X142857788Y-92381788D01*
X142849600Y-92380710D01*
X142841412Y-92381788D01*
X142706821Y-92399506D01*
X142706813Y-92399508D01*
X142698633Y-92400585D01*
X142691006Y-92403744D01*
X142691003Y-92403745D01*
X142565584Y-92455695D01*
X142565578Y-92455698D01*
X142557955Y-92458856D01*
X142551403Y-92463883D01*
X142551402Y-92463884D01*
X142452187Y-92540014D01*
X142391930Y-92564973D01*
X142327266Y-92556460D01*
X142275522Y-92516755D01*
X142268827Y-92508030D01*
X142263801Y-92501480D01*
X142256232Y-92495672D01*
X142149551Y-92413812D01*
X142149549Y-92413811D01*
X142142998Y-92408784D01*
X142135371Y-92405624D01*
X142135368Y-92405623D01*
X142009949Y-92353673D01*
X142009948Y-92353672D01*
X142002320Y-92350513D01*
X141994137Y-92349435D01*
X141994131Y-92349434D01*
X141859541Y-92331716D01*
X141851353Y-92330638D01*
X141843165Y-92331716D01*
X141708574Y-92349434D01*
X141708566Y-92349436D01*
X141700386Y-92350513D01*
X141692759Y-92353672D01*
X141692756Y-92353673D01*
X141567337Y-92405623D01*
X141567331Y-92405626D01*
X141559708Y-92408784D01*
X141553159Y-92413808D01*
X141553154Y-92413812D01*
X141445455Y-92496453D01*
X141445450Y-92496457D01*
X141438905Y-92501480D01*
X141433882Y-92508025D01*
X141433878Y-92508030D01*
X141351237Y-92615729D01*
X141351233Y-92615734D01*
X141346209Y-92622283D01*
X141343051Y-92629906D01*
X141343048Y-92629912D01*
X141291338Y-92754752D01*
X141287938Y-92762961D01*
X141286861Y-92771141D01*
X141286859Y-92771149D01*
X141272672Y-92878916D01*
X141268063Y-92913928D01*
X140664040Y-92913928D01*
X140664135Y-92913206D01*
X140644260Y-92762239D01*
X140585989Y-92621561D01*
X140576713Y-92609473D01*
X140498319Y-92507308D01*
X140493293Y-92500758D01*
X140486665Y-92495672D01*
X140379043Y-92413090D01*
X140379041Y-92413089D01*
X140372490Y-92408062D01*
X140364863Y-92404902D01*
X140364860Y-92404901D01*
X140239441Y-92352951D01*
X140239440Y-92352950D01*
X140231812Y-92349791D01*
X140223629Y-92348713D01*
X140223623Y-92348712D01*
X140089033Y-92330994D01*
X140080845Y-92329916D01*
X140072657Y-92330994D01*
X139938066Y-92348712D01*
X139938058Y-92348714D01*
X139929878Y-92349791D01*
X139922251Y-92352950D01*
X139922248Y-92352951D01*
X139796829Y-92404901D01*
X139796823Y-92404904D01*
X139789200Y-92408062D01*
X139782651Y-92413086D01*
X139782646Y-92413090D01*
X139674946Y-92495732D01*
X139674942Y-92495735D01*
X139668397Y-92500758D01*
X139667354Y-92502116D01*
X139613726Y-92533074D01*
X139548507Y-92533071D01*
X139494863Y-92502097D01*
X139493791Y-92500700D01*
X139487240Y-92495673D01*
X139379541Y-92413032D01*
X139379539Y-92413031D01*
X139372988Y-92408004D01*
X139365361Y-92404844D01*
X139365358Y-92404843D01*
X139239939Y-92352893D01*
X139239938Y-92352892D01*
X139232310Y-92349733D01*
X139224127Y-92348655D01*
X139224121Y-92348654D01*
X139089531Y-92330936D01*
X139081343Y-92329858D01*
X139073155Y-92330936D01*
X138938564Y-92348654D01*
X138938556Y-92348656D01*
X138930376Y-92349733D01*
X138922749Y-92352892D01*
X138922746Y-92352893D01*
X138797327Y-92404843D01*
X138797321Y-92404846D01*
X138789698Y-92408004D01*
X138783149Y-92413028D01*
X138783144Y-92413032D01*
X138675447Y-92495672D01*
X138675445Y-92495673D01*
X138668895Y-92500700D01*
X138666906Y-92503291D01*
X138612602Y-92534642D01*
X138547381Y-92534640D01*
X138494416Y-92504060D01*
X138494294Y-92503900D01*
X138484589Y-92496453D01*
X138380044Y-92416232D01*
X138380042Y-92416231D01*
X138373491Y-92411204D01*
X138365864Y-92408044D01*
X138365861Y-92408043D01*
X138240442Y-92356093D01*
X138240441Y-92356092D01*
X138232813Y-92352933D01*
X138224630Y-92351855D01*
X138224624Y-92351854D01*
X138090034Y-92334136D01*
X138081846Y-92333058D01*
X138073658Y-92334136D01*
X137939067Y-92351854D01*
X137939059Y-92351856D01*
X137930879Y-92352933D01*
X137923252Y-92356092D01*
X137923249Y-92356093D01*
X137797830Y-92408043D01*
X137797824Y-92408046D01*
X137790201Y-92411204D01*
X137686431Y-92490829D01*
X137626176Y-92515788D01*
X137561512Y-92507275D01*
X137509768Y-92467572D01*
X137496248Y-92449952D01*
X137489156Y-92444510D01*
X137381998Y-92362284D01*
X137381996Y-92362283D01*
X137375445Y-92357256D01*
X137367818Y-92354096D01*
X137367815Y-92354095D01*
X137242396Y-92302145D01*
X137242395Y-92302144D01*
X137234767Y-92298985D01*
X137226584Y-92297907D01*
X137226578Y-92297906D01*
X137091988Y-92280188D01*
X137083800Y-92279110D01*
X137075612Y-92280188D01*
X136941021Y-92297906D01*
X136941013Y-92297908D01*
X136932833Y-92298985D01*
X136925206Y-92302144D01*
X136925203Y-92302145D01*
X136799784Y-92354095D01*
X136799778Y-92354098D01*
X136792155Y-92357256D01*
X136785606Y-92362280D01*
X136785601Y-92362284D01*
X136677902Y-92444925D01*
X136677897Y-92444929D01*
X136671352Y-92449952D01*
X136666329Y-92456497D01*
X136666325Y-92456502D01*
X136583684Y-92564201D01*
X136583680Y-92564206D01*
X136578656Y-92570755D01*
X136575498Y-92578378D01*
X136575495Y-92578384D01*
X136523545Y-92703803D01*
X136520385Y-92711433D01*
X136519308Y-92719613D01*
X136519306Y-92719621D01*
X136502581Y-92846668D01*
X136500510Y-92862400D01*
X135791077Y-92862400D01*
X135839346Y-92745868D01*
X135859221Y-92594901D01*
X135839346Y-92443934D01*
X135781075Y-92303256D01*
X135688379Y-92182453D01*
X135567576Y-92089757D01*
X135559949Y-92086597D01*
X135559946Y-92086596D01*
X135434527Y-92034646D01*
X135434526Y-92034645D01*
X135426898Y-92031486D01*
X135418715Y-92030408D01*
X135418709Y-92030407D01*
X135284119Y-92012689D01*
X135275931Y-92011611D01*
X135267743Y-92012689D01*
X135133152Y-92030407D01*
X135133144Y-92030409D01*
X135124964Y-92031486D01*
X135117337Y-92034645D01*
X135117334Y-92034646D01*
X134991915Y-92086596D01*
X134991909Y-92086599D01*
X134984286Y-92089757D01*
X134977737Y-92094781D01*
X134977732Y-92094785D01*
X134870033Y-92177426D01*
X134870028Y-92177430D01*
X134863483Y-92182453D01*
X134858460Y-92188998D01*
X134858456Y-92189003D01*
X134775815Y-92296702D01*
X134775811Y-92296707D01*
X134770787Y-92303256D01*
X134767629Y-92310878D01*
X134767627Y-92310883D01*
X134727781Y-92407081D01*
X134688075Y-92458825D01*
X134627818Y-92483784D01*
X134563153Y-92475271D01*
X134519056Y-92441432D01*
X134518046Y-92442443D01*
X134512205Y-92436602D01*
X134507179Y-92430052D01*
X134485066Y-92413084D01*
X134392929Y-92342384D01*
X134392927Y-92342383D01*
X134386376Y-92337356D01*
X134378749Y-92334196D01*
X134378746Y-92334195D01*
X134253327Y-92282245D01*
X134253326Y-92282244D01*
X134245698Y-92279085D01*
X134237515Y-92278007D01*
X134237509Y-92278006D01*
X134102919Y-92260288D01*
X134094731Y-92259210D01*
X134086543Y-92260288D01*
X133951952Y-92278006D01*
X133951944Y-92278008D01*
X133943764Y-92279085D01*
X133936137Y-92282244D01*
X133936134Y-92282245D01*
X133810715Y-92334195D01*
X133810709Y-92334198D01*
X133803086Y-92337356D01*
X133796537Y-92342380D01*
X133796532Y-92342384D01*
X133688833Y-92425025D01*
X133688828Y-92425029D01*
X133682283Y-92430052D01*
X133677260Y-92436597D01*
X133677259Y-92436599D01*
X133611350Y-92522493D01*
X133559606Y-92562197D01*
X133494942Y-92570710D01*
X133434685Y-92545751D01*
X133387645Y-92509656D01*
X133380018Y-92506496D01*
X133380015Y-92506495D01*
X133254596Y-92454545D01*
X133254595Y-92454544D01*
X133246967Y-92451385D01*
X133238784Y-92450307D01*
X133238778Y-92450306D01*
X133104188Y-92432588D01*
X133096000Y-92431510D01*
X133087812Y-92432588D01*
X132953221Y-92450306D01*
X132953213Y-92450308D01*
X132945033Y-92451385D01*
X132937406Y-92454544D01*
X132937403Y-92454545D01*
X132811984Y-92506495D01*
X132811978Y-92506498D01*
X132804355Y-92509656D01*
X132797807Y-92514680D01*
X132797806Y-92514681D01*
X132687658Y-92599201D01*
X132627400Y-92624160D01*
X132562735Y-92615647D01*
X132522015Y-92584401D01*
X132520220Y-92586197D01*
X132514379Y-92580356D01*
X132509353Y-92573806D01*
X132491955Y-92560456D01*
X132395103Y-92486138D01*
X132395101Y-92486137D01*
X132388550Y-92481110D01*
X132380923Y-92477950D01*
X132380920Y-92477949D01*
X132255501Y-92425999D01*
X132255500Y-92425998D01*
X132247872Y-92422839D01*
X132239689Y-92421761D01*
X132239683Y-92421760D01*
X132105093Y-92404042D01*
X132096905Y-92402964D01*
X132088717Y-92404042D01*
X131954126Y-92421760D01*
X131954118Y-92421762D01*
X131945938Y-92422839D01*
X131938311Y-92425998D01*
X131938308Y-92425999D01*
X131812889Y-92477949D01*
X131812883Y-92477952D01*
X131805260Y-92481110D01*
X131798711Y-92486134D01*
X131798706Y-92486138D01*
X131691007Y-92568779D01*
X131691002Y-92568783D01*
X131684457Y-92573806D01*
X131679434Y-92580351D01*
X131679430Y-92580356D01*
X131596789Y-92688055D01*
X131596785Y-92688060D01*
X131591761Y-92694609D01*
X131588603Y-92702232D01*
X131588600Y-92702238D01*
X131539316Y-92821221D01*
X131533490Y-92835287D01*
X131532413Y-92843467D01*
X131532411Y-92843475D01*
X131521966Y-92922821D01*
X131513615Y-92986254D01*
X130650602Y-92986254D01*
X130649742Y-92979717D01*
X130591471Y-92839039D01*
X130498775Y-92718236D01*
X130489909Y-92711433D01*
X130384525Y-92630568D01*
X130384523Y-92630567D01*
X130377972Y-92625540D01*
X130370345Y-92622380D01*
X130370342Y-92622379D01*
X130244923Y-92570429D01*
X130244922Y-92570428D01*
X130237294Y-92567269D01*
X130229111Y-92566191D01*
X130229105Y-92566190D01*
X130094515Y-92548472D01*
X130086327Y-92547394D01*
X130078139Y-92548472D01*
X129943548Y-92566190D01*
X129943540Y-92566192D01*
X129935360Y-92567269D01*
X129927733Y-92570428D01*
X129927730Y-92570429D01*
X129802311Y-92622379D01*
X129802305Y-92622382D01*
X129794682Y-92625540D01*
X129788133Y-92630564D01*
X129788128Y-92630568D01*
X129680425Y-92713212D01*
X129680420Y-92713216D01*
X129678679Y-92714552D01*
X129678673Y-92714556D01*
X129673879Y-92718236D01*
X129673312Y-92717497D01*
X129617753Y-92747969D01*
X129547393Y-92743352D01*
X129490533Y-92701658D01*
X129482548Y-92691252D01*
X129475997Y-92686225D01*
X129368298Y-92603584D01*
X129368296Y-92603583D01*
X129361745Y-92598556D01*
X129354118Y-92595396D01*
X129354115Y-92595395D01*
X129228696Y-92543445D01*
X129228695Y-92543444D01*
X129221067Y-92540285D01*
X129212884Y-92539207D01*
X129212878Y-92539206D01*
X129078288Y-92521488D01*
X129070100Y-92520410D01*
X129061912Y-92521488D01*
X128927321Y-92539206D01*
X128927313Y-92539208D01*
X128919133Y-92540285D01*
X128911506Y-92543444D01*
X128911503Y-92543445D01*
X128786084Y-92595395D01*
X128786078Y-92595398D01*
X128778455Y-92598556D01*
X128771906Y-92603580D01*
X128771901Y-92603584D01*
X128664202Y-92686225D01*
X128664197Y-92686229D01*
X128657652Y-92691252D01*
X128652629Y-92697797D01*
X128652627Y-92697800D01*
X128611810Y-92750993D01*
X128554942Y-92792689D01*
X128484577Y-92797300D01*
X128422754Y-92763382D01*
X128420674Y-92761302D01*
X128415648Y-92754752D01*
X128409097Y-92749725D01*
X128301398Y-92667084D01*
X128301396Y-92667083D01*
X128294845Y-92662056D01*
X128287218Y-92658896D01*
X128287215Y-92658895D01*
X128161796Y-92606945D01*
X128161795Y-92606944D01*
X128154167Y-92603785D01*
X128145984Y-92602707D01*
X128145978Y-92602706D01*
X128011388Y-92584988D01*
X128003200Y-92583910D01*
X127995012Y-92584988D01*
X127860421Y-92602706D01*
X127860413Y-92602708D01*
X127852233Y-92603785D01*
X127844606Y-92606944D01*
X127844603Y-92606945D01*
X127719184Y-92658895D01*
X127719178Y-92658898D01*
X127711555Y-92662056D01*
X127705006Y-92667080D01*
X127705001Y-92667084D01*
X127597304Y-92749724D01*
X127597302Y-92749725D01*
X127590752Y-92754752D01*
X127589693Y-92756131D01*
X127536055Y-92787097D01*
X127470835Y-92787095D01*
X127417201Y-92756128D01*
X127416145Y-92754752D01*
X127409594Y-92749725D01*
X127301895Y-92667084D01*
X127301893Y-92667083D01*
X127295342Y-92662056D01*
X127287715Y-92658896D01*
X127287712Y-92658895D01*
X127162293Y-92606945D01*
X127162292Y-92606944D01*
X127154664Y-92603785D01*
X127146481Y-92602707D01*
X127146475Y-92602706D01*
X127011885Y-92584988D01*
X127003697Y-92583910D01*
X126995509Y-92584988D01*
X126860918Y-92602706D01*
X126860910Y-92602708D01*
X126852730Y-92603785D01*
X126845103Y-92606944D01*
X126845100Y-92606945D01*
X126719681Y-92658895D01*
X126719675Y-92658898D01*
X126712052Y-92662056D01*
X126705503Y-92667080D01*
X126705498Y-92667084D01*
X126597799Y-92749725D01*
X126597794Y-92749729D01*
X126591249Y-92754752D01*
X126586226Y-92761297D01*
X126586222Y-92761302D01*
X126503581Y-92869001D01*
X126503577Y-92869006D01*
X126498553Y-92875555D01*
X126495395Y-92883178D01*
X126495392Y-92883184D01*
X126443442Y-93008603D01*
X126440282Y-93016233D01*
X126439205Y-93024413D01*
X126439203Y-93024421D01*
X126426292Y-93122496D01*
X126420407Y-93167200D01*
X120472200Y-93167200D01*
X115354199Y-88049199D01*
X115321599Y-87992759D01*
X115321564Y-87927581D01*
X115354102Y-87871105D01*
X116901319Y-86320532D01*
X117371064Y-85849768D01*
X123634900Y-85849768D01*
X123634901Y-85849774D01*
X123634901Y-85855960D01*
X123645245Y-85907969D01*
X123684653Y-85966947D01*
X123743631Y-86006355D01*
X123795639Y-86016700D01*
X125530760Y-86016699D01*
X125582769Y-86006355D01*
X125641747Y-85966947D01*
X125681155Y-85907969D01*
X125691500Y-85855961D01*
X125691499Y-84988400D01*
X126169924Y-84988400D01*
X126189778Y-85189982D01*
X126191573Y-85195900D01*
X126191574Y-85195904D01*
X126226661Y-85311570D01*
X126248577Y-85383818D01*
X126344062Y-85562457D01*
X126472564Y-85719036D01*
X126629143Y-85847538D01*
X126807782Y-85943023D01*
X127001618Y-86001822D01*
X127203200Y-86021676D01*
X127404782Y-86001822D01*
X127598618Y-85943023D01*
X127777257Y-85847538D01*
X127933836Y-85719036D01*
X128062338Y-85562457D01*
X128157823Y-85383818D01*
X128216622Y-85189982D01*
X128236476Y-84988400D01*
X128709924Y-84988400D01*
X128729778Y-85189982D01*
X128731573Y-85195900D01*
X128731574Y-85195904D01*
X128766661Y-85311570D01*
X128788577Y-85383818D01*
X128884062Y-85562457D01*
X129012564Y-85719036D01*
X129169143Y-85847538D01*
X129347782Y-85943023D01*
X129541618Y-86001822D01*
X129743200Y-86021676D01*
X129944782Y-86001822D01*
X130138618Y-85943023D01*
X130317257Y-85847538D01*
X130473836Y-85719036D01*
X130602338Y-85562457D01*
X130697823Y-85383818D01*
X130756622Y-85189982D01*
X130776476Y-84988400D01*
X131249924Y-84988400D01*
X131269778Y-85189982D01*
X131271573Y-85195900D01*
X131271574Y-85195904D01*
X131306661Y-85311570D01*
X131328577Y-85383818D01*
X131424062Y-85562457D01*
X131552564Y-85719036D01*
X131709143Y-85847538D01*
X131887782Y-85943023D01*
X132081618Y-86001822D01*
X132283200Y-86021676D01*
X132484782Y-86001822D01*
X132678618Y-85943023D01*
X132857257Y-85847538D01*
X133013836Y-85719036D01*
X133142338Y-85562457D01*
X133237823Y-85383818D01*
X133296622Y-85189982D01*
X133316476Y-84988400D01*
X133789924Y-84988400D01*
X133809778Y-85189982D01*
X133811573Y-85195900D01*
X133811574Y-85195904D01*
X133846661Y-85311570D01*
X133868577Y-85383818D01*
X133964062Y-85562457D01*
X134092564Y-85719036D01*
X134249143Y-85847538D01*
X134427782Y-85943023D01*
X134621618Y-86001822D01*
X134823200Y-86021676D01*
X135024782Y-86001822D01*
X135218618Y-85943023D01*
X135397257Y-85847538D01*
X135553836Y-85719036D01*
X135682338Y-85562457D01*
X135777823Y-85383818D01*
X135836622Y-85189982D01*
X135856476Y-84988400D01*
X136329924Y-84988400D01*
X136349778Y-85189982D01*
X136351573Y-85195900D01*
X136351574Y-85195904D01*
X136386661Y-85311570D01*
X136408577Y-85383818D01*
X136504062Y-85562457D01*
X136632564Y-85719036D01*
X136789143Y-85847538D01*
X136967782Y-85943023D01*
X137161618Y-86001822D01*
X137363200Y-86021676D01*
X137564782Y-86001822D01*
X137758618Y-85943023D01*
X137937257Y-85847538D01*
X138093836Y-85719036D01*
X138222338Y-85562457D01*
X138317823Y-85383818D01*
X138376622Y-85189982D01*
X138396476Y-84988400D01*
X138869924Y-84988400D01*
X138889778Y-85189982D01*
X138891573Y-85195900D01*
X138891574Y-85195904D01*
X138926661Y-85311570D01*
X138948577Y-85383818D01*
X139044062Y-85562457D01*
X139172564Y-85719036D01*
X139329143Y-85847538D01*
X139507782Y-85943023D01*
X139701618Y-86001822D01*
X139903200Y-86021676D01*
X140104782Y-86001822D01*
X140298618Y-85943023D01*
X140477257Y-85847538D01*
X140633836Y-85719036D01*
X140762338Y-85562457D01*
X140857823Y-85383818D01*
X140916622Y-85189982D01*
X140936476Y-84988400D01*
X141409924Y-84988400D01*
X141429778Y-85189982D01*
X141431573Y-85195900D01*
X141431574Y-85195904D01*
X141466661Y-85311570D01*
X141488577Y-85383818D01*
X141584062Y-85562457D01*
X141712564Y-85719036D01*
X141869143Y-85847538D01*
X142047782Y-85943023D01*
X142241618Y-86001822D01*
X142443200Y-86021676D01*
X142644782Y-86001822D01*
X142838618Y-85943023D01*
X143017257Y-85847538D01*
X143173836Y-85719036D01*
X143302338Y-85562457D01*
X143397823Y-85383818D01*
X143456622Y-85189982D01*
X143476476Y-84988400D01*
X143949924Y-84988400D01*
X143969778Y-85189982D01*
X143971573Y-85195900D01*
X143971574Y-85195904D01*
X144006661Y-85311570D01*
X144028577Y-85383818D01*
X144124062Y-85562457D01*
X144252564Y-85719036D01*
X144409143Y-85847538D01*
X144587782Y-85943023D01*
X144781618Y-86001822D01*
X144983200Y-86021676D01*
X145184782Y-86001822D01*
X145378618Y-85943023D01*
X145557257Y-85847538D01*
X145713836Y-85719036D01*
X145842338Y-85562457D01*
X145937823Y-85383818D01*
X145996622Y-85189982D01*
X146016476Y-84988400D01*
X146489924Y-84988400D01*
X146509778Y-85189982D01*
X146511573Y-85195900D01*
X146511574Y-85195904D01*
X146546661Y-85311570D01*
X146568577Y-85383818D01*
X146664062Y-85562457D01*
X146792564Y-85719036D01*
X146949143Y-85847538D01*
X147127782Y-85943023D01*
X147321618Y-86001822D01*
X147523200Y-86021676D01*
X147724782Y-86001822D01*
X147918618Y-85943023D01*
X148097257Y-85847538D01*
X148253836Y-85719036D01*
X148382338Y-85562457D01*
X148477823Y-85383818D01*
X148536622Y-85189982D01*
X148556476Y-84988400D01*
X149029924Y-84988400D01*
X149049778Y-85189982D01*
X149051573Y-85195900D01*
X149051574Y-85195904D01*
X149086661Y-85311570D01*
X149108577Y-85383818D01*
X149204062Y-85562457D01*
X149332564Y-85719036D01*
X149489143Y-85847538D01*
X149667782Y-85943023D01*
X149861618Y-86001822D01*
X150063200Y-86021676D01*
X150264782Y-86001822D01*
X150458618Y-85943023D01*
X150637257Y-85847538D01*
X150793836Y-85719036D01*
X150922338Y-85562457D01*
X151017823Y-85383818D01*
X151041451Y-85305923D01*
X151075545Y-85250865D01*
X151132484Y-85220012D01*
X151197228Y-85221517D01*
X151252673Y-85254983D01*
X151284170Y-85311569D01*
X151313096Y-85425796D01*
X151316470Y-85435623D01*
X151402688Y-85632178D01*
X151407631Y-85641313D01*
X151525022Y-85820993D01*
X151531410Y-85829199D01*
X151676767Y-85987100D01*
X151684411Y-85994137D01*
X151853788Y-86125968D01*
X151862481Y-86131647D01*
X152051242Y-86233800D01*
X152060759Y-86237975D01*
X152263757Y-86307664D01*
X152273827Y-86310214D01*
X152335661Y-86320532D01*
X152346798Y-86319956D01*
X152349200Y-86309064D01*
X152857200Y-86309064D01*
X152859601Y-86319956D01*
X152870738Y-86320532D01*
X152932572Y-86310214D01*
X152942642Y-86307664D01*
X153145640Y-86237975D01*
X153155157Y-86233800D01*
X153343918Y-86131647D01*
X153352611Y-86125968D01*
X153521988Y-85994137D01*
X153529632Y-85987100D01*
X153674989Y-85829199D01*
X153681377Y-85820993D01*
X153798768Y-85641313D01*
X153803711Y-85632178D01*
X153889929Y-85435623D01*
X153893300Y-85425805D01*
X153922228Y-85311570D01*
X153953726Y-85254984D01*
X154009170Y-85221518D01*
X154073913Y-85220012D01*
X154130853Y-85250864D01*
X154164947Y-85305924D01*
X154186776Y-85377885D01*
X154186779Y-85377892D01*
X154188577Y-85383818D01*
X154284062Y-85562457D01*
X154412564Y-85719036D01*
X154569143Y-85847538D01*
X154747782Y-85943023D01*
X154941618Y-86001822D01*
X155143200Y-86021676D01*
X155344782Y-86001822D01*
X155538618Y-85943023D01*
X155717257Y-85847538D01*
X155873836Y-85719036D01*
X156002338Y-85562457D01*
X156097823Y-85383818D01*
X156156622Y-85189982D01*
X156176476Y-84988400D01*
X156156622Y-84786818D01*
X156097823Y-84592982D01*
X156002338Y-84414343D01*
X155873836Y-84257764D01*
X155717257Y-84129262D01*
X155538618Y-84033777D01*
X155532697Y-84031981D01*
X155532695Y-84031980D01*
X155350704Y-83976774D01*
X155350700Y-83976773D01*
X155344782Y-83974978D01*
X155143200Y-83955124D01*
X155137037Y-83955731D01*
X154947780Y-83974371D01*
X154947779Y-83974371D01*
X154941618Y-83974978D01*
X154935701Y-83976772D01*
X154935695Y-83976774D01*
X154753704Y-84031980D01*
X154753698Y-84031982D01*
X154747782Y-84033777D01*
X154742324Y-84036694D01*
X154742320Y-84036696D01*
X154596255Y-84114770D01*
X154569143Y-84129262D01*
X154564362Y-84133186D01*
X154417343Y-84253841D01*
X154417337Y-84253846D01*
X154412564Y-84257764D01*
X154408646Y-84262537D01*
X154408641Y-84262543D01*
X154287988Y-84409558D01*
X154287983Y-84409564D01*
X154284062Y-84414343D01*
X154281144Y-84419801D01*
X154281144Y-84419802D01*
X154191496Y-84587520D01*
X154191494Y-84587524D01*
X154188577Y-84592982D01*
X154186781Y-84598899D01*
X154186776Y-84598914D01*
X154164947Y-84670875D01*
X154130853Y-84725935D01*
X154073913Y-84756787D01*
X154009170Y-84755281D01*
X153953726Y-84721815D01*
X153922228Y-84665230D01*
X153893299Y-84550991D01*
X153889929Y-84541176D01*
X153803711Y-84344621D01*
X153798768Y-84335486D01*
X153681377Y-84155806D01*
X153674989Y-84147600D01*
X153529632Y-83989699D01*
X153521988Y-83982662D01*
X153352611Y-83850831D01*
X153343918Y-83845152D01*
X153314467Y-83829214D01*
X153266195Y-83782898D01*
X153248436Y-83718400D01*
X153266195Y-83653902D01*
X153314467Y-83607586D01*
X153343918Y-83591647D01*
X153352611Y-83585968D01*
X153521988Y-83454137D01*
X153529632Y-83447100D01*
X153674989Y-83289199D01*
X153681377Y-83280993D01*
X153798768Y-83101313D01*
X153803711Y-83092178D01*
X153889929Y-82895623D01*
X153893300Y-82885805D01*
X153922228Y-82771570D01*
X153953726Y-82714984D01*
X154009170Y-82681518D01*
X154073913Y-82680012D01*
X154130853Y-82710864D01*
X154164947Y-82765924D01*
X154186776Y-82837885D01*
X154186779Y-82837892D01*
X154188577Y-82843818D01*
X154284062Y-83022457D01*
X154412564Y-83179036D01*
X154569143Y-83307538D01*
X154747782Y-83403023D01*
X154941618Y-83461822D01*
X155143200Y-83481676D01*
X155344782Y-83461822D01*
X155538618Y-83403023D01*
X155717257Y-83307538D01*
X155873836Y-83179036D01*
X156002338Y-83022457D01*
X156097823Y-82843818D01*
X156156622Y-82649982D01*
X156176476Y-82448400D01*
X156156622Y-82246818D01*
X156097823Y-82052982D01*
X156002338Y-81874343D01*
X155873836Y-81717764D01*
X155717257Y-81589262D01*
X155538618Y-81493777D01*
X155532697Y-81491981D01*
X155532695Y-81491980D01*
X155350704Y-81436774D01*
X155350700Y-81436773D01*
X155344782Y-81434978D01*
X155143200Y-81415124D01*
X155137037Y-81415731D01*
X154947780Y-81434371D01*
X154947779Y-81434371D01*
X154941618Y-81434978D01*
X154935701Y-81436772D01*
X154935695Y-81436774D01*
X154753704Y-81491980D01*
X154753698Y-81491982D01*
X154747782Y-81493777D01*
X154742324Y-81496694D01*
X154742320Y-81496696D01*
X154574602Y-81586344D01*
X154569143Y-81589262D01*
X154564364Y-81593183D01*
X154564358Y-81593188D01*
X154417343Y-81713841D01*
X154417337Y-81713846D01*
X154412564Y-81717764D01*
X154408646Y-81722537D01*
X154408641Y-81722543D01*
X154287988Y-81869558D01*
X154287983Y-81869564D01*
X154284062Y-81874343D01*
X154281144Y-81879801D01*
X154281144Y-81879802D01*
X154191496Y-82047520D01*
X154191494Y-82047524D01*
X154188577Y-82052982D01*
X154186781Y-82058899D01*
X154186776Y-82058914D01*
X154164947Y-82130875D01*
X154130853Y-82185935D01*
X154073913Y-82216787D01*
X154009170Y-82215281D01*
X153953726Y-82181815D01*
X153922228Y-82125230D01*
X153893299Y-82010991D01*
X153889929Y-82001176D01*
X153803711Y-81804621D01*
X153798768Y-81795486D01*
X153681377Y-81615806D01*
X153674989Y-81607600D01*
X153529632Y-81449699D01*
X153521988Y-81442662D01*
X153352611Y-81310831D01*
X153343918Y-81305152D01*
X153155157Y-81202999D01*
X153145640Y-81198824D01*
X152942642Y-81129135D01*
X152932572Y-81126585D01*
X152870738Y-81116267D01*
X152859601Y-81116843D01*
X152857200Y-81127736D01*
X152857200Y-86309064D01*
X152349200Y-86309064D01*
X152349200Y-81127736D01*
X152346798Y-81116843D01*
X152335661Y-81116267D01*
X152273827Y-81126585D01*
X152263757Y-81129135D01*
X152060759Y-81198824D01*
X152051242Y-81202999D01*
X151862481Y-81305152D01*
X151853788Y-81310831D01*
X151684411Y-81442662D01*
X151676767Y-81449699D01*
X151531410Y-81607600D01*
X151525022Y-81615806D01*
X151407631Y-81795486D01*
X151402688Y-81804621D01*
X151316470Y-82001176D01*
X151313097Y-82011000D01*
X151284170Y-82125231D01*
X151252673Y-82181816D01*
X151197228Y-82215282D01*
X151132485Y-82216787D01*
X151075545Y-82185934D01*
X151041451Y-82130874D01*
X151019620Y-82058907D01*
X151019619Y-82058904D01*
X151017823Y-82052982D01*
X150922338Y-81874343D01*
X150793836Y-81717764D01*
X150637257Y-81589262D01*
X150458618Y-81493777D01*
X150452697Y-81491981D01*
X150452695Y-81491980D01*
X150270704Y-81436774D01*
X150270700Y-81436773D01*
X150264782Y-81434978D01*
X150063200Y-81415124D01*
X150057037Y-81415731D01*
X149867780Y-81434371D01*
X149867779Y-81434371D01*
X149861618Y-81434978D01*
X149855701Y-81436772D01*
X149855695Y-81436774D01*
X149673704Y-81491980D01*
X149673698Y-81491982D01*
X149667782Y-81493777D01*
X149662324Y-81496694D01*
X149662320Y-81496696D01*
X149494602Y-81586344D01*
X149489143Y-81589262D01*
X149484364Y-81593183D01*
X149484358Y-81593188D01*
X149337343Y-81713841D01*
X149337337Y-81713846D01*
X149332564Y-81717764D01*
X149328646Y-81722537D01*
X149328641Y-81722543D01*
X149207988Y-81869558D01*
X149207983Y-81869564D01*
X149204062Y-81874343D01*
X149201144Y-81879801D01*
X149201144Y-81879802D01*
X149111496Y-82047520D01*
X149111494Y-82047524D01*
X149108577Y-82052982D01*
X149106782Y-82058898D01*
X149106780Y-82058904D01*
X149051574Y-82240895D01*
X149051572Y-82240901D01*
X149049778Y-82246818D01*
X149029924Y-82448400D01*
X149049778Y-82649982D01*
X149051573Y-82655900D01*
X149051574Y-82655904D01*
X149086661Y-82771570D01*
X149108577Y-82843818D01*
X149204062Y-83022457D01*
X149332564Y-83179036D01*
X149489143Y-83307538D01*
X149667782Y-83403023D01*
X149861618Y-83461822D01*
X150063200Y-83481676D01*
X150264782Y-83461822D01*
X150458618Y-83403023D01*
X150637257Y-83307538D01*
X150793836Y-83179036D01*
X150922338Y-83022457D01*
X151017823Y-82843818D01*
X151041451Y-82765923D01*
X151075545Y-82710865D01*
X151132484Y-82680012D01*
X151197228Y-82681517D01*
X151252673Y-82714983D01*
X151284170Y-82771569D01*
X151313096Y-82885796D01*
X151316470Y-82895623D01*
X151402688Y-83092178D01*
X151407631Y-83101313D01*
X151525022Y-83280993D01*
X151531410Y-83289199D01*
X151676767Y-83447100D01*
X151684411Y-83454137D01*
X151853788Y-83585968D01*
X151862485Y-83591650D01*
X151891933Y-83607587D01*
X151940204Y-83653903D01*
X151957963Y-83718400D01*
X151940204Y-83782897D01*
X151891933Y-83829213D01*
X151862485Y-83845149D01*
X151853788Y-83850831D01*
X151684411Y-83982662D01*
X151676767Y-83989699D01*
X151531410Y-84147600D01*
X151525022Y-84155806D01*
X151407631Y-84335486D01*
X151402688Y-84344621D01*
X151316470Y-84541176D01*
X151313097Y-84551000D01*
X151284170Y-84665231D01*
X151252673Y-84721816D01*
X151197228Y-84755282D01*
X151132485Y-84756787D01*
X151075545Y-84725934D01*
X151041451Y-84670874D01*
X151019620Y-84598907D01*
X151019619Y-84598904D01*
X151017823Y-84592982D01*
X150922338Y-84414343D01*
X150793836Y-84257764D01*
X150637257Y-84129262D01*
X150458618Y-84033777D01*
X150452697Y-84031981D01*
X150452695Y-84031980D01*
X150270704Y-83976774D01*
X150270700Y-83976773D01*
X150264782Y-83974978D01*
X150063200Y-83955124D01*
X150057037Y-83955731D01*
X149867780Y-83974371D01*
X149867779Y-83974371D01*
X149861618Y-83974978D01*
X149855701Y-83976772D01*
X149855695Y-83976774D01*
X149673704Y-84031980D01*
X149673698Y-84031982D01*
X149667782Y-84033777D01*
X149662324Y-84036694D01*
X149662320Y-84036696D01*
X149516255Y-84114770D01*
X149489143Y-84129262D01*
X149484362Y-84133186D01*
X149337343Y-84253841D01*
X149337337Y-84253846D01*
X149332564Y-84257764D01*
X149328646Y-84262537D01*
X149328641Y-84262543D01*
X149207988Y-84409558D01*
X149207983Y-84409564D01*
X149204062Y-84414343D01*
X149201144Y-84419801D01*
X149201144Y-84419802D01*
X149111496Y-84587520D01*
X149111494Y-84587524D01*
X149108577Y-84592982D01*
X149106782Y-84598898D01*
X149106780Y-84598904D01*
X149051574Y-84780895D01*
X149051572Y-84780901D01*
X149049778Y-84786818D01*
X149029924Y-84988400D01*
X148556476Y-84988400D01*
X148536622Y-84786818D01*
X148477823Y-84592982D01*
X148382338Y-84414343D01*
X148253836Y-84257764D01*
X148097257Y-84129262D01*
X147918618Y-84033777D01*
X147912697Y-84031981D01*
X147912695Y-84031980D01*
X147730704Y-83976774D01*
X147730700Y-83976773D01*
X147724782Y-83974978D01*
X147523200Y-83955124D01*
X147517037Y-83955731D01*
X147327780Y-83974371D01*
X147327779Y-83974371D01*
X147321618Y-83974978D01*
X147315701Y-83976772D01*
X147315695Y-83976774D01*
X147133704Y-84031980D01*
X147133698Y-84031982D01*
X147127782Y-84033777D01*
X147122324Y-84036694D01*
X147122320Y-84036696D01*
X146976255Y-84114770D01*
X146949143Y-84129262D01*
X146944362Y-84133186D01*
X146797343Y-84253841D01*
X146797337Y-84253846D01*
X146792564Y-84257764D01*
X146788646Y-84262537D01*
X146788641Y-84262543D01*
X146667988Y-84409558D01*
X146667983Y-84409564D01*
X146664062Y-84414343D01*
X146661144Y-84419801D01*
X146661144Y-84419802D01*
X146571496Y-84587520D01*
X146571494Y-84587524D01*
X146568577Y-84592982D01*
X146566782Y-84598898D01*
X146566780Y-84598904D01*
X146511574Y-84780895D01*
X146511572Y-84780901D01*
X146509778Y-84786818D01*
X146489924Y-84988400D01*
X146016476Y-84988400D01*
X145996622Y-84786818D01*
X145937823Y-84592982D01*
X145842338Y-84414343D01*
X145713836Y-84257764D01*
X145557257Y-84129262D01*
X145378618Y-84033777D01*
X145372697Y-84031981D01*
X145372695Y-84031980D01*
X145190704Y-83976774D01*
X145190700Y-83976773D01*
X145184782Y-83974978D01*
X144983200Y-83955124D01*
X144977037Y-83955731D01*
X144787780Y-83974371D01*
X144787779Y-83974371D01*
X144781618Y-83974978D01*
X144775701Y-83976772D01*
X144775695Y-83976774D01*
X144593704Y-84031980D01*
X144593698Y-84031982D01*
X144587782Y-84033777D01*
X144582324Y-84036694D01*
X144582320Y-84036696D01*
X144436255Y-84114770D01*
X144409143Y-84129262D01*
X144404362Y-84133186D01*
X144257343Y-84253841D01*
X144257337Y-84253846D01*
X144252564Y-84257764D01*
X144248646Y-84262537D01*
X144248641Y-84262543D01*
X144127988Y-84409558D01*
X144127983Y-84409564D01*
X144124062Y-84414343D01*
X144121144Y-84419801D01*
X144121144Y-84419802D01*
X144031496Y-84587520D01*
X144031494Y-84587524D01*
X144028577Y-84592982D01*
X144026782Y-84598898D01*
X144026780Y-84598904D01*
X143971574Y-84780895D01*
X143971572Y-84780901D01*
X143969778Y-84786818D01*
X143949924Y-84988400D01*
X143476476Y-84988400D01*
X143456622Y-84786818D01*
X143397823Y-84592982D01*
X143302338Y-84414343D01*
X143173836Y-84257764D01*
X143017257Y-84129262D01*
X142838618Y-84033777D01*
X142832697Y-84031981D01*
X142832695Y-84031980D01*
X142650704Y-83976774D01*
X142650700Y-83976773D01*
X142644782Y-83974978D01*
X142443200Y-83955124D01*
X142437037Y-83955731D01*
X142247780Y-83974371D01*
X142247779Y-83974371D01*
X142241618Y-83974978D01*
X142235701Y-83976772D01*
X142235695Y-83976774D01*
X142053704Y-84031980D01*
X142053698Y-84031982D01*
X142047782Y-84033777D01*
X142042324Y-84036694D01*
X142042320Y-84036696D01*
X141896255Y-84114770D01*
X141869143Y-84129262D01*
X141864362Y-84133186D01*
X141717343Y-84253841D01*
X141717337Y-84253846D01*
X141712564Y-84257764D01*
X141708646Y-84262537D01*
X141708641Y-84262543D01*
X141587988Y-84409558D01*
X141587983Y-84409564D01*
X141584062Y-84414343D01*
X141581144Y-84419801D01*
X141581144Y-84419802D01*
X141491496Y-84587520D01*
X141491494Y-84587524D01*
X141488577Y-84592982D01*
X141486782Y-84598898D01*
X141486780Y-84598904D01*
X141431574Y-84780895D01*
X141431572Y-84780901D01*
X141429778Y-84786818D01*
X141409924Y-84988400D01*
X140936476Y-84988400D01*
X140916622Y-84786818D01*
X140857823Y-84592982D01*
X140762338Y-84414343D01*
X140633836Y-84257764D01*
X140477257Y-84129262D01*
X140298618Y-84033777D01*
X140292697Y-84031981D01*
X140292695Y-84031980D01*
X140110704Y-83976774D01*
X140110700Y-83976773D01*
X140104782Y-83974978D01*
X139903200Y-83955124D01*
X139897037Y-83955731D01*
X139707780Y-83974371D01*
X139707779Y-83974371D01*
X139701618Y-83974978D01*
X139695701Y-83976772D01*
X139695695Y-83976774D01*
X139513704Y-84031980D01*
X139513698Y-84031982D01*
X139507782Y-84033777D01*
X139502324Y-84036694D01*
X139502320Y-84036696D01*
X139356255Y-84114770D01*
X139329143Y-84129262D01*
X139324362Y-84133186D01*
X139177343Y-84253841D01*
X139177337Y-84253846D01*
X139172564Y-84257764D01*
X139168646Y-84262537D01*
X139168641Y-84262543D01*
X139047988Y-84409558D01*
X139047983Y-84409564D01*
X139044062Y-84414343D01*
X139041144Y-84419801D01*
X139041144Y-84419802D01*
X138951496Y-84587520D01*
X138951494Y-84587524D01*
X138948577Y-84592982D01*
X138946782Y-84598898D01*
X138946780Y-84598904D01*
X138891574Y-84780895D01*
X138891572Y-84780901D01*
X138889778Y-84786818D01*
X138869924Y-84988400D01*
X138396476Y-84988400D01*
X138376622Y-84786818D01*
X138317823Y-84592982D01*
X138222338Y-84414343D01*
X138093836Y-84257764D01*
X137937257Y-84129262D01*
X137758618Y-84033777D01*
X137752697Y-84031981D01*
X137752695Y-84031980D01*
X137570704Y-83976774D01*
X137570700Y-83976773D01*
X137564782Y-83974978D01*
X137363200Y-83955124D01*
X137357037Y-83955731D01*
X137167780Y-83974371D01*
X137167779Y-83974371D01*
X137161618Y-83974978D01*
X137155701Y-83976772D01*
X137155695Y-83976774D01*
X136973704Y-84031980D01*
X136973698Y-84031982D01*
X136967782Y-84033777D01*
X136962324Y-84036694D01*
X136962320Y-84036696D01*
X136816255Y-84114770D01*
X136789143Y-84129262D01*
X136784362Y-84133186D01*
X136637343Y-84253841D01*
X136637337Y-84253846D01*
X136632564Y-84257764D01*
X136628646Y-84262537D01*
X136628641Y-84262543D01*
X136507988Y-84409558D01*
X136507983Y-84409564D01*
X136504062Y-84414343D01*
X136501144Y-84419801D01*
X136501144Y-84419802D01*
X136411496Y-84587520D01*
X136411494Y-84587524D01*
X136408577Y-84592982D01*
X136406782Y-84598898D01*
X136406780Y-84598904D01*
X136351574Y-84780895D01*
X136351572Y-84780901D01*
X136349778Y-84786818D01*
X136329924Y-84988400D01*
X135856476Y-84988400D01*
X135836622Y-84786818D01*
X135777823Y-84592982D01*
X135682338Y-84414343D01*
X135553836Y-84257764D01*
X135397257Y-84129262D01*
X135218618Y-84033777D01*
X135212697Y-84031981D01*
X135212695Y-84031980D01*
X135030704Y-83976774D01*
X135030700Y-83976773D01*
X135024782Y-83974978D01*
X134823200Y-83955124D01*
X134817037Y-83955731D01*
X134627780Y-83974371D01*
X134627779Y-83974371D01*
X134621618Y-83974978D01*
X134615701Y-83976772D01*
X134615695Y-83976774D01*
X134433704Y-84031980D01*
X134433698Y-84031982D01*
X134427782Y-84033777D01*
X134422324Y-84036694D01*
X134422320Y-84036696D01*
X134276255Y-84114770D01*
X134249143Y-84129262D01*
X134244362Y-84133186D01*
X134097343Y-84253841D01*
X134097337Y-84253846D01*
X134092564Y-84257764D01*
X134088646Y-84262537D01*
X134088641Y-84262543D01*
X133967988Y-84409558D01*
X133967983Y-84409564D01*
X133964062Y-84414343D01*
X133961144Y-84419801D01*
X133961144Y-84419802D01*
X133871496Y-84587520D01*
X133871494Y-84587524D01*
X133868577Y-84592982D01*
X133866782Y-84598898D01*
X133866780Y-84598904D01*
X133811574Y-84780895D01*
X133811572Y-84780901D01*
X133809778Y-84786818D01*
X133789924Y-84988400D01*
X133316476Y-84988400D01*
X133296622Y-84786818D01*
X133237823Y-84592982D01*
X133142338Y-84414343D01*
X133013836Y-84257764D01*
X132857257Y-84129262D01*
X132678618Y-84033777D01*
X132672697Y-84031981D01*
X132672695Y-84031980D01*
X132490704Y-83976774D01*
X132490700Y-83976773D01*
X132484782Y-83974978D01*
X132283200Y-83955124D01*
X132277037Y-83955731D01*
X132087780Y-83974371D01*
X132087779Y-83974371D01*
X132081618Y-83974978D01*
X132075701Y-83976772D01*
X132075695Y-83976774D01*
X131893704Y-84031980D01*
X131893698Y-84031982D01*
X131887782Y-84033777D01*
X131882324Y-84036694D01*
X131882320Y-84036696D01*
X131736255Y-84114770D01*
X131709143Y-84129262D01*
X131704362Y-84133186D01*
X131557343Y-84253841D01*
X131557337Y-84253846D01*
X131552564Y-84257764D01*
X131548646Y-84262537D01*
X131548641Y-84262543D01*
X131427988Y-84409558D01*
X131427983Y-84409564D01*
X131424062Y-84414343D01*
X131421144Y-84419801D01*
X131421144Y-84419802D01*
X131331496Y-84587520D01*
X131331494Y-84587524D01*
X131328577Y-84592982D01*
X131326782Y-84598898D01*
X131326780Y-84598904D01*
X131271574Y-84780895D01*
X131271572Y-84780901D01*
X131269778Y-84786818D01*
X131249924Y-84988400D01*
X130776476Y-84988400D01*
X130756622Y-84786818D01*
X130697823Y-84592982D01*
X130602338Y-84414343D01*
X130473836Y-84257764D01*
X130317257Y-84129262D01*
X130138618Y-84033777D01*
X130132697Y-84031981D01*
X130132695Y-84031980D01*
X129950704Y-83976774D01*
X129950700Y-83976773D01*
X129944782Y-83974978D01*
X129743200Y-83955124D01*
X129737037Y-83955731D01*
X129547780Y-83974371D01*
X129547779Y-83974371D01*
X129541618Y-83974978D01*
X129535701Y-83976772D01*
X129535695Y-83976774D01*
X129353704Y-84031980D01*
X129353698Y-84031982D01*
X129347782Y-84033777D01*
X129342324Y-84036694D01*
X129342320Y-84036696D01*
X129196255Y-84114770D01*
X129169143Y-84129262D01*
X129164362Y-84133186D01*
X129017343Y-84253841D01*
X129017337Y-84253846D01*
X129012564Y-84257764D01*
X129008646Y-84262537D01*
X129008641Y-84262543D01*
X128887988Y-84409558D01*
X128887983Y-84409564D01*
X128884062Y-84414343D01*
X128881144Y-84419801D01*
X128881144Y-84419802D01*
X128791496Y-84587520D01*
X128791494Y-84587524D01*
X128788577Y-84592982D01*
X128786782Y-84598898D01*
X128786780Y-84598904D01*
X128731574Y-84780895D01*
X128731572Y-84780901D01*
X128729778Y-84786818D01*
X128709924Y-84988400D01*
X128236476Y-84988400D01*
X128216622Y-84786818D01*
X128157823Y-84592982D01*
X128062338Y-84414343D01*
X127933836Y-84257764D01*
X127777257Y-84129262D01*
X127598618Y-84033777D01*
X127592697Y-84031981D01*
X127592695Y-84031980D01*
X127410704Y-83976774D01*
X127410700Y-83976773D01*
X127404782Y-83974978D01*
X127203200Y-83955124D01*
X127197037Y-83955731D01*
X127007780Y-83974371D01*
X127007779Y-83974371D01*
X127001618Y-83974978D01*
X126995701Y-83976772D01*
X126995695Y-83976774D01*
X126813704Y-84031980D01*
X126813698Y-84031982D01*
X126807782Y-84033777D01*
X126802324Y-84036694D01*
X126802320Y-84036696D01*
X126656255Y-84114770D01*
X126629143Y-84129262D01*
X126624362Y-84133186D01*
X126477343Y-84253841D01*
X126477337Y-84253846D01*
X126472564Y-84257764D01*
X126468646Y-84262537D01*
X126468641Y-84262543D01*
X126347988Y-84409558D01*
X126347983Y-84409564D01*
X126344062Y-84414343D01*
X126341144Y-84419801D01*
X126341144Y-84419802D01*
X126251496Y-84587520D01*
X126251494Y-84587524D01*
X126248577Y-84592982D01*
X126246782Y-84598898D01*
X126246780Y-84598904D01*
X126191574Y-84780895D01*
X126191572Y-84780901D01*
X126189778Y-84786818D01*
X126169924Y-84988400D01*
X125691499Y-84988400D01*
X125691499Y-84120840D01*
X125681155Y-84068831D01*
X125641747Y-84009853D01*
X125582769Y-83970445D01*
X125570599Y-83968024D01*
X125570596Y-83968023D01*
X125536829Y-83961307D01*
X125530761Y-83960100D01*
X125524574Y-83960100D01*
X123801831Y-83960100D01*
X123801820Y-83960100D01*
X123795640Y-83960101D01*
X123789572Y-83961307D01*
X123789570Y-83961308D01*
X123755803Y-83968024D01*
X123755802Y-83968024D01*
X123743631Y-83970445D01*
X123733311Y-83977340D01*
X123733310Y-83977341D01*
X123694968Y-84002960D01*
X123694965Y-84002962D01*
X123684653Y-84009853D01*
X123677762Y-84020165D01*
X123677760Y-84020168D01*
X123652140Y-84058511D01*
X123652138Y-84058513D01*
X123645245Y-84068831D01*
X123642824Y-84080999D01*
X123642823Y-84081003D01*
X123636107Y-84114770D01*
X123634900Y-84120839D01*
X123634900Y-84127024D01*
X123634900Y-84127025D01*
X123634900Y-85849768D01*
X117371064Y-85849768D01*
X120765069Y-82448400D01*
X123629924Y-82448400D01*
X123649778Y-82649982D01*
X123651573Y-82655900D01*
X123651574Y-82655904D01*
X123686661Y-82771570D01*
X123708577Y-82843818D01*
X123804062Y-83022457D01*
X123932564Y-83179036D01*
X124089143Y-83307538D01*
X124267782Y-83403023D01*
X124461618Y-83461822D01*
X124663200Y-83481676D01*
X124864782Y-83461822D01*
X125058618Y-83403023D01*
X125237257Y-83307538D01*
X125393836Y-83179036D01*
X125522338Y-83022457D01*
X125617823Y-82843818D01*
X125676622Y-82649982D01*
X125696476Y-82448400D01*
X126169924Y-82448400D01*
X126189778Y-82649982D01*
X126191573Y-82655900D01*
X126191574Y-82655904D01*
X126226661Y-82771570D01*
X126248577Y-82843818D01*
X126344062Y-83022457D01*
X126472564Y-83179036D01*
X126629143Y-83307538D01*
X126807782Y-83403023D01*
X127001618Y-83461822D01*
X127203200Y-83481676D01*
X127404782Y-83461822D01*
X127598618Y-83403023D01*
X127777257Y-83307538D01*
X127933836Y-83179036D01*
X128062338Y-83022457D01*
X128157823Y-82843818D01*
X128216622Y-82649982D01*
X128236476Y-82448400D01*
X128709924Y-82448400D01*
X128729778Y-82649982D01*
X128731573Y-82655900D01*
X128731574Y-82655904D01*
X128766661Y-82771570D01*
X128788577Y-82843818D01*
X128884062Y-83022457D01*
X129012564Y-83179036D01*
X129169143Y-83307538D01*
X129347782Y-83403023D01*
X129541618Y-83461822D01*
X129743200Y-83481676D01*
X129944782Y-83461822D01*
X130138618Y-83403023D01*
X130317257Y-83307538D01*
X130473836Y-83179036D01*
X130602338Y-83022457D01*
X130697823Y-82843818D01*
X130756622Y-82649982D01*
X130776476Y-82448400D01*
X131249924Y-82448400D01*
X131269778Y-82649982D01*
X131271573Y-82655900D01*
X131271574Y-82655904D01*
X131306661Y-82771570D01*
X131328577Y-82843818D01*
X131424062Y-83022457D01*
X131552564Y-83179036D01*
X131709143Y-83307538D01*
X131887782Y-83403023D01*
X132081618Y-83461822D01*
X132283200Y-83481676D01*
X132484782Y-83461822D01*
X132678618Y-83403023D01*
X132857257Y-83307538D01*
X133013836Y-83179036D01*
X133142338Y-83022457D01*
X133237823Y-82843818D01*
X133296622Y-82649982D01*
X133316476Y-82448400D01*
X133789924Y-82448400D01*
X133809778Y-82649982D01*
X133811573Y-82655900D01*
X133811574Y-82655904D01*
X133846661Y-82771570D01*
X133868577Y-82843818D01*
X133964062Y-83022457D01*
X134092564Y-83179036D01*
X134249143Y-83307538D01*
X134427782Y-83403023D01*
X134621618Y-83461822D01*
X134823200Y-83481676D01*
X135024782Y-83461822D01*
X135218618Y-83403023D01*
X135397257Y-83307538D01*
X135553836Y-83179036D01*
X135682338Y-83022457D01*
X135777823Y-82843818D01*
X135836622Y-82649982D01*
X135856476Y-82448400D01*
X136329924Y-82448400D01*
X136349778Y-82649982D01*
X136351573Y-82655900D01*
X136351574Y-82655904D01*
X136386661Y-82771570D01*
X136408577Y-82843818D01*
X136504062Y-83022457D01*
X136632564Y-83179036D01*
X136789143Y-83307538D01*
X136967782Y-83403023D01*
X137161618Y-83461822D01*
X137363200Y-83481676D01*
X137564782Y-83461822D01*
X137758618Y-83403023D01*
X137937257Y-83307538D01*
X138093836Y-83179036D01*
X138222338Y-83022457D01*
X138317823Y-82843818D01*
X138376622Y-82649982D01*
X138396476Y-82448400D01*
X138869924Y-82448400D01*
X138889778Y-82649982D01*
X138891573Y-82655900D01*
X138891574Y-82655904D01*
X138926661Y-82771570D01*
X138948577Y-82843818D01*
X139044062Y-83022457D01*
X139172564Y-83179036D01*
X139329143Y-83307538D01*
X139507782Y-83403023D01*
X139701618Y-83461822D01*
X139903200Y-83481676D01*
X140104782Y-83461822D01*
X140298618Y-83403023D01*
X140477257Y-83307538D01*
X140633836Y-83179036D01*
X140762338Y-83022457D01*
X140857823Y-82843818D01*
X140916622Y-82649982D01*
X140936476Y-82448400D01*
X141409924Y-82448400D01*
X141429778Y-82649982D01*
X141431573Y-82655900D01*
X141431574Y-82655904D01*
X141466661Y-82771570D01*
X141488577Y-82843818D01*
X141584062Y-83022457D01*
X141712564Y-83179036D01*
X141869143Y-83307538D01*
X142047782Y-83403023D01*
X142241618Y-83461822D01*
X142443200Y-83481676D01*
X142644782Y-83461822D01*
X142838618Y-83403023D01*
X143017257Y-83307538D01*
X143173836Y-83179036D01*
X143302338Y-83022457D01*
X143397823Y-82843818D01*
X143456622Y-82649982D01*
X143476476Y-82448400D01*
X143949924Y-82448400D01*
X143969778Y-82649982D01*
X143971573Y-82655900D01*
X143971574Y-82655904D01*
X144006661Y-82771570D01*
X144028577Y-82843818D01*
X144124062Y-83022457D01*
X144252564Y-83179036D01*
X144409143Y-83307538D01*
X144587782Y-83403023D01*
X144781618Y-83461822D01*
X144983200Y-83481676D01*
X145184782Y-83461822D01*
X145378618Y-83403023D01*
X145557257Y-83307538D01*
X145713836Y-83179036D01*
X145842338Y-83022457D01*
X145937823Y-82843818D01*
X145996622Y-82649982D01*
X146016476Y-82448400D01*
X146489924Y-82448400D01*
X146509778Y-82649982D01*
X146511573Y-82655900D01*
X146511574Y-82655904D01*
X146546661Y-82771570D01*
X146568577Y-82843818D01*
X146664062Y-83022457D01*
X146792564Y-83179036D01*
X146949143Y-83307538D01*
X147127782Y-83403023D01*
X147321618Y-83461822D01*
X147523200Y-83481676D01*
X147724782Y-83461822D01*
X147918618Y-83403023D01*
X148097257Y-83307538D01*
X148253836Y-83179036D01*
X148382338Y-83022457D01*
X148477823Y-82843818D01*
X148536622Y-82649982D01*
X148556476Y-82448400D01*
X148536622Y-82246818D01*
X148477823Y-82052982D01*
X148382338Y-81874343D01*
X148253836Y-81717764D01*
X148097257Y-81589262D01*
X147918618Y-81493777D01*
X147912697Y-81491981D01*
X147912695Y-81491980D01*
X147730704Y-81436774D01*
X147730700Y-81436773D01*
X147724782Y-81434978D01*
X147523200Y-81415124D01*
X147517037Y-81415731D01*
X147327780Y-81434371D01*
X147327779Y-81434371D01*
X147321618Y-81434978D01*
X147315701Y-81436772D01*
X147315695Y-81436774D01*
X147133704Y-81491980D01*
X147133698Y-81491982D01*
X147127782Y-81493777D01*
X147122324Y-81496694D01*
X147122320Y-81496696D01*
X146954602Y-81586344D01*
X146949143Y-81589262D01*
X146944364Y-81593183D01*
X146944358Y-81593188D01*
X146797343Y-81713841D01*
X146797337Y-81713846D01*
X146792564Y-81717764D01*
X146788646Y-81722537D01*
X146788641Y-81722543D01*
X146667988Y-81869558D01*
X146667983Y-81869564D01*
X146664062Y-81874343D01*
X146661144Y-81879801D01*
X146661144Y-81879802D01*
X146571496Y-82047520D01*
X146571494Y-82047524D01*
X146568577Y-82052982D01*
X146566782Y-82058898D01*
X146566780Y-82058904D01*
X146511574Y-82240895D01*
X146511572Y-82240901D01*
X146509778Y-82246818D01*
X146489924Y-82448400D01*
X146016476Y-82448400D01*
X145996622Y-82246818D01*
X145937823Y-82052982D01*
X145842338Y-81874343D01*
X145713836Y-81717764D01*
X145557257Y-81589262D01*
X145378618Y-81493777D01*
X145372697Y-81491981D01*
X145372695Y-81491980D01*
X145190704Y-81436774D01*
X145190700Y-81436773D01*
X145184782Y-81434978D01*
X144983200Y-81415124D01*
X144977037Y-81415731D01*
X144787780Y-81434371D01*
X144787779Y-81434371D01*
X144781618Y-81434978D01*
X144775701Y-81436772D01*
X144775695Y-81436774D01*
X144593704Y-81491980D01*
X144593698Y-81491982D01*
X144587782Y-81493777D01*
X144582324Y-81496694D01*
X144582320Y-81496696D01*
X144414602Y-81586344D01*
X144409143Y-81589262D01*
X144404364Y-81593183D01*
X144404358Y-81593188D01*
X144257343Y-81713841D01*
X144257337Y-81713846D01*
X144252564Y-81717764D01*
X144248646Y-81722537D01*
X144248641Y-81722543D01*
X144127988Y-81869558D01*
X144127983Y-81869564D01*
X144124062Y-81874343D01*
X144121144Y-81879801D01*
X144121144Y-81879802D01*
X144031496Y-82047520D01*
X144031494Y-82047524D01*
X144028577Y-82052982D01*
X144026782Y-82058898D01*
X144026780Y-82058904D01*
X143971574Y-82240895D01*
X143971572Y-82240901D01*
X143969778Y-82246818D01*
X143949924Y-82448400D01*
X143476476Y-82448400D01*
X143456622Y-82246818D01*
X143397823Y-82052982D01*
X143302338Y-81874343D01*
X143173836Y-81717764D01*
X143017257Y-81589262D01*
X142838618Y-81493777D01*
X142832697Y-81491981D01*
X142832695Y-81491980D01*
X142650704Y-81436774D01*
X142650700Y-81436773D01*
X142644782Y-81434978D01*
X142443200Y-81415124D01*
X142437037Y-81415731D01*
X142247780Y-81434371D01*
X142247779Y-81434371D01*
X142241618Y-81434978D01*
X142235701Y-81436772D01*
X142235695Y-81436774D01*
X142053704Y-81491980D01*
X142053698Y-81491982D01*
X142047782Y-81493777D01*
X142042324Y-81496694D01*
X142042320Y-81496696D01*
X141874602Y-81586344D01*
X141869143Y-81589262D01*
X141864364Y-81593183D01*
X141864358Y-81593188D01*
X141717343Y-81713841D01*
X141717337Y-81713846D01*
X141712564Y-81717764D01*
X141708646Y-81722537D01*
X141708641Y-81722543D01*
X141587988Y-81869558D01*
X141587983Y-81869564D01*
X141584062Y-81874343D01*
X141581144Y-81879801D01*
X141581144Y-81879802D01*
X141491496Y-82047520D01*
X141491494Y-82047524D01*
X141488577Y-82052982D01*
X141486782Y-82058898D01*
X141486780Y-82058904D01*
X141431574Y-82240895D01*
X141431572Y-82240901D01*
X141429778Y-82246818D01*
X141409924Y-82448400D01*
X140936476Y-82448400D01*
X140916622Y-82246818D01*
X140857823Y-82052982D01*
X140762338Y-81874343D01*
X140633836Y-81717764D01*
X140477257Y-81589262D01*
X140298618Y-81493777D01*
X140292697Y-81491981D01*
X140292695Y-81491980D01*
X140110704Y-81436774D01*
X140110700Y-81436773D01*
X140104782Y-81434978D01*
X139903200Y-81415124D01*
X139897037Y-81415731D01*
X139707780Y-81434371D01*
X139707779Y-81434371D01*
X139701618Y-81434978D01*
X139695701Y-81436772D01*
X139695695Y-81436774D01*
X139513704Y-81491980D01*
X139513698Y-81491982D01*
X139507782Y-81493777D01*
X139502324Y-81496694D01*
X139502320Y-81496696D01*
X139334602Y-81586344D01*
X139329143Y-81589262D01*
X139324364Y-81593183D01*
X139324358Y-81593188D01*
X139177343Y-81713841D01*
X139177337Y-81713846D01*
X139172564Y-81717764D01*
X139168646Y-81722537D01*
X139168641Y-81722543D01*
X139047988Y-81869558D01*
X139047983Y-81869564D01*
X139044062Y-81874343D01*
X139041144Y-81879801D01*
X139041144Y-81879802D01*
X138951496Y-82047520D01*
X138951494Y-82047524D01*
X138948577Y-82052982D01*
X138946782Y-82058898D01*
X138946780Y-82058904D01*
X138891574Y-82240895D01*
X138891572Y-82240901D01*
X138889778Y-82246818D01*
X138869924Y-82448400D01*
X138396476Y-82448400D01*
X138376622Y-82246818D01*
X138317823Y-82052982D01*
X138222338Y-81874343D01*
X138093836Y-81717764D01*
X137937257Y-81589262D01*
X137758618Y-81493777D01*
X137752697Y-81491981D01*
X137752695Y-81491980D01*
X137570704Y-81436774D01*
X137570700Y-81436773D01*
X137564782Y-81434978D01*
X137363200Y-81415124D01*
X137357037Y-81415731D01*
X137167780Y-81434371D01*
X137167779Y-81434371D01*
X137161618Y-81434978D01*
X137155701Y-81436772D01*
X137155695Y-81436774D01*
X136973704Y-81491980D01*
X136973698Y-81491982D01*
X136967782Y-81493777D01*
X136962324Y-81496694D01*
X136962320Y-81496696D01*
X136794602Y-81586344D01*
X136789143Y-81589262D01*
X136784364Y-81593183D01*
X136784358Y-81593188D01*
X136637343Y-81713841D01*
X136637337Y-81713846D01*
X136632564Y-81717764D01*
X136628646Y-81722537D01*
X136628641Y-81722543D01*
X136507988Y-81869558D01*
X136507983Y-81869564D01*
X136504062Y-81874343D01*
X136501144Y-81879801D01*
X136501144Y-81879802D01*
X136411496Y-82047520D01*
X136411494Y-82047524D01*
X136408577Y-82052982D01*
X136406782Y-82058898D01*
X136406780Y-82058904D01*
X136351574Y-82240895D01*
X136351572Y-82240901D01*
X136349778Y-82246818D01*
X136329924Y-82448400D01*
X135856476Y-82448400D01*
X135836622Y-82246818D01*
X135777823Y-82052982D01*
X135682338Y-81874343D01*
X135553836Y-81717764D01*
X135397257Y-81589262D01*
X135218618Y-81493777D01*
X135212697Y-81491981D01*
X135212695Y-81491980D01*
X135030704Y-81436774D01*
X135030700Y-81436773D01*
X135024782Y-81434978D01*
X134823200Y-81415124D01*
X134817037Y-81415731D01*
X134627780Y-81434371D01*
X134627779Y-81434371D01*
X134621618Y-81434978D01*
X134615701Y-81436772D01*
X134615695Y-81436774D01*
X134433704Y-81491980D01*
X134433698Y-81491982D01*
X134427782Y-81493777D01*
X134422324Y-81496694D01*
X134422320Y-81496696D01*
X134254602Y-81586344D01*
X134249143Y-81589262D01*
X134244364Y-81593183D01*
X134244358Y-81593188D01*
X134097343Y-81713841D01*
X134097337Y-81713846D01*
X134092564Y-81717764D01*
X134088646Y-81722537D01*
X134088641Y-81722543D01*
X133967988Y-81869558D01*
X133967983Y-81869564D01*
X133964062Y-81874343D01*
X133961144Y-81879801D01*
X133961144Y-81879802D01*
X133871496Y-82047520D01*
X133871494Y-82047524D01*
X133868577Y-82052982D01*
X133866782Y-82058898D01*
X133866780Y-82058904D01*
X133811574Y-82240895D01*
X133811572Y-82240901D01*
X133809778Y-82246818D01*
X133789924Y-82448400D01*
X133316476Y-82448400D01*
X133296622Y-82246818D01*
X133237823Y-82052982D01*
X133142338Y-81874343D01*
X133013836Y-81717764D01*
X132857257Y-81589262D01*
X132678618Y-81493777D01*
X132672697Y-81491981D01*
X132672695Y-81491980D01*
X132490704Y-81436774D01*
X132490700Y-81436773D01*
X132484782Y-81434978D01*
X132283200Y-81415124D01*
X132277037Y-81415731D01*
X132087780Y-81434371D01*
X132087779Y-81434371D01*
X132081618Y-81434978D01*
X132075701Y-81436772D01*
X132075695Y-81436774D01*
X131893704Y-81491980D01*
X131893698Y-81491982D01*
X131887782Y-81493777D01*
X131882324Y-81496694D01*
X131882320Y-81496696D01*
X131714602Y-81586344D01*
X131709143Y-81589262D01*
X131704364Y-81593183D01*
X131704358Y-81593188D01*
X131557343Y-81713841D01*
X131557337Y-81713846D01*
X131552564Y-81717764D01*
X131548646Y-81722537D01*
X131548641Y-81722543D01*
X131427988Y-81869558D01*
X131427983Y-81869564D01*
X131424062Y-81874343D01*
X131421144Y-81879801D01*
X131421144Y-81879802D01*
X131331496Y-82047520D01*
X131331494Y-82047524D01*
X131328577Y-82052982D01*
X131326782Y-82058898D01*
X131326780Y-82058904D01*
X131271574Y-82240895D01*
X131271572Y-82240901D01*
X131269778Y-82246818D01*
X131249924Y-82448400D01*
X130776476Y-82448400D01*
X130756622Y-82246818D01*
X130697823Y-82052982D01*
X130602338Y-81874343D01*
X130473836Y-81717764D01*
X130317257Y-81589262D01*
X130138618Y-81493777D01*
X130132697Y-81491981D01*
X130132695Y-81491980D01*
X129950704Y-81436774D01*
X129950700Y-81436773D01*
X129944782Y-81434978D01*
X129743200Y-81415124D01*
X129737037Y-81415731D01*
X129547780Y-81434371D01*
X129547779Y-81434371D01*
X129541618Y-81434978D01*
X129535701Y-81436772D01*
X129535695Y-81436774D01*
X129353704Y-81491980D01*
X129353698Y-81491982D01*
X129347782Y-81493777D01*
X129342324Y-81496694D01*
X129342320Y-81496696D01*
X129174602Y-81586344D01*
X129169143Y-81589262D01*
X129164364Y-81593183D01*
X129164358Y-81593188D01*
X129017343Y-81713841D01*
X129017337Y-81713846D01*
X129012564Y-81717764D01*
X129008646Y-81722537D01*
X129008641Y-81722543D01*
X128887988Y-81869558D01*
X128887983Y-81869564D01*
X128884062Y-81874343D01*
X128881144Y-81879801D01*
X128881144Y-81879802D01*
X128791496Y-82047520D01*
X128791494Y-82047524D01*
X128788577Y-82052982D01*
X128786782Y-82058898D01*
X128786780Y-82058904D01*
X128731574Y-82240895D01*
X128731572Y-82240901D01*
X128729778Y-82246818D01*
X128709924Y-82448400D01*
X128236476Y-82448400D01*
X128216622Y-82246818D01*
X128157823Y-82052982D01*
X128062338Y-81874343D01*
X127933836Y-81717764D01*
X127777257Y-81589262D01*
X127598618Y-81493777D01*
X127592697Y-81491981D01*
X127592695Y-81491980D01*
X127410704Y-81436774D01*
X127410700Y-81436773D01*
X127404782Y-81434978D01*
X127203200Y-81415124D01*
X127197037Y-81415731D01*
X127007780Y-81434371D01*
X127007779Y-81434371D01*
X127001618Y-81434978D01*
X126995701Y-81436772D01*
X126995695Y-81436774D01*
X126813704Y-81491980D01*
X126813698Y-81491982D01*
X126807782Y-81493777D01*
X126802324Y-81496694D01*
X126802320Y-81496696D01*
X126634602Y-81586344D01*
X126629143Y-81589262D01*
X126624364Y-81593183D01*
X126624358Y-81593188D01*
X126477343Y-81713841D01*
X126477337Y-81713846D01*
X126472564Y-81717764D01*
X126468646Y-81722537D01*
X126468641Y-81722543D01*
X126347988Y-81869558D01*
X126347983Y-81869564D01*
X126344062Y-81874343D01*
X126341144Y-81879801D01*
X126341144Y-81879802D01*
X126251496Y-82047520D01*
X126251494Y-82047524D01*
X126248577Y-82052982D01*
X126246782Y-82058898D01*
X126246780Y-82058904D01*
X126191574Y-82240895D01*
X126191572Y-82240901D01*
X126189778Y-82246818D01*
X126169924Y-82448400D01*
X125696476Y-82448400D01*
X125676622Y-82246818D01*
X125617823Y-82052982D01*
X125522338Y-81874343D01*
X125393836Y-81717764D01*
X125237257Y-81589262D01*
X125058618Y-81493777D01*
X125052697Y-81491981D01*
X125052695Y-81491980D01*
X124870704Y-81436774D01*
X124870700Y-81436773D01*
X124864782Y-81434978D01*
X124663200Y-81415124D01*
X124657037Y-81415731D01*
X124467780Y-81434371D01*
X124467779Y-81434371D01*
X124461618Y-81434978D01*
X124455701Y-81436772D01*
X124455695Y-81436774D01*
X124273704Y-81491980D01*
X124273698Y-81491982D01*
X124267782Y-81493777D01*
X124262324Y-81496694D01*
X124262320Y-81496696D01*
X124094602Y-81586344D01*
X124089143Y-81589262D01*
X124084364Y-81593183D01*
X124084358Y-81593188D01*
X123937343Y-81713841D01*
X123937337Y-81713846D01*
X123932564Y-81717764D01*
X123928646Y-81722537D01*
X123928641Y-81722543D01*
X123807988Y-81869558D01*
X123807983Y-81869564D01*
X123804062Y-81874343D01*
X123801144Y-81879801D01*
X123801144Y-81879802D01*
X123711496Y-82047520D01*
X123711494Y-82047524D01*
X123708577Y-82052982D01*
X123706782Y-82058898D01*
X123706780Y-82058904D01*
X123651574Y-82240895D01*
X123651572Y-82240901D01*
X123649778Y-82246818D01*
X123629924Y-82448400D01*
X120765069Y-82448400D01*
X126648202Y-76552504D01*
X126937903Y-76262803D01*
X126978780Y-76235491D01*
X127026998Y-76225900D01*
X152347602Y-76225900D01*
X152395820Y-76235491D01*
G37*
%TD.AperFunction*%
%TD*%
D20*
X170357800Y-94183200D02*
X170357800Y-119557800D01*
X152374600Y-137541000D01*
X126949200Y-137541000D01*
X108991400Y-119583200D01*
X108991400Y-94208600D01*
X126974600Y-76225400D01*
X152400000Y-76225400D01*
X170357800Y-94183200D01*
M02*
