%TF.GenerationSoftware,KiCad,Pcbnew,(7.0.0)*%
%TF.CreationDate,2023-03-06T19:44:03-05:00*%
%TF.ProjectId,cyton wired,6379746f-6e20-4776-9972-65642e6b6963,rev?*%
%TF.SameCoordinates,Original*%
%TF.FileFunction,Copper,L2,Inr*%
%TF.FilePolarity,Positive*%
%FSLAX46Y46*%
G04 Gerber Fmt 4.6, Leading zero omitted, Abs format (unit mm)*
G04 Created by KiCad (PCBNEW (7.0.0)) date 2023-03-06 19:44:03*
%MOMM*%
%LPD*%
G01*
G04 APERTURE LIST*
G04 Aperture macros list*
%AMHorizOval*
0 Thick line with rounded ends*
0 $1 width*
0 $2 $3 position (X,Y) of the first rounded end (center of the circle)*
0 $4 $5 position (X,Y) of the second rounded end (center of the circle)*
0 Add line between two ends*
20,1,$1,$2,$3,$4,$5,0*
0 Add two circle primitives to create the rounded ends*
1,1,$1,$2,$3*
1,1,$1,$4,$5*%
%AMRotRect*
0 Rectangle, with rotation*
0 The origin of the aperture is its center*
0 $1 length*
0 $2 width*
0 $3 Rotation angle, in degrees counterclockwise*
0 Add horizontal line*
21,1,$1,$2,0,0,$3*%
G04 Aperture macros list end*
%TA.AperFunction,ComponentPad*%
%ADD10RotRect,1.700000X1.700000X315.000000*%
%TD*%
%TA.AperFunction,ComponentPad*%
%ADD11HorizOval,1.700000X0.000000X0.000000X0.000000X0.000000X0*%
%TD*%
%TA.AperFunction,ComponentPad*%
%ADD12R,1.700000X1.700000*%
%TD*%
%TA.AperFunction,ComponentPad*%
%ADD13O,1.700000X1.700000*%
%TD*%
%TA.AperFunction,ComponentPad*%
%ADD14O,1.200000X1.900000*%
%TD*%
%TA.AperFunction,ComponentPad*%
%ADD15C,1.450000*%
%TD*%
%TA.AperFunction,ComponentPad*%
%ADD16RotRect,1.700000X1.700000X45.000000*%
%TD*%
%TA.AperFunction,ComponentPad*%
%ADD17HorizOval,1.700000X0.000000X0.000000X0.000000X0.000000X0*%
%TD*%
%TA.AperFunction,ViaPad*%
%ADD18C,0.800000*%
%TD*%
%TA.AperFunction,Profile*%
%ADD19C,0.101600*%
%TD*%
G04 APERTURE END LIST*
D10*
%TO.N,/D13*%
%TO.C,J3*%
X160248599Y-125323599D03*
D11*
%TO.N,/PGC*%
X158452548Y-127119650D03*
%TO.N,VDD*%
X156656497Y-128915701D03*
%TO.N,GNDA*%
X154860445Y-130711753D03*
%TD*%
D12*
%TO.N,VSSA*%
%TO.C,J1*%
X124663199Y-84988399D03*
D13*
X124663199Y-82448399D03*
%TO.N,/SRB1*%
X127203199Y-84988399D03*
%TO.N,/SRB2*%
X127203199Y-82448399D03*
%TO.N,/1P*%
X129743199Y-84988399D03*
%TO.N,/1N*%
X129743199Y-82448399D03*
%TO.N,/2P*%
X132283199Y-84988399D03*
%TO.N,/2N*%
X132283199Y-82448399D03*
%TO.N,/3P*%
X134823199Y-84988399D03*
%TO.N,/3N*%
X134823199Y-82448399D03*
%TO.N,/4P*%
X137363199Y-84988399D03*
%TO.N,/4N*%
X137363199Y-82448399D03*
%TO.N,/5P*%
X139903199Y-84988399D03*
%TO.N,/5N*%
X139903199Y-82448399D03*
%TO.N,/6P*%
X142443199Y-84988399D03*
%TO.N,/6N*%
X142443199Y-82448399D03*
%TO.N,/7P*%
X144983199Y-84988399D03*
%TO.N,/7N*%
X144983199Y-82448399D03*
%TO.N,/8P*%
X147523199Y-84988399D03*
%TO.N,/8N*%
X147523199Y-82448399D03*
%TO.N,/BIAS*%
X150063199Y-84988399D03*
X150063199Y-82448399D03*
%TO.N,GNDA*%
X152603199Y-84988399D03*
X152603199Y-82448399D03*
%TO.N,VDDA*%
X155143199Y-84988399D03*
X155143199Y-82448399D03*
%TD*%
D12*
%TO.N,/BOOT_EN*%
%TO.C,J5*%
X162432999Y-114960399D03*
D13*
%TO.N,/MCLR*%
X162432999Y-117500399D03*
%TO.N,/D18*%
X162432999Y-120040399D03*
%TO.N,/PGD*%
X162432999Y-122580399D03*
%TD*%
D14*
%TO.N,unconnected-(CONN1-Shield-Pad6)*%
%TO.C,CONN1*%
X136199999Y-136080299D03*
D15*
X137200000Y-133380300D03*
X142200000Y-133380300D03*
D14*
X143199999Y-136080299D03*
%TD*%
D12*
%TO.N,GNDA*%
%TO.C,J4*%
X149910799Y-101142799D03*
D13*
%TO.N,/BIAS_INV*%
X149910799Y-98602799D03*
%TD*%
D16*
%TO.N,VDD*%
%TO.C,J2*%
X116499999Y-100649999D03*
D17*
%TO.N,GNDA*%
X118296050Y-102446050D03*
%TO.N,/MISO*%
X120092101Y-104242101D03*
%TO.N,/SCLK*%
X121888153Y-106038153D03*
%TO.N,/RESET*%
X123684204Y-107834204D03*
%TO.N,/CLK*%
X125480255Y-109630255D03*
%TO.N,/MOSI*%
X127276306Y-111426306D03*
%TO.N,/CS2*%
X129072358Y-113222358D03*
%TD*%
D18*
%TO.N,/Daisy Functionality/_SRB1*%
X127003697Y-93167200D03*
%TO.N,/Daisy Functionality/_SRB2*%
X128003200Y-93167200D03*
%TO.N,/Daisy Functionality/IN1P*%
X129070100Y-93103700D03*
%TO.N,/Daisy Functionality/IN1N*%
X130086327Y-93130684D03*
%TO.N,/Daisy Functionality/IN2P*%
X132096905Y-92986254D03*
%TO.N,/Daisy Functionality/IN2N*%
X133096000Y-93014800D03*
%TO.N,/Daisy Functionality/IN3P*%
X134094731Y-92842500D03*
%TO.N,/Daisy Functionality/IN3N*%
X135275931Y-92594901D03*
%TO.N,/Daisy Functionality/IN4P*%
X137083800Y-92862400D03*
%TO.N,/Daisy Functionality/IN4N*%
X138081846Y-92916348D03*
%TO.N,/Daisy Functionality/IN5P*%
X139081343Y-92913148D03*
%TO.N,/Daisy Functionality/IN5N*%
X140080845Y-92913206D03*
%TO.N,/Daisy Functionality/IN6P*%
X141851353Y-92913928D03*
%TO.N,/Daisy Functionality/IN6N*%
X142849600Y-92964000D03*
%TO.N,/Daisy Functionality/IN7P*%
X144030600Y-93015374D03*
%TO.N,/Daisy Functionality/IN7N*%
X145237200Y-93065600D03*
%TO.N,/Daisy Functionality/IN8P*%
X147243800Y-92913200D03*
%TO.N,/Daisy Functionality/IN8N*%
X148259800Y-92964000D03*
%TO.N,/Daisy Functionality/BIAS_DRV*%
X149923200Y-93027800D03*
%TO.N,VSSA*%
X134950200Y-101803200D03*
X134950200Y-105486200D03*
X141437400Y-105186900D03*
X142697200Y-101650800D03*
%TO.N,Net-(CONN1-VBUS)*%
X138404600Y-131419600D03*
%TO.N,Net-(CONN1-GND)*%
X140741400Y-131851400D03*
%TO.N,VDD*%
X154533600Y-108813600D03*
X128587500Y-126682500D03*
X136093200Y-118618000D03*
X158389700Y-112041500D03*
X135509000Y-109601000D03*
X128524000Y-123571000D03*
X142392400Y-111785400D03*
X149834600Y-131521200D03*
X152065100Y-117451700D03*
X132161451Y-117976279D03*
%TO.N,VDDA*%
X141198600Y-99136200D03*
X134747000Y-99136200D03*
X145821400Y-103733600D03*
%TO.N,Net-(U1-WCT)*%
X142697200Y-98501200D03*
%TO.N,VCOM*%
X150799800Y-130556000D03*
%TO.N,/SCLK*%
X131622800Y-114385100D03*
%TO.N,/RESET*%
X134975600Y-110845600D03*
%TO.N,/MOSI*%
X135839200Y-124485400D03*
%TO.N,/TXD*%
X138963400Y-128651000D03*
X135483600Y-123088400D03*
%TO.N,/MISO*%
X132486400Y-115138200D03*
%TO.N,/CS1*%
X132283200Y-124739400D03*
X137566400Y-110693200D03*
%TO.N,/PGD*%
X132461000Y-130429000D03*
X140038005Y-124512171D03*
%TO.N,/D13*%
X141325600Y-122275600D03*
%TO.N,/PGC*%
X140699082Y-123117261D03*
%TO.N,/MCLR*%
X154965400Y-118643400D03*
X139395200Y-126424400D03*
%TO.N,/D18*%
X140192758Y-119274400D03*
%TO.N,/DRDY*%
X135788400Y-125774400D03*
X141300200Y-110617000D03*
%TD*%
%TA.AperFunction,Conductor*%
%TO.N,GNDA*%
G36*
X152395820Y-76235491D02*
G01*
X152436697Y-76262805D01*
X157157209Y-80983317D01*
X157187945Y-81033470D01*
X157192565Y-81092111D01*
X157170061Y-81146459D01*
X157125338Y-81184668D01*
X157068143Y-81198412D01*
X156298036Y-81198592D01*
X156298033Y-81198592D01*
X156294383Y-81198593D01*
X156290764Y-81199014D01*
X156290756Y-81199015D01*
X156256945Y-81202954D01*
X156242366Y-81203800D01*
X153644600Y-81203800D01*
X153644600Y-81220390D01*
X153644600Y-81280358D01*
X153625485Y-81347079D01*
X153573939Y-81393555D01*
X153505602Y-81405686D01*
X153441209Y-81379789D01*
X153352619Y-81310836D01*
X153343918Y-81305152D01*
X153155157Y-81202999D01*
X153145640Y-81198824D01*
X152942642Y-81129135D01*
X152932572Y-81126585D01*
X152870738Y-81116267D01*
X152859601Y-81116843D01*
X152857200Y-81127736D01*
X152857200Y-86309064D01*
X152859601Y-86319956D01*
X152870738Y-86320532D01*
X152932572Y-86310214D01*
X152942642Y-86307664D01*
X153145640Y-86237975D01*
X153155157Y-86233800D01*
X153343918Y-86131647D01*
X153352619Y-86125963D01*
X153441209Y-86057011D01*
X153505602Y-86031114D01*
X153573939Y-86043245D01*
X153625485Y-86089721D01*
X153644600Y-86156442D01*
X153644600Y-91286210D01*
X153635009Y-91334428D01*
X153607695Y-91375305D01*
X149261905Y-95721095D01*
X149221028Y-95748409D01*
X149172810Y-95758000D01*
X128576190Y-95758000D01*
X128527972Y-95748409D01*
X128487095Y-95721095D01*
X126692715Y-93926715D01*
X126659291Y-93867034D01*
X126661977Y-93798683D01*
X126699981Y-93741808D01*
X126762101Y-93713171D01*
X126830028Y-93721211D01*
X126852730Y-93730615D01*
X127003697Y-93750490D01*
X127154664Y-93730615D01*
X127295342Y-93672344D01*
X127416145Y-93579648D01*
X127417201Y-93578271D01*
X127470833Y-93547304D01*
X127536057Y-93547303D01*
X127589695Y-93578270D01*
X127590752Y-93579648D01*
X127711555Y-93672344D01*
X127852233Y-93730615D01*
X128003200Y-93750490D01*
X128154167Y-93730615D01*
X128294845Y-93672344D01*
X128415648Y-93579648D01*
X128461490Y-93519905D01*
X128518355Y-93478211D01*
X128588721Y-93473599D01*
X128650545Y-93507517D01*
X128652625Y-93509597D01*
X128657652Y-93516148D01*
X128664202Y-93521174D01*
X128755480Y-93591215D01*
X128778455Y-93608844D01*
X128919133Y-93667115D01*
X128927320Y-93668192D01*
X128927321Y-93668193D01*
X128982854Y-93675504D01*
X129070100Y-93686990D01*
X129221067Y-93667115D01*
X129361745Y-93608844D01*
X129482548Y-93516148D01*
X129483117Y-93516890D01*
X129538656Y-93486417D01*
X129609026Y-93491028D01*
X129665895Y-93532728D01*
X129673879Y-93543132D01*
X129794682Y-93635828D01*
X129935360Y-93694099D01*
X130086327Y-93713974D01*
X130237294Y-93694099D01*
X130377972Y-93635828D01*
X130498775Y-93543132D01*
X130591471Y-93422329D01*
X130649742Y-93281651D01*
X130669617Y-93130684D01*
X130651881Y-92995967D01*
X130650820Y-92987905D01*
X130650819Y-92987904D01*
X130650602Y-92986254D01*
X131513615Y-92986254D01*
X131514693Y-92994442D01*
X131532411Y-93129032D01*
X131532412Y-93129038D01*
X131533490Y-93137221D01*
X131536649Y-93144849D01*
X131536650Y-93144850D01*
X131588600Y-93270269D01*
X131588601Y-93270272D01*
X131591761Y-93277899D01*
X131596788Y-93284450D01*
X131596789Y-93284452D01*
X131660548Y-93367544D01*
X131684457Y-93398702D01*
X131691007Y-93403728D01*
X131785994Y-93476615D01*
X131805260Y-93491398D01*
X131945938Y-93549669D01*
X132096905Y-93569544D01*
X132247872Y-93549669D01*
X132388550Y-93491398D01*
X132505247Y-93401852D01*
X132565501Y-93376893D01*
X132630163Y-93385404D01*
X132670890Y-93416651D01*
X132672685Y-93414857D01*
X132678525Y-93420697D01*
X132683552Y-93427248D01*
X132690102Y-93432274D01*
X132773721Y-93496438D01*
X132804355Y-93519944D01*
X132945033Y-93578215D01*
X133096000Y-93598090D01*
X133246967Y-93578215D01*
X133387645Y-93519944D01*
X133508448Y-93427248D01*
X133579383Y-93334803D01*
X133631124Y-93295102D01*
X133695788Y-93286589D01*
X133756044Y-93311547D01*
X133803086Y-93347644D01*
X133943764Y-93405915D01*
X134094731Y-93425790D01*
X134245698Y-93405915D01*
X134386376Y-93347644D01*
X134507179Y-93254948D01*
X134599875Y-93134145D01*
X134642881Y-93030319D01*
X134682584Y-92978576D01*
X134742841Y-92953616D01*
X134807505Y-92962128D01*
X134851606Y-92995967D01*
X134852616Y-92994958D01*
X134858456Y-93000798D01*
X134863483Y-93007349D01*
X134870033Y-93012375D01*
X134893420Y-93030321D01*
X134984286Y-93100045D01*
X135124964Y-93158316D01*
X135133151Y-93159393D01*
X135133152Y-93159394D01*
X135185920Y-93166341D01*
X135275931Y-93178191D01*
X135426898Y-93158316D01*
X135567576Y-93100045D01*
X135688379Y-93007349D01*
X135781075Y-92886546D01*
X135791077Y-92862400D01*
X136500510Y-92862400D01*
X136501588Y-92870588D01*
X136519306Y-93005178D01*
X136519307Y-93005184D01*
X136520385Y-93013367D01*
X136523544Y-93020995D01*
X136523545Y-93020996D01*
X136575495Y-93146415D01*
X136575496Y-93146418D01*
X136578656Y-93154045D01*
X136583683Y-93160596D01*
X136583684Y-93160598D01*
X136661645Y-93262198D01*
X136671352Y-93274848D01*
X136677902Y-93279874D01*
X136783849Y-93361171D01*
X136792155Y-93367544D01*
X136932833Y-93425815D01*
X137083800Y-93445690D01*
X137234767Y-93425815D01*
X137375445Y-93367544D01*
X137479216Y-93287916D01*
X137539468Y-93262959D01*
X137604132Y-93271471D01*
X137655876Y-93311174D01*
X137669398Y-93328796D01*
X137675948Y-93333822D01*
X137779548Y-93413318D01*
X137790201Y-93421492D01*
X137930879Y-93479763D01*
X138081846Y-93499638D01*
X138232813Y-93479763D01*
X138373491Y-93421492D01*
X138494294Y-93328796D01*
X138496280Y-93326207D01*
X138550579Y-93294855D01*
X138615804Y-93294854D01*
X138668771Y-93325435D01*
X138668895Y-93325596D01*
X138680899Y-93334807D01*
X138727680Y-93370704D01*
X138789698Y-93418292D01*
X138930376Y-93476563D01*
X138938563Y-93477640D01*
X138938564Y-93477641D01*
X138962871Y-93480841D01*
X139081343Y-93496438D01*
X139232310Y-93476563D01*
X139372988Y-93418292D01*
X139493791Y-93325596D01*
X139494829Y-93324242D01*
X139548447Y-93293283D01*
X139613669Y-93293280D01*
X139667321Y-93324252D01*
X139668397Y-93325654D01*
X139763594Y-93398702D01*
X139782570Y-93413263D01*
X139789200Y-93418350D01*
X139929878Y-93476621D01*
X140080845Y-93496496D01*
X140231812Y-93476621D01*
X140372490Y-93418350D01*
X140493293Y-93325654D01*
X140585989Y-93204851D01*
X140644260Y-93064173D01*
X140664040Y-92913928D01*
X141268063Y-92913928D01*
X141269141Y-92922116D01*
X141286859Y-93056706D01*
X141286860Y-93056712D01*
X141287938Y-93064895D01*
X141291097Y-93072523D01*
X141291098Y-93072524D01*
X141343048Y-93197943D01*
X141343049Y-93197946D01*
X141346209Y-93205573D01*
X141351236Y-93212124D01*
X141351237Y-93212126D01*
X141433878Y-93319825D01*
X141438905Y-93326376D01*
X141445455Y-93331402D01*
X141552137Y-93413263D01*
X141559708Y-93419072D01*
X141700386Y-93477343D01*
X141708573Y-93478420D01*
X141708574Y-93478421D01*
X141775869Y-93487280D01*
X141851353Y-93497218D01*
X142002320Y-93477343D01*
X142142998Y-93419072D01*
X142248765Y-93337913D01*
X142309021Y-93312954D01*
X142373685Y-93321467D01*
X142425428Y-93361170D01*
X142437152Y-93376448D01*
X142443702Y-93381474D01*
X142485205Y-93413321D01*
X142557955Y-93469144D01*
X142698633Y-93527415D01*
X142706820Y-93528492D01*
X142706821Y-93528493D01*
X142774116Y-93537352D01*
X142849600Y-93547290D01*
X143000567Y-93527415D01*
X143141245Y-93469144D01*
X143262048Y-93376448D01*
X143321151Y-93299423D01*
X143369107Y-93261363D01*
X143429346Y-93250400D01*
X143487640Y-93269128D01*
X143524801Y-93307521D01*
X143525456Y-93307019D01*
X143529817Y-93312703D01*
X143529819Y-93312705D01*
X143552770Y-93342615D01*
X143612688Y-93420702D01*
X143618152Y-93427822D01*
X143624702Y-93432848D01*
X143707573Y-93496438D01*
X143738955Y-93520518D01*
X143879633Y-93578789D01*
X144030600Y-93598664D01*
X144181567Y-93578789D01*
X144322245Y-93520518D01*
X144443048Y-93427822D01*
X144517136Y-93331269D01*
X144565096Y-93293205D01*
X144625337Y-93282244D01*
X144683633Y-93300974D01*
X144726216Y-93344973D01*
X144728894Y-93349611D01*
X144732056Y-93357245D01*
X144761291Y-93395345D01*
X144817919Y-93469144D01*
X144824752Y-93478048D01*
X144831302Y-93483074D01*
X144919494Y-93550747D01*
X144945555Y-93570744D01*
X145086233Y-93629015D01*
X145237200Y-93648890D01*
X145388167Y-93629015D01*
X145528845Y-93570744D01*
X145649648Y-93478048D01*
X145742344Y-93357245D01*
X145800615Y-93216567D01*
X145820490Y-93065600D01*
X145800615Y-92914633D01*
X145800021Y-92913200D01*
X146660510Y-92913200D01*
X146661588Y-92921388D01*
X146679306Y-93055978D01*
X146679307Y-93055984D01*
X146680385Y-93064167D01*
X146683544Y-93071795D01*
X146683545Y-93071796D01*
X146735495Y-93197215D01*
X146735496Y-93197218D01*
X146738656Y-93204845D01*
X146743683Y-93211396D01*
X146743684Y-93211398D01*
X146826325Y-93319097D01*
X146831352Y-93325648D01*
X146842010Y-93333826D01*
X146874501Y-93358758D01*
X146952155Y-93418344D01*
X147092833Y-93476615D01*
X147101020Y-93477692D01*
X147101021Y-93477693D01*
X147124933Y-93480841D01*
X147243800Y-93496490D01*
X147394767Y-93476615D01*
X147535445Y-93418344D01*
X147652037Y-93328878D01*
X147712290Y-93303921D01*
X147776955Y-93312434D01*
X147828698Y-93352138D01*
X147847352Y-93376448D01*
X147853902Y-93381474D01*
X147895405Y-93413321D01*
X147968155Y-93469144D01*
X148108833Y-93527415D01*
X148117020Y-93528492D01*
X148117021Y-93528493D01*
X148184316Y-93537352D01*
X148259800Y-93547290D01*
X148410767Y-93527415D01*
X148551445Y-93469144D01*
X148672248Y-93376448D01*
X148764944Y-93255645D01*
X148823215Y-93114967D01*
X148834691Y-93027800D01*
X149339910Y-93027800D01*
X149340988Y-93035988D01*
X149358706Y-93170578D01*
X149358707Y-93170584D01*
X149359785Y-93178767D01*
X149362944Y-93186395D01*
X149362945Y-93186396D01*
X149414895Y-93311815D01*
X149414896Y-93311818D01*
X149418056Y-93319445D01*
X149423083Y-93325996D01*
X149423084Y-93325998D01*
X149504633Y-93432274D01*
X149510752Y-93440248D01*
X149517302Y-93445274D01*
X149624349Y-93527415D01*
X149631555Y-93532944D01*
X149772233Y-93591215D01*
X149923200Y-93611090D01*
X150074167Y-93591215D01*
X150214845Y-93532944D01*
X150335648Y-93440248D01*
X150428344Y-93319445D01*
X150486615Y-93178767D01*
X150506490Y-93027800D01*
X150486615Y-92876833D01*
X150428344Y-92736155D01*
X150393888Y-92691252D01*
X150340674Y-92621902D01*
X150335648Y-92615352D01*
X150329097Y-92610325D01*
X150221398Y-92527684D01*
X150221396Y-92527683D01*
X150214845Y-92522656D01*
X150207218Y-92519496D01*
X150207215Y-92519495D01*
X150081796Y-92467545D01*
X150081795Y-92467544D01*
X150074167Y-92464385D01*
X150065984Y-92463307D01*
X150065978Y-92463306D01*
X149931388Y-92445588D01*
X149923200Y-92444510D01*
X149915012Y-92445588D01*
X149780421Y-92463306D01*
X149780413Y-92463308D01*
X149772233Y-92464385D01*
X149764606Y-92467544D01*
X149764603Y-92467545D01*
X149639184Y-92519495D01*
X149639178Y-92519498D01*
X149631555Y-92522656D01*
X149625006Y-92527680D01*
X149625001Y-92527684D01*
X149517302Y-92610325D01*
X149517297Y-92610329D01*
X149510752Y-92615352D01*
X149505729Y-92621897D01*
X149505725Y-92621902D01*
X149423084Y-92729601D01*
X149423080Y-92729606D01*
X149418056Y-92736155D01*
X149414898Y-92743778D01*
X149414895Y-92743784D01*
X149365763Y-92862400D01*
X149359785Y-92876833D01*
X149358708Y-92885013D01*
X149358706Y-92885021D01*
X149344234Y-92994958D01*
X149339910Y-93027800D01*
X148834691Y-93027800D01*
X148843090Y-92964000D01*
X148823215Y-92813033D01*
X148764944Y-92672355D01*
X148721755Y-92616071D01*
X148677274Y-92558102D01*
X148672248Y-92551552D01*
X148657565Y-92540285D01*
X148557998Y-92463884D01*
X148557996Y-92463883D01*
X148551445Y-92458856D01*
X148543818Y-92455696D01*
X148543815Y-92455695D01*
X148418396Y-92403745D01*
X148418395Y-92403744D01*
X148410767Y-92400585D01*
X148402584Y-92399507D01*
X148402578Y-92399506D01*
X148267988Y-92381788D01*
X148259800Y-92380710D01*
X148251612Y-92381788D01*
X148117021Y-92399506D01*
X148117013Y-92399508D01*
X148108833Y-92400585D01*
X148101206Y-92403744D01*
X148101203Y-92403745D01*
X147975784Y-92455695D01*
X147975778Y-92455698D01*
X147968155Y-92458856D01*
X147961606Y-92463880D01*
X147961601Y-92463884D01*
X147851566Y-92548318D01*
X147791308Y-92573278D01*
X147726644Y-92564765D01*
X147674900Y-92525060D01*
X147656248Y-92500752D01*
X147632214Y-92482310D01*
X147541998Y-92413084D01*
X147541996Y-92413083D01*
X147535445Y-92408056D01*
X147527818Y-92404896D01*
X147527815Y-92404895D01*
X147402396Y-92352945D01*
X147402395Y-92352944D01*
X147394767Y-92349785D01*
X147386584Y-92348707D01*
X147386578Y-92348706D01*
X147251988Y-92330988D01*
X147243800Y-92329910D01*
X147235612Y-92330988D01*
X147101021Y-92348706D01*
X147101013Y-92348708D01*
X147092833Y-92349785D01*
X147085206Y-92352944D01*
X147085203Y-92352945D01*
X146959784Y-92404895D01*
X146959778Y-92404898D01*
X146952155Y-92408056D01*
X146945606Y-92413080D01*
X146945601Y-92413084D01*
X146837902Y-92495725D01*
X146837897Y-92495729D01*
X146831352Y-92500752D01*
X146826329Y-92507297D01*
X146826325Y-92507302D01*
X146743684Y-92615001D01*
X146743680Y-92615006D01*
X146738656Y-92621555D01*
X146735498Y-92629178D01*
X146735495Y-92629184D01*
X146683545Y-92754603D01*
X146680385Y-92762233D01*
X146679308Y-92770413D01*
X146679306Y-92770421D01*
X146664462Y-92883184D01*
X146660510Y-92913200D01*
X145800021Y-92913200D01*
X145742344Y-92773955D01*
X145723735Y-92749704D01*
X145654674Y-92659702D01*
X145649648Y-92653152D01*
X145620216Y-92630568D01*
X145535398Y-92565484D01*
X145535396Y-92565483D01*
X145528845Y-92560456D01*
X145521218Y-92557296D01*
X145521215Y-92557295D01*
X145395796Y-92505345D01*
X145395795Y-92505344D01*
X145388167Y-92502185D01*
X145379984Y-92501107D01*
X145379978Y-92501106D01*
X145245388Y-92483388D01*
X145237200Y-92482310D01*
X145229012Y-92483388D01*
X145094421Y-92501106D01*
X145094413Y-92501108D01*
X145086233Y-92502185D01*
X145078606Y-92505344D01*
X145078603Y-92505345D01*
X144953184Y-92557295D01*
X144953178Y-92557298D01*
X144945555Y-92560456D01*
X144939006Y-92565480D01*
X144939001Y-92565484D01*
X144831302Y-92648125D01*
X144831297Y-92648129D01*
X144824752Y-92653152D01*
X144819729Y-92659697D01*
X144819728Y-92659699D01*
X144750664Y-92749704D01*
X144702702Y-92787768D01*
X144642460Y-92798729D01*
X144584165Y-92779998D01*
X144541583Y-92735999D01*
X144538905Y-92731361D01*
X144535744Y-92723729D01*
X144518807Y-92701657D01*
X144448074Y-92609476D01*
X144443048Y-92602926D01*
X144433278Y-92595429D01*
X144328798Y-92515258D01*
X144328796Y-92515257D01*
X144322245Y-92510230D01*
X144314618Y-92507070D01*
X144314615Y-92507069D01*
X144189196Y-92455119D01*
X144189195Y-92455118D01*
X144181567Y-92451959D01*
X144173384Y-92450881D01*
X144173378Y-92450880D01*
X144038788Y-92433162D01*
X144030600Y-92432084D01*
X144022412Y-92433162D01*
X143887821Y-92450880D01*
X143887813Y-92450882D01*
X143879633Y-92451959D01*
X143872006Y-92455118D01*
X143872003Y-92455119D01*
X143746584Y-92507069D01*
X143746578Y-92507072D01*
X143738955Y-92510230D01*
X143732406Y-92515254D01*
X143732401Y-92515258D01*
X143624702Y-92597899D01*
X143624697Y-92597903D01*
X143618152Y-92602926D01*
X143613129Y-92609471D01*
X143613128Y-92609473D01*
X143559051Y-92679947D01*
X143511090Y-92718011D01*
X143450850Y-92728972D01*
X143392555Y-92710243D01*
X143355398Y-92671852D01*
X143354744Y-92672355D01*
X143350379Y-92666666D01*
X143350377Y-92666664D01*
X143311555Y-92616071D01*
X143267074Y-92558102D01*
X143262048Y-92551552D01*
X143247365Y-92540285D01*
X143147798Y-92463884D01*
X143147796Y-92463883D01*
X143141245Y-92458856D01*
X143133618Y-92455696D01*
X143133615Y-92455695D01*
X143008196Y-92403745D01*
X143008195Y-92403744D01*
X143000567Y-92400585D01*
X142992384Y-92399507D01*
X142992378Y-92399506D01*
X142857788Y-92381788D01*
X142849600Y-92380710D01*
X142841412Y-92381788D01*
X142706821Y-92399506D01*
X142706813Y-92399508D01*
X142698633Y-92400585D01*
X142691006Y-92403744D01*
X142691003Y-92403745D01*
X142565584Y-92455695D01*
X142565578Y-92455698D01*
X142557955Y-92458856D01*
X142551403Y-92463883D01*
X142551402Y-92463884D01*
X142452187Y-92540014D01*
X142391930Y-92564973D01*
X142327266Y-92556460D01*
X142275522Y-92516755D01*
X142268827Y-92508030D01*
X142263801Y-92501480D01*
X142256232Y-92495672D01*
X142149551Y-92413812D01*
X142149549Y-92413811D01*
X142142998Y-92408784D01*
X142135371Y-92405624D01*
X142135368Y-92405623D01*
X142009949Y-92353673D01*
X142009948Y-92353672D01*
X142002320Y-92350513D01*
X141994137Y-92349435D01*
X141994131Y-92349434D01*
X141859541Y-92331716D01*
X141851353Y-92330638D01*
X141843165Y-92331716D01*
X141708574Y-92349434D01*
X141708566Y-92349436D01*
X141700386Y-92350513D01*
X141692759Y-92353672D01*
X141692756Y-92353673D01*
X141567337Y-92405623D01*
X141567331Y-92405626D01*
X141559708Y-92408784D01*
X141553159Y-92413808D01*
X141553154Y-92413812D01*
X141445455Y-92496453D01*
X141445450Y-92496457D01*
X141438905Y-92501480D01*
X141433882Y-92508025D01*
X141433878Y-92508030D01*
X141351237Y-92615729D01*
X141351233Y-92615734D01*
X141346209Y-92622283D01*
X141343051Y-92629906D01*
X141343048Y-92629912D01*
X141291338Y-92754752D01*
X141287938Y-92762961D01*
X141286861Y-92771141D01*
X141286859Y-92771149D01*
X141272672Y-92878916D01*
X141268063Y-92913928D01*
X140664040Y-92913928D01*
X140664135Y-92913206D01*
X140644260Y-92762239D01*
X140585989Y-92621561D01*
X140576713Y-92609473D01*
X140498319Y-92507308D01*
X140493293Y-92500758D01*
X140486665Y-92495672D01*
X140379043Y-92413090D01*
X140379041Y-92413089D01*
X140372490Y-92408062D01*
X140364863Y-92404902D01*
X140364860Y-92404901D01*
X140239441Y-92352951D01*
X140239440Y-92352950D01*
X140231812Y-92349791D01*
X140223629Y-92348713D01*
X140223623Y-92348712D01*
X140089033Y-92330994D01*
X140080845Y-92329916D01*
X140072657Y-92330994D01*
X139938066Y-92348712D01*
X139938058Y-92348714D01*
X139929878Y-92349791D01*
X139922251Y-92352950D01*
X139922248Y-92352951D01*
X139796829Y-92404901D01*
X139796823Y-92404904D01*
X139789200Y-92408062D01*
X139782651Y-92413086D01*
X139782646Y-92413090D01*
X139674946Y-92495732D01*
X139674942Y-92495735D01*
X139668397Y-92500758D01*
X139667354Y-92502116D01*
X139613726Y-92533074D01*
X139548507Y-92533071D01*
X139494863Y-92502097D01*
X139493791Y-92500700D01*
X139487240Y-92495673D01*
X139379541Y-92413032D01*
X139379539Y-92413031D01*
X139372988Y-92408004D01*
X139365361Y-92404844D01*
X139365358Y-92404843D01*
X139239939Y-92352893D01*
X139239938Y-92352892D01*
X139232310Y-92349733D01*
X139224127Y-92348655D01*
X139224121Y-92348654D01*
X139089531Y-92330936D01*
X139081343Y-92329858D01*
X139073155Y-92330936D01*
X138938564Y-92348654D01*
X138938556Y-92348656D01*
X138930376Y-92349733D01*
X138922749Y-92352892D01*
X138922746Y-92352893D01*
X138797327Y-92404843D01*
X138797321Y-92404846D01*
X138789698Y-92408004D01*
X138783149Y-92413028D01*
X138783144Y-92413032D01*
X138675447Y-92495672D01*
X138675445Y-92495673D01*
X138668895Y-92500700D01*
X138666906Y-92503291D01*
X138612602Y-92534642D01*
X138547381Y-92534640D01*
X138494416Y-92504060D01*
X138494294Y-92503900D01*
X138484589Y-92496453D01*
X138380044Y-92416232D01*
X138380042Y-92416231D01*
X138373491Y-92411204D01*
X138365864Y-92408044D01*
X138365861Y-92408043D01*
X138240442Y-92356093D01*
X138240441Y-92356092D01*
X138232813Y-92352933D01*
X138224630Y-92351855D01*
X138224624Y-92351854D01*
X138090034Y-92334136D01*
X138081846Y-92333058D01*
X138073658Y-92334136D01*
X137939067Y-92351854D01*
X137939059Y-92351856D01*
X137930879Y-92352933D01*
X137923252Y-92356092D01*
X137923249Y-92356093D01*
X137797830Y-92408043D01*
X137797824Y-92408046D01*
X137790201Y-92411204D01*
X137686431Y-92490829D01*
X137626176Y-92515788D01*
X137561512Y-92507275D01*
X137509768Y-92467572D01*
X137496248Y-92449952D01*
X137489156Y-92444510D01*
X137381998Y-92362284D01*
X137381996Y-92362283D01*
X137375445Y-92357256D01*
X137367818Y-92354096D01*
X137367815Y-92354095D01*
X137242396Y-92302145D01*
X137242395Y-92302144D01*
X137234767Y-92298985D01*
X137226584Y-92297907D01*
X137226578Y-92297906D01*
X137091988Y-92280188D01*
X137083800Y-92279110D01*
X137075612Y-92280188D01*
X136941021Y-92297906D01*
X136941013Y-92297908D01*
X136932833Y-92298985D01*
X136925206Y-92302144D01*
X136925203Y-92302145D01*
X136799784Y-92354095D01*
X136799778Y-92354098D01*
X136792155Y-92357256D01*
X136785606Y-92362280D01*
X136785601Y-92362284D01*
X136677902Y-92444925D01*
X136677897Y-92444929D01*
X136671352Y-92449952D01*
X136666329Y-92456497D01*
X136666325Y-92456502D01*
X136583684Y-92564201D01*
X136583680Y-92564206D01*
X136578656Y-92570755D01*
X136575498Y-92578378D01*
X136575495Y-92578384D01*
X136523545Y-92703803D01*
X136520385Y-92711433D01*
X136519308Y-92719613D01*
X136519306Y-92719621D01*
X136502581Y-92846668D01*
X136500510Y-92862400D01*
X135791077Y-92862400D01*
X135839346Y-92745868D01*
X135859221Y-92594901D01*
X135839346Y-92443934D01*
X135781075Y-92303256D01*
X135688379Y-92182453D01*
X135567576Y-92089757D01*
X135559949Y-92086597D01*
X135559946Y-92086596D01*
X135434527Y-92034646D01*
X135434526Y-92034645D01*
X135426898Y-92031486D01*
X135418715Y-92030408D01*
X135418709Y-92030407D01*
X135284119Y-92012689D01*
X135275931Y-92011611D01*
X135267743Y-92012689D01*
X135133152Y-92030407D01*
X135133144Y-92030409D01*
X135124964Y-92031486D01*
X135117337Y-92034645D01*
X135117334Y-92034646D01*
X134991915Y-92086596D01*
X134991909Y-92086599D01*
X134984286Y-92089757D01*
X134977737Y-92094781D01*
X134977732Y-92094785D01*
X134870033Y-92177426D01*
X134870028Y-92177430D01*
X134863483Y-92182453D01*
X134858460Y-92188998D01*
X134858456Y-92189003D01*
X134775815Y-92296702D01*
X134775811Y-92296707D01*
X134770787Y-92303256D01*
X134767629Y-92310878D01*
X134767627Y-92310883D01*
X134727781Y-92407081D01*
X134688075Y-92458825D01*
X134627818Y-92483784D01*
X134563153Y-92475271D01*
X134519056Y-92441432D01*
X134518046Y-92442443D01*
X134512205Y-92436602D01*
X134507179Y-92430052D01*
X134485066Y-92413084D01*
X134392929Y-92342384D01*
X134392927Y-92342383D01*
X134386376Y-92337356D01*
X134378749Y-92334196D01*
X134378746Y-92334195D01*
X134253327Y-92282245D01*
X134253326Y-92282244D01*
X134245698Y-92279085D01*
X134237515Y-92278007D01*
X134237509Y-92278006D01*
X134102919Y-92260288D01*
X134094731Y-92259210D01*
X134086543Y-92260288D01*
X133951952Y-92278006D01*
X133951944Y-92278008D01*
X133943764Y-92279085D01*
X133936137Y-92282244D01*
X133936134Y-92282245D01*
X133810715Y-92334195D01*
X133810709Y-92334198D01*
X133803086Y-92337356D01*
X133796537Y-92342380D01*
X133796532Y-92342384D01*
X133688833Y-92425025D01*
X133688828Y-92425029D01*
X133682283Y-92430052D01*
X133677260Y-92436597D01*
X133677259Y-92436599D01*
X133611350Y-92522493D01*
X133559606Y-92562197D01*
X133494942Y-92570710D01*
X133434685Y-92545751D01*
X133387645Y-92509656D01*
X133380018Y-92506496D01*
X133380015Y-92506495D01*
X133254596Y-92454545D01*
X133254595Y-92454544D01*
X133246967Y-92451385D01*
X133238784Y-92450307D01*
X133238778Y-92450306D01*
X133104188Y-92432588D01*
X133096000Y-92431510D01*
X133087812Y-92432588D01*
X132953221Y-92450306D01*
X132953213Y-92450308D01*
X132945033Y-92451385D01*
X132937406Y-92454544D01*
X132937403Y-92454545D01*
X132811984Y-92506495D01*
X132811978Y-92506498D01*
X132804355Y-92509656D01*
X132797807Y-92514680D01*
X132797806Y-92514681D01*
X132687658Y-92599201D01*
X132627400Y-92624160D01*
X132562735Y-92615647D01*
X132522015Y-92584401D01*
X132520220Y-92586197D01*
X132514379Y-92580356D01*
X132509353Y-92573806D01*
X132491955Y-92560456D01*
X132395103Y-92486138D01*
X132395101Y-92486137D01*
X132388550Y-92481110D01*
X132380923Y-92477950D01*
X132380920Y-92477949D01*
X132255501Y-92425999D01*
X132255500Y-92425998D01*
X132247872Y-92422839D01*
X132239689Y-92421761D01*
X132239683Y-92421760D01*
X132105093Y-92404042D01*
X132096905Y-92402964D01*
X132088717Y-92404042D01*
X131954126Y-92421760D01*
X131954118Y-92421762D01*
X131945938Y-92422839D01*
X131938311Y-92425998D01*
X131938308Y-92425999D01*
X131812889Y-92477949D01*
X131812883Y-92477952D01*
X131805260Y-92481110D01*
X131798711Y-92486134D01*
X131798706Y-92486138D01*
X131691007Y-92568779D01*
X131691002Y-92568783D01*
X131684457Y-92573806D01*
X131679434Y-92580351D01*
X131679430Y-92580356D01*
X131596789Y-92688055D01*
X131596785Y-92688060D01*
X131591761Y-92694609D01*
X131588603Y-92702232D01*
X131588600Y-92702238D01*
X131539316Y-92821221D01*
X131533490Y-92835287D01*
X131532413Y-92843467D01*
X131532411Y-92843475D01*
X131521966Y-92922821D01*
X131513615Y-92986254D01*
X130650602Y-92986254D01*
X130649742Y-92979717D01*
X130591471Y-92839039D01*
X130498775Y-92718236D01*
X130489909Y-92711433D01*
X130384525Y-92630568D01*
X130384523Y-92630567D01*
X130377972Y-92625540D01*
X130370345Y-92622380D01*
X130370342Y-92622379D01*
X130244923Y-92570429D01*
X130244922Y-92570428D01*
X130237294Y-92567269D01*
X130229111Y-92566191D01*
X130229105Y-92566190D01*
X130094515Y-92548472D01*
X130086327Y-92547394D01*
X130078139Y-92548472D01*
X129943548Y-92566190D01*
X129943540Y-92566192D01*
X129935360Y-92567269D01*
X129927733Y-92570428D01*
X129927730Y-92570429D01*
X129802311Y-92622379D01*
X129802305Y-92622382D01*
X129794682Y-92625540D01*
X129788133Y-92630564D01*
X129788128Y-92630568D01*
X129680425Y-92713212D01*
X129680420Y-92713216D01*
X129678679Y-92714552D01*
X129678673Y-92714556D01*
X129673879Y-92718236D01*
X129673312Y-92717497D01*
X129617753Y-92747969D01*
X129547393Y-92743352D01*
X129490533Y-92701658D01*
X129482548Y-92691252D01*
X129475997Y-92686225D01*
X129368298Y-92603584D01*
X129368296Y-92603583D01*
X129361745Y-92598556D01*
X129354118Y-92595396D01*
X129354115Y-92595395D01*
X129228696Y-92543445D01*
X129228695Y-92543444D01*
X129221067Y-92540285D01*
X129212884Y-92539207D01*
X129212878Y-92539206D01*
X129078288Y-92521488D01*
X129070100Y-92520410D01*
X129061912Y-92521488D01*
X128927321Y-92539206D01*
X128927313Y-92539208D01*
X128919133Y-92540285D01*
X128911506Y-92543444D01*
X128911503Y-92543445D01*
X128786084Y-92595395D01*
X128786078Y-92595398D01*
X128778455Y-92598556D01*
X128771906Y-92603580D01*
X128771901Y-92603584D01*
X128664202Y-92686225D01*
X128664197Y-92686229D01*
X128657652Y-92691252D01*
X128652629Y-92697797D01*
X128652627Y-92697800D01*
X128611810Y-92750993D01*
X128554942Y-92792689D01*
X128484577Y-92797300D01*
X128422754Y-92763382D01*
X128420674Y-92761302D01*
X128415648Y-92754752D01*
X128409097Y-92749725D01*
X128301398Y-92667084D01*
X128301396Y-92667083D01*
X128294845Y-92662056D01*
X128287218Y-92658896D01*
X128287215Y-92658895D01*
X128161796Y-92606945D01*
X128161795Y-92606944D01*
X128154167Y-92603785D01*
X128145984Y-92602707D01*
X128145978Y-92602706D01*
X128011388Y-92584988D01*
X128003200Y-92583910D01*
X127995012Y-92584988D01*
X127860421Y-92602706D01*
X127860413Y-92602708D01*
X127852233Y-92603785D01*
X127844606Y-92606944D01*
X127844603Y-92606945D01*
X127719184Y-92658895D01*
X127719178Y-92658898D01*
X127711555Y-92662056D01*
X127705006Y-92667080D01*
X127705001Y-92667084D01*
X127597304Y-92749724D01*
X127597302Y-92749725D01*
X127590752Y-92754752D01*
X127589693Y-92756131D01*
X127536055Y-92787097D01*
X127470835Y-92787095D01*
X127417201Y-92756128D01*
X127416145Y-92754752D01*
X127409594Y-92749725D01*
X127301895Y-92667084D01*
X127301893Y-92667083D01*
X127295342Y-92662056D01*
X127287715Y-92658896D01*
X127287712Y-92658895D01*
X127162293Y-92606945D01*
X127162292Y-92606944D01*
X127154664Y-92603785D01*
X127146481Y-92602707D01*
X127146475Y-92602706D01*
X127011885Y-92584988D01*
X127003697Y-92583910D01*
X126995509Y-92584988D01*
X126860918Y-92602706D01*
X126860910Y-92602708D01*
X126852730Y-92603785D01*
X126845103Y-92606944D01*
X126845100Y-92606945D01*
X126719681Y-92658895D01*
X126719675Y-92658898D01*
X126712052Y-92662056D01*
X126705503Y-92667080D01*
X126705498Y-92667084D01*
X126597799Y-92749725D01*
X126597794Y-92749729D01*
X126591249Y-92754752D01*
X126586226Y-92761297D01*
X126586222Y-92761302D01*
X126503581Y-92869001D01*
X126503577Y-92869006D01*
X126498553Y-92875555D01*
X126495395Y-92883178D01*
X126495392Y-92883184D01*
X126443442Y-93008603D01*
X126440282Y-93016233D01*
X126439205Y-93024413D01*
X126439203Y-93024421D01*
X126426292Y-93122496D01*
X126420407Y-93167200D01*
X126421485Y-93175388D01*
X126439203Y-93309978D01*
X126439204Y-93309984D01*
X126440282Y-93318167D01*
X126443441Y-93325795D01*
X126443442Y-93325796D01*
X126449685Y-93340868D01*
X126457725Y-93408797D01*
X126429087Y-93470917D01*
X126372212Y-93508919D01*
X126303862Y-93511605D01*
X126244181Y-93478181D01*
X126097105Y-93331105D01*
X126069791Y-93290228D01*
X126060200Y-93242010D01*
X126060200Y-85534409D01*
X126077495Y-85470696D01*
X126124634Y-85424475D01*
X126188674Y-85408433D01*
X126252035Y-85426976D01*
X126297321Y-85475012D01*
X126344062Y-85562457D01*
X126472564Y-85719036D01*
X126629143Y-85847538D01*
X126807782Y-85943023D01*
X127001618Y-86001822D01*
X127203200Y-86021676D01*
X127404782Y-86001822D01*
X127598618Y-85943023D01*
X127777257Y-85847538D01*
X127933836Y-85719036D01*
X128062338Y-85562457D01*
X128157823Y-85383818D01*
X128216622Y-85189982D01*
X128236476Y-84988400D01*
X128709924Y-84988400D01*
X128729778Y-85189982D01*
X128731573Y-85195900D01*
X128731574Y-85195904D01*
X128786779Y-85377892D01*
X128788577Y-85383818D01*
X128884062Y-85562457D01*
X129012564Y-85719036D01*
X129169143Y-85847538D01*
X129347782Y-85943023D01*
X129541618Y-86001822D01*
X129743200Y-86021676D01*
X129944782Y-86001822D01*
X130138618Y-85943023D01*
X130317257Y-85847538D01*
X130473836Y-85719036D01*
X130602338Y-85562457D01*
X130697823Y-85383818D01*
X130756622Y-85189982D01*
X130776476Y-84988400D01*
X131249924Y-84988400D01*
X131269778Y-85189982D01*
X131271573Y-85195900D01*
X131271574Y-85195904D01*
X131326779Y-85377892D01*
X131328577Y-85383818D01*
X131424062Y-85562457D01*
X131552564Y-85719036D01*
X131709143Y-85847538D01*
X131887782Y-85943023D01*
X132081618Y-86001822D01*
X132283200Y-86021676D01*
X132484782Y-86001822D01*
X132678618Y-85943023D01*
X132857257Y-85847538D01*
X133013836Y-85719036D01*
X133142338Y-85562457D01*
X133237823Y-85383818D01*
X133296622Y-85189982D01*
X133316476Y-84988400D01*
X133789924Y-84988400D01*
X133809778Y-85189982D01*
X133811573Y-85195900D01*
X133811574Y-85195904D01*
X133866779Y-85377892D01*
X133868577Y-85383818D01*
X133964062Y-85562457D01*
X134092564Y-85719036D01*
X134249143Y-85847538D01*
X134427782Y-85943023D01*
X134621618Y-86001822D01*
X134823200Y-86021676D01*
X135024782Y-86001822D01*
X135218618Y-85943023D01*
X135397257Y-85847538D01*
X135553836Y-85719036D01*
X135682338Y-85562457D01*
X135777823Y-85383818D01*
X135836622Y-85189982D01*
X135856476Y-84988400D01*
X136329924Y-84988400D01*
X136349778Y-85189982D01*
X136351573Y-85195900D01*
X136351574Y-85195904D01*
X136406779Y-85377892D01*
X136408577Y-85383818D01*
X136504062Y-85562457D01*
X136632564Y-85719036D01*
X136789143Y-85847538D01*
X136967782Y-85943023D01*
X137161618Y-86001822D01*
X137363200Y-86021676D01*
X137564782Y-86001822D01*
X137758618Y-85943023D01*
X137937257Y-85847538D01*
X138093836Y-85719036D01*
X138222338Y-85562457D01*
X138317823Y-85383818D01*
X138376622Y-85189982D01*
X138396476Y-84988400D01*
X138869924Y-84988400D01*
X138889778Y-85189982D01*
X138891573Y-85195900D01*
X138891574Y-85195904D01*
X138946779Y-85377892D01*
X138948577Y-85383818D01*
X139044062Y-85562457D01*
X139172564Y-85719036D01*
X139329143Y-85847538D01*
X139507782Y-85943023D01*
X139701618Y-86001822D01*
X139903200Y-86021676D01*
X140104782Y-86001822D01*
X140298618Y-85943023D01*
X140477257Y-85847538D01*
X140633836Y-85719036D01*
X140762338Y-85562457D01*
X140857823Y-85383818D01*
X140916622Y-85189982D01*
X140936476Y-84988400D01*
X141409924Y-84988400D01*
X141429778Y-85189982D01*
X141431573Y-85195900D01*
X141431574Y-85195904D01*
X141486779Y-85377892D01*
X141488577Y-85383818D01*
X141584062Y-85562457D01*
X141712564Y-85719036D01*
X141869143Y-85847538D01*
X142047782Y-85943023D01*
X142241618Y-86001822D01*
X142443200Y-86021676D01*
X142644782Y-86001822D01*
X142838618Y-85943023D01*
X143017257Y-85847538D01*
X143173836Y-85719036D01*
X143302338Y-85562457D01*
X143397823Y-85383818D01*
X143456622Y-85189982D01*
X143476476Y-84988400D01*
X143949924Y-84988400D01*
X143969778Y-85189982D01*
X143971573Y-85195900D01*
X143971574Y-85195904D01*
X144026779Y-85377892D01*
X144028577Y-85383818D01*
X144124062Y-85562457D01*
X144252564Y-85719036D01*
X144409143Y-85847538D01*
X144587782Y-85943023D01*
X144781618Y-86001822D01*
X144983200Y-86021676D01*
X145184782Y-86001822D01*
X145378618Y-85943023D01*
X145557257Y-85847538D01*
X145713836Y-85719036D01*
X145842338Y-85562457D01*
X145937823Y-85383818D01*
X145996622Y-85189982D01*
X146016476Y-84988400D01*
X146489924Y-84988400D01*
X146509778Y-85189982D01*
X146511573Y-85195900D01*
X146511574Y-85195904D01*
X146566779Y-85377892D01*
X146568577Y-85383818D01*
X146664062Y-85562457D01*
X146792564Y-85719036D01*
X146949143Y-85847538D01*
X147127782Y-85943023D01*
X147321618Y-86001822D01*
X147523200Y-86021676D01*
X147724782Y-86001822D01*
X147918618Y-85943023D01*
X148097257Y-85847538D01*
X148253836Y-85719036D01*
X148382338Y-85562457D01*
X148477823Y-85383818D01*
X148536622Y-85189982D01*
X148556476Y-84988400D01*
X149029924Y-84988400D01*
X149049778Y-85189982D01*
X149051573Y-85195900D01*
X149051574Y-85195904D01*
X149106779Y-85377892D01*
X149108577Y-85383818D01*
X149204062Y-85562457D01*
X149332564Y-85719036D01*
X149489143Y-85847538D01*
X149667782Y-85943023D01*
X149861618Y-86001822D01*
X150063200Y-86021676D01*
X150264782Y-86001822D01*
X150458618Y-85943023D01*
X150637257Y-85847538D01*
X150793836Y-85719036D01*
X150922338Y-85562457D01*
X151017823Y-85383818D01*
X151041451Y-85305923D01*
X151075545Y-85250865D01*
X151132484Y-85220012D01*
X151197228Y-85221517D01*
X151252673Y-85254983D01*
X151284170Y-85311569D01*
X151313096Y-85425796D01*
X151316470Y-85435623D01*
X151402688Y-85632178D01*
X151407631Y-85641313D01*
X151525022Y-85820993D01*
X151531410Y-85829199D01*
X151676767Y-85987100D01*
X151684411Y-85994137D01*
X151853788Y-86125968D01*
X151862481Y-86131647D01*
X152051242Y-86233800D01*
X152060759Y-86237975D01*
X152263757Y-86307664D01*
X152273827Y-86310214D01*
X152335661Y-86320532D01*
X152346798Y-86319956D01*
X152349200Y-86309064D01*
X152349200Y-81127736D01*
X152346798Y-81116843D01*
X152335661Y-81116267D01*
X152273827Y-81126585D01*
X152263757Y-81129135D01*
X152060759Y-81198824D01*
X152051242Y-81202999D01*
X151862481Y-81305152D01*
X151853788Y-81310831D01*
X151684411Y-81442662D01*
X151676767Y-81449699D01*
X151531410Y-81607600D01*
X151525022Y-81615806D01*
X151407631Y-81795486D01*
X151402688Y-81804621D01*
X151316470Y-82001176D01*
X151313097Y-82011000D01*
X151284170Y-82125231D01*
X151252673Y-82181816D01*
X151197228Y-82215282D01*
X151132485Y-82216787D01*
X151075545Y-82185934D01*
X151041451Y-82130874D01*
X151019620Y-82058907D01*
X151019619Y-82058904D01*
X151017823Y-82052982D01*
X150922338Y-81874343D01*
X150793836Y-81717764D01*
X150637257Y-81589262D01*
X150458618Y-81493777D01*
X150452697Y-81491981D01*
X150452695Y-81491980D01*
X150270704Y-81436774D01*
X150270700Y-81436773D01*
X150264782Y-81434978D01*
X150063200Y-81415124D01*
X150057037Y-81415731D01*
X149867780Y-81434371D01*
X149867779Y-81434371D01*
X149861618Y-81434978D01*
X149855701Y-81436772D01*
X149855695Y-81436774D01*
X149673704Y-81491980D01*
X149673698Y-81491982D01*
X149667782Y-81493777D01*
X149662324Y-81496694D01*
X149662320Y-81496696D01*
X149558950Y-81551949D01*
X149489143Y-81589262D01*
X149484364Y-81593183D01*
X149484358Y-81593188D01*
X149337343Y-81713841D01*
X149337337Y-81713846D01*
X149332564Y-81717764D01*
X149328646Y-81722537D01*
X149328641Y-81722543D01*
X149207988Y-81869558D01*
X149207983Y-81869564D01*
X149204062Y-81874343D01*
X149201144Y-81879801D01*
X149201144Y-81879802D01*
X149111496Y-82047520D01*
X149111494Y-82047524D01*
X149108577Y-82052982D01*
X149106782Y-82058898D01*
X149106780Y-82058904D01*
X149051574Y-82240895D01*
X149051572Y-82240901D01*
X149049778Y-82246818D01*
X149029924Y-82448400D01*
X149049778Y-82649982D01*
X149051573Y-82655900D01*
X149051574Y-82655904D01*
X149106779Y-82837892D01*
X149108577Y-82843818D01*
X149204062Y-83022457D01*
X149207987Y-83027239D01*
X149207988Y-83027241D01*
X149328641Y-83174256D01*
X149332564Y-83179036D01*
X149489143Y-83307538D01*
X149667782Y-83403023D01*
X149861618Y-83461822D01*
X150063200Y-83481676D01*
X150264782Y-83461822D01*
X150458618Y-83403023D01*
X150637257Y-83307538D01*
X150793836Y-83179036D01*
X150922338Y-83022457D01*
X151017823Y-82843818D01*
X151041451Y-82765923D01*
X151075545Y-82710865D01*
X151132484Y-82680012D01*
X151197228Y-82681517D01*
X151252673Y-82714983D01*
X151284170Y-82771569D01*
X151313096Y-82885796D01*
X151316470Y-82895623D01*
X151402688Y-83092178D01*
X151407631Y-83101313D01*
X151525022Y-83280993D01*
X151531410Y-83289199D01*
X151676767Y-83447100D01*
X151684411Y-83454137D01*
X151853788Y-83585968D01*
X151862485Y-83591650D01*
X151891933Y-83607587D01*
X151940204Y-83653903D01*
X151957963Y-83718400D01*
X151940204Y-83782897D01*
X151891933Y-83829213D01*
X151862485Y-83845149D01*
X151853788Y-83850831D01*
X151684411Y-83982662D01*
X151676767Y-83989699D01*
X151531410Y-84147600D01*
X151525022Y-84155806D01*
X151407631Y-84335486D01*
X151402688Y-84344621D01*
X151316470Y-84541176D01*
X151313097Y-84551000D01*
X151284170Y-84665231D01*
X151252673Y-84721816D01*
X151197228Y-84755282D01*
X151132485Y-84756787D01*
X151075545Y-84725934D01*
X151041451Y-84670874D01*
X151019620Y-84598907D01*
X151019619Y-84598904D01*
X151017823Y-84592982D01*
X150922338Y-84414343D01*
X150793836Y-84257764D01*
X150637257Y-84129262D01*
X150458618Y-84033777D01*
X150452697Y-84031981D01*
X150452695Y-84031980D01*
X150270704Y-83976774D01*
X150270700Y-83976773D01*
X150264782Y-83974978D01*
X150063200Y-83955124D01*
X150057037Y-83955731D01*
X149867780Y-83974371D01*
X149867779Y-83974371D01*
X149861618Y-83974978D01*
X149855701Y-83976772D01*
X149855695Y-83976774D01*
X149673704Y-84031980D01*
X149673698Y-84031982D01*
X149667782Y-84033777D01*
X149662324Y-84036694D01*
X149662320Y-84036696D01*
X149504901Y-84120839D01*
X149489143Y-84129262D01*
X149484364Y-84133183D01*
X149484358Y-84133188D01*
X149337343Y-84253841D01*
X149337337Y-84253846D01*
X149332564Y-84257764D01*
X149328646Y-84262537D01*
X149328641Y-84262543D01*
X149207988Y-84409558D01*
X149207983Y-84409564D01*
X149204062Y-84414343D01*
X149201144Y-84419801D01*
X149201144Y-84419802D01*
X149111496Y-84587520D01*
X149111494Y-84587524D01*
X149108577Y-84592982D01*
X149106782Y-84598898D01*
X149106780Y-84598904D01*
X149051574Y-84780895D01*
X149051572Y-84780901D01*
X149049778Y-84786818D01*
X149029924Y-84988400D01*
X148556476Y-84988400D01*
X148536622Y-84786818D01*
X148477823Y-84592982D01*
X148382338Y-84414343D01*
X148253836Y-84257764D01*
X148097257Y-84129262D01*
X147918618Y-84033777D01*
X147912697Y-84031981D01*
X147912695Y-84031980D01*
X147730704Y-83976774D01*
X147730700Y-83976773D01*
X147724782Y-83974978D01*
X147523200Y-83955124D01*
X147517037Y-83955731D01*
X147327780Y-83974371D01*
X147327779Y-83974371D01*
X147321618Y-83974978D01*
X147315701Y-83976772D01*
X147315695Y-83976774D01*
X147133704Y-84031980D01*
X147133698Y-84031982D01*
X147127782Y-84033777D01*
X147122324Y-84036694D01*
X147122320Y-84036696D01*
X146964901Y-84120839D01*
X146949143Y-84129262D01*
X146944364Y-84133183D01*
X146944358Y-84133188D01*
X146797343Y-84253841D01*
X146797337Y-84253846D01*
X146792564Y-84257764D01*
X146788646Y-84262537D01*
X146788641Y-84262543D01*
X146667988Y-84409558D01*
X146667983Y-84409564D01*
X146664062Y-84414343D01*
X146661144Y-84419801D01*
X146661144Y-84419802D01*
X146571496Y-84587520D01*
X146571494Y-84587524D01*
X146568577Y-84592982D01*
X146566782Y-84598898D01*
X146566780Y-84598904D01*
X146511574Y-84780895D01*
X146511572Y-84780901D01*
X146509778Y-84786818D01*
X146489924Y-84988400D01*
X146016476Y-84988400D01*
X145996622Y-84786818D01*
X145937823Y-84592982D01*
X145842338Y-84414343D01*
X145713836Y-84257764D01*
X145557257Y-84129262D01*
X145378618Y-84033777D01*
X145372697Y-84031981D01*
X145372695Y-84031980D01*
X145190704Y-83976774D01*
X145190700Y-83976773D01*
X145184782Y-83974978D01*
X144983200Y-83955124D01*
X144977037Y-83955731D01*
X144787780Y-83974371D01*
X144787779Y-83974371D01*
X144781618Y-83974978D01*
X144775701Y-83976772D01*
X144775695Y-83976774D01*
X144593704Y-84031980D01*
X144593698Y-84031982D01*
X144587782Y-84033777D01*
X144582324Y-84036694D01*
X144582320Y-84036696D01*
X144424901Y-84120839D01*
X144409143Y-84129262D01*
X144404364Y-84133183D01*
X144404358Y-84133188D01*
X144257343Y-84253841D01*
X144257337Y-84253846D01*
X144252564Y-84257764D01*
X144248646Y-84262537D01*
X144248641Y-84262543D01*
X144127988Y-84409558D01*
X144127983Y-84409564D01*
X144124062Y-84414343D01*
X144121144Y-84419801D01*
X144121144Y-84419802D01*
X144031496Y-84587520D01*
X144031494Y-84587524D01*
X144028577Y-84592982D01*
X144026782Y-84598898D01*
X144026780Y-84598904D01*
X143971574Y-84780895D01*
X143971572Y-84780901D01*
X143969778Y-84786818D01*
X143949924Y-84988400D01*
X143476476Y-84988400D01*
X143456622Y-84786818D01*
X143397823Y-84592982D01*
X143302338Y-84414343D01*
X143173836Y-84257764D01*
X143017257Y-84129262D01*
X142838618Y-84033777D01*
X142832697Y-84031981D01*
X142832695Y-84031980D01*
X142650704Y-83976774D01*
X142650700Y-83976773D01*
X142644782Y-83974978D01*
X142443200Y-83955124D01*
X142437037Y-83955731D01*
X142247780Y-83974371D01*
X142247779Y-83974371D01*
X142241618Y-83974978D01*
X142235701Y-83976772D01*
X142235695Y-83976774D01*
X142053704Y-84031980D01*
X142053698Y-84031982D01*
X142047782Y-84033777D01*
X142042324Y-84036694D01*
X142042320Y-84036696D01*
X141884901Y-84120839D01*
X141869143Y-84129262D01*
X141864364Y-84133183D01*
X141864358Y-84133188D01*
X141717343Y-84253841D01*
X141717337Y-84253846D01*
X141712564Y-84257764D01*
X141708646Y-84262537D01*
X141708641Y-84262543D01*
X141587988Y-84409558D01*
X141587983Y-84409564D01*
X141584062Y-84414343D01*
X141581144Y-84419801D01*
X141581144Y-84419802D01*
X141491496Y-84587520D01*
X141491494Y-84587524D01*
X141488577Y-84592982D01*
X141486782Y-84598898D01*
X141486780Y-84598904D01*
X141431574Y-84780895D01*
X141431572Y-84780901D01*
X141429778Y-84786818D01*
X141409924Y-84988400D01*
X140936476Y-84988400D01*
X140916622Y-84786818D01*
X140857823Y-84592982D01*
X140762338Y-84414343D01*
X140633836Y-84257764D01*
X140477257Y-84129262D01*
X140298618Y-84033777D01*
X140292697Y-84031981D01*
X140292695Y-84031980D01*
X140110704Y-83976774D01*
X140110700Y-83976773D01*
X140104782Y-83974978D01*
X139903200Y-83955124D01*
X139897037Y-83955731D01*
X139707780Y-83974371D01*
X139707779Y-83974371D01*
X139701618Y-83974978D01*
X139695701Y-83976772D01*
X139695695Y-83976774D01*
X139513704Y-84031980D01*
X139513698Y-84031982D01*
X139507782Y-84033777D01*
X139502324Y-84036694D01*
X139502320Y-84036696D01*
X139344901Y-84120839D01*
X139329143Y-84129262D01*
X139324364Y-84133183D01*
X139324358Y-84133188D01*
X139177343Y-84253841D01*
X139177337Y-84253846D01*
X139172564Y-84257764D01*
X139168646Y-84262537D01*
X139168641Y-84262543D01*
X139047988Y-84409558D01*
X139047983Y-84409564D01*
X139044062Y-84414343D01*
X139041144Y-84419801D01*
X139041144Y-84419802D01*
X138951496Y-84587520D01*
X138951494Y-84587524D01*
X138948577Y-84592982D01*
X138946782Y-84598898D01*
X138946780Y-84598904D01*
X138891574Y-84780895D01*
X138891572Y-84780901D01*
X138889778Y-84786818D01*
X138869924Y-84988400D01*
X138396476Y-84988400D01*
X138376622Y-84786818D01*
X138317823Y-84592982D01*
X138222338Y-84414343D01*
X138093836Y-84257764D01*
X137937257Y-84129262D01*
X137758618Y-84033777D01*
X137752697Y-84031981D01*
X137752695Y-84031980D01*
X137570704Y-83976774D01*
X137570700Y-83976773D01*
X137564782Y-83974978D01*
X137363200Y-83955124D01*
X137357037Y-83955731D01*
X137167780Y-83974371D01*
X137167779Y-83974371D01*
X137161618Y-83974978D01*
X137155701Y-83976772D01*
X137155695Y-83976774D01*
X136973704Y-84031980D01*
X136973698Y-84031982D01*
X136967782Y-84033777D01*
X136962324Y-84036694D01*
X136962320Y-84036696D01*
X136804901Y-84120839D01*
X136789143Y-84129262D01*
X136784364Y-84133183D01*
X136784358Y-84133188D01*
X136637343Y-84253841D01*
X136637337Y-84253846D01*
X136632564Y-84257764D01*
X136628646Y-84262537D01*
X136628641Y-84262543D01*
X136507988Y-84409558D01*
X136507983Y-84409564D01*
X136504062Y-84414343D01*
X136501144Y-84419801D01*
X136501144Y-84419802D01*
X136411496Y-84587520D01*
X136411494Y-84587524D01*
X136408577Y-84592982D01*
X136406782Y-84598898D01*
X136406780Y-84598904D01*
X136351574Y-84780895D01*
X136351572Y-84780901D01*
X136349778Y-84786818D01*
X136329924Y-84988400D01*
X135856476Y-84988400D01*
X135836622Y-84786818D01*
X135777823Y-84592982D01*
X135682338Y-84414343D01*
X135553836Y-84257764D01*
X135397257Y-84129262D01*
X135218618Y-84033777D01*
X135212697Y-84031981D01*
X135212695Y-84031980D01*
X135030704Y-83976774D01*
X135030700Y-83976773D01*
X135024782Y-83974978D01*
X134823200Y-83955124D01*
X134817037Y-83955731D01*
X134627780Y-83974371D01*
X134627779Y-83974371D01*
X134621618Y-83974978D01*
X134615701Y-83976772D01*
X134615695Y-83976774D01*
X134433704Y-84031980D01*
X134433698Y-84031982D01*
X134427782Y-84033777D01*
X134422324Y-84036694D01*
X134422320Y-84036696D01*
X134264901Y-84120839D01*
X134249143Y-84129262D01*
X134244364Y-84133183D01*
X134244358Y-84133188D01*
X134097343Y-84253841D01*
X134097337Y-84253846D01*
X134092564Y-84257764D01*
X134088646Y-84262537D01*
X134088641Y-84262543D01*
X133967988Y-84409558D01*
X133967983Y-84409564D01*
X133964062Y-84414343D01*
X133961144Y-84419801D01*
X133961144Y-84419802D01*
X133871496Y-84587520D01*
X133871494Y-84587524D01*
X133868577Y-84592982D01*
X133866782Y-84598898D01*
X133866780Y-84598904D01*
X133811574Y-84780895D01*
X133811572Y-84780901D01*
X133809778Y-84786818D01*
X133789924Y-84988400D01*
X133316476Y-84988400D01*
X133296622Y-84786818D01*
X133237823Y-84592982D01*
X133142338Y-84414343D01*
X133013836Y-84257764D01*
X132857257Y-84129262D01*
X132678618Y-84033777D01*
X132672697Y-84031981D01*
X132672695Y-84031980D01*
X132490704Y-83976774D01*
X132490700Y-83976773D01*
X132484782Y-83974978D01*
X132283200Y-83955124D01*
X132277037Y-83955731D01*
X132087780Y-83974371D01*
X132087779Y-83974371D01*
X132081618Y-83974978D01*
X132075701Y-83976772D01*
X132075695Y-83976774D01*
X131893704Y-84031980D01*
X131893698Y-84031982D01*
X131887782Y-84033777D01*
X131882324Y-84036694D01*
X131882320Y-84036696D01*
X131724901Y-84120839D01*
X131709143Y-84129262D01*
X131704364Y-84133183D01*
X131704358Y-84133188D01*
X131557343Y-84253841D01*
X131557337Y-84253846D01*
X131552564Y-84257764D01*
X131548646Y-84262537D01*
X131548641Y-84262543D01*
X131427988Y-84409558D01*
X131427983Y-84409564D01*
X131424062Y-84414343D01*
X131421144Y-84419801D01*
X131421144Y-84419802D01*
X131331496Y-84587520D01*
X131331494Y-84587524D01*
X131328577Y-84592982D01*
X131326782Y-84598898D01*
X131326780Y-84598904D01*
X131271574Y-84780895D01*
X131271572Y-84780901D01*
X131269778Y-84786818D01*
X131249924Y-84988400D01*
X130776476Y-84988400D01*
X130756622Y-84786818D01*
X130697823Y-84592982D01*
X130602338Y-84414343D01*
X130473836Y-84257764D01*
X130317257Y-84129262D01*
X130138618Y-84033777D01*
X130132697Y-84031981D01*
X130132695Y-84031980D01*
X129950704Y-83976774D01*
X129950700Y-83976773D01*
X129944782Y-83974978D01*
X129743200Y-83955124D01*
X129737037Y-83955731D01*
X129547780Y-83974371D01*
X129547779Y-83974371D01*
X129541618Y-83974978D01*
X129535701Y-83976772D01*
X129535695Y-83976774D01*
X129353704Y-84031980D01*
X129353698Y-84031982D01*
X129347782Y-84033777D01*
X129342324Y-84036694D01*
X129342320Y-84036696D01*
X129184901Y-84120839D01*
X129169143Y-84129262D01*
X129164364Y-84133183D01*
X129164358Y-84133188D01*
X129017343Y-84253841D01*
X129017337Y-84253846D01*
X129012564Y-84257764D01*
X129008646Y-84262537D01*
X129008641Y-84262543D01*
X128887988Y-84409558D01*
X128887983Y-84409564D01*
X128884062Y-84414343D01*
X128881144Y-84419801D01*
X128881144Y-84419802D01*
X128791496Y-84587520D01*
X128791494Y-84587524D01*
X128788577Y-84592982D01*
X128786782Y-84598898D01*
X128786780Y-84598904D01*
X128731574Y-84780895D01*
X128731572Y-84780901D01*
X128729778Y-84786818D01*
X128709924Y-84988400D01*
X128236476Y-84988400D01*
X128216622Y-84786818D01*
X128157823Y-84592982D01*
X128062338Y-84414343D01*
X127933836Y-84257764D01*
X127777257Y-84129262D01*
X127598618Y-84033777D01*
X127592697Y-84031981D01*
X127592695Y-84031980D01*
X127410704Y-83976774D01*
X127410700Y-83976773D01*
X127404782Y-83974978D01*
X127203200Y-83955124D01*
X127197037Y-83955731D01*
X127007780Y-83974371D01*
X127007779Y-83974371D01*
X127001618Y-83974978D01*
X126995701Y-83976772D01*
X126995695Y-83976774D01*
X126813704Y-84031980D01*
X126813698Y-84031982D01*
X126807782Y-84033777D01*
X126802324Y-84036694D01*
X126802320Y-84036696D01*
X126644901Y-84120839D01*
X126629143Y-84129262D01*
X126624364Y-84133183D01*
X126624358Y-84133188D01*
X126477343Y-84253841D01*
X126477337Y-84253846D01*
X126472564Y-84257764D01*
X126468646Y-84262537D01*
X126468641Y-84262543D01*
X126347988Y-84409558D01*
X126347983Y-84409564D01*
X126344062Y-84414343D01*
X126341144Y-84419801D01*
X126341144Y-84419802D01*
X126297322Y-84501787D01*
X126252035Y-84549824D01*
X126188674Y-84568367D01*
X126124634Y-84552325D01*
X126077495Y-84506104D01*
X126060200Y-84442391D01*
X126060200Y-82994409D01*
X126077495Y-82930696D01*
X126124634Y-82884475D01*
X126188674Y-82868433D01*
X126252035Y-82886976D01*
X126297321Y-82935012D01*
X126344062Y-83022457D01*
X126347987Y-83027239D01*
X126347988Y-83027241D01*
X126468641Y-83174256D01*
X126472564Y-83179036D01*
X126629143Y-83307538D01*
X126807782Y-83403023D01*
X127001618Y-83461822D01*
X127203200Y-83481676D01*
X127404782Y-83461822D01*
X127598618Y-83403023D01*
X127777257Y-83307538D01*
X127933836Y-83179036D01*
X128062338Y-83022457D01*
X128157823Y-82843818D01*
X128216622Y-82649982D01*
X128236476Y-82448400D01*
X128709924Y-82448400D01*
X128729778Y-82649982D01*
X128731573Y-82655900D01*
X128731574Y-82655904D01*
X128786779Y-82837892D01*
X128788577Y-82843818D01*
X128884062Y-83022457D01*
X128887987Y-83027239D01*
X128887988Y-83027241D01*
X129008641Y-83174256D01*
X129012564Y-83179036D01*
X129169143Y-83307538D01*
X129347782Y-83403023D01*
X129541618Y-83461822D01*
X129743200Y-83481676D01*
X129944782Y-83461822D01*
X130138618Y-83403023D01*
X130317257Y-83307538D01*
X130473836Y-83179036D01*
X130602338Y-83022457D01*
X130697823Y-82843818D01*
X130756622Y-82649982D01*
X130776476Y-82448400D01*
X131249924Y-82448400D01*
X131269778Y-82649982D01*
X131271573Y-82655900D01*
X131271574Y-82655904D01*
X131326779Y-82837892D01*
X131328577Y-82843818D01*
X131424062Y-83022457D01*
X131427987Y-83027239D01*
X131427988Y-83027241D01*
X131548641Y-83174256D01*
X131552564Y-83179036D01*
X131709143Y-83307538D01*
X131887782Y-83403023D01*
X132081618Y-83461822D01*
X132283200Y-83481676D01*
X132484782Y-83461822D01*
X132678618Y-83403023D01*
X132857257Y-83307538D01*
X133013836Y-83179036D01*
X133142338Y-83022457D01*
X133237823Y-82843818D01*
X133296622Y-82649982D01*
X133316476Y-82448400D01*
X133789924Y-82448400D01*
X133809778Y-82649982D01*
X133811573Y-82655900D01*
X133811574Y-82655904D01*
X133866779Y-82837892D01*
X133868577Y-82843818D01*
X133964062Y-83022457D01*
X133967987Y-83027239D01*
X133967988Y-83027241D01*
X134088641Y-83174256D01*
X134092564Y-83179036D01*
X134249143Y-83307538D01*
X134427782Y-83403023D01*
X134621618Y-83461822D01*
X134823200Y-83481676D01*
X135024782Y-83461822D01*
X135218618Y-83403023D01*
X135397257Y-83307538D01*
X135553836Y-83179036D01*
X135682338Y-83022457D01*
X135777823Y-82843818D01*
X135836622Y-82649982D01*
X135856476Y-82448400D01*
X136329924Y-82448400D01*
X136349778Y-82649982D01*
X136351573Y-82655900D01*
X136351574Y-82655904D01*
X136406779Y-82837892D01*
X136408577Y-82843818D01*
X136504062Y-83022457D01*
X136507987Y-83027239D01*
X136507988Y-83027241D01*
X136628641Y-83174256D01*
X136632564Y-83179036D01*
X136789143Y-83307538D01*
X136967782Y-83403023D01*
X137161618Y-83461822D01*
X137363200Y-83481676D01*
X137564782Y-83461822D01*
X137758618Y-83403023D01*
X137937257Y-83307538D01*
X138093836Y-83179036D01*
X138222338Y-83022457D01*
X138317823Y-82843818D01*
X138376622Y-82649982D01*
X138396476Y-82448400D01*
X138869924Y-82448400D01*
X138889778Y-82649982D01*
X138891573Y-82655900D01*
X138891574Y-82655904D01*
X138946779Y-82837892D01*
X138948577Y-82843818D01*
X139044062Y-83022457D01*
X139047987Y-83027239D01*
X139047988Y-83027241D01*
X139168641Y-83174256D01*
X139172564Y-83179036D01*
X139329143Y-83307538D01*
X139507782Y-83403023D01*
X139701618Y-83461822D01*
X139903200Y-83481676D01*
X140104782Y-83461822D01*
X140298618Y-83403023D01*
X140477257Y-83307538D01*
X140633836Y-83179036D01*
X140762338Y-83022457D01*
X140857823Y-82843818D01*
X140916622Y-82649982D01*
X140936476Y-82448400D01*
X141409924Y-82448400D01*
X141429778Y-82649982D01*
X141431573Y-82655900D01*
X141431574Y-82655904D01*
X141486779Y-82837892D01*
X141488577Y-82843818D01*
X141584062Y-83022457D01*
X141587987Y-83027239D01*
X141587988Y-83027241D01*
X141708641Y-83174256D01*
X141712564Y-83179036D01*
X141869143Y-83307538D01*
X142047782Y-83403023D01*
X142241618Y-83461822D01*
X142443200Y-83481676D01*
X142644782Y-83461822D01*
X142838618Y-83403023D01*
X143017257Y-83307538D01*
X143173836Y-83179036D01*
X143302338Y-83022457D01*
X143397823Y-82843818D01*
X143456622Y-82649982D01*
X143476476Y-82448400D01*
X143949924Y-82448400D01*
X143969778Y-82649982D01*
X143971573Y-82655900D01*
X143971574Y-82655904D01*
X144026779Y-82837892D01*
X144028577Y-82843818D01*
X144124062Y-83022457D01*
X144127987Y-83027239D01*
X144127988Y-83027241D01*
X144248641Y-83174256D01*
X144252564Y-83179036D01*
X144409143Y-83307538D01*
X144587782Y-83403023D01*
X144781618Y-83461822D01*
X144983200Y-83481676D01*
X145184782Y-83461822D01*
X145378618Y-83403023D01*
X145557257Y-83307538D01*
X145713836Y-83179036D01*
X145842338Y-83022457D01*
X145937823Y-82843818D01*
X145996622Y-82649982D01*
X146016476Y-82448400D01*
X146489924Y-82448400D01*
X146509778Y-82649982D01*
X146511573Y-82655900D01*
X146511574Y-82655904D01*
X146566779Y-82837892D01*
X146568577Y-82843818D01*
X146664062Y-83022457D01*
X146667987Y-83027239D01*
X146667988Y-83027241D01*
X146788641Y-83174256D01*
X146792564Y-83179036D01*
X146949143Y-83307538D01*
X147127782Y-83403023D01*
X147321618Y-83461822D01*
X147523200Y-83481676D01*
X147724782Y-83461822D01*
X147918618Y-83403023D01*
X148097257Y-83307538D01*
X148253836Y-83179036D01*
X148382338Y-83022457D01*
X148477823Y-82843818D01*
X148536622Y-82649982D01*
X148556476Y-82448400D01*
X148536622Y-82246818D01*
X148477823Y-82052982D01*
X148382338Y-81874343D01*
X148253836Y-81717764D01*
X148097257Y-81589262D01*
X147918618Y-81493777D01*
X147912697Y-81491981D01*
X147912695Y-81491980D01*
X147730704Y-81436774D01*
X147730700Y-81436773D01*
X147724782Y-81434978D01*
X147523200Y-81415124D01*
X147517037Y-81415731D01*
X147327780Y-81434371D01*
X147327779Y-81434371D01*
X147321618Y-81434978D01*
X147315701Y-81436772D01*
X147315695Y-81436774D01*
X147133704Y-81491980D01*
X147133698Y-81491982D01*
X147127782Y-81493777D01*
X147122324Y-81496694D01*
X147122320Y-81496696D01*
X147018950Y-81551949D01*
X146949143Y-81589262D01*
X146944364Y-81593183D01*
X146944358Y-81593188D01*
X146797343Y-81713841D01*
X146797337Y-81713846D01*
X146792564Y-81717764D01*
X146788646Y-81722537D01*
X146788641Y-81722543D01*
X146667988Y-81869558D01*
X146667983Y-81869564D01*
X146664062Y-81874343D01*
X146661144Y-81879801D01*
X146661144Y-81879802D01*
X146571496Y-82047520D01*
X146571494Y-82047524D01*
X146568577Y-82052982D01*
X146566782Y-82058898D01*
X146566780Y-82058904D01*
X146511574Y-82240895D01*
X146511572Y-82240901D01*
X146509778Y-82246818D01*
X146489924Y-82448400D01*
X146016476Y-82448400D01*
X145996622Y-82246818D01*
X145937823Y-82052982D01*
X145842338Y-81874343D01*
X145713836Y-81717764D01*
X145557257Y-81589262D01*
X145378618Y-81493777D01*
X145372697Y-81491981D01*
X145372695Y-81491980D01*
X145190704Y-81436774D01*
X145190700Y-81436773D01*
X145184782Y-81434978D01*
X144983200Y-81415124D01*
X144977037Y-81415731D01*
X144787780Y-81434371D01*
X144787779Y-81434371D01*
X144781618Y-81434978D01*
X144775701Y-81436772D01*
X144775695Y-81436774D01*
X144593704Y-81491980D01*
X144593698Y-81491982D01*
X144587782Y-81493777D01*
X144582324Y-81496694D01*
X144582320Y-81496696D01*
X144478950Y-81551949D01*
X144409143Y-81589262D01*
X144404364Y-81593183D01*
X144404358Y-81593188D01*
X144257343Y-81713841D01*
X144257337Y-81713846D01*
X144252564Y-81717764D01*
X144248646Y-81722537D01*
X144248641Y-81722543D01*
X144127988Y-81869558D01*
X144127983Y-81869564D01*
X144124062Y-81874343D01*
X144121144Y-81879801D01*
X144121144Y-81879802D01*
X144031496Y-82047520D01*
X144031494Y-82047524D01*
X144028577Y-82052982D01*
X144026782Y-82058898D01*
X144026780Y-82058904D01*
X143971574Y-82240895D01*
X143971572Y-82240901D01*
X143969778Y-82246818D01*
X143949924Y-82448400D01*
X143476476Y-82448400D01*
X143456622Y-82246818D01*
X143397823Y-82052982D01*
X143302338Y-81874343D01*
X143173836Y-81717764D01*
X143017257Y-81589262D01*
X142838618Y-81493777D01*
X142832697Y-81491981D01*
X142832695Y-81491980D01*
X142650704Y-81436774D01*
X142650700Y-81436773D01*
X142644782Y-81434978D01*
X142443200Y-81415124D01*
X142437037Y-81415731D01*
X142247780Y-81434371D01*
X142247779Y-81434371D01*
X142241618Y-81434978D01*
X142235701Y-81436772D01*
X142235695Y-81436774D01*
X142053704Y-81491980D01*
X142053698Y-81491982D01*
X142047782Y-81493777D01*
X142042324Y-81496694D01*
X142042320Y-81496696D01*
X141938950Y-81551949D01*
X141869143Y-81589262D01*
X141864364Y-81593183D01*
X141864358Y-81593188D01*
X141717343Y-81713841D01*
X141717337Y-81713846D01*
X141712564Y-81717764D01*
X141708646Y-81722537D01*
X141708641Y-81722543D01*
X141587988Y-81869558D01*
X141587983Y-81869564D01*
X141584062Y-81874343D01*
X141581144Y-81879801D01*
X141581144Y-81879802D01*
X141491496Y-82047520D01*
X141491494Y-82047524D01*
X141488577Y-82052982D01*
X141486782Y-82058898D01*
X141486780Y-82058904D01*
X141431574Y-82240895D01*
X141431572Y-82240901D01*
X141429778Y-82246818D01*
X141409924Y-82448400D01*
X140936476Y-82448400D01*
X140916622Y-82246818D01*
X140857823Y-82052982D01*
X140762338Y-81874343D01*
X140633836Y-81717764D01*
X140477257Y-81589262D01*
X140298618Y-81493777D01*
X140292697Y-81491981D01*
X140292695Y-81491980D01*
X140110704Y-81436774D01*
X140110700Y-81436773D01*
X140104782Y-81434978D01*
X139903200Y-81415124D01*
X139897037Y-81415731D01*
X139707780Y-81434371D01*
X139707779Y-81434371D01*
X139701618Y-81434978D01*
X139695701Y-81436772D01*
X139695695Y-81436774D01*
X139513704Y-81491980D01*
X139513698Y-81491982D01*
X139507782Y-81493777D01*
X139502324Y-81496694D01*
X139502320Y-81496696D01*
X139398950Y-81551949D01*
X139329143Y-81589262D01*
X139324364Y-81593183D01*
X139324358Y-81593188D01*
X139177343Y-81713841D01*
X139177337Y-81713846D01*
X139172564Y-81717764D01*
X139168646Y-81722537D01*
X139168641Y-81722543D01*
X139047988Y-81869558D01*
X139047983Y-81869564D01*
X139044062Y-81874343D01*
X139041144Y-81879801D01*
X139041144Y-81879802D01*
X138951496Y-82047520D01*
X138951494Y-82047524D01*
X138948577Y-82052982D01*
X138946782Y-82058898D01*
X138946780Y-82058904D01*
X138891574Y-82240895D01*
X138891572Y-82240901D01*
X138889778Y-82246818D01*
X138869924Y-82448400D01*
X138396476Y-82448400D01*
X138376622Y-82246818D01*
X138317823Y-82052982D01*
X138222338Y-81874343D01*
X138093836Y-81717764D01*
X137937257Y-81589262D01*
X137758618Y-81493777D01*
X137752697Y-81491981D01*
X137752695Y-81491980D01*
X137570704Y-81436774D01*
X137570700Y-81436773D01*
X137564782Y-81434978D01*
X137363200Y-81415124D01*
X137357037Y-81415731D01*
X137167780Y-81434371D01*
X137167779Y-81434371D01*
X137161618Y-81434978D01*
X137155701Y-81436772D01*
X137155695Y-81436774D01*
X136973704Y-81491980D01*
X136973698Y-81491982D01*
X136967782Y-81493777D01*
X136962324Y-81496694D01*
X136962320Y-81496696D01*
X136858950Y-81551949D01*
X136789143Y-81589262D01*
X136784364Y-81593183D01*
X136784358Y-81593188D01*
X136637343Y-81713841D01*
X136637337Y-81713846D01*
X136632564Y-81717764D01*
X136628646Y-81722537D01*
X136628641Y-81722543D01*
X136507988Y-81869558D01*
X136507983Y-81869564D01*
X136504062Y-81874343D01*
X136501144Y-81879801D01*
X136501144Y-81879802D01*
X136411496Y-82047520D01*
X136411494Y-82047524D01*
X136408577Y-82052982D01*
X136406782Y-82058898D01*
X136406780Y-82058904D01*
X136351574Y-82240895D01*
X136351572Y-82240901D01*
X136349778Y-82246818D01*
X136329924Y-82448400D01*
X135856476Y-82448400D01*
X135836622Y-82246818D01*
X135777823Y-82052982D01*
X135682338Y-81874343D01*
X135553836Y-81717764D01*
X135397257Y-81589262D01*
X135218618Y-81493777D01*
X135212697Y-81491981D01*
X135212695Y-81491980D01*
X135030704Y-81436774D01*
X135030700Y-81436773D01*
X135024782Y-81434978D01*
X134823200Y-81415124D01*
X134817037Y-81415731D01*
X134627780Y-81434371D01*
X134627779Y-81434371D01*
X134621618Y-81434978D01*
X134615701Y-81436772D01*
X134615695Y-81436774D01*
X134433704Y-81491980D01*
X134433698Y-81491982D01*
X134427782Y-81493777D01*
X134422324Y-81496694D01*
X134422320Y-81496696D01*
X134318950Y-81551949D01*
X134249143Y-81589262D01*
X134244364Y-81593183D01*
X134244358Y-81593188D01*
X134097343Y-81713841D01*
X134097337Y-81713846D01*
X134092564Y-81717764D01*
X134088646Y-81722537D01*
X134088641Y-81722543D01*
X133967988Y-81869558D01*
X133967983Y-81869564D01*
X133964062Y-81874343D01*
X133961144Y-81879801D01*
X133961144Y-81879802D01*
X133871496Y-82047520D01*
X133871494Y-82047524D01*
X133868577Y-82052982D01*
X133866782Y-82058898D01*
X133866780Y-82058904D01*
X133811574Y-82240895D01*
X133811572Y-82240901D01*
X133809778Y-82246818D01*
X133789924Y-82448400D01*
X133316476Y-82448400D01*
X133296622Y-82246818D01*
X133237823Y-82052982D01*
X133142338Y-81874343D01*
X133013836Y-81717764D01*
X132857257Y-81589262D01*
X132678618Y-81493777D01*
X132672697Y-81491981D01*
X132672695Y-81491980D01*
X132490704Y-81436774D01*
X132490700Y-81436773D01*
X132484782Y-81434978D01*
X132283200Y-81415124D01*
X132277037Y-81415731D01*
X132087780Y-81434371D01*
X132087779Y-81434371D01*
X132081618Y-81434978D01*
X132075701Y-81436772D01*
X132075695Y-81436774D01*
X131893704Y-81491980D01*
X131893698Y-81491982D01*
X131887782Y-81493777D01*
X131882324Y-81496694D01*
X131882320Y-81496696D01*
X131778950Y-81551949D01*
X131709143Y-81589262D01*
X131704364Y-81593183D01*
X131704358Y-81593188D01*
X131557343Y-81713841D01*
X131557337Y-81713846D01*
X131552564Y-81717764D01*
X131548646Y-81722537D01*
X131548641Y-81722543D01*
X131427988Y-81869558D01*
X131427983Y-81869564D01*
X131424062Y-81874343D01*
X131421144Y-81879801D01*
X131421144Y-81879802D01*
X131331496Y-82047520D01*
X131331494Y-82047524D01*
X131328577Y-82052982D01*
X131326782Y-82058898D01*
X131326780Y-82058904D01*
X131271574Y-82240895D01*
X131271572Y-82240901D01*
X131269778Y-82246818D01*
X131249924Y-82448400D01*
X130776476Y-82448400D01*
X130756622Y-82246818D01*
X130697823Y-82052982D01*
X130602338Y-81874343D01*
X130473836Y-81717764D01*
X130317257Y-81589262D01*
X130138618Y-81493777D01*
X130132697Y-81491981D01*
X130132695Y-81491980D01*
X129950704Y-81436774D01*
X129950700Y-81436773D01*
X129944782Y-81434978D01*
X129743200Y-81415124D01*
X129737037Y-81415731D01*
X129547780Y-81434371D01*
X129547779Y-81434371D01*
X129541618Y-81434978D01*
X129535701Y-81436772D01*
X129535695Y-81436774D01*
X129353704Y-81491980D01*
X129353698Y-81491982D01*
X129347782Y-81493777D01*
X129342324Y-81496694D01*
X129342320Y-81496696D01*
X129238950Y-81551949D01*
X129169143Y-81589262D01*
X129164364Y-81593183D01*
X129164358Y-81593188D01*
X129017343Y-81713841D01*
X129017337Y-81713846D01*
X129012564Y-81717764D01*
X129008646Y-81722537D01*
X129008641Y-81722543D01*
X128887988Y-81869558D01*
X128887983Y-81869564D01*
X128884062Y-81874343D01*
X128881144Y-81879801D01*
X128881144Y-81879802D01*
X128791496Y-82047520D01*
X128791494Y-82047524D01*
X128788577Y-82052982D01*
X128786782Y-82058898D01*
X128786780Y-82058904D01*
X128731574Y-82240895D01*
X128731572Y-82240901D01*
X128729778Y-82246818D01*
X128709924Y-82448400D01*
X128236476Y-82448400D01*
X128216622Y-82246818D01*
X128157823Y-82052982D01*
X128062338Y-81874343D01*
X127933836Y-81717764D01*
X127777257Y-81589262D01*
X127598618Y-81493777D01*
X127592697Y-81491981D01*
X127592695Y-81491980D01*
X127410704Y-81436774D01*
X127410700Y-81436773D01*
X127404782Y-81434978D01*
X127203200Y-81415124D01*
X127197037Y-81415731D01*
X127007780Y-81434371D01*
X127007779Y-81434371D01*
X127001618Y-81434978D01*
X126995701Y-81436772D01*
X126995695Y-81436774D01*
X126813704Y-81491980D01*
X126813698Y-81491982D01*
X126807782Y-81493777D01*
X126802324Y-81496694D01*
X126802320Y-81496696D01*
X126698950Y-81551949D01*
X126629143Y-81589262D01*
X126624364Y-81593183D01*
X126624358Y-81593188D01*
X126477343Y-81713841D01*
X126477337Y-81713846D01*
X126472564Y-81717764D01*
X126468646Y-81722537D01*
X126468641Y-81722543D01*
X126347988Y-81869558D01*
X126347983Y-81869564D01*
X126344062Y-81874343D01*
X126341144Y-81879801D01*
X126341144Y-81879802D01*
X126297322Y-81961787D01*
X126252035Y-82009824D01*
X126188674Y-82028367D01*
X126124634Y-82012325D01*
X126077495Y-81966104D01*
X126060200Y-81902391D01*
X126060200Y-81169590D01*
X126060200Y-81153000D01*
X126043610Y-81153000D01*
X122351897Y-81153000D01*
X122294694Y-81139267D01*
X122249961Y-81101061D01*
X122227448Y-81046711D01*
X122232064Y-80988064D01*
X122262802Y-80937905D01*
X126937902Y-76262805D01*
X126978779Y-76235491D01*
X127026997Y-76225900D01*
X152347602Y-76225900D01*
X152395820Y-76235491D01*
G37*
%TD.AperFunction*%
%TD*%
%TA.AperFunction,Conductor*%
%TO.N,VSSA*%
G36*
X123568481Y-81394864D02*
G01*
X123612906Y-81431864D01*
X123636130Y-81484809D01*
X123633263Y-81542552D01*
X123604910Y-81592937D01*
X123591405Y-81607607D01*
X123585022Y-81615806D01*
X123467631Y-81795486D01*
X123462688Y-81804621D01*
X123376470Y-82001176D01*
X123373100Y-82010991D01*
X123330186Y-82180456D01*
X123329951Y-82191834D01*
X123341040Y-82194400D01*
X124791200Y-82194400D01*
X124854200Y-82211281D01*
X124900319Y-82257400D01*
X124917200Y-82320400D01*
X124917200Y-86329810D01*
X124920706Y-86342893D01*
X124933790Y-86346400D01*
X125558423Y-86346400D01*
X125568515Y-86345859D01*
X125568556Y-86346636D01*
X125633659Y-86357986D01*
X125685402Y-86404466D01*
X125704600Y-86471319D01*
X125704600Y-93624400D01*
X128244600Y-96164400D01*
X132741400Y-96164400D01*
X132804400Y-96181281D01*
X132850519Y-96227400D01*
X132867400Y-96290400D01*
X132867400Y-99390200D01*
X132994400Y-100076000D01*
X133400800Y-100660200D01*
X133959600Y-101041200D01*
X134645400Y-101168200D01*
X143064367Y-101168200D01*
X143091700Y-101171200D01*
X143512429Y-101264695D01*
X143554982Y-101282854D01*
X143781342Y-101433761D01*
X143894522Y-101509215D01*
X143930618Y-101545918D01*
X144132857Y-101860512D01*
X144149869Y-101901314D01*
X144243600Y-102323100D01*
X144246600Y-102350433D01*
X144246600Y-106223800D01*
X144229719Y-106286800D01*
X144183600Y-106332919D01*
X144120600Y-106349800D01*
X133832600Y-106349800D01*
X133832600Y-106366390D01*
X133832600Y-107341400D01*
X133815719Y-107404400D01*
X133769600Y-107450519D01*
X133706600Y-107467400D01*
X127712590Y-107467400D01*
X127664372Y-107457809D01*
X127623495Y-107430495D01*
X123988905Y-103795905D01*
X123961591Y-103755028D01*
X123952000Y-103706810D01*
X123952000Y-96659410D01*
X123952000Y-96647000D01*
X115341948Y-88036948D01*
X115309336Y-87980464D01*
X115309336Y-87915242D01*
X115341946Y-87858760D01*
X117317083Y-85883623D01*
X123305200Y-85883623D01*
X123305559Y-85890338D01*
X123310862Y-85939657D01*
X123314459Y-85954878D01*
X123359605Y-86075919D01*
X123368154Y-86091575D01*
X123444897Y-86194092D01*
X123457507Y-86206702D01*
X123560024Y-86283445D01*
X123575680Y-86291994D01*
X123696721Y-86337140D01*
X123711942Y-86340737D01*
X123761261Y-86346040D01*
X123767977Y-86346400D01*
X124392610Y-86346400D01*
X124405693Y-86342893D01*
X124409200Y-86329810D01*
X124409200Y-85258990D01*
X124405693Y-85245906D01*
X124392610Y-85242400D01*
X123321790Y-85242400D01*
X123308706Y-85245906D01*
X123305200Y-85258990D01*
X123305200Y-85883623D01*
X117317083Y-85883623D01*
X118482896Y-84717810D01*
X123305200Y-84717810D01*
X123308706Y-84730893D01*
X123321790Y-84734400D01*
X124392610Y-84734400D01*
X124405693Y-84730893D01*
X124409200Y-84717810D01*
X124409200Y-82718990D01*
X124405693Y-82705906D01*
X124392610Y-82702400D01*
X123341040Y-82702400D01*
X123329951Y-82704965D01*
X123330186Y-82716343D01*
X123373100Y-82885808D01*
X123376470Y-82895623D01*
X123462688Y-83092178D01*
X123467631Y-83101313D01*
X123585022Y-83280993D01*
X123591410Y-83289199D01*
X123731547Y-83441429D01*
X123760784Y-83495032D01*
X123761387Y-83556088D01*
X123733213Y-83610258D01*
X123682879Y-83644821D01*
X123575684Y-83684803D01*
X123560024Y-83693354D01*
X123457507Y-83770097D01*
X123444897Y-83782707D01*
X123368154Y-83885224D01*
X123359605Y-83900880D01*
X123314459Y-84021921D01*
X123310862Y-84037142D01*
X123305559Y-84086461D01*
X123305200Y-84093177D01*
X123305200Y-84717810D01*
X118482896Y-84717810D01*
X121782202Y-81418504D01*
X121823079Y-81391191D01*
X121871297Y-81381600D01*
X123512208Y-81381600D01*
X123568481Y-81394864D01*
G37*
%TD.AperFunction*%
%TD*%
%TA.AperFunction,Conductor*%
%TO.N,VDDA*%
G36*
X157551519Y-81391198D02*
G01*
X157592409Y-81418517D01*
X162114235Y-85940342D01*
X162146846Y-85996823D01*
X162146848Y-86062043D01*
X162114242Y-86118526D01*
X151722974Y-96511224D01*
X151722972Y-96511226D01*
X151714200Y-96520000D01*
X151714200Y-96532408D01*
X151714200Y-105130842D01*
X151705137Y-105177764D01*
X151679253Y-105217936D01*
X150633814Y-106310894D01*
X150592269Y-106339666D01*
X150542761Y-106349800D01*
X144956800Y-106349800D01*
X144893800Y-106332919D01*
X144847681Y-106286800D01*
X144830800Y-106223800D01*
X144830800Y-102317387D01*
X144830800Y-102311200D01*
X144769725Y-102004168D01*
X148882500Y-102004168D01*
X148882501Y-102004174D01*
X148882501Y-102010360D01*
X148892845Y-102062369D01*
X148932253Y-102121347D01*
X148991231Y-102160755D01*
X149043239Y-102171100D01*
X150778360Y-102171099D01*
X150830369Y-102160755D01*
X150889347Y-102121347D01*
X150928755Y-102062369D01*
X150939100Y-102010361D01*
X150939099Y-100275240D01*
X150928755Y-100223231D01*
X150889347Y-100164253D01*
X150830369Y-100124845D01*
X150818199Y-100122424D01*
X150818196Y-100122423D01*
X150784429Y-100115707D01*
X150778361Y-100114500D01*
X150772174Y-100114500D01*
X149049431Y-100114500D01*
X149049420Y-100114500D01*
X149043240Y-100114501D01*
X149037172Y-100115707D01*
X149037170Y-100115708D01*
X149003403Y-100122424D01*
X149003402Y-100122424D01*
X148991231Y-100124845D01*
X148980911Y-100131740D01*
X148980910Y-100131741D01*
X148942568Y-100157360D01*
X148942565Y-100157362D01*
X148932253Y-100164253D01*
X148925362Y-100174565D01*
X148925360Y-100174568D01*
X148899740Y-100212911D01*
X148899738Y-100212913D01*
X148892845Y-100223231D01*
X148890424Y-100235399D01*
X148890423Y-100235403D01*
X148883707Y-100269170D01*
X148882500Y-100275239D01*
X148882500Y-100281424D01*
X148882500Y-100281425D01*
X148882500Y-102004168D01*
X144769725Y-102004168D01*
X144699320Y-101650230D01*
X144324910Y-101089890D01*
X143764570Y-100715480D01*
X143752402Y-100713059D01*
X143752401Y-100713059D01*
X143109666Y-100585206D01*
X143109659Y-100585205D01*
X143103600Y-100584000D01*
X143097413Y-100584000D01*
X134683211Y-100584000D01*
X134658629Y-100581579D01*
X134170490Y-100484479D01*
X134125071Y-100465666D01*
X133721770Y-100196194D01*
X133687005Y-100161429D01*
X133416726Y-99756920D01*
X133398490Y-99714240D01*
X133376319Y-99614425D01*
X133289118Y-99221832D01*
X133286120Y-99194511D01*
X133286120Y-98501200D01*
X142113910Y-98501200D01*
X142114988Y-98509388D01*
X142132706Y-98643978D01*
X142132707Y-98643984D01*
X142133785Y-98652167D01*
X142136944Y-98659795D01*
X142136945Y-98659796D01*
X142188895Y-98785215D01*
X142188896Y-98785218D01*
X142192056Y-98792845D01*
X142197083Y-98799396D01*
X142197084Y-98799398D01*
X142205453Y-98810304D01*
X142284752Y-98913648D01*
X142405555Y-99006344D01*
X142546233Y-99064615D01*
X142697200Y-99084490D01*
X142848167Y-99064615D01*
X142988845Y-99006344D01*
X143109648Y-98913648D01*
X143202344Y-98792845D01*
X143260615Y-98652167D01*
X143267114Y-98602800D01*
X148877524Y-98602800D01*
X148897378Y-98804382D01*
X148899173Y-98810300D01*
X148899174Y-98810304D01*
X148954380Y-98992295D01*
X148956177Y-98998218D01*
X149051662Y-99176857D01*
X149180164Y-99333436D01*
X149336743Y-99461938D01*
X149515382Y-99557423D01*
X149709218Y-99616222D01*
X149910800Y-99636076D01*
X150112382Y-99616222D01*
X150306218Y-99557423D01*
X150484857Y-99461938D01*
X150641436Y-99333436D01*
X150769938Y-99176857D01*
X150865423Y-98998218D01*
X150924222Y-98804382D01*
X150944076Y-98602800D01*
X150924222Y-98401218D01*
X150865423Y-98207382D01*
X150769938Y-98028743D01*
X150641436Y-97872164D01*
X150484857Y-97743662D01*
X150306218Y-97648177D01*
X150300297Y-97646381D01*
X150300295Y-97646380D01*
X150118304Y-97591174D01*
X150118300Y-97591173D01*
X150112382Y-97589378D01*
X149910800Y-97569524D01*
X149904637Y-97570131D01*
X149715380Y-97588771D01*
X149715379Y-97588771D01*
X149709218Y-97589378D01*
X149703301Y-97591172D01*
X149703295Y-97591174D01*
X149521304Y-97646380D01*
X149521298Y-97646382D01*
X149515382Y-97648177D01*
X149509924Y-97651094D01*
X149509920Y-97651096D01*
X149342202Y-97740744D01*
X149336743Y-97743662D01*
X149331964Y-97747583D01*
X149331958Y-97747588D01*
X149184943Y-97868241D01*
X149184937Y-97868246D01*
X149180164Y-97872164D01*
X149176246Y-97876937D01*
X149176241Y-97876943D01*
X149055588Y-98023958D01*
X149055583Y-98023964D01*
X149051662Y-98028743D01*
X149048744Y-98034201D01*
X149048744Y-98034202D01*
X148959096Y-98201920D01*
X148959094Y-98201924D01*
X148956177Y-98207382D01*
X148954382Y-98213298D01*
X148954380Y-98213304D01*
X148899174Y-98395295D01*
X148899172Y-98395301D01*
X148897378Y-98401218D01*
X148877524Y-98602800D01*
X143267114Y-98602800D01*
X143280490Y-98501200D01*
X143260615Y-98350233D01*
X143202344Y-98209555D01*
X143196485Y-98201920D01*
X143114674Y-98095302D01*
X143109648Y-98088752D01*
X143038558Y-98034202D01*
X142995398Y-98001084D01*
X142995396Y-98001083D01*
X142988845Y-97996056D01*
X142981218Y-97992896D01*
X142981215Y-97992895D01*
X142855796Y-97940945D01*
X142855795Y-97940944D01*
X142848167Y-97937785D01*
X142839984Y-97936707D01*
X142839978Y-97936706D01*
X142705388Y-97918988D01*
X142697200Y-97917910D01*
X142689012Y-97918988D01*
X142554421Y-97936706D01*
X142554413Y-97936708D01*
X142546233Y-97937785D01*
X142538606Y-97940944D01*
X142538603Y-97940945D01*
X142413184Y-97992895D01*
X142413178Y-97992898D01*
X142405555Y-97996056D01*
X142399006Y-98001080D01*
X142399001Y-98001084D01*
X142291302Y-98083725D01*
X142291297Y-98083729D01*
X142284752Y-98088752D01*
X142279729Y-98095297D01*
X142279725Y-98095302D01*
X142197084Y-98203001D01*
X142197080Y-98203006D01*
X142192056Y-98209555D01*
X142188898Y-98217178D01*
X142188895Y-98217184D01*
X142136945Y-98342603D01*
X142133785Y-98350233D01*
X142132708Y-98358413D01*
X142132706Y-98358421D01*
X142115632Y-98488113D01*
X142113910Y-98501200D01*
X133286120Y-98501200D01*
X133286120Y-96337135D01*
X133303001Y-96274135D01*
X133349120Y-96228016D01*
X133412120Y-96211135D01*
X149402740Y-96211135D01*
X149415120Y-96211135D01*
X154076400Y-91567000D01*
X154081045Y-86140176D01*
X154100203Y-86073499D01*
X154151755Y-86027067D01*
X154220070Y-86014963D01*
X154284436Y-86040856D01*
X154393788Y-86125968D01*
X154402481Y-86131647D01*
X154591242Y-86233800D01*
X154600759Y-86237975D01*
X154803757Y-86307664D01*
X154813827Y-86310214D01*
X154875661Y-86320532D01*
X154886798Y-86319956D01*
X154889200Y-86309064D01*
X155397200Y-86309064D01*
X155399601Y-86319956D01*
X155410738Y-86320532D01*
X155472572Y-86310214D01*
X155482642Y-86307664D01*
X155685640Y-86237975D01*
X155695157Y-86233800D01*
X155883918Y-86131647D01*
X155892611Y-86125968D01*
X156061988Y-85994137D01*
X156069632Y-85987100D01*
X156214989Y-85829199D01*
X156221377Y-85820993D01*
X156338768Y-85641313D01*
X156343711Y-85632178D01*
X156429929Y-85435623D01*
X156433299Y-85425808D01*
X156476213Y-85256343D01*
X156476448Y-85244965D01*
X156465360Y-85242400D01*
X155413790Y-85242400D01*
X155400706Y-85245906D01*
X155397200Y-85258990D01*
X155397200Y-86309064D01*
X154889200Y-86309064D01*
X154889200Y-84717810D01*
X155397200Y-84717810D01*
X155400706Y-84730893D01*
X155413790Y-84734400D01*
X156465360Y-84734400D01*
X156476448Y-84731834D01*
X156476213Y-84720456D01*
X156433299Y-84550991D01*
X156429929Y-84541176D01*
X156343711Y-84344621D01*
X156338768Y-84335486D01*
X156221377Y-84155806D01*
X156214989Y-84147600D01*
X156069632Y-83989699D01*
X156061988Y-83982662D01*
X155892611Y-83850831D01*
X155883918Y-83845152D01*
X155854467Y-83829214D01*
X155806195Y-83782898D01*
X155788436Y-83718400D01*
X155806195Y-83653902D01*
X155854467Y-83607586D01*
X155883918Y-83591647D01*
X155892611Y-83585968D01*
X156061988Y-83454137D01*
X156069632Y-83447100D01*
X156214989Y-83289199D01*
X156221377Y-83280993D01*
X156338768Y-83101313D01*
X156343711Y-83092178D01*
X156429929Y-82895623D01*
X156433299Y-82885808D01*
X156476213Y-82716343D01*
X156476448Y-82704965D01*
X156465360Y-82702400D01*
X155413790Y-82702400D01*
X155400706Y-82705906D01*
X155397200Y-82718990D01*
X155397200Y-84717810D01*
X154889200Y-84717810D01*
X154889200Y-82320400D01*
X154906081Y-82257400D01*
X154952200Y-82211281D01*
X155015200Y-82194400D01*
X156465360Y-82194400D01*
X156476448Y-82191834D01*
X156476213Y-82180456D01*
X156433299Y-82010991D01*
X156429929Y-82001176D01*
X156343711Y-81804621D01*
X156338768Y-81795486D01*
X156221377Y-81615806D01*
X156214994Y-81607607D01*
X156201759Y-81593229D01*
X156173407Y-81542849D01*
X156170537Y-81485112D01*
X156193753Y-81432169D01*
X156238168Y-81395166D01*
X156294426Y-81381893D01*
X157503286Y-81381612D01*
X157551519Y-81391198D01*
G37*
%TD.AperFunction*%
%TD*%
%TA.AperFunction,Conductor*%
%TO.N,VDD*%
G36*
X162572541Y-86398648D02*
G01*
X170320395Y-94146502D01*
X170347709Y-94187379D01*
X170357300Y-94235597D01*
X170357300Y-119505403D01*
X170347709Y-119553621D01*
X170320395Y-119594498D01*
X152411297Y-137503595D01*
X152370420Y-137530909D01*
X152322202Y-137540500D01*
X127001597Y-137540500D01*
X126953379Y-137530909D01*
X126912502Y-137503595D01*
X125882918Y-136474011D01*
X135421700Y-136474011D01*
X135422094Y-136477511D01*
X135422095Y-136477522D01*
X135435620Y-136597555D01*
X135436412Y-136604584D01*
X135438747Y-136611257D01*
X135438748Y-136611261D01*
X135492001Y-136763449D01*
X135492003Y-136763453D01*
X135494339Y-136770129D01*
X135587650Y-136918633D01*
X135711667Y-137042650D01*
X135860171Y-137135961D01*
X136025716Y-137193888D01*
X136200000Y-137213525D01*
X136374284Y-137193888D01*
X136539829Y-137135961D01*
X136688333Y-137042650D01*
X136812350Y-136918633D01*
X136905661Y-136770129D01*
X136963588Y-136604584D01*
X136978300Y-136474011D01*
X142421700Y-136474011D01*
X142422094Y-136477511D01*
X142422095Y-136477522D01*
X142435620Y-136597555D01*
X142436412Y-136604584D01*
X142438747Y-136611257D01*
X142438748Y-136611261D01*
X142492001Y-136763449D01*
X142492003Y-136763453D01*
X142494339Y-136770129D01*
X142587650Y-136918633D01*
X142711667Y-137042650D01*
X142860171Y-137135961D01*
X143025716Y-137193888D01*
X143200000Y-137213525D01*
X143374284Y-137193888D01*
X143539829Y-137135961D01*
X143688333Y-137042650D01*
X143812350Y-136918633D01*
X143905661Y-136770129D01*
X143963588Y-136604584D01*
X143978300Y-136474011D01*
X143978300Y-135686589D01*
X143963588Y-135556016D01*
X143905661Y-135390471D01*
X143812350Y-135241967D01*
X143688333Y-135117950D01*
X143682339Y-135114184D01*
X143682337Y-135114182D01*
X143545820Y-135028403D01*
X143545817Y-135028401D01*
X143539829Y-135024639D01*
X143533153Y-135022303D01*
X143533149Y-135022301D01*
X143380961Y-134969048D01*
X143380957Y-134969047D01*
X143374284Y-134966712D01*
X143200000Y-134947075D01*
X143192971Y-134947867D01*
X143032744Y-134965920D01*
X143032742Y-134965920D01*
X143025716Y-134966712D01*
X143019044Y-134969046D01*
X143019038Y-134969048D01*
X142866850Y-135022301D01*
X142866843Y-135022304D01*
X142860171Y-135024639D01*
X142854185Y-135028399D01*
X142854179Y-135028403D01*
X142717662Y-135114182D01*
X142717655Y-135114187D01*
X142711667Y-135117950D01*
X142706662Y-135122954D01*
X142706658Y-135122958D01*
X142592658Y-135236958D01*
X142592654Y-135236962D01*
X142587650Y-135241967D01*
X142583887Y-135247955D01*
X142583882Y-135247962D01*
X142498103Y-135384479D01*
X142498099Y-135384485D01*
X142494339Y-135390471D01*
X142492004Y-135397143D01*
X142492001Y-135397150D01*
X142438748Y-135549338D01*
X142438746Y-135549344D01*
X142436412Y-135556016D01*
X142435620Y-135563042D01*
X142435620Y-135563044D01*
X142422095Y-135683077D01*
X142422094Y-135683089D01*
X142421700Y-135686589D01*
X142421700Y-136474011D01*
X136978300Y-136474011D01*
X136978300Y-135686589D01*
X136963588Y-135556016D01*
X136905661Y-135390471D01*
X136812350Y-135241967D01*
X136688333Y-135117950D01*
X136682339Y-135114184D01*
X136682337Y-135114182D01*
X136545820Y-135028403D01*
X136545817Y-135028401D01*
X136539829Y-135024639D01*
X136533153Y-135022303D01*
X136533149Y-135022301D01*
X136380961Y-134969048D01*
X136380957Y-134969047D01*
X136374284Y-134966712D01*
X136200000Y-134947075D01*
X136192971Y-134947867D01*
X136032744Y-134965920D01*
X136032742Y-134965920D01*
X136025716Y-134966712D01*
X136019044Y-134969046D01*
X136019038Y-134969048D01*
X135866850Y-135022301D01*
X135866843Y-135022304D01*
X135860171Y-135024639D01*
X135854185Y-135028399D01*
X135854179Y-135028403D01*
X135717662Y-135114182D01*
X135717655Y-135114187D01*
X135711667Y-135117950D01*
X135706662Y-135122954D01*
X135706658Y-135122958D01*
X135592658Y-135236958D01*
X135592654Y-135236962D01*
X135587650Y-135241967D01*
X135583887Y-135247955D01*
X135583882Y-135247962D01*
X135498103Y-135384479D01*
X135498099Y-135384485D01*
X135494339Y-135390471D01*
X135492004Y-135397143D01*
X135492001Y-135397150D01*
X135438748Y-135549338D01*
X135438746Y-135549344D01*
X135436412Y-135556016D01*
X135435620Y-135563042D01*
X135435620Y-135563044D01*
X135422095Y-135683077D01*
X135422094Y-135683089D01*
X135421700Y-135686589D01*
X135421700Y-136474011D01*
X125882918Y-136474011D01*
X122789208Y-133380300D01*
X136291724Y-133380300D01*
X136311572Y-133569141D01*
X136313611Y-133575418D01*
X136313612Y-133575420D01*
X136368206Y-133743444D01*
X136368209Y-133743451D01*
X136370249Y-133749729D01*
X136465189Y-133914171D01*
X136592245Y-134055281D01*
X136745862Y-134166890D01*
X136919327Y-134244122D01*
X137105059Y-134283600D01*
X137288338Y-134283600D01*
X137294941Y-134283600D01*
X137480673Y-134244122D01*
X137654138Y-134166890D01*
X137807755Y-134055281D01*
X137934811Y-133914171D01*
X138029751Y-133749729D01*
X138088428Y-133569141D01*
X138108276Y-133380300D01*
X141291724Y-133380300D01*
X141311572Y-133569141D01*
X141313611Y-133575418D01*
X141313612Y-133575420D01*
X141368206Y-133743444D01*
X141368209Y-133743451D01*
X141370249Y-133749729D01*
X141465189Y-133914171D01*
X141592245Y-134055281D01*
X141745862Y-134166890D01*
X141919327Y-134244122D01*
X142105059Y-134283600D01*
X142288338Y-134283600D01*
X142294941Y-134283600D01*
X142480673Y-134244122D01*
X142654138Y-134166890D01*
X142807755Y-134055281D01*
X142934811Y-133914171D01*
X143029751Y-133749729D01*
X143088428Y-133569141D01*
X143108276Y-133380300D01*
X143088428Y-133191459D01*
X143029751Y-133010871D01*
X142934811Y-132846429D01*
X142807755Y-132705319D01*
X142654138Y-132593710D01*
X142480673Y-132516478D01*
X142474220Y-132515106D01*
X142474216Y-132515105D01*
X142301398Y-132478372D01*
X142301393Y-132478371D01*
X142294941Y-132477000D01*
X142105059Y-132477000D01*
X142098607Y-132478371D01*
X142098601Y-132478372D01*
X141925783Y-132515105D01*
X141925776Y-132515107D01*
X141919327Y-132516478D01*
X141913297Y-132519162D01*
X141913296Y-132519163D01*
X141751892Y-132591025D01*
X141751890Y-132591026D01*
X141745862Y-132593710D01*
X141740521Y-132597590D01*
X141740520Y-132597591D01*
X141597589Y-132701436D01*
X141597586Y-132701437D01*
X141592245Y-132705319D01*
X141587828Y-132710224D01*
X141587823Y-132710229D01*
X141469608Y-132841521D01*
X141465189Y-132846429D01*
X141461890Y-132852142D01*
X141461887Y-132852147D01*
X141373553Y-133005147D01*
X141373550Y-133005152D01*
X141370249Y-133010871D01*
X141368210Y-133017145D01*
X141368206Y-133017155D01*
X141313612Y-133185179D01*
X141313611Y-133185183D01*
X141311572Y-133191459D01*
X141291724Y-133380300D01*
X138108276Y-133380300D01*
X138088428Y-133191459D01*
X138029751Y-133010871D01*
X137934811Y-132846429D01*
X137807755Y-132705319D01*
X137654138Y-132593710D01*
X137480673Y-132516478D01*
X137474220Y-132515106D01*
X137474216Y-132515105D01*
X137301398Y-132478372D01*
X137301393Y-132478371D01*
X137294941Y-132477000D01*
X137105059Y-132477000D01*
X137098607Y-132478371D01*
X137098601Y-132478372D01*
X136925783Y-132515105D01*
X136925776Y-132515107D01*
X136919327Y-132516478D01*
X136913297Y-132519162D01*
X136913296Y-132519163D01*
X136751892Y-132591025D01*
X136751890Y-132591026D01*
X136745862Y-132593710D01*
X136740521Y-132597590D01*
X136740520Y-132597591D01*
X136597589Y-132701436D01*
X136597586Y-132701437D01*
X136592245Y-132705319D01*
X136587828Y-132710224D01*
X136587823Y-132710229D01*
X136469608Y-132841521D01*
X136465189Y-132846429D01*
X136461890Y-132852142D01*
X136461887Y-132852147D01*
X136373553Y-133005147D01*
X136373550Y-133005152D01*
X136370249Y-133010871D01*
X136368210Y-133017145D01*
X136368206Y-133017155D01*
X136313612Y-133185179D01*
X136313611Y-133185183D01*
X136311572Y-133191459D01*
X136291724Y-133380300D01*
X122789208Y-133380300D01*
X120828508Y-131419600D01*
X137821310Y-131419600D01*
X137822388Y-131427788D01*
X137840106Y-131562378D01*
X137840107Y-131562384D01*
X137841185Y-131570567D01*
X137844344Y-131578195D01*
X137844345Y-131578196D01*
X137896295Y-131703615D01*
X137896296Y-131703618D01*
X137899456Y-131711245D01*
X137904483Y-131717796D01*
X137904484Y-131717798D01*
X137925380Y-131745030D01*
X137992152Y-131832048D01*
X138112955Y-131924744D01*
X138253633Y-131983015D01*
X138404600Y-132002890D01*
X138555567Y-131983015D01*
X138696245Y-131924744D01*
X138791828Y-131851400D01*
X140158110Y-131851400D01*
X140159188Y-131859588D01*
X140176906Y-131994178D01*
X140176907Y-131994184D01*
X140177985Y-132002367D01*
X140181144Y-132009995D01*
X140181145Y-132009996D01*
X140233095Y-132135415D01*
X140233096Y-132135418D01*
X140236256Y-132143045D01*
X140328952Y-132263848D01*
X140449755Y-132356544D01*
X140590433Y-132414815D01*
X140741400Y-132434690D01*
X140892367Y-132414815D01*
X141033045Y-132356544D01*
X141153848Y-132263848D01*
X141246544Y-132143045D01*
X141304815Y-132002367D01*
X141324690Y-131851400D01*
X141304815Y-131700433D01*
X141246544Y-131559755D01*
X141153848Y-131438952D01*
X141128628Y-131419600D01*
X141039598Y-131351284D01*
X141039596Y-131351283D01*
X141033045Y-131346256D01*
X141025418Y-131343096D01*
X141025415Y-131343095D01*
X140899996Y-131291145D01*
X140899995Y-131291144D01*
X140892367Y-131287985D01*
X140884184Y-131286907D01*
X140884178Y-131286906D01*
X140749588Y-131269188D01*
X140741400Y-131268110D01*
X140733212Y-131269188D01*
X140598621Y-131286906D01*
X140598613Y-131286908D01*
X140590433Y-131287985D01*
X140582806Y-131291144D01*
X140582803Y-131291145D01*
X140457384Y-131343095D01*
X140457378Y-131343098D01*
X140449755Y-131346256D01*
X140443206Y-131351280D01*
X140443201Y-131351284D01*
X140335502Y-131433925D01*
X140335497Y-131433929D01*
X140328952Y-131438952D01*
X140323929Y-131445497D01*
X140323925Y-131445502D01*
X140241284Y-131553201D01*
X140241280Y-131553206D01*
X140236256Y-131559755D01*
X140233098Y-131567378D01*
X140233095Y-131567384D01*
X140181145Y-131692803D01*
X140177985Y-131700433D01*
X140176908Y-131708613D01*
X140176906Y-131708621D01*
X140161520Y-131825497D01*
X140158110Y-131851400D01*
X138791828Y-131851400D01*
X138817048Y-131832048D01*
X138909744Y-131711245D01*
X138968015Y-131570567D01*
X138987890Y-131419600D01*
X138968015Y-131268633D01*
X138909744Y-131127955D01*
X138900765Y-131116254D01*
X138822074Y-131013702D01*
X138817048Y-131007152D01*
X138810497Y-131002125D01*
X138702798Y-130919484D01*
X138702796Y-130919483D01*
X138696245Y-130914456D01*
X138688618Y-130911296D01*
X138688615Y-130911295D01*
X138563196Y-130859345D01*
X138563195Y-130859344D01*
X138555567Y-130856185D01*
X138547384Y-130855107D01*
X138547378Y-130855106D01*
X138412788Y-130837388D01*
X138404600Y-130836310D01*
X138396412Y-130837388D01*
X138261821Y-130855106D01*
X138261813Y-130855108D01*
X138253633Y-130856185D01*
X138246006Y-130859344D01*
X138246003Y-130859345D01*
X138120584Y-130911295D01*
X138120578Y-130911298D01*
X138112955Y-130914456D01*
X138106406Y-130919480D01*
X138106401Y-130919484D01*
X137998702Y-131002125D01*
X137998697Y-131002129D01*
X137992152Y-131007152D01*
X137987129Y-131013697D01*
X137987125Y-131013702D01*
X137904484Y-131121401D01*
X137904480Y-131121406D01*
X137899456Y-131127955D01*
X137896298Y-131135578D01*
X137896295Y-131135584D01*
X137844345Y-131261003D01*
X137841185Y-131268633D01*
X137840108Y-131276813D01*
X137840106Y-131276821D01*
X137823032Y-131406513D01*
X137821310Y-131419600D01*
X120828508Y-131419600D01*
X119837908Y-130429000D01*
X131877710Y-130429000D01*
X131878788Y-130437188D01*
X131896506Y-130571778D01*
X131896507Y-130571784D01*
X131897585Y-130579967D01*
X131900744Y-130587595D01*
X131900745Y-130587596D01*
X131952695Y-130713015D01*
X131952696Y-130713018D01*
X131955856Y-130720645D01*
X132048552Y-130841448D01*
X132169355Y-130934144D01*
X132310033Y-130992415D01*
X132461000Y-131012290D01*
X132611967Y-130992415D01*
X132752645Y-130934144D01*
X132873448Y-130841448D01*
X132966144Y-130720645D01*
X133024415Y-130579967D01*
X133027570Y-130556000D01*
X150216510Y-130556000D01*
X150217588Y-130564188D01*
X150235306Y-130698778D01*
X150235307Y-130698784D01*
X150236385Y-130706967D01*
X150239544Y-130714595D01*
X150239545Y-130714596D01*
X150291495Y-130840015D01*
X150291496Y-130840018D01*
X150294656Y-130847645D01*
X150299683Y-130854196D01*
X150299684Y-130854198D01*
X150361029Y-130934144D01*
X150387352Y-130968448D01*
X150508155Y-131061144D01*
X150648833Y-131119415D01*
X150799800Y-131139290D01*
X150950767Y-131119415D01*
X151091445Y-131061144D01*
X151212248Y-130968448D01*
X151304944Y-130847645D01*
X151361232Y-130711754D01*
X153827170Y-130711754D01*
X153847024Y-130913336D01*
X153848819Y-130919254D01*
X153848820Y-130919258D01*
X153892819Y-131064304D01*
X153905823Y-131107172D01*
X154001308Y-131285811D01*
X154005233Y-131290593D01*
X154005234Y-131290595D01*
X154117826Y-131427788D01*
X154129810Y-131442390D01*
X154286389Y-131570892D01*
X154465028Y-131666377D01*
X154658864Y-131725176D01*
X154860446Y-131745030D01*
X155062028Y-131725176D01*
X155255864Y-131666377D01*
X155434503Y-131570892D01*
X155591082Y-131442390D01*
X155719584Y-131285811D01*
X155815069Y-131107172D01*
X155873868Y-130913336D01*
X155893722Y-130711754D01*
X155873868Y-130510172D01*
X155815069Y-130316336D01*
X155790015Y-130269465D01*
X155778152Y-130247269D01*
X155763301Y-130185269D01*
X155780701Y-130123935D01*
X155825899Y-130078971D01*
X155887321Y-130061888D01*
X155949244Y-130077059D01*
X156104546Y-130161105D01*
X156114057Y-130165277D01*
X156317055Y-130234966D01*
X156327125Y-130237516D01*
X156388959Y-130247834D01*
X156400096Y-130247258D01*
X156402498Y-130236366D01*
X156910498Y-130236366D01*
X156912899Y-130247258D01*
X156924036Y-130247834D01*
X156985870Y-130237516D01*
X156995940Y-130234966D01*
X157198938Y-130165277D01*
X157208455Y-130161102D01*
X157397216Y-130058949D01*
X157405909Y-130053270D01*
X157575286Y-129921439D01*
X157582930Y-129914402D01*
X157728287Y-129756501D01*
X157734675Y-129748295D01*
X157852066Y-129568615D01*
X157857009Y-129559480D01*
X157943227Y-129362925D01*
X157946597Y-129353110D01*
X157989511Y-129183645D01*
X157989746Y-129172267D01*
X157978658Y-129169702D01*
X156927088Y-129169702D01*
X156914004Y-129173208D01*
X156910498Y-129186292D01*
X156910498Y-130236366D01*
X156402498Y-130236366D01*
X156402498Y-129186292D01*
X156398991Y-129173208D01*
X156385908Y-129169702D01*
X155334338Y-129169702D01*
X155323249Y-129172267D01*
X155323484Y-129183645D01*
X155366398Y-129353110D01*
X155369768Y-129362925D01*
X155455986Y-129559480D01*
X155460932Y-129568621D01*
X155491004Y-129614649D01*
X155511359Y-129677186D01*
X155497431Y-129741462D01*
X155453013Y-129789963D01*
X155390208Y-129809477D01*
X155326125Y-129794686D01*
X155261325Y-129760050D01*
X155255864Y-129757131D01*
X155249943Y-129755335D01*
X155249941Y-129755334D01*
X155067950Y-129700128D01*
X155067946Y-129700127D01*
X155062028Y-129698332D01*
X154860446Y-129678478D01*
X154854283Y-129679085D01*
X154665026Y-129697725D01*
X154665025Y-129697725D01*
X154658864Y-129698332D01*
X154652947Y-129700126D01*
X154652941Y-129700128D01*
X154470950Y-129755334D01*
X154470944Y-129755336D01*
X154465028Y-129757131D01*
X154459570Y-129760048D01*
X154459566Y-129760050D01*
X154299309Y-129845710D01*
X154286389Y-129852616D01*
X154281610Y-129856537D01*
X154281604Y-129856542D01*
X154134589Y-129977195D01*
X154134583Y-129977200D01*
X154129810Y-129981118D01*
X154125892Y-129985891D01*
X154125887Y-129985897D01*
X154005234Y-130132912D01*
X154005229Y-130132918D01*
X154001308Y-130137697D01*
X153998390Y-130143155D01*
X153998390Y-130143156D01*
X153908742Y-130310874D01*
X153908740Y-130310878D01*
X153905823Y-130316336D01*
X153904028Y-130322252D01*
X153904026Y-130322258D01*
X153848820Y-130504249D01*
X153848818Y-130504255D01*
X153847024Y-130510172D01*
X153827170Y-130711754D01*
X151361232Y-130711754D01*
X151363215Y-130706967D01*
X151383090Y-130556000D01*
X151363215Y-130405033D01*
X151304944Y-130264355D01*
X151212248Y-130143552D01*
X151128085Y-130078971D01*
X151097998Y-130055884D01*
X151097996Y-130055883D01*
X151091445Y-130050856D01*
X151083818Y-130047696D01*
X151083815Y-130047695D01*
X150958396Y-129995745D01*
X150958395Y-129995744D01*
X150950767Y-129992585D01*
X150942584Y-129991507D01*
X150942578Y-129991506D01*
X150807988Y-129973788D01*
X150799800Y-129972710D01*
X150791612Y-129973788D01*
X150657021Y-129991506D01*
X150657013Y-129991508D01*
X150648833Y-129992585D01*
X150641206Y-129995744D01*
X150641203Y-129995745D01*
X150515784Y-130047695D01*
X150515778Y-130047698D01*
X150508155Y-130050856D01*
X150501606Y-130055880D01*
X150501601Y-130055884D01*
X150393902Y-130138525D01*
X150393897Y-130138529D01*
X150387352Y-130143552D01*
X150382329Y-130150097D01*
X150382325Y-130150102D01*
X150299684Y-130257801D01*
X150299680Y-130257806D01*
X150294656Y-130264355D01*
X150291498Y-130271978D01*
X150291495Y-130271984D01*
X150239545Y-130397403D01*
X150236385Y-130405033D01*
X150235308Y-130413213D01*
X150235306Y-130413221D01*
X150223323Y-130504249D01*
X150216510Y-130556000D01*
X133027570Y-130556000D01*
X133044290Y-130429000D01*
X133024415Y-130278033D01*
X132966144Y-130137355D01*
X132873448Y-130016552D01*
X132827270Y-129981118D01*
X132759198Y-129928884D01*
X132759196Y-129928883D01*
X132752645Y-129923856D01*
X132745018Y-129920696D01*
X132745015Y-129920695D01*
X132619596Y-129868745D01*
X132619595Y-129868744D01*
X132611967Y-129865585D01*
X132603784Y-129864507D01*
X132603778Y-129864506D01*
X132469188Y-129846788D01*
X132461000Y-129845710D01*
X132452812Y-129846788D01*
X132318221Y-129864506D01*
X132318213Y-129864508D01*
X132310033Y-129865585D01*
X132302406Y-129868744D01*
X132302403Y-129868745D01*
X132176984Y-129920695D01*
X132176978Y-129920698D01*
X132169355Y-129923856D01*
X132162806Y-129928880D01*
X132162801Y-129928884D01*
X132055102Y-130011525D01*
X132055097Y-130011529D01*
X132048552Y-130016552D01*
X132043529Y-130023097D01*
X132043525Y-130023102D01*
X131960884Y-130130801D01*
X131960880Y-130130806D01*
X131955856Y-130137355D01*
X131952698Y-130144978D01*
X131952695Y-130144984D01*
X131900745Y-130270403D01*
X131897585Y-130278033D01*
X131896508Y-130286213D01*
X131896506Y-130286221D01*
X131881870Y-130397403D01*
X131877710Y-130429000D01*
X119837908Y-130429000D01*
X118059908Y-128651000D01*
X138380110Y-128651000D01*
X138381188Y-128659188D01*
X138398906Y-128793778D01*
X138398907Y-128793784D01*
X138399985Y-128801967D01*
X138403144Y-128809595D01*
X138403145Y-128809596D01*
X138455095Y-128935015D01*
X138455096Y-128935018D01*
X138458256Y-128942645D01*
X138550952Y-129063448D01*
X138671755Y-129156144D01*
X138812433Y-129214415D01*
X138963400Y-129234290D01*
X139114367Y-129214415D01*
X139255045Y-129156144D01*
X139375848Y-129063448D01*
X139468544Y-128942645D01*
X139526815Y-128801967D01*
X139545619Y-128659136D01*
X155323249Y-128659136D01*
X155334338Y-128661702D01*
X156385908Y-128661702D01*
X156398991Y-128658195D01*
X156402498Y-128645112D01*
X156910498Y-128645112D01*
X156914004Y-128658195D01*
X156927088Y-128661702D01*
X157978658Y-128661702D01*
X157989746Y-128659136D01*
X157989511Y-128647758D01*
X157946597Y-128478293D01*
X157943227Y-128468478D01*
X157857009Y-128271923D01*
X157852061Y-128262780D01*
X157821993Y-128216757D01*
X157801637Y-128154219D01*
X157815565Y-128089944D01*
X157859983Y-128041442D01*
X157922789Y-128021928D01*
X157986870Y-128036718D01*
X158057131Y-128074274D01*
X158250967Y-128133073D01*
X158452549Y-128152927D01*
X158654131Y-128133073D01*
X158847967Y-128074274D01*
X159026606Y-127978789D01*
X159183185Y-127850287D01*
X159311687Y-127693708D01*
X159407172Y-127515069D01*
X159465971Y-127321233D01*
X159485825Y-127119651D01*
X159465971Y-126918069D01*
X159407172Y-126724233D01*
X159311687Y-126545594D01*
X159183185Y-126389015D01*
X159120798Y-126337815D01*
X159031390Y-126264439D01*
X159031388Y-126264438D01*
X159026606Y-126260513D01*
X158847967Y-126165028D01*
X158842046Y-126163232D01*
X158842044Y-126163231D01*
X158660053Y-126108025D01*
X158660049Y-126108024D01*
X158654131Y-126106229D01*
X158452549Y-126086375D01*
X158446386Y-126086982D01*
X158257129Y-126105622D01*
X158257128Y-126105622D01*
X158250967Y-126106229D01*
X158245050Y-126108023D01*
X158245044Y-126108025D01*
X158063053Y-126163231D01*
X158063047Y-126163233D01*
X158057131Y-126165028D01*
X158051673Y-126167945D01*
X158051669Y-126167947D01*
X157883951Y-126257595D01*
X157878492Y-126260513D01*
X157873713Y-126264434D01*
X157873707Y-126264439D01*
X157726692Y-126385092D01*
X157726686Y-126385097D01*
X157721913Y-126389015D01*
X157717995Y-126393788D01*
X157717990Y-126393794D01*
X157597337Y-126540809D01*
X157597332Y-126540815D01*
X157593411Y-126545594D01*
X157590493Y-126551052D01*
X157590493Y-126551053D01*
X157500845Y-126718771D01*
X157500843Y-126718775D01*
X157497926Y-126724233D01*
X157496131Y-126730149D01*
X157496129Y-126730155D01*
X157440923Y-126912146D01*
X157440921Y-126912152D01*
X157439127Y-126918069D01*
X157438520Y-126924230D01*
X157438520Y-126924231D01*
X157432569Y-126984654D01*
X157419273Y-127119651D01*
X157439127Y-127321233D01*
X157497926Y-127515069D01*
X157500844Y-127520529D01*
X157500847Y-127520535D01*
X157534841Y-127584134D01*
X157549692Y-127646134D01*
X157532291Y-127707467D01*
X157487094Y-127752431D01*
X157425672Y-127769514D01*
X157363749Y-127754343D01*
X157208449Y-127670298D01*
X157198938Y-127666126D01*
X156995940Y-127596437D01*
X156985870Y-127593887D01*
X156924036Y-127583569D01*
X156912899Y-127584145D01*
X156910498Y-127595038D01*
X156910498Y-128645112D01*
X156402498Y-128645112D01*
X156402498Y-127595038D01*
X156400096Y-127584145D01*
X156388959Y-127583569D01*
X156327125Y-127593887D01*
X156317055Y-127596437D01*
X156114057Y-127666126D01*
X156104540Y-127670301D01*
X155915779Y-127772454D01*
X155907086Y-127778133D01*
X155737709Y-127909964D01*
X155730065Y-127917001D01*
X155584708Y-128074902D01*
X155578320Y-128083108D01*
X155460929Y-128262788D01*
X155455986Y-128271923D01*
X155369768Y-128468478D01*
X155366398Y-128478293D01*
X155323484Y-128647758D01*
X155323249Y-128659136D01*
X139545619Y-128659136D01*
X139546690Y-128651000D01*
X139526815Y-128500033D01*
X139468544Y-128359355D01*
X139375848Y-128238552D01*
X139369297Y-128233525D01*
X139261598Y-128150884D01*
X139261596Y-128150883D01*
X139255045Y-128145856D01*
X139247418Y-128142696D01*
X139247415Y-128142695D01*
X139121996Y-128090745D01*
X139121995Y-128090744D01*
X139114367Y-128087585D01*
X139106184Y-128086507D01*
X139106178Y-128086506D01*
X138971588Y-128068788D01*
X138963400Y-128067710D01*
X138955212Y-128068788D01*
X138820621Y-128086506D01*
X138820613Y-128086508D01*
X138812433Y-128087585D01*
X138804806Y-128090744D01*
X138804803Y-128090745D01*
X138679384Y-128142695D01*
X138679378Y-128142698D01*
X138671755Y-128145856D01*
X138665206Y-128150880D01*
X138665201Y-128150884D01*
X138557502Y-128233525D01*
X138557497Y-128233529D01*
X138550952Y-128238552D01*
X138545929Y-128245097D01*
X138545925Y-128245102D01*
X138463284Y-128352801D01*
X138463280Y-128352806D01*
X138458256Y-128359355D01*
X138455098Y-128366978D01*
X138455095Y-128366984D01*
X138408990Y-128478293D01*
X138399985Y-128500033D01*
X138398908Y-128508213D01*
X138398906Y-128508221D01*
X138381832Y-128637913D01*
X138380110Y-128651000D01*
X118059908Y-128651000D01*
X115833308Y-126424400D01*
X138811910Y-126424400D01*
X138812988Y-126432588D01*
X138830706Y-126567178D01*
X138830707Y-126567184D01*
X138831785Y-126575367D01*
X138834944Y-126582995D01*
X138834945Y-126582996D01*
X138886895Y-126708415D01*
X138886896Y-126708418D01*
X138890056Y-126716045D01*
X138982752Y-126836848D01*
X138989302Y-126841874D01*
X139088600Y-126918069D01*
X139103555Y-126929544D01*
X139244233Y-126987815D01*
X139395200Y-127007690D01*
X139546167Y-126987815D01*
X139686845Y-126929544D01*
X139807648Y-126836848D01*
X139900344Y-126716045D01*
X139958615Y-126575367D01*
X139978490Y-126424400D01*
X139958615Y-126273433D01*
X139900344Y-126132755D01*
X139807648Y-126011952D01*
X139801097Y-126006925D01*
X139693398Y-125924284D01*
X139693396Y-125924283D01*
X139686845Y-125919256D01*
X139679218Y-125916096D01*
X139679215Y-125916095D01*
X139553796Y-125864145D01*
X139553795Y-125864144D01*
X139546167Y-125860985D01*
X139537984Y-125859907D01*
X139537978Y-125859906D01*
X139403388Y-125842188D01*
X139395200Y-125841110D01*
X139387012Y-125842188D01*
X139252421Y-125859906D01*
X139252413Y-125859908D01*
X139244233Y-125860985D01*
X139236606Y-125864144D01*
X139236603Y-125864145D01*
X139111184Y-125916095D01*
X139111178Y-125916098D01*
X139103555Y-125919256D01*
X139097006Y-125924280D01*
X139097001Y-125924284D01*
X138989302Y-126006925D01*
X138989297Y-126006929D01*
X138982752Y-126011952D01*
X138977729Y-126018497D01*
X138977725Y-126018502D01*
X138895084Y-126126201D01*
X138895080Y-126126206D01*
X138890056Y-126132755D01*
X138886898Y-126140378D01*
X138886895Y-126140384D01*
X138835510Y-126264439D01*
X138831785Y-126273433D01*
X138830708Y-126281613D01*
X138830706Y-126281621D01*
X138823167Y-126338893D01*
X138811910Y-126424400D01*
X115833308Y-126424400D01*
X115183308Y-125774400D01*
X135205110Y-125774400D01*
X135206188Y-125782588D01*
X135223906Y-125917178D01*
X135223907Y-125917184D01*
X135224985Y-125925367D01*
X135228144Y-125932995D01*
X135228145Y-125932996D01*
X135280095Y-126058415D01*
X135280096Y-126058418D01*
X135283256Y-126066045D01*
X135288283Y-126072596D01*
X135288284Y-126072598D01*
X135370925Y-126180297D01*
X135375952Y-126186848D01*
X135496755Y-126279544D01*
X135637433Y-126337815D01*
X135788400Y-126357690D01*
X135939367Y-126337815D01*
X136080045Y-126279544D01*
X136200848Y-126186848D01*
X136293544Y-126066045D01*
X136351815Y-125925367D01*
X136371690Y-125774400D01*
X136351815Y-125623433D01*
X136293544Y-125482755D01*
X136200848Y-125361952D01*
X136194297Y-125356925D01*
X136150867Y-125323600D01*
X158864726Y-125323600D01*
X158867147Y-125335771D01*
X158876142Y-125380996D01*
X158878564Y-125393169D01*
X158908024Y-125437260D01*
X160134940Y-126664175D01*
X160179031Y-126693636D01*
X160248600Y-126707474D01*
X160318169Y-126693636D01*
X160362260Y-126664176D01*
X161589175Y-125437260D01*
X161618636Y-125393169D01*
X161632474Y-125323600D01*
X161618636Y-125254031D01*
X161589176Y-125209940D01*
X160362260Y-123983025D01*
X160318169Y-123953564D01*
X160305999Y-123951143D01*
X160305996Y-123951142D01*
X160260771Y-123942147D01*
X160248600Y-123939726D01*
X160236429Y-123942147D01*
X160191200Y-123951143D01*
X160191197Y-123951143D01*
X160179031Y-123953564D01*
X160168715Y-123960456D01*
X160168714Y-123960457D01*
X160140084Y-123979586D01*
X160140077Y-123979591D01*
X160134940Y-123983024D01*
X160130566Y-123987397D01*
X160130561Y-123987402D01*
X158912403Y-125205561D01*
X158912398Y-125205566D01*
X158908025Y-125209940D01*
X158904588Y-125215082D01*
X158904586Y-125215086D01*
X158885459Y-125243711D01*
X158885457Y-125243713D01*
X158878564Y-125254031D01*
X158876143Y-125266198D01*
X158876142Y-125266203D01*
X158874535Y-125274284D01*
X158864726Y-125323600D01*
X136150867Y-125323600D01*
X136086598Y-125274284D01*
X136086596Y-125274283D01*
X136080045Y-125269256D01*
X136072418Y-125266096D01*
X136072415Y-125266095D01*
X136050046Y-125256830D01*
X136002453Y-125222251D01*
X135975745Y-125169835D01*
X135975745Y-125111007D01*
X136002453Y-125058591D01*
X136050046Y-125024012D01*
X136130845Y-124990544D01*
X136251648Y-124897848D01*
X136344344Y-124777045D01*
X136402615Y-124636367D01*
X136418966Y-124512171D01*
X139454715Y-124512171D01*
X139455793Y-124520359D01*
X139473511Y-124654949D01*
X139473512Y-124654955D01*
X139474590Y-124663138D01*
X139477749Y-124670766D01*
X139477750Y-124670767D01*
X139529700Y-124796186D01*
X139529701Y-124796189D01*
X139532861Y-124803816D01*
X139537888Y-124810367D01*
X139537889Y-124810369D01*
X139599274Y-124890367D01*
X139625557Y-124924619D01*
X139632107Y-124929645D01*
X139711471Y-124990544D01*
X139746360Y-125017315D01*
X139887038Y-125075586D01*
X140038005Y-125095461D01*
X140188972Y-125075586D01*
X140329650Y-125017315D01*
X140450453Y-124924619D01*
X140543149Y-124803816D01*
X140601420Y-124663138D01*
X140621295Y-124512171D01*
X140601420Y-124361204D01*
X140543149Y-124220526D01*
X140450453Y-124099723D01*
X140415565Y-124072952D01*
X140336203Y-124012055D01*
X140336201Y-124012054D01*
X140329650Y-124007027D01*
X140322023Y-124003867D01*
X140322020Y-124003866D01*
X140196601Y-123951916D01*
X140196600Y-123951915D01*
X140188972Y-123948756D01*
X140180789Y-123947678D01*
X140180783Y-123947677D01*
X140046193Y-123929959D01*
X140038005Y-123928881D01*
X140029817Y-123929959D01*
X139895226Y-123947677D01*
X139895218Y-123947679D01*
X139887038Y-123948756D01*
X139879411Y-123951915D01*
X139879408Y-123951916D01*
X139753989Y-124003866D01*
X139753983Y-124003869D01*
X139746360Y-124007027D01*
X139739811Y-124012051D01*
X139739806Y-124012055D01*
X139632107Y-124094696D01*
X139632102Y-124094700D01*
X139625557Y-124099723D01*
X139620534Y-124106268D01*
X139620530Y-124106273D01*
X139537889Y-124213972D01*
X139537885Y-124213977D01*
X139532861Y-124220526D01*
X139529703Y-124228149D01*
X139529700Y-124228155D01*
X139482287Y-124342621D01*
X139474590Y-124361204D01*
X139473513Y-124369384D01*
X139473511Y-124369392D01*
X139464058Y-124441201D01*
X139454715Y-124512171D01*
X136418966Y-124512171D01*
X136422490Y-124485400D01*
X136402615Y-124334433D01*
X136344344Y-124193755D01*
X136251648Y-124072952D01*
X136172286Y-124012055D01*
X136137398Y-123985284D01*
X136137396Y-123985283D01*
X136130845Y-123980256D01*
X136123218Y-123977096D01*
X136123215Y-123977095D01*
X135997796Y-123925145D01*
X135997795Y-123925144D01*
X135990167Y-123921985D01*
X135981984Y-123920907D01*
X135981978Y-123920906D01*
X135847388Y-123903188D01*
X135839200Y-123902110D01*
X135831012Y-123903188D01*
X135696421Y-123920906D01*
X135696413Y-123920908D01*
X135688233Y-123921985D01*
X135680606Y-123925144D01*
X135680603Y-123925145D01*
X135555184Y-123977095D01*
X135555178Y-123977098D01*
X135547555Y-123980256D01*
X135541006Y-123985280D01*
X135541001Y-123985284D01*
X135433302Y-124067925D01*
X135433297Y-124067929D01*
X135426752Y-124072952D01*
X135421729Y-124079497D01*
X135421725Y-124079502D01*
X135339084Y-124187201D01*
X135339080Y-124187206D01*
X135334056Y-124193755D01*
X135330898Y-124201378D01*
X135330895Y-124201384D01*
X135280966Y-124321925D01*
X135275785Y-124334433D01*
X135274708Y-124342613D01*
X135274706Y-124342621D01*
X135261729Y-124441201D01*
X135255910Y-124485400D01*
X135256988Y-124493588D01*
X135274706Y-124628178D01*
X135274707Y-124628184D01*
X135275785Y-124636367D01*
X135278944Y-124643995D01*
X135278945Y-124643996D01*
X135330895Y-124769415D01*
X135330896Y-124769418D01*
X135334056Y-124777045D01*
X135339083Y-124783596D01*
X135339084Y-124783598D01*
X135421725Y-124891297D01*
X135426752Y-124897848D01*
X135547555Y-124990544D01*
X135577553Y-125002969D01*
X135625145Y-125037546D01*
X135651853Y-125089962D01*
X135651854Y-125148790D01*
X135625147Y-125201207D01*
X135577555Y-125235786D01*
X135504386Y-125266094D01*
X135504379Y-125266097D01*
X135496755Y-125269256D01*
X135490206Y-125274280D01*
X135490201Y-125274284D01*
X135382502Y-125356925D01*
X135382497Y-125356929D01*
X135375952Y-125361952D01*
X135370929Y-125368497D01*
X135370925Y-125368502D01*
X135288284Y-125476201D01*
X135288280Y-125476206D01*
X135283256Y-125482755D01*
X135280098Y-125490378D01*
X135280095Y-125490384D01*
X135228145Y-125615803D01*
X135224985Y-125623433D01*
X135223908Y-125631613D01*
X135223906Y-125631621D01*
X135206832Y-125761313D01*
X135205110Y-125774400D01*
X115183308Y-125774400D01*
X114148308Y-124739400D01*
X131699910Y-124739400D01*
X131700988Y-124747588D01*
X131718706Y-124882178D01*
X131718707Y-124882184D01*
X131719785Y-124890367D01*
X131722944Y-124897995D01*
X131722945Y-124897996D01*
X131774895Y-125023415D01*
X131774896Y-125023418D01*
X131778056Y-125031045D01*
X131783083Y-125037596D01*
X131783084Y-125037598D01*
X131813061Y-125076664D01*
X131870752Y-125151848D01*
X131991555Y-125244544D01*
X132132233Y-125302815D01*
X132283200Y-125322690D01*
X132434167Y-125302815D01*
X132574845Y-125244544D01*
X132695648Y-125151848D01*
X132788344Y-125031045D01*
X132846615Y-124890367D01*
X132866490Y-124739400D01*
X132852926Y-124636367D01*
X132847693Y-124596621D01*
X132847692Y-124596620D01*
X132846615Y-124588433D01*
X132788344Y-124447755D01*
X132695648Y-124326952D01*
X132574845Y-124234256D01*
X132567218Y-124231096D01*
X132567215Y-124231095D01*
X132441796Y-124179145D01*
X132441795Y-124179144D01*
X132434167Y-124175985D01*
X132425984Y-124174907D01*
X132425978Y-124174906D01*
X132291388Y-124157188D01*
X132283200Y-124156110D01*
X132275012Y-124157188D01*
X132140421Y-124174906D01*
X132140413Y-124174908D01*
X132132233Y-124175985D01*
X132124606Y-124179144D01*
X132124603Y-124179145D01*
X131999184Y-124231095D01*
X131999178Y-124231098D01*
X131991555Y-124234256D01*
X131985006Y-124239280D01*
X131985001Y-124239284D01*
X131877302Y-124321925D01*
X131877297Y-124321929D01*
X131870752Y-124326952D01*
X131865729Y-124333497D01*
X131865725Y-124333502D01*
X131783084Y-124441201D01*
X131783080Y-124441206D01*
X131778056Y-124447755D01*
X131774898Y-124455378D01*
X131774895Y-124455384D01*
X131747982Y-124520359D01*
X131719785Y-124588433D01*
X131718708Y-124596613D01*
X131718706Y-124596621D01*
X131701632Y-124726313D01*
X131699910Y-124739400D01*
X114148308Y-124739400D01*
X112497308Y-123088400D01*
X134900310Y-123088400D01*
X134901388Y-123096588D01*
X134919106Y-123231178D01*
X134919107Y-123231184D01*
X134920185Y-123239367D01*
X134923344Y-123246995D01*
X134923345Y-123246996D01*
X134975295Y-123372415D01*
X134975296Y-123372418D01*
X134978456Y-123380045D01*
X134983483Y-123386596D01*
X134983484Y-123386598D01*
X135024107Y-123439538D01*
X135071152Y-123500848D01*
X135191955Y-123593544D01*
X135332633Y-123651815D01*
X135483600Y-123671690D01*
X135634567Y-123651815D01*
X135775245Y-123593544D01*
X135896048Y-123500848D01*
X135988744Y-123380045D01*
X136047015Y-123239367D01*
X136063090Y-123117261D01*
X140115792Y-123117261D01*
X140116870Y-123125449D01*
X140134588Y-123260039D01*
X140134589Y-123260045D01*
X140135667Y-123268228D01*
X140138826Y-123275856D01*
X140138827Y-123275857D01*
X140190777Y-123401276D01*
X140190778Y-123401279D01*
X140193938Y-123408906D01*
X140198965Y-123415457D01*
X140198966Y-123415459D01*
X140281607Y-123523158D01*
X140286634Y-123529709D01*
X140407437Y-123622405D01*
X140548115Y-123680676D01*
X140699082Y-123700551D01*
X140850049Y-123680676D01*
X140990727Y-123622405D01*
X141111530Y-123529709D01*
X141204226Y-123408906D01*
X141262497Y-123268228D01*
X141282372Y-123117261D01*
X141266119Y-122993806D01*
X141274632Y-122929143D01*
X141314338Y-122877398D01*
X141374593Y-122852439D01*
X141476567Y-122839015D01*
X141617245Y-122780744D01*
X141738048Y-122688048D01*
X141820650Y-122580400D01*
X161399724Y-122580400D01*
X161419578Y-122781982D01*
X161421373Y-122787900D01*
X161421374Y-122787904D01*
X161466733Y-122937433D01*
X161478377Y-122975818D01*
X161573862Y-123154457D01*
X161577787Y-123159239D01*
X161577788Y-123159241D01*
X161667232Y-123268228D01*
X161702364Y-123311036D01*
X161858943Y-123439538D01*
X162037582Y-123535023D01*
X162231418Y-123593822D01*
X162433000Y-123613676D01*
X162634582Y-123593822D01*
X162828418Y-123535023D01*
X163007057Y-123439538D01*
X163163636Y-123311036D01*
X163292138Y-123154457D01*
X163387623Y-122975818D01*
X163446422Y-122781982D01*
X163466276Y-122580400D01*
X163446422Y-122378818D01*
X163387623Y-122184982D01*
X163292138Y-122006343D01*
X163163636Y-121849764D01*
X163007057Y-121721262D01*
X162828418Y-121625777D01*
X162822497Y-121623981D01*
X162822495Y-121623980D01*
X162640504Y-121568774D01*
X162640500Y-121568773D01*
X162634582Y-121566978D01*
X162433000Y-121547124D01*
X162426837Y-121547731D01*
X162237580Y-121566371D01*
X162237579Y-121566371D01*
X162231418Y-121566978D01*
X162225501Y-121568772D01*
X162225495Y-121568774D01*
X162043504Y-121623980D01*
X162043498Y-121623982D01*
X162037582Y-121625777D01*
X162032124Y-121628694D01*
X162032120Y-121628696D01*
X161913108Y-121692310D01*
X161858943Y-121721262D01*
X161854164Y-121725183D01*
X161854158Y-121725188D01*
X161707143Y-121845841D01*
X161707137Y-121845846D01*
X161702364Y-121849764D01*
X161698446Y-121854537D01*
X161698441Y-121854543D01*
X161577788Y-122001558D01*
X161577783Y-122001564D01*
X161573862Y-122006343D01*
X161570944Y-122011801D01*
X161570944Y-122011802D01*
X161481296Y-122179520D01*
X161481294Y-122179524D01*
X161478377Y-122184982D01*
X161476582Y-122190898D01*
X161476580Y-122190904D01*
X161421374Y-122372895D01*
X161421372Y-122372901D01*
X161419578Y-122378818D01*
X161418971Y-122384979D01*
X161418971Y-122384980D01*
X161402339Y-122553846D01*
X161399724Y-122580400D01*
X141820650Y-122580400D01*
X141830744Y-122567245D01*
X141889015Y-122426567D01*
X141908890Y-122275600D01*
X141889015Y-122124633D01*
X141830744Y-121983955D01*
X141738048Y-121863152D01*
X141617245Y-121770456D01*
X141609618Y-121767296D01*
X141609615Y-121767295D01*
X141484196Y-121715345D01*
X141484195Y-121715344D01*
X141476567Y-121712185D01*
X141468384Y-121711107D01*
X141468378Y-121711106D01*
X141333788Y-121693388D01*
X141325600Y-121692310D01*
X141317412Y-121693388D01*
X141182821Y-121711106D01*
X141182813Y-121711108D01*
X141174633Y-121712185D01*
X141167006Y-121715344D01*
X141167003Y-121715345D01*
X141041584Y-121767295D01*
X141041578Y-121767298D01*
X141033955Y-121770456D01*
X141027406Y-121775480D01*
X141027401Y-121775484D01*
X140919702Y-121858125D01*
X140919697Y-121858129D01*
X140913152Y-121863152D01*
X140908129Y-121869697D01*
X140908125Y-121869702D01*
X140825484Y-121977401D01*
X140825480Y-121977406D01*
X140820456Y-121983955D01*
X140817298Y-121991578D01*
X140817295Y-121991584D01*
X140765345Y-122117003D01*
X140762185Y-122124633D01*
X140761108Y-122132813D01*
X140761106Y-122132821D01*
X140753460Y-122190904D01*
X140742310Y-122275600D01*
X140743388Y-122283788D01*
X140743388Y-122283790D01*
X140758562Y-122399054D01*
X140750049Y-122463718D01*
X140710344Y-122515462D01*
X140650087Y-122540421D01*
X140556302Y-122552768D01*
X140556300Y-122552768D01*
X140548115Y-122553846D01*
X140540488Y-122557005D01*
X140540485Y-122557006D01*
X140415066Y-122608956D01*
X140415060Y-122608959D01*
X140407437Y-122612117D01*
X140400888Y-122617141D01*
X140400883Y-122617145D01*
X140293184Y-122699786D01*
X140293179Y-122699790D01*
X140286634Y-122704813D01*
X140281611Y-122711358D01*
X140281607Y-122711363D01*
X140198966Y-122819062D01*
X140198962Y-122819067D01*
X140193938Y-122825616D01*
X140190780Y-122833239D01*
X140190777Y-122833245D01*
X140144230Y-122945621D01*
X140135667Y-122966294D01*
X140134590Y-122974474D01*
X140134588Y-122974482D01*
X140118514Y-123096588D01*
X140115792Y-123117261D01*
X136063090Y-123117261D01*
X136066890Y-123088400D01*
X136047015Y-122937433D01*
X135988744Y-122796755D01*
X135896048Y-122675952D01*
X135819410Y-122617145D01*
X135781798Y-122588284D01*
X135781796Y-122588283D01*
X135775245Y-122583256D01*
X135767618Y-122580096D01*
X135767615Y-122580095D01*
X135642196Y-122528145D01*
X135642195Y-122528144D01*
X135634567Y-122524985D01*
X135626384Y-122523907D01*
X135626378Y-122523906D01*
X135491788Y-122506188D01*
X135483600Y-122505110D01*
X135475412Y-122506188D01*
X135340821Y-122523906D01*
X135340813Y-122523908D01*
X135332633Y-122524985D01*
X135325006Y-122528144D01*
X135325003Y-122528145D01*
X135199584Y-122580095D01*
X135199578Y-122580098D01*
X135191955Y-122583256D01*
X135185406Y-122588280D01*
X135185401Y-122588284D01*
X135077702Y-122670925D01*
X135077697Y-122670929D01*
X135071152Y-122675952D01*
X135066129Y-122682497D01*
X135066125Y-122682502D01*
X134983484Y-122790201D01*
X134983480Y-122790206D01*
X134978456Y-122796755D01*
X134975298Y-122804378D01*
X134975295Y-122804384D01*
X134923345Y-122929803D01*
X134920185Y-122937433D01*
X134919108Y-122945613D01*
X134919106Y-122945621D01*
X134912763Y-122993807D01*
X134900310Y-123088400D01*
X112497308Y-123088400D01*
X109449308Y-120040400D01*
X161399724Y-120040400D01*
X161419578Y-120241982D01*
X161478377Y-120435818D01*
X161573862Y-120614457D01*
X161702364Y-120771036D01*
X161858943Y-120899538D01*
X162037582Y-120995023D01*
X162231418Y-121053822D01*
X162433000Y-121073676D01*
X162634582Y-121053822D01*
X162828418Y-120995023D01*
X163007057Y-120899538D01*
X163163636Y-120771036D01*
X163292138Y-120614457D01*
X163387623Y-120435818D01*
X163446422Y-120241982D01*
X163466276Y-120040400D01*
X163446422Y-119838818D01*
X163387623Y-119644982D01*
X163292138Y-119466343D01*
X163163636Y-119309764D01*
X163007057Y-119181262D01*
X162828418Y-119085777D01*
X162822497Y-119083981D01*
X162822495Y-119083980D01*
X162640504Y-119028774D01*
X162640500Y-119028773D01*
X162634582Y-119026978D01*
X162433000Y-119007124D01*
X162426837Y-119007731D01*
X162237580Y-119026371D01*
X162237579Y-119026371D01*
X162231418Y-119026978D01*
X162225501Y-119028772D01*
X162225495Y-119028774D01*
X162043504Y-119083980D01*
X162043498Y-119083982D01*
X162037582Y-119085777D01*
X162032124Y-119088694D01*
X162032120Y-119088696D01*
X161887316Y-119166096D01*
X161858943Y-119181262D01*
X161854164Y-119185183D01*
X161854158Y-119185188D01*
X161707143Y-119305841D01*
X161707137Y-119305846D01*
X161702364Y-119309764D01*
X161698446Y-119314537D01*
X161698441Y-119314543D01*
X161577788Y-119461558D01*
X161577783Y-119461564D01*
X161573862Y-119466343D01*
X161570944Y-119471801D01*
X161570944Y-119471802D01*
X161481296Y-119639520D01*
X161481294Y-119639524D01*
X161478377Y-119644982D01*
X161476582Y-119650898D01*
X161476580Y-119650904D01*
X161421374Y-119832895D01*
X161421372Y-119832901D01*
X161419578Y-119838818D01*
X161399724Y-120040400D01*
X109449308Y-120040400D01*
X109028805Y-119619897D01*
X109001491Y-119579020D01*
X108991900Y-119530802D01*
X108991900Y-118719600D01*
X111572132Y-118719600D01*
X111591965Y-118946292D01*
X111593389Y-118951606D01*
X111639429Y-119123433D01*
X111650861Y-119166096D01*
X111747032Y-119372334D01*
X111750184Y-119376835D01*
X111750186Y-119376839D01*
X111874393Y-119554227D01*
X111874397Y-119554231D01*
X111877553Y-119558739D01*
X112038461Y-119719647D01*
X112042969Y-119722803D01*
X112042972Y-119722806D01*
X112207224Y-119837815D01*
X112224866Y-119850168D01*
X112431104Y-119946339D01*
X112650908Y-120005235D01*
X112820816Y-120020100D01*
X112931644Y-120020100D01*
X112934384Y-120020100D01*
X113104292Y-120005235D01*
X113324096Y-119946339D01*
X113530334Y-119850168D01*
X113716739Y-119719647D01*
X113877647Y-119558739D01*
X114008168Y-119372334D01*
X114053836Y-119274400D01*
X139609468Y-119274400D01*
X139610546Y-119282588D01*
X139628264Y-119417178D01*
X139628265Y-119417184D01*
X139629343Y-119425367D01*
X139632502Y-119432995D01*
X139632503Y-119432996D01*
X139684453Y-119558415D01*
X139684454Y-119558418D01*
X139687614Y-119566045D01*
X139692641Y-119572596D01*
X139692642Y-119572598D01*
X139748185Y-119644982D01*
X139780310Y-119686848D01*
X139901113Y-119779544D01*
X140041791Y-119837815D01*
X140192758Y-119857690D01*
X140343725Y-119837815D01*
X140484403Y-119779544D01*
X140605206Y-119686848D01*
X140697902Y-119566045D01*
X140756173Y-119425367D01*
X140776048Y-119274400D01*
X140756173Y-119123433D01*
X140697902Y-118982755D01*
X140605206Y-118861952D01*
X140598655Y-118856925D01*
X140490956Y-118774284D01*
X140490954Y-118774283D01*
X140484403Y-118769256D01*
X140476776Y-118766096D01*
X140476773Y-118766095D01*
X140351354Y-118714145D01*
X140351353Y-118714144D01*
X140343725Y-118710985D01*
X140335542Y-118709907D01*
X140335536Y-118709906D01*
X140200946Y-118692188D01*
X140192758Y-118691110D01*
X140184570Y-118692188D01*
X140049979Y-118709906D01*
X140049971Y-118709908D01*
X140041791Y-118710985D01*
X140034164Y-118714144D01*
X140034161Y-118714145D01*
X139908742Y-118766095D01*
X139908736Y-118766098D01*
X139901113Y-118769256D01*
X139894564Y-118774280D01*
X139894559Y-118774284D01*
X139786860Y-118856925D01*
X139786855Y-118856929D01*
X139780310Y-118861952D01*
X139775287Y-118868497D01*
X139775283Y-118868502D01*
X139692642Y-118976201D01*
X139692638Y-118976206D01*
X139687614Y-118982755D01*
X139684456Y-118990378D01*
X139684453Y-118990384D01*
X139632503Y-119115803D01*
X139629343Y-119123433D01*
X139628266Y-119131613D01*
X139628264Y-119131621D01*
X139615891Y-119225612D01*
X139609468Y-119274400D01*
X114053836Y-119274400D01*
X114104339Y-119166096D01*
X114163235Y-118946292D01*
X114183068Y-118719600D01*
X114176401Y-118643400D01*
X154382110Y-118643400D01*
X154383188Y-118651588D01*
X154400906Y-118786178D01*
X154400907Y-118786184D01*
X154401985Y-118794367D01*
X154405144Y-118801995D01*
X154405145Y-118801996D01*
X154457095Y-118927415D01*
X154457096Y-118927418D01*
X154460256Y-118935045D01*
X154465283Y-118941596D01*
X154465284Y-118941598D01*
X154516030Y-119007731D01*
X154552952Y-119055848D01*
X154673755Y-119148544D01*
X154814433Y-119206815D01*
X154965400Y-119226690D01*
X155116367Y-119206815D01*
X155257045Y-119148544D01*
X155377848Y-119055848D01*
X155470544Y-118935045D01*
X155528815Y-118794367D01*
X155548690Y-118643400D01*
X155528815Y-118492433D01*
X155470544Y-118351755D01*
X155377848Y-118230952D01*
X155257045Y-118138256D01*
X155249418Y-118135096D01*
X155249415Y-118135095D01*
X155123996Y-118083145D01*
X155123995Y-118083144D01*
X155116367Y-118079985D01*
X155108184Y-118078907D01*
X155108178Y-118078906D01*
X154973588Y-118061188D01*
X154965400Y-118060110D01*
X154957212Y-118061188D01*
X154822621Y-118078906D01*
X154822613Y-118078908D01*
X154814433Y-118079985D01*
X154806806Y-118083144D01*
X154806803Y-118083145D01*
X154681384Y-118135095D01*
X154681378Y-118135098D01*
X154673755Y-118138256D01*
X154667206Y-118143280D01*
X154667201Y-118143284D01*
X154559502Y-118225925D01*
X154559497Y-118225929D01*
X154552952Y-118230952D01*
X154547929Y-118237497D01*
X154547925Y-118237502D01*
X154465284Y-118345201D01*
X154465280Y-118345206D01*
X154460256Y-118351755D01*
X154457098Y-118359378D01*
X154457095Y-118359384D01*
X154405145Y-118484803D01*
X154401985Y-118492433D01*
X154400908Y-118500613D01*
X154400906Y-118500621D01*
X154396555Y-118533676D01*
X154382110Y-118643400D01*
X114176401Y-118643400D01*
X114163235Y-118492908D01*
X114104339Y-118273104D01*
X114008168Y-118066866D01*
X114004192Y-118061188D01*
X113880806Y-117884972D01*
X113880803Y-117884969D01*
X113877647Y-117880461D01*
X113716739Y-117719553D01*
X113712231Y-117716397D01*
X113712227Y-117716393D01*
X113534839Y-117592186D01*
X113534835Y-117592184D01*
X113530334Y-117589032D01*
X113353480Y-117506563D01*
X113340264Y-117500400D01*
X161399724Y-117500400D01*
X161419578Y-117701982D01*
X161421373Y-117707900D01*
X161421374Y-117707904D01*
X161475087Y-117884972D01*
X161478377Y-117895818D01*
X161573862Y-118074457D01*
X161702364Y-118231036D01*
X161858943Y-118359538D01*
X162037582Y-118455023D01*
X162231418Y-118513822D01*
X162433000Y-118533676D01*
X162634582Y-118513822D01*
X162828418Y-118455023D01*
X163007057Y-118359538D01*
X163163636Y-118231036D01*
X163292138Y-118074457D01*
X163387623Y-117895818D01*
X163446422Y-117701982D01*
X163466276Y-117500400D01*
X163446422Y-117298818D01*
X163387623Y-117104982D01*
X163292138Y-116926343D01*
X163163636Y-116769764D01*
X163007057Y-116641262D01*
X162828418Y-116545777D01*
X162822497Y-116543981D01*
X162822495Y-116543980D01*
X162640504Y-116488774D01*
X162640500Y-116488773D01*
X162634582Y-116486978D01*
X162433000Y-116467124D01*
X162426837Y-116467731D01*
X162237580Y-116486371D01*
X162237579Y-116486371D01*
X162231418Y-116486978D01*
X162225501Y-116488772D01*
X162225495Y-116488774D01*
X162043504Y-116543980D01*
X162043498Y-116543982D01*
X162037582Y-116545777D01*
X162032124Y-116548694D01*
X162032120Y-116548696D01*
X161864402Y-116638344D01*
X161858943Y-116641262D01*
X161854164Y-116645183D01*
X161854158Y-116645188D01*
X161707143Y-116765841D01*
X161707137Y-116765846D01*
X161702364Y-116769764D01*
X161698446Y-116774537D01*
X161698441Y-116774543D01*
X161577788Y-116921558D01*
X161577783Y-116921564D01*
X161573862Y-116926343D01*
X161570944Y-116931801D01*
X161570944Y-116931802D01*
X161481296Y-117099520D01*
X161481294Y-117099524D01*
X161478377Y-117104982D01*
X161476582Y-117110898D01*
X161476580Y-117110904D01*
X161421374Y-117292895D01*
X161421372Y-117292901D01*
X161419578Y-117298818D01*
X161418971Y-117304979D01*
X161418971Y-117304980D01*
X161406267Y-117433965D01*
X161399724Y-117500400D01*
X113340264Y-117500400D01*
X113329078Y-117495184D01*
X113329076Y-117495183D01*
X113324096Y-117492861D01*
X113318788Y-117491438D01*
X113318786Y-117491438D01*
X113109606Y-117435389D01*
X113109607Y-117435389D01*
X113104292Y-117433965D01*
X113098816Y-117433485D01*
X113098811Y-117433485D01*
X112937107Y-117419338D01*
X112937101Y-117419337D01*
X112934384Y-117419100D01*
X112820816Y-117419100D01*
X112818099Y-117419337D01*
X112818092Y-117419338D01*
X112656388Y-117433485D01*
X112656381Y-117433486D01*
X112650908Y-117433965D01*
X112645594Y-117435388D01*
X112645593Y-117435389D01*
X112436413Y-117491438D01*
X112436408Y-117491439D01*
X112431104Y-117492861D01*
X112426127Y-117495181D01*
X112426121Y-117495184D01*
X112229847Y-117586709D01*
X112229844Y-117586710D01*
X112224866Y-117589032D01*
X112220369Y-117592180D01*
X112220360Y-117592186D01*
X112042972Y-117716393D01*
X112042961Y-117716401D01*
X112038461Y-117719553D01*
X112034571Y-117723442D01*
X112034565Y-117723448D01*
X111881448Y-117876565D01*
X111881442Y-117876571D01*
X111877553Y-117880461D01*
X111874401Y-117884961D01*
X111874393Y-117884972D01*
X111750186Y-118062360D01*
X111750180Y-118062369D01*
X111747032Y-118066866D01*
X111744710Y-118071844D01*
X111744709Y-118071847D01*
X111653184Y-118268121D01*
X111653181Y-118268127D01*
X111650861Y-118273104D01*
X111649439Y-118278408D01*
X111649438Y-118278413D01*
X111602116Y-118455023D01*
X111591965Y-118492908D01*
X111591486Y-118498381D01*
X111591485Y-118498388D01*
X111574530Y-118692188D01*
X111572132Y-118719600D01*
X108991900Y-118719600D01*
X108991900Y-115821768D01*
X161404700Y-115821768D01*
X161404701Y-115821774D01*
X161404701Y-115827960D01*
X161415045Y-115879969D01*
X161454453Y-115938947D01*
X161513431Y-115978355D01*
X161565439Y-115988700D01*
X163300560Y-115988699D01*
X163352569Y-115978355D01*
X163411547Y-115938947D01*
X163450955Y-115879969D01*
X163461300Y-115827961D01*
X163461299Y-114092840D01*
X163450955Y-114040831D01*
X163411547Y-113981853D01*
X163352569Y-113942445D01*
X163340399Y-113940024D01*
X163340396Y-113940023D01*
X163306629Y-113933307D01*
X163300561Y-113932100D01*
X163294374Y-113932100D01*
X161571631Y-113932100D01*
X161571620Y-113932100D01*
X161565440Y-113932101D01*
X161559372Y-113933307D01*
X161559370Y-113933308D01*
X161525603Y-113940024D01*
X161525602Y-113940024D01*
X161513431Y-113942445D01*
X161503111Y-113949340D01*
X161503110Y-113949341D01*
X161464768Y-113974960D01*
X161464765Y-113974962D01*
X161454453Y-113981853D01*
X161447562Y-113992165D01*
X161447560Y-113992168D01*
X161421940Y-114030511D01*
X161421938Y-114030513D01*
X161415045Y-114040831D01*
X161412624Y-114052999D01*
X161412623Y-114053003D01*
X161407737Y-114077570D01*
X161404700Y-114092839D01*
X161404700Y-114099024D01*
X161404700Y-114099025D01*
X161404700Y-115821768D01*
X108991900Y-115821768D01*
X108991900Y-114385100D01*
X131039510Y-114385100D01*
X131040588Y-114393288D01*
X131058306Y-114527878D01*
X131058307Y-114527884D01*
X131059385Y-114536067D01*
X131062544Y-114543695D01*
X131062545Y-114543696D01*
X131114495Y-114669115D01*
X131114496Y-114669118D01*
X131117656Y-114676745D01*
X131122683Y-114683296D01*
X131122684Y-114683298D01*
X131205325Y-114790997D01*
X131210352Y-114797548D01*
X131331155Y-114890244D01*
X131471833Y-114948515D01*
X131480020Y-114949592D01*
X131480021Y-114949593D01*
X131547316Y-114958452D01*
X131622800Y-114968390D01*
X131768006Y-114949273D01*
X131824950Y-114954882D01*
X131873544Y-114985099D01*
X131903762Y-115033693D01*
X131909371Y-115090641D01*
X131903110Y-115138200D01*
X131904188Y-115146388D01*
X131921906Y-115280978D01*
X131921907Y-115280984D01*
X131922985Y-115289167D01*
X131926144Y-115296795D01*
X131926145Y-115296796D01*
X131978095Y-115422215D01*
X131978096Y-115422218D01*
X131981256Y-115429845D01*
X132073952Y-115550648D01*
X132194755Y-115643344D01*
X132335433Y-115701615D01*
X132486400Y-115721490D01*
X132637367Y-115701615D01*
X132778045Y-115643344D01*
X132898848Y-115550648D01*
X132991544Y-115429845D01*
X133049815Y-115289167D01*
X133069690Y-115138200D01*
X133049815Y-114987233D01*
X132991544Y-114846555D01*
X132898848Y-114725752D01*
X132858996Y-114695172D01*
X132784598Y-114638084D01*
X132784596Y-114638083D01*
X132778045Y-114633056D01*
X132770418Y-114629896D01*
X132770415Y-114629895D01*
X132644996Y-114577945D01*
X132644995Y-114577944D01*
X132637367Y-114574785D01*
X132629184Y-114573707D01*
X132629178Y-114573706D01*
X132494588Y-114555988D01*
X132486400Y-114554910D01*
X132478212Y-114555988D01*
X132341196Y-114574026D01*
X132284248Y-114568417D01*
X132235654Y-114538199D01*
X132205436Y-114489604D01*
X132199828Y-114432660D01*
X132206090Y-114385100D01*
X132186215Y-114234133D01*
X132127944Y-114093455D01*
X132035248Y-113972652D01*
X132004869Y-113949341D01*
X131920998Y-113884984D01*
X131920996Y-113884983D01*
X131914445Y-113879956D01*
X131906818Y-113876796D01*
X131906815Y-113876795D01*
X131781396Y-113824845D01*
X131781395Y-113824844D01*
X131773767Y-113821685D01*
X131765584Y-113820607D01*
X131765578Y-113820606D01*
X131630988Y-113802888D01*
X131622800Y-113801810D01*
X131614612Y-113802888D01*
X131480021Y-113820606D01*
X131480013Y-113820608D01*
X131471833Y-113821685D01*
X131464206Y-113824844D01*
X131464203Y-113824845D01*
X131338784Y-113876795D01*
X131338778Y-113876798D01*
X131331155Y-113879956D01*
X131324606Y-113884980D01*
X131324601Y-113884984D01*
X131216902Y-113967625D01*
X131216897Y-113967629D01*
X131210352Y-113972652D01*
X131205329Y-113979197D01*
X131205325Y-113979202D01*
X131122684Y-114086901D01*
X131122680Y-114086906D01*
X131117656Y-114093455D01*
X131114498Y-114101078D01*
X131114495Y-114101084D01*
X131062545Y-114226503D01*
X131059385Y-114234133D01*
X131058308Y-114242313D01*
X131058306Y-114242321D01*
X131041232Y-114372013D01*
X131039510Y-114385100D01*
X108991900Y-114385100D01*
X108991900Y-113222359D01*
X128039083Y-113222359D01*
X128058937Y-113423941D01*
X128117736Y-113617777D01*
X128213221Y-113796416D01*
X128217146Y-113801198D01*
X128217147Y-113801200D01*
X128325565Y-113933307D01*
X128341723Y-113952995D01*
X128498302Y-114081497D01*
X128676941Y-114176982D01*
X128870777Y-114235781D01*
X129072359Y-114255635D01*
X129273941Y-114235781D01*
X129467777Y-114176982D01*
X129646416Y-114081497D01*
X129802995Y-113952995D01*
X129931497Y-113796416D01*
X130026982Y-113617777D01*
X130085781Y-113423941D01*
X130105635Y-113222359D01*
X130085781Y-113020777D01*
X130026982Y-112826941D01*
X129931497Y-112648302D01*
X129802995Y-112491723D01*
X129670183Y-112382726D01*
X129651200Y-112367147D01*
X129651198Y-112367146D01*
X129646416Y-112363221D01*
X129467777Y-112267736D01*
X129461856Y-112265940D01*
X129461854Y-112265939D01*
X129279863Y-112210733D01*
X129279859Y-112210732D01*
X129273941Y-112208937D01*
X129072359Y-112189083D01*
X129066196Y-112189690D01*
X128876939Y-112208330D01*
X128876938Y-112208330D01*
X128870777Y-112208937D01*
X128864860Y-112210731D01*
X128864854Y-112210733D01*
X128682863Y-112265939D01*
X128682857Y-112265941D01*
X128676941Y-112267736D01*
X128671483Y-112270653D01*
X128671479Y-112270655D01*
X128503761Y-112360303D01*
X128498302Y-112363221D01*
X128493523Y-112367142D01*
X128493517Y-112367147D01*
X128346502Y-112487800D01*
X128346496Y-112487805D01*
X128341723Y-112491723D01*
X128337805Y-112496496D01*
X128337800Y-112496502D01*
X128217147Y-112643517D01*
X128217142Y-112643523D01*
X128213221Y-112648302D01*
X128210303Y-112653760D01*
X128210303Y-112653761D01*
X128120655Y-112821479D01*
X128120653Y-112821483D01*
X128117736Y-112826941D01*
X128115941Y-112832857D01*
X128115939Y-112832863D01*
X128060733Y-113014854D01*
X128060731Y-113014860D01*
X128058937Y-113020777D01*
X128039083Y-113222359D01*
X108991900Y-113222359D01*
X108991900Y-111426307D01*
X126243031Y-111426307D01*
X126262885Y-111627889D01*
X126321684Y-111821725D01*
X126417169Y-112000364D01*
X126545671Y-112156943D01*
X126702250Y-112285445D01*
X126880889Y-112380930D01*
X127074725Y-112439729D01*
X127276307Y-112459583D01*
X127477889Y-112439729D01*
X127671725Y-112380930D01*
X127850364Y-112285445D01*
X128006943Y-112156943D01*
X128135445Y-112000364D01*
X128230930Y-111821725D01*
X128289729Y-111627889D01*
X128309583Y-111426307D01*
X128289729Y-111224725D01*
X128230930Y-111030889D01*
X128135445Y-110852250D01*
X128129987Y-110845600D01*
X134392310Y-110845600D01*
X134393388Y-110853788D01*
X134411106Y-110988378D01*
X134411107Y-110988384D01*
X134412185Y-110996567D01*
X134415344Y-111004195D01*
X134415345Y-111004196D01*
X134467295Y-111129615D01*
X134467296Y-111129618D01*
X134470456Y-111137245D01*
X134475483Y-111143796D01*
X134475484Y-111143798D01*
X134504409Y-111181493D01*
X134563152Y-111258048D01*
X134683955Y-111350744D01*
X134824633Y-111409015D01*
X134975600Y-111428890D01*
X135126567Y-111409015D01*
X135267245Y-111350744D01*
X135388048Y-111258048D01*
X135480744Y-111137245D01*
X135539015Y-110996567D01*
X135558890Y-110845600D01*
X135539015Y-110694633D01*
X135538421Y-110693200D01*
X136983110Y-110693200D01*
X136984188Y-110701388D01*
X137001906Y-110835978D01*
X137001907Y-110835984D01*
X137002985Y-110844167D01*
X137006144Y-110851795D01*
X137006145Y-110851796D01*
X137058095Y-110977215D01*
X137058096Y-110977218D01*
X137061256Y-110984845D01*
X137066283Y-110991396D01*
X137066284Y-110991398D01*
X137092396Y-111025427D01*
X137153952Y-111105648D01*
X137274755Y-111198344D01*
X137415433Y-111256615D01*
X137566400Y-111276490D01*
X137717367Y-111256615D01*
X137858045Y-111198344D01*
X137978848Y-111105648D01*
X138071544Y-110984845D01*
X138129815Y-110844167D01*
X138149690Y-110693200D01*
X138139658Y-110617000D01*
X140716910Y-110617000D01*
X140717988Y-110625188D01*
X140735706Y-110759778D01*
X140735707Y-110759784D01*
X140736785Y-110767967D01*
X140739944Y-110775595D01*
X140739945Y-110775596D01*
X140791895Y-110901015D01*
X140791896Y-110901018D01*
X140795056Y-110908645D01*
X140800083Y-110915196D01*
X140800084Y-110915198D01*
X140858555Y-110991398D01*
X140887752Y-111029448D01*
X141008555Y-111122144D01*
X141149233Y-111180415D01*
X141300200Y-111200290D01*
X141451167Y-111180415D01*
X141591845Y-111122144D01*
X141712648Y-111029448D01*
X141805344Y-110908645D01*
X141863615Y-110767967D01*
X141883490Y-110617000D01*
X141863615Y-110466033D01*
X141805344Y-110325355D01*
X141712648Y-110204552D01*
X141619329Y-110132945D01*
X141598398Y-110116884D01*
X141598396Y-110116883D01*
X141591845Y-110111856D01*
X141584218Y-110108696D01*
X141584215Y-110108695D01*
X141458796Y-110056745D01*
X141458795Y-110056744D01*
X141451167Y-110053585D01*
X141442984Y-110052507D01*
X141442978Y-110052506D01*
X141308388Y-110034788D01*
X141300200Y-110033710D01*
X141292012Y-110034788D01*
X141157421Y-110052506D01*
X141157413Y-110052508D01*
X141149233Y-110053585D01*
X141141606Y-110056744D01*
X141141603Y-110056745D01*
X141016184Y-110108695D01*
X141016178Y-110108698D01*
X141008555Y-110111856D01*
X141002006Y-110116880D01*
X141002001Y-110116884D01*
X140894302Y-110199525D01*
X140894297Y-110199529D01*
X140887752Y-110204552D01*
X140882729Y-110211097D01*
X140882725Y-110211102D01*
X140800084Y-110318801D01*
X140800080Y-110318806D01*
X140795056Y-110325355D01*
X140791898Y-110332978D01*
X140791895Y-110332984D01*
X140739945Y-110458403D01*
X140736785Y-110466033D01*
X140735708Y-110474213D01*
X140735706Y-110474221D01*
X140723854Y-110564251D01*
X140716910Y-110617000D01*
X138139658Y-110617000D01*
X138129815Y-110542233D01*
X138071544Y-110401555D01*
X138043351Y-110364814D01*
X137983874Y-110287302D01*
X137978848Y-110280752D01*
X137879543Y-110204552D01*
X137864598Y-110193084D01*
X137864596Y-110193083D01*
X137858045Y-110188056D01*
X137850418Y-110184896D01*
X137850415Y-110184895D01*
X137724996Y-110132945D01*
X137724995Y-110132944D01*
X137717367Y-110129785D01*
X137709184Y-110128707D01*
X137709178Y-110128706D01*
X137574588Y-110110988D01*
X137566400Y-110109910D01*
X137558212Y-110110988D01*
X137423621Y-110128706D01*
X137423613Y-110128708D01*
X137415433Y-110129785D01*
X137407806Y-110132944D01*
X137407803Y-110132945D01*
X137282384Y-110184895D01*
X137282378Y-110184898D01*
X137274755Y-110188056D01*
X137268206Y-110193080D01*
X137268201Y-110193084D01*
X137160502Y-110275725D01*
X137160497Y-110275729D01*
X137153952Y-110280752D01*
X137148929Y-110287297D01*
X137148925Y-110287302D01*
X137066284Y-110395001D01*
X137066280Y-110395006D01*
X137061256Y-110401555D01*
X137058098Y-110409178D01*
X137058095Y-110409184D01*
X137023663Y-110492311D01*
X137002985Y-110542233D01*
X137001908Y-110550413D01*
X137001906Y-110550421D01*
X136989550Y-110644284D01*
X136983110Y-110693200D01*
X135538421Y-110693200D01*
X135480744Y-110553955D01*
X135388048Y-110433152D01*
X135381497Y-110428125D01*
X135273798Y-110345484D01*
X135273796Y-110345483D01*
X135267245Y-110340456D01*
X135259618Y-110337296D01*
X135259615Y-110337295D01*
X135134196Y-110285345D01*
X135134195Y-110285344D01*
X135126567Y-110282185D01*
X135118384Y-110281107D01*
X135118378Y-110281106D01*
X134983788Y-110263388D01*
X134975600Y-110262310D01*
X134967412Y-110263388D01*
X134832821Y-110281106D01*
X134832813Y-110281108D01*
X134824633Y-110282185D01*
X134817006Y-110285344D01*
X134817003Y-110285345D01*
X134691584Y-110337295D01*
X134691578Y-110337298D01*
X134683955Y-110340456D01*
X134677406Y-110345480D01*
X134677401Y-110345484D01*
X134569702Y-110428125D01*
X134569697Y-110428129D01*
X134563152Y-110433152D01*
X134558129Y-110439697D01*
X134558125Y-110439702D01*
X134475484Y-110547401D01*
X134475480Y-110547406D01*
X134470456Y-110553955D01*
X134467298Y-110561578D01*
X134467295Y-110561584D01*
X134416170Y-110685012D01*
X134412185Y-110694633D01*
X134411108Y-110702813D01*
X134411106Y-110702821D01*
X134402530Y-110767967D01*
X134392310Y-110845600D01*
X128129987Y-110845600D01*
X128006943Y-110695671D01*
X127850364Y-110567169D01*
X127671725Y-110471684D01*
X127665804Y-110469888D01*
X127665802Y-110469887D01*
X127483811Y-110414681D01*
X127483807Y-110414680D01*
X127477889Y-110412885D01*
X127276307Y-110393031D01*
X127270144Y-110393638D01*
X127080887Y-110412278D01*
X127080886Y-110412278D01*
X127074725Y-110412885D01*
X127068808Y-110414679D01*
X127068802Y-110414681D01*
X126886811Y-110469887D01*
X126886805Y-110469889D01*
X126880889Y-110471684D01*
X126875431Y-110474601D01*
X126875427Y-110474603D01*
X126712699Y-110561584D01*
X126702250Y-110567169D01*
X126697471Y-110571090D01*
X126697465Y-110571095D01*
X126550450Y-110691748D01*
X126550444Y-110691753D01*
X126545671Y-110695671D01*
X126541753Y-110700444D01*
X126541748Y-110700450D01*
X126421095Y-110847465D01*
X126421090Y-110847471D01*
X126417169Y-110852250D01*
X126414251Y-110857708D01*
X126414251Y-110857709D01*
X126324603Y-111025427D01*
X126324601Y-111025431D01*
X126321684Y-111030889D01*
X126319889Y-111036805D01*
X126319887Y-111036811D01*
X126264681Y-111218802D01*
X126264679Y-111218808D01*
X126262885Y-111224725D01*
X126243031Y-111426307D01*
X108991900Y-111426307D01*
X108991900Y-109630256D01*
X124446980Y-109630256D01*
X124466834Y-109831838D01*
X124468629Y-109837756D01*
X124468630Y-109837760D01*
X124507398Y-109965561D01*
X124525633Y-110025674D01*
X124621118Y-110204313D01*
X124625043Y-110209095D01*
X124625044Y-110209097D01*
X124720455Y-110325355D01*
X124749620Y-110360892D01*
X124906199Y-110489394D01*
X125084838Y-110584879D01*
X125278674Y-110643678D01*
X125480256Y-110663532D01*
X125681838Y-110643678D01*
X125875674Y-110584879D01*
X126054313Y-110489394D01*
X126210892Y-110360892D01*
X126339394Y-110204313D01*
X126434879Y-110025674D01*
X126493678Y-109831838D01*
X126513532Y-109630256D01*
X126493678Y-109428674D01*
X126434879Y-109234838D01*
X126339394Y-109056199D01*
X126210892Y-108899620D01*
X126054313Y-108771118D01*
X125991231Y-108737400D01*
X164734332Y-108737400D01*
X164734811Y-108742875D01*
X164748942Y-108904399D01*
X164754165Y-108964092D01*
X164813061Y-109183896D01*
X164909232Y-109390134D01*
X164912384Y-109394635D01*
X164912386Y-109394639D01*
X165036593Y-109572027D01*
X165036597Y-109572031D01*
X165039753Y-109576539D01*
X165200661Y-109737447D01*
X165205169Y-109740603D01*
X165205172Y-109740606D01*
X165343924Y-109837760D01*
X165387066Y-109867968D01*
X165593304Y-109964139D01*
X165813108Y-110023035D01*
X165983016Y-110037900D01*
X166093844Y-110037900D01*
X166096584Y-110037900D01*
X166266492Y-110023035D01*
X166486296Y-109964139D01*
X166692534Y-109867968D01*
X166878939Y-109737447D01*
X167039847Y-109576539D01*
X167170368Y-109390134D01*
X167266539Y-109183896D01*
X167325435Y-108964092D01*
X167345268Y-108737400D01*
X167325435Y-108510708D01*
X167266539Y-108290904D01*
X167170368Y-108084666D01*
X167167213Y-108080160D01*
X167043006Y-107902772D01*
X167043003Y-107902769D01*
X167039847Y-107898261D01*
X166878939Y-107737353D01*
X166874431Y-107734197D01*
X166874427Y-107734193D01*
X166697039Y-107609986D01*
X166697035Y-107609984D01*
X166692534Y-107606832D01*
X166486296Y-107510661D01*
X166480988Y-107509238D01*
X166480986Y-107509238D01*
X166271806Y-107453189D01*
X166271807Y-107453189D01*
X166266492Y-107451765D01*
X166261016Y-107451285D01*
X166261011Y-107451285D01*
X166099307Y-107437138D01*
X166099301Y-107437137D01*
X166096584Y-107436900D01*
X165983016Y-107436900D01*
X165980299Y-107437137D01*
X165980292Y-107437138D01*
X165818588Y-107451285D01*
X165818581Y-107451286D01*
X165813108Y-107451765D01*
X165807794Y-107453188D01*
X165807793Y-107453189D01*
X165598613Y-107509238D01*
X165598608Y-107509239D01*
X165593304Y-107510661D01*
X165588327Y-107512981D01*
X165588321Y-107512984D01*
X165392047Y-107604509D01*
X165392044Y-107604510D01*
X165387066Y-107606832D01*
X165382569Y-107609980D01*
X165382560Y-107609986D01*
X165205172Y-107734193D01*
X165205161Y-107734201D01*
X165200661Y-107737353D01*
X165196771Y-107741242D01*
X165196765Y-107741248D01*
X165043648Y-107894365D01*
X165043642Y-107894371D01*
X165039753Y-107898261D01*
X165036601Y-107902761D01*
X165036593Y-107902772D01*
X164912386Y-108080160D01*
X164912380Y-108080169D01*
X164909232Y-108084666D01*
X164906910Y-108089644D01*
X164906909Y-108089647D01*
X164815384Y-108285921D01*
X164815381Y-108285927D01*
X164813061Y-108290904D01*
X164754165Y-108510708D01*
X164753686Y-108516181D01*
X164753685Y-108516188D01*
X164738530Y-108689416D01*
X164734332Y-108737400D01*
X125991231Y-108737400D01*
X125875674Y-108675633D01*
X125869753Y-108673837D01*
X125869751Y-108673836D01*
X125687760Y-108618630D01*
X125687756Y-108618629D01*
X125681838Y-108616834D01*
X125480256Y-108596980D01*
X125474093Y-108597587D01*
X125284836Y-108616227D01*
X125284835Y-108616227D01*
X125278674Y-108616834D01*
X125272757Y-108618628D01*
X125272751Y-108618630D01*
X125090760Y-108673836D01*
X125090754Y-108673838D01*
X125084838Y-108675633D01*
X125079380Y-108678550D01*
X125079376Y-108678552D01*
X124911658Y-108768200D01*
X124906199Y-108771118D01*
X124901420Y-108775039D01*
X124901414Y-108775044D01*
X124754399Y-108895697D01*
X124754393Y-108895702D01*
X124749620Y-108899620D01*
X124745702Y-108904393D01*
X124745697Y-108904399D01*
X124625044Y-109051414D01*
X124625039Y-109051420D01*
X124621118Y-109056199D01*
X124618200Y-109061657D01*
X124618200Y-109061658D01*
X124528552Y-109229376D01*
X124528550Y-109229380D01*
X124525633Y-109234838D01*
X124523838Y-109240754D01*
X124523836Y-109240760D01*
X124468630Y-109422751D01*
X124468628Y-109422757D01*
X124466834Y-109428674D01*
X124446980Y-109630256D01*
X108991900Y-109630256D01*
X108991900Y-107834205D01*
X122650929Y-107834205D01*
X122670783Y-108035787D01*
X122729582Y-108229623D01*
X122825067Y-108408262D01*
X122953569Y-108564841D01*
X123110148Y-108693343D01*
X123288787Y-108788828D01*
X123482623Y-108847627D01*
X123684205Y-108867481D01*
X123885787Y-108847627D01*
X124079623Y-108788828D01*
X124258262Y-108693343D01*
X124414841Y-108564841D01*
X124543343Y-108408262D01*
X124638828Y-108229623D01*
X124697627Y-108035787D01*
X124717481Y-107834205D01*
X124697627Y-107632623D01*
X124638828Y-107438787D01*
X124543343Y-107260148D01*
X124414841Y-107103569D01*
X124258262Y-106975067D01*
X124079623Y-106879582D01*
X124073702Y-106877786D01*
X124073700Y-106877785D01*
X123891709Y-106822579D01*
X123891705Y-106822578D01*
X123885787Y-106820783D01*
X123684205Y-106800929D01*
X123678042Y-106801536D01*
X123488785Y-106820176D01*
X123488784Y-106820176D01*
X123482623Y-106820783D01*
X123476706Y-106822577D01*
X123476700Y-106822579D01*
X123294709Y-106877785D01*
X123294703Y-106877787D01*
X123288787Y-106879582D01*
X123283329Y-106882499D01*
X123283325Y-106882501D01*
X123115607Y-106972149D01*
X123110148Y-106975067D01*
X123105369Y-106978988D01*
X123105363Y-106978993D01*
X122958348Y-107099646D01*
X122958342Y-107099651D01*
X122953569Y-107103569D01*
X122949651Y-107108342D01*
X122949646Y-107108348D01*
X122828993Y-107255363D01*
X122828988Y-107255369D01*
X122825067Y-107260148D01*
X122822149Y-107265606D01*
X122822149Y-107265607D01*
X122732501Y-107433325D01*
X122732499Y-107433329D01*
X122729582Y-107438787D01*
X122727787Y-107444703D01*
X122727785Y-107444709D01*
X122672579Y-107626700D01*
X122672577Y-107626706D01*
X122670783Y-107632623D01*
X122650929Y-107834205D01*
X108991900Y-107834205D01*
X108991900Y-106038154D01*
X120854878Y-106038154D01*
X120874732Y-106239736D01*
X120933531Y-106433572D01*
X121029016Y-106612211D01*
X121157518Y-106768790D01*
X121314097Y-106897292D01*
X121492736Y-106992777D01*
X121686572Y-107051576D01*
X121888154Y-107071430D01*
X122089736Y-107051576D01*
X122283572Y-106992777D01*
X122462211Y-106897292D01*
X122618790Y-106768790D01*
X122747292Y-106612211D01*
X122842777Y-106433572D01*
X122901576Y-106239736D01*
X122921430Y-106038154D01*
X122901576Y-105836572D01*
X122842777Y-105642736D01*
X122747292Y-105464097D01*
X122618790Y-105307518D01*
X122485978Y-105198521D01*
X122466995Y-105182942D01*
X122466993Y-105182941D01*
X122462211Y-105179016D01*
X122283572Y-105083531D01*
X122277651Y-105081735D01*
X122277649Y-105081734D01*
X122095658Y-105026528D01*
X122095654Y-105026527D01*
X122089736Y-105024732D01*
X121888154Y-105004878D01*
X121881991Y-105005485D01*
X121692734Y-105024125D01*
X121692733Y-105024125D01*
X121686572Y-105024732D01*
X121680655Y-105026526D01*
X121680649Y-105026528D01*
X121498658Y-105081734D01*
X121498652Y-105081736D01*
X121492736Y-105083531D01*
X121487278Y-105086448D01*
X121487274Y-105086450D01*
X121319556Y-105176098D01*
X121314097Y-105179016D01*
X121309318Y-105182937D01*
X121309312Y-105182942D01*
X121162297Y-105303595D01*
X121162291Y-105303600D01*
X121157518Y-105307518D01*
X121153600Y-105312291D01*
X121153595Y-105312297D01*
X121032942Y-105459312D01*
X121032937Y-105459318D01*
X121029016Y-105464097D01*
X121026098Y-105469555D01*
X121026098Y-105469556D01*
X120936450Y-105637274D01*
X120936448Y-105637278D01*
X120933531Y-105642736D01*
X120931736Y-105648652D01*
X120931734Y-105648658D01*
X120876528Y-105830649D01*
X120876526Y-105830655D01*
X120874732Y-105836572D01*
X120854878Y-106038154D01*
X108991900Y-106038154D01*
X108991900Y-104242102D01*
X119058826Y-104242102D01*
X119078680Y-104443684D01*
X119080475Y-104449602D01*
X119080476Y-104449606D01*
X119135682Y-104631597D01*
X119137479Y-104637520D01*
X119232964Y-104816159D01*
X119361466Y-104972738D01*
X119518045Y-105101240D01*
X119696684Y-105196725D01*
X119890520Y-105255524D01*
X120092102Y-105275378D01*
X120293684Y-105255524D01*
X120487520Y-105196725D01*
X120666159Y-105101240D01*
X120822738Y-104972738D01*
X120951240Y-104816159D01*
X121046725Y-104637520D01*
X121105524Y-104443684D01*
X121125378Y-104242102D01*
X121105524Y-104040520D01*
X121046725Y-103846684D01*
X120951240Y-103668045D01*
X120822738Y-103511466D01*
X120666159Y-103382964D01*
X120487520Y-103287479D01*
X120481599Y-103285683D01*
X120481597Y-103285682D01*
X120299606Y-103230476D01*
X120299602Y-103230475D01*
X120293684Y-103228680D01*
X120092102Y-103208826D01*
X120085939Y-103209433D01*
X119896682Y-103228073D01*
X119896681Y-103228073D01*
X119890520Y-103228680D01*
X119884603Y-103230474D01*
X119884597Y-103230476D01*
X119702606Y-103285682D01*
X119702600Y-103285684D01*
X119696684Y-103287479D01*
X119691226Y-103290396D01*
X119691222Y-103290398D01*
X119523504Y-103380046D01*
X119518045Y-103382964D01*
X119513266Y-103386885D01*
X119513260Y-103386890D01*
X119366245Y-103507543D01*
X119366239Y-103507548D01*
X119361466Y-103511466D01*
X119357548Y-103516239D01*
X119357543Y-103516245D01*
X119236890Y-103663260D01*
X119236885Y-103663266D01*
X119232964Y-103668045D01*
X119230046Y-103673503D01*
X119230046Y-103673504D01*
X119140398Y-103841222D01*
X119140396Y-103841226D01*
X119137479Y-103846684D01*
X119135684Y-103852600D01*
X119135682Y-103852606D01*
X119080476Y-104034597D01*
X119080474Y-104034603D01*
X119078680Y-104040520D01*
X119058826Y-104242102D01*
X108991900Y-104242102D01*
X108991900Y-100906890D01*
X114859947Y-100906890D01*
X114862022Y-100918393D01*
X114862892Y-100920298D01*
X114871116Y-100933610D01*
X114902229Y-100972221D01*
X114906739Y-100977241D01*
X116172758Y-102243260D01*
X116177778Y-102247770D01*
X116216389Y-102278883D01*
X116229701Y-102287107D01*
X116231606Y-102287977D01*
X116243109Y-102290052D01*
X116246000Y-102278726D01*
X116754000Y-102278726D01*
X116756890Y-102290052D01*
X116768393Y-102287977D01*
X116770298Y-102287107D01*
X116783610Y-102278883D01*
X116822221Y-102247770D01*
X116827231Y-102243269D01*
X117125755Y-101944745D01*
X117183037Y-101911923D01*
X117249052Y-101912571D01*
X117305678Y-101946511D01*
X117337369Y-102004425D01*
X117335426Y-102070415D01*
X117284426Y-102238543D01*
X117284424Y-102238548D01*
X117282629Y-102244469D01*
X117282022Y-102250630D01*
X117282022Y-102250631D01*
X117278344Y-102287977D01*
X117262775Y-102446051D01*
X117282629Y-102647633D01*
X117341428Y-102841469D01*
X117436913Y-103020108D01*
X117565415Y-103176687D01*
X117721994Y-103305189D01*
X117900633Y-103400674D01*
X118094469Y-103459473D01*
X118296051Y-103479327D01*
X118497633Y-103459473D01*
X118691469Y-103400674D01*
X118870108Y-103305189D01*
X119026687Y-103176687D01*
X119155189Y-103020108D01*
X119250674Y-102841469D01*
X119309473Y-102647633D01*
X119329327Y-102446051D01*
X119309473Y-102244469D01*
X119250674Y-102050633D01*
X119155189Y-101871994D01*
X119026687Y-101715415D01*
X118870108Y-101586913D01*
X118691469Y-101491428D01*
X118685548Y-101489632D01*
X118685546Y-101489631D01*
X118503555Y-101434425D01*
X118503551Y-101434424D01*
X118497633Y-101432629D01*
X118296051Y-101412775D01*
X118289888Y-101413382D01*
X118100631Y-101432022D01*
X118100630Y-101432022D01*
X118094469Y-101432629D01*
X118088548Y-101434424D01*
X118088543Y-101434426D01*
X117920415Y-101485426D01*
X117854425Y-101487369D01*
X117796511Y-101455678D01*
X117762571Y-101399052D01*
X117761923Y-101333037D01*
X117794745Y-101275755D01*
X118093269Y-100977231D01*
X118097770Y-100972221D01*
X118128883Y-100933610D01*
X118137107Y-100920298D01*
X118137977Y-100918393D01*
X118140052Y-100906890D01*
X118128726Y-100904000D01*
X116770590Y-100904000D01*
X116757506Y-100907506D01*
X116754000Y-100920590D01*
X116754000Y-102278726D01*
X116246000Y-102278726D01*
X116246000Y-100920590D01*
X116242493Y-100907506D01*
X116229410Y-100904000D01*
X114871274Y-100904000D01*
X114859947Y-100906890D01*
X108991900Y-100906890D01*
X108991900Y-100393109D01*
X114859947Y-100393109D01*
X114871274Y-100396000D01*
X116229410Y-100396000D01*
X116242493Y-100392493D01*
X116246000Y-100379410D01*
X116754000Y-100379410D01*
X116757506Y-100392493D01*
X116770590Y-100396000D01*
X118128726Y-100396000D01*
X118140052Y-100393109D01*
X118137977Y-100381606D01*
X118137107Y-100379701D01*
X118128883Y-100366389D01*
X118097770Y-100327778D01*
X118093260Y-100322758D01*
X116827241Y-99056739D01*
X116822221Y-99052229D01*
X116783610Y-99021116D01*
X116770298Y-99012892D01*
X116768393Y-99012022D01*
X116756890Y-99009947D01*
X116754000Y-99021274D01*
X116754000Y-100379410D01*
X116246000Y-100379410D01*
X116246000Y-99021274D01*
X116243109Y-99009947D01*
X116231606Y-99012022D01*
X116229701Y-99012892D01*
X116216389Y-99021116D01*
X116177778Y-99052229D01*
X116172758Y-99056739D01*
X114906739Y-100322758D01*
X114902229Y-100327778D01*
X114871116Y-100366389D01*
X114862892Y-100379701D01*
X114862022Y-100381606D01*
X114859947Y-100393109D01*
X108991900Y-100393109D01*
X108991900Y-95605600D01*
X111546732Y-95605600D01*
X111566565Y-95832292D01*
X111625461Y-96052096D01*
X111721632Y-96258334D01*
X111724784Y-96262835D01*
X111724786Y-96262839D01*
X111848993Y-96440227D01*
X111848997Y-96440231D01*
X111852153Y-96444739D01*
X112013061Y-96605647D01*
X112017569Y-96608803D01*
X112017572Y-96608806D01*
X112194960Y-96733013D01*
X112199466Y-96736168D01*
X112405704Y-96832339D01*
X112625508Y-96891235D01*
X112795416Y-96906100D01*
X112906244Y-96906100D01*
X112908984Y-96906100D01*
X113078892Y-96891235D01*
X113298696Y-96832339D01*
X113504934Y-96736168D01*
X113691339Y-96605647D01*
X113852247Y-96444739D01*
X113982768Y-96258334D01*
X114078939Y-96052096D01*
X114137835Y-95832292D01*
X114157668Y-95605600D01*
X114137835Y-95378908D01*
X114078939Y-95159104D01*
X113982768Y-94952866D01*
X113852247Y-94766461D01*
X113691339Y-94605553D01*
X113686831Y-94602397D01*
X113686827Y-94602393D01*
X113509439Y-94478186D01*
X113509435Y-94478184D01*
X113504934Y-94475032D01*
X113298696Y-94378861D01*
X113293388Y-94377438D01*
X113293386Y-94377438D01*
X113084206Y-94321389D01*
X113084207Y-94321389D01*
X113078892Y-94319965D01*
X113073416Y-94319485D01*
X113073411Y-94319485D01*
X112911707Y-94305338D01*
X112911701Y-94305337D01*
X112908984Y-94305100D01*
X112795416Y-94305100D01*
X112792699Y-94305337D01*
X112792692Y-94305338D01*
X112630988Y-94319485D01*
X112630981Y-94319486D01*
X112625508Y-94319965D01*
X112620194Y-94321388D01*
X112620193Y-94321389D01*
X112411013Y-94377438D01*
X112411008Y-94377439D01*
X112405704Y-94378861D01*
X112400727Y-94381181D01*
X112400721Y-94381184D01*
X112204447Y-94472709D01*
X112204444Y-94472710D01*
X112199466Y-94475032D01*
X112194969Y-94478180D01*
X112194960Y-94478186D01*
X112017572Y-94602393D01*
X112017561Y-94602401D01*
X112013061Y-94605553D01*
X112009171Y-94609442D01*
X112009165Y-94609448D01*
X111856048Y-94762565D01*
X111856042Y-94762571D01*
X111852153Y-94766461D01*
X111849001Y-94770961D01*
X111848993Y-94770972D01*
X111724786Y-94948360D01*
X111724780Y-94948369D01*
X111721632Y-94952866D01*
X111719310Y-94957844D01*
X111719309Y-94957847D01*
X111627784Y-95154121D01*
X111627781Y-95154127D01*
X111625461Y-95159104D01*
X111566565Y-95378908D01*
X111566086Y-95384381D01*
X111566085Y-95384388D01*
X111547211Y-95600125D01*
X111546732Y-95605600D01*
X108991900Y-95605600D01*
X108991900Y-94260998D01*
X109001491Y-94212780D01*
X109028805Y-94171903D01*
X110497034Y-92703674D01*
X114922328Y-88278378D01*
X114978869Y-88245753D01*
X115044151Y-88245802D01*
X115100647Y-88278512D01*
X123419124Y-96621600D01*
X123559627Y-96762518D01*
X123586844Y-96803350D01*
X123596400Y-96851482D01*
X123596400Y-103886000D01*
X127558800Y-107848400D01*
X127571210Y-107848400D01*
X134146210Y-107848400D01*
X134162800Y-107848400D01*
X134162800Y-106983800D01*
X134179681Y-106920800D01*
X134225800Y-106874681D01*
X134288800Y-106857800D01*
X150787390Y-106857800D01*
X150799800Y-106857800D01*
X152196800Y-105460800D01*
X152171550Y-96673999D01*
X152181071Y-96625589D01*
X152208451Y-96584548D01*
X162394353Y-86398646D01*
X162450835Y-86366036D01*
X162516057Y-86366036D01*
X162572541Y-86398648D01*
G37*
%TD.AperFunction*%
%TD*%
D19*
X170357800Y-94183200D02*
X170357800Y-119557800D01*
X152374600Y-137541000D01*
X126949200Y-137541000D01*
X108991400Y-119583200D01*
X108991400Y-94208600D01*
X126974600Y-76225400D01*
X152400000Y-76225400D01*
X170357800Y-94183200D01*
M02*
