%TF.GenerationSoftware,KiCad,Pcbnew,(7.0.0)*%
%TF.CreationDate,2023-03-06T19:23:03-05:00*%
%TF.ProjectId,cyton daisy,6379746f-6e20-4646-9169-73792e6b6963,rev?*%
%TF.SameCoordinates,Original*%
%TF.FileFunction,Copper,L1,Top*%
%TF.FilePolarity,Positive*%
%FSLAX46Y46*%
G04 Gerber Fmt 4.6, Leading zero omitted, Abs format (unit mm)*
G04 Created by KiCad (PCBNEW (7.0.0)) date 2023-03-06 19:23:03*
%MOMM*%
%LPD*%
G01*
G04 APERTURE LIST*
G04 Aperture macros list*
%AMRoundRect*
0 Rectangle with rounded corners*
0 $1 Rounding radius*
0 $2 $3 $4 $5 $6 $7 $8 $9 X,Y pos of 4 corners*
0 Add a 4 corners polygon primitive as box body*
4,1,4,$2,$3,$4,$5,$6,$7,$8,$9,$2,$3,0*
0 Add four circle primitives for the rounded corners*
1,1,$1+$1,$2,$3*
1,1,$1+$1,$4,$5*
1,1,$1+$1,$6,$7*
1,1,$1+$1,$8,$9*
0 Add four rect primitives between the rounded corners*
20,1,$1+$1,$2,$3,$4,$5,0*
20,1,$1+$1,$4,$5,$6,$7,0*
20,1,$1+$1,$6,$7,$8,$9,0*
20,1,$1+$1,$8,$9,$2,$3,0*%
%AMHorizOval*
0 Thick line with rounded ends*
0 $1 width*
0 $2 $3 position (X,Y) of the first rounded end (center of the circle)*
0 $4 $5 position (X,Y) of the second rounded end (center of the circle)*
0 Add line between two ends*
20,1,$1,$2,$3,$4,$5,0*
0 Add two circle primitives to create the rounded ends*
1,1,$1,$2,$3*
1,1,$1,$4,$5*%
%AMRotRect*
0 Rectangle, with rotation*
0 The origin of the aperture is its center*
0 $1 length*
0 $2 width*
0 $3 Rotation angle, in degrees counterclockwise*
0 Add horizontal line*
21,1,$1,$2,0,0,$3*%
G04 Aperture macros list end*
%TA.AperFunction,SMDPad,CuDef*%
%ADD10RoundRect,0.225000X0.225000X0.250000X-0.225000X0.250000X-0.225000X-0.250000X0.225000X-0.250000X0*%
%TD*%
%TA.AperFunction,SMDPad,CuDef*%
%ADD11RoundRect,0.037100X-0.227900X0.447900X-0.227900X-0.447900X0.227900X-0.447900X0.227900X0.447900X0*%
%TD*%
%TA.AperFunction,SMDPad,CuDef*%
%ADD12RoundRect,0.037100X0.227900X-0.447900X0.227900X0.447900X-0.227900X0.447900X-0.227900X-0.447900X0*%
%TD*%
%TA.AperFunction,SMDPad,CuDef*%
%ADD13RoundRect,0.140000X0.170000X-0.140000X0.170000X0.140000X-0.170000X0.140000X-0.170000X-0.140000X0*%
%TD*%
%TA.AperFunction,SMDPad,CuDef*%
%ADD14RoundRect,0.140000X-0.170000X0.140000X-0.170000X-0.140000X0.170000X-0.140000X0.170000X0.140000X0*%
%TD*%
%TA.AperFunction,SMDPad,CuDef*%
%ADD15RoundRect,0.135000X-0.185000X0.135000X-0.185000X-0.135000X0.185000X-0.135000X0.185000X0.135000X0*%
%TD*%
%TA.AperFunction,SMDPad,CuDef*%
%ADD16RoundRect,0.140000X-0.140000X-0.170000X0.140000X-0.170000X0.140000X0.170000X-0.140000X0.170000X0*%
%TD*%
%TA.AperFunction,ComponentPad*%
%ADD17R,1.700000X1.700000*%
%TD*%
%TA.AperFunction,ComponentPad*%
%ADD18O,1.700000X1.700000*%
%TD*%
%TA.AperFunction,SMDPad,CuDef*%
%ADD19RoundRect,0.075000X-0.075000X0.662500X-0.075000X-0.662500X0.075000X-0.662500X0.075000X0.662500X0*%
%TD*%
%TA.AperFunction,SMDPad,CuDef*%
%ADD20RoundRect,0.075000X-0.662500X0.075000X-0.662500X-0.075000X0.662500X-0.075000X0.662500X0.075000X0*%
%TD*%
%TA.AperFunction,ComponentPad*%
%ADD21RotRect,1.700000X1.700000X45.000000*%
%TD*%
%TA.AperFunction,ComponentPad*%
%ADD22HorizOval,1.700000X0.000000X0.000000X0.000000X0.000000X0*%
%TD*%
%TA.AperFunction,SMDPad,CuDef*%
%ADD23RoundRect,0.250000X-0.325000X-0.650000X0.325000X-0.650000X0.325000X0.650000X-0.325000X0.650000X0*%
%TD*%
%TA.AperFunction,ViaPad*%
%ADD24C,0.800000*%
%TD*%
%TA.AperFunction,Conductor*%
%ADD25C,0.250000*%
%TD*%
%TA.AperFunction,Conductor*%
%ADD26C,0.203200*%
%TD*%
%TA.AperFunction,Conductor*%
%ADD27C,0.406400*%
%TD*%
%TA.AperFunction,Conductor*%
%ADD28C,0.304800*%
%TD*%
%TA.AperFunction,Conductor*%
%ADD29C,0.254000*%
%TD*%
%TA.AperFunction,Profile*%
%ADD30C,0.101600*%
%TD*%
G04 APERTURE END LIST*
D10*
%TO.P,C13,1*%
%TO.N,Net-(U1-VREFP)*%
X129603800Y-101625400D03*
%TO.P,C13,2*%
%TO.N,VSSA*%
X128053800Y-101625400D03*
%TD*%
D11*
%TO.P,R2,1*%
%TO.N,/3N*%
X134683200Y-89916000D03*
%TO.P,R2,2*%
%TO.N,/3P*%
X133883200Y-89916000D03*
%TO.P,R2,3*%
%TO.N,/2N*%
X133083200Y-89916000D03*
%TO.P,R2,4*%
%TO.N,/2P*%
X132283200Y-89916000D03*
D12*
%TO.P,R2,5*%
%TO.N,/Daisy Functionality/IN2P*%
X132283200Y-91666000D03*
%TO.P,R2,6*%
%TO.N,/Daisy Functionality/IN2N*%
X133083200Y-91666000D03*
%TO.P,R2,7*%
%TO.N,/Daisy Functionality/IN3P*%
X133883200Y-91666000D03*
%TO.P,R2,8*%
%TO.N,/Daisy Functionality/IN3N*%
X134683200Y-91666000D03*
%TD*%
D13*
%TO.P,C14,1*%
%TO.N,Net-(U1-VREFP)*%
X131343400Y-101648200D03*
%TO.P,C14,2*%
%TO.N,VSSA*%
X131343400Y-100688200D03*
%TD*%
D14*
%TO.P,C15,1*%
%TO.N,/Daisy Functionality/BIAS_DRV*%
X147143900Y-97528000D03*
%TO.P,C15,2*%
%TO.N,Net-(U1-RLDIN)*%
X147143900Y-98488000D03*
%TD*%
D15*
%TO.P,R6,1*%
%TO.N,/Daisy Functionality/BIAS_DRV*%
X146102500Y-97496000D03*
%TO.P,R6,2*%
%TO.N,Net-(U1-RLDIN)*%
X146102500Y-98516000D03*
%TD*%
D11*
%TO.P,R1,1*%
%TO.N,/1N*%
X129603200Y-89916000D03*
%TO.P,R1,2*%
%TO.N,/1P*%
X128803200Y-89916000D03*
%TO.P,R1,3*%
%TO.N,/SRB2*%
X128003200Y-89916000D03*
%TO.P,R1,4*%
%TO.N,/SRB1*%
X127203200Y-89916000D03*
D12*
%TO.P,R1,5*%
%TO.N,/Daisy Functionality/_SRB1*%
X127203200Y-91666000D03*
%TO.P,R1,6*%
%TO.N,/Daisy Functionality/_SRB2*%
X128003200Y-91666000D03*
%TO.P,R1,7*%
%TO.N,/Daisy Functionality/IN1P*%
X128803200Y-91666000D03*
%TO.P,R1,8*%
%TO.N,/Daisy Functionality/IN1N*%
X129603200Y-91666000D03*
%TD*%
D16*
%TO.P,C11,1*%
%TO.N,VSSA*%
X130281800Y-106146600D03*
%TO.P,C11,2*%
%TO.N,Net-(U1-VCAP2)*%
X131241800Y-106146600D03*
%TD*%
D11*
%TO.P,R5,1*%
%TO.N,/BIAS*%
X149923200Y-89941400D03*
%TO.P,R5,2*%
%TO.N,GNDA*%
X149123200Y-89941400D03*
%TO.P,R5,3*%
%TO.N,/8N*%
X148323200Y-89941400D03*
%TO.P,R5,4*%
%TO.N,/8P*%
X147523200Y-89941400D03*
D12*
%TO.P,R5,5*%
%TO.N,/Daisy Functionality/IN8P*%
X147523200Y-91691400D03*
%TO.P,R5,6*%
%TO.N,/Daisy Functionality/IN8N*%
X148323200Y-91691400D03*
%TO.P,R5,7*%
%TO.N,GNDA*%
X149123200Y-91691400D03*
%TO.P,R5,8*%
%TO.N,/Daisy Functionality/BIAS_DRV*%
X149923200Y-91691400D03*
%TD*%
D16*
%TO.P,C19,1*%
%TO.N,VDD*%
X142392400Y-110388400D03*
%TO.P,C19,2*%
%TO.N,GNDA*%
X143352400Y-110388400D03*
%TD*%
D17*
%TO.P,J1,1,Pin_1*%
%TO.N,VSSA*%
X124663199Y-84988399D03*
D18*
%TO.P,J1,2,Pin_2*%
X124663199Y-82448399D03*
%TO.P,J1,3,Pin_3*%
%TO.N,/SRB1*%
X127203199Y-84988399D03*
%TO.P,J1,4,Pin_4*%
%TO.N,/SRB2*%
X127203199Y-82448399D03*
%TO.P,J1,5,Pin_5*%
%TO.N,/1P*%
X129743199Y-84988399D03*
%TO.P,J1,6,Pin_6*%
%TO.N,/1N*%
X129743199Y-82448399D03*
%TO.P,J1,7,Pin_7*%
%TO.N,/2P*%
X132283199Y-84988399D03*
%TO.P,J1,8,Pin_8*%
%TO.N,/2N*%
X132283199Y-82448399D03*
%TO.P,J1,9,Pin_9*%
%TO.N,/3P*%
X134823199Y-84988399D03*
%TO.P,J1,10,Pin_10*%
%TO.N,/3N*%
X134823199Y-82448399D03*
%TO.P,J1,11,Pin_11*%
%TO.N,/4P*%
X137363199Y-84988399D03*
%TO.P,J1,12,Pin_12*%
%TO.N,/4N*%
X137363199Y-82448399D03*
%TO.P,J1,13,Pin_13*%
%TO.N,/5P*%
X139903199Y-84988399D03*
%TO.P,J1,14,Pin_14*%
%TO.N,/5N*%
X139903199Y-82448399D03*
%TO.P,J1,15,Pin_15*%
%TO.N,/6P*%
X142443199Y-84988399D03*
%TO.P,J1,16,Pin_16*%
%TO.N,/6N*%
X142443199Y-82448399D03*
%TO.P,J1,17,Pin_17*%
%TO.N,/7P*%
X144983199Y-84988399D03*
%TO.P,J1,18,Pin_18*%
%TO.N,/7N*%
X144983199Y-82448399D03*
%TO.P,J1,19,Pin_19*%
%TO.N,/8P*%
X147523199Y-84988399D03*
%TO.P,J1,20,Pin_20*%
%TO.N,/8N*%
X147523199Y-82448399D03*
%TO.P,J1,21,Pin_21*%
%TO.N,/BIAS*%
X150063199Y-84988399D03*
%TO.P,J1,22,Pin_22*%
X150063199Y-82448399D03*
%TO.P,J1,23,Pin_23*%
%TO.N,GNDA*%
X152603199Y-84988399D03*
%TO.P,J1,24,Pin_24*%
X152603199Y-82448399D03*
%TO.P,J1,25,Pin_25*%
%TO.N,VDDA*%
X155143199Y-84988399D03*
%TO.P,J1,26,Pin_26*%
X155143199Y-82448399D03*
%TD*%
D14*
%TO.P,C10,1*%
%TO.N,VSSA*%
X146075400Y-101650800D03*
%TO.P,C10,2*%
%TO.N,Net-(U1-VCAP3)*%
X146075400Y-102610800D03*
%TD*%
D19*
%TO.P,U1,1,IN8N*%
%TO.N,/Daisy Functionality/IN8N*%
X142384900Y-96206300D03*
%TO.P,U1,2,IN8P*%
%TO.N,/Daisy Functionality/IN8P*%
X141884900Y-96206300D03*
%TO.P,U1,3,IN7P*%
%TO.N,/Daisy Functionality/IN7N*%
X141384900Y-96206300D03*
%TO.P,U1,4,IN7N*%
%TO.N,/Daisy Functionality/IN7P*%
X140884900Y-96206300D03*
%TO.P,U1,5,IN6N*%
%TO.N,/Daisy Functionality/IN6N*%
X140384900Y-96206300D03*
%TO.P,U1,6,IN6P*%
%TO.N,/Daisy Functionality/IN6P*%
X139884900Y-96206300D03*
%TO.P,U1,7,IN5N*%
%TO.N,/Daisy Functionality/IN5N*%
X139384900Y-96206300D03*
%TO.P,U1,8,IN5P*%
%TO.N,/Daisy Functionality/IN5P*%
X138884900Y-96206300D03*
%TO.P,U1,9,IN4N*%
%TO.N,/Daisy Functionality/IN4N*%
X138384900Y-96206300D03*
%TO.P,U1,10,IN4P*%
%TO.N,/Daisy Functionality/IN4P*%
X137884900Y-96206300D03*
%TO.P,U1,11,IN3N*%
%TO.N,/Daisy Functionality/IN3N*%
X137384900Y-96206300D03*
%TO.P,U1,12,IN3P*%
%TO.N,/Daisy Functionality/IN3P*%
X136884900Y-96206300D03*
%TO.P,U1,13,IN2N*%
%TO.N,/Daisy Functionality/IN2N*%
X136384900Y-96206300D03*
%TO.P,U1,14,IN2P*%
%TO.N,/Daisy Functionality/IN2P*%
X135884900Y-96206300D03*
%TO.P,U1,15,IN1N*%
%TO.N,/Daisy Functionality/IN1N*%
X135384900Y-96206300D03*
%TO.P,U1,16,IN1P*%
%TO.N,/Daisy Functionality/IN1P*%
X134884900Y-96206300D03*
D20*
%TO.P,U1,17,TESTP_PACE_OUT1*%
%TO.N,/Daisy Functionality/_SRB1*%
X132972400Y-98118800D03*
%TO.P,U1,18,TESTP_PACE_OUT2*%
%TO.N,/Daisy Functionality/_SRB2*%
X132972400Y-98618800D03*
%TO.P,U1,19,AVDD*%
%TO.N,VDDA*%
X132972400Y-99118800D03*
%TO.P,U1,20,AVSS*%
%TO.N,VSSA*%
X132972400Y-99618800D03*
%TO.P,U1,21,AVDD*%
%TO.N,VDDA*%
X132972400Y-100118800D03*
%TO.P,U1,22,AVDD*%
X132972400Y-100618800D03*
%TO.P,U1,23,AVSS*%
%TO.N,VSSA*%
X132972400Y-101118800D03*
%TO.P,U1,24,VREFP*%
%TO.N,Net-(U1-VREFP)*%
X132972400Y-101618800D03*
%TO.P,U1,25,VREFN*%
%TO.N,VSSA*%
X132972400Y-102118800D03*
%TO.P,U1,26,VCAP4*%
%TO.N,Net-(U1-VCAP4)*%
X132972400Y-102618800D03*
%TO.P,U1,27,NC*%
%TO.N,unconnected-(U1-NC-Pad27)*%
X132972400Y-103118800D03*
%TO.P,U1,28,VCAP1*%
%TO.N,Net-(U1-VCAP1)*%
X132972400Y-103618800D03*
%TO.P,U1,29,NC*%
%TO.N,unconnected-(U1-NC-Pad29)*%
X132972400Y-104118800D03*
%TO.P,U1,30,VCAP2*%
%TO.N,Net-(U1-VCAP2)*%
X132972400Y-104618800D03*
%TO.P,U1,31,RESV1*%
%TO.N,GNDA*%
X132972400Y-105118800D03*
%TO.P,U1,32,AVSS*%
%TO.N,VSSA*%
X132972400Y-105618800D03*
D19*
%TO.P,U1,33,DGND*%
%TO.N,GNDA*%
X134884900Y-107531300D03*
%TO.P,U1,34,DIN*%
%TO.N,/MOSI*%
X135384900Y-107531300D03*
%TO.P,U1,35,~{PWDN}*%
%TO.N,VDD*%
X135884900Y-107531300D03*
%TO.P,U1,36,~{RESET}*%
%TO.N,/RESET*%
X136384900Y-107531300D03*
%TO.P,U1,37,CLK*%
%TO.N,/CLK*%
X136884900Y-107531300D03*
%TO.P,U1,38,START*%
%TO.N,unconnected-(U1-START-Pad38)*%
X137384900Y-107531300D03*
%TO.P,U1,39,~{CS}*%
%TO.N,/CS2*%
X137884900Y-107531300D03*
%TO.P,U1,40,SCLK*%
%TO.N,/SCLK*%
X138384900Y-107531300D03*
%TO.P,U1,41,DAISY_IN*%
%TO.N,GNDA*%
X138884900Y-107531300D03*
%TO.P,U1,42,GPIO1*%
%TO.N,unconnected-(U1-GPIO1-Pad42)*%
X139384900Y-107531300D03*
%TO.P,U1,43,DOUT*%
%TO.N,/MISO*%
X139884900Y-107531300D03*
%TO.P,U1,44,GPIO2*%
%TO.N,unconnected-(U1-GPIO2-Pad44)*%
X140384900Y-107531300D03*
%TO.P,U1,45,GPIO3*%
%TO.N,unconnected-(U1-GPIO3-Pad45)*%
X140884900Y-107531300D03*
%TO.P,U1,46,GPIO4*%
%TO.N,unconnected-(U1-GPIO4-Pad46)*%
X141384900Y-107531300D03*
%TO.P,U1,47,~{DRDY}*%
%TO.N,/Daisy Functionality/DRDY*%
X141884900Y-107531300D03*
%TO.P,U1,48,DVDD*%
%TO.N,VDD*%
X142384900Y-107531300D03*
D20*
%TO.P,U1,49,DGND*%
%TO.N,GNDA*%
X144297400Y-105618800D03*
%TO.P,U1,50,DVDD*%
%TO.N,VDD*%
X144297400Y-105118800D03*
%TO.P,U1,51,DGND*%
%TO.N,GNDA*%
X144297400Y-104618800D03*
%TO.P,U1,52,CLKSEL*%
%TO.N,VDD*%
X144297400Y-104118800D03*
%TO.P,U1,53,AVSS1*%
%TO.N,VSSA*%
X144297400Y-103618800D03*
%TO.P,U1,54,AVDD1*%
%TO.N,VDDA*%
X144297400Y-103118800D03*
%TO.P,U1,55,VCAP3*%
%TO.N,Net-(U1-VCAP3)*%
X144297400Y-102618800D03*
%TO.P,U1,56,AVDD*%
%TO.N,VDDA*%
X144297400Y-102118800D03*
%TO.P,U1,57,AVSS*%
%TO.N,VSSA*%
X144297400Y-101618800D03*
%TO.P,U1,58,AVSS*%
X144297400Y-101118800D03*
%TO.P,U1,59,AVDD*%
%TO.N,VDDA*%
X144297400Y-100618800D03*
%TO.P,U1,60,RLDREF*%
%TO.N,GNDA*%
X144297400Y-100118800D03*
%TO.P,U1,61,RLDINV*%
%TO.N,/BIAS_INV*%
X144297400Y-99618800D03*
%TO.P,U1,62,RLDIN*%
%TO.N,Net-(U1-RLDIN)*%
X144297400Y-99118800D03*
%TO.P,U1,63,RLDOUT*%
X144297400Y-98618800D03*
%TO.P,U1,64,WCT*%
%TO.N,Net-(U1-WCT)*%
X144297400Y-98118800D03*
%TD*%
D14*
%TO.P,C8,1*%
%TO.N,VSSA*%
X147142200Y-101650800D03*
%TO.P,C8,2*%
%TO.N,Net-(U1-VCAP3)*%
X147142200Y-102610800D03*
%TD*%
D17*
%TO.P,J4,1,Pin_1*%
%TO.N,GNDA*%
X149910799Y-101142799D03*
D18*
%TO.P,J4,2,Pin_2*%
%TO.N,/BIAS_INV*%
X149910799Y-98602799D03*
%TD*%
D11*
%TO.P,R4,1*%
%TO.N,/7N*%
X144830600Y-89916000D03*
%TO.P,R4,2*%
%TO.N,/7P*%
X144030600Y-89916000D03*
%TO.P,R4,3*%
%TO.N,/6N*%
X143230600Y-89916000D03*
%TO.P,R4,4*%
%TO.N,/6P*%
X142430600Y-89916000D03*
D12*
%TO.P,R4,5*%
%TO.N,/Daisy Functionality/IN6P*%
X142430600Y-91666000D03*
%TO.P,R4,6*%
%TO.N,/Daisy Functionality/IN6N*%
X143230600Y-91666000D03*
%TO.P,R4,7*%
%TO.N,/Daisy Functionality/IN7P*%
X144030600Y-91666000D03*
%TO.P,R4,8*%
%TO.N,/Daisy Functionality/IN7N*%
X144830600Y-91666000D03*
%TD*%
D16*
%TO.P,C6,1*%
%TO.N,VSSA*%
X130485000Y-102844600D03*
%TO.P,C6,2*%
%TO.N,Net-(U1-VCAP4)*%
X131445000Y-102844600D03*
%TD*%
D11*
%TO.P,R3,1*%
%TO.N,/5N*%
X139763200Y-89916000D03*
%TO.P,R3,2*%
%TO.N,/5P*%
X138963200Y-89916000D03*
%TO.P,R3,3*%
%TO.N,/4N*%
X138163200Y-89916000D03*
%TO.P,R3,4*%
%TO.N,/4P*%
X137363200Y-89916000D03*
D12*
%TO.P,R3,5*%
%TO.N,/Daisy Functionality/IN4P*%
X137363200Y-91666000D03*
%TO.P,R3,6*%
%TO.N,/Daisy Functionality/IN4N*%
X138163200Y-91666000D03*
%TO.P,R3,7*%
%TO.N,/Daisy Functionality/IN5P*%
X138963200Y-91666000D03*
%TO.P,R3,8*%
%TO.N,/Daisy Functionality/IN5N*%
X139763200Y-91666000D03*
%TD*%
D16*
%TO.P,C21,1*%
%TO.N,VDD*%
X142392400Y-109347000D03*
%TO.P,C21,2*%
%TO.N,GNDA*%
X143352400Y-109347000D03*
%TD*%
D21*
%TO.P,J2,1,Pin_1*%
%TO.N,VDD*%
X116499999Y-100649999D03*
D22*
%TO.P,J2,2,Pin_2*%
%TO.N,GNDA*%
X118296050Y-102446050D03*
%TO.P,J2,3,Pin_3*%
%TO.N,/MISO*%
X120092101Y-104242101D03*
%TO.P,J2,4,Pin_4*%
%TO.N,/SCLK*%
X121888153Y-106038153D03*
%TO.P,J2,5,Pin_5*%
%TO.N,/RESET*%
X123684204Y-107834204D03*
%TO.P,J2,6,Pin_6*%
%TO.N,/CLK*%
X125480255Y-109630255D03*
%TO.P,J2,7,Pin_7*%
%TO.N,/MOSI*%
X127276306Y-111426306D03*
%TO.P,J2,8,Pin_8*%
%TO.N,/CS2*%
X129072358Y-113222358D03*
%TD*%
D23*
%TO.P,C12,1*%
%TO.N,VSSA*%
X127861800Y-104470200D03*
%TO.P,C12,2*%
%TO.N,Net-(U1-VCAP1)*%
X130811800Y-104470200D03*
%TD*%
D24*
%TO.N,/Daisy Functionality/_SRB1*%
X127003697Y-93167200D03*
%TO.N,/Daisy Functionality/_SRB2*%
X128003200Y-93167200D03*
%TO.N,/Daisy Functionality/IN1P*%
X129070100Y-93103700D03*
%TO.N,/Daisy Functionality/IN1N*%
X130086327Y-93130684D03*
%TO.N,/Daisy Functionality/IN2P*%
X132096905Y-92986254D03*
%TO.N,/Daisy Functionality/IN2N*%
X133096000Y-93014800D03*
%TO.N,/Daisy Functionality/IN3P*%
X134094731Y-92842500D03*
%TO.N,/Daisy Functionality/IN3N*%
X135275931Y-92594901D03*
%TO.N,/Daisy Functionality/IN4P*%
X137083800Y-92862400D03*
%TO.N,/Daisy Functionality/IN4N*%
X138081846Y-92916348D03*
%TO.N,/Daisy Functionality/IN5P*%
X139081343Y-92913148D03*
%TO.N,/Daisy Functionality/IN5N*%
X140080845Y-92913206D03*
%TO.N,/Daisy Functionality/IN6P*%
X141851353Y-92913928D03*
%TO.N,/Daisy Functionality/IN6N*%
X142849600Y-92964000D03*
%TO.N,/Daisy Functionality/IN7P*%
X144030600Y-93015374D03*
%TO.N,/Daisy Functionality/IN7N*%
X145237200Y-93065600D03*
%TO.N,/Daisy Functionality/IN8P*%
X147243800Y-92913200D03*
%TO.N,/Daisy Functionality/IN8N*%
X148259800Y-92964000D03*
%TO.N,/Daisy Functionality/BIAS_DRV*%
X149923200Y-93027800D03*
%TO.N,VSSA*%
X134950200Y-101803200D03*
X134950200Y-105486200D03*
X142697200Y-101650800D03*
%TO.N,VDD*%
X135509000Y-109601000D03*
X142392400Y-111785400D03*
%TO.N,VDDA*%
X141198600Y-99136200D03*
X134747000Y-99136200D03*
X145810700Y-103461822D03*
%TO.N,Net-(U1-WCT)*%
X142697200Y-98501200D03*
%TO.N,/SCLK*%
X131622800Y-114385100D03*
%TO.N,/RESET*%
X134975600Y-110845600D03*
%TO.N,/MISO*%
X132486400Y-115138200D03*
%TD*%
D25*
%TO.N,VDDA*%
X145810700Y-103461822D02*
X145467678Y-103118800D01*
X145467678Y-103118800D02*
X144297400Y-103118800D01*
%TO.N,/CS2*%
X129072359Y-113222359D02*
X134270641Y-113222359D01*
X134270641Y-113222359D02*
X137884900Y-109608100D01*
X137884900Y-109608100D02*
X137884900Y-107531300D01*
%TO.N,GNDA*%
X138884900Y-107531300D02*
X138884900Y-105767900D01*
X138884900Y-105767900D02*
X138887200Y-105765600D01*
X143352400Y-109347000D02*
X143352400Y-110388400D01*
X143354500Y-109349100D02*
X143352400Y-109347000D01*
D26*
%TO.N,/Daisy Functionality/_SRB1*%
X131519800Y-98118800D02*
X132972400Y-98118800D01*
X127003697Y-93167200D02*
X127003697Y-92680903D01*
X127003697Y-93602697D02*
X131519800Y-98118800D01*
X127003697Y-92680903D02*
X127203200Y-92481400D01*
X127203200Y-92481400D02*
X127203200Y-91666000D01*
X127003697Y-93167200D02*
X127003697Y-93602697D01*
%TO.N,/Daisy Functionality/_SRB2*%
X134045200Y-98618800D02*
X132972400Y-98618800D01*
X134442200Y-97409000D02*
X134442200Y-98221800D01*
X128003200Y-93167200D02*
X128003200Y-91666000D01*
X134061200Y-97028000D02*
X134442200Y-97409000D01*
X128003200Y-93281400D02*
X131749800Y-97028000D01*
X128003200Y-93167200D02*
X128003200Y-93281400D01*
X134442200Y-98221800D02*
X134045200Y-98618800D01*
X131749800Y-97028000D02*
X134061200Y-97028000D01*
%TO.N,/Daisy Functionality/IN1P*%
X129070100Y-93103700D02*
X128803200Y-92836800D01*
X134884900Y-95032300D02*
X134884900Y-96206300D01*
X130860800Y-94894400D02*
X134747000Y-94894400D01*
X134747000Y-94894400D02*
X134884900Y-95032300D01*
X128803200Y-92836800D02*
X128803200Y-91666000D01*
X129070100Y-93103700D02*
X130860800Y-94894400D01*
%TO.N,/Daisy Functionality/IN1N*%
X129616200Y-91679000D02*
X129603200Y-91666000D01*
X130086327Y-93130684D02*
X129616200Y-92660557D01*
X135384900Y-94966615D02*
X135384900Y-96206300D01*
X131426000Y-94494400D02*
X134912686Y-94494400D01*
X134912686Y-94494400D02*
X135384900Y-94966615D01*
X129616200Y-92660557D02*
X129616200Y-91679000D01*
X130086327Y-93154727D02*
X131426000Y-94494400D01*
X130086327Y-93130684D02*
X130086327Y-93154727D01*
%TO.N,/Daisy Functionality/IN2P*%
X132096905Y-93717505D02*
X132473800Y-94094400D01*
X132096905Y-92986254D02*
X132283200Y-92799959D01*
X132473800Y-94094400D02*
X135078372Y-94094401D01*
X132283200Y-92799959D02*
X132283200Y-91666000D01*
X135078372Y-94094401D02*
X135884900Y-94900930D01*
X132096905Y-92986254D02*
X132096905Y-93717505D01*
X135884900Y-94900930D02*
X135884900Y-96206300D01*
%TO.N,/Daisy Functionality/IN2N*%
X133775600Y-93694400D02*
X135244058Y-93694401D01*
X136384900Y-94835245D02*
X136384900Y-96206300D01*
X133096000Y-93014800D02*
X133775600Y-93694400D01*
X135244058Y-93694401D02*
X136384900Y-94835245D01*
X133096000Y-93014800D02*
X133083200Y-93002000D01*
X133083200Y-93002000D02*
X133083200Y-91666000D01*
%TO.N,/Daisy Functionality/IN3P*%
X134094731Y-92842500D02*
X133883200Y-92630969D01*
X133883200Y-92630969D02*
X133883200Y-91666000D01*
X135409745Y-93294401D02*
X136884900Y-94769556D01*
X136884900Y-94769556D02*
X136884900Y-96206300D01*
X134546632Y-93294401D02*
X135409745Y-93294401D01*
X134094731Y-92842500D02*
X134546632Y-93294401D01*
%TO.N,/Daisy Functionality/IN3N*%
X134683200Y-92002170D02*
X134683200Y-91666000D01*
X135275931Y-92594901D02*
X137384900Y-94703870D01*
X135275931Y-92594901D02*
X134683200Y-92002170D01*
X137384900Y-94703870D02*
X137384900Y-96206300D01*
%TO.N,/Daisy Functionality/IN4P*%
X137083800Y-92862400D02*
X137083800Y-93356628D01*
X137083800Y-93356628D02*
X137884900Y-94157728D01*
X137363200Y-92583000D02*
X137083800Y-92862400D01*
X137884900Y-94157728D02*
X137884900Y-96206300D01*
X137363200Y-91666000D02*
X137363200Y-92583000D01*
%TO.N,/Daisy Functionality/IN4N*%
X138081846Y-92916348D02*
X138081846Y-92473754D01*
X138384900Y-93219402D02*
X138384900Y-96206300D01*
X138081846Y-92916348D02*
X138384900Y-93219402D01*
X138163200Y-92392400D02*
X138163200Y-91666000D01*
X138081846Y-92473754D02*
X138163200Y-92392400D01*
%TO.N,/Daisy Functionality/IN5P*%
X138884900Y-94287100D02*
X138884900Y-96206300D01*
X138963200Y-92795005D02*
X138963200Y-91666000D01*
X139081343Y-92913148D02*
X139081343Y-94090657D01*
X139081343Y-94090657D02*
X138884900Y-94287100D01*
X139081343Y-92913148D02*
X138963200Y-92795005D01*
%TO.N,/Daisy Functionality/IN5N*%
X140080845Y-94030955D02*
X139384900Y-94726900D01*
X140080845Y-92913206D02*
X140080845Y-94030955D01*
X140080845Y-91983645D02*
X139763200Y-91666000D01*
X140080845Y-92913206D02*
X140080845Y-91983645D01*
X139384900Y-94726900D02*
X139384900Y-96206300D01*
%TO.N,/Daisy Functionality/IN6P*%
X142430600Y-92346220D02*
X142430600Y-91666000D01*
X139884900Y-94848128D02*
X139884900Y-96206300D01*
X141819100Y-92913928D02*
X139884900Y-94848128D01*
X141851353Y-92913928D02*
X141819100Y-92913928D01*
X141862892Y-92913928D02*
X142430600Y-92346220D01*
X141851353Y-92913928D02*
X141862892Y-92913928D01*
%TO.N,/Daisy Functionality/IN6N*%
X141636114Y-93662600D02*
X140384900Y-94913814D01*
X143230600Y-92583000D02*
X143230600Y-91666000D01*
X142849600Y-92964000D02*
X142849600Y-92989400D01*
X142849600Y-92964000D02*
X143230600Y-92583000D01*
X142176400Y-93662600D02*
X141636114Y-93662600D01*
X140384900Y-94913814D02*
X140384900Y-96206300D01*
X142849600Y-92989400D02*
X142176400Y-93662600D01*
%TO.N,/Daisy Functionality/IN7P*%
X141801800Y-94062600D02*
X140884900Y-94979500D01*
X142983374Y-94062600D02*
X141801800Y-94062600D01*
X144030600Y-93015374D02*
X142983374Y-94062600D01*
X140884900Y-94979500D02*
X140884900Y-96206300D01*
X144030600Y-93015374D02*
X144030600Y-91666000D01*
%TO.N,/Daisy Functionality/IN7N*%
X145237200Y-93065600D02*
X144830600Y-92659000D01*
X145237200Y-93065600D02*
X145237200Y-93954600D01*
X144729200Y-94462600D02*
X141967486Y-94462600D01*
X141384900Y-95045186D02*
X141384900Y-96206300D01*
X145237200Y-93954600D02*
X144729200Y-94462600D01*
X141967486Y-94462600D02*
X141384900Y-95045186D01*
X144830600Y-92659000D02*
X144830600Y-91666000D01*
%TO.N,/Daisy Functionality/IN8P*%
X147243800Y-92913200D02*
X147523200Y-92633800D01*
X147523200Y-92633800D02*
X147523200Y-91691400D01*
X147243800Y-92913200D02*
X145294400Y-94862600D01*
X142271800Y-94862600D02*
X141884900Y-95249500D01*
X145294400Y-94862600D02*
X142271800Y-94862600D01*
X141884900Y-95249500D02*
X141884900Y-96206300D01*
%TO.N,/Daisy Functionality/IN8N*%
X148259800Y-92964000D02*
X148259800Y-93472000D01*
X148259800Y-93472000D02*
X145525500Y-96206300D01*
X148259800Y-92964000D02*
X148259800Y-92202000D01*
X145525500Y-96206300D02*
X142384900Y-96206300D01*
%TO.N,/Daisy Functionality/BIAS_DRV*%
X147111900Y-97496000D02*
X147143900Y-97528000D01*
X146102500Y-97496000D02*
X147111900Y-97496000D01*
X149923200Y-91691400D02*
X149923200Y-93027800D01*
X149923200Y-93027800D02*
X149923200Y-94748700D01*
X149923200Y-94748700D02*
X147143900Y-97528000D01*
D27*
%TO.N,VSSA*%
X130281800Y-106146600D02*
X128701800Y-106146600D01*
X131343400Y-100584000D02*
X130784600Y-100025200D01*
D28*
X144297400Y-101118800D02*
X143407000Y-101118800D01*
D29*
X132972400Y-99618800D02*
X131699000Y-99618800D01*
D27*
X128053800Y-102603000D02*
X127863600Y-102793200D01*
D25*
X130733800Y-106984800D02*
X130281800Y-106532800D01*
D28*
X142419800Y-101928200D02*
X142419800Y-102753750D01*
D25*
X132972400Y-106422600D02*
X132410200Y-106984800D01*
D26*
X142919200Y-101618800D02*
X142913100Y-101612700D01*
D29*
X131699000Y-99618800D02*
X131343400Y-99974400D01*
D28*
X145543400Y-101118800D02*
X146075400Y-101650800D01*
D25*
X134950200Y-101803200D02*
X134634600Y-102118800D01*
D28*
X143284850Y-103618800D02*
X144297400Y-103618800D01*
X146075400Y-101650800D02*
X147142200Y-101650800D01*
D25*
X127915000Y-102844600D02*
X127863600Y-102793200D01*
D27*
X128053800Y-100952600D02*
X128053800Y-101625400D01*
D28*
X142735300Y-101612700D02*
X142913100Y-101612700D01*
X144297400Y-101618800D02*
X146043400Y-101618800D01*
D26*
X146043400Y-101618800D02*
X146075400Y-101650800D01*
D27*
X128981200Y-100025200D02*
X128053800Y-100952600D01*
D29*
X131343400Y-99974400D02*
X131343400Y-100688200D01*
X131774000Y-101118800D02*
X131343400Y-100688200D01*
D27*
X128053800Y-101625400D02*
X128053800Y-102603000D01*
D25*
X130281800Y-106532800D02*
X130281800Y-106146600D01*
X134950200Y-101803200D02*
X134265800Y-101118800D01*
D29*
X132972400Y-101118800D02*
X131774000Y-101118800D01*
D25*
X127863600Y-104468400D02*
X127861800Y-104470200D01*
D28*
X142697200Y-101650800D02*
X142419800Y-101928200D01*
X144297400Y-101118800D02*
X145543400Y-101118800D01*
D27*
X128701800Y-106146600D02*
X127861800Y-105306600D01*
D25*
X132410200Y-106984800D02*
X130733800Y-106984800D01*
D28*
X142419800Y-102753750D02*
X143284850Y-103618800D01*
D25*
X131343400Y-100688200D02*
X131343400Y-100584000D01*
D28*
X144297400Y-101618800D02*
X142919200Y-101618800D01*
X142697200Y-101650800D02*
X142735300Y-101612700D01*
X143407000Y-101118800D02*
X142913100Y-101612700D01*
D25*
X134265800Y-101118800D02*
X132972400Y-101118800D01*
X134634600Y-102118800D02*
X132972400Y-102118800D01*
D27*
X130784600Y-100025200D02*
X128981200Y-100025200D01*
X130485000Y-102844600D02*
X127915000Y-102844600D01*
X127863600Y-102793200D02*
X127863600Y-104468400D01*
D25*
X132972400Y-105618800D02*
X132972400Y-106422600D01*
%TO.N,Net-(U1-VCAP4)*%
X132026400Y-102618800D02*
X132972400Y-102618800D01*
X131800600Y-102844600D02*
X132026400Y-102618800D01*
X131445000Y-102844600D02*
X131800600Y-102844600D01*
D26*
%TO.N,Net-(U1-VCAP3)*%
X146067400Y-102618800D02*
X146075400Y-102610800D01*
D28*
X144297400Y-102618800D02*
X146067400Y-102618800D01*
X146075400Y-102610800D02*
X147142200Y-102610800D01*
D25*
%TO.N,Net-(U1-VCAP2)*%
X131826000Y-104962015D02*
X132169215Y-104618800D01*
X131826000Y-105943385D02*
X131826000Y-104962015D01*
X132169215Y-104618800D02*
X132972400Y-104618800D01*
X131622785Y-106146600D02*
X131826000Y-105943385D01*
X131241800Y-106146600D02*
X131622785Y-106146600D01*
%TO.N,Net-(U1-VCAP1)*%
X132169215Y-103618800D02*
X132972400Y-103618800D01*
X130811800Y-104470200D02*
X131317815Y-104470200D01*
X131317815Y-104470200D02*
X132169215Y-103618800D01*
%TO.N,Net-(U1-VREFP)*%
X129626600Y-101648200D02*
X131343400Y-101648200D01*
X132972400Y-101618800D02*
X131372800Y-101618800D01*
X129603800Y-101625400D02*
X129626600Y-101648200D01*
X131372800Y-101618800D02*
X131343400Y-101648200D01*
D26*
%TO.N,Net-(U1-RLDIN)*%
X144297400Y-99118800D02*
X145499700Y-99118800D01*
X144297400Y-98618800D02*
X145999700Y-98618800D01*
X145499700Y-99118800D02*
X146102500Y-98516000D01*
X145999700Y-98618800D02*
X146102500Y-98516000D01*
X146102500Y-98516000D02*
X147115900Y-98516000D01*
X147115900Y-98516000D02*
X147143900Y-98488000D01*
D28*
%TO.N,VDD*%
X142392400Y-110388400D02*
X142392400Y-111785400D01*
X142384900Y-104782500D02*
X142384900Y-105228115D01*
D25*
X142384900Y-109339500D02*
X142392400Y-109347000D01*
X142494215Y-105118800D02*
X142384900Y-105228115D01*
D28*
X142384900Y-107531300D02*
X142384900Y-109339500D01*
X144297400Y-104118800D02*
X143048600Y-104118800D01*
D25*
X135884900Y-109225100D02*
X135884900Y-107531300D01*
D28*
X142384900Y-105228115D02*
X142384900Y-107531300D01*
X143048600Y-104118800D02*
X142384900Y-104782500D01*
D25*
X135509000Y-109601000D02*
X135884900Y-109225100D01*
D28*
X144297400Y-105118800D02*
X142494215Y-105118800D01*
X142392400Y-109347000D02*
X142392400Y-110388400D01*
%TO.N,VDDA*%
X144297400Y-100618800D02*
X142681200Y-100618800D01*
D25*
X132972400Y-100118800D02*
X134120000Y-100118800D01*
X134729600Y-99118800D02*
X134747000Y-99136200D01*
D28*
X142681200Y-100618800D02*
X141198600Y-99136200D01*
D25*
X144274800Y-103141400D02*
X144297400Y-103118800D01*
X142875000Y-102565200D02*
X143451200Y-103141400D01*
X134747000Y-99491800D02*
X134747000Y-99136200D01*
X132972400Y-100118800D02*
X132972400Y-100618800D01*
D28*
X132972400Y-99118800D02*
X134729600Y-99118800D01*
D25*
X143321400Y-102118800D02*
X142875000Y-102565200D01*
X143451200Y-103141400D02*
X144274800Y-103141400D01*
X134120000Y-100118800D02*
X134747000Y-99491800D01*
X144297400Y-102118800D02*
X143321400Y-102118800D01*
%TO.N,Net-(U1-WCT)*%
X142697200Y-98501200D02*
X143079600Y-98118800D01*
X143079600Y-98118800D02*
X144297400Y-98118800D01*
D26*
%TO.N,/1P*%
X129743200Y-84988400D02*
X129743200Y-86588600D01*
X128803200Y-87528600D02*
X128803200Y-89916000D01*
X129743200Y-86588600D02*
X128803200Y-87528600D01*
%TO.N,/SRB2*%
X127203200Y-82448400D02*
X128473200Y-83718400D01*
X128003200Y-87185600D02*
X128003200Y-89916000D01*
X128473200Y-86715600D02*
X128003200Y-87185600D01*
X128473200Y-83718400D02*
X128473200Y-86715600D01*
%TO.N,/3P*%
X133883200Y-87046000D02*
X133883200Y-89916000D01*
X134823200Y-84988400D02*
X134823200Y-86106000D01*
X134823200Y-86106000D02*
X133883200Y-87046000D01*
%TO.N,/2N*%
X133070600Y-86639400D02*
X133070600Y-89903400D01*
X133070600Y-89903400D02*
X133083200Y-89916000D01*
X132283200Y-82448400D02*
X133553200Y-83718400D01*
X133553200Y-86156800D02*
X133070600Y-86639400D01*
X133553200Y-83718400D02*
X133553200Y-86156800D01*
%TO.N,/1N*%
X129743200Y-82448400D02*
X131013200Y-83718400D01*
X131013200Y-83718400D02*
X131013200Y-86283800D01*
X129603200Y-87693800D02*
X129603200Y-89916000D01*
X131013200Y-86283800D02*
X129603200Y-87693800D01*
%TO.N,/2P*%
X132283200Y-84988400D02*
X132283200Y-89916000D01*
%TO.N,/5P*%
X139903200Y-84988400D02*
X139903200Y-86664800D01*
X138963200Y-87604800D02*
X138963200Y-89916000D01*
X139903200Y-86664800D02*
X138963200Y-87604800D01*
%TO.N,/4N*%
X137363200Y-82448400D02*
X138633200Y-83718400D01*
X138125200Y-86715600D02*
X138125200Y-89878000D01*
X138125200Y-89878000D02*
X138163200Y-89916000D01*
X138633200Y-83718400D02*
X138633200Y-86207600D01*
X138633200Y-86207600D02*
X138125200Y-86715600D01*
%TO.N,/3N*%
X134823200Y-82448400D02*
X136093200Y-83718400D01*
X136093200Y-83718400D02*
X136093200Y-85953600D01*
X134683200Y-87363600D02*
X134683200Y-89916000D01*
X136093200Y-85953600D02*
X134683200Y-87363600D01*
%TO.N,/4P*%
X137363200Y-84988400D02*
X137363200Y-89916000D01*
%TO.N,/7P*%
X144983200Y-84988400D02*
X144983200Y-86410800D01*
X144983200Y-86410800D02*
X144030600Y-87363400D01*
X144030600Y-87363400D02*
X144030600Y-89916000D01*
%TO.N,/6N*%
X143713200Y-83718400D02*
X143713200Y-86283800D01*
X143713200Y-86283800D02*
X143230600Y-86766400D01*
X142443200Y-82448400D02*
X143713200Y-83718400D01*
X143230600Y-86766400D02*
X143230600Y-89916000D01*
%TO.N,/5N*%
X141173200Y-86944200D02*
X139763200Y-88354200D01*
X139763200Y-88354200D02*
X139763200Y-89916000D01*
X139903200Y-82448400D02*
X141173200Y-83718400D01*
X141173200Y-83718400D02*
X141173200Y-86944200D01*
%TO.N,/6P*%
X142443200Y-89903400D02*
X142430600Y-89916000D01*
X142443200Y-84988400D02*
X142443200Y-89903400D01*
%TO.N,/8N*%
X148767800Y-87045800D02*
X148323200Y-87490400D01*
X147523200Y-82448400D02*
X148767800Y-83693000D01*
X148323200Y-87490400D02*
X148323200Y-89941400D01*
X148767800Y-83693000D02*
X148767800Y-87045800D01*
%TO.N,/7N*%
X146227800Y-83693000D02*
X146227800Y-86258400D01*
X146227800Y-86258400D02*
X144830600Y-87655600D01*
X144983200Y-82448400D02*
X146227800Y-83693000D01*
X144830600Y-87655600D02*
X144830600Y-89916000D01*
%TO.N,/8P*%
X147523200Y-84988400D02*
X147523200Y-89941400D01*
%TO.N,/BIAS*%
X149923200Y-88455800D02*
X149923200Y-89941400D01*
X150063200Y-82448400D02*
X150063200Y-84988400D01*
X150063200Y-88315800D02*
X149923200Y-88455800D01*
X150063200Y-84988400D02*
X150063200Y-88315800D01*
D25*
%TO.N,/SCLK*%
X131622800Y-114385100D02*
X134945900Y-114385100D01*
X134945900Y-114385100D02*
X138384900Y-110946100D01*
X138384900Y-110946100D02*
X138384900Y-107531300D01*
%TO.N,/RESET*%
X135315105Y-110845600D02*
X136384900Y-109775805D01*
X134975600Y-110845600D02*
X135315105Y-110845600D01*
X136384900Y-109775805D02*
X136384900Y-107531300D01*
%TO.N,/CLK*%
X126669800Y-112979200D02*
X127548107Y-112979200D01*
X128651000Y-111876307D02*
X132106682Y-111876307D01*
X132106682Y-111876307D02*
X132110175Y-111879800D01*
X135008200Y-111879800D02*
X136884900Y-110003100D01*
X125480256Y-109630256D02*
X125480256Y-111781144D01*
X127548107Y-112979200D02*
X128651000Y-111876307D01*
X132110175Y-111879800D02*
X135008200Y-111879800D01*
X136884900Y-110003100D02*
X136884900Y-107531300D01*
X125476000Y-111785400D02*
X126669800Y-112979200D01*
%TO.N,/MOSI*%
X132664200Y-111429800D02*
X135384900Y-108709100D01*
X127276307Y-111426307D02*
X132293078Y-111426307D01*
X132296571Y-111429800D02*
X132664200Y-111429800D01*
X135384900Y-108709100D02*
X135384900Y-107531300D01*
X132293078Y-111426307D02*
X132296571Y-111429800D01*
D26*
%TO.N,/BIAS_INV*%
X144297400Y-99618800D02*
X148894800Y-99618800D01*
X148894800Y-99618800D02*
X149910800Y-98602800D01*
D25*
%TO.N,/MISO*%
X139884900Y-110051100D02*
X139884900Y-107531300D01*
X134797800Y-115138200D02*
X139884900Y-110051100D01*
X132486400Y-115138200D02*
X134797800Y-115138200D01*
D26*
%TO.N,/SRB1*%
X127203200Y-84988400D02*
X127203200Y-89916000D01*
%TD*%
%TA.AperFunction,Conductor*%
%TO.N,GNDA*%
G36*
X152395820Y-76235491D02*
G01*
X152436697Y-76262805D01*
X162114950Y-85941058D01*
X162147562Y-85997542D01*
X162147562Y-86062764D01*
X162114950Y-86119248D01*
X151722975Y-96511224D01*
X151722972Y-96511227D01*
X151714200Y-96520000D01*
X151714200Y-96532410D01*
X151714200Y-105130842D01*
X151705137Y-105177764D01*
X151679253Y-105217934D01*
X151313673Y-105600133D01*
X150633814Y-106310894D01*
X150592269Y-106339666D01*
X150542761Y-106349800D01*
X142841600Y-106349800D01*
X142778600Y-106332919D01*
X142732481Y-106286800D01*
X142715600Y-106223800D01*
X142715600Y-105575500D01*
X142732481Y-105512500D01*
X142778600Y-105466381D01*
X142841600Y-105449500D01*
X144320831Y-105449500D01*
X144326335Y-105449500D01*
X144331754Y-105448544D01*
X144337235Y-105448065D01*
X144337255Y-105448300D01*
X144350971Y-105447100D01*
X144978659Y-105447100D01*
X144984846Y-105447100D01*
X145058733Y-105432403D01*
X145142519Y-105376419D01*
X145198503Y-105292633D01*
X145213200Y-105218746D01*
X145213200Y-105018854D01*
X145198503Y-104944967D01*
X145142519Y-104861181D01*
X145058733Y-104805197D01*
X145046563Y-104802776D01*
X145046560Y-104802775D01*
X144990914Y-104791707D01*
X144984846Y-104790500D01*
X144978659Y-104790500D01*
X144350971Y-104790500D01*
X144337255Y-104789299D01*
X144337235Y-104789535D01*
X144331754Y-104789055D01*
X144326335Y-104788100D01*
X144320831Y-104788100D01*
X143151172Y-104788100D01*
X143093969Y-104774367D01*
X143049236Y-104736161D01*
X143026723Y-104681811D01*
X143031339Y-104623164D01*
X143062077Y-104573005D01*
X143148677Y-104486405D01*
X143189554Y-104459091D01*
X143237772Y-104449500D01*
X144320831Y-104449500D01*
X144326335Y-104449500D01*
X144331754Y-104448544D01*
X144337235Y-104448065D01*
X144337255Y-104448300D01*
X144350971Y-104447100D01*
X144978659Y-104447100D01*
X144984846Y-104447100D01*
X145058733Y-104432403D01*
X145142519Y-104376419D01*
X145198503Y-104292633D01*
X145213200Y-104218746D01*
X145213200Y-104018854D01*
X145211239Y-104008994D01*
X145214007Y-103948627D01*
X145244565Y-103896492D01*
X145295883Y-103864581D01*
X145356157Y-103860234D01*
X145411519Y-103884450D01*
X145519055Y-103966966D01*
X145659733Y-104025237D01*
X145810700Y-104045112D01*
X145961667Y-104025237D01*
X146102345Y-103966966D01*
X146223148Y-103874270D01*
X146315844Y-103753467D01*
X146374115Y-103612789D01*
X146393990Y-103461822D01*
X146376379Y-103328055D01*
X146375193Y-103319043D01*
X146375192Y-103319042D01*
X146374115Y-103310855D01*
X146326931Y-103196944D01*
X146318193Y-103134101D01*
X146341190Y-103074965D01*
X146390092Y-103034534D01*
X146391147Y-103034041D01*
X146430786Y-103015558D01*
X146467939Y-102978404D01*
X146508816Y-102951091D01*
X146557034Y-102941500D01*
X146660566Y-102941500D01*
X146708784Y-102951091D01*
X146749661Y-102978405D01*
X146786814Y-103015558D01*
X146888547Y-103062997D01*
X146934904Y-103069100D01*
X147345374Y-103069100D01*
X147349496Y-103069100D01*
X147395853Y-103062997D01*
X147497586Y-103015558D01*
X147576958Y-102936186D01*
X147624397Y-102834453D01*
X147630500Y-102788096D01*
X147630500Y-102433504D01*
X147624397Y-102387147D01*
X147576958Y-102285414D01*
X147511439Y-102219895D01*
X147478827Y-102163411D01*
X147478827Y-102098189D01*
X147511439Y-102041705D01*
X147534739Y-102018405D01*
X147576958Y-101976186D01*
X147624397Y-101874453D01*
X147630500Y-101828096D01*
X147630500Y-101473504D01*
X147624397Y-101427147D01*
X147576958Y-101325414D01*
X147497586Y-101246042D01*
X147470314Y-101233325D01*
X147404590Y-101202677D01*
X147404589Y-101202676D01*
X147395853Y-101198603D01*
X147386295Y-101197344D01*
X147386293Y-101197344D01*
X147353583Y-101193038D01*
X147353582Y-101193037D01*
X147349496Y-101192500D01*
X146934904Y-101192500D01*
X146930818Y-101193037D01*
X146930816Y-101193038D01*
X146898106Y-101197344D01*
X146898102Y-101197344D01*
X146888547Y-101198603D01*
X146879812Y-101202675D01*
X146879809Y-101202677D01*
X146796806Y-101241382D01*
X146796803Y-101241383D01*
X146786814Y-101246042D01*
X146779018Y-101253837D01*
X146779015Y-101253840D01*
X146749661Y-101283195D01*
X146708784Y-101310509D01*
X146660566Y-101320100D01*
X146557034Y-101320100D01*
X146508816Y-101310509D01*
X146467939Y-101283195D01*
X146438584Y-101253840D01*
X146430786Y-101246042D01*
X146403514Y-101233325D01*
X146337790Y-101202677D01*
X146337789Y-101202676D01*
X146329053Y-101198603D01*
X146319495Y-101197344D01*
X146319493Y-101197344D01*
X146286783Y-101193038D01*
X146286782Y-101193037D01*
X146282696Y-101192500D01*
X146278574Y-101192500D01*
X146136972Y-101192500D01*
X146088754Y-101182909D01*
X146047877Y-101155596D01*
X145791343Y-100899063D01*
X145783916Y-100890958D01*
X145766333Y-100870003D01*
X145766331Y-100870002D01*
X145759249Y-100861561D01*
X145726019Y-100842375D01*
X145716754Y-100836473D01*
X145694342Y-100820780D01*
X145694341Y-100820779D01*
X145685316Y-100814460D01*
X145674675Y-100811608D01*
X145671297Y-100810033D01*
X145667791Y-100808757D01*
X145658251Y-100803249D01*
X145647400Y-100801335D01*
X145647393Y-100801333D01*
X145620458Y-100796584D01*
X145609731Y-100794206D01*
X145583314Y-100787128D01*
X145583309Y-100787127D01*
X145572667Y-100784276D01*
X145561691Y-100785236D01*
X145534432Y-100787621D01*
X145523451Y-100788100D01*
X145339200Y-100788100D01*
X145276200Y-100771219D01*
X145230081Y-100725100D01*
X145213200Y-100662100D01*
X145213200Y-100525041D01*
X145213200Y-100518854D01*
X145198503Y-100444967D01*
X145142519Y-100361181D01*
X145058733Y-100305197D01*
X145046563Y-100302776D01*
X145046560Y-100302775D01*
X144990914Y-100291707D01*
X144984846Y-100290500D01*
X144978659Y-100290500D01*
X144350971Y-100290500D01*
X144337255Y-100289299D01*
X144337235Y-100289535D01*
X144331754Y-100289055D01*
X144326335Y-100288100D01*
X144320831Y-100288100D01*
X142870370Y-100288100D01*
X142822152Y-100278509D01*
X142781275Y-100251195D01*
X141812377Y-99282297D01*
X141782158Y-99233702D01*
X141776550Y-99176757D01*
X141781890Y-99136200D01*
X141764118Y-99001204D01*
X141763093Y-98993421D01*
X141763092Y-98993420D01*
X141762015Y-98985233D01*
X141703744Y-98844555D01*
X141689508Y-98826003D01*
X141616074Y-98730302D01*
X141611048Y-98723752D01*
X141596461Y-98712559D01*
X141496798Y-98636084D01*
X141496796Y-98636083D01*
X141490245Y-98631056D01*
X141482618Y-98627896D01*
X141482615Y-98627895D01*
X141357196Y-98575945D01*
X141357195Y-98575944D01*
X141349567Y-98572785D01*
X141341384Y-98571707D01*
X141341378Y-98571706D01*
X141206788Y-98553988D01*
X141198600Y-98552910D01*
X141190412Y-98553988D01*
X141055821Y-98571706D01*
X141055813Y-98571708D01*
X141047633Y-98572785D01*
X141040006Y-98575944D01*
X141040003Y-98575945D01*
X140914584Y-98627895D01*
X140914578Y-98627898D01*
X140906955Y-98631056D01*
X140900406Y-98636080D01*
X140900401Y-98636084D01*
X140792702Y-98718725D01*
X140792697Y-98718729D01*
X140786152Y-98723752D01*
X140781129Y-98730297D01*
X140781125Y-98730302D01*
X140698484Y-98838001D01*
X140698480Y-98838006D01*
X140693456Y-98844555D01*
X140690298Y-98852178D01*
X140690295Y-98852184D01*
X140644079Y-98963760D01*
X140635185Y-98985233D01*
X140634108Y-98993413D01*
X140634106Y-98993421D01*
X140619460Y-99104679D01*
X140615310Y-99136200D01*
X140616388Y-99144385D01*
X140616388Y-99144388D01*
X140634106Y-99278978D01*
X140634107Y-99278984D01*
X140635185Y-99287167D01*
X140638344Y-99294795D01*
X140638345Y-99294796D01*
X140690295Y-99420215D01*
X140690296Y-99420218D01*
X140693456Y-99427845D01*
X140698483Y-99434396D01*
X140698484Y-99434398D01*
X140771812Y-99529960D01*
X140786152Y-99548648D01*
X140792702Y-99553674D01*
X140899298Y-99635469D01*
X140906955Y-99641344D01*
X141047633Y-99699615D01*
X141055820Y-99700692D01*
X141055821Y-99700693D01*
X141076679Y-99703439D01*
X141198600Y-99719490D01*
X141239157Y-99714150D01*
X141296102Y-99719758D01*
X141344697Y-99749977D01*
X142433250Y-100838530D01*
X142440676Y-100846633D01*
X142448923Y-100856462D01*
X142465351Y-100876039D01*
X142491010Y-100890853D01*
X142539132Y-100940575D01*
X142553740Y-101008211D01*
X142530430Y-101073363D01*
X142476230Y-101116380D01*
X142413186Y-101142494D01*
X142413179Y-101142497D01*
X142405555Y-101145656D01*
X142399006Y-101150680D01*
X142399001Y-101150684D01*
X142291302Y-101233325D01*
X142291297Y-101233329D01*
X142284752Y-101238352D01*
X142279729Y-101244897D01*
X142279725Y-101244902D01*
X142197084Y-101352601D01*
X142197080Y-101352606D01*
X142192056Y-101359155D01*
X142188898Y-101366778D01*
X142188895Y-101366784D01*
X142136945Y-101492203D01*
X142133785Y-101499833D01*
X142132708Y-101508013D01*
X142132706Y-101508021D01*
X142115632Y-101637713D01*
X142113910Y-101650800D01*
X142114988Y-101658988D01*
X142123832Y-101726167D01*
X142114600Y-101786117D01*
X142115444Y-101786344D01*
X142114980Y-101788072D01*
X142113650Y-101792285D01*
X142113466Y-101793482D01*
X142113510Y-101793498D01*
X142113429Y-101793717D01*
X142113376Y-101794057D01*
X142112606Y-101796930D01*
X142111029Y-101800312D01*
X142109756Y-101803808D01*
X142104249Y-101813349D01*
X142102335Y-101824200D01*
X142102334Y-101824205D01*
X142097583Y-101851146D01*
X142095206Y-101861871D01*
X142088127Y-101888290D01*
X142088126Y-101888293D01*
X142085276Y-101898933D01*
X142086236Y-101909907D01*
X142086236Y-101909909D01*
X142088621Y-101937168D01*
X142089100Y-101948149D01*
X142089100Y-102733801D01*
X142088620Y-102744782D01*
X142085276Y-102783017D01*
X142088127Y-102793659D01*
X142088128Y-102793664D01*
X142095206Y-102820081D01*
X142097584Y-102830808D01*
X142102333Y-102857743D01*
X142102335Y-102857750D01*
X142104249Y-102868601D01*
X142109757Y-102878141D01*
X142111033Y-102881647D01*
X142112608Y-102885025D01*
X142115460Y-102895666D01*
X142121779Y-102904691D01*
X142121780Y-102904692D01*
X142137473Y-102927104D01*
X142143375Y-102936369D01*
X142162561Y-102969599D01*
X142171003Y-102976682D01*
X142171005Y-102976685D01*
X142191964Y-102994272D01*
X142200068Y-103001698D01*
X142860666Y-103662296D01*
X142890882Y-103710884D01*
X142896495Y-103767825D01*
X142876347Y-103821377D01*
X142849049Y-103846952D01*
X142850739Y-103848966D01*
X142842297Y-103856049D01*
X142832751Y-103861561D01*
X142825667Y-103870002D01*
X142825662Y-103870007D01*
X142808085Y-103890954D01*
X142800663Y-103899054D01*
X142165160Y-104534558D01*
X142157059Y-104541982D01*
X142127661Y-104566651D01*
X142122150Y-104576194D01*
X142122147Y-104576199D01*
X142108470Y-104599887D01*
X142102570Y-104609149D01*
X142080560Y-104640584D01*
X142077708Y-104651224D01*
X142076130Y-104654609D01*
X142074856Y-104658109D01*
X142069349Y-104667649D01*
X142067435Y-104678500D01*
X142067434Y-104678505D01*
X142062683Y-104705446D01*
X142060306Y-104716171D01*
X142053227Y-104742590D01*
X142053226Y-104742593D01*
X142050376Y-104753233D01*
X142051336Y-104764207D01*
X142051336Y-104764209D01*
X142053721Y-104791468D01*
X142054200Y-104802449D01*
X142054200Y-106223800D01*
X142037319Y-106286800D01*
X141991200Y-106332919D01*
X141928200Y-106349800D01*
X133832600Y-106349800D01*
X133832600Y-106366390D01*
X133832600Y-107341400D01*
X133815719Y-107404400D01*
X133769600Y-107450519D01*
X133706600Y-107467400D01*
X132654767Y-107467400D01*
X132593455Y-107451476D01*
X132547640Y-107407731D01*
X132528901Y-107347219D01*
X132541976Y-107285237D01*
X132580233Y-107241272D01*
X132584575Y-107239356D01*
X132592831Y-107231098D01*
X132599415Y-107226589D01*
X132602251Y-107224342D01*
X132608143Y-107218970D01*
X132618071Y-107212824D01*
X132634285Y-107191352D01*
X132645732Y-107178197D01*
X133149891Y-106674038D01*
X133152574Y-106671703D01*
X133158345Y-106668831D01*
X133189874Y-106634244D01*
X133193851Y-106630078D01*
X133206740Y-106617191D01*
X133210043Y-106612367D01*
X133210501Y-106611817D01*
X133214303Y-106607447D01*
X133234738Y-106585033D01*
X133238956Y-106574142D01*
X133243166Y-106567344D01*
X133244829Y-106564189D01*
X133248061Y-106556868D01*
X133254664Y-106547231D01*
X133260820Y-106521054D01*
X133265984Y-106504376D01*
X133271481Y-106490187D01*
X133271481Y-106490186D01*
X133275700Y-106479297D01*
X133275700Y-106467616D01*
X133277163Y-106459789D01*
X133277583Y-106456169D01*
X133277950Y-106448218D01*
X133280624Y-106436850D01*
X133276907Y-106410210D01*
X133275700Y-106392803D01*
X133275700Y-106073100D01*
X133292581Y-106010100D01*
X133338700Y-105963981D01*
X133401700Y-105947100D01*
X133653659Y-105947100D01*
X133659846Y-105947100D01*
X133733733Y-105932403D01*
X133817519Y-105876419D01*
X133873503Y-105792633D01*
X133888200Y-105718746D01*
X133888200Y-105518854D01*
X133881705Y-105486200D01*
X134366910Y-105486200D01*
X134367988Y-105494388D01*
X134385706Y-105628978D01*
X134385707Y-105628984D01*
X134386785Y-105637167D01*
X134389944Y-105644795D01*
X134389945Y-105644796D01*
X134441895Y-105770215D01*
X134441896Y-105770218D01*
X134445056Y-105777845D01*
X134537752Y-105898648D01*
X134658555Y-105991344D01*
X134799233Y-106049615D01*
X134950200Y-106069490D01*
X135101167Y-106049615D01*
X135241845Y-105991344D01*
X135362648Y-105898648D01*
X135455344Y-105777845D01*
X135513615Y-105637167D01*
X135533490Y-105486200D01*
X135517031Y-105361181D01*
X135514693Y-105343421D01*
X135514692Y-105343420D01*
X135513615Y-105335233D01*
X135455344Y-105194555D01*
X135443420Y-105179016D01*
X135367674Y-105080302D01*
X135362648Y-105073752D01*
X135299167Y-105025041D01*
X135248398Y-104986084D01*
X135248396Y-104986083D01*
X135241845Y-104981056D01*
X135234218Y-104977896D01*
X135234215Y-104977895D01*
X135108796Y-104925945D01*
X135108795Y-104925944D01*
X135101167Y-104922785D01*
X135092984Y-104921707D01*
X135092978Y-104921706D01*
X134958388Y-104903988D01*
X134950200Y-104902910D01*
X134942012Y-104903988D01*
X134807421Y-104921706D01*
X134807413Y-104921708D01*
X134799233Y-104922785D01*
X134791606Y-104925944D01*
X134791603Y-104925945D01*
X134666184Y-104977895D01*
X134666178Y-104977898D01*
X134658555Y-104981056D01*
X134652006Y-104986080D01*
X134652001Y-104986084D01*
X134544302Y-105068725D01*
X134544297Y-105068729D01*
X134537752Y-105073752D01*
X134532729Y-105080297D01*
X134532725Y-105080302D01*
X134450084Y-105188001D01*
X134450080Y-105188006D01*
X134445056Y-105194555D01*
X134441898Y-105202178D01*
X134441895Y-105202184D01*
X134395520Y-105314144D01*
X134386785Y-105335233D01*
X134385708Y-105343413D01*
X134385706Y-105343421D01*
X134370736Y-105457139D01*
X134366910Y-105486200D01*
X133881705Y-105486200D01*
X133873503Y-105444967D01*
X133817519Y-105361181D01*
X133733733Y-105305197D01*
X133721563Y-105302776D01*
X133721560Y-105302775D01*
X133665914Y-105291707D01*
X133659846Y-105290500D01*
X132284954Y-105290500D01*
X132278885Y-105291707D01*
X132272723Y-105292314D01*
X132272626Y-105291330D01*
X132224683Y-105290154D01*
X132175366Y-105265329D01*
X132141397Y-105221801D01*
X132129300Y-105167930D01*
X132129300Y-105139837D01*
X132138891Y-105091619D01*
X132166204Y-105050742D01*
X132232940Y-104984005D01*
X132273817Y-104956691D01*
X132322036Y-104947100D01*
X133653659Y-104947100D01*
X133659846Y-104947100D01*
X133733733Y-104932403D01*
X133817519Y-104876419D01*
X133873503Y-104792633D01*
X133888200Y-104718746D01*
X133888200Y-104518854D01*
X133873503Y-104444967D01*
X133866609Y-104434649D01*
X133861859Y-104423181D01*
X133862759Y-104422807D01*
X133850570Y-104393383D01*
X133850570Y-104344217D01*
X133862759Y-104314792D01*
X133861859Y-104314419D01*
X133866608Y-104302950D01*
X133873503Y-104292633D01*
X133888200Y-104218746D01*
X133888200Y-104018854D01*
X133873503Y-103944967D01*
X133866609Y-103934649D01*
X133861859Y-103923181D01*
X133862759Y-103922807D01*
X133850570Y-103893383D01*
X133850570Y-103844217D01*
X133862759Y-103814792D01*
X133861859Y-103814419D01*
X133866608Y-103802950D01*
X133873503Y-103792633D01*
X133888200Y-103718746D01*
X133888200Y-103518854D01*
X133873503Y-103444967D01*
X133866609Y-103434649D01*
X133861859Y-103423181D01*
X133862759Y-103422807D01*
X133850570Y-103393383D01*
X133850570Y-103344217D01*
X133862759Y-103314792D01*
X133861859Y-103314419D01*
X133866608Y-103302950D01*
X133873503Y-103292633D01*
X133888200Y-103218746D01*
X133888200Y-103018854D01*
X133873503Y-102944967D01*
X133866609Y-102934649D01*
X133861859Y-102923181D01*
X133862759Y-102922807D01*
X133850570Y-102893383D01*
X133850570Y-102844217D01*
X133862759Y-102814792D01*
X133861859Y-102814419D01*
X133866608Y-102802950D01*
X133873503Y-102792633D01*
X133888200Y-102718746D01*
X133888200Y-102548100D01*
X133905081Y-102485100D01*
X133951200Y-102438981D01*
X134014200Y-102422100D01*
X134582299Y-102422100D01*
X134585861Y-102422347D01*
X134591971Y-102424395D01*
X134638711Y-102422234D01*
X134644531Y-102422100D01*
X134656874Y-102422100D01*
X134662706Y-102422100D01*
X134668444Y-102421027D01*
X134669168Y-102420960D01*
X134674955Y-102420558D01*
X134705244Y-102419158D01*
X134715929Y-102414439D01*
X134723700Y-102412612D01*
X134727144Y-102411545D01*
X134734580Y-102408664D01*
X134746063Y-102406518D01*
X134768939Y-102392352D01*
X134784349Y-102384228D01*
X134786170Y-102383424D01*
X134853518Y-102373761D01*
X134950200Y-102386490D01*
X135101167Y-102366615D01*
X135241845Y-102308344D01*
X135362648Y-102215648D01*
X135455344Y-102094845D01*
X135513615Y-101954167D01*
X135533490Y-101803200D01*
X135513615Y-101652233D01*
X135455344Y-101511555D01*
X135362648Y-101390752D01*
X135356097Y-101385725D01*
X135248398Y-101303084D01*
X135248396Y-101303083D01*
X135241845Y-101298056D01*
X135234218Y-101294896D01*
X135234215Y-101294895D01*
X135108796Y-101242945D01*
X135108795Y-101242944D01*
X135101167Y-101239785D01*
X135092984Y-101238707D01*
X135092978Y-101238706D01*
X134958388Y-101220988D01*
X134950200Y-101219910D01*
X134942011Y-101220988D01*
X134942009Y-101220988D01*
X134875399Y-101229756D01*
X134818452Y-101224147D01*
X134769860Y-101193929D01*
X134517246Y-100941315D01*
X134514902Y-100938622D01*
X134512031Y-100932855D01*
X134503400Y-100924986D01*
X134503398Y-100924984D01*
X134477447Y-100901326D01*
X134473238Y-100897307D01*
X134464519Y-100888588D01*
X134464518Y-100888587D01*
X134460392Y-100884461D01*
X134455576Y-100881162D01*
X134455012Y-100880694D01*
X134450616Y-100876868D01*
X134436860Y-100864327D01*
X134428233Y-100856462D01*
X134417347Y-100852244D01*
X134410579Y-100848054D01*
X134407353Y-100846353D01*
X134400063Y-100843134D01*
X134390431Y-100836536D01*
X134364246Y-100830377D01*
X134347583Y-100825217D01*
X134333388Y-100819718D01*
X134333382Y-100819716D01*
X134322497Y-100815500D01*
X134310822Y-100815500D01*
X134302995Y-100814037D01*
X134299369Y-100813616D01*
X134291413Y-100813248D01*
X134280050Y-100810576D01*
X134268486Y-100812189D01*
X134253411Y-100814292D01*
X134236003Y-100815500D01*
X134014200Y-100815500D01*
X133951200Y-100798619D01*
X133905081Y-100752500D01*
X133888200Y-100689500D01*
X133888200Y-100548100D01*
X133905081Y-100485100D01*
X133951200Y-100438981D01*
X134014200Y-100422100D01*
X134067699Y-100422100D01*
X134071261Y-100422347D01*
X134077371Y-100424395D01*
X134124111Y-100422234D01*
X134129931Y-100422100D01*
X134142274Y-100422100D01*
X134148106Y-100422100D01*
X134153844Y-100421027D01*
X134154568Y-100420960D01*
X134160355Y-100420558D01*
X134190644Y-100419158D01*
X134201329Y-100414439D01*
X134209100Y-100412612D01*
X134212544Y-100411545D01*
X134219980Y-100408664D01*
X134231463Y-100406518D01*
X134254339Y-100392352D01*
X134269766Y-100384220D01*
X134294375Y-100373356D01*
X134302632Y-100365097D01*
X134309212Y-100360591D01*
X134312044Y-100358348D01*
X134317941Y-100352971D01*
X134327871Y-100346824D01*
X134344085Y-100325352D01*
X134355525Y-100312204D01*
X134924490Y-99743238D01*
X134927172Y-99740904D01*
X134932945Y-99738031D01*
X134964484Y-99703433D01*
X134968461Y-99699267D01*
X134981339Y-99686391D01*
X134984635Y-99681577D01*
X134985093Y-99681027D01*
X134988912Y-99676638D01*
X134991498Y-99673801D01*
X135024868Y-99650378D01*
X135023862Y-99648634D01*
X135031012Y-99644505D01*
X135038645Y-99641344D01*
X135159448Y-99548648D01*
X135252144Y-99427845D01*
X135310415Y-99287167D01*
X135330290Y-99136200D01*
X135312518Y-99001204D01*
X135311493Y-98993421D01*
X135311492Y-98993420D01*
X135310415Y-98985233D01*
X135252144Y-98844555D01*
X135237908Y-98826003D01*
X135164474Y-98730302D01*
X135159448Y-98723752D01*
X135144861Y-98712559D01*
X135045198Y-98636084D01*
X135045196Y-98636083D01*
X135038645Y-98631056D01*
X135031018Y-98627896D01*
X135031015Y-98627895D01*
X134905596Y-98575945D01*
X134905595Y-98575944D01*
X134897967Y-98572785D01*
X134889771Y-98571706D01*
X134776285Y-98556765D01*
X134718553Y-98533693D01*
X134691624Y-98501200D01*
X142113910Y-98501200D01*
X142114988Y-98509388D01*
X142132706Y-98643978D01*
X142132707Y-98643984D01*
X142133785Y-98652167D01*
X142136944Y-98659795D01*
X142136945Y-98659796D01*
X142188895Y-98785215D01*
X142188896Y-98785218D01*
X142192056Y-98792845D01*
X142197083Y-98799396D01*
X142197084Y-98799398D01*
X142272297Y-98897417D01*
X142284752Y-98913648D01*
X142291302Y-98918674D01*
X142388713Y-98993421D01*
X142405555Y-99006344D01*
X142546233Y-99064615D01*
X142697200Y-99084490D01*
X142848167Y-99064615D01*
X142988845Y-99006344D01*
X143109648Y-98913648D01*
X143183809Y-98816999D01*
X143230517Y-98779512D01*
X143289262Y-98767826D01*
X143346765Y-98784585D01*
X143390033Y-98826003D01*
X143409288Y-98882720D01*
X143400731Y-98938330D01*
X143396297Y-98944967D01*
X143393877Y-98957133D01*
X143393875Y-98957138D01*
X143384619Y-99003676D01*
X143381600Y-99018854D01*
X143381600Y-99218746D01*
X143382807Y-99224814D01*
X143393875Y-99280460D01*
X143393876Y-99280463D01*
X143396297Y-99292633D01*
X143403191Y-99302951D01*
X143407941Y-99314417D01*
X143407040Y-99314789D01*
X143419230Y-99344220D01*
X143419230Y-99393380D01*
X143407040Y-99422810D01*
X143407941Y-99423183D01*
X143403191Y-99434648D01*
X143396297Y-99444967D01*
X143393876Y-99457135D01*
X143393875Y-99457139D01*
X143385247Y-99500517D01*
X143381600Y-99518854D01*
X143381600Y-99718746D01*
X143382807Y-99724814D01*
X143393875Y-99780460D01*
X143393876Y-99780463D01*
X143396297Y-99792633D01*
X143452281Y-99876419D01*
X143536067Y-99932403D01*
X143609954Y-99947100D01*
X144978659Y-99947100D01*
X144984846Y-99947100D01*
X145058733Y-99932403D01*
X145077394Y-99919933D01*
X145110820Y-99904125D01*
X145147395Y-99898700D01*
X148847057Y-99898700D01*
X148849685Y-99898882D01*
X148855460Y-99900818D01*
X148898371Y-99898834D01*
X148904191Y-99898700D01*
X148914904Y-99898700D01*
X148920735Y-99898700D01*
X148926292Y-99897660D01*
X148931375Y-99897307D01*
X148959993Y-99895985D01*
X148970679Y-99891266D01*
X148978600Y-99889403D01*
X148986181Y-99886466D01*
X148997663Y-99884320D01*
X149018190Y-99871608D01*
X149033629Y-99863470D01*
X149055722Y-99853716D01*
X149063982Y-99845454D01*
X149070690Y-99840860D01*
X149076700Y-99835380D01*
X149086633Y-99829231D01*
X149101188Y-99809955D01*
X149112635Y-99796801D01*
X149342843Y-99566593D01*
X149387553Y-99537766D01*
X149440178Y-99529960D01*
X149491334Y-99544569D01*
X149515382Y-99557423D01*
X149709218Y-99616222D01*
X149910800Y-99636076D01*
X150112382Y-99616222D01*
X150306218Y-99557423D01*
X150484857Y-99461938D01*
X150641436Y-99333436D01*
X150769938Y-99176857D01*
X150865423Y-98998218D01*
X150924222Y-98804382D01*
X150944076Y-98602800D01*
X150924222Y-98401218D01*
X150865423Y-98207382D01*
X150769938Y-98028743D01*
X150641436Y-97872164D01*
X150606379Y-97843393D01*
X150489641Y-97747588D01*
X150489639Y-97747587D01*
X150484857Y-97743662D01*
X150306218Y-97648177D01*
X150300297Y-97646381D01*
X150300295Y-97646380D01*
X150118304Y-97591174D01*
X150118300Y-97591173D01*
X150112382Y-97589378D01*
X149910800Y-97569524D01*
X149904637Y-97570131D01*
X149715380Y-97588771D01*
X149715379Y-97588771D01*
X149709218Y-97589378D01*
X149703301Y-97591172D01*
X149703295Y-97591174D01*
X149521304Y-97646380D01*
X149521298Y-97646382D01*
X149515382Y-97648177D01*
X149509924Y-97651094D01*
X149509920Y-97651096D01*
X149408520Y-97705296D01*
X149336743Y-97743662D01*
X149331964Y-97747583D01*
X149331958Y-97747588D01*
X149184943Y-97868241D01*
X149184937Y-97868246D01*
X149180164Y-97872164D01*
X149176246Y-97876937D01*
X149176241Y-97876943D01*
X149055588Y-98023958D01*
X149055583Y-98023964D01*
X149051662Y-98028743D01*
X149048744Y-98034201D01*
X149048744Y-98034202D01*
X148959096Y-98201920D01*
X148959094Y-98201924D01*
X148956177Y-98207382D01*
X148954382Y-98213298D01*
X148954380Y-98213304D01*
X148899174Y-98395295D01*
X148899172Y-98395301D01*
X148897378Y-98401218D01*
X148896771Y-98407379D01*
X148896771Y-98407380D01*
X148892376Y-98452004D01*
X148877524Y-98602800D01*
X148897378Y-98804382D01*
X148899173Y-98810300D01*
X148899174Y-98810304D01*
X148952238Y-98985233D01*
X148956177Y-98998218D01*
X148959092Y-99003672D01*
X148959094Y-99003676D01*
X148969031Y-99022266D01*
X148983638Y-99073421D01*
X148975832Y-99126044D01*
X148947004Y-99170756D01*
X148815767Y-99301995D01*
X148774890Y-99329309D01*
X148726671Y-99338900D01*
X145979627Y-99338900D01*
X145922424Y-99325167D01*
X145877691Y-99286961D01*
X145855178Y-99232611D01*
X145859794Y-99173964D01*
X145890532Y-99123805D01*
X146013133Y-99001204D01*
X146054010Y-98973890D01*
X146102228Y-98964299D01*
X146320085Y-98964299D01*
X146324210Y-98964299D01*
X146369839Y-98958293D01*
X146469974Y-98911599D01*
X146548099Y-98833474D01*
X146550332Y-98835707D01*
X146579457Y-98810149D01*
X146637662Y-98795900D01*
X146639466Y-98795900D01*
X146687684Y-98805491D01*
X146728561Y-98832805D01*
X146788514Y-98892758D01*
X146890247Y-98940197D01*
X146936604Y-98946300D01*
X147347074Y-98946300D01*
X147351196Y-98946300D01*
X147397553Y-98940197D01*
X147499286Y-98892758D01*
X147578658Y-98813386D01*
X147626097Y-98711653D01*
X147632200Y-98665296D01*
X147632200Y-98310704D01*
X147626097Y-98264347D01*
X147578658Y-98162614D01*
X147513139Y-98097094D01*
X147480527Y-98040611D01*
X147480527Y-97975389D01*
X147513139Y-97918905D01*
X147541268Y-97890776D01*
X147578658Y-97853386D01*
X147626097Y-97751653D01*
X147632200Y-97705296D01*
X147632200Y-97487728D01*
X147641791Y-97439510D01*
X147669105Y-97398633D01*
X148262547Y-96805191D01*
X150087365Y-94980371D01*
X150089344Y-94978649D01*
X150094799Y-94975934D01*
X150102669Y-94967301D01*
X150123734Y-94944194D01*
X150127758Y-94939979D01*
X150139458Y-94928280D01*
X150142652Y-94923615D01*
X150145977Y-94919792D01*
X150165298Y-94898601D01*
X150169518Y-94887705D01*
X150173799Y-94880792D01*
X150177084Y-94873352D01*
X150183686Y-94863716D01*
X150189215Y-94840202D01*
X150194372Y-94823548D01*
X150203100Y-94801022D01*
X150203100Y-94789344D01*
X150204595Y-94781347D01*
X150204970Y-94773216D01*
X150207644Y-94761851D01*
X150204308Y-94737935D01*
X150203100Y-94720528D01*
X150203100Y-93604092D01*
X150216094Y-93548364D01*
X150252396Y-93504130D01*
X150268988Y-93491398D01*
X150335648Y-93440248D01*
X150428344Y-93319445D01*
X150486615Y-93178767D01*
X150506490Y-93027800D01*
X150486615Y-92876833D01*
X150428344Y-92736155D01*
X150364513Y-92652970D01*
X150340674Y-92621902D01*
X150335648Y-92615352D01*
X150327659Y-92609222D01*
X150252396Y-92551470D01*
X150216094Y-92507236D01*
X150203100Y-92451508D01*
X150203100Y-92430963D01*
X150217978Y-92371567D01*
X150259098Y-92326198D01*
X150284137Y-92309467D01*
X150306395Y-92294595D01*
X150354002Y-92223345D01*
X150366500Y-92160515D01*
X150366499Y-91222286D01*
X150354002Y-91159455D01*
X150345164Y-91146228D01*
X150313287Y-91098520D01*
X150306395Y-91088205D01*
X150296079Y-91081312D01*
X150245462Y-91047491D01*
X150245460Y-91047490D01*
X150235145Y-91040598D01*
X150221122Y-91037808D01*
X150178381Y-91029306D01*
X150178374Y-91029305D01*
X150172315Y-91028100D01*
X150166128Y-91028100D01*
X149680274Y-91028100D01*
X149680263Y-91028100D01*
X149674086Y-91028101D01*
X149668020Y-91029307D01*
X149668015Y-91029308D01*
X149623428Y-91038176D01*
X149623424Y-91038177D01*
X149611255Y-91040598D01*
X149600940Y-91047489D01*
X149600935Y-91047492D01*
X149550320Y-91081312D01*
X149550317Y-91081314D01*
X149540005Y-91088205D01*
X149533114Y-91098517D01*
X149533112Y-91098520D01*
X149499291Y-91149137D01*
X149499289Y-91149141D01*
X149492398Y-91159455D01*
X149489977Y-91171624D01*
X149489977Y-91171625D01*
X149481106Y-91216218D01*
X149481105Y-91216226D01*
X149479900Y-91222285D01*
X149479900Y-91228470D01*
X149479900Y-91228471D01*
X149479900Y-92154325D01*
X149479900Y-92154335D01*
X149479901Y-92160514D01*
X149481107Y-92166580D01*
X149481108Y-92166584D01*
X149489976Y-92211171D01*
X149489977Y-92211173D01*
X149492398Y-92223345D01*
X149499290Y-92233660D01*
X149499292Y-92233664D01*
X149533112Y-92284279D01*
X149540005Y-92294595D01*
X149550320Y-92301487D01*
X149550321Y-92301488D01*
X149587302Y-92326198D01*
X149628422Y-92371567D01*
X149643300Y-92430963D01*
X149643300Y-92451508D01*
X149630306Y-92507236D01*
X149594004Y-92551470D01*
X149517302Y-92610325D01*
X149517297Y-92610329D01*
X149510752Y-92615352D01*
X149505729Y-92621897D01*
X149505725Y-92621902D01*
X149423084Y-92729601D01*
X149423080Y-92729606D01*
X149418056Y-92736155D01*
X149414898Y-92743778D01*
X149414895Y-92743784D01*
X149364932Y-92864407D01*
X149359785Y-92876833D01*
X149358708Y-92885013D01*
X149358706Y-92885021D01*
X149342888Y-93005178D01*
X149339910Y-93027800D01*
X149340988Y-93035988D01*
X149358706Y-93170578D01*
X149358707Y-93170584D01*
X149359785Y-93178767D01*
X149362944Y-93186395D01*
X149362945Y-93186396D01*
X149414895Y-93311815D01*
X149414896Y-93311818D01*
X149418056Y-93319445D01*
X149423083Y-93325996D01*
X149423084Y-93325998D01*
X149501217Y-93427822D01*
X149510752Y-93440248D01*
X149517302Y-93445274D01*
X149594004Y-93504130D01*
X149630306Y-93548364D01*
X149643300Y-93604092D01*
X149643300Y-94580571D01*
X149633709Y-94628789D01*
X149606395Y-94669666D01*
X147243267Y-97032795D01*
X147202390Y-97060109D01*
X147154172Y-97069700D01*
X146936604Y-97069700D01*
X146932518Y-97070237D01*
X146932516Y-97070238D01*
X146899806Y-97074544D01*
X146899802Y-97074544D01*
X146890247Y-97075803D01*
X146881512Y-97079875D01*
X146881509Y-97079877D01*
X146798506Y-97118582D01*
X146798503Y-97118583D01*
X146788514Y-97123242D01*
X146780718Y-97131037D01*
X146780715Y-97131040D01*
X146732561Y-97179195D01*
X146691684Y-97206509D01*
X146643466Y-97216100D01*
X146637662Y-97216100D01*
X146579457Y-97201851D01*
X146550332Y-97176292D01*
X146548099Y-97178526D01*
X146469974Y-97100401D01*
X146435814Y-97084472D01*
X146378576Y-97057781D01*
X146378575Y-97057780D01*
X146369839Y-97053707D01*
X146360281Y-97052448D01*
X146360279Y-97052448D01*
X146328298Y-97048238D01*
X146328297Y-97048237D01*
X146324211Y-97047700D01*
X146320089Y-97047700D01*
X145884914Y-97047700D01*
X145884898Y-97047700D01*
X145880790Y-97047701D01*
X145876708Y-97048238D01*
X145876697Y-97048239D01*
X145844719Y-97052448D01*
X145844713Y-97052449D01*
X145835161Y-97053707D01*
X145826428Y-97057778D01*
X145826425Y-97057780D01*
X145745018Y-97095741D01*
X145745015Y-97095742D01*
X145735026Y-97100401D01*
X145727230Y-97108196D01*
X145727227Y-97108199D01*
X145664699Y-97170727D01*
X145664696Y-97170730D01*
X145656901Y-97178526D01*
X145652242Y-97188515D01*
X145652241Y-97188518D01*
X145614281Y-97269923D01*
X145614279Y-97269926D01*
X145610207Y-97278661D01*
X145608948Y-97288216D01*
X145608948Y-97288220D01*
X145605759Y-97312444D01*
X145604200Y-97324289D01*
X145604200Y-97328409D01*
X145604200Y-97328410D01*
X145604200Y-97663585D01*
X145604200Y-97663600D01*
X145604201Y-97667710D01*
X145604738Y-97671792D01*
X145604739Y-97671802D01*
X145608948Y-97703780D01*
X145608949Y-97703784D01*
X145610207Y-97713339D01*
X145614279Y-97722072D01*
X145614280Y-97722074D01*
X145628073Y-97751653D01*
X145656901Y-97813474D01*
X145735026Y-97891599D01*
X145745019Y-97896258D01*
X145754049Y-97902582D01*
X145751661Y-97905991D01*
X145788507Y-97938336D01*
X145808217Y-98006000D01*
X145788507Y-98073664D01*
X145751661Y-98106008D01*
X145754049Y-98109418D01*
X145745017Y-98115741D01*
X145735026Y-98120401D01*
X145727230Y-98128196D01*
X145727227Y-98128199D01*
X145664699Y-98190727D01*
X145664696Y-98190730D01*
X145656901Y-98198526D01*
X145652241Y-98208518D01*
X145652241Y-98208519D01*
X145625367Y-98266150D01*
X145578871Y-98319167D01*
X145511172Y-98338900D01*
X145339200Y-98338900D01*
X145276200Y-98322019D01*
X145230081Y-98275900D01*
X145213200Y-98212900D01*
X145213200Y-98025041D01*
X145213200Y-98018854D01*
X145198503Y-97944967D01*
X145142519Y-97861181D01*
X145130842Y-97853379D01*
X145080844Y-97819971D01*
X145058733Y-97805197D01*
X145046563Y-97802776D01*
X145046560Y-97802775D01*
X144990914Y-97791707D01*
X144984846Y-97790500D01*
X143609954Y-97790500D01*
X143603886Y-97791706D01*
X143603885Y-97791707D01*
X143548239Y-97802775D01*
X143548235Y-97802776D01*
X143536067Y-97805197D01*
X143532596Y-97807515D01*
X143492457Y-97815500D01*
X143131894Y-97815500D01*
X143128336Y-97815253D01*
X143122228Y-97813206D01*
X143110565Y-97813745D01*
X143075500Y-97815366D01*
X143069682Y-97815500D01*
X143051494Y-97815500D01*
X143045783Y-97816567D01*
X143044997Y-97816640D01*
X143039203Y-97817042D01*
X143020624Y-97817901D01*
X143020615Y-97817902D01*
X143008956Y-97818442D01*
X142998278Y-97823155D01*
X142990544Y-97824975D01*
X142987010Y-97826070D01*
X142979609Y-97828937D01*
X142968137Y-97831082D01*
X142958215Y-97837225D01*
X142958208Y-97837228D01*
X142945255Y-97845248D01*
X142929829Y-97853379D01*
X142915907Y-97859526D01*
X142915901Y-97859529D01*
X142905225Y-97864244D01*
X142896972Y-97872496D01*
X142890428Y-97876979D01*
X142887519Y-97879283D01*
X142881652Y-97884631D01*
X142871729Y-97890776D01*
X142866967Y-97897080D01*
X142822601Y-97922581D01*
X142768421Y-97927286D01*
X142705389Y-97918988D01*
X142705388Y-97918988D01*
X142697200Y-97917910D01*
X142689012Y-97918988D01*
X142554421Y-97936706D01*
X142554413Y-97936708D01*
X142546233Y-97937785D01*
X142538606Y-97940944D01*
X142538603Y-97940945D01*
X142413184Y-97992895D01*
X142413178Y-97992898D01*
X142405555Y-97996056D01*
X142399006Y-98001080D01*
X142399001Y-98001084D01*
X142291302Y-98083725D01*
X142291297Y-98083729D01*
X142284752Y-98088752D01*
X142279729Y-98095297D01*
X142279725Y-98095302D01*
X142197084Y-98203001D01*
X142197080Y-98203006D01*
X142192056Y-98209555D01*
X142188898Y-98217178D01*
X142188895Y-98217184D01*
X142138943Y-98337780D01*
X142133785Y-98350233D01*
X142132708Y-98358413D01*
X142132706Y-98358421D01*
X142119110Y-98461700D01*
X142113910Y-98501200D01*
X134691624Y-98501200D01*
X134678881Y-98485824D01*
X134666928Y-98424811D01*
X134683316Y-98372777D01*
X134684298Y-98371701D01*
X134688518Y-98360805D01*
X134692799Y-98353891D01*
X134696083Y-98346453D01*
X134702686Y-98336816D01*
X134708215Y-98313302D01*
X134713372Y-98296648D01*
X134722100Y-98274122D01*
X134722100Y-98262444D01*
X134723595Y-98254447D01*
X134723970Y-98246316D01*
X134726644Y-98234951D01*
X134723308Y-98211035D01*
X134722100Y-98193628D01*
X134722100Y-97456736D01*
X134722282Y-97454112D01*
X134724217Y-97448340D01*
X134722233Y-97405440D01*
X134722100Y-97399623D01*
X134722100Y-97388891D01*
X134722100Y-97383065D01*
X134721060Y-97377509D01*
X134720706Y-97372415D01*
X134719385Y-97343807D01*
X134714669Y-97333126D01*
X134712806Y-97325204D01*
X134709864Y-97317612D01*
X134707720Y-97306137D01*
X134701574Y-97296211D01*
X134700569Y-97293617D01*
X134692899Y-97233580D01*
X134714110Y-97176893D01*
X134759307Y-97136637D01*
X134818060Y-97122100D01*
X134978659Y-97122100D01*
X134984846Y-97122100D01*
X135058733Y-97107403D01*
X135069050Y-97100508D01*
X135080519Y-97095759D01*
X135080892Y-97096659D01*
X135110307Y-97084472D01*
X135159473Y-97084469D01*
X135188908Y-97096659D01*
X135189281Y-97095759D01*
X135200749Y-97100509D01*
X135211067Y-97107403D01*
X135284954Y-97122100D01*
X135478659Y-97122100D01*
X135484846Y-97122100D01*
X135558733Y-97107403D01*
X135569050Y-97100508D01*
X135580519Y-97095759D01*
X135580892Y-97096659D01*
X135610307Y-97084472D01*
X135659473Y-97084469D01*
X135688908Y-97096659D01*
X135689281Y-97095759D01*
X135700749Y-97100509D01*
X135711067Y-97107403D01*
X135784954Y-97122100D01*
X135978659Y-97122100D01*
X135984846Y-97122100D01*
X136058733Y-97107403D01*
X136069050Y-97100508D01*
X136080519Y-97095759D01*
X136080892Y-97096659D01*
X136110307Y-97084472D01*
X136159473Y-97084469D01*
X136188908Y-97096659D01*
X136189281Y-97095759D01*
X136200749Y-97100509D01*
X136211067Y-97107403D01*
X136284954Y-97122100D01*
X136478659Y-97122100D01*
X136484846Y-97122100D01*
X136558733Y-97107403D01*
X136569050Y-97100508D01*
X136580519Y-97095759D01*
X136580892Y-97096659D01*
X136610307Y-97084472D01*
X136659473Y-97084469D01*
X136688908Y-97096659D01*
X136689281Y-97095759D01*
X136700749Y-97100509D01*
X136711067Y-97107403D01*
X136784954Y-97122100D01*
X136978659Y-97122100D01*
X136984846Y-97122100D01*
X137058733Y-97107403D01*
X137069050Y-97100508D01*
X137080519Y-97095759D01*
X137080892Y-97096659D01*
X137110307Y-97084472D01*
X137159473Y-97084469D01*
X137188908Y-97096659D01*
X137189281Y-97095759D01*
X137200749Y-97100509D01*
X137211067Y-97107403D01*
X137284954Y-97122100D01*
X137478659Y-97122100D01*
X137484846Y-97122100D01*
X137558733Y-97107403D01*
X137569050Y-97100508D01*
X137580519Y-97095759D01*
X137580892Y-97096659D01*
X137610307Y-97084472D01*
X137659473Y-97084469D01*
X137688908Y-97096659D01*
X137689281Y-97095759D01*
X137700749Y-97100509D01*
X137711067Y-97107403D01*
X137784954Y-97122100D01*
X137978659Y-97122100D01*
X137984846Y-97122100D01*
X138058733Y-97107403D01*
X138069050Y-97100508D01*
X138080519Y-97095759D01*
X138080892Y-97096659D01*
X138110307Y-97084472D01*
X138159473Y-97084469D01*
X138188908Y-97096659D01*
X138189281Y-97095759D01*
X138200749Y-97100509D01*
X138211067Y-97107403D01*
X138284954Y-97122100D01*
X138478659Y-97122100D01*
X138484846Y-97122100D01*
X138558733Y-97107403D01*
X138569050Y-97100508D01*
X138580519Y-97095759D01*
X138580892Y-97096659D01*
X138610307Y-97084472D01*
X138659473Y-97084469D01*
X138688908Y-97096659D01*
X138689281Y-97095759D01*
X138700749Y-97100509D01*
X138711067Y-97107403D01*
X138784954Y-97122100D01*
X138978659Y-97122100D01*
X138984846Y-97122100D01*
X139058733Y-97107403D01*
X139069050Y-97100508D01*
X139080519Y-97095759D01*
X139080892Y-97096659D01*
X139110307Y-97084472D01*
X139159473Y-97084469D01*
X139188908Y-97096659D01*
X139189281Y-97095759D01*
X139200749Y-97100509D01*
X139211067Y-97107403D01*
X139284954Y-97122100D01*
X139478659Y-97122100D01*
X139484846Y-97122100D01*
X139558733Y-97107403D01*
X139569050Y-97100508D01*
X139580519Y-97095759D01*
X139580892Y-97096659D01*
X139610307Y-97084472D01*
X139659473Y-97084469D01*
X139688908Y-97096659D01*
X139689281Y-97095759D01*
X139700749Y-97100509D01*
X139711067Y-97107403D01*
X139784954Y-97122100D01*
X139978659Y-97122100D01*
X139984846Y-97122100D01*
X140058733Y-97107403D01*
X140069050Y-97100508D01*
X140080519Y-97095759D01*
X140080892Y-97096659D01*
X140110307Y-97084472D01*
X140159473Y-97084469D01*
X140188908Y-97096659D01*
X140189281Y-97095759D01*
X140200749Y-97100509D01*
X140211067Y-97107403D01*
X140284954Y-97122100D01*
X140478659Y-97122100D01*
X140484846Y-97122100D01*
X140558733Y-97107403D01*
X140569050Y-97100508D01*
X140580519Y-97095759D01*
X140580892Y-97096659D01*
X140610307Y-97084472D01*
X140659473Y-97084469D01*
X140688908Y-97096659D01*
X140689281Y-97095759D01*
X140700749Y-97100509D01*
X140711067Y-97107403D01*
X140784954Y-97122100D01*
X140978659Y-97122100D01*
X140984846Y-97122100D01*
X141058733Y-97107403D01*
X141069050Y-97100508D01*
X141080519Y-97095759D01*
X141080892Y-97096659D01*
X141110307Y-97084472D01*
X141159473Y-97084469D01*
X141188908Y-97096659D01*
X141189281Y-97095759D01*
X141200749Y-97100509D01*
X141211067Y-97107403D01*
X141284954Y-97122100D01*
X141478659Y-97122100D01*
X141484846Y-97122100D01*
X141558733Y-97107403D01*
X141569050Y-97100508D01*
X141580519Y-97095759D01*
X141580892Y-97096659D01*
X141610307Y-97084472D01*
X141659473Y-97084469D01*
X141688908Y-97096659D01*
X141689281Y-97095759D01*
X141700749Y-97100509D01*
X141711067Y-97107403D01*
X141784954Y-97122100D01*
X141978659Y-97122100D01*
X141984846Y-97122100D01*
X142058733Y-97107403D01*
X142069050Y-97100508D01*
X142080519Y-97095759D01*
X142080892Y-97096659D01*
X142110307Y-97084472D01*
X142159473Y-97084469D01*
X142188908Y-97096659D01*
X142189281Y-97095759D01*
X142200749Y-97100509D01*
X142211067Y-97107403D01*
X142284954Y-97122100D01*
X142478659Y-97122100D01*
X142484846Y-97122100D01*
X142558733Y-97107403D01*
X142642519Y-97051419D01*
X142698503Y-96967633D01*
X142713200Y-96893746D01*
X142713200Y-96612200D01*
X142730081Y-96549200D01*
X142776200Y-96503081D01*
X142839200Y-96486200D01*
X145477757Y-96486200D01*
X145480385Y-96486382D01*
X145486160Y-96488318D01*
X145529071Y-96486334D01*
X145534891Y-96486200D01*
X145545604Y-96486200D01*
X145551435Y-96486200D01*
X145556992Y-96485160D01*
X145562075Y-96484807D01*
X145590693Y-96483485D01*
X145601379Y-96478766D01*
X145609300Y-96476903D01*
X145616881Y-96473966D01*
X145628363Y-96471820D01*
X145648890Y-96459108D01*
X145664329Y-96450970D01*
X145686422Y-96441216D01*
X145694682Y-96432954D01*
X145701390Y-96428360D01*
X145707400Y-96422880D01*
X145717333Y-96416731D01*
X145731888Y-96397455D01*
X145743335Y-96384301D01*
X148423965Y-93703671D01*
X148425944Y-93701949D01*
X148431399Y-93699234D01*
X148442561Y-93686990D01*
X148460334Y-93667494D01*
X148464358Y-93663279D01*
X148465387Y-93662250D01*
X148476058Y-93651580D01*
X148479252Y-93646915D01*
X148482577Y-93643092D01*
X148501898Y-93621901D01*
X148506118Y-93611005D01*
X148510399Y-93604092D01*
X148513684Y-93596652D01*
X148520286Y-93587016D01*
X148525815Y-93563502D01*
X148530972Y-93546848D01*
X148539700Y-93524322D01*
X148539700Y-93516334D01*
X148554832Y-93477048D01*
X148585504Y-93443008D01*
X148672248Y-93376448D01*
X148764944Y-93255645D01*
X148823215Y-93114967D01*
X148843090Y-92964000D01*
X148823215Y-92813033D01*
X148764944Y-92672355D01*
X148721755Y-92616071D01*
X148677274Y-92558102D01*
X148672248Y-92551552D01*
X148648635Y-92533433D01*
X148611439Y-92487344D01*
X148599410Y-92429349D01*
X148615208Y-92372265D01*
X148655342Y-92328707D01*
X148684137Y-92309467D01*
X148706395Y-92294595D01*
X148754002Y-92223345D01*
X148766500Y-92160515D01*
X148766499Y-91222286D01*
X148754002Y-91159455D01*
X148745164Y-91146228D01*
X148713287Y-91098520D01*
X148706395Y-91088205D01*
X148696079Y-91081312D01*
X148645462Y-91047491D01*
X148645460Y-91047490D01*
X148635145Y-91040598D01*
X148621122Y-91037808D01*
X148578381Y-91029306D01*
X148578374Y-91029305D01*
X148572315Y-91028100D01*
X148566128Y-91028100D01*
X148080274Y-91028100D01*
X148080263Y-91028100D01*
X148074086Y-91028101D01*
X148068020Y-91029307D01*
X148068015Y-91029308D01*
X148023428Y-91038176D01*
X148023424Y-91038177D01*
X148011255Y-91040598D01*
X148000938Y-91047491D01*
X148000934Y-91047493D01*
X147993197Y-91052663D01*
X147947777Y-91071475D01*
X147898615Y-91071473D01*
X147853196Y-91052659D01*
X147845464Y-91047492D01*
X147845460Y-91047490D01*
X147835145Y-91040598D01*
X147821122Y-91037808D01*
X147778381Y-91029306D01*
X147778374Y-91029305D01*
X147772315Y-91028100D01*
X147766128Y-91028100D01*
X147280274Y-91028100D01*
X147280263Y-91028100D01*
X147274086Y-91028101D01*
X147268020Y-91029307D01*
X147268015Y-91029308D01*
X147223428Y-91038176D01*
X147223424Y-91038177D01*
X147211255Y-91040598D01*
X147200940Y-91047489D01*
X147200935Y-91047492D01*
X147150320Y-91081312D01*
X147150317Y-91081314D01*
X147140005Y-91088205D01*
X147133114Y-91098517D01*
X147133112Y-91098520D01*
X147099291Y-91149137D01*
X147099289Y-91149141D01*
X147092398Y-91159455D01*
X147089977Y-91171624D01*
X147089977Y-91171625D01*
X147081106Y-91216218D01*
X147081105Y-91216226D01*
X147079900Y-91222285D01*
X147079900Y-91228470D01*
X147079900Y-91228471D01*
X147079900Y-92154325D01*
X147079900Y-92154335D01*
X147079901Y-92160514D01*
X147081107Y-92166580D01*
X147081108Y-92166584D01*
X147089977Y-92211174D01*
X147092398Y-92223345D01*
X147092405Y-92223355D01*
X147099696Y-92278754D01*
X147074736Y-92339009D01*
X147022994Y-92378712D01*
X146959786Y-92404894D01*
X146959779Y-92404897D01*
X146952155Y-92408056D01*
X146945606Y-92413080D01*
X146945601Y-92413084D01*
X146837902Y-92495725D01*
X146837897Y-92495729D01*
X146831352Y-92500752D01*
X146826329Y-92507297D01*
X146826325Y-92507302D01*
X146743684Y-92615001D01*
X146743680Y-92615006D01*
X146738656Y-92621555D01*
X146735498Y-92629178D01*
X146735495Y-92629184D01*
X146683545Y-92754603D01*
X146680385Y-92762233D01*
X146679308Y-92770413D01*
X146679306Y-92770421D01*
X146666302Y-92869203D01*
X146660510Y-92913200D01*
X146661588Y-92921388D01*
X146674207Y-93017240D01*
X146668598Y-93074187D01*
X146638381Y-93122779D01*
X146185552Y-93575609D01*
X145733839Y-94027322D01*
X145673590Y-94060880D01*
X145604698Y-94057693D01*
X145547804Y-94018716D01*
X145519951Y-93955628D01*
X145518307Y-93943835D01*
X145517100Y-93926435D01*
X145517100Y-93641892D01*
X145530094Y-93586164D01*
X145566396Y-93541930D01*
X145612154Y-93506818D01*
X145649648Y-93478048D01*
X145742344Y-93357245D01*
X145800615Y-93216567D01*
X145820490Y-93065600D01*
X145800615Y-92914633D01*
X145742344Y-92773955D01*
X145733065Y-92761863D01*
X145654674Y-92659702D01*
X145649648Y-92653152D01*
X145643097Y-92648125D01*
X145535398Y-92565484D01*
X145535396Y-92565483D01*
X145528845Y-92560456D01*
X145521218Y-92557296D01*
X145521215Y-92557295D01*
X145395796Y-92505345D01*
X145395795Y-92505344D01*
X145388167Y-92502185D01*
X145377328Y-92500758D01*
X145278486Y-92487745D01*
X145214999Y-92460222D01*
X145175619Y-92403323D01*
X145172225Y-92334209D01*
X145205145Y-92274974D01*
X145213795Y-92269195D01*
X145261402Y-92197945D01*
X145273900Y-92135115D01*
X145273899Y-91196886D01*
X145261402Y-91134055D01*
X145230766Y-91088205D01*
X145220687Y-91073120D01*
X145213795Y-91062805D01*
X145198616Y-91052663D01*
X145152862Y-91022091D01*
X145152860Y-91022090D01*
X145142545Y-91015198D01*
X145128522Y-91012408D01*
X145085781Y-91003906D01*
X145085774Y-91003905D01*
X145079715Y-91002700D01*
X145073528Y-91002700D01*
X144587674Y-91002700D01*
X144587663Y-91002700D01*
X144581486Y-91002701D01*
X144575420Y-91003907D01*
X144575415Y-91003908D01*
X144530828Y-91012776D01*
X144530824Y-91012777D01*
X144518655Y-91015198D01*
X144508338Y-91022091D01*
X144508334Y-91022093D01*
X144500597Y-91027263D01*
X144455177Y-91046075D01*
X144406015Y-91046073D01*
X144360596Y-91027259D01*
X144352864Y-91022092D01*
X144352860Y-91022090D01*
X144342545Y-91015198D01*
X144328522Y-91012408D01*
X144285781Y-91003906D01*
X144285774Y-91003905D01*
X144279715Y-91002700D01*
X144273528Y-91002700D01*
X143787674Y-91002700D01*
X143787663Y-91002700D01*
X143781486Y-91002701D01*
X143775420Y-91003907D01*
X143775415Y-91003908D01*
X143730828Y-91012776D01*
X143730824Y-91012777D01*
X143718655Y-91015198D01*
X143708338Y-91022091D01*
X143708334Y-91022093D01*
X143700597Y-91027263D01*
X143655177Y-91046075D01*
X143606015Y-91046073D01*
X143560596Y-91027259D01*
X143552864Y-91022092D01*
X143552860Y-91022090D01*
X143542545Y-91015198D01*
X143528522Y-91012408D01*
X143485781Y-91003906D01*
X143485774Y-91003905D01*
X143479715Y-91002700D01*
X143473528Y-91002700D01*
X142987674Y-91002700D01*
X142987663Y-91002700D01*
X142981486Y-91002701D01*
X142975420Y-91003907D01*
X142975415Y-91003908D01*
X142930828Y-91012776D01*
X142930824Y-91012777D01*
X142918655Y-91015198D01*
X142908338Y-91022091D01*
X142908334Y-91022093D01*
X142900597Y-91027263D01*
X142855177Y-91046075D01*
X142806015Y-91046073D01*
X142760596Y-91027259D01*
X142752864Y-91022092D01*
X142752860Y-91022090D01*
X142742545Y-91015198D01*
X142728522Y-91012408D01*
X142685781Y-91003906D01*
X142685774Y-91003905D01*
X142679715Y-91002700D01*
X142673528Y-91002700D01*
X142187674Y-91002700D01*
X142187663Y-91002700D01*
X142181486Y-91002701D01*
X142175420Y-91003907D01*
X142175415Y-91003908D01*
X142130828Y-91012776D01*
X142130824Y-91012777D01*
X142118655Y-91015198D01*
X142108340Y-91022089D01*
X142108335Y-91022092D01*
X142057720Y-91055912D01*
X142057717Y-91055914D01*
X142047405Y-91062805D01*
X142040514Y-91073117D01*
X142040512Y-91073120D01*
X142006691Y-91123737D01*
X142006689Y-91123741D01*
X141999798Y-91134055D01*
X141997377Y-91146224D01*
X141997377Y-91146225D01*
X141988506Y-91190818D01*
X141988505Y-91190826D01*
X141987300Y-91196885D01*
X141987300Y-91203070D01*
X141987300Y-91203071D01*
X141987300Y-92128925D01*
X141987300Y-92128935D01*
X141987301Y-92135114D01*
X141988507Y-92141178D01*
X141988508Y-92141186D01*
X141996591Y-92181823D01*
X141994169Y-92241000D01*
X141964977Y-92292533D01*
X141915465Y-92325035D01*
X141867799Y-92330126D01*
X141867799Y-92331716D01*
X141859541Y-92331716D01*
X141851353Y-92330638D01*
X141843165Y-92331716D01*
X141708574Y-92349434D01*
X141708566Y-92349436D01*
X141700386Y-92350513D01*
X141692759Y-92353672D01*
X141692756Y-92353673D01*
X141567337Y-92405623D01*
X141567331Y-92405626D01*
X141559708Y-92408784D01*
X141553159Y-92413808D01*
X141553154Y-92413812D01*
X141445455Y-92496453D01*
X141445450Y-92496457D01*
X141438905Y-92501480D01*
X141433882Y-92508025D01*
X141433878Y-92508030D01*
X141351237Y-92615729D01*
X141351233Y-92615734D01*
X141346209Y-92622283D01*
X141343051Y-92629906D01*
X141343048Y-92629912D01*
X141291338Y-92754752D01*
X141287938Y-92762961D01*
X141286861Y-92771141D01*
X141286859Y-92771149D01*
X141272110Y-92883184D01*
X141268063Y-92913928D01*
X141269141Y-92922116D01*
X141269141Y-92922118D01*
X141278007Y-92989467D01*
X141272398Y-93046414D01*
X141242181Y-93095007D01*
X140575841Y-93761349D01*
X140525681Y-93792087D01*
X140467034Y-93796703D01*
X140412684Y-93774190D01*
X140374478Y-93729457D01*
X140360745Y-93672254D01*
X140360745Y-93489498D01*
X140373739Y-93433770D01*
X140410041Y-93389536D01*
X140432361Y-93372409D01*
X140493293Y-93325654D01*
X140585989Y-93204851D01*
X140644260Y-93064173D01*
X140664135Y-92913206D01*
X140644260Y-92762239D01*
X140585989Y-92621561D01*
X140566694Y-92596416D01*
X140498319Y-92507308D01*
X140493293Y-92500758D01*
X140478771Y-92489615D01*
X140410041Y-92436876D01*
X140373739Y-92392642D01*
X140360745Y-92336914D01*
X140360745Y-92031388D01*
X140360927Y-92028759D01*
X140362863Y-92022985D01*
X140360879Y-91980073D01*
X140360745Y-91974254D01*
X140360745Y-91963544D01*
X140360745Y-91957710D01*
X140359704Y-91952147D01*
X140359353Y-91947081D01*
X140358030Y-91918452D01*
X140353312Y-91907768D01*
X140351450Y-91899849D01*
X140348510Y-91892261D01*
X140346365Y-91880782D01*
X140340218Y-91870854D01*
X140333650Y-91860246D01*
X140325514Y-91844810D01*
X140320478Y-91833405D01*
X140315762Y-91822723D01*
X140307503Y-91814464D01*
X140302908Y-91807756D01*
X140297422Y-91801738D01*
X140291276Y-91791812D01*
X140272001Y-91777256D01*
X140258846Y-91765807D01*
X140243404Y-91750365D01*
X140216090Y-91709488D01*
X140206499Y-91661270D01*
X140206499Y-91203074D01*
X140206499Y-91203071D01*
X140206499Y-91196886D01*
X140194002Y-91134055D01*
X140163366Y-91088205D01*
X140153287Y-91073120D01*
X140146395Y-91062805D01*
X140131216Y-91052663D01*
X140085462Y-91022091D01*
X140085460Y-91022090D01*
X140075145Y-91015198D01*
X140061122Y-91012408D01*
X140018381Y-91003906D01*
X140018374Y-91003905D01*
X140012315Y-91002700D01*
X140006128Y-91002700D01*
X139520274Y-91002700D01*
X139520263Y-91002700D01*
X139514086Y-91002701D01*
X139508020Y-91003907D01*
X139508015Y-91003908D01*
X139463428Y-91012776D01*
X139463424Y-91012777D01*
X139451255Y-91015198D01*
X139440938Y-91022091D01*
X139440934Y-91022093D01*
X139433197Y-91027263D01*
X139387777Y-91046075D01*
X139338615Y-91046073D01*
X139293196Y-91027259D01*
X139285464Y-91022092D01*
X139285460Y-91022090D01*
X139275145Y-91015198D01*
X139261122Y-91012408D01*
X139218381Y-91003906D01*
X139218374Y-91003905D01*
X139212315Y-91002700D01*
X139206128Y-91002700D01*
X138720274Y-91002700D01*
X138720263Y-91002700D01*
X138714086Y-91002701D01*
X138708020Y-91003907D01*
X138708015Y-91003908D01*
X138663428Y-91012776D01*
X138663424Y-91012777D01*
X138651255Y-91015198D01*
X138640938Y-91022091D01*
X138640934Y-91022093D01*
X138633197Y-91027263D01*
X138587777Y-91046075D01*
X138538615Y-91046073D01*
X138493196Y-91027259D01*
X138485464Y-91022092D01*
X138485460Y-91022090D01*
X138475145Y-91015198D01*
X138461122Y-91012408D01*
X138418381Y-91003906D01*
X138418374Y-91003905D01*
X138412315Y-91002700D01*
X138406128Y-91002700D01*
X137920274Y-91002700D01*
X137920263Y-91002700D01*
X137914086Y-91002701D01*
X137908020Y-91003907D01*
X137908015Y-91003908D01*
X137863428Y-91012776D01*
X137863424Y-91012777D01*
X137851255Y-91015198D01*
X137840938Y-91022091D01*
X137840934Y-91022093D01*
X137833197Y-91027263D01*
X137787777Y-91046075D01*
X137738615Y-91046073D01*
X137693196Y-91027259D01*
X137685464Y-91022092D01*
X137685460Y-91022090D01*
X137675145Y-91015198D01*
X137661122Y-91012408D01*
X137618381Y-91003906D01*
X137618374Y-91003905D01*
X137612315Y-91002700D01*
X137606128Y-91002700D01*
X137120274Y-91002700D01*
X137120263Y-91002700D01*
X137114086Y-91002701D01*
X137108020Y-91003907D01*
X137108015Y-91003908D01*
X137063428Y-91012776D01*
X137063424Y-91012777D01*
X137051255Y-91015198D01*
X137040940Y-91022089D01*
X137040935Y-91022092D01*
X136990320Y-91055912D01*
X136990317Y-91055914D01*
X136980005Y-91062805D01*
X136973114Y-91073117D01*
X136973112Y-91073120D01*
X136939291Y-91123737D01*
X136939289Y-91123741D01*
X136932398Y-91134055D01*
X136929977Y-91146224D01*
X136929977Y-91146225D01*
X136921106Y-91190818D01*
X136921105Y-91190826D01*
X136919900Y-91196885D01*
X136919900Y-91203070D01*
X136919900Y-91203071D01*
X136919900Y-92128925D01*
X136919900Y-92128935D01*
X136919901Y-92135114D01*
X136921107Y-92141180D01*
X136921108Y-92141184D01*
X136930826Y-92190042D01*
X136928953Y-92247234D01*
X136901979Y-92297699D01*
X136855467Y-92331030D01*
X136799786Y-92354094D01*
X136799779Y-92354097D01*
X136792155Y-92357256D01*
X136785606Y-92362280D01*
X136785601Y-92362284D01*
X136677902Y-92444925D01*
X136677897Y-92444929D01*
X136671352Y-92449952D01*
X136666329Y-92456497D01*
X136666325Y-92456502D01*
X136583684Y-92564201D01*
X136583680Y-92564206D01*
X136578656Y-92570755D01*
X136575498Y-92578378D01*
X136575495Y-92578384D01*
X136523545Y-92703803D01*
X136520385Y-92711433D01*
X136519308Y-92719613D01*
X136519306Y-92719621D01*
X136502581Y-92846668D01*
X136500510Y-92862400D01*
X136501588Y-92870588D01*
X136519306Y-93005178D01*
X136519307Y-93005184D01*
X136520385Y-93013367D01*
X136523544Y-93020995D01*
X136523545Y-93020996D01*
X136572370Y-93138871D01*
X136578656Y-93154045D01*
X136579220Y-93154781D01*
X136594855Y-93208419D01*
X136583170Y-93267165D01*
X136545679Y-93313878D01*
X136490855Y-93338002D01*
X136431086Y-93334084D01*
X136379880Y-93303011D01*
X135881350Y-92804481D01*
X135851132Y-92755887D01*
X135845523Y-92698944D01*
X135859221Y-92594901D01*
X135839346Y-92443934D01*
X135781075Y-92303256D01*
X135688379Y-92182453D01*
X135681828Y-92177426D01*
X135574129Y-92094785D01*
X135574127Y-92094784D01*
X135567576Y-92089757D01*
X135559949Y-92086597D01*
X135559946Y-92086596D01*
X135434527Y-92034646D01*
X135434526Y-92034645D01*
X135426898Y-92031486D01*
X135418715Y-92030408D01*
X135418709Y-92030407D01*
X135284119Y-92012689D01*
X135275931Y-92011611D01*
X135267742Y-92012689D01*
X135259486Y-92012689D01*
X135259486Y-92011075D01*
X135199251Y-92001805D01*
X135146232Y-91955309D01*
X135126499Y-91887609D01*
X135126499Y-91203074D01*
X135126499Y-91203071D01*
X135126499Y-91196886D01*
X135114002Y-91134055D01*
X135083366Y-91088205D01*
X135073287Y-91073120D01*
X135066395Y-91062805D01*
X135051216Y-91052663D01*
X135005462Y-91022091D01*
X135005460Y-91022090D01*
X134995145Y-91015198D01*
X134981122Y-91012408D01*
X134938381Y-91003906D01*
X134938374Y-91003905D01*
X134932315Y-91002700D01*
X134926128Y-91002700D01*
X134440274Y-91002700D01*
X134440263Y-91002700D01*
X134434086Y-91002701D01*
X134428020Y-91003907D01*
X134428015Y-91003908D01*
X134383428Y-91012776D01*
X134383424Y-91012777D01*
X134371255Y-91015198D01*
X134360938Y-91022091D01*
X134360934Y-91022093D01*
X134353197Y-91027263D01*
X134307777Y-91046075D01*
X134258615Y-91046073D01*
X134213196Y-91027259D01*
X134205464Y-91022092D01*
X134205460Y-91022090D01*
X134195145Y-91015198D01*
X134181122Y-91012408D01*
X134138381Y-91003906D01*
X134138374Y-91003905D01*
X134132315Y-91002700D01*
X134126128Y-91002700D01*
X133640274Y-91002700D01*
X133640263Y-91002700D01*
X133634086Y-91002701D01*
X133628020Y-91003907D01*
X133628015Y-91003908D01*
X133583428Y-91012776D01*
X133583424Y-91012777D01*
X133571255Y-91015198D01*
X133560938Y-91022091D01*
X133560934Y-91022093D01*
X133553197Y-91027263D01*
X133507777Y-91046075D01*
X133458615Y-91046073D01*
X133413196Y-91027259D01*
X133405464Y-91022092D01*
X133405460Y-91022090D01*
X133395145Y-91015198D01*
X133381122Y-91012408D01*
X133338381Y-91003906D01*
X133338374Y-91003905D01*
X133332315Y-91002700D01*
X133326128Y-91002700D01*
X132840274Y-91002700D01*
X132840263Y-91002700D01*
X132834086Y-91002701D01*
X132828020Y-91003907D01*
X132828015Y-91003908D01*
X132783428Y-91012776D01*
X132783424Y-91012777D01*
X132771255Y-91015198D01*
X132760938Y-91022091D01*
X132760934Y-91022093D01*
X132753197Y-91027263D01*
X132707777Y-91046075D01*
X132658615Y-91046073D01*
X132613196Y-91027259D01*
X132605464Y-91022092D01*
X132605460Y-91022090D01*
X132595145Y-91015198D01*
X132581122Y-91012408D01*
X132538381Y-91003906D01*
X132538374Y-91003905D01*
X132532315Y-91002700D01*
X132526128Y-91002700D01*
X132040274Y-91002700D01*
X132040263Y-91002700D01*
X132034086Y-91002701D01*
X132028020Y-91003907D01*
X132028015Y-91003908D01*
X131983428Y-91012776D01*
X131983424Y-91012777D01*
X131971255Y-91015198D01*
X131960940Y-91022089D01*
X131960935Y-91022092D01*
X131910320Y-91055912D01*
X131910317Y-91055914D01*
X131900005Y-91062805D01*
X131893114Y-91073117D01*
X131893112Y-91073120D01*
X131859291Y-91123737D01*
X131859289Y-91123741D01*
X131852398Y-91134055D01*
X131849977Y-91146224D01*
X131849977Y-91146225D01*
X131841106Y-91190818D01*
X131841105Y-91190826D01*
X131839900Y-91196885D01*
X131839900Y-91203070D01*
X131839900Y-91203071D01*
X131839900Y-92128925D01*
X131839900Y-92128935D01*
X131839901Y-92135114D01*
X131841107Y-92141180D01*
X131841108Y-92141184D01*
X131849976Y-92185771D01*
X131849977Y-92185773D01*
X131852398Y-92197945D01*
X131859290Y-92208260D01*
X131859292Y-92208264D01*
X131900005Y-92269195D01*
X131898945Y-92269902D01*
X131922660Y-92309467D01*
X131925665Y-92370624D01*
X131899486Y-92425976D01*
X131850304Y-92462452D01*
X131812889Y-92477949D01*
X131812883Y-92477952D01*
X131805260Y-92481110D01*
X131798711Y-92486134D01*
X131798706Y-92486138D01*
X131691007Y-92568779D01*
X131691002Y-92568783D01*
X131684457Y-92573806D01*
X131679434Y-92580351D01*
X131679430Y-92580356D01*
X131596789Y-92688055D01*
X131596785Y-92688060D01*
X131591761Y-92694609D01*
X131588603Y-92702232D01*
X131588600Y-92702238D01*
X131539854Y-92819922D01*
X131533490Y-92835287D01*
X131532413Y-92843467D01*
X131532411Y-92843475D01*
X131521966Y-92922821D01*
X131513615Y-92986254D01*
X131514693Y-92994442D01*
X131532411Y-93129032D01*
X131532412Y-93129038D01*
X131533490Y-93137221D01*
X131536649Y-93144849D01*
X131536650Y-93144850D01*
X131588600Y-93270269D01*
X131588601Y-93270272D01*
X131591761Y-93277899D01*
X131596788Y-93284450D01*
X131596789Y-93284452D01*
X131679430Y-93392151D01*
X131684457Y-93398702D01*
X131691007Y-93403728D01*
X131767709Y-93462584D01*
X131804011Y-93506818D01*
X131817005Y-93562546D01*
X131817005Y-93669762D01*
X131816822Y-93672390D01*
X131814887Y-93678165D01*
X131815426Y-93689826D01*
X131815426Y-93689828D01*
X131816871Y-93721077D01*
X131817005Y-93726896D01*
X131817005Y-93743440D01*
X131818042Y-93748992D01*
X131818398Y-93754119D01*
X131819180Y-93771036D01*
X131819180Y-93771039D01*
X131819720Y-93782698D01*
X131824434Y-93793376D01*
X131826299Y-93801303D01*
X131829239Y-93808892D01*
X131831385Y-93820368D01*
X131844100Y-93840903D01*
X131852233Y-93856333D01*
X131861989Y-93878427D01*
X131870245Y-93886683D01*
X131874843Y-93893395D01*
X131880326Y-93899409D01*
X131886474Y-93909338D01*
X131905744Y-93923890D01*
X131918907Y-93935345D01*
X131982967Y-93999405D01*
X132013705Y-94049564D01*
X132018321Y-94108211D01*
X131995808Y-94162561D01*
X131951075Y-94200767D01*
X131893872Y-94214500D01*
X131594129Y-94214500D01*
X131545911Y-94204909D01*
X131505034Y-94177595D01*
X130688949Y-93361510D01*
X130658731Y-93312916D01*
X130653122Y-93255973D01*
X130669617Y-93130684D01*
X130649742Y-92979717D01*
X130591471Y-92839039D01*
X130498775Y-92718236D01*
X130467984Y-92694609D01*
X130384525Y-92630568D01*
X130384523Y-92630567D01*
X130377972Y-92625540D01*
X130370345Y-92622380D01*
X130370342Y-92622379D01*
X130244923Y-92570429D01*
X130244922Y-92570428D01*
X130237294Y-92567269D01*
X130229111Y-92566191D01*
X130229105Y-92566190D01*
X130094515Y-92548472D01*
X130086327Y-92547394D01*
X130078139Y-92548472D01*
X130078137Y-92548472D01*
X130038545Y-92553684D01*
X129968849Y-92542956D01*
X129915832Y-92496461D01*
X129896100Y-92428762D01*
X129896100Y-92396877D01*
X129910978Y-92337481D01*
X129952098Y-92292112D01*
X129969338Y-92280592D01*
X129986395Y-92269195D01*
X130034002Y-92197945D01*
X130046500Y-92135115D01*
X130046499Y-91196886D01*
X130034002Y-91134055D01*
X130003366Y-91088205D01*
X129993287Y-91073120D01*
X129986395Y-91062805D01*
X129971216Y-91052663D01*
X129925462Y-91022091D01*
X129925460Y-91022090D01*
X129915145Y-91015198D01*
X129901122Y-91012408D01*
X129858381Y-91003906D01*
X129858374Y-91003905D01*
X129852315Y-91002700D01*
X129846128Y-91002700D01*
X129360274Y-91002700D01*
X129360263Y-91002700D01*
X129354086Y-91002701D01*
X129348020Y-91003907D01*
X129348015Y-91003908D01*
X129303428Y-91012776D01*
X129303424Y-91012777D01*
X129291255Y-91015198D01*
X129280936Y-91022092D01*
X129280935Y-91022093D01*
X129273201Y-91027261D01*
X129227781Y-91046074D01*
X129178619Y-91046074D01*
X129133199Y-91027261D01*
X129131790Y-91026320D01*
X129115145Y-91015198D01*
X129101122Y-91012408D01*
X129058381Y-91003906D01*
X129058374Y-91003905D01*
X129052315Y-91002700D01*
X129046128Y-91002700D01*
X128560274Y-91002700D01*
X128560263Y-91002700D01*
X128554086Y-91002701D01*
X128548020Y-91003907D01*
X128548015Y-91003908D01*
X128503428Y-91012776D01*
X128503424Y-91012777D01*
X128491255Y-91015198D01*
X128480936Y-91022092D01*
X128480935Y-91022093D01*
X128473201Y-91027261D01*
X128427781Y-91046074D01*
X128378619Y-91046074D01*
X128333199Y-91027261D01*
X128331790Y-91026320D01*
X128315145Y-91015198D01*
X128301122Y-91012408D01*
X128258381Y-91003906D01*
X128258374Y-91003905D01*
X128252315Y-91002700D01*
X128246128Y-91002700D01*
X127760274Y-91002700D01*
X127760263Y-91002700D01*
X127754086Y-91002701D01*
X127748020Y-91003907D01*
X127748015Y-91003908D01*
X127703428Y-91012776D01*
X127703424Y-91012777D01*
X127691255Y-91015198D01*
X127680936Y-91022092D01*
X127680935Y-91022093D01*
X127673201Y-91027261D01*
X127627781Y-91046074D01*
X127578619Y-91046074D01*
X127533199Y-91027261D01*
X127531790Y-91026320D01*
X127515145Y-91015198D01*
X127501122Y-91012408D01*
X127458381Y-91003906D01*
X127458374Y-91003905D01*
X127452315Y-91002700D01*
X127446128Y-91002700D01*
X126960274Y-91002700D01*
X126960263Y-91002700D01*
X126954086Y-91002701D01*
X126948020Y-91003907D01*
X126948015Y-91003908D01*
X126903428Y-91012776D01*
X126903424Y-91012777D01*
X126891255Y-91015198D01*
X126880940Y-91022089D01*
X126880935Y-91022092D01*
X126830320Y-91055912D01*
X126830317Y-91055914D01*
X126820005Y-91062805D01*
X126813114Y-91073117D01*
X126813112Y-91073120D01*
X126779291Y-91123737D01*
X126779289Y-91123741D01*
X126772398Y-91134055D01*
X126769977Y-91146224D01*
X126769977Y-91146225D01*
X126761106Y-91190818D01*
X126761105Y-91190826D01*
X126759900Y-91196885D01*
X126759900Y-91203070D01*
X126759900Y-91203071D01*
X126759900Y-92128925D01*
X126759900Y-92128935D01*
X126759901Y-92135114D01*
X126761107Y-92141180D01*
X126761108Y-92141184D01*
X126769976Y-92185771D01*
X126769977Y-92185773D01*
X126772398Y-92197945D01*
X126779290Y-92208260D01*
X126779292Y-92208264D01*
X126813112Y-92258879D01*
X126820005Y-92269195D01*
X126830320Y-92276087D01*
X126831406Y-92277173D01*
X126865391Y-92339300D01*
X126860498Y-92409946D01*
X126829667Y-92451454D01*
X126832097Y-92453670D01*
X126803160Y-92485411D01*
X126799146Y-92489615D01*
X126791555Y-92497206D01*
X126791551Y-92497210D01*
X126787439Y-92501323D01*
X126784248Y-92505979D01*
X126780886Y-92509844D01*
X126769463Y-92522374D01*
X126769460Y-92522378D01*
X126761599Y-92531002D01*
X126757382Y-92541886D01*
X126753095Y-92548811D01*
X126749806Y-92556258D01*
X126743211Y-92565887D01*
X126740538Y-92577249D01*
X126740537Y-92577253D01*
X126737681Y-92589395D01*
X126732522Y-92606056D01*
X126723798Y-92628578D01*
X126722104Y-92627922D01*
X126713391Y-92650531D01*
X126682723Y-92684561D01*
X126602827Y-92745868D01*
X126591249Y-92754752D01*
X126586226Y-92761297D01*
X126586222Y-92761302D01*
X126503581Y-92869001D01*
X126503577Y-92869006D01*
X126498553Y-92875555D01*
X126495395Y-92883178D01*
X126495392Y-92883184D01*
X126443442Y-93008603D01*
X126440282Y-93016233D01*
X126439205Y-93024413D01*
X126439203Y-93024421D01*
X126423349Y-93144850D01*
X126420407Y-93167200D01*
X126421485Y-93175388D01*
X126439203Y-93309978D01*
X126439204Y-93309984D01*
X126440282Y-93318167D01*
X126443441Y-93325795D01*
X126443442Y-93325796D01*
X126495392Y-93451215D01*
X126495393Y-93451218D01*
X126498553Y-93458845D01*
X126503580Y-93465396D01*
X126503581Y-93465398D01*
X126585450Y-93572091D01*
X126591249Y-93579648D01*
X126706168Y-93667829D01*
X126735619Y-93707142D01*
X126738177Y-93705559D01*
X126738177Y-93705560D01*
X126750892Y-93726095D01*
X126759026Y-93741526D01*
X126763382Y-93751393D01*
X126768781Y-93763619D01*
X126777037Y-93771875D01*
X126781635Y-93778587D01*
X126787118Y-93784601D01*
X126793266Y-93794530D01*
X126807010Y-93804909D01*
X126812536Y-93809082D01*
X126825699Y-93820537D01*
X131288120Y-98282958D01*
X131289851Y-98284947D01*
X131292566Y-98290399D01*
X131319361Y-98314826D01*
X131324318Y-98319345D01*
X131328527Y-98323365D01*
X131340220Y-98335058D01*
X131344888Y-98338255D01*
X131348726Y-98341596D01*
X131369899Y-98360898D01*
X131380791Y-98365117D01*
X131387713Y-98369403D01*
X131395152Y-98372687D01*
X131404784Y-98379286D01*
X131428286Y-98384813D01*
X131444954Y-98389973D01*
X131467478Y-98398700D01*
X131479159Y-98398700D01*
X131487156Y-98400195D01*
X131495283Y-98400570D01*
X131506649Y-98403244D01*
X131530564Y-98399908D01*
X131547972Y-98398700D01*
X131930600Y-98398700D01*
X131993600Y-98415581D01*
X132039719Y-98461700D01*
X132056600Y-98524700D01*
X132056600Y-98718746D01*
X132057807Y-98724814D01*
X132068875Y-98780460D01*
X132068876Y-98780463D01*
X132071297Y-98792633D01*
X132078191Y-98802951D01*
X132082941Y-98814417D01*
X132082040Y-98814789D01*
X132094230Y-98844220D01*
X132094230Y-98893380D01*
X132082040Y-98922810D01*
X132082941Y-98923183D01*
X132078191Y-98934648D01*
X132071297Y-98944967D01*
X132068876Y-98957135D01*
X132068875Y-98957139D01*
X132059619Y-99003676D01*
X132056600Y-99018854D01*
X132056600Y-99025041D01*
X132056600Y-99187500D01*
X132039719Y-99250500D01*
X131993600Y-99296619D01*
X131930600Y-99313500D01*
X131751688Y-99313500D01*
X131748048Y-99313247D01*
X131741910Y-99311190D01*
X131730246Y-99311729D01*
X131694849Y-99313366D01*
X131689029Y-99313500D01*
X131670711Y-99313500D01*
X131664990Y-99314568D01*
X131664046Y-99314656D01*
X131658256Y-99315057D01*
X131639555Y-99315922D01*
X131639552Y-99315922D01*
X131627891Y-99316462D01*
X131617211Y-99321176D01*
X131609694Y-99322945D01*
X131605480Y-99324250D01*
X131598279Y-99327039D01*
X131586803Y-99329185D01*
X131576877Y-99335330D01*
X131576874Y-99335332D01*
X131563727Y-99343472D01*
X131548296Y-99351606D01*
X131534154Y-99357850D01*
X131534151Y-99357852D01*
X131523475Y-99362566D01*
X131515223Y-99370816D01*
X131508864Y-99375173D01*
X131505379Y-99377934D01*
X131499681Y-99383128D01*
X131489758Y-99389273D01*
X131482723Y-99398587D01*
X131482722Y-99398589D01*
X131473399Y-99410934D01*
X131461947Y-99424092D01*
X131178032Y-99708007D01*
X131128204Y-99738637D01*
X131069913Y-99743468D01*
X131015724Y-99721458D01*
X131014799Y-99720798D01*
X131010665Y-99717716D01*
X130968685Y-99685042D01*
X130961044Y-99682418D01*
X130954470Y-99677725D01*
X130944466Y-99674746D01*
X130944465Y-99674746D01*
X130903509Y-99662553D01*
X130898550Y-99660964D01*
X130858134Y-99647089D01*
X130858131Y-99647088D01*
X130848261Y-99643700D01*
X130840183Y-99643700D01*
X130832441Y-99641395D01*
X130822011Y-99641826D01*
X130822008Y-99641826D01*
X130779327Y-99643592D01*
X130774120Y-99643700D01*
X129033834Y-99643700D01*
X129007977Y-99641018D01*
X129007588Y-99640936D01*
X129007400Y-99640897D01*
X129007399Y-99640896D01*
X128997184Y-99638755D01*
X128986826Y-99640046D01*
X128986823Y-99640046D01*
X128965279Y-99642732D01*
X128959974Y-99643061D01*
X128959992Y-99643270D01*
X128954799Y-99643700D01*
X128949589Y-99643700D01*
X128944458Y-99644556D01*
X128944448Y-99644557D01*
X128928741Y-99647178D01*
X128923596Y-99647927D01*
X128881195Y-99653213D01*
X128881193Y-99653213D01*
X128870840Y-99654504D01*
X128863581Y-99658052D01*
X128855614Y-99659382D01*
X128846437Y-99664347D01*
X128846437Y-99664348D01*
X128808861Y-99684682D01*
X128804236Y-99687062D01*
X128765831Y-99705837D01*
X128765823Y-99705842D01*
X128756454Y-99710423D01*
X128750740Y-99716136D01*
X128743638Y-99719980D01*
X128736572Y-99727654D01*
X128736566Y-99727660D01*
X128707618Y-99759106D01*
X128704014Y-99762861D01*
X127821255Y-100645620D01*
X127801084Y-100662002D01*
X127800588Y-100662325D01*
X127800580Y-100662331D01*
X127791844Y-100668040D01*
X127785433Y-100676275D01*
X127785428Y-100676281D01*
X127772089Y-100693419D01*
X127768588Y-100697408D01*
X127768735Y-100697532D01*
X127765364Y-100701512D01*
X127761686Y-100705191D01*
X127758663Y-100709423D01*
X127758661Y-100709427D01*
X127749408Y-100722385D01*
X127746304Y-100726548D01*
X127720052Y-100760278D01*
X127720049Y-100760281D01*
X127713642Y-100768515D01*
X127711018Y-100776155D01*
X127706325Y-100782730D01*
X127703349Y-100792723D01*
X127703346Y-100792731D01*
X127691149Y-100833700D01*
X127689562Y-100838654D01*
X127675689Y-100879065D01*
X127675688Y-100879069D01*
X127672300Y-100888939D01*
X127672300Y-100897017D01*
X127669995Y-100904759D01*
X127670426Y-100915189D01*
X127670426Y-100915193D01*
X127670661Y-100920868D01*
X127653541Y-100989671D01*
X127601978Y-101038337D01*
X127597626Y-101040554D01*
X127597619Y-101040558D01*
X127588791Y-101045057D01*
X127581782Y-101052065D01*
X127581779Y-101052068D01*
X127505468Y-101128379D01*
X127505465Y-101128382D01*
X127498457Y-101135391D01*
X127493958Y-101144219D01*
X127493956Y-101144223D01*
X127444958Y-101240386D01*
X127444955Y-101240392D01*
X127440458Y-101249220D01*
X127438907Y-101259009D01*
X127438907Y-101259011D01*
X127426274Y-101338770D01*
X127426273Y-101338778D01*
X127425500Y-101343661D01*
X127425500Y-101348612D01*
X127425500Y-101348613D01*
X127425500Y-101902183D01*
X127425500Y-101902195D01*
X127425501Y-101907138D01*
X127426274Y-101912019D01*
X127426275Y-101912031D01*
X127438371Y-101988405D01*
X127440458Y-102001580D01*
X127444961Y-102010417D01*
X127493917Y-102106500D01*
X127498457Y-102115409D01*
X127588791Y-102205743D01*
X127597625Y-102210244D01*
X127603502Y-102213239D01*
X127653732Y-102259671D01*
X127672300Y-102325506D01*
X127672300Y-102392785D01*
X127662706Y-102441010D01*
X127635385Y-102481891D01*
X127631045Y-102486230D01*
X127610887Y-102502599D01*
X127610389Y-102502924D01*
X127610380Y-102502931D01*
X127601644Y-102508640D01*
X127595233Y-102516875D01*
X127595229Y-102516880D01*
X127581889Y-102534019D01*
X127578388Y-102538008D01*
X127578535Y-102538132D01*
X127575164Y-102542112D01*
X127571486Y-102545791D01*
X127568463Y-102550023D01*
X127568461Y-102550027D01*
X127559208Y-102562985D01*
X127556104Y-102567148D01*
X127529852Y-102600878D01*
X127529849Y-102600881D01*
X127523442Y-102609115D01*
X127520818Y-102616755D01*
X127516125Y-102623330D01*
X127513149Y-102633323D01*
X127513146Y-102633331D01*
X127500949Y-102674300D01*
X127499362Y-102679254D01*
X127485489Y-102719665D01*
X127485488Y-102719669D01*
X127482100Y-102729539D01*
X127482100Y-102737617D01*
X127479795Y-102745359D01*
X127480226Y-102755787D01*
X127480226Y-102755791D01*
X127481992Y-102798473D01*
X127482100Y-102803680D01*
X127482100Y-103296175D01*
X127471587Y-103346561D01*
X127441802Y-103388540D01*
X127397715Y-103415104D01*
X127343320Y-103434137D01*
X127343316Y-103434138D01*
X127334408Y-103437256D01*
X127326812Y-103442861D01*
X127326810Y-103442863D01*
X127238121Y-103508318D01*
X127238117Y-103508321D01*
X127230525Y-103513925D01*
X127224921Y-103521517D01*
X127224918Y-103521521D01*
X127159463Y-103610210D01*
X127159461Y-103610212D01*
X127153856Y-103617808D01*
X127150738Y-103626716D01*
X127150737Y-103626720D01*
X127113745Y-103732437D01*
X127113743Y-103732442D01*
X127111213Y-103739675D01*
X127110497Y-103747302D01*
X127110497Y-103747306D01*
X127109773Y-103755028D01*
X127108500Y-103768607D01*
X127108500Y-103771559D01*
X127108500Y-103771560D01*
X127108500Y-105168855D01*
X127108500Y-105168876D01*
X127108501Y-105171792D01*
X127111213Y-105200725D01*
X127113745Y-105207963D01*
X127113746Y-105207964D01*
X127150736Y-105313677D01*
X127153856Y-105322592D01*
X127230525Y-105426475D01*
X127334408Y-105503144D01*
X127456275Y-105545787D01*
X127485207Y-105548500D01*
X127511985Y-105548499D01*
X127560203Y-105558089D01*
X127601082Y-105585404D01*
X128394815Y-106379137D01*
X128411202Y-106399315D01*
X128411527Y-106399813D01*
X128411530Y-106399816D01*
X128417240Y-106408556D01*
X128442629Y-106428317D01*
X128446595Y-106431820D01*
X128446731Y-106431661D01*
X128450704Y-106435026D01*
X128454391Y-106438713D01*
X128458631Y-106441740D01*
X128471574Y-106450981D01*
X128475722Y-106454073D01*
X128517715Y-106486758D01*
X128525355Y-106489381D01*
X128531930Y-106494075D01*
X128582949Y-106509263D01*
X128587813Y-106510822D01*
X128638139Y-106528100D01*
X128646216Y-106528100D01*
X128653958Y-106530405D01*
X128707072Y-106528208D01*
X128712280Y-106528100D01*
X129850966Y-106528100D01*
X129899184Y-106537691D01*
X129940061Y-106565005D01*
X129956414Y-106581358D01*
X129956189Y-106581582D01*
X129972095Y-106596653D01*
X129990415Y-106628859D01*
X129991936Y-106632785D01*
X129994082Y-106644263D01*
X130000229Y-106654190D01*
X130000230Y-106654193D01*
X130008243Y-106667135D01*
X130016378Y-106682567D01*
X130027244Y-106707175D01*
X130035500Y-106715431D01*
X130040002Y-106722003D01*
X130042266Y-106724861D01*
X130047629Y-106730744D01*
X130053776Y-106740671D01*
X130063092Y-106747706D01*
X130063093Y-106747707D01*
X130075243Y-106756882D01*
X130088406Y-106768337D01*
X130482351Y-107162282D01*
X130484697Y-107164977D01*
X130487569Y-107170745D01*
X130496193Y-107178607D01*
X130496194Y-107178608D01*
X130522151Y-107202271D01*
X130526359Y-107206290D01*
X130539209Y-107219140D01*
X130544029Y-107222442D01*
X130544583Y-107222902D01*
X130548960Y-107226711D01*
X130560741Y-107237451D01*
X130571369Y-107247140D01*
X130569144Y-107249580D01*
X130598966Y-107281096D01*
X130614313Y-107343719D01*
X130596672Y-107405734D01*
X130550663Y-107450904D01*
X130488334Y-107467400D01*
X127712590Y-107467400D01*
X127664372Y-107457809D01*
X127623495Y-107430495D01*
X123988905Y-103795905D01*
X123961591Y-103755028D01*
X123952000Y-103706810D01*
X123952000Y-96659410D01*
X123952000Y-96647000D01*
X115354199Y-88049199D01*
X115321599Y-87992759D01*
X115321564Y-87927581D01*
X115354102Y-87871105D01*
X115363259Y-87861928D01*
X117371064Y-85849768D01*
X123634900Y-85849768D01*
X123634901Y-85849774D01*
X123634901Y-85855960D01*
X123645245Y-85907969D01*
X123684653Y-85966947D01*
X123743631Y-86006355D01*
X123795639Y-86016700D01*
X125530760Y-86016699D01*
X125582769Y-86006355D01*
X125641747Y-85966947D01*
X125681155Y-85907969D01*
X125691500Y-85855961D01*
X125691499Y-84988400D01*
X126169924Y-84988400D01*
X126189778Y-85189982D01*
X126248577Y-85383818D01*
X126344062Y-85562457D01*
X126347987Y-85567239D01*
X126347988Y-85567241D01*
X126424592Y-85660582D01*
X126472564Y-85719036D01*
X126629143Y-85847538D01*
X126807782Y-85943023D01*
X126833878Y-85950939D01*
X126880379Y-85976782D01*
X126912069Y-86019513D01*
X126923300Y-86071513D01*
X126923300Y-89176437D01*
X126908422Y-89235833D01*
X126867302Y-89281202D01*
X126830321Y-89305911D01*
X126830317Y-89305914D01*
X126820005Y-89312805D01*
X126813114Y-89323117D01*
X126813112Y-89323120D01*
X126779291Y-89373737D01*
X126779289Y-89373741D01*
X126772398Y-89384055D01*
X126769977Y-89396224D01*
X126769977Y-89396225D01*
X126761106Y-89440818D01*
X126761105Y-89440826D01*
X126759900Y-89446885D01*
X126759900Y-89453070D01*
X126759900Y-89453071D01*
X126759900Y-90378925D01*
X126759900Y-90378935D01*
X126759901Y-90385114D01*
X126761107Y-90391180D01*
X126761108Y-90391184D01*
X126769976Y-90435771D01*
X126769977Y-90435773D01*
X126772398Y-90447945D01*
X126779290Y-90458260D01*
X126779292Y-90458264D01*
X126796264Y-90483664D01*
X126820005Y-90519195D01*
X126891255Y-90566802D01*
X126954085Y-90579300D01*
X127452314Y-90579299D01*
X127515145Y-90566802D01*
X127533197Y-90554740D01*
X127578618Y-90535925D01*
X127627782Y-90535925D01*
X127673202Y-90554740D01*
X127691255Y-90566802D01*
X127754085Y-90579300D01*
X128252314Y-90579299D01*
X128315145Y-90566802D01*
X128333197Y-90554740D01*
X128378618Y-90535925D01*
X128427782Y-90535925D01*
X128473202Y-90554740D01*
X128491255Y-90566802D01*
X128554085Y-90579300D01*
X129052314Y-90579299D01*
X129115145Y-90566802D01*
X129133197Y-90554740D01*
X129178618Y-90535925D01*
X129227782Y-90535925D01*
X129273202Y-90554740D01*
X129291255Y-90566802D01*
X129354085Y-90579300D01*
X129852314Y-90579299D01*
X129915145Y-90566802D01*
X129986395Y-90519195D01*
X130034002Y-90447945D01*
X130046500Y-90385115D01*
X130046499Y-89446886D01*
X130034002Y-89384055D01*
X130003366Y-89338205D01*
X129993287Y-89323120D01*
X129986395Y-89312805D01*
X129976079Y-89305912D01*
X129976078Y-89305911D01*
X129939098Y-89281202D01*
X129897978Y-89235833D01*
X129883100Y-89176437D01*
X129883100Y-87861928D01*
X129892691Y-87813710D01*
X129920002Y-87772835D01*
X131177372Y-86515464D01*
X131179342Y-86513750D01*
X131184799Y-86511034D01*
X131192749Y-86502313D01*
X131213734Y-86479294D01*
X131217758Y-86475079D01*
X131220176Y-86472661D01*
X131229458Y-86463380D01*
X131232652Y-86458715D01*
X131235977Y-86454892D01*
X131255298Y-86433701D01*
X131259518Y-86422805D01*
X131263799Y-86415892D01*
X131267084Y-86408452D01*
X131273686Y-86398816D01*
X131279215Y-86375302D01*
X131284372Y-86358648D01*
X131293100Y-86336122D01*
X131293100Y-86324444D01*
X131294595Y-86316447D01*
X131294970Y-86308316D01*
X131297644Y-86296951D01*
X131294308Y-86273035D01*
X131293100Y-86255628D01*
X131293100Y-85755025D01*
X131307978Y-85695629D01*
X131349098Y-85650260D01*
X131406750Y-85629632D01*
X131467318Y-85638616D01*
X131516499Y-85675091D01*
X131552564Y-85719036D01*
X131709143Y-85847538D01*
X131887782Y-85943023D01*
X131913878Y-85950939D01*
X131960379Y-85976782D01*
X131992069Y-86019513D01*
X132003300Y-86071513D01*
X132003300Y-89176437D01*
X131988422Y-89235833D01*
X131947302Y-89281202D01*
X131910321Y-89305911D01*
X131910317Y-89305914D01*
X131900005Y-89312805D01*
X131893114Y-89323117D01*
X131893112Y-89323120D01*
X131859291Y-89373737D01*
X131859289Y-89373741D01*
X131852398Y-89384055D01*
X131849977Y-89396224D01*
X131849977Y-89396225D01*
X131841106Y-89440818D01*
X131841105Y-89440826D01*
X131839900Y-89446885D01*
X131839900Y-89453070D01*
X131839900Y-89453071D01*
X131839900Y-90378925D01*
X131839900Y-90378935D01*
X131839901Y-90385114D01*
X131841107Y-90391180D01*
X131841108Y-90391184D01*
X131849976Y-90435771D01*
X131849977Y-90435773D01*
X131852398Y-90447945D01*
X131859290Y-90458260D01*
X131859292Y-90458264D01*
X131876264Y-90483664D01*
X131900005Y-90519195D01*
X131971255Y-90566802D01*
X132034085Y-90579300D01*
X132532314Y-90579299D01*
X132595145Y-90566802D01*
X132613197Y-90554740D01*
X132658618Y-90535925D01*
X132707782Y-90535925D01*
X132753202Y-90554740D01*
X132771255Y-90566802D01*
X132834085Y-90579300D01*
X133332314Y-90579299D01*
X133395145Y-90566802D01*
X133413197Y-90554740D01*
X133458618Y-90535925D01*
X133507782Y-90535925D01*
X133553202Y-90554740D01*
X133571255Y-90566802D01*
X133634085Y-90579300D01*
X134132314Y-90579299D01*
X134195145Y-90566802D01*
X134213197Y-90554740D01*
X134258618Y-90535925D01*
X134307782Y-90535925D01*
X134353202Y-90554740D01*
X134371255Y-90566802D01*
X134434085Y-90579300D01*
X134932314Y-90579299D01*
X134995145Y-90566802D01*
X135066395Y-90519195D01*
X135114002Y-90447945D01*
X135126500Y-90385115D01*
X135126499Y-89446886D01*
X135114002Y-89384055D01*
X135083366Y-89338205D01*
X135073287Y-89323120D01*
X135066395Y-89312805D01*
X135056079Y-89305912D01*
X135056078Y-89305911D01*
X135019098Y-89281202D01*
X134977978Y-89235833D01*
X134963100Y-89176437D01*
X134963100Y-87531728D01*
X134972691Y-87483510D01*
X135000002Y-87442635D01*
X136257372Y-86185264D01*
X136259342Y-86183550D01*
X136264799Y-86180834D01*
X136275399Y-86169206D01*
X136293734Y-86149094D01*
X136297758Y-86144879D01*
X136300175Y-86142462D01*
X136309458Y-86133180D01*
X136312652Y-86128515D01*
X136315977Y-86124692D01*
X136335298Y-86103501D01*
X136339518Y-86092605D01*
X136343799Y-86085692D01*
X136347084Y-86078252D01*
X136353686Y-86068616D01*
X136359215Y-86045102D01*
X136364372Y-86028448D01*
X136373100Y-86005922D01*
X136373100Y-85994244D01*
X136374595Y-85986247D01*
X136374970Y-85978116D01*
X136377644Y-85966751D01*
X136374308Y-85942835D01*
X136373100Y-85925428D01*
X136373100Y-85755025D01*
X136387978Y-85695629D01*
X136429098Y-85650260D01*
X136486750Y-85629632D01*
X136547318Y-85638616D01*
X136596499Y-85675091D01*
X136632564Y-85719036D01*
X136789143Y-85847538D01*
X136967782Y-85943023D01*
X136993878Y-85950939D01*
X137040379Y-85976782D01*
X137072069Y-86019513D01*
X137083300Y-86071513D01*
X137083300Y-89176437D01*
X137068422Y-89235833D01*
X137027302Y-89281202D01*
X136990321Y-89305911D01*
X136990317Y-89305914D01*
X136980005Y-89312805D01*
X136973114Y-89323117D01*
X136973112Y-89323120D01*
X136939291Y-89373737D01*
X136939289Y-89373741D01*
X136932398Y-89384055D01*
X136929977Y-89396224D01*
X136929977Y-89396225D01*
X136921106Y-89440818D01*
X136921105Y-89440826D01*
X136919900Y-89446885D01*
X136919900Y-89453070D01*
X136919900Y-89453071D01*
X136919900Y-90378925D01*
X136919900Y-90378935D01*
X136919901Y-90385114D01*
X136921107Y-90391180D01*
X136921108Y-90391184D01*
X136929976Y-90435771D01*
X136929977Y-90435773D01*
X136932398Y-90447945D01*
X136939290Y-90458260D01*
X136939292Y-90458264D01*
X136956264Y-90483664D01*
X136980005Y-90519195D01*
X137051255Y-90566802D01*
X137114085Y-90579300D01*
X137612314Y-90579299D01*
X137675145Y-90566802D01*
X137693197Y-90554740D01*
X137738618Y-90535925D01*
X137787782Y-90535925D01*
X137833202Y-90554740D01*
X137851255Y-90566802D01*
X137914085Y-90579300D01*
X138412314Y-90579299D01*
X138475145Y-90566802D01*
X138493197Y-90554740D01*
X138538618Y-90535925D01*
X138587782Y-90535925D01*
X138633202Y-90554740D01*
X138651255Y-90566802D01*
X138714085Y-90579300D01*
X139212314Y-90579299D01*
X139275145Y-90566802D01*
X139293197Y-90554740D01*
X139338618Y-90535925D01*
X139387782Y-90535925D01*
X139433202Y-90554740D01*
X139451255Y-90566802D01*
X139514085Y-90579300D01*
X140012314Y-90579299D01*
X140075145Y-90566802D01*
X140146395Y-90519195D01*
X140194002Y-90447945D01*
X140206500Y-90385115D01*
X140206499Y-89446886D01*
X140194002Y-89384055D01*
X140163366Y-89338205D01*
X140153287Y-89323120D01*
X140146395Y-89312805D01*
X140136079Y-89305912D01*
X140136078Y-89305911D01*
X140099098Y-89281202D01*
X140057978Y-89235833D01*
X140043100Y-89176437D01*
X140043100Y-88522328D01*
X140052691Y-88474110D01*
X140080002Y-88433235D01*
X141337372Y-87175864D01*
X141339342Y-87174150D01*
X141344799Y-87171434D01*
X141353456Y-87161938D01*
X141373734Y-87139694D01*
X141377758Y-87135479D01*
X141381519Y-87131718D01*
X141389458Y-87123780D01*
X141392652Y-87119115D01*
X141395977Y-87115292D01*
X141415298Y-87094101D01*
X141419518Y-87083205D01*
X141423799Y-87076292D01*
X141427084Y-87068852D01*
X141433686Y-87059216D01*
X141439215Y-87035702D01*
X141444372Y-87019048D01*
X141453100Y-86996522D01*
X141453100Y-86984844D01*
X141454595Y-86976847D01*
X141454970Y-86968716D01*
X141457644Y-86957351D01*
X141454308Y-86933435D01*
X141453100Y-86916028D01*
X141453100Y-85755025D01*
X141467978Y-85695629D01*
X141509098Y-85650260D01*
X141566750Y-85629632D01*
X141627318Y-85638616D01*
X141676499Y-85675091D01*
X141712564Y-85719036D01*
X141869143Y-85847538D01*
X142047782Y-85943023D01*
X142073878Y-85950939D01*
X142120379Y-85976782D01*
X142152069Y-86019513D01*
X142163300Y-86071513D01*
X142163300Y-89168018D01*
X142148422Y-89227414D01*
X142107302Y-89272783D01*
X142057721Y-89305911D01*
X142057717Y-89305914D01*
X142047405Y-89312805D01*
X142040514Y-89323117D01*
X142040512Y-89323120D01*
X142006691Y-89373737D01*
X142006689Y-89373741D01*
X141999798Y-89384055D01*
X141997377Y-89396224D01*
X141997377Y-89396225D01*
X141988506Y-89440818D01*
X141988505Y-89440826D01*
X141987300Y-89446885D01*
X141987300Y-89453070D01*
X141987300Y-89453071D01*
X141987300Y-90378925D01*
X141987300Y-90378935D01*
X141987301Y-90385114D01*
X141988507Y-90391180D01*
X141988508Y-90391184D01*
X141997376Y-90435771D01*
X141997377Y-90435773D01*
X141999798Y-90447945D01*
X142006690Y-90458260D01*
X142006692Y-90458264D01*
X142023664Y-90483664D01*
X142047405Y-90519195D01*
X142118655Y-90566802D01*
X142181485Y-90579300D01*
X142679714Y-90579299D01*
X142742545Y-90566802D01*
X142760597Y-90554740D01*
X142806018Y-90535925D01*
X142855182Y-90535925D01*
X142900602Y-90554740D01*
X142918655Y-90566802D01*
X142981485Y-90579300D01*
X143479714Y-90579299D01*
X143542545Y-90566802D01*
X143560597Y-90554740D01*
X143606018Y-90535925D01*
X143655182Y-90535925D01*
X143700602Y-90554740D01*
X143718655Y-90566802D01*
X143781485Y-90579300D01*
X144279714Y-90579299D01*
X144342545Y-90566802D01*
X144360597Y-90554740D01*
X144406018Y-90535925D01*
X144455182Y-90535925D01*
X144500602Y-90554740D01*
X144518655Y-90566802D01*
X144581485Y-90579300D01*
X145079714Y-90579299D01*
X145142545Y-90566802D01*
X145213795Y-90519195D01*
X145261402Y-90447945D01*
X145273900Y-90385115D01*
X145273899Y-89446886D01*
X145261402Y-89384055D01*
X145230766Y-89338205D01*
X145220687Y-89323120D01*
X145213795Y-89312805D01*
X145203479Y-89305912D01*
X145203478Y-89305911D01*
X145166498Y-89281202D01*
X145125378Y-89235833D01*
X145110500Y-89176437D01*
X145110500Y-87823728D01*
X145120091Y-87775510D01*
X145147405Y-87734633D01*
X145766780Y-87115258D01*
X146391969Y-86490068D01*
X146393945Y-86488348D01*
X146399399Y-86485634D01*
X146409999Y-86474006D01*
X146428323Y-86453906D01*
X146432347Y-86449691D01*
X146435981Y-86446057D01*
X146444058Y-86437981D01*
X146447254Y-86433313D01*
X146450603Y-86429464D01*
X146469898Y-86408301D01*
X146474117Y-86397408D01*
X146478399Y-86390493D01*
X146481684Y-86383052D01*
X146488286Y-86373416D01*
X146493816Y-86349898D01*
X146498971Y-86333251D01*
X146507700Y-86310722D01*
X146507700Y-86299044D01*
X146509193Y-86291058D01*
X146509569Y-86282919D01*
X146512243Y-86271551D01*
X146508907Y-86247640D01*
X146507700Y-86230235D01*
X146507700Y-85724075D01*
X146522578Y-85664679D01*
X146563698Y-85619310D01*
X146621350Y-85598682D01*
X146681918Y-85607666D01*
X146731098Y-85644140D01*
X146792564Y-85719036D01*
X146949143Y-85847538D01*
X147127782Y-85943023D01*
X147153878Y-85950939D01*
X147200379Y-85976782D01*
X147232069Y-86019513D01*
X147243300Y-86071513D01*
X147243300Y-89201837D01*
X147228422Y-89261233D01*
X147187302Y-89306602D01*
X147150321Y-89331311D01*
X147150317Y-89331314D01*
X147140005Y-89338205D01*
X147133114Y-89348517D01*
X147133112Y-89348520D01*
X147099291Y-89399137D01*
X147099289Y-89399141D01*
X147092398Y-89409455D01*
X147089977Y-89421624D01*
X147089977Y-89421625D01*
X147081106Y-89466218D01*
X147081105Y-89466226D01*
X147079900Y-89472285D01*
X147079900Y-89478470D01*
X147079900Y-89478471D01*
X147079900Y-90404325D01*
X147079900Y-90404335D01*
X147079901Y-90410514D01*
X147081107Y-90416580D01*
X147081108Y-90416584D01*
X147089976Y-90461171D01*
X147089977Y-90461173D01*
X147092398Y-90473345D01*
X147099290Y-90483660D01*
X147099292Y-90483664D01*
X147133112Y-90534279D01*
X147140005Y-90544595D01*
X147211255Y-90592202D01*
X147274085Y-90604700D01*
X147772314Y-90604699D01*
X147835145Y-90592202D01*
X147853197Y-90580140D01*
X147898618Y-90561325D01*
X147947782Y-90561325D01*
X147993202Y-90580140D01*
X148011255Y-90592202D01*
X148074085Y-90604700D01*
X148572314Y-90604699D01*
X148635145Y-90592202D01*
X148706395Y-90544595D01*
X148754002Y-90473345D01*
X148766500Y-90410515D01*
X148766499Y-89472286D01*
X148754002Y-89409455D01*
X148745164Y-89396228D01*
X148713287Y-89348520D01*
X148706395Y-89338205D01*
X148696079Y-89331312D01*
X148696078Y-89331311D01*
X148659098Y-89306602D01*
X148617978Y-89261233D01*
X148603100Y-89201837D01*
X148603100Y-87658528D01*
X148612691Y-87610310D01*
X148640001Y-87569436D01*
X148931976Y-87277461D01*
X148933943Y-87275749D01*
X148939399Y-87273034D01*
X148968327Y-87241300D01*
X148972348Y-87237090D01*
X148984058Y-87225381D01*
X148987254Y-87220713D01*
X148990603Y-87216864D01*
X149009898Y-87195701D01*
X149014117Y-87184808D01*
X149018399Y-87177893D01*
X149021684Y-87170452D01*
X149028286Y-87160816D01*
X149033816Y-87137298D01*
X149038971Y-87120651D01*
X149047700Y-87098122D01*
X149047700Y-87086444D01*
X149049193Y-87078458D01*
X149049569Y-87070319D01*
X149052243Y-87058951D01*
X149048907Y-87035040D01*
X149047700Y-87017635D01*
X149047700Y-85724075D01*
X149062578Y-85664679D01*
X149103698Y-85619310D01*
X149161350Y-85598682D01*
X149221918Y-85607666D01*
X149271098Y-85644140D01*
X149332564Y-85719036D01*
X149489143Y-85847538D01*
X149667782Y-85943023D01*
X149693878Y-85950939D01*
X149740379Y-85976782D01*
X149772069Y-86019513D01*
X149783300Y-86071513D01*
X149783300Y-88144981D01*
X149774791Y-88190499D01*
X149750413Y-88229869D01*
X149722663Y-88260308D01*
X149718649Y-88264512D01*
X149711058Y-88272103D01*
X149711054Y-88272107D01*
X149706942Y-88276220D01*
X149703751Y-88280876D01*
X149700389Y-88284741D01*
X149688966Y-88297271D01*
X149688963Y-88297275D01*
X149681102Y-88305899D01*
X149676885Y-88316783D01*
X149672598Y-88323708D01*
X149669309Y-88331155D01*
X149662714Y-88340784D01*
X149660041Y-88352146D01*
X149660040Y-88352150D01*
X149657184Y-88364292D01*
X149652025Y-88380953D01*
X149647518Y-88392586D01*
X149647516Y-88392592D01*
X149643300Y-88403478D01*
X149643300Y-88415151D01*
X149641804Y-88423154D01*
X149641427Y-88431289D01*
X149638756Y-88442649D01*
X149640368Y-88454206D01*
X149640368Y-88454209D01*
X149642092Y-88466565D01*
X149643300Y-88483972D01*
X149643300Y-89201837D01*
X149628422Y-89261233D01*
X149587302Y-89306602D01*
X149550321Y-89331311D01*
X149550317Y-89331314D01*
X149540005Y-89338205D01*
X149533114Y-89348517D01*
X149533112Y-89348520D01*
X149499291Y-89399137D01*
X149499289Y-89399141D01*
X149492398Y-89409455D01*
X149489977Y-89421624D01*
X149489977Y-89421625D01*
X149481106Y-89466218D01*
X149481105Y-89466226D01*
X149479900Y-89472285D01*
X149479900Y-89478470D01*
X149479900Y-89478471D01*
X149479900Y-90404325D01*
X149479900Y-90404335D01*
X149479901Y-90410514D01*
X149481107Y-90416580D01*
X149481108Y-90416584D01*
X149489976Y-90461171D01*
X149489977Y-90461173D01*
X149492398Y-90473345D01*
X149499290Y-90483660D01*
X149499292Y-90483664D01*
X149533112Y-90534279D01*
X149540005Y-90544595D01*
X149611255Y-90592202D01*
X149674085Y-90604700D01*
X150172314Y-90604699D01*
X150235145Y-90592202D01*
X150306395Y-90544595D01*
X150354002Y-90473345D01*
X150366500Y-90410515D01*
X150366499Y-89472286D01*
X150354002Y-89409455D01*
X150345164Y-89396228D01*
X150313287Y-89348520D01*
X150306395Y-89338205D01*
X150296079Y-89331312D01*
X150296078Y-89331311D01*
X150259098Y-89306602D01*
X150217978Y-89261233D01*
X150203100Y-89201837D01*
X150203100Y-88626619D01*
X150211608Y-88581103D01*
X150235984Y-88541734D01*
X150263737Y-88511289D01*
X150267758Y-88507079D01*
X150279458Y-88495380D01*
X150282652Y-88490715D01*
X150285977Y-88486892D01*
X150305298Y-88465701D01*
X150309518Y-88454805D01*
X150313799Y-88447892D01*
X150317084Y-88440452D01*
X150323686Y-88430816D01*
X150329215Y-88407302D01*
X150334372Y-88390648D01*
X150343100Y-88368122D01*
X150343100Y-88356444D01*
X150344595Y-88348447D01*
X150344970Y-88340316D01*
X150347644Y-88328951D01*
X150344308Y-88305035D01*
X150343100Y-88287628D01*
X150343100Y-86071513D01*
X150354331Y-86019513D01*
X150386021Y-85976782D01*
X150432522Y-85950939D01*
X150458618Y-85943023D01*
X150637257Y-85847538D01*
X150793836Y-85719036D01*
X150922338Y-85562457D01*
X151017823Y-85383818D01*
X151076622Y-85189982D01*
X151096476Y-84988400D01*
X154109924Y-84988400D01*
X154129778Y-85189982D01*
X154188577Y-85383818D01*
X154284062Y-85562457D01*
X154287987Y-85567239D01*
X154287988Y-85567241D01*
X154364592Y-85660582D01*
X154412564Y-85719036D01*
X154569143Y-85847538D01*
X154747782Y-85943023D01*
X154941618Y-86001822D01*
X155143200Y-86021676D01*
X155344782Y-86001822D01*
X155538618Y-85943023D01*
X155717257Y-85847538D01*
X155873836Y-85719036D01*
X156002338Y-85562457D01*
X156097823Y-85383818D01*
X156156622Y-85189982D01*
X156176476Y-84988400D01*
X156156622Y-84786818D01*
X156097823Y-84592982D01*
X156002338Y-84414343D01*
X155873836Y-84257764D01*
X155717257Y-84129262D01*
X155538618Y-84033777D01*
X155532697Y-84031981D01*
X155532695Y-84031980D01*
X155350704Y-83976774D01*
X155350700Y-83976773D01*
X155344782Y-83974978D01*
X155143200Y-83955124D01*
X155137037Y-83955731D01*
X154947780Y-83974371D01*
X154947779Y-83974371D01*
X154941618Y-83974978D01*
X154935701Y-83976772D01*
X154935695Y-83976774D01*
X154753704Y-84031980D01*
X154753698Y-84031982D01*
X154747782Y-84033777D01*
X154742324Y-84036694D01*
X154742320Y-84036696D01*
X154596255Y-84114770D01*
X154569143Y-84129262D01*
X154564362Y-84133186D01*
X154417343Y-84253841D01*
X154417337Y-84253846D01*
X154412564Y-84257764D01*
X154408646Y-84262537D01*
X154408641Y-84262543D01*
X154287988Y-84409558D01*
X154287983Y-84409564D01*
X154284062Y-84414343D01*
X154281144Y-84419801D01*
X154281144Y-84419802D01*
X154191496Y-84587520D01*
X154191494Y-84587524D01*
X154188577Y-84592982D01*
X154186782Y-84598898D01*
X154186780Y-84598904D01*
X154131574Y-84780895D01*
X154131572Y-84780901D01*
X154129778Y-84786818D01*
X154109924Y-84988400D01*
X151096476Y-84988400D01*
X151076622Y-84786818D01*
X151017823Y-84592982D01*
X150922338Y-84414343D01*
X150793836Y-84257764D01*
X150637257Y-84129262D01*
X150458618Y-84033777D01*
X150452699Y-84031981D01*
X150452698Y-84031981D01*
X150432522Y-84025861D01*
X150386021Y-84000018D01*
X150354331Y-83957287D01*
X150343100Y-83905287D01*
X150343100Y-83531513D01*
X150354331Y-83479513D01*
X150386021Y-83436782D01*
X150432522Y-83410939D01*
X150458618Y-83403023D01*
X150637257Y-83307538D01*
X150793836Y-83179036D01*
X150922338Y-83022457D01*
X151017823Y-82843818D01*
X151076622Y-82649982D01*
X151096476Y-82448400D01*
X154109924Y-82448400D01*
X154129778Y-82649982D01*
X154188577Y-82843818D01*
X154284062Y-83022457D01*
X154412564Y-83179036D01*
X154569143Y-83307538D01*
X154747782Y-83403023D01*
X154941618Y-83461822D01*
X155143200Y-83481676D01*
X155344782Y-83461822D01*
X155538618Y-83403023D01*
X155717257Y-83307538D01*
X155873836Y-83179036D01*
X156002338Y-83022457D01*
X156097823Y-82843818D01*
X156156622Y-82649982D01*
X156176476Y-82448400D01*
X156156622Y-82246818D01*
X156097823Y-82052982D01*
X156002338Y-81874343D01*
X155873836Y-81717764D01*
X155717257Y-81589262D01*
X155538618Y-81493777D01*
X155532697Y-81491981D01*
X155532695Y-81491980D01*
X155350704Y-81436774D01*
X155350700Y-81436773D01*
X155344782Y-81434978D01*
X155143200Y-81415124D01*
X155137037Y-81415731D01*
X154947780Y-81434371D01*
X154947779Y-81434371D01*
X154941618Y-81434978D01*
X154935701Y-81436772D01*
X154935695Y-81436774D01*
X154753704Y-81491980D01*
X154753698Y-81491982D01*
X154747782Y-81493777D01*
X154742324Y-81496694D01*
X154742320Y-81496696D01*
X154574602Y-81586344D01*
X154569143Y-81589262D01*
X154564364Y-81593183D01*
X154564358Y-81593188D01*
X154417343Y-81713841D01*
X154417337Y-81713846D01*
X154412564Y-81717764D01*
X154408646Y-81722537D01*
X154408641Y-81722543D01*
X154287988Y-81869558D01*
X154287983Y-81869564D01*
X154284062Y-81874343D01*
X154281144Y-81879801D01*
X154281144Y-81879802D01*
X154191496Y-82047520D01*
X154191494Y-82047524D01*
X154188577Y-82052982D01*
X154186782Y-82058898D01*
X154186780Y-82058904D01*
X154131574Y-82240895D01*
X154131572Y-82240901D01*
X154129778Y-82246818D01*
X154109924Y-82448400D01*
X151096476Y-82448400D01*
X151076622Y-82246818D01*
X151017823Y-82052982D01*
X150922338Y-81874343D01*
X150793836Y-81717764D01*
X150637257Y-81589262D01*
X150458618Y-81493777D01*
X150452697Y-81491981D01*
X150452695Y-81491980D01*
X150270704Y-81436774D01*
X150270700Y-81436773D01*
X150264782Y-81434978D01*
X150063200Y-81415124D01*
X150057037Y-81415731D01*
X149867780Y-81434371D01*
X149867779Y-81434371D01*
X149861618Y-81434978D01*
X149855701Y-81436772D01*
X149855695Y-81436774D01*
X149673704Y-81491980D01*
X149673698Y-81491982D01*
X149667782Y-81493777D01*
X149662324Y-81496694D01*
X149662320Y-81496696D01*
X149494602Y-81586344D01*
X149489143Y-81589262D01*
X149484364Y-81593183D01*
X149484358Y-81593188D01*
X149337343Y-81713841D01*
X149337337Y-81713846D01*
X149332564Y-81717764D01*
X149328646Y-81722537D01*
X149328641Y-81722543D01*
X149207988Y-81869558D01*
X149207983Y-81869564D01*
X149204062Y-81874343D01*
X149201144Y-81879801D01*
X149201144Y-81879802D01*
X149111496Y-82047520D01*
X149111494Y-82047524D01*
X149108577Y-82052982D01*
X149106782Y-82058898D01*
X149106780Y-82058904D01*
X149051574Y-82240895D01*
X149051572Y-82240901D01*
X149049778Y-82246818D01*
X149029924Y-82448400D01*
X149049778Y-82649982D01*
X149108577Y-82843818D01*
X149204062Y-83022457D01*
X149332564Y-83179036D01*
X149489143Y-83307538D01*
X149667782Y-83403023D01*
X149693878Y-83410939D01*
X149740379Y-83436782D01*
X149772069Y-83479513D01*
X149783300Y-83531513D01*
X149783300Y-83905287D01*
X149772069Y-83957287D01*
X149740379Y-84000018D01*
X149693878Y-84025861D01*
X149673701Y-84031981D01*
X149673696Y-84031982D01*
X149667782Y-84033777D01*
X149662327Y-84036692D01*
X149662324Y-84036694D01*
X149516255Y-84114770D01*
X149489143Y-84129262D01*
X149484362Y-84133186D01*
X149337343Y-84253841D01*
X149337337Y-84253846D01*
X149332564Y-84257764D01*
X149328646Y-84262537D01*
X149328641Y-84262543D01*
X149271099Y-84332659D01*
X149221918Y-84369134D01*
X149161350Y-84378118D01*
X149103698Y-84357490D01*
X149062578Y-84312121D01*
X149047700Y-84252725D01*
X149047700Y-83740736D01*
X149047882Y-83738112D01*
X149049817Y-83732340D01*
X149047833Y-83689440D01*
X149047700Y-83683623D01*
X149047700Y-83672891D01*
X149047700Y-83667065D01*
X149046660Y-83661509D01*
X149046306Y-83656415D01*
X149044985Y-83627807D01*
X149040269Y-83617126D01*
X149038406Y-83609204D01*
X149035465Y-83601613D01*
X149033320Y-83590137D01*
X149020609Y-83569609D01*
X149012469Y-83554166D01*
X149007432Y-83542759D01*
X149007431Y-83542758D01*
X149002716Y-83532078D01*
X148994459Y-83523821D01*
X148989862Y-83517110D01*
X148984377Y-83511093D01*
X148978231Y-83501167D01*
X148968913Y-83494130D01*
X148968912Y-83494129D01*
X148958959Y-83486613D01*
X148945797Y-83475159D01*
X148486995Y-83016357D01*
X148458166Y-82971645D01*
X148450360Y-82919020D01*
X148464968Y-82867867D01*
X148477823Y-82843818D01*
X148536622Y-82649982D01*
X148556476Y-82448400D01*
X148536622Y-82246818D01*
X148477823Y-82052982D01*
X148382338Y-81874343D01*
X148253836Y-81717764D01*
X148097257Y-81589262D01*
X147918618Y-81493777D01*
X147912697Y-81491981D01*
X147912695Y-81491980D01*
X147730704Y-81436774D01*
X147730700Y-81436773D01*
X147724782Y-81434978D01*
X147523200Y-81415124D01*
X147517037Y-81415731D01*
X147327780Y-81434371D01*
X147327779Y-81434371D01*
X147321618Y-81434978D01*
X147315701Y-81436772D01*
X147315695Y-81436774D01*
X147133704Y-81491980D01*
X147133698Y-81491982D01*
X147127782Y-81493777D01*
X147122324Y-81496694D01*
X147122320Y-81496696D01*
X146954602Y-81586344D01*
X146949143Y-81589262D01*
X146944364Y-81593183D01*
X146944358Y-81593188D01*
X146797343Y-81713841D01*
X146797337Y-81713846D01*
X146792564Y-81717764D01*
X146788646Y-81722537D01*
X146788641Y-81722543D01*
X146667988Y-81869558D01*
X146667983Y-81869564D01*
X146664062Y-81874343D01*
X146661144Y-81879801D01*
X146661144Y-81879802D01*
X146571496Y-82047520D01*
X146571494Y-82047524D01*
X146568577Y-82052982D01*
X146566782Y-82058898D01*
X146566780Y-82058904D01*
X146511574Y-82240895D01*
X146511572Y-82240901D01*
X146509778Y-82246818D01*
X146489924Y-82448400D01*
X146509778Y-82649982D01*
X146568577Y-82843818D01*
X146664062Y-83022457D01*
X146792564Y-83179036D01*
X146949143Y-83307538D01*
X147127782Y-83403023D01*
X147321618Y-83461822D01*
X147523200Y-83481676D01*
X147724782Y-83461822D01*
X147918618Y-83403023D01*
X147942666Y-83390168D01*
X147993817Y-83375560D01*
X148046443Y-83383365D01*
X148091156Y-83412194D01*
X148273970Y-83595009D01*
X148450996Y-83772035D01*
X148478309Y-83812912D01*
X148487900Y-83861130D01*
X148487900Y-84190825D01*
X148473022Y-84250221D01*
X148431902Y-84295590D01*
X148374251Y-84316218D01*
X148313683Y-84307234D01*
X148264502Y-84270760D01*
X148257759Y-84262544D01*
X148257758Y-84262543D01*
X148253836Y-84257764D01*
X148097257Y-84129262D01*
X147918618Y-84033777D01*
X147912697Y-84031981D01*
X147912695Y-84031980D01*
X147730704Y-83976774D01*
X147730700Y-83976773D01*
X147724782Y-83974978D01*
X147523200Y-83955124D01*
X147517037Y-83955731D01*
X147327780Y-83974371D01*
X147327779Y-83974371D01*
X147321618Y-83974978D01*
X147315701Y-83976772D01*
X147315695Y-83976774D01*
X147133704Y-84031980D01*
X147133698Y-84031982D01*
X147127782Y-84033777D01*
X147122324Y-84036694D01*
X147122320Y-84036696D01*
X146976255Y-84114770D01*
X146949143Y-84129262D01*
X146944362Y-84133186D01*
X146797343Y-84253841D01*
X146797337Y-84253846D01*
X146792564Y-84257764D01*
X146788646Y-84262537D01*
X146788641Y-84262543D01*
X146731099Y-84332659D01*
X146681918Y-84369134D01*
X146621350Y-84378118D01*
X146563698Y-84357490D01*
X146522578Y-84312121D01*
X146507700Y-84252725D01*
X146507700Y-83740736D01*
X146507882Y-83738112D01*
X146509817Y-83732340D01*
X146507833Y-83689440D01*
X146507700Y-83683623D01*
X146507700Y-83672891D01*
X146507700Y-83667065D01*
X146506660Y-83661509D01*
X146506306Y-83656415D01*
X146504985Y-83627807D01*
X146500269Y-83617126D01*
X146498406Y-83609204D01*
X146495465Y-83601613D01*
X146493320Y-83590137D01*
X146480609Y-83569609D01*
X146472469Y-83554166D01*
X146467432Y-83542759D01*
X146467431Y-83542758D01*
X146462716Y-83532078D01*
X146454459Y-83523821D01*
X146449862Y-83517110D01*
X146444377Y-83511093D01*
X146438231Y-83501167D01*
X146428913Y-83494130D01*
X146428912Y-83494129D01*
X146418959Y-83486613D01*
X146405797Y-83475159D01*
X145946995Y-83016357D01*
X145918166Y-82971645D01*
X145910360Y-82919020D01*
X145924968Y-82867867D01*
X145937823Y-82843818D01*
X145996622Y-82649982D01*
X146016476Y-82448400D01*
X145996622Y-82246818D01*
X145937823Y-82052982D01*
X145842338Y-81874343D01*
X145713836Y-81717764D01*
X145557257Y-81589262D01*
X145378618Y-81493777D01*
X145372697Y-81491981D01*
X145372695Y-81491980D01*
X145190704Y-81436774D01*
X145190700Y-81436773D01*
X145184782Y-81434978D01*
X144983200Y-81415124D01*
X144977037Y-81415731D01*
X144787780Y-81434371D01*
X144787779Y-81434371D01*
X144781618Y-81434978D01*
X144775701Y-81436772D01*
X144775695Y-81436774D01*
X144593704Y-81491980D01*
X144593698Y-81491982D01*
X144587782Y-81493777D01*
X144582324Y-81496694D01*
X144582320Y-81496696D01*
X144414602Y-81586344D01*
X144409143Y-81589262D01*
X144404364Y-81593183D01*
X144404358Y-81593188D01*
X144257343Y-81713841D01*
X144257337Y-81713846D01*
X144252564Y-81717764D01*
X144248646Y-81722537D01*
X144248641Y-81722543D01*
X144127988Y-81869558D01*
X144127983Y-81869564D01*
X144124062Y-81874343D01*
X144121144Y-81879801D01*
X144121144Y-81879802D01*
X144031496Y-82047520D01*
X144031494Y-82047524D01*
X144028577Y-82052982D01*
X144026782Y-82058898D01*
X144026780Y-82058904D01*
X143971574Y-82240895D01*
X143971572Y-82240901D01*
X143969778Y-82246818D01*
X143949924Y-82448400D01*
X143969778Y-82649982D01*
X144028577Y-82843818D01*
X144124062Y-83022457D01*
X144252564Y-83179036D01*
X144409143Y-83307538D01*
X144587782Y-83403023D01*
X144781618Y-83461822D01*
X144983200Y-83481676D01*
X145184782Y-83461822D01*
X145378618Y-83403023D01*
X145402666Y-83390168D01*
X145453817Y-83375560D01*
X145506443Y-83383365D01*
X145551156Y-83412194D01*
X145733970Y-83595009D01*
X145910996Y-83772035D01*
X145938309Y-83812912D01*
X145947900Y-83861130D01*
X145947900Y-84190825D01*
X145933022Y-84250221D01*
X145891902Y-84295590D01*
X145834251Y-84316218D01*
X145773683Y-84307234D01*
X145724502Y-84270760D01*
X145717759Y-84262544D01*
X145717758Y-84262543D01*
X145713836Y-84257764D01*
X145557257Y-84129262D01*
X145378618Y-84033777D01*
X145372697Y-84031981D01*
X145372695Y-84031980D01*
X145190704Y-83976774D01*
X145190700Y-83976773D01*
X145184782Y-83974978D01*
X144983200Y-83955124D01*
X144977037Y-83955731D01*
X144787780Y-83974371D01*
X144787779Y-83974371D01*
X144781618Y-83974978D01*
X144775701Y-83976772D01*
X144775695Y-83976774D01*
X144593704Y-84031980D01*
X144593698Y-84031982D01*
X144587782Y-84033777D01*
X144582324Y-84036694D01*
X144582320Y-84036696D01*
X144436255Y-84114770D01*
X144409143Y-84129262D01*
X144404362Y-84133186D01*
X144257343Y-84253841D01*
X144257337Y-84253846D01*
X144252564Y-84257764D01*
X144248646Y-84262537D01*
X144248641Y-84262543D01*
X144216499Y-84301709D01*
X144167318Y-84338184D01*
X144106750Y-84347168D01*
X144049098Y-84326540D01*
X144007978Y-84281171D01*
X143993100Y-84221775D01*
X143993100Y-83766136D01*
X143993282Y-83763512D01*
X143995217Y-83757740D01*
X143993233Y-83714840D01*
X143993100Y-83709023D01*
X143993100Y-83698291D01*
X143993100Y-83692465D01*
X143992060Y-83686909D01*
X143991706Y-83681815D01*
X143990385Y-83653207D01*
X143985669Y-83642526D01*
X143983806Y-83634604D01*
X143980865Y-83627013D01*
X143978720Y-83615537D01*
X143966009Y-83595009D01*
X143957869Y-83579566D01*
X143952832Y-83568159D01*
X143952831Y-83568158D01*
X143948116Y-83557478D01*
X143939859Y-83549221D01*
X143935262Y-83542510D01*
X143929777Y-83536493D01*
X143923631Y-83526567D01*
X143914313Y-83519530D01*
X143914312Y-83519529D01*
X143904359Y-83512013D01*
X143891197Y-83500559D01*
X143406995Y-83016357D01*
X143378166Y-82971645D01*
X143370360Y-82919020D01*
X143384968Y-82867867D01*
X143397823Y-82843818D01*
X143456622Y-82649982D01*
X143476476Y-82448400D01*
X143456622Y-82246818D01*
X143397823Y-82052982D01*
X143302338Y-81874343D01*
X143173836Y-81717764D01*
X143017257Y-81589262D01*
X142838618Y-81493777D01*
X142832697Y-81491981D01*
X142832695Y-81491980D01*
X142650704Y-81436774D01*
X142650700Y-81436773D01*
X142644782Y-81434978D01*
X142443200Y-81415124D01*
X142437037Y-81415731D01*
X142247780Y-81434371D01*
X142247779Y-81434371D01*
X142241618Y-81434978D01*
X142235701Y-81436772D01*
X142235695Y-81436774D01*
X142053704Y-81491980D01*
X142053698Y-81491982D01*
X142047782Y-81493777D01*
X142042324Y-81496694D01*
X142042320Y-81496696D01*
X141874602Y-81586344D01*
X141869143Y-81589262D01*
X141864364Y-81593183D01*
X141864358Y-81593188D01*
X141717343Y-81713841D01*
X141717337Y-81713846D01*
X141712564Y-81717764D01*
X141708646Y-81722537D01*
X141708641Y-81722543D01*
X141587988Y-81869558D01*
X141587983Y-81869564D01*
X141584062Y-81874343D01*
X141581144Y-81879801D01*
X141581144Y-81879802D01*
X141491496Y-82047520D01*
X141491494Y-82047524D01*
X141488577Y-82052982D01*
X141486782Y-82058898D01*
X141486780Y-82058904D01*
X141431574Y-82240895D01*
X141431572Y-82240901D01*
X141429778Y-82246818D01*
X141409924Y-82448400D01*
X141429778Y-82649982D01*
X141488577Y-82843818D01*
X141584062Y-83022457D01*
X141712564Y-83179036D01*
X141869143Y-83307538D01*
X142047782Y-83403023D01*
X142241618Y-83461822D01*
X142443200Y-83481676D01*
X142644782Y-83461822D01*
X142838618Y-83403023D01*
X142862666Y-83390168D01*
X142913817Y-83375560D01*
X142966443Y-83383365D01*
X143011156Y-83412194D01*
X143204571Y-83605610D01*
X143396396Y-83797435D01*
X143423709Y-83838312D01*
X143433300Y-83886530D01*
X143433300Y-84221775D01*
X143418422Y-84281171D01*
X143377302Y-84326540D01*
X143319650Y-84347168D01*
X143259082Y-84338184D01*
X143209901Y-84301709D01*
X143177758Y-84262543D01*
X143173836Y-84257764D01*
X143017257Y-84129262D01*
X142838618Y-84033777D01*
X142832697Y-84031981D01*
X142832695Y-84031980D01*
X142650704Y-83976774D01*
X142650700Y-83976773D01*
X142644782Y-83974978D01*
X142443200Y-83955124D01*
X142437037Y-83955731D01*
X142247780Y-83974371D01*
X142247779Y-83974371D01*
X142241618Y-83974978D01*
X142235701Y-83976772D01*
X142235695Y-83976774D01*
X142053704Y-84031980D01*
X142053698Y-84031982D01*
X142047782Y-84033777D01*
X142042324Y-84036694D01*
X142042320Y-84036696D01*
X141896255Y-84114770D01*
X141869143Y-84129262D01*
X141864362Y-84133186D01*
X141717343Y-84253841D01*
X141717337Y-84253846D01*
X141712564Y-84257764D01*
X141708646Y-84262537D01*
X141708641Y-84262543D01*
X141676499Y-84301709D01*
X141627318Y-84338184D01*
X141566750Y-84347168D01*
X141509098Y-84326540D01*
X141467978Y-84281171D01*
X141453100Y-84221775D01*
X141453100Y-83766136D01*
X141453282Y-83763512D01*
X141455217Y-83757740D01*
X141453233Y-83714840D01*
X141453100Y-83709023D01*
X141453100Y-83698291D01*
X141453100Y-83692465D01*
X141452060Y-83686909D01*
X141451706Y-83681815D01*
X141450385Y-83653207D01*
X141445669Y-83642526D01*
X141443806Y-83634604D01*
X141440865Y-83627013D01*
X141438720Y-83615537D01*
X141426009Y-83595009D01*
X141417869Y-83579566D01*
X141412832Y-83568159D01*
X141412831Y-83568158D01*
X141408116Y-83557478D01*
X141399859Y-83549221D01*
X141395262Y-83542510D01*
X141389777Y-83536493D01*
X141383631Y-83526567D01*
X141374313Y-83519530D01*
X141374312Y-83519529D01*
X141364359Y-83512013D01*
X141351197Y-83500559D01*
X140866995Y-83016357D01*
X140838166Y-82971645D01*
X140830360Y-82919020D01*
X140844968Y-82867867D01*
X140857823Y-82843818D01*
X140916622Y-82649982D01*
X140936476Y-82448400D01*
X140916622Y-82246818D01*
X140857823Y-82052982D01*
X140762338Y-81874343D01*
X140633836Y-81717764D01*
X140477257Y-81589262D01*
X140298618Y-81493777D01*
X140292697Y-81491981D01*
X140292695Y-81491980D01*
X140110704Y-81436774D01*
X140110700Y-81436773D01*
X140104782Y-81434978D01*
X139903200Y-81415124D01*
X139897037Y-81415731D01*
X139707780Y-81434371D01*
X139707779Y-81434371D01*
X139701618Y-81434978D01*
X139695701Y-81436772D01*
X139695695Y-81436774D01*
X139513704Y-81491980D01*
X139513698Y-81491982D01*
X139507782Y-81493777D01*
X139502324Y-81496694D01*
X139502320Y-81496696D01*
X139334602Y-81586344D01*
X139329143Y-81589262D01*
X139324364Y-81593183D01*
X139324358Y-81593188D01*
X139177343Y-81713841D01*
X139177337Y-81713846D01*
X139172564Y-81717764D01*
X139168646Y-81722537D01*
X139168641Y-81722543D01*
X139047988Y-81869558D01*
X139047983Y-81869564D01*
X139044062Y-81874343D01*
X139041144Y-81879801D01*
X139041144Y-81879802D01*
X138951496Y-82047520D01*
X138951494Y-82047524D01*
X138948577Y-82052982D01*
X138946782Y-82058898D01*
X138946780Y-82058904D01*
X138891574Y-82240895D01*
X138891572Y-82240901D01*
X138889778Y-82246818D01*
X138869924Y-82448400D01*
X138889778Y-82649982D01*
X138948577Y-82843818D01*
X139044062Y-83022457D01*
X139172564Y-83179036D01*
X139329143Y-83307538D01*
X139507782Y-83403023D01*
X139701618Y-83461822D01*
X139903200Y-83481676D01*
X140104782Y-83461822D01*
X140298618Y-83403023D01*
X140322666Y-83390168D01*
X140373817Y-83375560D01*
X140426443Y-83383365D01*
X140471156Y-83412194D01*
X140664571Y-83605610D01*
X140856396Y-83797435D01*
X140883709Y-83838312D01*
X140893300Y-83886530D01*
X140893300Y-84221775D01*
X140878422Y-84281171D01*
X140837302Y-84326540D01*
X140779650Y-84347168D01*
X140719082Y-84338184D01*
X140669901Y-84301709D01*
X140637758Y-84262543D01*
X140633836Y-84257764D01*
X140477257Y-84129262D01*
X140298618Y-84033777D01*
X140292697Y-84031981D01*
X140292695Y-84031980D01*
X140110704Y-83976774D01*
X140110700Y-83976773D01*
X140104782Y-83974978D01*
X139903200Y-83955124D01*
X139897037Y-83955731D01*
X139707780Y-83974371D01*
X139707779Y-83974371D01*
X139701618Y-83974978D01*
X139695701Y-83976772D01*
X139695695Y-83976774D01*
X139513704Y-84031980D01*
X139513698Y-84031982D01*
X139507782Y-84033777D01*
X139502324Y-84036694D01*
X139502320Y-84036696D01*
X139356255Y-84114770D01*
X139329143Y-84129262D01*
X139324362Y-84133186D01*
X139177343Y-84253841D01*
X139177337Y-84253846D01*
X139172564Y-84257764D01*
X139168646Y-84262537D01*
X139168641Y-84262543D01*
X139136499Y-84301709D01*
X139087318Y-84338184D01*
X139026750Y-84347168D01*
X138969098Y-84326540D01*
X138927978Y-84281171D01*
X138913100Y-84221775D01*
X138913100Y-83766136D01*
X138913282Y-83763512D01*
X138915217Y-83757740D01*
X138913233Y-83714840D01*
X138913100Y-83709023D01*
X138913100Y-83698291D01*
X138913100Y-83692465D01*
X138912060Y-83686909D01*
X138911706Y-83681815D01*
X138910385Y-83653207D01*
X138905669Y-83642526D01*
X138903806Y-83634604D01*
X138900865Y-83627013D01*
X138898720Y-83615537D01*
X138886009Y-83595009D01*
X138877869Y-83579566D01*
X138872832Y-83568159D01*
X138872831Y-83568158D01*
X138868116Y-83557478D01*
X138859859Y-83549221D01*
X138855262Y-83542510D01*
X138849777Y-83536493D01*
X138843631Y-83526567D01*
X138834313Y-83519530D01*
X138834312Y-83519529D01*
X138824359Y-83512013D01*
X138811197Y-83500559D01*
X138326995Y-83016357D01*
X138298166Y-82971645D01*
X138290360Y-82919020D01*
X138304968Y-82867867D01*
X138317823Y-82843818D01*
X138376622Y-82649982D01*
X138396476Y-82448400D01*
X138376622Y-82246818D01*
X138317823Y-82052982D01*
X138222338Y-81874343D01*
X138093836Y-81717764D01*
X137937257Y-81589262D01*
X137758618Y-81493777D01*
X137752697Y-81491981D01*
X137752695Y-81491980D01*
X137570704Y-81436774D01*
X137570700Y-81436773D01*
X137564782Y-81434978D01*
X137363200Y-81415124D01*
X137357037Y-81415731D01*
X137167780Y-81434371D01*
X137167779Y-81434371D01*
X137161618Y-81434978D01*
X137155701Y-81436772D01*
X137155695Y-81436774D01*
X136973704Y-81491980D01*
X136973698Y-81491982D01*
X136967782Y-81493777D01*
X136962324Y-81496694D01*
X136962320Y-81496696D01*
X136794602Y-81586344D01*
X136789143Y-81589262D01*
X136784364Y-81593183D01*
X136784358Y-81593188D01*
X136637343Y-81713841D01*
X136637337Y-81713846D01*
X136632564Y-81717764D01*
X136628646Y-81722537D01*
X136628641Y-81722543D01*
X136507988Y-81869558D01*
X136507983Y-81869564D01*
X136504062Y-81874343D01*
X136501144Y-81879801D01*
X136501144Y-81879802D01*
X136411496Y-82047520D01*
X136411494Y-82047524D01*
X136408577Y-82052982D01*
X136406782Y-82058898D01*
X136406780Y-82058904D01*
X136351574Y-82240895D01*
X136351572Y-82240901D01*
X136349778Y-82246818D01*
X136329924Y-82448400D01*
X136349778Y-82649982D01*
X136408577Y-82843818D01*
X136504062Y-83022457D01*
X136632564Y-83179036D01*
X136789143Y-83307538D01*
X136967782Y-83403023D01*
X137161618Y-83461822D01*
X137363200Y-83481676D01*
X137564782Y-83461822D01*
X137758618Y-83403023D01*
X137782666Y-83390168D01*
X137833817Y-83375560D01*
X137886443Y-83383365D01*
X137931156Y-83412194D01*
X138124571Y-83605610D01*
X138316396Y-83797435D01*
X138343709Y-83838312D01*
X138353300Y-83886530D01*
X138353300Y-84221775D01*
X138338422Y-84281171D01*
X138297302Y-84326540D01*
X138239650Y-84347168D01*
X138179082Y-84338184D01*
X138129901Y-84301709D01*
X138097758Y-84262543D01*
X138093836Y-84257764D01*
X137937257Y-84129262D01*
X137758618Y-84033777D01*
X137752697Y-84031981D01*
X137752695Y-84031980D01*
X137570704Y-83976774D01*
X137570700Y-83976773D01*
X137564782Y-83974978D01*
X137363200Y-83955124D01*
X137357037Y-83955731D01*
X137167780Y-83974371D01*
X137167779Y-83974371D01*
X137161618Y-83974978D01*
X137155701Y-83976772D01*
X137155695Y-83976774D01*
X136973704Y-84031980D01*
X136973698Y-84031982D01*
X136967782Y-84033777D01*
X136962324Y-84036694D01*
X136962320Y-84036696D01*
X136816255Y-84114770D01*
X136789143Y-84129262D01*
X136784362Y-84133186D01*
X136637343Y-84253841D01*
X136637337Y-84253846D01*
X136632564Y-84257764D01*
X136628646Y-84262537D01*
X136628641Y-84262543D01*
X136596499Y-84301709D01*
X136547318Y-84338184D01*
X136486750Y-84347168D01*
X136429098Y-84326540D01*
X136387978Y-84281171D01*
X136373100Y-84221775D01*
X136373100Y-83766136D01*
X136373282Y-83763512D01*
X136375217Y-83757740D01*
X136373233Y-83714840D01*
X136373100Y-83709023D01*
X136373100Y-83698291D01*
X136373100Y-83692465D01*
X136372060Y-83686909D01*
X136371706Y-83681815D01*
X136370385Y-83653207D01*
X136365669Y-83642526D01*
X136363806Y-83634604D01*
X136360865Y-83627013D01*
X136358720Y-83615537D01*
X136346009Y-83595009D01*
X136337869Y-83579566D01*
X136332832Y-83568159D01*
X136332831Y-83568158D01*
X136328116Y-83557478D01*
X136319859Y-83549221D01*
X136315262Y-83542510D01*
X136309777Y-83536493D01*
X136303631Y-83526567D01*
X136294313Y-83519530D01*
X136294312Y-83519529D01*
X136284359Y-83512013D01*
X136271197Y-83500559D01*
X135786995Y-83016357D01*
X135758166Y-82971645D01*
X135750360Y-82919020D01*
X135764968Y-82867867D01*
X135777823Y-82843818D01*
X135836622Y-82649982D01*
X135856476Y-82448400D01*
X135836622Y-82246818D01*
X135777823Y-82052982D01*
X135682338Y-81874343D01*
X135553836Y-81717764D01*
X135397257Y-81589262D01*
X135218618Y-81493777D01*
X135212697Y-81491981D01*
X135212695Y-81491980D01*
X135030704Y-81436774D01*
X135030700Y-81436773D01*
X135024782Y-81434978D01*
X134823200Y-81415124D01*
X134817037Y-81415731D01*
X134627780Y-81434371D01*
X134627779Y-81434371D01*
X134621618Y-81434978D01*
X134615701Y-81436772D01*
X134615695Y-81436774D01*
X134433704Y-81491980D01*
X134433698Y-81491982D01*
X134427782Y-81493777D01*
X134422324Y-81496694D01*
X134422320Y-81496696D01*
X134254602Y-81586344D01*
X134249143Y-81589262D01*
X134244364Y-81593183D01*
X134244358Y-81593188D01*
X134097343Y-81713841D01*
X134097337Y-81713846D01*
X134092564Y-81717764D01*
X134088646Y-81722537D01*
X134088641Y-81722543D01*
X133967988Y-81869558D01*
X133967983Y-81869564D01*
X133964062Y-81874343D01*
X133961144Y-81879801D01*
X133961144Y-81879802D01*
X133871496Y-82047520D01*
X133871494Y-82047524D01*
X133868577Y-82052982D01*
X133866782Y-82058898D01*
X133866780Y-82058904D01*
X133811574Y-82240895D01*
X133811572Y-82240901D01*
X133809778Y-82246818D01*
X133789924Y-82448400D01*
X133809778Y-82649982D01*
X133868577Y-82843818D01*
X133964062Y-83022457D01*
X134092564Y-83179036D01*
X134249143Y-83307538D01*
X134427782Y-83403023D01*
X134621618Y-83461822D01*
X134823200Y-83481676D01*
X135024782Y-83461822D01*
X135218618Y-83403023D01*
X135242666Y-83390168D01*
X135293817Y-83375560D01*
X135346443Y-83383365D01*
X135391156Y-83412194D01*
X135584571Y-83605610D01*
X135776396Y-83797435D01*
X135803709Y-83838312D01*
X135813300Y-83886530D01*
X135813300Y-84221775D01*
X135798422Y-84281171D01*
X135757302Y-84326540D01*
X135699650Y-84347168D01*
X135639082Y-84338184D01*
X135589901Y-84301709D01*
X135557758Y-84262543D01*
X135553836Y-84257764D01*
X135397257Y-84129262D01*
X135218618Y-84033777D01*
X135212697Y-84031981D01*
X135212695Y-84031980D01*
X135030704Y-83976774D01*
X135030700Y-83976773D01*
X135024782Y-83974978D01*
X134823200Y-83955124D01*
X134817037Y-83955731D01*
X134627780Y-83974371D01*
X134627779Y-83974371D01*
X134621618Y-83974978D01*
X134615701Y-83976772D01*
X134615695Y-83976774D01*
X134433704Y-84031980D01*
X134433698Y-84031982D01*
X134427782Y-84033777D01*
X134422324Y-84036694D01*
X134422320Y-84036696D01*
X134276255Y-84114770D01*
X134249143Y-84129262D01*
X134244362Y-84133186D01*
X134097343Y-84253841D01*
X134097337Y-84253846D01*
X134092564Y-84257764D01*
X134088646Y-84262537D01*
X134088641Y-84262543D01*
X134056499Y-84301709D01*
X134007318Y-84338184D01*
X133946750Y-84347168D01*
X133889098Y-84326540D01*
X133847978Y-84281171D01*
X133833100Y-84221775D01*
X133833100Y-83766136D01*
X133833282Y-83763512D01*
X133835217Y-83757740D01*
X133833233Y-83714840D01*
X133833100Y-83709023D01*
X133833100Y-83698291D01*
X133833100Y-83692465D01*
X133832060Y-83686909D01*
X133831706Y-83681815D01*
X133830385Y-83653207D01*
X133825669Y-83642526D01*
X133823806Y-83634604D01*
X133820865Y-83627013D01*
X133818720Y-83615537D01*
X133806009Y-83595009D01*
X133797869Y-83579566D01*
X133792832Y-83568159D01*
X133792831Y-83568158D01*
X133788116Y-83557478D01*
X133779859Y-83549221D01*
X133775262Y-83542510D01*
X133769777Y-83536493D01*
X133763631Y-83526567D01*
X133754313Y-83519530D01*
X133754312Y-83519529D01*
X133744359Y-83512013D01*
X133731197Y-83500559D01*
X133246995Y-83016357D01*
X133218166Y-82971645D01*
X133210360Y-82919020D01*
X133224968Y-82867867D01*
X133237823Y-82843818D01*
X133296622Y-82649982D01*
X133316476Y-82448400D01*
X133296622Y-82246818D01*
X133237823Y-82052982D01*
X133142338Y-81874343D01*
X133013836Y-81717764D01*
X132857257Y-81589262D01*
X132678618Y-81493777D01*
X132672697Y-81491981D01*
X132672695Y-81491980D01*
X132490704Y-81436774D01*
X132490700Y-81436773D01*
X132484782Y-81434978D01*
X132283200Y-81415124D01*
X132277037Y-81415731D01*
X132087780Y-81434371D01*
X132087779Y-81434371D01*
X132081618Y-81434978D01*
X132075701Y-81436772D01*
X132075695Y-81436774D01*
X131893704Y-81491980D01*
X131893698Y-81491982D01*
X131887782Y-81493777D01*
X131882324Y-81496694D01*
X131882320Y-81496696D01*
X131714602Y-81586344D01*
X131709143Y-81589262D01*
X131704364Y-81593183D01*
X131704358Y-81593188D01*
X131557343Y-81713841D01*
X131557337Y-81713846D01*
X131552564Y-81717764D01*
X131548646Y-81722537D01*
X131548641Y-81722543D01*
X131427988Y-81869558D01*
X131427983Y-81869564D01*
X131424062Y-81874343D01*
X131421144Y-81879801D01*
X131421144Y-81879802D01*
X131331496Y-82047520D01*
X131331494Y-82047524D01*
X131328577Y-82052982D01*
X131326782Y-82058898D01*
X131326780Y-82058904D01*
X131271574Y-82240895D01*
X131271572Y-82240901D01*
X131269778Y-82246818D01*
X131249924Y-82448400D01*
X131269778Y-82649982D01*
X131328577Y-82843818D01*
X131424062Y-83022457D01*
X131552564Y-83179036D01*
X131709143Y-83307538D01*
X131887782Y-83403023D01*
X132081618Y-83461822D01*
X132283200Y-83481676D01*
X132484782Y-83461822D01*
X132678618Y-83403023D01*
X132702666Y-83390168D01*
X132753817Y-83375560D01*
X132806443Y-83383365D01*
X132851156Y-83412194D01*
X133044571Y-83605610D01*
X133236396Y-83797435D01*
X133263709Y-83838312D01*
X133273300Y-83886530D01*
X133273300Y-84221775D01*
X133258422Y-84281171D01*
X133217302Y-84326540D01*
X133159650Y-84347168D01*
X133099082Y-84338184D01*
X133049901Y-84301709D01*
X133017758Y-84262543D01*
X133013836Y-84257764D01*
X132857257Y-84129262D01*
X132678618Y-84033777D01*
X132672697Y-84031981D01*
X132672695Y-84031980D01*
X132490704Y-83976774D01*
X132490700Y-83976773D01*
X132484782Y-83974978D01*
X132283200Y-83955124D01*
X132277037Y-83955731D01*
X132087780Y-83974371D01*
X132087779Y-83974371D01*
X132081618Y-83974978D01*
X132075701Y-83976772D01*
X132075695Y-83976774D01*
X131893704Y-84031980D01*
X131893698Y-84031982D01*
X131887782Y-84033777D01*
X131882324Y-84036694D01*
X131882320Y-84036696D01*
X131736255Y-84114770D01*
X131709143Y-84129262D01*
X131704362Y-84133186D01*
X131557343Y-84253841D01*
X131557337Y-84253846D01*
X131552564Y-84257764D01*
X131548646Y-84262537D01*
X131548641Y-84262543D01*
X131516499Y-84301709D01*
X131467318Y-84338184D01*
X131406750Y-84347168D01*
X131349098Y-84326540D01*
X131307978Y-84281171D01*
X131293100Y-84221775D01*
X131293100Y-83766136D01*
X131293282Y-83763512D01*
X131295217Y-83757740D01*
X131293233Y-83714840D01*
X131293100Y-83709023D01*
X131293100Y-83698291D01*
X131293100Y-83692465D01*
X131292060Y-83686909D01*
X131291706Y-83681815D01*
X131290385Y-83653207D01*
X131285669Y-83642526D01*
X131283806Y-83634604D01*
X131280865Y-83627013D01*
X131278720Y-83615537D01*
X131266009Y-83595009D01*
X131257869Y-83579566D01*
X131252832Y-83568159D01*
X131252831Y-83568158D01*
X131248116Y-83557478D01*
X131239859Y-83549221D01*
X131235262Y-83542510D01*
X131229777Y-83536493D01*
X131223631Y-83526567D01*
X131214313Y-83519530D01*
X131214312Y-83519529D01*
X131204359Y-83512013D01*
X131191197Y-83500559D01*
X130706995Y-83016357D01*
X130678166Y-82971645D01*
X130670360Y-82919020D01*
X130684968Y-82867867D01*
X130697823Y-82843818D01*
X130756622Y-82649982D01*
X130776476Y-82448400D01*
X130756622Y-82246818D01*
X130697823Y-82052982D01*
X130602338Y-81874343D01*
X130473836Y-81717764D01*
X130317257Y-81589262D01*
X130138618Y-81493777D01*
X130132697Y-81491981D01*
X130132695Y-81491980D01*
X129950704Y-81436774D01*
X129950700Y-81436773D01*
X129944782Y-81434978D01*
X129743200Y-81415124D01*
X129737037Y-81415731D01*
X129547780Y-81434371D01*
X129547779Y-81434371D01*
X129541618Y-81434978D01*
X129535701Y-81436772D01*
X129535695Y-81436774D01*
X129353704Y-81491980D01*
X129353698Y-81491982D01*
X129347782Y-81493777D01*
X129342324Y-81496694D01*
X129342320Y-81496696D01*
X129174602Y-81586344D01*
X129169143Y-81589262D01*
X129164364Y-81593183D01*
X129164358Y-81593188D01*
X129017343Y-81713841D01*
X129017337Y-81713846D01*
X129012564Y-81717764D01*
X129008646Y-81722537D01*
X129008641Y-81722543D01*
X128887988Y-81869558D01*
X128887983Y-81869564D01*
X128884062Y-81874343D01*
X128881144Y-81879801D01*
X128881144Y-81879802D01*
X128791496Y-82047520D01*
X128791494Y-82047524D01*
X128788577Y-82052982D01*
X128786782Y-82058898D01*
X128786780Y-82058904D01*
X128731574Y-82240895D01*
X128731572Y-82240901D01*
X128729778Y-82246818D01*
X128709924Y-82448400D01*
X128729778Y-82649982D01*
X128788577Y-82843818D01*
X128884062Y-83022457D01*
X129012564Y-83179036D01*
X129169143Y-83307538D01*
X129347782Y-83403023D01*
X129541618Y-83461822D01*
X129743200Y-83481676D01*
X129944782Y-83461822D01*
X130138618Y-83403023D01*
X130162666Y-83390168D01*
X130213817Y-83375560D01*
X130266443Y-83383365D01*
X130311156Y-83412194D01*
X130504571Y-83605610D01*
X130696396Y-83797435D01*
X130723709Y-83838312D01*
X130733300Y-83886530D01*
X130733300Y-84221775D01*
X130718422Y-84281171D01*
X130677302Y-84326540D01*
X130619650Y-84347168D01*
X130559082Y-84338184D01*
X130509901Y-84301709D01*
X130477758Y-84262543D01*
X130473836Y-84257764D01*
X130317257Y-84129262D01*
X130138618Y-84033777D01*
X130132697Y-84031981D01*
X130132695Y-84031980D01*
X129950704Y-83976774D01*
X129950700Y-83976773D01*
X129944782Y-83974978D01*
X129743200Y-83955124D01*
X129737037Y-83955731D01*
X129547780Y-83974371D01*
X129547779Y-83974371D01*
X129541618Y-83974978D01*
X129535701Y-83976772D01*
X129535695Y-83976774D01*
X129353704Y-84031980D01*
X129353698Y-84031982D01*
X129347782Y-84033777D01*
X129342324Y-84036694D01*
X129342320Y-84036696D01*
X129196255Y-84114770D01*
X129169143Y-84129262D01*
X129164362Y-84133186D01*
X129017343Y-84253841D01*
X129017337Y-84253846D01*
X129012564Y-84257764D01*
X129008646Y-84262537D01*
X129008641Y-84262543D01*
X128976499Y-84301709D01*
X128927318Y-84338184D01*
X128866750Y-84347168D01*
X128809098Y-84326540D01*
X128767978Y-84281171D01*
X128753100Y-84221775D01*
X128753100Y-83766136D01*
X128753282Y-83763512D01*
X128755217Y-83757740D01*
X128753233Y-83714840D01*
X128753100Y-83709023D01*
X128753100Y-83698291D01*
X128753100Y-83692465D01*
X128752060Y-83686909D01*
X128751706Y-83681815D01*
X128750385Y-83653207D01*
X128745669Y-83642526D01*
X128743806Y-83634604D01*
X128740865Y-83627013D01*
X128738720Y-83615537D01*
X128726009Y-83595009D01*
X128717869Y-83579566D01*
X128712832Y-83568159D01*
X128712831Y-83568158D01*
X128708116Y-83557478D01*
X128699859Y-83549221D01*
X128695262Y-83542510D01*
X128689777Y-83536493D01*
X128683631Y-83526567D01*
X128674313Y-83519530D01*
X128674312Y-83519529D01*
X128664359Y-83512013D01*
X128651197Y-83500559D01*
X128166995Y-83016357D01*
X128138166Y-82971645D01*
X128130360Y-82919020D01*
X128144968Y-82867867D01*
X128157823Y-82843818D01*
X128216622Y-82649982D01*
X128236476Y-82448400D01*
X128216622Y-82246818D01*
X128157823Y-82052982D01*
X128062338Y-81874343D01*
X127933836Y-81717764D01*
X127777257Y-81589262D01*
X127598618Y-81493777D01*
X127592697Y-81491981D01*
X127592695Y-81491980D01*
X127410704Y-81436774D01*
X127410700Y-81436773D01*
X127404782Y-81434978D01*
X127203200Y-81415124D01*
X127197037Y-81415731D01*
X127007780Y-81434371D01*
X127007779Y-81434371D01*
X127001618Y-81434978D01*
X126995701Y-81436772D01*
X126995695Y-81436774D01*
X126813704Y-81491980D01*
X126813698Y-81491982D01*
X126807782Y-81493777D01*
X126802324Y-81496694D01*
X126802320Y-81496696D01*
X126634602Y-81586344D01*
X126629143Y-81589262D01*
X126624364Y-81593183D01*
X126624358Y-81593188D01*
X126477343Y-81713841D01*
X126477337Y-81713846D01*
X126472564Y-81717764D01*
X126468646Y-81722537D01*
X126468641Y-81722543D01*
X126347988Y-81869558D01*
X126347983Y-81869564D01*
X126344062Y-81874343D01*
X126341144Y-81879801D01*
X126341144Y-81879802D01*
X126251496Y-82047520D01*
X126251494Y-82047524D01*
X126248577Y-82052982D01*
X126246782Y-82058898D01*
X126246780Y-82058904D01*
X126191574Y-82240895D01*
X126191572Y-82240901D01*
X126189778Y-82246818D01*
X126169924Y-82448400D01*
X126189778Y-82649982D01*
X126248577Y-82843818D01*
X126344062Y-83022457D01*
X126472564Y-83179036D01*
X126629143Y-83307538D01*
X126807782Y-83403023D01*
X127001618Y-83461822D01*
X127203200Y-83481676D01*
X127404782Y-83461822D01*
X127598618Y-83403023D01*
X127622666Y-83390168D01*
X127673817Y-83375560D01*
X127726443Y-83383365D01*
X127771156Y-83412194D01*
X127964571Y-83605610D01*
X128156396Y-83797435D01*
X128183709Y-83838312D01*
X128193300Y-83886530D01*
X128193300Y-84221775D01*
X128178422Y-84281171D01*
X128137302Y-84326540D01*
X128079650Y-84347168D01*
X128019082Y-84338184D01*
X127969901Y-84301709D01*
X127937758Y-84262543D01*
X127933836Y-84257764D01*
X127777257Y-84129262D01*
X127598618Y-84033777D01*
X127592697Y-84031981D01*
X127592695Y-84031980D01*
X127410704Y-83976774D01*
X127410700Y-83976773D01*
X127404782Y-83974978D01*
X127203200Y-83955124D01*
X127197037Y-83955731D01*
X127007780Y-83974371D01*
X127007779Y-83974371D01*
X127001618Y-83974978D01*
X126995701Y-83976772D01*
X126995695Y-83976774D01*
X126813704Y-84031980D01*
X126813698Y-84031982D01*
X126807782Y-84033777D01*
X126802324Y-84036694D01*
X126802320Y-84036696D01*
X126656255Y-84114770D01*
X126629143Y-84129262D01*
X126624362Y-84133186D01*
X126477343Y-84253841D01*
X126477337Y-84253846D01*
X126472564Y-84257764D01*
X126468646Y-84262537D01*
X126468641Y-84262543D01*
X126347988Y-84409558D01*
X126347983Y-84409564D01*
X126344062Y-84414343D01*
X126341144Y-84419801D01*
X126341144Y-84419802D01*
X126251496Y-84587520D01*
X126251494Y-84587524D01*
X126248577Y-84592982D01*
X126246782Y-84598898D01*
X126246780Y-84598904D01*
X126191574Y-84780895D01*
X126191572Y-84780901D01*
X126189778Y-84786818D01*
X126169924Y-84988400D01*
X125691499Y-84988400D01*
X125691499Y-84120840D01*
X125681155Y-84068831D01*
X125641747Y-84009853D01*
X125582769Y-83970445D01*
X125570599Y-83968024D01*
X125570596Y-83968023D01*
X125536829Y-83961307D01*
X125530761Y-83960100D01*
X125524574Y-83960100D01*
X123801831Y-83960100D01*
X123801820Y-83960100D01*
X123795640Y-83960101D01*
X123789572Y-83961307D01*
X123789570Y-83961308D01*
X123755803Y-83968024D01*
X123755802Y-83968024D01*
X123743631Y-83970445D01*
X123733311Y-83977340D01*
X123733310Y-83977341D01*
X123694968Y-84002960D01*
X123694965Y-84002962D01*
X123684653Y-84009853D01*
X123677762Y-84020165D01*
X123677760Y-84020168D01*
X123652140Y-84058511D01*
X123652138Y-84058513D01*
X123645245Y-84068831D01*
X123642824Y-84080999D01*
X123642823Y-84081003D01*
X123636107Y-84114770D01*
X123634900Y-84120839D01*
X123634900Y-84127024D01*
X123634900Y-84127025D01*
X123634900Y-85849768D01*
X117371064Y-85849768D01*
X120765069Y-82448400D01*
X123629924Y-82448400D01*
X123649778Y-82649982D01*
X123708577Y-82843818D01*
X123804062Y-83022457D01*
X123932564Y-83179036D01*
X124089143Y-83307538D01*
X124267782Y-83403023D01*
X124461618Y-83461822D01*
X124663200Y-83481676D01*
X124864782Y-83461822D01*
X125058618Y-83403023D01*
X125237257Y-83307538D01*
X125393836Y-83179036D01*
X125522338Y-83022457D01*
X125617823Y-82843818D01*
X125676622Y-82649982D01*
X125696476Y-82448400D01*
X125676622Y-82246818D01*
X125617823Y-82052982D01*
X125522338Y-81874343D01*
X125393836Y-81717764D01*
X125237257Y-81589262D01*
X125058618Y-81493777D01*
X125052697Y-81491981D01*
X125052695Y-81491980D01*
X124870704Y-81436774D01*
X124870700Y-81436773D01*
X124864782Y-81434978D01*
X124663200Y-81415124D01*
X124657037Y-81415731D01*
X124467780Y-81434371D01*
X124467779Y-81434371D01*
X124461618Y-81434978D01*
X124455701Y-81436772D01*
X124455695Y-81436774D01*
X124273704Y-81491980D01*
X124273698Y-81491982D01*
X124267782Y-81493777D01*
X124262324Y-81496694D01*
X124262320Y-81496696D01*
X124094602Y-81586344D01*
X124089143Y-81589262D01*
X124084364Y-81593183D01*
X124084358Y-81593188D01*
X123937343Y-81713841D01*
X123937337Y-81713846D01*
X123932564Y-81717764D01*
X123928646Y-81722537D01*
X123928641Y-81722543D01*
X123807988Y-81869558D01*
X123807983Y-81869564D01*
X123804062Y-81874343D01*
X123801144Y-81879801D01*
X123801144Y-81879802D01*
X123711496Y-82047520D01*
X123711494Y-82047524D01*
X123708577Y-82052982D01*
X123706782Y-82058898D01*
X123706780Y-82058904D01*
X123651574Y-82240895D01*
X123651572Y-82240901D01*
X123649778Y-82246818D01*
X123629924Y-82448400D01*
X120765069Y-82448400D01*
X126648202Y-76552504D01*
X126937903Y-76262803D01*
X126978780Y-76235491D01*
X127026998Y-76225900D01*
X152347602Y-76225900D01*
X152395820Y-76235491D01*
G37*
%TD.AperFunction*%
%TD*%
%TA.AperFunction,Conductor*%
%TO.N,GNDA*%
G36*
X162559841Y-86385948D02*
G01*
X170320395Y-94146502D01*
X170347709Y-94187379D01*
X170357300Y-94235597D01*
X170357300Y-97865220D01*
X170347692Y-97913479D01*
X170320333Y-97954378D01*
X152411494Y-115837958D01*
X152370638Y-115865226D01*
X152322461Y-115874800D01*
X132845233Y-115874800D01*
X132782233Y-115857919D01*
X132736114Y-115811800D01*
X132719233Y-115748800D01*
X132736114Y-115685800D01*
X132778272Y-115643641D01*
X132778045Y-115643344D01*
X132778045Y-115643343D01*
X132898848Y-115550648D01*
X132944777Y-115490792D01*
X132989008Y-115454494D01*
X133044736Y-115441500D01*
X134745499Y-115441500D01*
X134749061Y-115441747D01*
X134755171Y-115443795D01*
X134801911Y-115441634D01*
X134807731Y-115441500D01*
X134820074Y-115441500D01*
X134825906Y-115441500D01*
X134831644Y-115440427D01*
X134832368Y-115440360D01*
X134838155Y-115439958D01*
X134868444Y-115438558D01*
X134879129Y-115433839D01*
X134886900Y-115432012D01*
X134890344Y-115430945D01*
X134897780Y-115428064D01*
X134909263Y-115425918D01*
X134932139Y-115411752D01*
X134947566Y-115403620D01*
X134972175Y-115392756D01*
X134980432Y-115384497D01*
X134987012Y-115379991D01*
X134989851Y-115377742D01*
X134995743Y-115372370D01*
X135005671Y-115366224D01*
X135021885Y-115344752D01*
X135033332Y-115331597D01*
X140062391Y-110302538D01*
X140065074Y-110300203D01*
X140070845Y-110297331D01*
X140102374Y-110262744D01*
X140106351Y-110258578D01*
X140119240Y-110245691D01*
X140122543Y-110240867D01*
X140123001Y-110240317D01*
X140126803Y-110235947D01*
X140147238Y-110213533D01*
X140151456Y-110202642D01*
X140155666Y-110195844D01*
X140157329Y-110192689D01*
X140160561Y-110185368D01*
X140167164Y-110175731D01*
X140173320Y-110149554D01*
X140178484Y-110132876D01*
X140183981Y-110118687D01*
X140183981Y-110118686D01*
X140188200Y-110107797D01*
X140188200Y-110096116D01*
X140189663Y-110088289D01*
X140190083Y-110084669D01*
X140190450Y-110076718D01*
X140193124Y-110065350D01*
X140189407Y-110038710D01*
X140188200Y-110021303D01*
X140188200Y-108573100D01*
X140205081Y-108510100D01*
X140251200Y-108463981D01*
X140314200Y-108447100D01*
X140478659Y-108447100D01*
X140484846Y-108447100D01*
X140558733Y-108432403D01*
X140569050Y-108425508D01*
X140580519Y-108420759D01*
X140580892Y-108421659D01*
X140610317Y-108409470D01*
X140659483Y-108409470D01*
X140688907Y-108421659D01*
X140689281Y-108420759D01*
X140700749Y-108425509D01*
X140711067Y-108432403D01*
X140784954Y-108447100D01*
X140978659Y-108447100D01*
X140984846Y-108447100D01*
X141058733Y-108432403D01*
X141069050Y-108425508D01*
X141080519Y-108420759D01*
X141080892Y-108421659D01*
X141110317Y-108409470D01*
X141159483Y-108409470D01*
X141188907Y-108421659D01*
X141189281Y-108420759D01*
X141200749Y-108425509D01*
X141211067Y-108432403D01*
X141284954Y-108447100D01*
X141478659Y-108447100D01*
X141484846Y-108447100D01*
X141558733Y-108432403D01*
X141569050Y-108425508D01*
X141580519Y-108420759D01*
X141580892Y-108421659D01*
X141610317Y-108409470D01*
X141659483Y-108409470D01*
X141688907Y-108421659D01*
X141689281Y-108420759D01*
X141700749Y-108425509D01*
X141711067Y-108432403D01*
X141784954Y-108447100D01*
X141791141Y-108447100D01*
X141928200Y-108447100D01*
X141991200Y-108463981D01*
X142037319Y-108510100D01*
X142054200Y-108573100D01*
X142054200Y-108872866D01*
X142044609Y-108921084D01*
X142017295Y-108961961D01*
X141995440Y-108983815D01*
X141995437Y-108983818D01*
X141987642Y-108991614D01*
X141982983Y-109001603D01*
X141982982Y-109001606D01*
X141944277Y-109084609D01*
X141944275Y-109084612D01*
X141940203Y-109093347D01*
X141938944Y-109102902D01*
X141938944Y-109102906D01*
X141934638Y-109135616D01*
X141934100Y-109139704D01*
X141934100Y-109554296D01*
X141934637Y-109558382D01*
X141934638Y-109558383D01*
X141936388Y-109571679D01*
X141940203Y-109600653D01*
X141987642Y-109702386D01*
X141995440Y-109710184D01*
X142024795Y-109739539D01*
X142052109Y-109780416D01*
X142061700Y-109828634D01*
X142061700Y-109906766D01*
X142052109Y-109954984D01*
X142024795Y-109995861D01*
X141995440Y-110025215D01*
X141995437Y-110025218D01*
X141987642Y-110033014D01*
X141982983Y-110043003D01*
X141982982Y-110043006D01*
X141944277Y-110126009D01*
X141944275Y-110126012D01*
X141940203Y-110134747D01*
X141938944Y-110144302D01*
X141938944Y-110144306D01*
X141936297Y-110164415D01*
X141934100Y-110181104D01*
X141934100Y-110595696D01*
X141934637Y-110599782D01*
X141934638Y-110599783D01*
X141936354Y-110612822D01*
X141940203Y-110642053D01*
X141944276Y-110650789D01*
X141944277Y-110650790D01*
X141968539Y-110702821D01*
X141987642Y-110743786D01*
X141995440Y-110751584D01*
X142024795Y-110780939D01*
X142052109Y-110821816D01*
X142061700Y-110870034D01*
X142061700Y-111248088D01*
X142048706Y-111303816D01*
X142012405Y-111348049D01*
X141986503Y-111367924D01*
X141986497Y-111367929D01*
X141979952Y-111372952D01*
X141974929Y-111379497D01*
X141974925Y-111379502D01*
X141892284Y-111487201D01*
X141892280Y-111487206D01*
X141887256Y-111493755D01*
X141884098Y-111501378D01*
X141884095Y-111501384D01*
X141838345Y-111611835D01*
X141828985Y-111634433D01*
X141827908Y-111642613D01*
X141827906Y-111642621D01*
X141817731Y-111719917D01*
X141809110Y-111785400D01*
X141810188Y-111793588D01*
X141827906Y-111928178D01*
X141827907Y-111928184D01*
X141828985Y-111936367D01*
X141832144Y-111943995D01*
X141832145Y-111943996D01*
X141884095Y-112069415D01*
X141884096Y-112069418D01*
X141887256Y-112077045D01*
X141979952Y-112197848D01*
X142100755Y-112290544D01*
X142241433Y-112348815D01*
X142392400Y-112368690D01*
X142543367Y-112348815D01*
X142684045Y-112290544D01*
X142804848Y-112197848D01*
X142897544Y-112077045D01*
X142955815Y-111936367D01*
X142975690Y-111785400D01*
X142955815Y-111634433D01*
X142897544Y-111493755D01*
X142804848Y-111372952D01*
X142798297Y-111367925D01*
X142798296Y-111367924D01*
X142772395Y-111348049D01*
X142736094Y-111303816D01*
X142723100Y-111248088D01*
X142723100Y-110870034D01*
X142732691Y-110821816D01*
X142760005Y-110780939D01*
X142772665Y-110768279D01*
X142797158Y-110743786D01*
X142844597Y-110642053D01*
X142850700Y-110595696D01*
X142850700Y-110181104D01*
X142844597Y-110134747D01*
X142797158Y-110033014D01*
X142760005Y-109995860D01*
X142732691Y-109954984D01*
X142723100Y-109906766D01*
X142723100Y-109828634D01*
X142732691Y-109780416D01*
X142760005Y-109739539D01*
X142772197Y-109727347D01*
X142797158Y-109702386D01*
X142844597Y-109600653D01*
X142850700Y-109554296D01*
X142850700Y-109139704D01*
X142844597Y-109093347D01*
X142797158Y-108991614D01*
X142752505Y-108946960D01*
X142725191Y-108906084D01*
X142715600Y-108857866D01*
X142715600Y-106958400D01*
X142732481Y-106895400D01*
X142778600Y-106849281D01*
X142841600Y-106832400D01*
X150787390Y-106832400D01*
X150799800Y-106832400D01*
X152196800Y-105435400D01*
X152171550Y-96648599D01*
X152181071Y-96600189D01*
X152208451Y-96559148D01*
X162381653Y-86385946D01*
X162438135Y-86353336D01*
X162503357Y-86353336D01*
X162559841Y-86385948D01*
G37*
%TD.AperFunction*%
%TA.AperFunction,Conductor*%
G36*
X115056832Y-88233120D02*
G01*
X115113326Y-88265829D01*
X123423102Y-96600189D01*
X123559627Y-96737118D01*
X123586844Y-96777950D01*
X123596400Y-96826082D01*
X123596400Y-103860600D01*
X127558800Y-107823000D01*
X127571210Y-107823000D01*
X134146210Y-107823000D01*
X134162800Y-107823000D01*
X134162800Y-106958400D01*
X134179681Y-106895400D01*
X134225800Y-106849281D01*
X134288800Y-106832400D01*
X134930600Y-106832400D01*
X134993600Y-106849281D01*
X135039719Y-106895400D01*
X135056600Y-106958400D01*
X135056600Y-108218746D01*
X135057807Y-108224814D01*
X135068875Y-108280460D01*
X135068876Y-108280462D01*
X135071297Y-108292633D01*
X135073615Y-108296103D01*
X135081600Y-108336243D01*
X135081600Y-108531279D01*
X135072009Y-108579497D01*
X135044695Y-108620374D01*
X132575474Y-111089595D01*
X132534597Y-111116909D01*
X132486379Y-111126500D01*
X132368461Y-111126500D01*
X132355752Y-111125322D01*
X132349775Y-111123007D01*
X132338100Y-111123007D01*
X132330270Y-111121543D01*
X132326647Y-111121123D01*
X132318691Y-111120755D01*
X132307328Y-111118083D01*
X132295764Y-111119696D01*
X132280689Y-111121799D01*
X132263281Y-111123007D01*
X128352322Y-111123007D01*
X128300322Y-111111776D01*
X128257592Y-111080086D01*
X128236417Y-111041986D01*
X128235097Y-111042533D01*
X128232724Y-111036806D01*
X128230930Y-111030889D01*
X128228010Y-111025427D01*
X128205409Y-110983144D01*
X128135445Y-110852250D01*
X128006943Y-110695671D01*
X127885124Y-110595696D01*
X127855148Y-110571095D01*
X127855146Y-110571094D01*
X127850364Y-110567169D01*
X127671725Y-110471684D01*
X127665804Y-110469888D01*
X127665802Y-110469887D01*
X127483811Y-110414681D01*
X127483807Y-110414680D01*
X127477889Y-110412885D01*
X127276307Y-110393031D01*
X127270144Y-110393638D01*
X127080887Y-110412278D01*
X127080886Y-110412278D01*
X127074725Y-110412885D01*
X127068808Y-110414679D01*
X127068802Y-110414681D01*
X126886811Y-110469887D01*
X126886805Y-110469889D01*
X126880889Y-110471684D01*
X126875431Y-110474601D01*
X126875427Y-110474603D01*
X126712699Y-110561584D01*
X126702250Y-110567169D01*
X126697471Y-110571090D01*
X126697465Y-110571095D01*
X126550450Y-110691748D01*
X126550444Y-110691753D01*
X126545671Y-110695671D01*
X126541753Y-110700444D01*
X126541748Y-110700450D01*
X126421095Y-110847465D01*
X126421090Y-110847471D01*
X126417169Y-110852250D01*
X126414251Y-110857708D01*
X126414251Y-110857709D01*
X126324603Y-111025427D01*
X126324601Y-111025431D01*
X126321684Y-111030889D01*
X126319889Y-111036805D01*
X126319887Y-111036811D01*
X126264681Y-111218802D01*
X126264679Y-111218808D01*
X126262885Y-111224725D01*
X126243031Y-111426307D01*
X126262885Y-111627889D01*
X126264680Y-111633807D01*
X126264681Y-111633811D01*
X126301271Y-111754432D01*
X126321684Y-111821725D01*
X126324603Y-111827186D01*
X126358107Y-111889868D01*
X126372597Y-111959150D01*
X126347447Y-112025312D01*
X126290596Y-112067476D01*
X126219982Y-112072336D01*
X126157890Y-112038359D01*
X125820461Y-111700930D01*
X125793147Y-111660053D01*
X125783556Y-111611835D01*
X125783556Y-110706271D01*
X125794787Y-110654271D01*
X125826477Y-110611541D01*
X125864576Y-110590366D01*
X125864030Y-110589046D01*
X125869755Y-110586674D01*
X125875674Y-110584879D01*
X126054313Y-110489394D01*
X126210892Y-110360892D01*
X126339394Y-110204313D01*
X126434879Y-110025674D01*
X126493678Y-109831838D01*
X126513532Y-109630256D01*
X126493678Y-109428674D01*
X126434879Y-109234838D01*
X126339394Y-109056199D01*
X126210892Y-108899620D01*
X126206112Y-108895697D01*
X126059097Y-108775044D01*
X126059095Y-108775043D01*
X126054313Y-108771118D01*
X125875674Y-108675633D01*
X125869753Y-108673837D01*
X125869751Y-108673836D01*
X125687760Y-108618630D01*
X125687756Y-108618629D01*
X125681838Y-108616834D01*
X125480256Y-108596980D01*
X125474093Y-108597587D01*
X125284836Y-108616227D01*
X125284835Y-108616227D01*
X125278674Y-108616834D01*
X125272757Y-108618628D01*
X125272751Y-108618630D01*
X125090760Y-108673836D01*
X125090754Y-108673838D01*
X125084838Y-108675633D01*
X125079380Y-108678550D01*
X125079376Y-108678552D01*
X124911658Y-108768200D01*
X124906199Y-108771118D01*
X124901420Y-108775039D01*
X124901414Y-108775044D01*
X124754399Y-108895697D01*
X124754393Y-108895702D01*
X124749620Y-108899620D01*
X124745702Y-108904393D01*
X124745697Y-108904399D01*
X124625044Y-109051414D01*
X124625039Y-109051420D01*
X124621118Y-109056199D01*
X124618200Y-109061657D01*
X124618200Y-109061658D01*
X124528552Y-109229376D01*
X124528550Y-109229380D01*
X124525633Y-109234838D01*
X124523838Y-109240754D01*
X124523836Y-109240760D01*
X124468630Y-109422751D01*
X124468628Y-109422757D01*
X124466834Y-109428674D01*
X124446980Y-109630256D01*
X124466834Y-109831838D01*
X124468629Y-109837756D01*
X124468630Y-109837760D01*
X124505394Y-109958956D01*
X124525633Y-110025674D01*
X124621118Y-110204313D01*
X124625043Y-110209095D01*
X124625044Y-110209097D01*
X124730254Y-110337295D01*
X124749620Y-110360892D01*
X124906199Y-110489394D01*
X125014722Y-110547401D01*
X125079382Y-110581963D01*
X125079384Y-110581964D01*
X125084838Y-110584879D01*
X125090755Y-110586673D01*
X125096482Y-110589046D01*
X125095935Y-110590366D01*
X125134035Y-110611541D01*
X125165725Y-110654271D01*
X125176956Y-110706271D01*
X125176956Y-111702670D01*
X125174157Y-111719917D01*
X125175728Y-111720137D01*
X125174114Y-111731702D01*
X125170405Y-111742771D01*
X125170944Y-111754431D01*
X125170944Y-111754432D01*
X125175102Y-111844381D01*
X125175102Y-111844385D01*
X125175642Y-111856044D01*
X125180358Y-111866724D01*
X125214476Y-111943996D01*
X125221444Y-111959775D01*
X125229701Y-111968032D01*
X126418351Y-113156682D01*
X126420697Y-113159377D01*
X126423569Y-113165145D01*
X126432193Y-113173007D01*
X126432194Y-113173008D01*
X126458151Y-113196671D01*
X126462359Y-113200690D01*
X126475208Y-113213539D01*
X126480017Y-113216833D01*
X126480590Y-113217309D01*
X126484973Y-113221123D01*
X126507367Y-113241538D01*
X126518250Y-113245753D01*
X126525019Y-113249945D01*
X126528227Y-113251636D01*
X126535531Y-113254861D01*
X126545169Y-113261463D01*
X126571272Y-113267602D01*
X126571345Y-113267619D01*
X126588017Y-113272781D01*
X126613103Y-113282500D01*
X126624781Y-113282500D01*
X126632607Y-113283963D01*
X126636232Y-113284383D01*
X126644183Y-113284750D01*
X126655550Y-113287424D01*
X126682189Y-113283707D01*
X126699597Y-113282500D01*
X127495806Y-113282500D01*
X127499368Y-113282747D01*
X127505478Y-113284795D01*
X127552218Y-113282634D01*
X127558038Y-113282500D01*
X127570381Y-113282500D01*
X127576213Y-113282500D01*
X127581951Y-113281427D01*
X127582675Y-113281360D01*
X127588462Y-113280958D01*
X127618751Y-113279558D01*
X127629436Y-113274839D01*
X127637207Y-113273012D01*
X127640651Y-113271945D01*
X127648087Y-113269064D01*
X127659570Y-113266918D01*
X127682446Y-113252752D01*
X127697873Y-113244620D01*
X127722482Y-113233756D01*
X127730739Y-113225497D01*
X127737319Y-113220991D01*
X127740158Y-113218742D01*
X127746050Y-113213370D01*
X127755978Y-113207224D01*
X127772192Y-113185752D01*
X127783633Y-113172603D01*
X127824598Y-113131638D01*
X127874755Y-113100903D01*
X127933402Y-113096288D01*
X127987751Y-113118801D01*
X128025957Y-113163534D01*
X128039372Y-113219415D01*
X128039083Y-113222359D01*
X128058937Y-113423941D01*
X128060732Y-113429859D01*
X128060733Y-113429863D01*
X128093199Y-113536890D01*
X128117736Y-113617777D01*
X128213221Y-113796416D01*
X128341723Y-113952995D01*
X128498302Y-114081497D01*
X128676941Y-114176982D01*
X128870777Y-114235781D01*
X129072359Y-114255635D01*
X129273941Y-114235781D01*
X129467777Y-114176982D01*
X129646416Y-114081497D01*
X129802995Y-113952995D01*
X129931497Y-113796416D01*
X130026982Y-113617777D01*
X130028779Y-113611854D01*
X130031149Y-113606133D01*
X130032469Y-113606679D01*
X130053644Y-113568580D01*
X130096374Y-113536890D01*
X130148374Y-113525659D01*
X134218340Y-113525659D01*
X134221902Y-113525906D01*
X134228012Y-113527954D01*
X134274752Y-113525793D01*
X134280572Y-113525659D01*
X134292915Y-113525659D01*
X134298747Y-113525659D01*
X134304485Y-113524586D01*
X134305209Y-113524519D01*
X134310996Y-113524117D01*
X134341285Y-113522717D01*
X134351970Y-113517998D01*
X134359741Y-113516171D01*
X134363185Y-113515104D01*
X134370621Y-113512223D01*
X134382104Y-113510077D01*
X134404980Y-113495911D01*
X134420407Y-113487779D01*
X134445016Y-113476915D01*
X134453273Y-113468656D01*
X134459853Y-113464150D01*
X134462692Y-113461901D01*
X134468584Y-113456529D01*
X134478512Y-113450383D01*
X134494726Y-113428911D01*
X134506173Y-113415756D01*
X137866505Y-110055424D01*
X137916664Y-110024687D01*
X137975311Y-110020071D01*
X138029661Y-110042584D01*
X138067867Y-110087317D01*
X138081600Y-110144520D01*
X138081600Y-110768279D01*
X138072009Y-110816497D01*
X138044695Y-110857374D01*
X134857174Y-114044895D01*
X134816297Y-114072209D01*
X134768079Y-114081800D01*
X132181136Y-114081800D01*
X132125408Y-114068806D01*
X132081177Y-114032507D01*
X132035248Y-113972652D01*
X132009631Y-113952995D01*
X131920998Y-113884984D01*
X131920996Y-113884983D01*
X131914445Y-113879956D01*
X131906818Y-113876796D01*
X131906815Y-113876795D01*
X131781396Y-113824845D01*
X131781395Y-113824844D01*
X131773767Y-113821685D01*
X131765584Y-113820607D01*
X131765578Y-113820606D01*
X131630988Y-113802888D01*
X131622800Y-113801810D01*
X131614612Y-113802888D01*
X131480021Y-113820606D01*
X131480013Y-113820608D01*
X131471833Y-113821685D01*
X131464206Y-113824844D01*
X131464203Y-113824845D01*
X131338784Y-113876795D01*
X131338778Y-113876798D01*
X131331155Y-113879956D01*
X131324606Y-113884980D01*
X131324601Y-113884984D01*
X131216902Y-113967625D01*
X131216897Y-113967629D01*
X131210352Y-113972652D01*
X131205329Y-113979197D01*
X131205325Y-113979202D01*
X131122684Y-114086901D01*
X131122680Y-114086906D01*
X131117656Y-114093455D01*
X131114498Y-114101078D01*
X131114495Y-114101084D01*
X131062545Y-114226503D01*
X131059385Y-114234133D01*
X131058308Y-114242313D01*
X131058306Y-114242321D01*
X131041232Y-114372013D01*
X131039510Y-114385100D01*
X131040588Y-114393288D01*
X131058306Y-114527878D01*
X131058307Y-114527884D01*
X131059385Y-114536067D01*
X131062544Y-114543695D01*
X131062545Y-114543696D01*
X131114495Y-114669115D01*
X131114496Y-114669118D01*
X131117656Y-114676745D01*
X131122683Y-114683296D01*
X131122684Y-114683298D01*
X131205325Y-114790997D01*
X131210352Y-114797548D01*
X131331155Y-114890244D01*
X131471833Y-114948515D01*
X131480020Y-114949592D01*
X131480021Y-114949593D01*
X131547316Y-114958452D01*
X131622800Y-114968390D01*
X131768006Y-114949273D01*
X131824950Y-114954882D01*
X131873544Y-114985099D01*
X131903762Y-115033693D01*
X131909371Y-115090641D01*
X131903110Y-115138200D01*
X131904188Y-115146388D01*
X131921906Y-115280978D01*
X131921907Y-115280984D01*
X131922985Y-115289167D01*
X131926144Y-115296795D01*
X131926145Y-115296796D01*
X131978095Y-115422215D01*
X131978096Y-115422218D01*
X131981256Y-115429845D01*
X131986283Y-115436396D01*
X131986284Y-115436398D01*
X132068925Y-115544097D01*
X132073952Y-115550648D01*
X132192498Y-115641612D01*
X132194755Y-115643344D01*
X132194527Y-115643641D01*
X132236686Y-115685800D01*
X132253567Y-115748800D01*
X132236686Y-115811800D01*
X132190567Y-115857919D01*
X132127567Y-115874800D01*
X127052086Y-115874800D01*
X127003950Y-115865243D01*
X126963117Y-115838021D01*
X118936628Y-107834205D01*
X122650929Y-107834205D01*
X122670783Y-108035787D01*
X122672578Y-108041705D01*
X122672579Y-108041709D01*
X122727785Y-108223700D01*
X122729582Y-108229623D01*
X122825067Y-108408262D01*
X122953569Y-108564841D01*
X123110148Y-108693343D01*
X123288787Y-108788828D01*
X123482623Y-108847627D01*
X123684205Y-108867481D01*
X123885787Y-108847627D01*
X124079623Y-108788828D01*
X124258262Y-108693343D01*
X124414841Y-108564841D01*
X124543343Y-108408262D01*
X124638828Y-108229623D01*
X124697627Y-108035787D01*
X124717481Y-107834205D01*
X124697627Y-107632623D01*
X124638828Y-107438787D01*
X124543343Y-107260148D01*
X124414841Y-107103569D01*
X124258262Y-106975067D01*
X124079623Y-106879582D01*
X124073702Y-106877786D01*
X124073700Y-106877785D01*
X123891709Y-106822579D01*
X123891705Y-106822578D01*
X123885787Y-106820783D01*
X123684205Y-106800929D01*
X123678042Y-106801536D01*
X123488785Y-106820176D01*
X123488784Y-106820176D01*
X123482623Y-106820783D01*
X123476706Y-106822577D01*
X123476700Y-106822579D01*
X123294709Y-106877785D01*
X123294703Y-106877787D01*
X123288787Y-106879582D01*
X123283329Y-106882499D01*
X123283325Y-106882501D01*
X123115607Y-106972149D01*
X123110148Y-106975067D01*
X123105369Y-106978988D01*
X123105363Y-106978993D01*
X122958348Y-107099646D01*
X122958342Y-107099651D01*
X122953569Y-107103569D01*
X122949651Y-107108342D01*
X122949646Y-107108348D01*
X122828993Y-107255363D01*
X122828988Y-107255369D01*
X122825067Y-107260148D01*
X122822149Y-107265606D01*
X122822149Y-107265607D01*
X122732501Y-107433325D01*
X122732499Y-107433329D01*
X122729582Y-107438787D01*
X122727787Y-107444703D01*
X122727785Y-107444709D01*
X122672579Y-107626700D01*
X122672577Y-107626706D01*
X122670783Y-107632623D01*
X122650929Y-107834205D01*
X118936628Y-107834205D01*
X117135489Y-106038154D01*
X120854878Y-106038154D01*
X120874732Y-106239736D01*
X120876527Y-106245654D01*
X120876528Y-106245658D01*
X120931734Y-106427649D01*
X120933531Y-106433572D01*
X121029016Y-106612211D01*
X121032941Y-106616993D01*
X121032942Y-106616995D01*
X121119433Y-106722384D01*
X121157518Y-106768790D01*
X121314097Y-106897292D01*
X121492736Y-106992777D01*
X121686572Y-107051576D01*
X121888154Y-107071430D01*
X122089736Y-107051576D01*
X122283572Y-106992777D01*
X122462211Y-106897292D01*
X122618790Y-106768790D01*
X122747292Y-106612211D01*
X122842777Y-106433572D01*
X122901576Y-106239736D01*
X122921430Y-106038154D01*
X122901576Y-105836572D01*
X122842777Y-105642736D01*
X122747292Y-105464097D01*
X122618790Y-105307518D01*
X122485978Y-105198521D01*
X122466995Y-105182942D01*
X122466993Y-105182941D01*
X122462211Y-105179016D01*
X122283572Y-105083531D01*
X122277651Y-105081735D01*
X122277649Y-105081734D01*
X122095658Y-105026528D01*
X122095654Y-105026527D01*
X122089736Y-105024732D01*
X121888154Y-105004878D01*
X121881991Y-105005485D01*
X121692734Y-105024125D01*
X121692733Y-105024125D01*
X121686572Y-105024732D01*
X121680655Y-105026526D01*
X121680649Y-105026528D01*
X121498658Y-105081734D01*
X121498652Y-105081736D01*
X121492736Y-105083531D01*
X121487278Y-105086448D01*
X121487274Y-105086450D01*
X121327612Y-105171792D01*
X121314097Y-105179016D01*
X121309318Y-105182937D01*
X121309312Y-105182942D01*
X121162297Y-105303595D01*
X121162291Y-105303600D01*
X121157518Y-105307518D01*
X121153600Y-105312291D01*
X121153595Y-105312297D01*
X121032942Y-105459312D01*
X121032937Y-105459318D01*
X121029016Y-105464097D01*
X121026098Y-105469555D01*
X121026098Y-105469556D01*
X120936450Y-105637274D01*
X120936448Y-105637278D01*
X120933531Y-105642736D01*
X120931736Y-105648652D01*
X120931734Y-105648658D01*
X120876528Y-105830649D01*
X120876526Y-105830655D01*
X120874732Y-105836572D01*
X120874125Y-105842733D01*
X120874125Y-105842734D01*
X120864614Y-105939304D01*
X120854878Y-106038154D01*
X117135489Y-106038154D01*
X115334349Y-104242102D01*
X119058826Y-104242102D01*
X119078680Y-104443684D01*
X119080475Y-104449602D01*
X119080476Y-104449606D01*
X119135682Y-104631597D01*
X119137479Y-104637520D01*
X119232964Y-104816159D01*
X119361466Y-104972738D01*
X119518045Y-105101240D01*
X119696684Y-105196725D01*
X119890520Y-105255524D01*
X120092102Y-105275378D01*
X120293684Y-105255524D01*
X120487520Y-105196725D01*
X120666159Y-105101240D01*
X120822738Y-104972738D01*
X120951240Y-104816159D01*
X121046725Y-104637520D01*
X121105524Y-104443684D01*
X121125378Y-104242102D01*
X121105524Y-104040520D01*
X121046725Y-103846684D01*
X120951240Y-103668045D01*
X120822738Y-103511466D01*
X120677049Y-103391901D01*
X120670943Y-103386890D01*
X120670941Y-103386889D01*
X120666159Y-103382964D01*
X120487520Y-103287479D01*
X120481599Y-103285683D01*
X120481597Y-103285682D01*
X120299606Y-103230476D01*
X120299602Y-103230475D01*
X120293684Y-103228680D01*
X120092102Y-103208826D01*
X120085939Y-103209433D01*
X119896682Y-103228073D01*
X119896681Y-103228073D01*
X119890520Y-103228680D01*
X119884603Y-103230474D01*
X119884597Y-103230476D01*
X119702606Y-103285682D01*
X119702600Y-103285684D01*
X119696684Y-103287479D01*
X119691226Y-103290396D01*
X119691222Y-103290398D01*
X119523504Y-103380046D01*
X119518045Y-103382964D01*
X119513266Y-103386885D01*
X119513260Y-103386890D01*
X119366245Y-103507543D01*
X119366239Y-103507548D01*
X119361466Y-103511466D01*
X119357548Y-103516239D01*
X119357543Y-103516245D01*
X119236890Y-103663260D01*
X119236885Y-103663266D01*
X119232964Y-103668045D01*
X119230046Y-103673503D01*
X119230046Y-103673504D01*
X119140398Y-103841222D01*
X119140396Y-103841226D01*
X119137479Y-103846684D01*
X119135684Y-103852600D01*
X119135682Y-103852606D01*
X119080476Y-104034597D01*
X119080474Y-104034603D01*
X119078680Y-104040520D01*
X119058826Y-104242102D01*
X115334349Y-104242102D01*
X111732071Y-100650000D01*
X115116126Y-100650000D01*
X115118547Y-100662171D01*
X115127542Y-100707396D01*
X115129964Y-100719569D01*
X115159424Y-100763660D01*
X116386340Y-101990575D01*
X116430431Y-102020036D01*
X116500000Y-102033874D01*
X116569569Y-102020036D01*
X116613660Y-101990576D01*
X117840575Y-100763660D01*
X117870036Y-100719569D01*
X117883874Y-100650000D01*
X117870036Y-100580431D01*
X117840576Y-100536340D01*
X116613660Y-99309425D01*
X116569569Y-99279964D01*
X116557399Y-99277543D01*
X116557396Y-99277542D01*
X116512171Y-99268547D01*
X116500000Y-99266126D01*
X116487829Y-99268547D01*
X116442600Y-99277543D01*
X116442597Y-99277543D01*
X116430431Y-99279964D01*
X116420115Y-99286856D01*
X116420114Y-99286857D01*
X116391484Y-99305986D01*
X116391477Y-99305991D01*
X116386340Y-99309424D01*
X116381966Y-99313797D01*
X116381961Y-99313802D01*
X115163803Y-100531961D01*
X115163798Y-100531966D01*
X115159425Y-100536340D01*
X115155988Y-100541482D01*
X115155986Y-100541486D01*
X115136859Y-100570111D01*
X115136857Y-100570113D01*
X115129964Y-100580431D01*
X115127543Y-100592598D01*
X115127542Y-100592603D01*
X115119142Y-100634835D01*
X115116126Y-100650000D01*
X111732071Y-100650000D01*
X109053478Y-97978974D01*
X109026236Y-97938446D01*
X109016450Y-97890604D01*
X108991930Y-94261817D01*
X109001356Y-94213145D01*
X109028830Y-94171877D01*
X114935012Y-88265695D01*
X114991550Y-88233071D01*
X115056832Y-88233120D01*
G37*
%TD.AperFunction*%
%TA.AperFunction,Conductor*%
G36*
X138993600Y-106849281D02*
G01*
X139039719Y-106895400D01*
X139056600Y-106958400D01*
X139056600Y-108218746D01*
X139057807Y-108224814D01*
X139068875Y-108280460D01*
X139068876Y-108280463D01*
X139071297Y-108292633D01*
X139127281Y-108376419D01*
X139211067Y-108432403D01*
X139284954Y-108447100D01*
X139291141Y-108447100D01*
X139455600Y-108447100D01*
X139518600Y-108463981D01*
X139564719Y-108510100D01*
X139581600Y-108573100D01*
X139581600Y-109873279D01*
X139572009Y-109921497D01*
X139544695Y-109962374D01*
X138903295Y-110603774D01*
X138853136Y-110634512D01*
X138794489Y-110639128D01*
X138740139Y-110616615D01*
X138701933Y-110571882D01*
X138688200Y-110514679D01*
X138688200Y-108336243D01*
X138696184Y-108296103D01*
X138698503Y-108292633D01*
X138713200Y-108218746D01*
X138713200Y-106958400D01*
X138730081Y-106895400D01*
X138776200Y-106849281D01*
X138839200Y-106832400D01*
X138930600Y-106832400D01*
X138993600Y-106849281D01*
G37*
%TD.AperFunction*%
%TD*%
D30*
X170357800Y-94183200D02*
X170357800Y-97942400D01*
X152374600Y-115900200D01*
X126974600Y-115900200D01*
X108991400Y-97942400D01*
X108991400Y-94208600D01*
X126974600Y-76225400D01*
X152400000Y-76225400D01*
X170357800Y-94183200D01*
M02*
