%TF.GenerationSoftware,KiCad,Pcbnew,(7.0.0)*%
%TF.CreationDate,2023-03-06T19:23:03-05:00*%
%TF.ProjectId,cyton daisy,6379746f-6e20-4646-9169-73792e6b6963,rev?*%
%TF.SameCoordinates,Original*%
%TF.FileFunction,Paste,Bot*%
%TF.FilePolarity,Positive*%
%FSLAX46Y46*%
G04 Gerber Fmt 4.6, Leading zero omitted, Abs format (unit mm)*
G04 Created by KiCad (PCBNEW (7.0.0)) date 2023-03-06 19:23:03*
%MOMM*%
%LPD*%
G01*
G04 APERTURE LIST*
G04 Aperture macros list*
%AMRoundRect*
0 Rectangle with rounded corners*
0 $1 Rounding radius*
0 $2 $3 $4 $5 $6 $7 $8 $9 X,Y pos of 4 corners*
0 Add a 4 corners polygon primitive as box body*
4,1,4,$2,$3,$4,$5,$6,$7,$8,$9,$2,$3,0*
0 Add four circle primitives for the rounded corners*
1,1,$1+$1,$2,$3*
1,1,$1+$1,$4,$5*
1,1,$1+$1,$6,$7*
1,1,$1+$1,$8,$9*
0 Add four rect primitives between the rounded corners*
20,1,$1+$1,$2,$3,$4,$5,0*
20,1,$1+$1,$4,$5,$6,$7,0*
20,1,$1+$1,$6,$7,$8,$9,0*
20,1,$1+$1,$8,$9,$2,$3,0*%
G04 Aperture macros list end*
%ADD10RoundRect,0.140000X0.170000X-0.140000X0.170000X0.140000X-0.170000X0.140000X-0.170000X-0.140000X0*%
%ADD11RoundRect,0.140000X0.140000X0.170000X-0.140000X0.170000X-0.140000X-0.170000X0.140000X-0.170000X0*%
%ADD12RoundRect,0.140000X-0.170000X0.140000X-0.170000X-0.140000X0.170000X-0.140000X0.170000X0.140000X0*%
%ADD13RoundRect,0.010500X0.094500X-0.374500X0.094500X0.374500X-0.094500X0.374500X-0.094500X-0.374500X0*%
%ADD14RoundRect,0.010500X-0.094500X0.374500X-0.094500X-0.374500X0.094500X-0.374500X0.094500X0.374500X0*%
%ADD15R,0.850900X0.355600*%
%ADD16RoundRect,0.135000X-0.135000X-0.185000X0.135000X-0.185000X0.135000X0.185000X-0.135000X0.185000X0*%
%ADD17RoundRect,0.140000X-0.140000X-0.170000X0.140000X-0.170000X0.140000X0.170000X-0.140000X0.170000X0*%
%TA.AperFunction,Profile*%
%ADD18C,0.101600*%
%TD*%
G04 APERTURE END LIST*
D10*
%TO.C,C27*%
X142697200Y-100505200D03*
X142697200Y-99545200D03*
%TD*%
D11*
%TO.C,C26*%
X145818800Y-102260400D03*
X144858800Y-102260400D03*
%TD*%
D12*
%TO.C,C25*%
X136093200Y-99136200D03*
X136093200Y-100096200D03*
%TD*%
D13*
%TO.C,C5*%
X149543200Y-96405600D03*
X149043200Y-96405600D03*
X148543200Y-96405600D03*
X148043200Y-96405600D03*
D14*
X148043200Y-94805600D03*
X148543200Y-94805600D03*
X149043200Y-94805600D03*
X149543200Y-94805600D03*
%TD*%
D13*
%TO.C,C4*%
X144463200Y-96405600D03*
X143963200Y-96405600D03*
X143463200Y-96405600D03*
X142963200Y-96405600D03*
D14*
X142963200Y-94805600D03*
X143463200Y-94805600D03*
X143963200Y-94805600D03*
X144463200Y-94805600D03*
%TD*%
D12*
%TO.C,C20*%
X138252200Y-99136200D03*
X138252200Y-100096200D03*
%TD*%
D15*
%TO.C,D4*%
X144849849Y-87843600D03*
X144849849Y-88493599D03*
X144849849Y-89143598D03*
X142576549Y-89143598D03*
X142576549Y-88493599D03*
X142576549Y-87843600D03*
%TD*%
D16*
%TO.C,R13*%
X143889000Y-98501200D03*
X144909000Y-98501200D03*
%TD*%
D15*
%TO.C,D6*%
X155009849Y-87843600D03*
X155009849Y-88493599D03*
X155009849Y-89143598D03*
X152736549Y-89143598D03*
X152736549Y-88493599D03*
X152736549Y-87843600D03*
%TD*%
D13*
%TO.C,C1*%
X129223200Y-96405600D03*
X128723200Y-96405600D03*
X128223200Y-96405600D03*
X127723200Y-96405600D03*
D14*
X127723200Y-94805600D03*
X128223200Y-94805600D03*
X128723200Y-94805600D03*
X129223200Y-94805600D03*
%TD*%
D17*
%TO.C,C9*%
X134902000Y-104244200D03*
X135862000Y-104244200D03*
%TD*%
D15*
%TO.C,D3*%
X139769849Y-87843600D03*
X139769849Y-88493599D03*
X139769849Y-89143598D03*
X137496549Y-89143598D03*
X137496549Y-88493599D03*
X137496549Y-87843600D03*
%TD*%
D12*
%TO.C,C23*%
X137160000Y-99136200D03*
X137160000Y-100096200D03*
%TD*%
D13*
%TO.C,C3*%
X139383200Y-96391300D03*
X138883200Y-96391300D03*
X138383200Y-96391300D03*
X137883200Y-96391300D03*
D14*
X137883200Y-94791300D03*
X138383200Y-94791300D03*
X138883200Y-94791300D03*
X139383200Y-94791300D03*
%TD*%
D11*
%TO.C,C24*%
X145818800Y-101244400D03*
X144858800Y-101244400D03*
%TD*%
D15*
%TO.C,D1*%
X129609849Y-87843600D03*
X129609849Y-88493599D03*
X129609849Y-89143598D03*
X127336549Y-89143598D03*
X127336549Y-88493599D03*
X127336549Y-87843600D03*
%TD*%
D13*
%TO.C,C2*%
X134303200Y-96380200D03*
X133803200Y-96380200D03*
X133303200Y-96380200D03*
X132803200Y-96380200D03*
D14*
X132803200Y-94780200D03*
X133303200Y-94780200D03*
X133803200Y-94780200D03*
X134303200Y-94780200D03*
%TD*%
D12*
%TO.C,C22*%
X139344400Y-99136200D03*
X139344400Y-100096200D03*
%TD*%
D15*
%TO.C,D2*%
X134689849Y-87843600D03*
X134689849Y-88493599D03*
X134689849Y-89143598D03*
X132416549Y-89143598D03*
X132416549Y-88493599D03*
X132416549Y-87843600D03*
%TD*%
D17*
%TO.C,C7*%
X134952800Y-103047800D03*
X135912800Y-103047800D03*
%TD*%
D15*
%TO.C,D5*%
X149929849Y-87843600D03*
X149929849Y-88493599D03*
X149929849Y-89143598D03*
X147656549Y-89143598D03*
X147656549Y-88493599D03*
X147656549Y-87843600D03*
%TD*%
D18*
X170357800Y-94183200D02*
X170357800Y-97942400D01*
X152374600Y-115900200D01*
X126974600Y-115900200D01*
X108991400Y-97942400D01*
X108991400Y-94208600D01*
X126974600Y-76225400D01*
X152400000Y-76225400D01*
X170357800Y-94183200D01*
M02*
